<?xml version="1.0" encoding="utf-8" standalone="no"?>
<!DOCTYPE svg PUBLIC "-//W3C//DTD SVG 1.1//EN"
  "http://www.w3.org/Graphics/SVG/1.1/DTD/svg11.dtd">
<!-- Created with matplotlib (https://matplotlib.org/) -->
<svg height="353.281875pt" version="1.1" viewBox="0 0 628.20125 353.281875" width="628.20125pt" xmlns="http://www.w3.org/2000/svg" xmlns:xlink="http://www.w3.org/1999/xlink">
 <defs>
  <style type="text/css">
*{stroke-linecap:butt;stroke-linejoin:round;}
  </style>
 </defs>
 <g id="figure_1">
  <g id="patch_1">
   <path d="M 0 353.281875 
L 628.20125 353.281875 
L 628.20125 0 
L 0 0 
z
" style="fill:none;"/>
  </g>
  <g id="axes_1">
   <g id="patch_2">
    <path d="M 63.00125 300.196875 
L 621.00125 300.196875 
L 621.00125 28.396875 
L 63.00125 28.396875 
z
" style="fill:#ffffff;"/>
   </g>
   <g id="matplotlib.axis_1">
    <g id="xtick_1">
     <g id="line2d_1">
      <defs>
       <path d="M 0 0 
L 0 3.5 
" id="m7f6b36866e" style="stroke:#000000;stroke-width:0.8;"/>
      </defs>
      <g>
       <use style="stroke:#000000;stroke-width:0.8;" x="88.364886" xlink:href="#m7f6b36866e" y="300.196875"/>
      </g>
     </g>
     <g id="text_1">
      <!-- 0 -->
      <defs>
       <path d="M 31.78125 66.40625 
Q 24.171875 66.40625 20.328125 58.90625 
Q 16.5 51.421875 16.5 36.375 
Q 16.5 21.390625 20.328125 13.890625 
Q 24.171875 6.390625 31.78125 6.390625 
Q 39.453125 6.390625 43.28125 13.890625 
Q 47.125 21.390625 47.125 36.375 
Q 47.125 51.421875 43.28125 58.90625 
Q 39.453125 66.40625 31.78125 66.40625 
z
M 31.78125 74.21875 
Q 44.046875 74.21875 50.515625 64.515625 
Q 56.984375 54.828125 56.984375 36.375 
Q 56.984375 17.96875 50.515625 8.265625 
Q 44.046875 -1.421875 31.78125 -1.421875 
Q 19.53125 -1.421875 13.0625 8.265625 
Q 6.59375 17.96875 6.59375 36.375 
Q 6.59375 54.828125 13.0625 64.515625 
Q 19.53125 74.21875 31.78125 74.21875 
z
" id="DejaVuSans-48"/>
      </defs>
      <g transform="translate(83.274886 319.354375)scale(0.16 -0.16)">
       <use xlink:href="#DejaVuSans-48"/>
      </g>
     </g>
    </g>
    <g id="xtick_2">
     <g id="line2d_2">
      <g>
       <use style="stroke:#000000;stroke-width:0.8;" x="190.844225" xlink:href="#m7f6b36866e" y="300.196875"/>
      </g>
     </g>
     <g id="text_2">
      <!-- 1 -->
      <defs>
       <path d="M 12.40625 8.296875 
L 28.515625 8.296875 
L 28.515625 63.921875 
L 10.984375 60.40625 
L 10.984375 69.390625 
L 28.421875 72.90625 
L 38.28125 72.90625 
L 38.28125 8.296875 
L 54.390625 8.296875 
L 54.390625 0 
L 12.40625 0 
z
" id="DejaVuSans-49"/>
      </defs>
      <g transform="translate(185.754225 319.354375)scale(0.16 -0.16)">
       <use xlink:href="#DejaVuSans-49"/>
      </g>
     </g>
    </g>
    <g id="xtick_3">
     <g id="line2d_3">
      <g>
       <use style="stroke:#000000;stroke-width:0.8;" x="293.323564" xlink:href="#m7f6b36866e" y="300.196875"/>
      </g>
     </g>
     <g id="text_3">
      <!-- 2 -->
      <defs>
       <path d="M 19.1875 8.296875 
L 53.609375 8.296875 
L 53.609375 0 
L 7.328125 0 
L 7.328125 8.296875 
Q 12.9375 14.109375 22.625 23.890625 
Q 32.328125 33.6875 34.8125 36.53125 
Q 39.546875 41.84375 41.421875 45.53125 
Q 43.3125 49.21875 43.3125 52.78125 
Q 43.3125 58.59375 39.234375 62.25 
Q 35.15625 65.921875 28.609375 65.921875 
Q 23.96875 65.921875 18.8125 64.3125 
Q 13.671875 62.703125 7.8125 59.421875 
L 7.8125 69.390625 
Q 13.765625 71.78125 18.9375 73 
Q 24.125 74.21875 28.421875 74.21875 
Q 39.75 74.21875 46.484375 68.546875 
Q 53.21875 62.890625 53.21875 53.421875 
Q 53.21875 48.921875 51.53125 44.890625 
Q 49.859375 40.875 45.40625 35.40625 
Q 44.1875 33.984375 37.640625 27.21875 
Q 31.109375 20.453125 19.1875 8.296875 
z
" id="DejaVuSans-50"/>
      </defs>
      <g transform="translate(288.233564 319.354375)scale(0.16 -0.16)">
       <use xlink:href="#DejaVuSans-50"/>
      </g>
     </g>
    </g>
    <g id="xtick_4">
     <g id="line2d_4">
      <g>
       <use style="stroke:#000000;stroke-width:0.8;" x="395.802903" xlink:href="#m7f6b36866e" y="300.196875"/>
      </g>
     </g>
     <g id="text_4">
      <!-- 3 -->
      <defs>
       <path d="M 40.578125 39.3125 
Q 47.65625 37.796875 51.625 33 
Q 55.609375 28.21875 55.609375 21.1875 
Q 55.609375 10.40625 48.1875 4.484375 
Q 40.765625 -1.421875 27.09375 -1.421875 
Q 22.515625 -1.421875 17.65625 -0.515625 
Q 12.796875 0.390625 7.625 2.203125 
L 7.625 11.71875 
Q 11.71875 9.328125 16.59375 8.109375 
Q 21.484375 6.890625 26.8125 6.890625 
Q 36.078125 6.890625 40.9375 10.546875 
Q 45.796875 14.203125 45.796875 21.1875 
Q 45.796875 27.640625 41.28125 31.265625 
Q 36.765625 34.90625 28.71875 34.90625 
L 20.21875 34.90625 
L 20.21875 43.015625 
L 29.109375 43.015625 
Q 36.375 43.015625 40.234375 45.921875 
Q 44.09375 48.828125 44.09375 54.296875 
Q 44.09375 59.90625 40.109375 62.90625 
Q 36.140625 65.921875 28.71875 65.921875 
Q 24.65625 65.921875 20.015625 65.03125 
Q 15.375 64.15625 9.8125 62.3125 
L 9.8125 71.09375 
Q 15.4375 72.65625 20.34375 73.4375 
Q 25.25 74.21875 29.59375 74.21875 
Q 40.828125 74.21875 47.359375 69.109375 
Q 53.90625 64.015625 53.90625 55.328125 
Q 53.90625 49.265625 50.4375 45.09375 
Q 46.96875 40.921875 40.578125 39.3125 
z
" id="DejaVuSans-51"/>
      </defs>
      <g transform="translate(390.712903 319.354375)scale(0.16 -0.16)">
       <use xlink:href="#DejaVuSans-51"/>
      </g>
     </g>
    </g>
    <g id="xtick_5">
     <g id="line2d_5">
      <g>
       <use style="stroke:#000000;stroke-width:0.8;" x="498.282242" xlink:href="#m7f6b36866e" y="300.196875"/>
      </g>
     </g>
     <g id="text_5">
      <!-- 4 -->
      <defs>
       <path d="M 37.796875 64.3125 
L 12.890625 25.390625 
L 37.796875 25.390625 
z
M 35.203125 72.90625 
L 47.609375 72.90625 
L 47.609375 25.390625 
L 58.015625 25.390625 
L 58.015625 17.1875 
L 47.609375 17.1875 
L 47.609375 0 
L 37.796875 0 
L 37.796875 17.1875 
L 4.890625 17.1875 
L 4.890625 26.703125 
z
" id="DejaVuSans-52"/>
      </defs>
      <g transform="translate(493.192242 319.354375)scale(0.16 -0.16)">
       <use xlink:href="#DejaVuSans-52"/>
      </g>
     </g>
    </g>
    <g id="xtick_6">
     <g id="line2d_6">
      <g>
       <use style="stroke:#000000;stroke-width:0.8;" x="600.761581" xlink:href="#m7f6b36866e" y="300.196875"/>
      </g>
     </g>
     <g id="text_6">
      <!-- 5 -->
      <defs>
       <path d="M 10.796875 72.90625 
L 49.515625 72.90625 
L 49.515625 64.59375 
L 19.828125 64.59375 
L 19.828125 46.734375 
Q 21.96875 47.46875 24.109375 47.828125 
Q 26.265625 48.1875 28.421875 48.1875 
Q 40.625 48.1875 47.75 41.5 
Q 54.890625 34.8125 54.890625 23.390625 
Q 54.890625 11.625 47.5625 5.09375 
Q 40.234375 -1.421875 26.90625 -1.421875 
Q 22.3125 -1.421875 17.546875 -0.640625 
Q 12.796875 0.140625 7.71875 1.703125 
L 7.71875 11.625 
Q 12.109375 9.234375 16.796875 8.0625 
Q 21.484375 6.890625 26.703125 6.890625 
Q 35.15625 6.890625 40.078125 11.328125 
Q 45.015625 15.765625 45.015625 23.390625 
Q 45.015625 31 40.078125 35.4375 
Q 35.15625 39.890625 26.703125 39.890625 
Q 22.75 39.890625 18.8125 39.015625 
Q 14.890625 38.140625 10.796875 36.28125 
z
" id="DejaVuSans-53"/>
      </defs>
      <g transform="translate(595.671581 319.354375)scale(0.16 -0.16)">
       <use xlink:href="#DejaVuSans-53"/>
      </g>
     </g>
    </g>
    <g id="text_7">
     <!-- $J_e$ (mV) -->
     <defs>
      <path d="M 16.703125 72.90625 
L 26.609375 72.90625 
L 13.375 5.078125 
Q 10.796875 -8.15625 4.65625 -14.078125 
Q -1.46875 -20.015625 -12.5 -20.015625 
L -16.40625 -20.015625 
L -14.796875 -11.71875 
L -11.71875 -11.71875 
Q -5.125 -11.71875 -1.703125 -7.953125 
Q 1.703125 -4.203125 3.515625 5.078125 
z
" id="DejaVuSans-Oblique-74"/>
      <path d="M 48.09375 32.234375 
Q 48.25 33.015625 48.3125 33.84375 
Q 48.390625 34.671875 48.390625 35.5 
Q 48.390625 41.453125 44.890625 44.921875 
Q 41.40625 48.390625 35.40625 48.390625 
Q 28.71875 48.390625 23.578125 44.15625 
Q 18.453125 39.9375 15.828125 32.171875 
z
M 55.90625 25.203125 
L 14.109375 25.203125 
Q 13.8125 23.34375 13.71875 22.265625 
Q 13.625 21.1875 13.625 20.40625 
Q 13.625 13.625 17.796875 9.90625 
Q 21.96875 6.203125 29.59375 6.203125 
Q 35.453125 6.203125 40.671875 7.515625 
Q 45.90625 8.84375 50.390625 11.375 
L 48.6875 2.484375 
Q 43.84375 0.53125 38.6875 -0.4375 
Q 33.546875 -1.421875 28.21875 -1.421875 
Q 16.84375 -1.421875 10.71875 4.015625 
Q 4.59375 9.46875 4.59375 19.484375 
Q 4.59375 28.03125 7.640625 35.375 
Q 10.6875 42.71875 16.609375 48.484375 
Q 20.40625 52.09375 25.65625 54.046875 
Q 30.90625 56 36.8125 56 
Q 46.09375 56 51.578125 50.4375 
Q 57.078125 44.875 57.078125 35.5 
Q 57.078125 33.25 56.78125 30.6875 
Q 56.5 28.125 55.90625 25.203125 
z
" id="DejaVuSans-Oblique-101"/>
      <path id="DejaVuSans-32"/>
      <path d="M 31 75.875 
Q 24.46875 64.65625 21.28125 53.65625 
Q 18.109375 42.671875 18.109375 31.390625 
Q 18.109375 20.125 21.3125 9.0625 
Q 24.515625 -2 31 -13.1875 
L 23.1875 -13.1875 
Q 15.875 -1.703125 12.234375 9.375 
Q 8.59375 20.453125 8.59375 31.390625 
Q 8.59375 42.28125 12.203125 53.3125 
Q 15.828125 64.359375 23.1875 75.875 
z
" id="DejaVuSans-40"/>
      <path d="M 52 44.1875 
Q 55.375 50.25 60.0625 53.125 
Q 64.75 56 71.09375 56 
Q 79.640625 56 84.28125 50.015625 
Q 88.921875 44.046875 88.921875 33.015625 
L 88.921875 0 
L 79.890625 0 
L 79.890625 32.71875 
Q 79.890625 40.578125 77.09375 44.375 
Q 74.3125 48.1875 68.609375 48.1875 
Q 61.625 48.1875 57.5625 43.546875 
Q 53.515625 38.921875 53.515625 30.90625 
L 53.515625 0 
L 44.484375 0 
L 44.484375 32.71875 
Q 44.484375 40.625 41.703125 44.40625 
Q 38.921875 48.1875 33.109375 48.1875 
Q 26.21875 48.1875 22.15625 43.53125 
Q 18.109375 38.875 18.109375 30.90625 
L 18.109375 0 
L 9.078125 0 
L 9.078125 54.6875 
L 18.109375 54.6875 
L 18.109375 46.1875 
Q 21.1875 51.21875 25.484375 53.609375 
Q 29.78125 56 35.6875 56 
Q 41.65625 56 45.828125 52.96875 
Q 50 49.953125 52 44.1875 
z
" id="DejaVuSans-109"/>
      <path d="M 28.609375 0 
L 0.78125 72.90625 
L 11.078125 72.90625 
L 34.1875 11.53125 
L 57.328125 72.90625 
L 67.578125 72.90625 
L 39.796875 0 
z
" id="DejaVuSans-86"/>
      <path d="M 8.015625 75.875 
L 15.828125 75.875 
Q 23.140625 64.359375 26.78125 53.3125 
Q 30.421875 42.28125 30.421875 31.390625 
Q 30.421875 20.453125 26.78125 9.375 
Q 23.140625 -1.703125 15.828125 -13.1875 
L 8.015625 -13.1875 
Q 14.5 -2 17.703125 9.0625 
Q 20.90625 20.125 20.90625 31.390625 
Q 20.90625 42.671875 17.703125 53.65625 
Q 14.5 64.65625 8.015625 75.875 
z
" id="DejaVuSans-41"/>
     </defs>
     <g transform="translate(306.90125 341.881875)scale(0.2 -0.2)">
      <use transform="translate(0 0.125)" xlink:href="#DejaVuSans-Oblique-74"/>
      <use transform="translate(29.492188 -16.28125)scale(0.7)" xlink:href="#DejaVuSans-Oblique-101"/>
      <use transform="translate(75.292969 0.125)" xlink:href="#DejaVuSans-32"/>
      <use transform="translate(107.080078 0.125)" xlink:href="#DejaVuSans-40"/>
      <use transform="translate(146.09375 0.125)" xlink:href="#DejaVuSans-109"/>
      <use transform="translate(243.505859 0.125)" xlink:href="#DejaVuSans-86"/>
      <use transform="translate(311.914062 0.125)" xlink:href="#DejaVuSans-41"/>
     </g>
    </g>
   </g>
   <g id="matplotlib.axis_2">
    <g id="ytick_1">
     <g id="line2d_7">
      <defs>
       <path d="M 0 0 
L -3.5 0 
" id="mbf0930f984" style="stroke:#000000;stroke-width:0.8;"/>
      </defs>
      <g>
       <use style="stroke:#000000;stroke-width:0.8;" x="63.00125" xlink:href="#mbf0930f984" y="250.89357"/>
      </g>
     </g>
     <g id="text_8">
      <!-- 0.1 -->
      <defs>
       <path d="M 10.6875 12.40625 
L 21 12.40625 
L 21 0 
L 10.6875 0 
z
" id="DejaVuSans-46"/>
      </defs>
      <g transform="translate(30.55625 256.97232)scale(0.16 -0.16)">
       <use xlink:href="#DejaVuSans-48"/>
       <use x="63.623047" xlink:href="#DejaVuSans-46"/>
       <use x="95.410156" xlink:href="#DejaVuSans-49"/>
      </g>
     </g>
    </g>
    <g id="ytick_2">
     <g id="line2d_8">
      <g>
       <use style="stroke:#000000;stroke-width:0.8;" x="63.00125" xlink:href="#mbf0930f984" y="196.462438"/>
      </g>
     </g>
     <g id="text_9">
      <!-- 0.2 -->
      <g transform="translate(30.55625 202.541188)scale(0.16 -0.16)">
       <use xlink:href="#DejaVuSans-48"/>
       <use x="63.623047" xlink:href="#DejaVuSans-46"/>
       <use x="95.410156" xlink:href="#DejaVuSans-50"/>
      </g>
     </g>
    </g>
    <g id="ytick_3">
     <g id="line2d_9">
      <g>
       <use style="stroke:#000000;stroke-width:0.8;" x="63.00125" xlink:href="#mbf0930f984" y="142.031306"/>
      </g>
     </g>
     <g id="text_10">
      <!-- 0.3 -->
      <g transform="translate(30.55625 148.110056)scale(0.16 -0.16)">
       <use xlink:href="#DejaVuSans-48"/>
       <use x="63.623047" xlink:href="#DejaVuSans-46"/>
       <use x="95.410156" xlink:href="#DejaVuSans-51"/>
      </g>
     </g>
    </g>
    <g id="ytick_4">
     <g id="line2d_10">
      <g>
       <use style="stroke:#000000;stroke-width:0.8;" x="63.00125" xlink:href="#mbf0930f984" y="87.600174"/>
      </g>
     </g>
     <g id="text_11">
      <!-- 0.4 -->
      <g transform="translate(30.55625 93.678924)scale(0.16 -0.16)">
       <use xlink:href="#DejaVuSans-48"/>
       <use x="63.623047" xlink:href="#DejaVuSans-46"/>
       <use x="95.410156" xlink:href="#DejaVuSans-52"/>
      </g>
     </g>
    </g>
    <g id="ytick_5">
     <g id="line2d_11">
      <g>
       <use style="stroke:#000000;stroke-width:0.8;" x="63.00125" xlink:href="#mbf0930f984" y="33.169042"/>
      </g>
     </g>
     <g id="text_12">
      <!-- 0.5 -->
      <g transform="translate(30.55625 39.247792)scale(0.16 -0.16)">
       <use xlink:href="#DejaVuSans-48"/>
       <use x="63.623047" xlink:href="#DejaVuSans-46"/>
       <use x="95.410156" xlink:href="#DejaVuSans-53"/>
      </g>
     </g>
    </g>
    <g id="text_13">
     <!-- $E$ (au) -->
     <defs>
      <path d="M 16.890625 72.90625 
L 62.984375 72.90625 
L 61.375 64.59375 
L 25.09375 64.59375 
L 20.90625 43.015625 
L 55.71875 43.015625 
L 54.109375 34.71875 
L 19.28125 34.71875 
L 14.203125 8.296875 
L 51.3125 8.296875 
L 49.703125 0 
L 2.6875 0 
z
" id="DejaVuSans-Oblique-69"/>
      <path d="M 34.28125 27.484375 
Q 23.390625 27.484375 19.1875 25 
Q 14.984375 22.515625 14.984375 16.5 
Q 14.984375 11.71875 18.140625 8.90625 
Q 21.296875 6.109375 26.703125 6.109375 
Q 34.1875 6.109375 38.703125 11.40625 
Q 43.21875 16.703125 43.21875 25.484375 
L 43.21875 27.484375 
z
M 52.203125 31.203125 
L 52.203125 0 
L 43.21875 0 
L 43.21875 8.296875 
Q 40.140625 3.328125 35.546875 0.953125 
Q 30.953125 -1.421875 24.3125 -1.421875 
Q 15.921875 -1.421875 10.953125 3.296875 
Q 6 8.015625 6 15.921875 
Q 6 25.140625 12.171875 29.828125 
Q 18.359375 34.515625 30.609375 34.515625 
L 43.21875 34.515625 
L 43.21875 35.40625 
Q 43.21875 41.609375 39.140625 45 
Q 35.0625 48.390625 27.6875 48.390625 
Q 23 48.390625 18.546875 47.265625 
Q 14.109375 46.140625 10.015625 43.890625 
L 10.015625 52.203125 
Q 14.9375 54.109375 19.578125 55.046875 
Q 24.21875 56 28.609375 56 
Q 40.484375 56 46.34375 49.84375 
Q 52.203125 43.703125 52.203125 31.203125 
z
" id="DejaVuSans-97"/>
      <path d="M 8.5 21.578125 
L 8.5 54.6875 
L 17.484375 54.6875 
L 17.484375 21.921875 
Q 17.484375 14.15625 20.5 10.265625 
Q 23.53125 6.390625 29.59375 6.390625 
Q 36.859375 6.390625 41.078125 11.03125 
Q 45.3125 15.671875 45.3125 23.6875 
L 45.3125 54.6875 
L 54.296875 54.6875 
L 54.296875 0 
L 45.3125 0 
L 45.3125 8.40625 
Q 42.046875 3.421875 37.71875 1 
Q 33.40625 -1.421875 27.6875 -1.421875 
Q 18.265625 -1.421875 13.375 4.4375 
Q 8.5 10.296875 8.5 21.578125 
z
M 31.109375 56 
z
" id="DejaVuSans-117"/>
     </defs>
     <g transform="translate(22.396875 194.096875)rotate(-90)scale(0.2 -0.2)">
      <use transform="translate(0 0.125)" xlink:href="#DejaVuSans-Oblique-69"/>
      <use transform="translate(63.183594 0.125)" xlink:href="#DejaVuSans-32"/>
      <use transform="translate(94.970703 0.125)" xlink:href="#DejaVuSans-40"/>
      <use transform="translate(133.984375 0.125)" xlink:href="#DejaVuSans-97"/>
      <use transform="translate(195.263672 0.125)" xlink:href="#DejaVuSans-117"/>
      <use transform="translate(258.642578 0.125)" xlink:href="#DejaVuSans-41"/>
     </g>
    </g>
   </g>
   <g id="line2d_12">
    <path clip-path="url(#pc7393e8e75)" d="M 88.364886 286.877701 
L 93.488853 285.808964 
L 98.61282 284.673769 
L 103.736787 283.467941 
L 108.860754 282.18715 
L 113.984721 280.826945 
L 119.108688 279.382806 
L 124.232655 277.850208 
L 129.356622 276.224707 
L 134.480589 274.50205 
L 139.604556 272.678303 
L 144.728523 270.750002 
L 149.85249 268.71433 
L 154.976457 266.569292 
L 160.100424 264.313902 
L 165.22439 261.948353 
L 170.348357 259.474155 
L 175.472324 256.894219 
L 180.596291 254.212882 
L 185.720258 251.435838 
L 190.844225 248.569999 
L 195.968192 245.623266 
L 201.092159 242.604246 
L 206.216126 239.521936 
L 211.340093 236.385391 
L 216.46406 233.203426 
L 221.588027 229.984347 
L 226.711994 226.735549 
L 231.835961 223.456849 
L 236.959928 196.199132 
L 242.083895 170.260851 
L 247.207862 152.383064 
L 252.331829 138.498999 
L 257.455795 127.399707 
L 262.579762 118.391461 
L 267.703729 110.98532 
L 272.827696 104.819665 
L 277.951663 99.624813 
L 283.07563 95.199593 
L 288.199597 91.392849 
L 293.323564 88.091269 
L 298.447531 85.208697 
L 303.571498 82.679576 
L 308.695465 80.453913 
L 313.819432 78.494078 
L 318.943399 76.772079 
L 324.067366 75.26843 
L 329.191333 73.971103 
L 334.3153 72.875816 
L 339.439267 71.986499 
L 344.563233 71.317264 
L 349.6872 70.895882 
L 354.811167 70.769529 
L 359.935134 71.015634 
L 365.059101 71.760309 
L 370.183068 73.213562 
L 375.307035 75.742198 
L 380.431002 80.04959 
L 385.554969 87.841508 
L 390.678936 110.01409 
L 395.802903 113.637908 
L 400.92687 109.958913 
L 406.050837 106.301612 
L 411.174804 102.681089 
L 416.298771 99.113555 
L 421.422738 95.616041 
L 426.546705 92.205602 
L 431.670671 88.898431 
L 436.794638 85.709 
L 441.918605 82.649358 
L 447.042572 79.728654 
L 452.166539 76.952944 
L 457.290506 74.325252 
L 462.414473 71.845847 
L 467.53844 69.51266 
L 472.662407 67.321747 
L 477.786374 65.267777 
L 482.910341 63.344455 
L 488.034308 61.544904 
L 493.158275 59.861957 
L 498.282242 58.288396 
L 503.406209 56.817114 
L 508.530176 55.44124 
L 513.654143 54.154214 
L 518.77811 52.949834 
L 523.902076 51.822276 
L 529.026043 50.766105 
L 534.15001 49.776268 
L 539.273977 48.848077 
L 544.397944 47.977197 
L 549.521911 47.159622 
L 554.645878 46.391654 
L 559.769845 45.66988 
L 564.893812 44.991151 
L 570.017779 44.352561 
L 575.141746 43.751427 
L 580.265713 43.185273 
L 585.38968 42.651808 
L 590.513647 42.148915 
L 595.637614 41.674634 
" style="fill:none;stroke:#000000;stroke-linecap:square;stroke-width:1.5;"/>
   </g>
   <g id="line2d_13">
    <path clip-path="url(#pc7393e8e75)" d="M 88.364886 285.917596 
L 93.488853 284.786995 
L 98.61282 283.584638 
L 103.736787 282.305695 
L 108.860754 280.945078 
L 113.984721 279.497466 
L 119.108688 277.957333 
L 124.232655 276.319002 
L 129.356622 274.576722 
L 134.480589 272.724762 
L 139.604556 270.757541 
L 144.728523 268.669795 
L 149.85249 266.456766 
L 154.976457 264.114434 
L 160.100424 261.639769 
L 165.22439 259.03099 
L 170.348357 256.287825 
L 175.472324 253.411727 
L 180.596291 250.406028 
L 185.720258 247.276005 
L 190.844225 244.028822 
L 195.968192 240.673352 
L 201.092159 237.219872 
L 206.216126 233.679674 
L 211.340093 230.064607 
L 216.46406 226.386616 
L 221.588027 222.657312 
L 226.711994 218.887608 
L 231.835961 215.087446 
L 236.959928 211.265619 
L 242.083895 207.429432 
L 247.207862 203.464172 
L 252.331829 179.480865 
L 257.455795 160.284459 
L 262.579762 147.457471 
L 267.703729 137.644028 
L 272.827696 129.806839 
L 277.951663 123.423843 
L 283.07563 118.181338 
L 288.199597 113.877052 
L 293.323564 110.380186 
L 298.447531 107.613714 
L 303.571498 105.546918 
L 308.695465 104.197813 
L 313.819432 103.645708 
L 318.943399 104.064739 
L 324.067366 105.806859 
L 329.191333 109.658976 
L 334.3153 118.166095 
L 339.439267 135.26189 
L 344.563233 131.779552 
L 349.6872 128.108321 
L 354.811167 124.460261 
L 359.935134 120.839744 
L 365.059101 117.252752 
L 370.183068 113.705837 
L 375.307035 110.206266 
L 380.431002 106.76189 
L 385.554969 103.380964 
L 390.678936 100.071924 
L 395.802903 96.843126 
L 400.92687 93.702569 
L 406.050837 90.657624 
L 411.174804 87.714786 
L 416.298771 84.879476 
L 421.422738 82.155902 
L 426.546705 79.546983 
L 431.670671 77.054352 
L 436.794638 74.678404 
L 441.918605 72.418407 
L 447.042572 70.272632 
L 452.166539 68.23851 
L 457.290506 66.312796 
L 462.414473 64.491721 
L 467.53844 62.77114 
L 472.662407 61.146656 
L 477.786374 59.613732 
L 482.910341 58.167782 
L 488.034308 56.804242 
L 493.158275 55.51863 
L 498.282242 54.306584 
L 503.406209 53.163895 
L 508.530176 52.086529 
L 513.654143 51.070641 
L 518.77811 50.112575 
L 523.902076 49.208877 
L 529.026043 48.356283 
L 534.15001 47.55172 
L 539.273977 46.792299 
L 544.397944 46.075309 
L 549.521911 45.398205 
L 554.645878 44.758603 
L 559.769845 44.154268 
L 564.893812 43.583109 
L 570.017779 43.043167 
L 575.141746 42.532606 
L 580.265713 42.049709 
L 585.38968 41.592868 
L 590.513647 41.160576 
L 595.637614 40.75142 
" style="fill:none;stroke:#3b4cc0;stroke-linecap:square;stroke-width:1.5;"/>
   </g>
   <g id="line2d_14">
    <path clip-path="url(#pc7393e8e75)" d="M 88.364886 286.29983 
L 93.488853 285.193348 
L 98.61282 284.017134 
L 103.736787 282.76661 
L 108.860754 281.436982 
L 113.984721 280.023268 
L 119.108688 278.520337 
L 124.232655 276.92297 
L 129.356622 275.225939 
L 134.480589 273.424113 
L 139.604556 271.512589 
L 144.728523 269.486852 
L 149.85249 267.342966 
L 154.976457 265.077787 
L 160.100424 262.689188 
L 165.22439 260.176283 
L 170.348357 257.539636 
L 175.472324 254.781423 
L 180.596291 251.905518 
L 185.720258 248.9175 
L 190.844225 245.824545 
L 195.968192 242.635215 
L 201.092159 239.359155 
L 206.216126 236.00672 
L 211.340093 232.588573 
L 216.46406 229.115291 
L 221.588027 225.597009 
L 226.711994 222.043133 
L 231.835961 218.46213 
L 236.959928 214.861012 
L 242.083895 205.418586 
L 247.207862 173.449537 
L 252.331829 155.904888 
L 257.455795 142.87272 
L 262.579762 132.563058 
L 267.703729 124.18055 
L 272.827696 117.249135 
L 277.951663 111.447627 
L 283.07563 106.547935 
L 288.199597 102.384332 
L 293.323564 98.835576 
L 298.447531 95.813467 
L 303.571498 93.256093 
L 308.695465 91.122851 
L 313.819432 89.392992 
L 318.943399 88.065847 
L 324.067366 87.163812 
L 329.191333 86.739597 
L 334.3153 86.889653 
L 339.439267 87.781968 
L 344.563233 89.713662 
L 349.6872 93.260075 
L 354.811167 99.808823 
L 359.935134 116.61007 
L 365.059101 124.288579 
L 370.183068 120.665439 
L 375.307035 117.060182 
L 380.431002 113.479991 
L 385.554969 109.933681 
L 390.678936 106.43088 
L 395.802903 102.982007 
L 400.92687 99.597983 
L 406.050837 96.289862 
L 411.174804 93.068419 
L 416.298771 89.94372 
L 421.422738 86.924733 
L 426.546705 84.018995 
L 431.670671 81.232385 
L 436.794638 78.569013 
L 441.918605 76.031208 
L 447.042572 73.619621 
L 452.166539 71.33339 
L 457.290506 69.170358 
L 462.414473 67.127308 
L 467.53844 65.200204 
L 472.662407 63.384415 
L 477.786374 61.674906 
L 482.910341 60.066416 
L 488.034308 58.553586 
L 493.158275 57.131073 
L 498.282242 55.793631 
L 503.406209 54.536168 
L 508.530176 53.353793 
L 513.654143 52.241841 
L 518.77811 51.195885 
L 523.902076 50.211749 
L 529.026043 49.285503 
L 534.15001 48.413463 
L 539.273977 47.592179 
L 544.397944 46.818426 
L 549.521911 46.089197 
L 554.645878 45.401684 
L 559.769845 44.753273 
L 564.893812 44.141525 
L 570.017779 43.564169 
L 575.141746 43.019088 
L 580.265713 42.504309 
L 585.38968 42.017993 
L 590.513647 41.558426 
L 595.637614 41.124006 
" style="fill:none;stroke:#7b9ff9;stroke-linecap:square;stroke-width:1.5;"/>
   </g>
   <g id="line2d_15">
    <path clip-path="url(#pc7393e8e75)" d="M 88.364886 286.684697 
L 93.488853 285.603204 
L 98.61282 284.454137 
L 103.736787 283.233183 
L 108.860754 281.935855 
L 113.984721 280.557525 
L 119.108688 279.093469 
L 124.232655 277.53893 
L 129.356622 275.889207 
L 134.480589 274.139758 
L 139.604556 272.286335 
L 144.728523 270.325138 
L 149.85249 268.252995 
L 154.976457 266.067549 
L 160.100424 263.767466 
L 165.22439 261.352614 
L 170.348357 258.824226 
L 175.472324 256.185012 
L 180.596291 253.439195 
L 185.720258 250.592468 
L 190.844225 247.651861 
L 195.968192 244.625511 
L 201.092159 241.522377 
L 206.216126 238.351896 
L 211.340093 235.123633 
L 216.46406 231.84695 
L 221.588027 228.530718 
L 226.711994 225.183081 
L 231.835961 221.81106 
L 236.959928 211.698813 
L 242.083895 177.231616 
L 247.207862 157.916401 
L 252.331829 143.380014 
L 257.455795 131.859682 
L 262.579762 122.529468 
L 267.703729 114.859229 
L 272.827696 108.472221 
L 277.951663 103.091747 
L 283.07563 98.512361 
L 288.199597 94.580399 
L 293.323564 91.180363 
L 298.447531 88.225024 
L 303.571498 85.648671 
L 308.695465 83.402077 
L 313.819432 81.449385 
L 318.943399 79.765937 
L 324.067366 78.337368 
L 329.191333 77.159682 
L 334.3153 76.240256 
L 339.439267 75.600626 
L 344.563233 75.281555 
L 349.6872 75.352276 
L 354.811167 75.926567 
L 359.935134 77.193282 
L 365.059101 79.479065 
L 370.183068 83.402134 
L 375.307035 90.411504 
L 380.431002 107.699933 
L 385.554969 117.172098 
L 390.678936 113.527982 
L 395.802903 109.901608 
L 400.92687 106.305143 
L 406.050837 102.751718 
L 411.174804 99.255512 
L 416.298771 95.831225 
L 421.422738 92.493441 
L 426.546705 89.255944 
L 431.670671 86.131061 
L 436.794638 83.129116 
L 441.918605 80.258064 
L 447.042572 77.523311 
L 452.166539 74.927749 
L 457.290506 72.471935 
L 462.414473 70.154399 
L 467.53844 67.972004 
L 472.662407 65.92032 
L 477.786374 63.993984 
L 482.910341 62.187015 
L 488.034308 60.493078 
L 493.158275 58.905698 
L 498.282242 57.418418 
L 503.406209 56.024925 
L 508.530176 54.719127 
L 513.654143 53.495213 
L 518.77811 52.347678 
L 523.902076 51.271347 
L 529.026043 50.261373 
L 534.15001 49.313236 
L 539.273977 48.422727 
L 544.397944 47.585939 
L 549.521911 46.799248 
L 554.645878 46.059295 
L 559.769845 45.36297 
L 564.893812 44.707391 
L 570.017779 44.089891 
L 575.141746 43.507998 
L 580.265713 42.95942 
L 585.38968 42.442036 
L 590.513647 41.953875 
L 595.637614 41.493108 
" style="fill:none;stroke:#c0d4f5;stroke-linecap:square;stroke-width:1.5;"/>
   </g>
   <g id="line2d_16">
    <path clip-path="url(#pc7393e8e75)" d="M 88.364886 287.070875 
L 93.488853 286.015033 
L 98.61282 284.893871 
L 103.736787 283.703351 
L 108.860754 282.439299 
L 113.984721 281.097445 
L 119.108688 279.67347 
L 124.232655 278.163078 
L 129.356622 276.562078 
L 134.480589 274.866498 
L 139.604556 273.072706 
L 144.728523 271.177563 
L 149.85249 269.178585 
L 154.976457 267.074112 
L 160.100424 264.86348 
L 165.22439 262.547173 
L 170.348357 260.126938 
L 175.472324 257.605853 
L 180.596291 254.988331 
L 185.720258 252.280038 
L 190.844225 249.487746 
L 195.968192 246.619107 
L 201.092159 243.682382 
L 206.216126 240.686141 
L 211.340093 237.638957 
L 216.46406 234.549132 
L 221.588027 231.424456 
L 226.711994 228.271793 
L 231.835961 224.628985 
L 236.959928 187.621342 
L 242.083895 164.668427 
L 247.207862 147.604948 
L 252.331829 134.152492 
L 257.455795 123.369133 
L 262.579762 114.626292 
L 267.703729 107.45241 
L 272.827696 101.489373 
L 277.951663 96.470618 
L 283.07563 92.196247 
L 288.199597 88.517059 
L 293.323564 85.320972 
L 298.447531 82.523048 
L 303.571498 80.058493 
L 308.695465 77.877481 
L 313.819432 75.94179 
L 318.943399 74.222192 
L 324.067366 72.696732 
L 329.191333 71.349796 
L 334.3153 70.171422 
L 339.439267 69.157322 
L 344.563233 68.309291 
L 349.6872 67.63662 
L 354.811167 67.158126 
L 359.935134 66.90679 
L 365.059101 66.936249 
L 370.183068 67.333657 
L 375.307035 68.242088 
L 380.431002 69.903643 
L 385.554969 72.749334 
L 390.678936 77.630548 
L 395.802903 86.77144 
L 400.92687 113.399504 
L 406.050837 110.057111 
L 411.174804 106.329189 
L 416.298771 102.630786 
L 421.422738 98.980737 
L 426.546705 95.398869 
L 431.670671 91.90522 
L 436.794638 88.518887 
L 441.918605 85.2569 
L 447.042572 82.133289 
L 452.166539 79.158499 
L 457.290506 76.339166 
L 462.414473 73.678267 
L 467.53844 71.175522 
L 472.662407 68.827969 
L 477.786374 66.630582 
L 482.910341 64.576869 
L 488.034308 62.659398 
L 493.158275 60.870226 
L 498.282242 59.201232 
L 503.406209 57.644366 
L 508.530176 56.191815 
L 513.654143 54.836114 
L 518.77811 53.570216 
L 523.902076 52.387523 
L 529.026043 51.281894 
L 534.15001 50.247645 
L 539.273977 49.279522 
L 544.397944 48.37269 
L 549.521911 47.522697 
L 554.645878 46.725453 
L 559.769845 45.977199 
L 564.893812 45.274482 
L 570.017779 44.614125 
L 575.141746 43.993209 
L 580.265713 43.409048 
L 585.38968 42.859166 
L 590.513647 42.341283 
L 595.637614 41.853294 
" style="fill:none;stroke:#f2cbb7;stroke-linecap:square;stroke-width:1.5;"/>
   </g>
   <g id="line2d_17">
    <path clip-path="url(#pc7393e8e75)" d="M 88.364886 287.457131 
L 93.488853 286.427406 
L 98.61282 285.334679 
L 103.736787 284.175189 
L 108.860754 282.945076 
L 113.984721 281.640424 
L 119.108688 280.257312 
L 124.232655 278.791886 
L 129.356622 277.240447 
L 134.480589 275.599554 
L 139.604556 273.866147 
L 144.728523 272.037683 
L 149.85249 270.112287 
L 154.976457 268.088896 
L 160.100424 265.967403 
L 165.22439 263.748775 
L 170.348357 261.435135 
L 175.472324 259.029797 
L 180.596291 256.537234 
L 185.720258 253.962984 
L 190.844225 251.313492 
L 195.968192 248.595898 
L 201.092159 245.817788 
L 206.216126 242.986928 
L 211.340093 240.111009 
L 216.46406 237.197411 
L 221.588027 234.253014 
L 226.711994 231.282814 
L 231.835961 206.404465 
L 236.959928 176.54044 
L 242.083895 155.769091 
L 247.207862 139.466331 
L 252.331829 126.511158 
L 257.455795 116.178306 
L 262.579762 107.869523 
L 267.703729 101.104634 
L 272.827696 95.516662 
L 277.951663 90.833346 
L 283.07563 86.85431 
L 288.199597 83.432054 
L 293.323564 80.456821 
L 298.447531 77.846183 
L 303.571498 75.537371 
L 308.695465 73.482142 
L 313.819432 71.643035 
L 318.943399 69.990673 
L 324.067366 68.502136 
L 329.191333 67.159487 
L 334.3153 65.948979 
L 339.439267 64.860281 
L 344.563233 63.886568 
L 349.6872 63.024113 
L 354.811167 62.272533 
L 359.935134 61.635591 
L 365.059101 61.122173 
L 370.183068 60.748273 
L 375.307035 60.540484 
L 380.431002 60.541924 
L 385.554969 60.822958 
L 390.678936 61.501114 
L 395.802903 62.779349 
L 400.92687 65.023504 
L 406.050837 68.935586 
L 411.174804 76.087163 
L 416.298771 93.136229 
L 421.422738 106.453914 
L 426.546705 102.563798 
L 431.670671 98.710767 
L 436.794638 94.922485 
L 441.918605 91.227147 
L 447.042572 87.651732 
L 452.166539 84.219974 
L 457.290506 80.950757 
L 462.414473 77.857206 
L 467.53844 74.946558 
L 472.662407 72.220668 
L 477.786374 69.676932 
L 482.910341 67.309367 
L 488.034308 65.109668 
L 493.158275 63.068114 
L 498.282242 61.174296 
L 503.406209 59.417641 
L 508.530176 57.787784 
L 513.654143 56.274806 
L 518.77811 54.869368 
L 523.902076 53.562785 
L 529.026043 52.347041 
L 534.15001 51.214782 
L 539.273977 50.15929 
L 544.397944 49.174437 
L 549.521911 48.254645 
L 554.645878 47.394841 
L 559.769845 46.590407 
L 564.893812 45.837142 
L 570.017779 45.131219 
L 575.141746 44.46915 
L 580.265713 43.847751 
L 585.38968 43.264114 
L 590.513647 42.715577 
L 595.637614 42.199703 
" style="fill:none;stroke:#ee8468;stroke-linecap:square;stroke-width:1.5;"/>
   </g>
   <g id="line2d_18">
    <path clip-path="url(#pc7393e8e75)" d="M 88.364886 287.84233 
L 93.488853 286.839005 
L 98.61282 285.775033 
L 103.736787 284.646926 
L 108.860754 283.451132 
L 113.984721 282.184078 
L 119.108688 280.842226 
L 124.232655 279.422144 
L 129.356622 277.920592 
L 134.480589 276.33462 
L 139.604556 274.661686 
L 144.728523 272.899777 
L 149.85249 271.047544 
L 154.976457 269.104426 
L 160.100424 267.070765 
L 165.22439 264.947898 
L 170.348357 262.738208 
L 175.472324 260.445132 
L 180.596291 258.07311 
L 185.720258 255.627483 
L 190.844225 253.114331 
L 195.968192 250.540283 
L 201.092159 247.912283 
L 206.216126 245.23737 
L 211.340093 242.522453 
L 216.46406 239.774118 
L 221.588027 236.998254 
L 226.711994 233.904076 
L 231.835961 194.984303 
L 236.959928 168.860514 
L 242.083895 148.599493 
L 247.207862 132.464107 
L 252.331829 119.739805 
L 257.455795 109.733597 
L 262.579762 101.798997 
L 267.703729 95.41252 
L 272.827696 90.181781 
L 277.951663 85.823794 
L 283.07563 82.135165 
L 288.199597 78.969597 
L 293.323564 76.219668 
L 298.447531 73.805684 
L 303.571498 71.667577 
L 308.695465 69.759325 
L 313.819432 68.045292 
L 318.943399 66.497438 
L 324.067366 65.09352 
L 329.191333 63.815979 
L 334.3153 62.650555 
L 339.439267 61.586015 
L 344.563233 60.613496 
L 349.6872 59.726332 
L 354.811167 58.919295 
L 359.935134 58.189731 
L 365.059101 57.536522 
L 370.183068 56.96086 
L 375.307035 56.466753 
L 380.431002 56.062061 
L 385.554969 55.760028 
L 390.678936 55.582263 
L 395.802903 55.564011 
L 400.92687 55.763804 
L 406.050837 56.282559 
L 411.174804 57.302825 
L 416.298771 59.172964 
L 421.422738 62.597997 
L 426.546705 69.151032 
L 431.670671 84.339621 
L 436.794638 102.494561 
L 441.918605 98.377919 
L 447.042572 94.323118 
L 452.166539 90.371433 
L 457.290506 86.561931 
L 462.414473 82.927919 
L 467.53844 79.49416 
L 472.662407 76.275721 
L 477.786374 73.278414 
L 482.910341 70.500334 
L 488.034308 67.933859 
L 493.158275 65.567629 
L 498.282242 63.388199 
L 503.406209 61.38128 
L 508.530176 59.532595 
L 513.654143 57.828415 
L 518.77811 56.25587 
L 523.902076 54.803088 
L 529.026043 53.459238 
L 534.15001 52.214512 
L 539.273977 51.060068 
L 544.397944 49.987951 
L 549.521911 48.991018 
L 554.645878 48.06285 
L 559.769845 47.197683 
L 564.893812 46.390331 
L 570.017779 45.636123 
L 575.141746 44.930848 
L 580.265713 44.270697 
L 585.38968 43.652225 
L 590.513647 43.072307 
L 595.637614 42.528103 
" style="fill:none;stroke:#b40426;stroke-linecap:square;stroke-width:1.5;"/>
   </g>
   <g id="line2d_19">
    <path clip-path="url(#pc7393e8e75)" d="M 88.364886 285.917596 
L 93.488853 284.786995 
L 98.61282 283.584638 
L 103.736787 282.305695 
L 108.860754 280.945078 
L 113.984721 279.497466 
L 119.108688 277.957333 
L 124.232655 276.319002 
L 129.356622 274.576722 
L 134.480589 272.724762 
L 139.604556 270.757541 
L 144.728523 268.669795 
L 149.85249 266.456766 
L 154.976457 264.114434 
L 160.100424 261.639769 
L 165.22439 259.03099 
L 170.348357 256.287825 
L 175.472324 253.411727 
L 180.596291 250.406028 
L 185.720258 247.276005 
L 190.844225 244.028822 
L 195.968192 240.673352 
L 201.092159 237.219872 
L 206.216126 233.679674 
L 211.340093 230.064607 
L 216.46406 226.386616 
L 221.588027 222.657312 
L 226.711994 218.887608 
L 231.835961 215.087446 
L 236.959928 211.265619 
L 242.083895 207.429931 
L 247.207862 203.712591 
L 252.331829 218.867509 
L 257.455795 228.463226 
L 262.579762 232.49784 
L 267.703729 234.222708 
L 272.827696 234.551773 
L 277.951663 233.88154 
L 283.07563 232.406752 
L 288.199597 230.218846 
L 293.323564 227.345224 
L 298.447531 223.764537 
L 303.571498 219.411337 
L 308.695465 214.171295 
L 313.819432 207.86686 
L 318.943399 200.223577 
L 324.067366 190.790247 
L 329.191333 178.689331 
L 334.3153 161.308943 
L 339.439267 135.683254 
L 344.563233 131.779788 
L 349.6872 128.108774 
L 354.811167 124.460261 
L 359.935134 120.839744 
L 365.059101 117.252752 
L 370.183068 113.705837 
L 375.307035 110.206266 
L 380.431002 106.76189 
L 385.554969 103.380964 
L 390.678936 100.071924 
L 395.802903 96.843126 
L 400.92687 93.702569 
L 406.050837 90.657624 
L 411.174804 87.714786 
L 416.298771 84.879476 
L 421.422738 82.155902 
L 426.546705 79.546983 
L 431.670671 77.054352 
L 436.794638 74.678404 
L 441.918605 72.418407 
L 447.042572 70.272632 
L 452.166539 68.23851 
L 457.290506 66.312796 
L 462.414473 64.491721 
L 467.53844 62.77114 
L 472.662407 61.146656 
L 477.786374 59.613732 
L 482.910341 58.167782 
L 488.034308 56.804242 
L 493.158275 55.51863 
L 498.282242 54.306584 
L 503.406209 53.163895 
L 508.530176 52.086529 
L 513.654143 51.070641 
L 518.77811 50.112575 
L 523.902076 49.208877 
L 529.026043 48.356283 
L 534.15001 47.55172 
L 539.273977 46.792299 
L 544.397944 46.075309 
L 549.521911 45.398205 
L 554.645878 44.758603 
L 559.769845 44.154268 
L 564.893812 43.583109 
L 570.017779 43.043167 
L 575.141746 42.532606 
L 580.265713 42.049709 
L 585.38968 41.592868 
L 590.513647 41.160576 
L 595.637614 40.75142 
" style="fill:none;stroke:#3b4cc0;stroke-linecap:square;stroke-width:1.5;"/>
   </g>
   <g id="line2d_20">
    <path clip-path="url(#pc7393e8e75)" d="M 88.364886 286.29983 
L 93.488853 285.193348 
L 98.61282 284.017134 
L 103.736787 282.76661 
L 108.860754 281.436982 
L 113.984721 280.023268 
L 119.108688 278.520337 
L 124.232655 276.92297 
L 129.356622 275.225939 
L 134.480589 273.424113 
L 139.604556 271.512589 
L 144.728523 269.486852 
L 149.85249 267.342966 
L 154.976457 265.077787 
L 160.100424 262.689188 
L 165.22439 260.176283 
L 170.348357 257.539636 
L 175.472324 254.781423 
L 180.596291 251.905518 
L 185.720258 248.9175 
L 190.844225 245.824545 
L 195.968192 242.635215 
L 201.092159 239.359155 
L 206.216126 236.00672 
L 211.340093 232.588573 
L 216.46406 229.115291 
L 221.588027 225.597009 
L 226.711994 222.043133 
L 231.835961 218.46213 
L 236.959928 214.86181 
L 242.083895 216.968594 
L 247.207862 237.737566 
L 252.331829 244.854562 
L 257.455795 248.501041 
L 262.579762 250.382451 
L 267.703729 251.161888 
L 272.827696 251.171159 
L 277.951663 250.594361 
L 283.07563 249.536516 
L 288.199597 248.055283 
L 293.323564 246.176746 
L 298.447531 243.903517 
L 303.571498 241.218624 
L 308.695465 238.086513 
L 313.819432 234.451758 
L 318.943399 230.235685 
L 324.067366 225.330554 
L 329.191333 219.590188 
L 334.3153 212.815097 
L 339.439267 204.727479 
L 344.563233 194.920041 
L 349.6872 182.724181 
L 354.811167 166.705339 
L 359.935134 139.660974 
L 365.059101 124.289118 
L 370.183068 120.66583 
L 375.307035 117.060182 
L 380.431002 113.479991 
L 385.554969 109.933681 
L 390.678936 106.43088 
L 395.802903 102.982007 
L 400.92687 99.597983 
L 406.050837 96.289862 
L 411.174804 93.068419 
L 416.298771 89.94372 
L 421.422738 86.924733 
L 426.546705 84.018995 
L 431.670671 81.232385 
L 436.794638 78.569013 
L 441.918605 76.031208 
L 447.042572 73.619621 
L 452.166539 71.33339 
L 457.290506 69.170358 
L 462.414473 67.127308 
L 467.53844 65.200204 
L 472.662407 63.384415 
L 477.786374 61.674906 
L 482.910341 60.066416 
L 488.034308 58.553586 
L 493.158275 57.131073 
L 498.282242 55.793631 
L 503.406209 54.536168 
L 508.530176 53.353793 
L 513.654143 52.241841 
L 518.77811 51.195885 
L 523.902076 50.211749 
L 529.026043 49.285503 
L 534.15001 48.413463 
L 539.273977 47.592179 
L 544.397944 46.818426 
L 549.521911 46.089197 
L 554.645878 45.401684 
L 559.769845 44.753273 
L 564.893812 44.141525 
L 570.017779 43.564169 
L 575.141746 43.019088 
L 580.265713 42.504309 
L 585.38968 42.017993 
L 590.513647 41.558426 
L 595.637614 41.124006 
" style="fill:none;stroke:#7b9ff9;stroke-linecap:square;stroke-width:1.5;"/>
   </g>
   <g id="line2d_21">
    <path clip-path="url(#pc7393e8e75)" d="M 88.364886 286.684697 
L 93.488853 285.603204 
L 98.61282 284.454137 
L 103.736787 283.233183 
L 108.860754 281.935855 
L 113.984721 280.557525 
L 119.108688 279.093469 
L 124.232655 277.53893 
L 129.356622 275.889207 
L 134.480589 274.139758 
L 139.604556 272.286335 
L 144.728523 270.325138 
L 149.85249 268.252995 
L 154.976457 266.067549 
L 160.100424 263.767466 
L 165.22439 261.352614 
L 170.348357 258.824226 
L 175.472324 256.185012 
L 180.596291 253.439195 
L 185.720258 250.592468 
L 190.844225 247.651861 
L 195.968192 244.625511 
L 201.092159 241.522377 
L 206.216126 238.351896 
L 211.340093 235.123633 
L 216.46406 231.84695 
L 221.588027 228.530718 
L 226.711994 225.183081 
L 231.835961 221.811533 
L 236.959928 224.95004 
L 242.083895 246.875799 
L 247.207862 254.464234 
L 252.331829 258.510556 
L 257.455795 260.768928 
L 262.579762 261.941634 
L 267.703729 262.389064 
L 272.827696 262.316406 
L 277.951663 261.845964 
L 283.07563 261.051644 
L 288.199597 259.977206 
L 293.323564 258.646122 
L 298.447531 257.06746 
L 303.571498 255.238818 
L 308.695465 253.147868 
L 313.819432 250.772679 
L 318.943399 248.08103 
L 324.067366 245.028605 
L 329.191333 241.556439 
L 334.3153 237.586884 
L 339.439267 233.017621 
L 344.563233 227.713294 
L 349.6872 221.493709 
L 354.811167 214.116784 
L 359.935134 205.252844 
L 365.059101 194.43795 
L 370.183068 180.957117 
L 375.307035 163.363565 
L 380.431002 134.633723 
L 385.554969 117.173022 
L 390.678936 113.527982 
L 395.802903 109.901608 
L 400.92687 106.305143 
L 406.050837 102.751718 
L 411.174804 99.255512 
L 416.298771 95.831225 
L 421.422738 92.493441 
L 426.546705 89.255944 
L 431.670671 86.131061 
L 436.794638 83.129116 
L 441.918605 80.258064 
L 447.042572 77.523311 
L 452.166539 74.927749 
L 457.290506 72.471935 
L 462.414473 70.154399 
L 467.53844 67.972004 
L 472.662407 65.92032 
L 477.786374 63.993984 
L 482.910341 62.187015 
L 488.034308 60.493078 
L 493.158275 58.905698 
L 498.282242 57.418418 
L 503.406209 56.024925 
L 508.530176 54.719127 
L 513.654143 53.495213 
L 518.77811 52.347678 
L 523.902076 51.271347 
L 529.026043 50.261373 
L 534.15001 49.313236 
L 539.273977 48.422727 
L 544.397944 47.585939 
L 549.521911 46.799248 
L 554.645878 46.059295 
L 559.769845 45.36297 
L 564.893812 44.707391 
L 570.017779 44.089891 
L 575.141746 43.507998 
L 580.265713 42.95942 
L 585.38968 42.442036 
L 590.513647 41.953875 
L 595.637614 41.493108 
" style="fill:none;stroke:#c0d4f5;stroke-linecap:square;stroke-width:1.5;"/>
   </g>
   <g id="line2d_22">
    <path clip-path="url(#pc7393e8e75)" d="M 88.364886 287.070875 
L 93.488853 286.015033 
L 98.61282 284.893871 
L 103.736787 283.703351 
L 108.860754 282.439299 
L 113.984721 281.097445 
L 119.108688 279.67347 
L 124.232655 278.163078 
L 129.356622 276.562078 
L 134.480589 274.866498 
L 139.604556 273.072706 
L 144.728523 271.177563 
L 149.85249 269.178585 
L 154.976457 267.074112 
L 160.100424 264.86348 
L 165.22439 262.547173 
L 170.348357 260.126938 
L 175.472324 257.605853 
L 180.596291 254.988331 
L 185.720258 252.280038 
L 190.844225 249.487746 
L 195.968192 246.619107 
L 201.092159 243.682382 
L 206.216126 240.686141 
L 211.340093 237.638957 
L 216.46406 234.549132 
L 221.588027 231.424456 
L 226.711994 228.27227 
L 231.835961 225.579188 
L 236.959928 250.480893 
L 242.083895 260.050008 
L 247.207862 265.007085 
L 252.331829 267.830441 
L 257.455795 269.418474 
L 262.579762 270.221799 
L 267.703729 270.494454 
L 272.827696 270.387519 
L 277.951663 269.992908 
L 283.07563 269.367484 
L 288.199597 268.546006 
L 293.323564 267.548703 
L 298.447531 266.38581 
L 303.571498 265.059971 
L 308.695465 263.567842 
L 313.819432 261.90068 
L 318.943399 260.04429 
L 324.067366 257.978896 
L 329.191333 255.678092 
L 334.3153 253.107441 
L 339.439267 250.222614 
L 344.563233 246.965903 
L 349.6872 243.262426 
L 354.811167 239.013635 
L 359.935134 234.088402 
L 365.059101 228.310872 
L 370.183068 221.442724 
L 375.307035 213.159413 
L 380.431002 203.018326 
L 385.554969 190.40745 
L 390.678936 174.400522 
L 395.802903 152.928817 
L 400.92687 114.207571 
L 406.050837 110.057594 
L 411.174804 106.329189 
L 416.298771 102.630786 
L 421.422738 98.980737 
L 426.546705 95.398869 
L 431.670671 91.90522 
L 436.794638 88.518887 
L 441.918605 85.2569 
L 447.042572 82.133289 
L 452.166539 79.158499 
L 457.290506 76.339166 
L 462.414473 73.678267 
L 467.53844 71.175522 
L 472.662407 68.827969 
L 477.786374 66.630582 
L 482.910341 64.576869 
L 488.034308 62.659398 
L 493.158275 60.870226 
L 498.282242 59.201232 
L 503.406209 57.644366 
L 508.530176 56.191815 
L 513.654143 54.836114 
L 518.77811 53.570216 
L 523.902076 52.387523 
L 529.026043 51.281894 
L 534.15001 50.247645 
L 539.273977 49.279522 
L 544.397944 48.37269 
L 549.521911 47.522697 
L 554.645878 46.725453 
L 559.769845 45.977199 
L 564.893812 45.274482 
L 570.017779 44.614125 
L 575.141746 43.993209 
L 580.265713 43.409048 
L 585.38968 42.859166 
L 590.513647 42.341283 
L 595.637614 41.853294 
" style="fill:none;stroke:#f2cbb7;stroke-linecap:square;stroke-width:1.5;"/>
   </g>
   <g id="line2d_23">
    <path clip-path="url(#pc7393e8e75)" d="M 88.364886 287.457131 
L 93.488853 286.427406 
L 98.61282 285.334679 
L 103.736787 284.175189 
L 108.860754 282.945076 
L 113.984721 281.640424 
L 119.108688 280.257312 
L 124.232655 278.791886 
L 129.356622 277.240447 
L 134.480589 275.599554 
L 139.604556 273.866147 
L 144.728523 272.037683 
L 149.85249 270.112287 
L 154.976457 268.088896 
L 160.100424 265.967403 
L 165.22439 263.748775 
L 170.348357 261.435135 
L 175.472324 259.029797 
L 180.596291 256.537234 
L 185.720258 253.962984 
L 190.844225 251.313492 
L 195.968192 248.595898 
L 201.092159 245.817788 
L 206.216126 242.986928 
L 211.340093 240.111009 
L 216.46406 237.197411 
L 221.588027 234.253014 
L 226.711994 231.285352 
L 231.835961 247.41138 
L 236.959928 262.216517 
L 242.083895 268.858018 
L 247.207862 272.571309 
L 252.331829 274.7024 
L 257.455795 275.879145 
L 262.579762 276.446966 
L 267.703729 276.606713 
L 272.827696 276.478365 
L 277.951663 276.135052 
L 283.07563 275.621916 
L 288.199597 274.966884 
L 293.323564 274.186822 
L 298.447531 273.29119 
L 303.571498 272.284084 
L 308.695465 271.165724 
L 313.819432 269.932716 
L 318.943399 268.57878 
L 324.067366 267.094522 
L 329.191333 265.467294 
L 334.3153 263.680762 
L 339.439267 261.714097 
L 344.563233 259.54096 
L 349.6872 257.127889 
L 354.811167 254.43216 
L 359.935134 251.398665 
L 365.059101 247.955095 
L 370.183068 244.005763 
L 375.307035 239.421341 
L 380.431002 234.024232 
L 385.554969 227.567317 
L 390.678936 219.702825 
L 395.802903 209.941622 
L 400.92687 197.606143 
L 406.050837 181.769478 
L 411.174804 160.954586 
L 416.298771 129.142524 
L 421.422738 106.454529 
L 426.546705 102.563798 
L 431.670671 98.710767 
L 436.794638 94.922485 
L 441.918605 91.227147 
L 447.042572 87.651732 
L 452.166539 84.219974 
L 457.290506 80.950757 
L 462.414473 77.857206 
L 467.53844 74.946558 
L 472.662407 72.220668 
L 477.786374 69.676932 
L 482.910341 67.309367 
L 488.034308 65.109668 
L 493.158275 63.068114 
L 498.282242 61.174296 
L 503.406209 59.417641 
L 508.530176 57.787784 
L 513.654143 56.274806 
L 518.77811 54.869368 
L 523.902076 53.562785 
L 529.026043 52.347041 
L 534.15001 51.214782 
L 539.273977 50.15929 
L 544.397944 49.174437 
L 549.521911 48.254645 
L 554.645878 47.394841 
L 559.769845 46.590407 
L 564.893812 45.837142 
L 570.017779 45.131219 
L 575.141746 44.46915 
L 580.265713 43.847751 
L 585.38968 43.264114 
L 590.513647 42.715577 
L 595.637614 42.199703 
" style="fill:none;stroke:#ee8468;stroke-linecap:square;stroke-width:1.5;"/>
   </g>
   <g id="line2d_24">
    <path clip-path="url(#pc7393e8e75)" d="M 88.364886 287.84233 
L 93.488853 286.839005 
L 98.61282 285.775033 
L 103.736787 284.646926 
L 108.860754 283.451132 
L 113.984721 282.184078 
L 119.108688 280.842226 
L 124.232655 279.422144 
L 129.356622 277.920592 
L 134.480589 276.33462 
L 139.604556 274.661686 
L 144.728523 272.899777 
L 149.85249 271.047544 
L 154.976457 269.104426 
L 160.100424 267.070765 
L 165.22439 264.947898 
L 170.348357 262.738208 
L 175.472324 260.445132 
L 180.596291 258.07311 
L 185.720258 255.627483 
L 190.844225 253.114331 
L 195.968192 250.540283 
L 201.092159 247.912283 
L 206.216126 245.23737 
L 211.340093 242.522453 
L 216.46406 239.774118 
L 221.588027 236.998688 
L 226.711994 234.506647 
L 231.835961 260.110623 
L 236.959928 270.124074 
L 242.083895 275.342698 
L 247.207862 278.304282 
L 252.331829 279.974974 
L 257.455795 280.865124 
L 262.579762 281.26528 
L 267.703729 281.343667 
L 272.827696 281.199257 
L 277.951663 280.8914 
L 283.07563 280.456372 
L 288.199597 279.916513 
L 293.323564 279.285551 
L 298.447531 278.571552 
L 303.571498 277.778644 
L 308.695465 276.908184 
L 313.819432 275.959183 
L 318.943399 274.92877 
L 324.067366 273.812371 
L 329.191333 272.603481 
L 334.3153 271.293811 
L 339.439267 269.872836 
L 344.563233 268.327505 
L 349.6872 266.641588 
L 354.811167 264.795035 
L 359.935134 262.76263 
L 365.059101 260.512622 
L 370.183068 258.004421 
L 375.307035 255.185316 
L 380.431002 251.985758 
L 385.554969 248.312068 
L 390.678936 244.035311 
L 395.802903 238.973752 
L 400.92687 232.86477 
L 406.050837 225.320719 
L 411.174804 215.761208 
L 416.298771 203.327097 
L 421.422738 186.808096 
L 426.546705 164.554215 
L 431.670671 132.025513 
L 436.794638 102.495114 
L 441.918605 98.377919 
L 447.042572 94.323118 
L 452.166539 90.371433 
L 457.290506 86.561931 
L 462.414473 82.927919 
L 467.53844 79.49416 
L 472.662407 76.275721 
L 477.786374 73.278414 
L 482.910341 70.500334 
L 488.034308 67.933859 
L 493.158275 65.567629 
L 498.282242 63.388199 
L 503.406209 61.38128 
L 508.530176 59.532595 
L 513.654143 57.828415 
L 518.77811 56.25587 
L 523.902076 54.803088 
L 529.026043 53.459238 
L 534.15001 52.214512 
L 539.273977 51.060068 
L 544.397944 49.987951 
L 549.521911 48.991018 
L 554.645878 48.06285 
L 559.769845 47.197683 
L 564.893812 46.390331 
L 570.017779 45.636123 
L 575.141746 44.930848 
L 580.265713 44.270697 
L 585.38968 43.652225 
L 590.513647 43.072307 
L 595.637614 42.528103 
" style="fill:none;stroke:#b40426;stroke-linecap:square;stroke-width:1.5;"/>
   </g>
   <g id="line2d_25">
    <path clip-path="url(#pc7393e8e75)" d="M 88.364886 286.877701 
L 93.488853 285.808964 
L 98.61282 284.673769 
L 103.736787 283.467941 
L 108.860754 282.18715 
L 113.984721 280.826945 
L 119.108688 279.382806 
L 124.232655 277.850208 
L 129.356622 276.224707 
L 134.480589 274.50205 
L 139.604556 272.678303 
L 144.728523 270.750002 
L 149.85249 268.71433 
L 154.976457 266.569292 
L 160.100424 264.313902 
L 165.22439 261.948353 
L 170.348357 259.474155 
L 175.472324 256.894219 
L 180.596291 254.212882 
L 185.720258 251.435838 
L 190.844225 248.569999 
L 195.968192 245.623266 
L 201.092159 242.604246 
L 206.216126 239.521936 
L 211.340093 236.385391 
L 216.46406 233.203426 
L 221.588027 229.984347 
L 226.711994 226.735954 
L 231.835961 223.471553 
L 236.959928 241.37683 
L 242.083895 254.248143 
L 247.207862 260.222504 
L 252.331829 263.555263 
L 257.455795 265.431111 
L 262.579762 266.395195 
L 267.703729 266.744198 
L 272.827696 266.651695 
L 277.951663 266.222811 
L 283.07563 265.521946 
L 288.199597 264.587955 
L 293.323564 263.442761 
L 298.447531 262.09635 
L 303.571498 260.549554 
L 308.695465 258.795613 
L 313.819432 256.820518 
L 318.943399 254.603065 
L 324.067366 252.113863 
L 329.191333 249.313769 
L 334.3153 246.151604 
L 339.439267 242.560558 
L 344.563233 238.453212 
L 349.6872 233.714263 
L 354.811167 228.190688 
L 359.935134 221.677422 
L 365.059101 213.897677 
L 370.183068 204.475749 
L 375.307035 192.887404 
L 380.431002 178.336766 
L 385.554969 159.175081 
L 390.678936 124.848906 
L 395.802903 113.638569 
L 400.92687 109.958913 
L 406.050837 106.301612 
L 411.174804 102.681089 
L 416.298771 99.113555 
L 421.422738 95.616041 
L 426.546705 92.205602 
L 431.670671 88.898431 
L 436.794638 85.709 
L 441.918605 82.649358 
L 447.042572 79.728654 
L 452.166539 76.952944 
L 457.290506 74.325252 
L 462.414473 71.845847 
L 467.53844 69.51266 
L 472.662407 67.321747 
L 477.786374 65.267777 
L 482.910341 63.344455 
L 488.034308 61.544904 
L 493.158275 59.861957 
L 498.282242 58.288396 
L 503.406209 56.817114 
L 508.530176 55.44124 
L 513.654143 54.154214 
L 518.77811 52.949834 
L 523.902076 51.822276 
L 529.026043 50.766105 
L 534.15001 49.776268 
L 539.273977 48.848077 
L 544.397944 47.977197 
L 549.521911 47.159622 
L 554.645878 46.391654 
L 559.769845 45.66988 
L 564.893812 44.991151 
L 570.017779 44.352561 
L 575.141746 43.751427 
L 580.265713 43.185273 
L 585.38968 42.651808 
L 590.513647 42.148915 
L 595.637614 41.674634 
" style="fill:none;stroke:#000000;stroke-linecap:square;stroke-width:1.5;"/>
   </g>
   <g id="patch_3">
    <path d="M 63.00125 300.196875 
L 63.00125 28.396875 
" style="fill:none;stroke:#000000;stroke-linecap:square;stroke-linejoin:miter;stroke-width:0.8;"/>
   </g>
   <g id="patch_4">
    <path d="M 621.00125 300.196875 
L 621.00125 28.396875 
" style="fill:none;stroke:#000000;stroke-linecap:square;stroke-linejoin:miter;stroke-width:0.8;"/>
   </g>
   <g id="patch_5">
    <path d="M 63.00125 300.196875 
L 621.00125 300.196875 
" style="fill:none;stroke:#000000;stroke-linecap:square;stroke-linejoin:miter;stroke-width:0.8;"/>
   </g>
   <g id="patch_6">
    <path d="M 63.00125 28.396875 
L 621.00125 28.396875 
" style="fill:none;stroke:#000000;stroke-linecap:square;stroke-linejoin:miter;stroke-width:0.8;"/>
   </g>
   <g id="text_14">
    <!-- $R_e = R_i$ -->
    <defs>
     <path d="M 25.203125 64.796875 
L 20.21875 38.921875 
L 32.90625 38.921875 
Q 40.375 38.921875 44.984375 43.046875 
Q 49.609375 47.171875 49.609375 53.8125 
Q 49.609375 59.125 46.5 61.953125 
Q 43.40625 64.796875 37.59375 64.796875 
z
M 43.3125 35.015625 
Q 46.4375 34.28125 48.515625 31.390625 
Q 50.59375 28.515625 53.328125 19.921875 
L 59.515625 0 
L 49.125 0 
L 43.40625 18.703125 
Q 41.21875 25.921875 38.328125 28.359375 
Q 35.453125 30.8125 29.5 30.8125 
L 18.609375 30.8125 
L 12.59375 0 
L 2.6875 0 
L 16.890625 72.90625 
L 39.109375 72.90625 
Q 49.21875 72.90625 54.609375 68.328125 
Q 60.015625 63.765625 60.015625 55.171875 
Q 60.015625 47.5625 55.421875 41.984375 
Q 50.828125 36.421875 43.3125 35.015625 
z
" id="DejaVuSans-Oblique-82"/>
     <path d="M 10.59375 45.40625 
L 73.1875 45.40625 
L 73.1875 37.203125 
L 10.59375 37.203125 
z
M 10.59375 25.484375 
L 73.1875 25.484375 
L 73.1875 17.1875 
L 10.59375 17.1875 
z
" id="DejaVuSans-61"/>
     <path d="M 18.3125 75.984375 
L 27.296875 75.984375 
L 25.09375 64.59375 
L 16.109375 64.59375 
z
M 14.203125 54.6875 
L 23.1875 54.6875 
L 12.5 0 
L 3.515625 0 
z
" id="DejaVuSans-Oblique-105"/>
    </defs>
    <g transform="translate(309.00125 22.396875)scale(0.2 -0.2)">
     <use transform="translate(0 0.09375)" xlink:href="#DejaVuSans-Oblique-82"/>
     <use transform="translate(69.482422 -16.3125)scale(0.7)" xlink:href="#DejaVuSans-Oblique-101"/>
     <use transform="translate(134.765625 0.09375)" xlink:href="#DejaVuSans-61"/>
     <use transform="translate(238.037109 0.09375)" xlink:href="#DejaVuSans-Oblique-82"/>
     <use transform="translate(307.519531 -16.3125)scale(0.7)" xlink:href="#DejaVuSans-Oblique-105"/>
    </g>
   </g>
  </g>
 </g>
 <defs>
  <clipPath id="pc7393e8e75">
   <rect height="271.8" width="558" x="63.00125" y="28.396875"/>
  </clipPath>
 </defs>
</svg>
