<?xml version="1.0" encoding="utf-8" standalone="no"?>
<!DOCTYPE svg PUBLIC "-//W3C//DTD SVG 1.1//EN"
  "http://www.w3.org/Graphics/SVG/1.1/DTD/svg11.dtd">
<!-- Created with matplotlib (https://matplotlib.org/) -->
<svg height="332.085pt" version="1.1" viewBox="0 0 628.20125 332.085" width="628.20125pt" xmlns="http://www.w3.org/2000/svg" xmlns:xlink="http://www.w3.org/1999/xlink">
 <defs>
  <style type="text/css">
*{stroke-linecap:butt;stroke-linejoin:round;}
  </style>
 </defs>
 <g id="figure_1">
  <g id="patch_1">
   <path d="M 0 332.085 
L 628.20125 332.085 
L 628.20125 0 
L 0 0 
z
" style="fill:none;"/>
  </g>
  <g id="axes_1">
   <g id="patch_2">
    <path d="M 63.00125 279 
L 621.00125 279 
L 621.00125 7.2 
L 63.00125 7.2 
z
" style="fill:#ffffff;"/>
   </g>
   <g id="matplotlib.axis_1">
    <g id="xtick_1">
     <g id="line2d_1">
      <defs>
       <path d="M 0 0 
L 0 3.5 
" id="mcba07a8a4d" style="stroke:#000000;stroke-width:0.8;"/>
      </defs>
      <g>
       <use style="stroke:#000000;stroke-width:0.8;" x="88.364886" xlink:href="#mcba07a8a4d" y="279"/>
      </g>
     </g>
     <g id="text_1">
      <!-- 0 -->
      <defs>
       <path d="M 31.78125 66.40625 
Q 24.171875 66.40625 20.328125 58.90625 
Q 16.5 51.421875 16.5 36.375 
Q 16.5 21.390625 20.328125 13.890625 
Q 24.171875 6.390625 31.78125 6.390625 
Q 39.453125 6.390625 43.28125 13.890625 
Q 47.125 21.390625 47.125 36.375 
Q 47.125 51.421875 43.28125 58.90625 
Q 39.453125 66.40625 31.78125 66.40625 
z
M 31.78125 74.21875 
Q 44.046875 74.21875 50.515625 64.515625 
Q 56.984375 54.828125 56.984375 36.375 
Q 56.984375 17.96875 50.515625 8.265625 
Q 44.046875 -1.421875 31.78125 -1.421875 
Q 19.53125 -1.421875 13.0625 8.265625 
Q 6.59375 17.96875 6.59375 36.375 
Q 6.59375 54.828125 13.0625 64.515625 
Q 19.53125 74.21875 31.78125 74.21875 
z
" id="DejaVuSans-48"/>
      </defs>
      <g transform="translate(83.274886 298.1575)scale(0.16 -0.16)">
       <use xlink:href="#DejaVuSans-48"/>
      </g>
     </g>
    </g>
    <g id="xtick_2">
     <g id="line2d_2">
      <g>
       <use style="stroke:#000000;stroke-width:0.8;" x="190.844225" xlink:href="#mcba07a8a4d" y="279"/>
      </g>
     </g>
     <g id="text_2">
      <!-- 1 -->
      <defs>
       <path d="M 12.40625 8.296875 
L 28.515625 8.296875 
L 28.515625 63.921875 
L 10.984375 60.40625 
L 10.984375 69.390625 
L 28.421875 72.90625 
L 38.28125 72.90625 
L 38.28125 8.296875 
L 54.390625 8.296875 
L 54.390625 0 
L 12.40625 0 
z
" id="DejaVuSans-49"/>
      </defs>
      <g transform="translate(185.754225 298.1575)scale(0.16 -0.16)">
       <use xlink:href="#DejaVuSans-49"/>
      </g>
     </g>
    </g>
    <g id="xtick_3">
     <g id="line2d_3">
      <g>
       <use style="stroke:#000000;stroke-width:0.8;" x="293.323564" xlink:href="#mcba07a8a4d" y="279"/>
      </g>
     </g>
     <g id="text_3">
      <!-- 2 -->
      <defs>
       <path d="M 19.1875 8.296875 
L 53.609375 8.296875 
L 53.609375 0 
L 7.328125 0 
L 7.328125 8.296875 
Q 12.9375 14.109375 22.625 23.890625 
Q 32.328125 33.6875 34.8125 36.53125 
Q 39.546875 41.84375 41.421875 45.53125 
Q 43.3125 49.21875 43.3125 52.78125 
Q 43.3125 58.59375 39.234375 62.25 
Q 35.15625 65.921875 28.609375 65.921875 
Q 23.96875 65.921875 18.8125 64.3125 
Q 13.671875 62.703125 7.8125 59.421875 
L 7.8125 69.390625 
Q 13.765625 71.78125 18.9375 73 
Q 24.125 74.21875 28.421875 74.21875 
Q 39.75 74.21875 46.484375 68.546875 
Q 53.21875 62.890625 53.21875 53.421875 
Q 53.21875 48.921875 51.53125 44.890625 
Q 49.859375 40.875 45.40625 35.40625 
Q 44.1875 33.984375 37.640625 27.21875 
Q 31.109375 20.453125 19.1875 8.296875 
z
" id="DejaVuSans-50"/>
      </defs>
      <g transform="translate(288.233564 298.1575)scale(0.16 -0.16)">
       <use xlink:href="#DejaVuSans-50"/>
      </g>
     </g>
    </g>
    <g id="xtick_4">
     <g id="line2d_4">
      <g>
       <use style="stroke:#000000;stroke-width:0.8;" x="395.802903" xlink:href="#mcba07a8a4d" y="279"/>
      </g>
     </g>
     <g id="text_4">
      <!-- 3 -->
      <defs>
       <path d="M 40.578125 39.3125 
Q 47.65625 37.796875 51.625 33 
Q 55.609375 28.21875 55.609375 21.1875 
Q 55.609375 10.40625 48.1875 4.484375 
Q 40.765625 -1.421875 27.09375 -1.421875 
Q 22.515625 -1.421875 17.65625 -0.515625 
Q 12.796875 0.390625 7.625 2.203125 
L 7.625 11.71875 
Q 11.71875 9.328125 16.59375 8.109375 
Q 21.484375 6.890625 26.8125 6.890625 
Q 36.078125 6.890625 40.9375 10.546875 
Q 45.796875 14.203125 45.796875 21.1875 
Q 45.796875 27.640625 41.28125 31.265625 
Q 36.765625 34.90625 28.71875 34.90625 
L 20.21875 34.90625 
L 20.21875 43.015625 
L 29.109375 43.015625 
Q 36.375 43.015625 40.234375 45.921875 
Q 44.09375 48.828125 44.09375 54.296875 
Q 44.09375 59.90625 40.109375 62.90625 
Q 36.140625 65.921875 28.71875 65.921875 
Q 24.65625 65.921875 20.015625 65.03125 
Q 15.375 64.15625 9.8125 62.3125 
L 9.8125 71.09375 
Q 15.4375 72.65625 20.34375 73.4375 
Q 25.25 74.21875 29.59375 74.21875 
Q 40.828125 74.21875 47.359375 69.109375 
Q 53.90625 64.015625 53.90625 55.328125 
Q 53.90625 49.265625 50.4375 45.09375 
Q 46.96875 40.921875 40.578125 39.3125 
z
" id="DejaVuSans-51"/>
      </defs>
      <g transform="translate(390.712903 298.1575)scale(0.16 -0.16)">
       <use xlink:href="#DejaVuSans-51"/>
      </g>
     </g>
    </g>
    <g id="xtick_5">
     <g id="line2d_5">
      <g>
       <use style="stroke:#000000;stroke-width:0.8;" x="498.282242" xlink:href="#mcba07a8a4d" y="279"/>
      </g>
     </g>
     <g id="text_5">
      <!-- 4 -->
      <defs>
       <path d="M 37.796875 64.3125 
L 12.890625 25.390625 
L 37.796875 25.390625 
z
M 35.203125 72.90625 
L 47.609375 72.90625 
L 47.609375 25.390625 
L 58.015625 25.390625 
L 58.015625 17.1875 
L 47.609375 17.1875 
L 47.609375 0 
L 37.796875 0 
L 37.796875 17.1875 
L 4.890625 17.1875 
L 4.890625 26.703125 
z
" id="DejaVuSans-52"/>
      </defs>
      <g transform="translate(493.192242 298.1575)scale(0.16 -0.16)">
       <use xlink:href="#DejaVuSans-52"/>
      </g>
     </g>
    </g>
    <g id="xtick_6">
     <g id="line2d_6">
      <g>
       <use style="stroke:#000000;stroke-width:0.8;" x="600.761581" xlink:href="#mcba07a8a4d" y="279"/>
      </g>
     </g>
     <g id="text_6">
      <!-- 5 -->
      <defs>
       <path d="M 10.796875 72.90625 
L 49.515625 72.90625 
L 49.515625 64.59375 
L 19.828125 64.59375 
L 19.828125 46.734375 
Q 21.96875 47.46875 24.109375 47.828125 
Q 26.265625 48.1875 28.421875 48.1875 
Q 40.625 48.1875 47.75 41.5 
Q 54.890625 34.8125 54.890625 23.390625 
Q 54.890625 11.625 47.5625 5.09375 
Q 40.234375 -1.421875 26.90625 -1.421875 
Q 22.3125 -1.421875 17.546875 -0.640625 
Q 12.796875 0.140625 7.71875 1.703125 
L 7.71875 11.625 
Q 12.109375 9.234375 16.796875 8.0625 
Q 21.484375 6.890625 26.703125 6.890625 
Q 35.15625 6.890625 40.078125 11.328125 
Q 45.015625 15.765625 45.015625 23.390625 
Q 45.015625 31 40.078125 35.4375 
Q 35.15625 39.890625 26.703125 39.890625 
Q 22.75 39.890625 18.8125 39.015625 
Q 14.890625 38.140625 10.796875 36.28125 
z
" id="DejaVuSans-53"/>
      </defs>
      <g transform="translate(595.671581 298.1575)scale(0.16 -0.16)">
       <use xlink:href="#DejaVuSans-53"/>
      </g>
     </g>
    </g>
    <g id="text_7">
     <!-- $J_e$ (mV) -->
     <defs>
      <path d="M 16.703125 72.90625 
L 26.609375 72.90625 
L 13.375 5.078125 
Q 10.796875 -8.15625 4.65625 -14.078125 
Q -1.46875 -20.015625 -12.5 -20.015625 
L -16.40625 -20.015625 
L -14.796875 -11.71875 
L -11.71875 -11.71875 
Q -5.125 -11.71875 -1.703125 -7.953125 
Q 1.703125 -4.203125 3.515625 5.078125 
z
" id="DejaVuSans-Oblique-74"/>
      <path d="M 48.09375 32.234375 
Q 48.25 33.015625 48.3125 33.84375 
Q 48.390625 34.671875 48.390625 35.5 
Q 48.390625 41.453125 44.890625 44.921875 
Q 41.40625 48.390625 35.40625 48.390625 
Q 28.71875 48.390625 23.578125 44.15625 
Q 18.453125 39.9375 15.828125 32.171875 
z
M 55.90625 25.203125 
L 14.109375 25.203125 
Q 13.8125 23.34375 13.71875 22.265625 
Q 13.625 21.1875 13.625 20.40625 
Q 13.625 13.625 17.796875 9.90625 
Q 21.96875 6.203125 29.59375 6.203125 
Q 35.453125 6.203125 40.671875 7.515625 
Q 45.90625 8.84375 50.390625 11.375 
L 48.6875 2.484375 
Q 43.84375 0.53125 38.6875 -0.4375 
Q 33.546875 -1.421875 28.21875 -1.421875 
Q 16.84375 -1.421875 10.71875 4.015625 
Q 4.59375 9.46875 4.59375 19.484375 
Q 4.59375 28.03125 7.640625 35.375 
Q 10.6875 42.71875 16.609375 48.484375 
Q 20.40625 52.09375 25.65625 54.046875 
Q 30.90625 56 36.8125 56 
Q 46.09375 56 51.578125 50.4375 
Q 57.078125 44.875 57.078125 35.5 
Q 57.078125 33.25 56.78125 30.6875 
Q 56.5 28.125 55.90625 25.203125 
z
" id="DejaVuSans-Oblique-101"/>
      <path id="DejaVuSans-32"/>
      <path d="M 31 75.875 
Q 24.46875 64.65625 21.28125 53.65625 
Q 18.109375 42.671875 18.109375 31.390625 
Q 18.109375 20.125 21.3125 9.0625 
Q 24.515625 -2 31 -13.1875 
L 23.1875 -13.1875 
Q 15.875 -1.703125 12.234375 9.375 
Q 8.59375 20.453125 8.59375 31.390625 
Q 8.59375 42.28125 12.203125 53.3125 
Q 15.828125 64.359375 23.1875 75.875 
z
" id="DejaVuSans-40"/>
      <path d="M 52 44.1875 
Q 55.375 50.25 60.0625 53.125 
Q 64.75 56 71.09375 56 
Q 79.640625 56 84.28125 50.015625 
Q 88.921875 44.046875 88.921875 33.015625 
L 88.921875 0 
L 79.890625 0 
L 79.890625 32.71875 
Q 79.890625 40.578125 77.09375 44.375 
Q 74.3125 48.1875 68.609375 48.1875 
Q 61.625 48.1875 57.5625 43.546875 
Q 53.515625 38.921875 53.515625 30.90625 
L 53.515625 0 
L 44.484375 0 
L 44.484375 32.71875 
Q 44.484375 40.625 41.703125 44.40625 
Q 38.921875 48.1875 33.109375 48.1875 
Q 26.21875 48.1875 22.15625 43.53125 
Q 18.109375 38.875 18.109375 30.90625 
L 18.109375 0 
L 9.078125 0 
L 9.078125 54.6875 
L 18.109375 54.6875 
L 18.109375 46.1875 
Q 21.1875 51.21875 25.484375 53.609375 
Q 29.78125 56 35.6875 56 
Q 41.65625 56 45.828125 52.96875 
Q 50 49.953125 52 44.1875 
z
" id="DejaVuSans-109"/>
      <path d="M 28.609375 0 
L 0.78125 72.90625 
L 11.078125 72.90625 
L 34.1875 11.53125 
L 57.328125 72.90625 
L 67.578125 72.90625 
L 39.796875 0 
z
" id="DejaVuSans-86"/>
      <path d="M 8.015625 75.875 
L 15.828125 75.875 
Q 23.140625 64.359375 26.78125 53.3125 
Q 30.421875 42.28125 30.421875 31.390625 
Q 30.421875 20.453125 26.78125 9.375 
Q 23.140625 -1.703125 15.828125 -13.1875 
L 8.015625 -13.1875 
Q 14.5 -2 17.703125 9.0625 
Q 20.90625 20.125 20.90625 31.390625 
Q 20.90625 42.671875 17.703125 53.65625 
Q 14.5 64.65625 8.015625 75.875 
z
" id="DejaVuSans-41"/>
     </defs>
     <g transform="translate(306.90125 320.685)scale(0.2 -0.2)">
      <use transform="translate(0 0.125)" xlink:href="#DejaVuSans-Oblique-74"/>
      <use transform="translate(29.492188 -16.28125)scale(0.7)" xlink:href="#DejaVuSans-Oblique-101"/>
      <use transform="translate(75.292969 0.125)" xlink:href="#DejaVuSans-32"/>
      <use transform="translate(107.080078 0.125)" xlink:href="#DejaVuSans-40"/>
      <use transform="translate(146.09375 0.125)" xlink:href="#DejaVuSans-109"/>
      <use transform="translate(243.505859 0.125)" xlink:href="#DejaVuSans-86"/>
      <use transform="translate(311.914062 0.125)" xlink:href="#DejaVuSans-41"/>
     </g>
    </g>
   </g>
   <g id="matplotlib.axis_2">
    <g id="ytick_1">
     <g id="line2d_7">
      <defs>
       <path d="M 0 0 
L -3.5 0 
" id="mcd92f7fac4" style="stroke:#000000;stroke-width:0.8;"/>
      </defs>
      <g>
       <use style="stroke:#000000;stroke-width:0.8;" x="63.00125" xlink:href="#mcd92f7fac4" y="266.645455"/>
      </g>
     </g>
     <g id="text_8">
      <!-- 0.0 -->
      <defs>
       <path d="M 10.6875 12.40625 
L 21 12.40625 
L 21 0 
L 10.6875 0 
z
" id="DejaVuSans-46"/>
      </defs>
      <g transform="translate(30.55625 272.724205)scale(0.16 -0.16)">
       <use xlink:href="#DejaVuSans-48"/>
       <use x="63.623047" xlink:href="#DejaVuSans-46"/>
       <use x="95.410156" xlink:href="#DejaVuSans-48"/>
      </g>
     </g>
    </g>
    <g id="ytick_2">
     <g id="line2d_8">
      <g>
       <use style="stroke:#000000;stroke-width:0.8;" x="63.00125" xlink:href="#mcd92f7fac4" y="217.227273"/>
      </g>
     </g>
     <g id="text_9">
      <!-- 0.1 -->
      <g transform="translate(30.55625 223.306023)scale(0.16 -0.16)">
       <use xlink:href="#DejaVuSans-48"/>
       <use x="63.623047" xlink:href="#DejaVuSans-46"/>
       <use x="95.410156" xlink:href="#DejaVuSans-49"/>
      </g>
     </g>
    </g>
    <g id="ytick_3">
     <g id="line2d_9">
      <g>
       <use style="stroke:#000000;stroke-width:0.8;" x="63.00125" xlink:href="#mcd92f7fac4" y="167.809091"/>
      </g>
     </g>
     <g id="text_10">
      <!-- 0.2 -->
      <g transform="translate(30.55625 173.887841)scale(0.16 -0.16)">
       <use xlink:href="#DejaVuSans-48"/>
       <use x="63.623047" xlink:href="#DejaVuSans-46"/>
       <use x="95.410156" xlink:href="#DejaVuSans-50"/>
      </g>
     </g>
    </g>
    <g id="ytick_4">
     <g id="line2d_10">
      <g>
       <use style="stroke:#000000;stroke-width:0.8;" x="63.00125" xlink:href="#mcd92f7fac4" y="118.390909"/>
      </g>
     </g>
     <g id="text_11">
      <!-- 0.3 -->
      <g transform="translate(30.55625 124.469659)scale(0.16 -0.16)">
       <use xlink:href="#DejaVuSans-48"/>
       <use x="63.623047" xlink:href="#DejaVuSans-46"/>
       <use x="95.410156" xlink:href="#DejaVuSans-51"/>
      </g>
     </g>
    </g>
    <g id="ytick_5">
     <g id="line2d_11">
      <g>
       <use style="stroke:#000000;stroke-width:0.8;" x="63.00125" xlink:href="#mcd92f7fac4" y="68.972727"/>
      </g>
     </g>
     <g id="text_12">
      <!-- 0.4 -->
      <g transform="translate(30.55625 75.051477)scale(0.16 -0.16)">
       <use xlink:href="#DejaVuSans-48"/>
       <use x="63.623047" xlink:href="#DejaVuSans-46"/>
       <use x="95.410156" xlink:href="#DejaVuSans-52"/>
      </g>
     </g>
    </g>
    <g id="ytick_6">
     <g id="line2d_12">
      <g>
       <use style="stroke:#000000;stroke-width:0.8;" x="63.00125" xlink:href="#mcd92f7fac4" y="19.554545"/>
      </g>
     </g>
     <g id="text_13">
      <!-- 0.5 -->
      <g transform="translate(30.55625 25.633295)scale(0.16 -0.16)">
       <use xlink:href="#DejaVuSans-48"/>
       <use x="63.623047" xlink:href="#DejaVuSans-46"/>
       <use x="95.410156" xlink:href="#DejaVuSans-53"/>
      </g>
     </g>
    </g>
    <g id="text_14">
     <!-- $E$ (au) -->
     <defs>
      <path d="M 16.890625 72.90625 
L 62.984375 72.90625 
L 61.375 64.59375 
L 25.09375 64.59375 
L 20.90625 43.015625 
L 55.71875 43.015625 
L 54.109375 34.71875 
L 19.28125 34.71875 
L 14.203125 8.296875 
L 51.3125 8.296875 
L 49.703125 0 
L 2.6875 0 
z
" id="DejaVuSans-Oblique-69"/>
      <path d="M 34.28125 27.484375 
Q 23.390625 27.484375 19.1875 25 
Q 14.984375 22.515625 14.984375 16.5 
Q 14.984375 11.71875 18.140625 8.90625 
Q 21.296875 6.109375 26.703125 6.109375 
Q 34.1875 6.109375 38.703125 11.40625 
Q 43.21875 16.703125 43.21875 25.484375 
L 43.21875 27.484375 
z
M 52.203125 31.203125 
L 52.203125 0 
L 43.21875 0 
L 43.21875 8.296875 
Q 40.140625 3.328125 35.546875 0.953125 
Q 30.953125 -1.421875 24.3125 -1.421875 
Q 15.921875 -1.421875 10.953125 3.296875 
Q 6 8.015625 6 15.921875 
Q 6 25.140625 12.171875 29.828125 
Q 18.359375 34.515625 30.609375 34.515625 
L 43.21875 34.515625 
L 43.21875 35.40625 
Q 43.21875 41.609375 39.140625 45 
Q 35.0625 48.390625 27.6875 48.390625 
Q 23 48.390625 18.546875 47.265625 
Q 14.109375 46.140625 10.015625 43.890625 
L 10.015625 52.203125 
Q 14.9375 54.109375 19.578125 55.046875 
Q 24.21875 56 28.609375 56 
Q 40.484375 56 46.34375 49.84375 
Q 52.203125 43.703125 52.203125 31.203125 
z
" id="DejaVuSans-97"/>
      <path d="M 8.5 21.578125 
L 8.5 54.6875 
L 17.484375 54.6875 
L 17.484375 21.921875 
Q 17.484375 14.15625 20.5 10.265625 
Q 23.53125 6.390625 29.59375 6.390625 
Q 36.859375 6.390625 41.078125 11.03125 
Q 45.3125 15.671875 45.3125 23.6875 
L 45.3125 54.6875 
L 54.296875 54.6875 
L 54.296875 0 
L 45.3125 0 
L 45.3125 8.40625 
Q 42.046875 3.421875 37.71875 1 
Q 33.40625 -1.421875 27.6875 -1.421875 
Q 18.265625 -1.421875 13.375 4.4375 
Q 8.5 10.296875 8.5 21.578125 
z
M 31.109375 56 
z
" id="DejaVuSans-117"/>
     </defs>
     <g transform="translate(22.396875 172.9)rotate(-90)scale(0.2 -0.2)">
      <use transform="translate(0 0.125)" xlink:href="#DejaVuSans-Oblique-69"/>
      <use transform="translate(63.183594 0.125)" xlink:href="#DejaVuSans-32"/>
      <use transform="translate(94.970703 0.125)" xlink:href="#DejaVuSans-40"/>
      <use transform="translate(133.984375 0.125)" xlink:href="#DejaVuSans-97"/>
      <use transform="translate(195.263672 0.125)" xlink:href="#DejaVuSans-117"/>
      <use transform="translate(258.642578 0.125)" xlink:href="#DejaVuSans-41"/>
     </g>
    </g>
   </g>
   <g id="LineCollection_1">
    <path clip-path="url(#p88fe6187e2)" d="M 88.364886 266.645455 
L 88.364886 19.554545 
" style="fill:none;stroke:#000000;stroke-dasharray:5.55,2.4;stroke-dashoffset:0;stroke-width:1.5;"/>
   </g>
   <g id="LineCollection_2">
    <path clip-path="url(#p88fe6187e2)" d="M 190.844225 266.645455 
L 190.844225 19.554545 
" style="fill:none;stroke:#000000;stroke-dasharray:5.55,2.4;stroke-dashoffset:0;stroke-width:1.5;"/>
   </g>
   <g id="LineCollection_3">
    <path clip-path="url(#p88fe6187e2)" d="M 293.323564 266.645455 
L 293.323564 19.554545 
" style="fill:none;stroke:#000000;stroke-dasharray:5.55,2.4;stroke-dashoffset:0;stroke-width:1.5;"/>
   </g>
   <g id="line2d_13">
    <path clip-path="url(#p88fe6187e2)" d="M 206.216126 139.165198 
L 211.340093 123.024565 
L 216.46406 115.930951 
L 221.588027 110.422566 
L 226.711994 105.727423 
L 231.835961 101.548816 
L 236.959928 97.735975 
L 242.083895 94.200319 
L 247.207862 90.884899 
L 252.331829 87.750801 
L 257.455795 84.770253 
L 262.579762 81.922798 
L 267.703729 79.193013 
L 272.827696 76.569071 
L 277.951663 74.041792 
L 283.07563 71.603998 
L 288.199597 69.25005 
L 293.323564 66.975514 
L 298.447531 64.776906 
L 303.571498 62.651496 
L 308.695465 60.597154 
L 313.819432 58.612218 
L 318.943399 56.695393 
L 324.067366 54.845653 
L 329.191333 53.062171 
L 334.3153 51.344246 
L 339.439267 49.691247 
L 344.563233 48.102561 
L 349.6872 46.57755 
L 354.811167 45.115521 
L 359.935134 43.715691 
L 365.059101 42.377176 
L 370.183068 41.098967 
L 375.307035 39.879932 
L 380.431002 38.71881 
L 385.554969 37.614217 
L 390.678936 36.564652 
L 395.802903 35.56851 
L 400.92687 34.624096 
L 406.050837 33.729638 
L 411.174804 32.883306 
L 416.298771 32.083227 
L 421.422738 31.327503 
L 426.546705 30.614223 
L 431.670671 29.941478 
L 436.794638 29.307377 
L 441.918605 28.710053 
L 447.042572 28.147678 
L 452.166539 27.618464 
L 457.290506 27.120677 
L 462.414473 26.652639 
L 467.53844 26.21273 
L 472.662407 25.799393 
L 477.786374 25.411137 
L 482.910341 25.046535 
L 488.034308 24.704225 
L 493.158275 24.382913 
L 498.282242 24.081365 
L 503.406209 23.798414 
L 508.530176 23.532951 
L 513.654143 23.28393 
L 518.77811 23.050358 
L 523.902076 22.831301 
L 529.026043 22.625875 
L 534.15001 22.433249 
L 539.273977 22.252637 
L 544.397944 22.083302 
L 549.521911 21.924549 
L 554.645878 21.775723 
L 559.769845 21.636212 
L 564.893812 21.505436 
L 570.017779 21.382854 
L 575.141746 21.267956 
L 580.265713 21.160262 
L 585.38968 21.059325 
L 590.513647 20.964722 
L 595.637614 20.876058 
" style="fill:none;stroke:#000000;stroke-linecap:square;stroke-width:1.5;"/>
   </g>
   <g id="line2d_14">
    <defs>
     <path d="M 0 0.75 
C 0.198902 0.75 0.389685 0.670975 0.53033 0.53033 
C 0.670975 0.389685 0.75 0.198902 0.75 0 
C 0.75 -0.198902 0.670975 -0.389685 0.53033 -0.53033 
C 0.389685 -0.670975 0.198902 -0.75 0 -0.75 
C -0.198902 -0.75 -0.389685 -0.670975 -0.53033 -0.53033 
C -0.670975 -0.389685 -0.75 -0.198902 -0.75 0 
C -0.75 0.198902 -0.670975 0.389685 -0.53033 0.53033 
C -0.389685 0.670975 -0.198902 0.75 0 0.75 
z
" id="m7dd5dc730e" style="stroke:#000000;"/>
    </defs>
    <g clip-path="url(#p88fe6187e2)">
     <use style="stroke:#000000;" x="206.216126" xlink:href="#m7dd5dc730e" y="139.165198"/>
     <use style="stroke:#000000;" x="211.340093" xlink:href="#m7dd5dc730e" y="157.13668"/>
     <use style="stroke:#000000;" x="267.703729" xlink:href="#m7dd5dc730e" y="208.404663"/>
    </g>
   </g>
   <g id="line2d_15">
    <g clip-path="url(#p88fe6187e2)">
     <use style="stroke:#000000;" x="236.959928" xlink:href="#m7dd5dc730e" y="184.367926"/>
     <use style="stroke:#000000;" x="262.579762" xlink:href="#m7dd5dc730e" y="204.380275"/>
     <use style="stroke:#000000;" x="288.199597" xlink:href="#m7dd5dc730e" y="227.534359"/>
    </g>
   </g>
   <g id="line2d_16">
    <g clip-path="url(#p88fe6187e2)">
     <use style="stroke:#000000;" x="206.216126" xlink:href="#m7dd5dc730e" y="139.165198"/>
    </g>
   </g>
   <g id="line2d_17">
    <g clip-path="url(#p88fe6187e2)">
     <use style="stroke:#000000;" x="206.216126" xlink:href="#m7dd5dc730e" y="140.789032"/>
     <use style="stroke:#000000;" x="216.46406" xlink:href="#m7dd5dc730e" y="164.49122"/>
     <use style="stroke:#000000;" x="277.951663" xlink:href="#m7dd5dc730e" y="216.973335"/>
    </g>
   </g>
   <g id="line2d_18">
    <g clip-path="url(#p88fe6187e2)">
     <use style="stroke:#000000;" x="211.340093" xlink:href="#m7dd5dc730e" y="157.13668"/>
     <use style="stroke:#000000;" x="277.951663" xlink:href="#m7dd5dc730e" y="216.973335"/>
    </g>
   </g>
   <g id="line2d_19">
    <g clip-path="url(#p88fe6187e2)">
     <use style="stroke:#000000;" x="236.959928" xlink:href="#m7dd5dc730e" y="184.367926"/>
     <use style="stroke:#000000;" x="252.331829" xlink:href="#m7dd5dc730e" y="196.498046"/>
     <use style="stroke:#000000;" x="272.827696" xlink:href="#m7dd5dc730e" y="212.568547"/>
     <use style="stroke:#000000;" x="283.07563" xlink:href="#m7dd5dc730e" y="221.805687"/>
    </g>
   </g>
   <g id="line2d_20">
    <g clip-path="url(#p88fe6187e2)">
     <use style="stroke:#000000;" x="206.216126" xlink:href="#m7dd5dc730e" y="140.789032"/>
     <use style="stroke:#000000;" x="221.588027" xlink:href="#m7dd5dc730e" y="170.318758"/>
    </g>
   </g>
   <g id="line2d_21">
    <g clip-path="url(#p88fe6187e2)">
     <use style="stroke:#000000;" x="206.216126" xlink:href="#m7dd5dc730e" y="140.789032"/>
     <use style="stroke:#000000;" x="211.340093" xlink:href="#m7dd5dc730e" y="157.13668"/>
     <use style="stroke:#000000;" x="226.711994" xlink:href="#m7dd5dc730e" y="175.396353"/>
     <use style="stroke:#000000;" x="231.835961" xlink:href="#m7dd5dc730e" y="180.026735"/>
     <use style="stroke:#000000;" x="283.07563" xlink:href="#m7dd5dc730e" y="221.805687"/>
    </g>
   </g>
   <g id="line2d_22">
    <g clip-path="url(#p88fe6187e2)">
     <use style="stroke:#000000;" x="211.340093" xlink:href="#m7dd5dc730e" y="157.13668"/>
     <use style="stroke:#000000;" x="236.959928" xlink:href="#m7dd5dc730e" y="184.367926"/>
    </g>
   </g>
   <g id="line2d_23">
    <g clip-path="url(#p88fe6187e2)">
     <use style="stroke:#000000;" x="247.207862" xlink:href="#m7dd5dc730e" y="192.543078"/>
    </g>
   </g>
   <g id="line2d_24">
    <g clip-path="url(#p88fe6187e2)">
     <use style="stroke:#000000;" x="216.46406" xlink:href="#m7dd5dc730e" y="164.49122"/>
     <use style="stroke:#000000;" x="247.207862" xlink:href="#m7dd5dc730e" y="192.543078"/>
     <use style="stroke:#000000;" x="283.07563" xlink:href="#m7dd5dc730e" y="221.805687"/>
     <use style="stroke:#000000;" x="288.199597" xlink:href="#m7dd5dc730e" y="227.534359"/>
    </g>
   </g>
   <g id="line2d_25">
    <g clip-path="url(#p88fe6187e2)">
     <use style="stroke:#000000;" x="226.711994" xlink:href="#m7dd5dc730e" y="175.396353"/>
     <use style="stroke:#000000;" x="242.083895" xlink:href="#m7dd5dc730e" y="188.517374"/>
     <use style="stroke:#000000;" x="262.579762" xlink:href="#m7dd5dc730e" y="204.380275"/>
     <use style="stroke:#000000;" x="272.827696" xlink:href="#m7dd5dc730e" y="212.568547"/>
    </g>
   </g>
   <g id="line2d_26">
    <g clip-path="url(#p88fe6187e2)">
     <use style="stroke:#000000;" x="206.216126" xlink:href="#m7dd5dc730e" y="139.165198"/>
     <use style="stroke:#000000;" x="226.711994" xlink:href="#m7dd5dc730e" y="175.396353"/>
     <use style="stroke:#000000;" x="247.207862" xlink:href="#m7dd5dc730e" y="192.543078"/>
     <use style="stroke:#000000;" x="277.951663" xlink:href="#m7dd5dc730e" y="216.973335"/>
     <use style="stroke:#000000;" x="283.07563" xlink:href="#m7dd5dc730e" y="221.805687"/>
    </g>
   </g>
   <g id="line2d_27">
    <g clip-path="url(#p88fe6187e2)">
     <use style="stroke:#000000;" x="206.216126" xlink:href="#m7dd5dc730e" y="140.789032"/>
     <use style="stroke:#000000;" x="216.46406" xlink:href="#m7dd5dc730e" y="164.49122"/>
    </g>
   </g>
   <g id="line2d_28">
    <g clip-path="url(#p88fe6187e2)">
     <use style="stroke:#000000;" x="257.455795" xlink:href="#m7dd5dc730e" y="200.428557"/>
    </g>
   </g>
   <g id="line2d_29">
    <g clip-path="url(#p88fe6187e2)">
     <use style="stroke:#000000;" x="231.835961" xlink:href="#m7dd5dc730e" y="180.026735"/>
    </g>
   </g>
   <g id="line2d_30">
    <g clip-path="url(#p88fe6187e2)">
     <use style="stroke:#000000;" x="206.216126" xlink:href="#m7dd5dc730e" y="139.165198"/>
     <use style="stroke:#000000;" x="216.46406" xlink:href="#m7dd5dc730e" y="164.49122"/>
     <use style="stroke:#000000;" x="226.711994" xlink:href="#m7dd5dc730e" y="175.396353"/>
     <use style="stroke:#000000;" x="247.207862" xlink:href="#m7dd5dc730e" y="192.543078"/>
     <use style="stroke:#000000;" x="277.951663" xlink:href="#m7dd5dc730e" y="216.973335"/>
    </g>
   </g>
   <g id="line2d_31">
    <g clip-path="url(#p88fe6187e2)">
     <use style="stroke:#000000;" x="206.216126" xlink:href="#m7dd5dc730e" y="140.789032"/>
    </g>
   </g>
   <g id="line2d_32">
    <g clip-path="url(#p88fe6187e2)">
     <use style="stroke:#000000;" x="247.207862" xlink:href="#m7dd5dc730e" y="192.543078"/>
    </g>
   </g>
   <g id="line2d_33">
    <g clip-path="url(#p88fe6187e2)">
     <use style="stroke:#000000;" x="242.083895" xlink:href="#m7dd5dc730e" y="188.517374"/>
    </g>
   </g>
   <g id="line2d_34">
    <g clip-path="url(#p88fe6187e2)">
     <use style="stroke:#000000;" x="206.216126" xlink:href="#m7dd5dc730e" y="139.165198"/>
     <use style="stroke:#000000;" x="221.588027" xlink:href="#m7dd5dc730e" y="170.318758"/>
     <use style="stroke:#000000;" x="242.083895" xlink:href="#m7dd5dc730e" y="188.517374"/>
     <use style="stroke:#000000;" x="283.07563" xlink:href="#m7dd5dc730e" y="221.805687"/>
    </g>
   </g>
   <g id="line2d_35">
    <g clip-path="url(#p88fe6187e2)">
     <use style="stroke:#000000;" x="206.216126" xlink:href="#m7dd5dc730e" y="140.789032"/>
     <use style="stroke:#000000;" x="216.46406" xlink:href="#m7dd5dc730e" y="164.49122"/>
     <use style="stroke:#000000;" x="267.703729" xlink:href="#m7dd5dc730e" y="208.404663"/>
    </g>
   </g>
   <g id="line2d_36">
    <g clip-path="url(#p88fe6187e2)">
     <use style="stroke:#000000;" x="216.46406" xlink:href="#m7dd5dc730e" y="164.49122"/>
     <use style="stroke:#000000;" x="267.703729" xlink:href="#m7dd5dc730e" y="208.404663"/>
    </g>
   </g>
   <g id="line2d_37">
    <g clip-path="url(#p88fe6187e2)">
     <use style="stroke:#000000;" x="206.216126" xlink:href="#m7dd5dc730e" y="139.165198"/>
     <use style="stroke:#000000;" x="257.455795" xlink:href="#m7dd5dc730e" y="200.428557"/>
     <use style="stroke:#000000;" x="272.827696" xlink:href="#m7dd5dc730e" y="212.568547"/>
     <use style="stroke:#000000;" x="283.07563" xlink:href="#m7dd5dc730e" y="221.805687"/>
     <use style="stroke:#000000;" x="288.199597" xlink:href="#m7dd5dc730e" y="227.534359"/>
    </g>
   </g>
   <g id="line2d_38">
    <g clip-path="url(#p88fe6187e2)">
     <use style="stroke:#000000;" x="206.216126" xlink:href="#m7dd5dc730e" y="139.165198"/>
     <use style="stroke:#000000;" x="211.340093" xlink:href="#m7dd5dc730e" y="157.13668"/>
     <use style="stroke:#000000;" x="231.835961" xlink:href="#m7dd5dc730e" y="180.026735"/>
     <use style="stroke:#000000;" x="242.083895" xlink:href="#m7dd5dc730e" y="188.517374"/>
     <use style="stroke:#000000;" x="247.207862" xlink:href="#m7dd5dc730e" y="192.543078"/>
     <use style="stroke:#000000;" x="262.579762" xlink:href="#m7dd5dc730e" y="204.380275"/>
    </g>
   </g>
   <g id="line2d_39">
    <g clip-path="url(#p88fe6187e2)">
     <use style="stroke:#000000;" x="226.711994" xlink:href="#m7dd5dc730e" y="175.396353"/>
     <use style="stroke:#000000;" x="277.951663" xlink:href="#m7dd5dc730e" y="216.973335"/>
     <use style="stroke:#000000;" x="288.199597" xlink:href="#m7dd5dc730e" y="227.534359"/>
    </g>
   </g>
   <g id="line2d_40">
    <g clip-path="url(#p88fe6187e2)">
     <use style="stroke:#000000;" x="242.083895" xlink:href="#m7dd5dc730e" y="188.517374"/>
     <use style="stroke:#000000;" x="262.579762" xlink:href="#m7dd5dc730e" y="204.380275"/>
     <use style="stroke:#000000;" x="283.07563" xlink:href="#m7dd5dc730e" y="221.805687"/>
    </g>
   </g>
   <g id="line2d_41">
    <g clip-path="url(#p88fe6187e2)">
     <use style="stroke:#000000;" x="206.216126" xlink:href="#m7dd5dc730e" y="140.789032"/>
     <use style="stroke:#000000;" x="216.46406" xlink:href="#m7dd5dc730e" y="164.49122"/>
     <use style="stroke:#000000;" x="252.331829" xlink:href="#m7dd5dc730e" y="196.498046"/>
     <use style="stroke:#000000;" x="272.827696" xlink:href="#m7dd5dc730e" y="212.568547"/>
    </g>
   </g>
   <g id="line2d_42">
    <g clip-path="url(#p88fe6187e2)">
     <use style="stroke:#000000;" x="0" xlink:href="#m7dd5dc730e" y="0"/>
    </g>
   </g>
   <g id="line2d_43">
    <g clip-path="url(#p88fe6187e2)">
     <use style="stroke:#000000;" x="262.579762" xlink:href="#m7dd5dc730e" y="204.380275"/>
     <use style="stroke:#000000;" x="283.07563" xlink:href="#m7dd5dc730e" y="221.805687"/>
    </g>
   </g>
   <g id="line2d_44">
    <g clip-path="url(#p88fe6187e2)">
     <use style="stroke:#000000;" x="211.340093" xlink:href="#m7dd5dc730e" y="157.13668"/>
     <use style="stroke:#000000;" x="257.455795" xlink:href="#m7dd5dc730e" y="200.428557"/>
    </g>
   </g>
   <g id="line2d_45">
    <g clip-path="url(#p88fe6187e2)">
     <use style="stroke:#000000;" x="267.703729" xlink:href="#m7dd5dc730e" y="208.404663"/>
    </g>
   </g>
   <g id="line2d_46">
    <g clip-path="url(#p88fe6187e2)">
     <use style="stroke:#000000;" x="236.959928" xlink:href="#m7dd5dc730e" y="184.367926"/>
    </g>
   </g>
   <g id="line2d_47">
    <g clip-path="url(#p88fe6187e2)">
     <use style="stroke:#000000;" x="257.455795" xlink:href="#m7dd5dc730e" y="200.428557"/>
    </g>
   </g>
   <g id="line2d_48">
    <g clip-path="url(#p88fe6187e2)">
     <use style="stroke:#000000;" x="242.083895" xlink:href="#m7dd5dc730e" y="188.517374"/>
    </g>
   </g>
   <g id="line2d_49">
    <g clip-path="url(#p88fe6187e2)">
     <use style="stroke:#000000;" x="206.216126" xlink:href="#m7dd5dc730e" y="139.165198"/>
     <use style="stroke:#000000;" x="211.340093" xlink:href="#m7dd5dc730e" y="157.13668"/>
     <use style="stroke:#000000;" x="216.46406" xlink:href="#m7dd5dc730e" y="164.49122"/>
     <use style="stroke:#000000;" x="236.959928" xlink:href="#m7dd5dc730e" y="184.367926"/>
     <use style="stroke:#000000;" x="247.207862" xlink:href="#m7dd5dc730e" y="192.543078"/>
     <use style="stroke:#000000;" x="252.331829" xlink:href="#m7dd5dc730e" y="196.498046"/>
     <use style="stroke:#000000;" x="267.703729" xlink:href="#m7dd5dc730e" y="208.404663"/>
     <use style="stroke:#000000;" x="283.07563" xlink:href="#m7dd5dc730e" y="221.805687"/>
    </g>
   </g>
   <g id="line2d_50">
    <g clip-path="url(#p88fe6187e2)">
     <use style="stroke:#000000;" x="216.46406" xlink:href="#m7dd5dc730e" y="164.49122"/>
     <use style="stroke:#000000;" x="221.588027" xlink:href="#m7dd5dc730e" y="170.318758"/>
    </g>
   </g>
   <g id="line2d_51">
    <g clip-path="url(#p88fe6187e2)">
     <use style="stroke:#000000;" x="221.588027" xlink:href="#m7dd5dc730e" y="170.318758"/>
    </g>
   </g>
   <g id="line2d_52">
    <g clip-path="url(#p88fe6187e2)">
     <use style="stroke:#000000;" x="277.951663" xlink:href="#m7dd5dc730e" y="216.973335"/>
    </g>
   </g>
   <g id="line2d_53">
    <g clip-path="url(#p88fe6187e2)">
     <use style="stroke:#000000;" x="206.216126" xlink:href="#m7dd5dc730e" y="139.165198"/>
     <use style="stroke:#000000;" x="262.579762" xlink:href="#m7dd5dc730e" y="204.380275"/>
     <use style="stroke:#000000;" x="272.827696" xlink:href="#m7dd5dc730e" y="212.568547"/>
    </g>
   </g>
   <g id="line2d_54">
    <g clip-path="url(#p88fe6187e2)">
     <use style="stroke:#000000;" x="231.835961" xlink:href="#m7dd5dc730e" y="180.026735"/>
    </g>
   </g>
   <g id="line2d_55">
    <g clip-path="url(#p88fe6187e2)">
     <use style="stroke:#000000;" x="231.835961" xlink:href="#m7dd5dc730e" y="180.026735"/>
     <use style="stroke:#000000;" x="257.455795" xlink:href="#m7dd5dc730e" y="200.428557"/>
     <use style="stroke:#000000;" x="288.199597" xlink:href="#m7dd5dc730e" y="227.534359"/>
    </g>
   </g>
   <g id="line2d_56">
    <g clip-path="url(#p88fe6187e2)">
     <use style="stroke:#000000;" x="216.46406" xlink:href="#m7dd5dc730e" y="164.49122"/>
     <use style="stroke:#000000;" x="242.083895" xlink:href="#m7dd5dc730e" y="188.517374"/>
     <use style="stroke:#000000;" x="283.07563" xlink:href="#m7dd5dc730e" y="221.805687"/>
    </g>
   </g>
   <g id="line2d_57">
    <g clip-path="url(#p88fe6187e2)">
     <use style="stroke:#000000;" x="242.083895" xlink:href="#m7dd5dc730e" y="188.517374"/>
     <use style="stroke:#000000;" x="267.703729" xlink:href="#m7dd5dc730e" y="208.404663"/>
    </g>
   </g>
   <g id="line2d_58">
    <g clip-path="url(#p88fe6187e2)">
     <use style="stroke:#000000;" x="236.959928" xlink:href="#m7dd5dc730e" y="184.367926"/>
     <use style="stroke:#000000;" x="252.331829" xlink:href="#m7dd5dc730e" y="196.498046"/>
     <use style="stroke:#000000;" x="267.703729" xlink:href="#m7dd5dc730e" y="208.404663"/>
     <use style="stroke:#000000;" x="272.827696" xlink:href="#m7dd5dc730e" y="212.568547"/>
     <use style="stroke:#000000;" x="283.07563" xlink:href="#m7dd5dc730e" y="221.805687"/>
    </g>
   </g>
   <g id="line2d_59">
    <g clip-path="url(#p88fe6187e2)">
     <use style="stroke:#000000;" x="231.835961" xlink:href="#m7dd5dc730e" y="180.026735"/>
     <use style="stroke:#000000;" x="257.455795" xlink:href="#m7dd5dc730e" y="200.428557"/>
    </g>
   </g>
   <g id="line2d_60">
    <g clip-path="url(#p88fe6187e2)">
     <use style="stroke:#000000;" x="211.340093" xlink:href="#m7dd5dc730e" y="157.13668"/>
     <use style="stroke:#000000;" x="262.579762" xlink:href="#m7dd5dc730e" y="204.380275"/>
     <use style="stroke:#000000;" x="288.199597" xlink:href="#m7dd5dc730e" y="227.534359"/>
    </g>
   </g>
   <g id="line2d_61">
    <g clip-path="url(#p88fe6187e2)">
     <use style="stroke:#000000;" x="0" xlink:href="#m7dd5dc730e" y="0"/>
    </g>
   </g>
   <g id="line2d_62">
    <g clip-path="url(#p88fe6187e2)">
     <use style="stroke:#000000;" x="221.588027" xlink:href="#m7dd5dc730e" y="170.318758"/>
     <use style="stroke:#000000;" x="242.083895" xlink:href="#m7dd5dc730e" y="188.517374"/>
     <use style="stroke:#000000;" x="252.331829" xlink:href="#m7dd5dc730e" y="196.498046"/>
    </g>
   </g>
   <g id="line2d_63">
    <g clip-path="url(#p88fe6187e2)">
     <use style="stroke:#000000;" x="283.07563" xlink:href="#m7dd5dc730e" y="221.805687"/>
    </g>
   </g>
   <g id="line2d_64">
    <g clip-path="url(#p88fe6187e2)">
     <use style="stroke:#000000;" x="252.331829" xlink:href="#m7dd5dc730e" y="196.498046"/>
     <use style="stroke:#000000;" x="262.579762" xlink:href="#m7dd5dc730e" y="204.380275"/>
    </g>
   </g>
   <g id="line2d_65">
    <g clip-path="url(#p88fe6187e2)">
     <use style="stroke:#000000;" x="0" xlink:href="#m7dd5dc730e" y="0"/>
    </g>
   </g>
   <g id="line2d_66">
    <g clip-path="url(#p88fe6187e2)">
     <use style="stroke:#000000;" x="257.455795" xlink:href="#m7dd5dc730e" y="200.428557"/>
    </g>
   </g>
   <g id="line2d_67">
    <g clip-path="url(#p88fe6187e2)">
     <use style="stroke:#000000;" x="216.46406" xlink:href="#m7dd5dc730e" y="164.49122"/>
     <use style="stroke:#000000;" x="221.588027" xlink:href="#m7dd5dc730e" y="170.318758"/>
     <use style="stroke:#000000;" x="252.331829" xlink:href="#m7dd5dc730e" y="196.498046"/>
    </g>
   </g>
   <g id="line2d_68">
    <g clip-path="url(#p88fe6187e2)">
     <use style="stroke:#000000;" x="257.455795" xlink:href="#m7dd5dc730e" y="200.428557"/>
    </g>
   </g>
   <g id="line2d_69">
    <g clip-path="url(#p88fe6187e2)">
     <use style="stroke:#000000;" x="252.331829" xlink:href="#m7dd5dc730e" y="196.498046"/>
     <use style="stroke:#000000;" x="272.827696" xlink:href="#m7dd5dc730e" y="212.568547"/>
    </g>
   </g>
   <g id="line2d_70">
    <g clip-path="url(#p88fe6187e2)">
     <use style="stroke:#000000;" x="206.216126" xlink:href="#m7dd5dc730e" y="139.165198"/>
     <use style="stroke:#000000;" x="226.711994" xlink:href="#m7dd5dc730e" y="175.396353"/>
     <use style="stroke:#000000;" x="252.331829" xlink:href="#m7dd5dc730e" y="196.498046"/>
     <use style="stroke:#000000;" x="267.703729" xlink:href="#m7dd5dc730e" y="208.404663"/>
    </g>
   </g>
   <g id="line2d_71">
    <g clip-path="url(#p88fe6187e2)">
     <use style="stroke:#000000;" x="206.216126" xlink:href="#m7dd5dc730e" y="140.789032"/>
     <use style="stroke:#000000;" x="272.827696" xlink:href="#m7dd5dc730e" y="212.568547"/>
    </g>
   </g>
   <g id="line2d_72">
    <g clip-path="url(#p88fe6187e2)">
     <use style="stroke:#000000;" x="206.216126" xlink:href="#m7dd5dc730e" y="139.165198"/>
     <use style="stroke:#000000;" x="231.835961" xlink:href="#m7dd5dc730e" y="180.026735"/>
     <use style="stroke:#000000;" x="242.083895" xlink:href="#m7dd5dc730e" y="188.517374"/>
    </g>
   </g>
   <g id="line2d_73">
    <g clip-path="url(#p88fe6187e2)">
     <use style="stroke:#000000;" x="252.331829" xlink:href="#m7dd5dc730e" y="196.498046"/>
     <use style="stroke:#000000;" x="262.579762" xlink:href="#m7dd5dc730e" y="204.380275"/>
    </g>
   </g>
   <g id="line2d_74">
    <g clip-path="url(#p88fe6187e2)">
     <use style="stroke:#000000;" x="231.835961" xlink:href="#m7dd5dc730e" y="180.026735"/>
    </g>
   </g>
   <g id="line2d_75">
    <g clip-path="url(#p88fe6187e2)">
     <use style="stroke:#000000;" x="283.07563" xlink:href="#m7dd5dc730e" y="221.805687"/>
    </g>
   </g>
   <g id="line2d_76">
    <g clip-path="url(#p88fe6187e2)">
     <use style="stroke:#000000;" x="221.588027" xlink:href="#m7dd5dc730e" y="170.318758"/>
     <use style="stroke:#000000;" x="247.207862" xlink:href="#m7dd5dc730e" y="192.543078"/>
     <use style="stroke:#000000;" x="257.455795" xlink:href="#m7dd5dc730e" y="200.428557"/>
     <use style="stroke:#000000;" x="272.827696" xlink:href="#m7dd5dc730e" y="212.568547"/>
     <use style="stroke:#000000;" x="283.07563" xlink:href="#m7dd5dc730e" y="221.805687"/>
    </g>
   </g>
   <g id="line2d_77">
    <g clip-path="url(#p88fe6187e2)">
     <use style="stroke:#000000;" x="0" xlink:href="#m7dd5dc730e" y="0"/>
    </g>
   </g>
   <g id="line2d_78">
    <g clip-path="url(#p88fe6187e2)">
     <use style="stroke:#000000;" x="206.216126" xlink:href="#m7dd5dc730e" y="139.165198"/>
     <use style="stroke:#000000;" x="277.951663" xlink:href="#m7dd5dc730e" y="216.973335"/>
    </g>
   </g>
   <g id="line2d_79">
    <g clip-path="url(#p88fe6187e2)">
     <use style="stroke:#000000;" x="206.216126" xlink:href="#m7dd5dc730e" y="140.789032"/>
     <use style="stroke:#000000;" x="247.207862" xlink:href="#m7dd5dc730e" y="192.543078"/>
     <use style="stroke:#000000;" x="283.07563" xlink:href="#m7dd5dc730e" y="221.805687"/>
    </g>
   </g>
   <g id="line2d_80">
    <g clip-path="url(#p88fe6187e2)">
     <use style="stroke:#000000;" x="206.216126" xlink:href="#m7dd5dc730e" y="139.165198"/>
     <use style="stroke:#000000;" x="231.835961" xlink:href="#m7dd5dc730e" y="180.026735"/>
     <use style="stroke:#000000;" x="272.827696" xlink:href="#m7dd5dc730e" y="212.568547"/>
    </g>
   </g>
   <g id="line2d_81">
    <g clip-path="url(#p88fe6187e2)">
     <use style="stroke:#000000;" x="206.216126" xlink:href="#m7dd5dc730e" y="140.789032"/>
     <use style="stroke:#000000;" x="211.340093" xlink:href="#m7dd5dc730e" y="157.13668"/>
     <use style="stroke:#000000;" x="288.199597" xlink:href="#m7dd5dc730e" y="227.534359"/>
    </g>
   </g>
   <g id="line2d_82">
    <g clip-path="url(#p88fe6187e2)">
     <use style="stroke:#000000;" x="206.216126" xlink:href="#m7dd5dc730e" y="139.165198"/>
     <use style="stroke:#000000;" x="216.46406" xlink:href="#m7dd5dc730e" y="164.49122"/>
     <use style="stroke:#000000;" x="247.207862" xlink:href="#m7dd5dc730e" y="192.543078"/>
     <use style="stroke:#000000;" x="288.199597" xlink:href="#m7dd5dc730e" y="227.534359"/>
    </g>
   </g>
   <g id="line2d_83">
    <g clip-path="url(#p88fe6187e2)">
     <use style="stroke:#000000;" x="211.340093" xlink:href="#m7dd5dc730e" y="157.13668"/>
     <use style="stroke:#000000;" x="262.579762" xlink:href="#m7dd5dc730e" y="204.380275"/>
     <use style="stroke:#000000;" x="272.827696" xlink:href="#m7dd5dc730e" y="212.568547"/>
    </g>
   </g>
   <g id="line2d_84">
    <g clip-path="url(#p88fe6187e2)">
     <use style="stroke:#000000;" x="0" xlink:href="#m7dd5dc730e" y="0"/>
    </g>
   </g>
   <g id="line2d_85">
    <g clip-path="url(#p88fe6187e2)">
     <use style="stroke:#000000;" x="0" xlink:href="#m7dd5dc730e" y="0"/>
    </g>
   </g>
   <g id="line2d_86">
    <g clip-path="url(#p88fe6187e2)">
     <use style="stroke:#000000;" x="0" xlink:href="#m7dd5dc730e" y="0"/>
    </g>
   </g>
   <g id="line2d_87">
    <g clip-path="url(#p88fe6187e2)">
     <use style="stroke:#000000;" x="206.216126" xlink:href="#m7dd5dc730e" y="139.165198"/>
     <use style="stroke:#000000;" x="257.455795" xlink:href="#m7dd5dc730e" y="200.428557"/>
     <use style="stroke:#000000;" x="277.951663" xlink:href="#m7dd5dc730e" y="216.973335"/>
     <use style="stroke:#000000;" x="283.07563" xlink:href="#m7dd5dc730e" y="221.805687"/>
    </g>
   </g>
   <g id="line2d_88">
    <g clip-path="url(#p88fe6187e2)">
     <use style="stroke:#000000;" x="0" xlink:href="#m7dd5dc730e" y="0"/>
    </g>
   </g>
   <g id="line2d_89">
    <g clip-path="url(#p88fe6187e2)">
     <use style="stroke:#000000;" x="206.216126" xlink:href="#m7dd5dc730e" y="139.165198"/>
     <use style="stroke:#000000;" x="272.827696" xlink:href="#m7dd5dc730e" y="212.568547"/>
    </g>
   </g>
   <g id="line2d_90">
    <g clip-path="url(#p88fe6187e2)">
     <use style="stroke:#000000;" x="221.588027" xlink:href="#m7dd5dc730e" y="170.318758"/>
     <use style="stroke:#000000;" x="231.835961" xlink:href="#m7dd5dc730e" y="180.026735"/>
     <use style="stroke:#000000;" x="247.207862" xlink:href="#m7dd5dc730e" y="192.543078"/>
    </g>
   </g>
   <g id="line2d_91">
    <g clip-path="url(#p88fe6187e2)">
     <use style="stroke:#000000;" x="216.46406" xlink:href="#m7dd5dc730e" y="164.49122"/>
     <use style="stroke:#000000;" x="221.588027" xlink:href="#m7dd5dc730e" y="170.318758"/>
     <use style="stroke:#000000;" x="247.207862" xlink:href="#m7dd5dc730e" y="192.543078"/>
    </g>
   </g>
   <g id="line2d_92">
    <g clip-path="url(#p88fe6187e2)">
     <use style="stroke:#000000;" x="221.588027" xlink:href="#m7dd5dc730e" y="170.318758"/>
     <use style="stroke:#000000;" x="247.207862" xlink:href="#m7dd5dc730e" y="192.543078"/>
     <use style="stroke:#000000;" x="272.827696" xlink:href="#m7dd5dc730e" y="212.568547"/>
    </g>
   </g>
   <g id="line2d_93">
    <g clip-path="url(#p88fe6187e2)">
     <use style="stroke:#000000;" x="267.703729" xlink:href="#m7dd5dc730e" y="208.404663"/>
    </g>
   </g>
   <g id="line2d_94">
    <g clip-path="url(#p88fe6187e2)">
     <use style="stroke:#000000;" x="211.340093" xlink:href="#m7dd5dc730e" y="157.13668"/>
     <use style="stroke:#000000;" x="226.711994" xlink:href="#m7dd5dc730e" y="175.396353"/>
     <use style="stroke:#000000;" x="236.959928" xlink:href="#m7dd5dc730e" y="184.367926"/>
     <use style="stroke:#000000;" x="257.455795" xlink:href="#m7dd5dc730e" y="200.428557"/>
     <use style="stroke:#000000;" x="277.951663" xlink:href="#m7dd5dc730e" y="216.973335"/>
     <use style="stroke:#000000;" x="288.199597" xlink:href="#m7dd5dc730e" y="227.534359"/>
    </g>
   </g>
   <g id="line2d_95">
    <g clip-path="url(#p88fe6187e2)">
     <use style="stroke:#000000;" x="221.588027" xlink:href="#m7dd5dc730e" y="170.318758"/>
     <use style="stroke:#000000;" x="257.455795" xlink:href="#m7dd5dc730e" y="200.428557"/>
    </g>
   </g>
   <g id="line2d_96">
    <g clip-path="url(#p88fe6187e2)">
     <use style="stroke:#000000;" x="206.216126" xlink:href="#m7dd5dc730e" y="140.789032"/>
     <use style="stroke:#000000;" x="226.711994" xlink:href="#m7dd5dc730e" y="175.396353"/>
     <use style="stroke:#000000;" x="247.207862" xlink:href="#m7dd5dc730e" y="192.543078"/>
     <use style="stroke:#000000;" x="288.199597" xlink:href="#m7dd5dc730e" y="227.534359"/>
    </g>
   </g>
   <g id="line2d_97">
    <g clip-path="url(#p88fe6187e2)">
     <use style="stroke:#000000;" x="206.216126" xlink:href="#m7dd5dc730e" y="139.165198"/>
     <use style="stroke:#000000;" x="242.083895" xlink:href="#m7dd5dc730e" y="188.517374"/>
     <use style="stroke:#000000;" x="272.827696" xlink:href="#m7dd5dc730e" y="212.568547"/>
    </g>
   </g>
   <g id="line2d_98">
    <g clip-path="url(#p88fe6187e2)">
     <use style="stroke:#000000;" x="206.216126" xlink:href="#m7dd5dc730e" y="139.165198"/>
     <use style="stroke:#000000;" x="267.703729" xlink:href="#m7dd5dc730e" y="208.404663"/>
     <use style="stroke:#000000;" x="288.199597" xlink:href="#m7dd5dc730e" y="227.534359"/>
    </g>
   </g>
   <g id="line2d_99">
    <g clip-path="url(#p88fe6187e2)">
     <use style="stroke:#000000;" x="206.216126" xlink:href="#m7dd5dc730e" y="139.165198"/>
     <use style="stroke:#000000;" x="221.588027" xlink:href="#m7dd5dc730e" y="170.318758"/>
     <use style="stroke:#000000;" x="247.207862" xlink:href="#m7dd5dc730e" y="192.543078"/>
     <use style="stroke:#000000;" x="262.579762" xlink:href="#m7dd5dc730e" y="204.380275"/>
     <use style="stroke:#000000;" x="267.703729" xlink:href="#m7dd5dc730e" y="208.404663"/>
     <use style="stroke:#000000;" x="277.951663" xlink:href="#m7dd5dc730e" y="216.973335"/>
    </g>
   </g>
   <g id="line2d_100">
    <g clip-path="url(#p88fe6187e2)">
     <use style="stroke:#000000;" x="0" xlink:href="#m7dd5dc730e" y="0"/>
    </g>
   </g>
   <g id="line2d_101">
    <g clip-path="url(#p88fe6187e2)">
     <use style="stroke:#000000;" x="226.711994" xlink:href="#m7dd5dc730e" y="175.396353"/>
     <use style="stroke:#000000;" x="267.703729" xlink:href="#m7dd5dc730e" y="208.404663"/>
     <use style="stroke:#000000;" x="283.07563" xlink:href="#m7dd5dc730e" y="221.805687"/>
    </g>
   </g>
   <g id="line2d_102">
    <g clip-path="url(#p88fe6187e2)">
     <use style="stroke:#000000;" x="0" xlink:href="#m7dd5dc730e" y="0"/>
    </g>
   </g>
   <g id="line2d_103">
    <g clip-path="url(#p88fe6187e2)">
     <use style="stroke:#000000;" x="206.216126" xlink:href="#m7dd5dc730e" y="139.165198"/>
     <use style="stroke:#000000;" x="262.579762" xlink:href="#m7dd5dc730e" y="204.380275"/>
    </g>
   </g>
   <g id="line2d_104">
    <g clip-path="url(#p88fe6187e2)">
     <use style="stroke:#000000;" x="206.216126" xlink:href="#m7dd5dc730e" y="140.789032"/>
     <use style="stroke:#000000;" x="257.455795" xlink:href="#m7dd5dc730e" y="200.428557"/>
     <use style="stroke:#000000;" x="262.579762" xlink:href="#m7dd5dc730e" y="204.380275"/>
     <use style="stroke:#000000;" x="283.07563" xlink:href="#m7dd5dc730e" y="221.805687"/>
    </g>
   </g>
   <g id="line2d_105">
    <g clip-path="url(#p88fe6187e2)">
     <use style="stroke:#000000;" x="277.951663" xlink:href="#m7dd5dc730e" y="216.973335"/>
    </g>
   </g>
   <g id="line2d_106">
    <g clip-path="url(#p88fe6187e2)">
     <use style="stroke:#000000;" x="231.835961" xlink:href="#m7dd5dc730e" y="180.026735"/>
     <use style="stroke:#000000;" x="242.083895" xlink:href="#m7dd5dc730e" y="188.517374"/>
     <use style="stroke:#000000;" x="267.703729" xlink:href="#m7dd5dc730e" y="208.404663"/>
    </g>
   </g>
   <g id="line2d_107">
    <g clip-path="url(#p88fe6187e2)">
     <use style="stroke:#000000;" x="236.959928" xlink:href="#m7dd5dc730e" y="184.367926"/>
    </g>
   </g>
   <g id="line2d_108">
    <g clip-path="url(#p88fe6187e2)">
     <use style="stroke:#000000;" x="226.711994" xlink:href="#m7dd5dc730e" y="175.396353"/>
    </g>
   </g>
   <g id="line2d_109">
    <g clip-path="url(#p88fe6187e2)">
     <use style="stroke:#000000;" x="0" xlink:href="#m7dd5dc730e" y="0"/>
    </g>
   </g>
   <g id="line2d_110">
    <g clip-path="url(#p88fe6187e2)">
     <use style="stroke:#000000;" x="216.46406" xlink:href="#m7dd5dc730e" y="164.49122"/>
     <use style="stroke:#000000;" x="226.711994" xlink:href="#m7dd5dc730e" y="175.396353"/>
     <use style="stroke:#000000;" x="231.835961" xlink:href="#m7dd5dc730e" y="180.026735"/>
     <use style="stroke:#000000;" x="236.959928" xlink:href="#m7dd5dc730e" y="184.367926"/>
     <use style="stroke:#000000;" x="262.579762" xlink:href="#m7dd5dc730e" y="204.380275"/>
    </g>
   </g>
   <g id="line2d_111">
    <g clip-path="url(#p88fe6187e2)">
     <use style="stroke:#000000;" x="0" xlink:href="#m7dd5dc730e" y="0"/>
    </g>
   </g>
   <g id="line2d_112">
    <g clip-path="url(#p88fe6187e2)">
     <use style="stroke:#000000;" x="211.340093" xlink:href="#m7dd5dc730e" y="157.13668"/>
     <use style="stroke:#000000;" x="221.588027" xlink:href="#m7dd5dc730e" y="170.318758"/>
     <use style="stroke:#000000;" x="247.207862" xlink:href="#m7dd5dc730e" y="192.543078"/>
     <use style="stroke:#000000;" x="257.455795" xlink:href="#m7dd5dc730e" y="200.428557"/>
     <use style="stroke:#000000;" x="283.07563" xlink:href="#m7dd5dc730e" y="221.805687"/>
    </g>
   </g>
   <g id="line2d_113">
    <g clip-path="url(#p88fe6187e2)">
     <use style="stroke:#000000;" x="206.216126" xlink:href="#m7dd5dc730e" y="139.165198"/>
     <use style="stroke:#000000;" x="211.340093" xlink:href="#m7dd5dc730e" y="157.13668"/>
     <use style="stroke:#000000;" x="247.207862" xlink:href="#m7dd5dc730e" y="192.543078"/>
     <use style="stroke:#000000;" x="257.455795" xlink:href="#m7dd5dc730e" y="200.428557"/>
     <use style="stroke:#000000;" x="267.703729" xlink:href="#m7dd5dc730e" y="208.404663"/>
     <use style="stroke:#000000;" x="288.199597" xlink:href="#m7dd5dc730e" y="227.534359"/>
    </g>
   </g>
   <g id="line2d_114">
    <path clip-path="url(#p88fe6187e2)" d="M 88.364886 265.888216 
L 93.488853 265.835764 
L 98.61282 265.779556 
L 103.736787 265.719306 
L 108.860754 265.654701 
L 113.984721 265.585402 
L 119.108688 265.51104 
L 124.232655 265.431213 
L 129.356622 265.34548 
L 134.480589 265.253359 
L 139.604556 265.154323 
L 144.728523 265.047791 
L 149.85249 264.933126 
L 154.976457 264.809621 
L 160.100424 264.676498 
L 165.22439 264.53289 
L 170.348357 264.377834 
L 175.472324 264.210253 
L 180.596291 264.028941 
L 185.720258 263.832538 
L 190.844225 263.619507 
L 195.968192 263.3881 
L 201.092159 263.13632 
L 206.216126 262.861869 
L 211.340093 262.562082 
L 216.46406 262.233852 
L 221.588027 261.873514 
L 226.711994 261.476705 
L 231.835961 261.038172 
L 236.959928 260.551497 
L 242.083895 260.008714 
L 247.207862 259.399748 
L 252.331829 258.711549 
L 257.455795 257.926732 
L 262.579762 257.021284 
L 267.703729 255.960436 
L 272.827696 254.69053 
L 277.951663 253.120743 
L 283.07563 251.073063 
L 288.199597 248.085889 
L 293.323564 239.960659 
" style="fill:none;stroke:#000000;stroke-linecap:square;stroke-width:1.5;"/>
   </g>
   <g id="patch_3">
    <path d="M 63.00125 279 
L 63.00125 7.2 
" style="fill:none;stroke:#000000;stroke-linecap:square;stroke-linejoin:miter;stroke-width:0.8;"/>
   </g>
   <g id="patch_4">
    <path d="M 621.00125 279 
L 621.00125 7.2 
" style="fill:none;stroke:#000000;stroke-linecap:square;stroke-linejoin:miter;stroke-width:0.8;"/>
   </g>
   <g id="patch_5">
    <path d="M 63.00125 279 
L 621.00125 279 
" style="fill:none;stroke:#000000;stroke-linecap:square;stroke-linejoin:miter;stroke-width:0.8;"/>
   </g>
   <g id="patch_6">
    <path d="M 63.00125 7.2 
L 621.00125 7.2 
" style="fill:none;stroke:#000000;stroke-linecap:square;stroke-linejoin:miter;stroke-width:0.8;"/>
   </g>
   <g id="text_15">
    <!-- $B_e$=5 -->
    <defs>
     <path d="M 16.890625 72.90625 
L 42.09375 72.90625 
Q 52.34375 72.90625 57.421875 69.09375 
Q 62.5 65.28125 62.5 57.625 
Q 62.5 50.59375 58.125 45.484375 
Q 53.765625 40.375 46.6875 39.3125 
Q 52.734375 37.9375 55.765625 34.078125 
Q 58.796875 30.21875 58.796875 23.78125 
Q 58.796875 12.796875 50.65625 6.390625 
Q 42.53125 0 28.421875 0 
L 2.6875 0 
z
M 19.28125 34.8125 
L 14.109375 8.109375 
L 29.984375 8.109375 
Q 38.921875 8.109375 43.75 12.203125 
Q 48.578125 16.3125 48.578125 23.78125 
Q 48.578125 29.546875 45.375 32.171875 
Q 42.1875 34.8125 35.109375 34.8125 
z
M 25.09375 64.796875 
L 20.796875 42.828125 
L 35.5 42.828125 
Q 43.359375 42.828125 47.78125 46.234375 
Q 52.203125 49.65625 52.203125 55.71875 
Q 52.203125 60.453125 49.21875 62.625 
Q 46.234375 64.796875 39.703125 64.796875 
z
" id="DejaVuSans-Oblique-66"/>
     <path d="M 10.59375 45.40625 
L 73.1875 45.40625 
L 73.1875 37.203125 
L 10.59375 37.203125 
z
M 10.59375 25.484375 
L 73.1875 25.484375 
L 73.1875 17.1875 
L 10.59375 17.1875 
z
" id="DejaVuSans-61"/>
    </defs>
    <g transform="translate(88.364886 19.554545)scale(0.14 -0.14)">
     <use transform="translate(0 0.09375)" xlink:href="#DejaVuSans-Oblique-66"/>
     <use transform="translate(68.603516 -16.3125)scale(0.7)" xlink:href="#DejaVuSans-Oblique-101"/>
     <use transform="translate(114.404297 0.09375)" xlink:href="#DejaVuSans-61"/>
     <use transform="translate(198.193359 0.09375)" xlink:href="#DejaVuSans-53"/>
    </g>
   </g>
   <g id="text_16">
    <!-- $B_e$=4 -->
    <g transform="translate(190.844225 19.554545)scale(0.14 -0.14)">
     <use transform="translate(0 0.09375)" xlink:href="#DejaVuSans-Oblique-66"/>
     <use transform="translate(68.603516 -16.3125)scale(0.7)" xlink:href="#DejaVuSans-Oblique-101"/>
     <use transform="translate(114.404297 0.09375)" xlink:href="#DejaVuSans-61"/>
     <use transform="translate(198.193359 0.09375)" xlink:href="#DejaVuSans-52"/>
    </g>
   </g>
   <g id="text_17">
    <!-- $B_e$=3 -->
    <g transform="translate(293.323564 19.554545)scale(0.14 -0.14)">
     <use transform="translate(0 0.78125)" xlink:href="#DejaVuSans-Oblique-66"/>
     <use transform="translate(68.603516 -15.625)scale(0.7)" xlink:href="#DejaVuSans-Oblique-101"/>
     <use transform="translate(114.404297 0.78125)" xlink:href="#DejaVuSans-61"/>
     <use transform="translate(198.193359 0.78125)" xlink:href="#DejaVuSans-51"/>
    </g>
   </g>
   <g id="legend_1">
    <g id="patch_7">
     <path d="M 501.20225 271.8 
L 610.92125 271.8 
Q 613.80125 271.8 613.80125 268.92 
L 613.80125 206.9505 
Q 613.80125 204.0705 610.92125 204.0705 
L 501.20225 204.0705 
Q 498.32225 204.0705 498.32225 206.9505 
L 498.32225 268.92 
Q 498.32225 271.8 501.20225 271.8 
z
" style="fill:#ffffff;opacity:0.8;stroke:#cccccc;stroke-linejoin:miter;"/>
    </g>
    <g id="text_18">
     <!-- Equilibrium -->
     <defs>
      <path d="M 9.8125 72.90625 
L 55.90625 72.90625 
L 55.90625 64.59375 
L 19.671875 64.59375 
L 19.671875 43.015625 
L 54.390625 43.015625 
L 54.390625 34.71875 
L 19.671875 34.71875 
L 19.671875 8.296875 
L 56.78125 8.296875 
L 56.78125 0 
L 9.8125 0 
z
" id="DejaVuSans-69"/>
      <path d="M 14.796875 27.296875 
Q 14.796875 17.390625 18.875 11.75 
Q 22.953125 6.109375 30.078125 6.109375 
Q 37.203125 6.109375 41.296875 11.75 
Q 45.40625 17.390625 45.40625 27.296875 
Q 45.40625 37.203125 41.296875 42.84375 
Q 37.203125 48.484375 30.078125 48.484375 
Q 22.953125 48.484375 18.875 42.84375 
Q 14.796875 37.203125 14.796875 27.296875 
z
M 45.40625 8.203125 
Q 42.578125 3.328125 38.25 0.953125 
Q 33.9375 -1.421875 27.875 -1.421875 
Q 17.96875 -1.421875 11.734375 6.484375 
Q 5.515625 14.40625 5.515625 27.296875 
Q 5.515625 40.1875 11.734375 48.09375 
Q 17.96875 56 27.875 56 
Q 33.9375 56 38.25 53.625 
Q 42.578125 51.265625 45.40625 46.390625 
L 45.40625 54.6875 
L 54.390625 54.6875 
L 54.390625 -20.796875 
L 45.40625 -20.796875 
z
" id="DejaVuSans-113"/>
      <path d="M 9.421875 54.6875 
L 18.40625 54.6875 
L 18.40625 0 
L 9.421875 0 
z
M 9.421875 75.984375 
L 18.40625 75.984375 
L 18.40625 64.59375 
L 9.421875 64.59375 
z
" id="DejaVuSans-105"/>
      <path d="M 9.421875 75.984375 
L 18.40625 75.984375 
L 18.40625 0 
L 9.421875 0 
z
" id="DejaVuSans-108"/>
      <path d="M 48.6875 27.296875 
Q 48.6875 37.203125 44.609375 42.84375 
Q 40.53125 48.484375 33.40625 48.484375 
Q 26.265625 48.484375 22.1875 42.84375 
Q 18.109375 37.203125 18.109375 27.296875 
Q 18.109375 17.390625 22.1875 11.75 
Q 26.265625 6.109375 33.40625 6.109375 
Q 40.53125 6.109375 44.609375 11.75 
Q 48.6875 17.390625 48.6875 27.296875 
z
M 18.109375 46.390625 
Q 20.953125 51.265625 25.265625 53.625 
Q 29.59375 56 35.59375 56 
Q 45.5625 56 51.78125 48.09375 
Q 58.015625 40.1875 58.015625 27.296875 
Q 58.015625 14.40625 51.78125 6.484375 
Q 45.5625 -1.421875 35.59375 -1.421875 
Q 29.59375 -1.421875 25.265625 0.953125 
Q 20.953125 3.328125 18.109375 8.203125 
L 18.109375 0 
L 9.078125 0 
L 9.078125 75.984375 
L 18.109375 75.984375 
z
" id="DejaVuSans-98"/>
      <path d="M 41.109375 46.296875 
Q 39.59375 47.171875 37.8125 47.578125 
Q 36.03125 48 33.890625 48 
Q 26.265625 48 22.1875 43.046875 
Q 18.109375 38.09375 18.109375 28.8125 
L 18.109375 0 
L 9.078125 0 
L 9.078125 54.6875 
L 18.109375 54.6875 
L 18.109375 46.1875 
Q 20.953125 51.171875 25.484375 53.578125 
Q 30.03125 56 36.53125 56 
Q 37.453125 56 38.578125 55.875 
Q 39.703125 55.765625 41.0625 55.515625 
z
" id="DejaVuSans-114"/>
     </defs>
     <g transform="translate(515.270375 220.77225)scale(0.144 -0.144)">
      <use xlink:href="#DejaVuSans-69"/>
      <use x="63.183594" xlink:href="#DejaVuSans-113"/>
      <use x="126.660156" xlink:href="#DejaVuSans-117"/>
      <use x="190.039062" xlink:href="#DejaVuSans-105"/>
      <use x="217.822266" xlink:href="#DejaVuSans-108"/>
      <use x="245.605469" xlink:href="#DejaVuSans-105"/>
      <use x="273.388672" xlink:href="#DejaVuSans-98"/>
      <use x="336.865234" xlink:href="#DejaVuSans-114"/>
      <use x="377.978516" xlink:href="#DejaVuSans-105"/>
      <use x="405.761719" xlink:href="#DejaVuSans-117"/>
      <use x="469.140625" xlink:href="#DejaVuSans-109"/>
     </g>
    </g>
    <g id="line2d_115">
     <path d="M 504.08225 236.86875 
L 532.88225 236.86875 
" style="fill:none;stroke:#000000;stroke-linecap:square;stroke-width:1.5;"/>
    </g>
    <g id="line2d_116"/>
    <g id="text_19">
     <!-- Stable -->
     <defs>
      <path d="M 53.515625 70.515625 
L 53.515625 60.890625 
Q 47.90625 63.578125 42.921875 64.890625 
Q 37.9375 66.21875 33.296875 66.21875 
Q 25.25 66.21875 20.875 63.09375 
Q 16.5 59.96875 16.5 54.203125 
Q 16.5 49.359375 19.40625 46.890625 
Q 22.3125 44.4375 30.421875 42.921875 
L 36.375 41.703125 
Q 47.40625 39.59375 52.65625 34.296875 
Q 57.90625 29 57.90625 20.125 
Q 57.90625 9.515625 50.796875 4.046875 
Q 43.703125 -1.421875 29.984375 -1.421875 
Q 24.8125 -1.421875 18.96875 -0.25 
Q 13.140625 0.921875 6.890625 3.21875 
L 6.890625 13.375 
Q 12.890625 10.015625 18.65625 8.296875 
Q 24.421875 6.59375 29.984375 6.59375 
Q 38.421875 6.59375 43.015625 9.90625 
Q 47.609375 13.234375 47.609375 19.390625 
Q 47.609375 24.75 44.3125 27.78125 
Q 41.015625 30.8125 33.5 32.328125 
L 27.484375 33.5 
Q 16.453125 35.6875 11.515625 40.375 
Q 6.59375 45.0625 6.59375 53.421875 
Q 6.59375 63.09375 13.40625 68.65625 
Q 20.21875 74.21875 32.171875 74.21875 
Q 37.3125 74.21875 42.625 73.28125 
Q 47.953125 72.359375 53.515625 70.515625 
z
" id="DejaVuSans-83"/>
      <path d="M 18.3125 70.21875 
L 18.3125 54.6875 
L 36.8125 54.6875 
L 36.8125 47.703125 
L 18.3125 47.703125 
L 18.3125 18.015625 
Q 18.3125 11.328125 20.140625 9.421875 
Q 21.96875 7.515625 27.59375 7.515625 
L 36.8125 7.515625 
L 36.8125 0 
L 27.59375 0 
Q 17.1875 0 13.234375 3.875 
Q 9.28125 7.765625 9.28125 18.015625 
L 9.28125 47.703125 
L 2.6875 47.703125 
L 2.6875 54.6875 
L 9.28125 54.6875 
L 9.28125 70.21875 
z
" id="DejaVuSans-116"/>
      <path d="M 56.203125 29.59375 
L 56.203125 25.203125 
L 14.890625 25.203125 
Q 15.484375 15.921875 20.484375 11.0625 
Q 25.484375 6.203125 34.421875 6.203125 
Q 39.59375 6.203125 44.453125 7.46875 
Q 49.3125 8.734375 54.109375 11.28125 
L 54.109375 2.78125 
Q 49.265625 0.734375 44.1875 -0.34375 
Q 39.109375 -1.421875 33.890625 -1.421875 
Q 20.796875 -1.421875 13.15625 6.1875 
Q 5.515625 13.8125 5.515625 26.8125 
Q 5.515625 40.234375 12.765625 48.109375 
Q 20.015625 56 32.328125 56 
Q 43.359375 56 49.78125 48.890625 
Q 56.203125 41.796875 56.203125 29.59375 
z
M 47.21875 32.234375 
Q 47.125 39.59375 43.09375 43.984375 
Q 39.0625 48.390625 32.421875 48.390625 
Q 24.90625 48.390625 20.390625 44.140625 
Q 15.875 39.890625 15.1875 32.171875 
z
" id="DejaVuSans-101"/>
     </defs>
     <g transform="translate(544.40225 241.90875)scale(0.144 -0.144)">
      <use xlink:href="#DejaVuSans-83"/>
      <use x="63.476562" xlink:href="#DejaVuSans-116"/>
      <use x="102.685547" xlink:href="#DejaVuSans-97"/>
      <use x="163.964844" xlink:href="#DejaVuSans-98"/>
      <use x="227.441406" xlink:href="#DejaVuSans-108"/>
      <use x="255.224609" xlink:href="#DejaVuSans-101"/>
     </g>
    </g>
    <g id="line2d_117"/>
    <g id="line2d_118">
     <g>
      <use style="stroke:#000000;" x="518.48225" xlink:href="#m7dd5dc730e" y="258.00525"/>
     </g>
    </g>
    <g id="text_20">
     <!-- Unstable -->
     <defs>
      <path d="M 8.6875 72.90625 
L 18.609375 72.90625 
L 18.609375 28.609375 
Q 18.609375 16.890625 22.84375 11.734375 
Q 27.09375 6.59375 36.625 6.59375 
Q 46.09375 6.59375 50.34375 11.734375 
Q 54.59375 16.890625 54.59375 28.609375 
L 54.59375 72.90625 
L 64.5 72.90625 
L 64.5 27.390625 
Q 64.5 13.140625 57.4375 5.859375 
Q 50.390625 -1.421875 36.625 -1.421875 
Q 22.796875 -1.421875 15.734375 5.859375 
Q 8.6875 13.140625 8.6875 27.390625 
z
" id="DejaVuSans-85"/>
      <path d="M 54.890625 33.015625 
L 54.890625 0 
L 45.90625 0 
L 45.90625 32.71875 
Q 45.90625 40.484375 42.875 44.328125 
Q 39.84375 48.1875 33.796875 48.1875 
Q 26.515625 48.1875 22.3125 43.546875 
Q 18.109375 38.921875 18.109375 30.90625 
L 18.109375 0 
L 9.078125 0 
L 9.078125 54.6875 
L 18.109375 54.6875 
L 18.109375 46.1875 
Q 21.34375 51.125 25.703125 53.5625 
Q 30.078125 56 35.796875 56 
Q 45.21875 56 50.046875 50.171875 
Q 54.890625 44.34375 54.890625 33.015625 
z
" id="DejaVuSans-110"/>
      <path d="M 44.28125 53.078125 
L 44.28125 44.578125 
Q 40.484375 46.53125 36.375 47.5 
Q 32.28125 48.484375 27.875 48.484375 
Q 21.1875 48.484375 17.84375 46.4375 
Q 14.5 44.390625 14.5 40.28125 
Q 14.5 37.15625 16.890625 35.375 
Q 19.28125 33.59375 26.515625 31.984375 
L 29.59375 31.296875 
Q 39.15625 29.25 43.1875 25.515625 
Q 47.21875 21.78125 47.21875 15.09375 
Q 47.21875 7.46875 41.1875 3.015625 
Q 35.15625 -1.421875 24.609375 -1.421875 
Q 20.21875 -1.421875 15.453125 -0.5625 
Q 10.6875 0.296875 5.421875 2 
L 5.421875 11.28125 
Q 10.40625 8.6875 15.234375 7.390625 
Q 20.0625 6.109375 24.8125 6.109375 
Q 31.15625 6.109375 34.5625 8.28125 
Q 37.984375 10.453125 37.984375 14.40625 
Q 37.984375 18.0625 35.515625 20.015625 
Q 33.0625 21.96875 24.703125 23.78125 
L 21.578125 24.515625 
Q 13.234375 26.265625 9.515625 29.90625 
Q 5.8125 33.546875 5.8125 39.890625 
Q 5.8125 47.609375 11.28125 51.796875 
Q 16.75 56 26.8125 56 
Q 31.78125 56 36.171875 55.265625 
Q 40.578125 54.546875 44.28125 53.078125 
z
" id="DejaVuSans-115"/>
     </defs>
     <g transform="translate(544.40225 263.04525)scale(0.144 -0.144)">
      <use xlink:href="#DejaVuSans-85"/>
      <use x="73.193359" xlink:href="#DejaVuSans-110"/>
      <use x="136.572266" xlink:href="#DejaVuSans-115"/>
      <use x="188.671875" xlink:href="#DejaVuSans-116"/>
      <use x="227.880859" xlink:href="#DejaVuSans-97"/>
      <use x="289.160156" xlink:href="#DejaVuSans-98"/>
      <use x="352.636719" xlink:href="#DejaVuSans-108"/>
      <use x="380.419922" xlink:href="#DejaVuSans-101"/>
     </g>
    </g>
   </g>
  </g>
 </g>
 <defs>
  <clipPath id="p88fe6187e2">
   <rect height="271.8" width="558" x="63.00125" y="7.2"/>
  </clipPath>
 </defs>
</svg>
