<?xml version="1.0" encoding="utf-8" standalone="no"?>
<!DOCTYPE svg PUBLIC "-//W3C//DTD SVG 1.1//EN"
  "http://www.w3.org/Graphics/SVG/1.1/DTD/svg11.dtd">
<!-- Created with matplotlib (https://matplotlib.org/) -->
<svg height="332.085pt" version="1.1" viewBox="0 0 628.20125 332.085" width="628.20125pt" xmlns="http://www.w3.org/2000/svg" xmlns:xlink="http://www.w3.org/1999/xlink">
 <defs>
  <style type="text/css">
*{stroke-linecap:butt;stroke-linejoin:round;}
  </style>
 </defs>
 <g id="figure_1">
  <g id="patch_1">
   <path d="M 0 332.085 
L 628.20125 332.085 
L 628.20125 0 
L 0 0 
z
" style="fill:none;"/>
  </g>
  <g id="axes_1">
   <g id="patch_2">
    <path d="M 63.00125 279 
L 621.00125 279 
L 621.00125 7.2 
L 63.00125 7.2 
z
" style="fill:#ffffff;"/>
   </g>
   <g id="matplotlib.axis_1">
    <g id="xtick_1">
     <g id="line2d_1">
      <defs>
       <path d="M 0 0 
L 0 3.5 
" id="mf57fdcc246" style="stroke:#000000;stroke-width:0.8;"/>
      </defs>
      <g>
       <use style="stroke:#000000;stroke-width:0.8;" x="88.660961" xlink:href="#mf57fdcc246" y="279"/>
      </g>
     </g>
     <g id="text_1">
      <!-- 0 -->
      <defs>
       <path d="M 31.78125 66.40625 
Q 24.171875 66.40625 20.328125 58.90625 
Q 16.5 51.421875 16.5 36.375 
Q 16.5 21.390625 20.328125 13.890625 
Q 24.171875 6.390625 31.78125 6.390625 
Q 39.453125 6.390625 43.28125 13.890625 
Q 47.125 21.390625 47.125 36.375 
Q 47.125 51.421875 43.28125 58.90625 
Q 39.453125 66.40625 31.78125 66.40625 
z
M 31.78125 74.21875 
Q 44.046875 74.21875 50.515625 64.515625 
Q 56.984375 54.828125 56.984375 36.375 
Q 56.984375 17.96875 50.515625 8.265625 
Q 44.046875 -1.421875 31.78125 -1.421875 
Q 19.53125 -1.421875 13.0625 8.265625 
Q 6.59375 17.96875 6.59375 36.375 
Q 6.59375 54.828125 13.0625 64.515625 
Q 19.53125 74.21875 31.78125 74.21875 
z
" id="DejaVuSans-48"/>
      </defs>
      <g transform="translate(83.570961 298.1575)scale(0.16 -0.16)">
       <use xlink:href="#DejaVuSans-48"/>
      </g>
     </g>
    </g>
    <g id="xtick_2">
     <g id="line2d_2">
      <g>
       <use style="stroke:#000000;stroke-width:0.8;" x="191.080487" xlink:href="#mf57fdcc246" y="279"/>
      </g>
     </g>
     <g id="text_2">
      <!-- 1 -->
      <defs>
       <path d="M 12.40625 8.296875 
L 28.515625 8.296875 
L 28.515625 63.921875 
L 10.984375 60.40625 
L 10.984375 69.390625 
L 28.421875 72.90625 
L 38.28125 72.90625 
L 38.28125 8.296875 
L 54.390625 8.296875 
L 54.390625 0 
L 12.40625 0 
z
" id="DejaVuSans-49"/>
      </defs>
      <g transform="translate(185.990487 298.1575)scale(0.16 -0.16)">
       <use xlink:href="#DejaVuSans-49"/>
      </g>
     </g>
    </g>
    <g id="xtick_3">
     <g id="line2d_3">
      <g>
       <use style="stroke:#000000;stroke-width:0.8;" x="293.500013" xlink:href="#mf57fdcc246" y="279"/>
      </g>
     </g>
     <g id="text_3">
      <!-- 2 -->
      <defs>
       <path d="M 19.1875 8.296875 
L 53.609375 8.296875 
L 53.609375 0 
L 7.328125 0 
L 7.328125 8.296875 
Q 12.9375 14.109375 22.625 23.890625 
Q 32.328125 33.6875 34.8125 36.53125 
Q 39.546875 41.84375 41.421875 45.53125 
Q 43.3125 49.21875 43.3125 52.78125 
Q 43.3125 58.59375 39.234375 62.25 
Q 35.15625 65.921875 28.609375 65.921875 
Q 23.96875 65.921875 18.8125 64.3125 
Q 13.671875 62.703125 7.8125 59.421875 
L 7.8125 69.390625 
Q 13.765625 71.78125 18.9375 73 
Q 24.125 74.21875 28.421875 74.21875 
Q 39.75 74.21875 46.484375 68.546875 
Q 53.21875 62.890625 53.21875 53.421875 
Q 53.21875 48.921875 51.53125 44.890625 
Q 49.859375 40.875 45.40625 35.40625 
Q 44.1875 33.984375 37.640625 27.21875 
Q 31.109375 20.453125 19.1875 8.296875 
z
" id="DejaVuSans-50"/>
      </defs>
      <g transform="translate(288.410013 298.1575)scale(0.16 -0.16)">
       <use xlink:href="#DejaVuSans-50"/>
      </g>
     </g>
    </g>
    <g id="xtick_4">
     <g id="line2d_4">
      <g>
       <use style="stroke:#000000;stroke-width:0.8;" x="395.919538" xlink:href="#mf57fdcc246" y="279"/>
      </g>
     </g>
     <g id="text_4">
      <!-- 3 -->
      <defs>
       <path d="M 40.578125 39.3125 
Q 47.65625 37.796875 51.625 33 
Q 55.609375 28.21875 55.609375 21.1875 
Q 55.609375 10.40625 48.1875 4.484375 
Q 40.765625 -1.421875 27.09375 -1.421875 
Q 22.515625 -1.421875 17.65625 -0.515625 
Q 12.796875 0.390625 7.625 2.203125 
L 7.625 11.71875 
Q 11.71875 9.328125 16.59375 8.109375 
Q 21.484375 6.890625 26.8125 6.890625 
Q 36.078125 6.890625 40.9375 10.546875 
Q 45.796875 14.203125 45.796875 21.1875 
Q 45.796875 27.640625 41.28125 31.265625 
Q 36.765625 34.90625 28.71875 34.90625 
L 20.21875 34.90625 
L 20.21875 43.015625 
L 29.109375 43.015625 
Q 36.375 43.015625 40.234375 45.921875 
Q 44.09375 48.828125 44.09375 54.296875 
Q 44.09375 59.90625 40.109375 62.90625 
Q 36.140625 65.921875 28.71875 65.921875 
Q 24.65625 65.921875 20.015625 65.03125 
Q 15.375 64.15625 9.8125 62.3125 
L 9.8125 71.09375 
Q 15.4375 72.65625 20.34375 73.4375 
Q 25.25 74.21875 29.59375 74.21875 
Q 40.828125 74.21875 47.359375 69.109375 
Q 53.90625 64.015625 53.90625 55.328125 
Q 53.90625 49.265625 50.4375 45.09375 
Q 46.96875 40.921875 40.578125 39.3125 
z
" id="DejaVuSans-51"/>
      </defs>
      <g transform="translate(390.829538 298.1575)scale(0.16 -0.16)">
       <use xlink:href="#DejaVuSans-51"/>
      </g>
     </g>
    </g>
    <g id="xtick_5">
     <g id="line2d_5">
      <g>
       <use style="stroke:#000000;stroke-width:0.8;" x="498.339064" xlink:href="#mf57fdcc246" y="279"/>
      </g>
     </g>
     <g id="text_5">
      <!-- 4 -->
      <defs>
       <path d="M 37.796875 64.3125 
L 12.890625 25.390625 
L 37.796875 25.390625 
z
M 35.203125 72.90625 
L 47.609375 72.90625 
L 47.609375 25.390625 
L 58.015625 25.390625 
L 58.015625 17.1875 
L 47.609375 17.1875 
L 47.609375 0 
L 37.796875 0 
L 37.796875 17.1875 
L 4.890625 17.1875 
L 4.890625 26.703125 
z
" id="DejaVuSans-52"/>
      </defs>
      <g transform="translate(493.249064 298.1575)scale(0.16 -0.16)">
       <use xlink:href="#DejaVuSans-52"/>
      </g>
     </g>
    </g>
    <g id="xtick_6">
     <g id="line2d_6">
      <g>
       <use style="stroke:#000000;stroke-width:0.8;" x="600.75859" xlink:href="#mf57fdcc246" y="279"/>
      </g>
     </g>
     <g id="text_6">
      <!-- 5 -->
      <defs>
       <path d="M 10.796875 72.90625 
L 49.515625 72.90625 
L 49.515625 64.59375 
L 19.828125 64.59375 
L 19.828125 46.734375 
Q 21.96875 47.46875 24.109375 47.828125 
Q 26.265625 48.1875 28.421875 48.1875 
Q 40.625 48.1875 47.75 41.5 
Q 54.890625 34.8125 54.890625 23.390625 
Q 54.890625 11.625 47.5625 5.09375 
Q 40.234375 -1.421875 26.90625 -1.421875 
Q 22.3125 -1.421875 17.546875 -0.640625 
Q 12.796875 0.140625 7.71875 1.703125 
L 7.71875 11.625 
Q 12.109375 9.234375 16.796875 8.0625 
Q 21.484375 6.890625 26.703125 6.890625 
Q 35.15625 6.890625 40.078125 11.328125 
Q 45.015625 15.765625 45.015625 23.390625 
Q 45.015625 31 40.078125 35.4375 
Q 35.15625 39.890625 26.703125 39.890625 
Q 22.75 39.890625 18.8125 39.015625 
Q 14.890625 38.140625 10.796875 36.28125 
z
" id="DejaVuSans-53"/>
      </defs>
      <g transform="translate(595.66859 298.1575)scale(0.16 -0.16)">
       <use xlink:href="#DejaVuSans-53"/>
      </g>
     </g>
    </g>
    <g id="text_7">
     <!-- $J_e$ (mV) -->
     <defs>
      <path d="M 16.703125 72.90625 
L 26.609375 72.90625 
L 13.375 5.078125 
Q 10.796875 -8.15625 4.65625 -14.078125 
Q -1.46875 -20.015625 -12.5 -20.015625 
L -16.40625 -20.015625 
L -14.796875 -11.71875 
L -11.71875 -11.71875 
Q -5.125 -11.71875 -1.703125 -7.953125 
Q 1.703125 -4.203125 3.515625 5.078125 
z
" id="DejaVuSans-Oblique-74"/>
      <path d="M 48.09375 32.234375 
Q 48.25 33.015625 48.3125 33.84375 
Q 48.390625 34.671875 48.390625 35.5 
Q 48.390625 41.453125 44.890625 44.921875 
Q 41.40625 48.390625 35.40625 48.390625 
Q 28.71875 48.390625 23.578125 44.15625 
Q 18.453125 39.9375 15.828125 32.171875 
z
M 55.90625 25.203125 
L 14.109375 25.203125 
Q 13.8125 23.34375 13.71875 22.265625 
Q 13.625 21.1875 13.625 20.40625 
Q 13.625 13.625 17.796875 9.90625 
Q 21.96875 6.203125 29.59375 6.203125 
Q 35.453125 6.203125 40.671875 7.515625 
Q 45.90625 8.84375 50.390625 11.375 
L 48.6875 2.484375 
Q 43.84375 0.53125 38.6875 -0.4375 
Q 33.546875 -1.421875 28.21875 -1.421875 
Q 16.84375 -1.421875 10.71875 4.015625 
Q 4.59375 9.46875 4.59375 19.484375 
Q 4.59375 28.03125 7.640625 35.375 
Q 10.6875 42.71875 16.609375 48.484375 
Q 20.40625 52.09375 25.65625 54.046875 
Q 30.90625 56 36.8125 56 
Q 46.09375 56 51.578125 50.4375 
Q 57.078125 44.875 57.078125 35.5 
Q 57.078125 33.25 56.78125 30.6875 
Q 56.5 28.125 55.90625 25.203125 
z
" id="DejaVuSans-Oblique-101"/>
      <path id="DejaVuSans-32"/>
      <path d="M 31 75.875 
Q 24.46875 64.65625 21.28125 53.65625 
Q 18.109375 42.671875 18.109375 31.390625 
Q 18.109375 20.125 21.3125 9.0625 
Q 24.515625 -2 31 -13.1875 
L 23.1875 -13.1875 
Q 15.875 -1.703125 12.234375 9.375 
Q 8.59375 20.453125 8.59375 31.390625 
Q 8.59375 42.28125 12.203125 53.3125 
Q 15.828125 64.359375 23.1875 75.875 
z
" id="DejaVuSans-40"/>
      <path d="M 52 44.1875 
Q 55.375 50.25 60.0625 53.125 
Q 64.75 56 71.09375 56 
Q 79.640625 56 84.28125 50.015625 
Q 88.921875 44.046875 88.921875 33.015625 
L 88.921875 0 
L 79.890625 0 
L 79.890625 32.71875 
Q 79.890625 40.578125 77.09375 44.375 
Q 74.3125 48.1875 68.609375 48.1875 
Q 61.625 48.1875 57.5625 43.546875 
Q 53.515625 38.921875 53.515625 30.90625 
L 53.515625 0 
L 44.484375 0 
L 44.484375 32.71875 
Q 44.484375 40.625 41.703125 44.40625 
Q 38.921875 48.1875 33.109375 48.1875 
Q 26.21875 48.1875 22.15625 43.53125 
Q 18.109375 38.875 18.109375 30.90625 
L 18.109375 0 
L 9.078125 0 
L 9.078125 54.6875 
L 18.109375 54.6875 
L 18.109375 46.1875 
Q 21.1875 51.21875 25.484375 53.609375 
Q 29.78125 56 35.6875 56 
Q 41.65625 56 45.828125 52.96875 
Q 50 49.953125 52 44.1875 
z
" id="DejaVuSans-109"/>
      <path d="M 28.609375 0 
L 0.78125 72.90625 
L 11.078125 72.90625 
L 34.1875 11.53125 
L 57.328125 72.90625 
L 67.578125 72.90625 
L 39.796875 0 
z
" id="DejaVuSans-86"/>
      <path d="M 8.015625 75.875 
L 15.828125 75.875 
Q 23.140625 64.359375 26.78125 53.3125 
Q 30.421875 42.28125 30.421875 31.390625 
Q 30.421875 20.453125 26.78125 9.375 
Q 23.140625 -1.703125 15.828125 -13.1875 
L 8.015625 -13.1875 
Q 14.5 -2 17.703125 9.0625 
Q 20.90625 20.125 20.90625 31.390625 
Q 20.90625 42.671875 17.703125 53.65625 
Q 14.5 64.65625 8.015625 75.875 
z
" id="DejaVuSans-41"/>
     </defs>
     <g transform="translate(306.90125 320.685)scale(0.2 -0.2)">
      <use transform="translate(0 0.125)" xlink:href="#DejaVuSans-Oblique-74"/>
      <use transform="translate(29.492188 -16.28125)scale(0.7)" xlink:href="#DejaVuSans-Oblique-101"/>
      <use transform="translate(75.292969 0.125)" xlink:href="#DejaVuSans-32"/>
      <use transform="translate(107.080078 0.125)" xlink:href="#DejaVuSans-40"/>
      <use transform="translate(146.09375 0.125)" xlink:href="#DejaVuSans-109"/>
      <use transform="translate(243.505859 0.125)" xlink:href="#DejaVuSans-86"/>
      <use transform="translate(311.914062 0.125)" xlink:href="#DejaVuSans-41"/>
     </g>
    </g>
   </g>
   <g id="matplotlib.axis_2">
    <g id="ytick_1">
     <g id="line2d_7">
      <defs>
       <path d="M 0 0 
L -3.5 0 
" id="m49b582869f" style="stroke:#000000;stroke-width:0.8;"/>
      </defs>
      <g>
       <use style="stroke:#000000;stroke-width:0.8;" x="63.00125" xlink:href="#m49b582869f" y="266.645455"/>
      </g>
     </g>
     <g id="text_8">
      <!-- 0.0 -->
      <defs>
       <path d="M 10.6875 12.40625 
L 21 12.40625 
L 21 0 
L 10.6875 0 
z
" id="DejaVuSans-46"/>
      </defs>
      <g transform="translate(30.55625 272.724205)scale(0.16 -0.16)">
       <use xlink:href="#DejaVuSans-48"/>
       <use x="63.623047" xlink:href="#DejaVuSans-46"/>
       <use x="95.410156" xlink:href="#DejaVuSans-48"/>
      </g>
     </g>
    </g>
    <g id="ytick_2">
     <g id="line2d_8">
      <g>
       <use style="stroke:#000000;stroke-width:0.8;" x="63.00125" xlink:href="#m49b582869f" y="216.848232"/>
      </g>
     </g>
     <g id="text_9">
      <!-- 0.1 -->
      <g transform="translate(30.55625 222.926982)scale(0.16 -0.16)">
       <use xlink:href="#DejaVuSans-48"/>
       <use x="63.623047" xlink:href="#DejaVuSans-46"/>
       <use x="95.410156" xlink:href="#DejaVuSans-49"/>
      </g>
     </g>
    </g>
    <g id="ytick_3">
     <g id="line2d_9">
      <g>
       <use style="stroke:#000000;stroke-width:0.8;" x="63.00125" xlink:href="#m49b582869f" y="167.05101"/>
      </g>
     </g>
     <g id="text_10">
      <!-- 0.2 -->
      <g transform="translate(30.55625 173.12976)scale(0.16 -0.16)">
       <use xlink:href="#DejaVuSans-48"/>
       <use x="63.623047" xlink:href="#DejaVuSans-46"/>
       <use x="95.410156" xlink:href="#DejaVuSans-50"/>
      </g>
     </g>
    </g>
    <g id="ytick_4">
     <g id="line2d_10">
      <g>
       <use style="stroke:#000000;stroke-width:0.8;" x="63.00125" xlink:href="#m49b582869f" y="117.253787"/>
      </g>
     </g>
     <g id="text_11">
      <!-- 0.3 -->
      <g transform="translate(30.55625 123.332537)scale(0.16 -0.16)">
       <use xlink:href="#DejaVuSans-48"/>
       <use x="63.623047" xlink:href="#DejaVuSans-46"/>
       <use x="95.410156" xlink:href="#DejaVuSans-51"/>
      </g>
     </g>
    </g>
    <g id="ytick_5">
     <g id="line2d_11">
      <g>
       <use style="stroke:#000000;stroke-width:0.8;" x="63.00125" xlink:href="#m49b582869f" y="67.456565"/>
      </g>
     </g>
     <g id="text_12">
      <!-- 0.4 -->
      <g transform="translate(30.55625 73.535315)scale(0.16 -0.16)">
       <use xlink:href="#DejaVuSans-48"/>
       <use x="63.623047" xlink:href="#DejaVuSans-46"/>
       <use x="95.410156" xlink:href="#DejaVuSans-52"/>
      </g>
     </g>
    </g>
    <g id="ytick_6">
     <g id="line2d_12">
      <g>
       <use style="stroke:#000000;stroke-width:0.8;" x="63.00125" xlink:href="#m49b582869f" y="17.659342"/>
      </g>
     </g>
     <g id="text_13">
      <!-- 0.5 -->
      <g transform="translate(30.55625 23.738092)scale(0.16 -0.16)">
       <use xlink:href="#DejaVuSans-48"/>
       <use x="63.623047" xlink:href="#DejaVuSans-46"/>
       <use x="95.410156" xlink:href="#DejaVuSans-53"/>
      </g>
     </g>
    </g>
    <g id="text_14">
     <!-- $E$ (au) -->
     <defs>
      <path d="M 16.890625 72.90625 
L 62.984375 72.90625 
L 61.375 64.59375 
L 25.09375 64.59375 
L 20.90625 43.015625 
L 55.71875 43.015625 
L 54.109375 34.71875 
L 19.28125 34.71875 
L 14.203125 8.296875 
L 51.3125 8.296875 
L 49.703125 0 
L 2.6875 0 
z
" id="DejaVuSans-Oblique-69"/>
      <path d="M 34.28125 27.484375 
Q 23.390625 27.484375 19.1875 25 
Q 14.984375 22.515625 14.984375 16.5 
Q 14.984375 11.71875 18.140625 8.90625 
Q 21.296875 6.109375 26.703125 6.109375 
Q 34.1875 6.109375 38.703125 11.40625 
Q 43.21875 16.703125 43.21875 25.484375 
L 43.21875 27.484375 
z
M 52.203125 31.203125 
L 52.203125 0 
L 43.21875 0 
L 43.21875 8.296875 
Q 40.140625 3.328125 35.546875 0.953125 
Q 30.953125 -1.421875 24.3125 -1.421875 
Q 15.921875 -1.421875 10.953125 3.296875 
Q 6 8.015625 6 15.921875 
Q 6 25.140625 12.171875 29.828125 
Q 18.359375 34.515625 30.609375 34.515625 
L 43.21875 34.515625 
L 43.21875 35.40625 
Q 43.21875 41.609375 39.140625 45 
Q 35.0625 48.390625 27.6875 48.390625 
Q 23 48.390625 18.546875 47.265625 
Q 14.109375 46.140625 10.015625 43.890625 
L 10.015625 52.203125 
Q 14.9375 54.109375 19.578125 55.046875 
Q 24.21875 56 28.609375 56 
Q 40.484375 56 46.34375 49.84375 
Q 52.203125 43.703125 52.203125 31.203125 
z
" id="DejaVuSans-97"/>
      <path d="M 8.5 21.578125 
L 8.5 54.6875 
L 17.484375 54.6875 
L 17.484375 21.921875 
Q 17.484375 14.15625 20.5 10.265625 
Q 23.53125 6.390625 29.59375 6.390625 
Q 36.859375 6.390625 41.078125 11.03125 
Q 45.3125 15.671875 45.3125 23.6875 
L 45.3125 54.6875 
L 54.296875 54.6875 
L 54.296875 0 
L 45.3125 0 
L 45.3125 8.40625 
Q 42.046875 3.421875 37.71875 1 
Q 33.40625 -1.421875 27.6875 -1.421875 
Q 18.265625 -1.421875 13.375 4.4375 
Q 8.5 10.296875 8.5 21.578125 
z
M 31.109375 56 
z
" id="DejaVuSans-117"/>
     </defs>
     <g transform="translate(22.396875 172.9)rotate(-90)scale(0.2 -0.2)">
      <use transform="translate(0 0.125)" xlink:href="#DejaVuSans-Oblique-69"/>
      <use transform="translate(63.183594 0.125)" xlink:href="#DejaVuSans-32"/>
      <use transform="translate(94.970703 0.125)" xlink:href="#DejaVuSans-40"/>
      <use transform="translate(133.984375 0.125)" xlink:href="#DejaVuSans-97"/>
      <use transform="translate(195.263672 0.125)" xlink:href="#DejaVuSans-117"/>
      <use transform="translate(258.642578 0.125)" xlink:href="#DejaVuSans-41"/>
     </g>
    </g>
   </g>
   <g id="line2d_13">
    <path clip-path="url(#p84c4b3eb9e)" d="M 88.660961 247.094034 
L 93.781938 245.668537 
L 98.902914 244.096985 
L 104.02389 242.356079 
L 109.144866 240.41691 
L 114.265843 238.243102 
L 119.386819 235.788184 
L 124.507795 232.991818 
L 129.628772 229.774377 
L 134.749748 226.02923 
L 139.870724 221.612363 
L 144.9917 216.330865 
L 150.112677 209.939418 
L 155.233653 202.176596 
L 160.354629 192.910259 
L 165.475606 182.408759 
L 170.596582 171.429715 
L 175.717558 160.798903 
L 180.838534 150.978083 
L 185.959511 142.076315 
L 191.080487 134.034613 
L 196.201463 126.74667 
L 201.32244 120.107034 
L 206.443416 114.024866 
L 211.564392 108.425373 
L 216.685368 103.247683 
L 221.806345 98.442147 
L 226.927321 93.967931 
L 232.048297 89.791096 
L 237.169274 85.883109 
L 242.29025 82.219705 
L 247.411226 78.780026 
L 252.532202 75.545959 
L 257.653179 72.501624 
L 262.774155 69.632982 
L 267.895131 66.927521 
L 273.016108 64.374016 
L 278.137084 61.962332 
L 283.25806 59.683266 
L 288.379036 57.52842 
L 293.500013 55.490101 
L 298.620989 53.561228 
L 303.741965 51.735267 
L 308.862942 50.006169 
L 313.983918 48.368317 
L 319.104894 46.816486 
L 324.22587 45.345806 
L 329.346847 43.951726 
L 334.467823 42.629991 
L 339.588799 41.376615 
L 344.709776 40.187858 
L 349.830752 39.06021 
L 354.951728 37.990373 
L 360.072704 36.975243 
L 365.193681 36.011899 
L 370.314657 35.097589 
L 375.435633 34.229719 
L 380.55661 33.405843 
L 385.677586 32.623653 
L 390.798562 31.880969 
L 395.919538 31.175733 
L 401.040515 30.506 
L 406.161491 29.869933 
L 411.282467 29.265793 
L 416.403444 28.691936 
L 421.52442 28.146807 
L 426.645396 27.628934 
L 431.766372 27.136925 
L 436.887349 26.669459 
L 442.008325 26.225289 
L 447.129301 25.80323 
L 452.250278 25.402163 
L 457.371254 25.021023 
L 462.49223 24.658805 
L 467.613206 24.314554 
L 472.734183 23.987366 
L 477.855159 23.676382 
L 482.976135 23.380789 
L 488.097112 23.099814 
L 493.218088 22.832726 
L 498.339064 22.578831 
L 503.46004 22.337468 
L 508.581017 22.108013 
L 513.701993 21.889872 
L 518.822969 21.682481 
L 523.943946 21.485305 
L 529.064922 21.297838 
L 534.185898 21.119596 
L 539.306874 20.950122 
L 544.427851 20.788981 
L 549.548827 20.635761 
L 554.669803 20.490069 
L 559.79078 20.351532 
L 564.911756 20.219798 
L 570.032732 20.09453 
L 575.153708 19.975408 
L 580.274685 19.86213 
L 585.395661 19.754407 
L 590.516637 19.651966 
L 595.637614 19.554545 
" style="fill:none;stroke:#000000;stroke-linecap:square;stroke-width:1.5;"/>
   </g>
   <g id="line2d_14">
    <path clip-path="url(#p84c4b3eb9e)" d="M 305.125304 266.645455 
L 353.676762 266.645455 
" style="fill:none;stroke:#ffc0cb;stroke-linecap:square;stroke-width:1.5;"/>
    <defs>
     <path d="M 0 3 
C 0.795609 3 1.55874 2.683901 2.12132 2.12132 
C 2.683901 1.55874 3 0.795609 3 0 
C 3 -0.795609 2.683901 -1.55874 2.12132 -2.12132 
C 1.55874 -2.683901 0.795609 -3 0 -3 
C -0.795609 -3 -1.55874 -2.683901 -2.12132 -2.12132 
C -2.683901 -1.55874 -3 -0.795609 -3 0 
C -3 0.795609 -2.683901 1.55874 -2.12132 2.12132 
C -1.55874 2.683901 -0.795609 3 0 3 
z
" id="md1c701a8e5" style="stroke:#ffc0cb;"/>
    </defs>
    <g clip-path="url(#p84c4b3eb9e)">
     <use style="fill:#ffc0cb;stroke:#ffc0cb;" x="305.125304" xlink:href="#md1c701a8e5" y="266.645455"/>
     <use style="fill:#ffc0cb;stroke:#ffc0cb;" x="353.676762" xlink:href="#md1c701a8e5" y="266.645455"/>
    </g>
   </g>
   <g id="line2d_15">
    <path clip-path="url(#p84c4b3eb9e)" d="M 277.916259 259.9161 
L 325.796803 259.9161 
" style="fill:none;stroke:#ffc0cb;stroke-linecap:square;stroke-width:1.5;"/>
    <g clip-path="url(#p84c4b3eb9e)">
     <use style="fill:#ffc0cb;stroke:#ffc0cb;" x="277.916259" xlink:href="#md1c701a8e5" y="259.9161"/>
     <use style="fill:#ffc0cb;stroke:#ffc0cb;" x="325.796803" xlink:href="#md1c701a8e5" y="259.9161"/>
    </g>
   </g>
   <g id="line2d_16">
    <path clip-path="url(#p84c4b3eb9e)" d="M 147.540034 253.186746 
L 176.068613 253.186746 
" style="fill:none;stroke:#ffc0cb;stroke-linecap:square;stroke-width:1.5;"/>
    <g clip-path="url(#p84c4b3eb9e)">
     <use style="fill:#ffc0cb;stroke:#ffc0cb;" x="147.540034" xlink:href="#md1c701a8e5" y="253.186746"/>
     <use style="fill:#ffc0cb;stroke:#ffc0cb;" x="176.068613" xlink:href="#md1c701a8e5" y="253.186746"/>
    </g>
   </g>
   <g id="line2d_17">
    <path clip-path="url(#p84c4b3eb9e)" d="M 296.729167 246.457391 
L 333.691277 246.457391 
" style="fill:none;stroke:#ffc0cb;stroke-linecap:square;stroke-width:1.5;"/>
    <g clip-path="url(#p84c4b3eb9e)">
     <use style="fill:#ffc0cb;stroke:#ffc0cb;" x="296.729167" xlink:href="#md1c701a8e5" y="246.457391"/>
     <use style="fill:#ffc0cb;stroke:#ffc0cb;" x="333.691277" xlink:href="#md1c701a8e5" y="246.457391"/>
    </g>
   </g>
   <g id="line2d_18">
    <path clip-path="url(#p84c4b3eb9e)" d="M 437.265533 239.728037 
L 491.593482 239.728037 
" style="fill:none;stroke:#ffc0cb;stroke-linecap:square;stroke-width:1.5;"/>
    <g clip-path="url(#p84c4b3eb9e)">
     <use style="fill:#ffc0cb;stroke:#ffc0cb;" x="437.265533" xlink:href="#md1c701a8e5" y="239.728037"/>
     <use style="fill:#ffc0cb;stroke:#ffc0cb;" x="491.593482" xlink:href="#md1c701a8e5" y="239.728037"/>
    </g>
   </g>
   <g id="line2d_19">
    <path clip-path="url(#p84c4b3eb9e)" d="M 205.595578 232.998683 
L 236.638122 232.998683 
" style="fill:none;stroke:#ffc0cb;stroke-linecap:square;stroke-width:1.5;"/>
    <g clip-path="url(#p84c4b3eb9e)">
     <use style="fill:#ffc0cb;stroke:#ffc0cb;" x="205.595578" xlink:href="#md1c701a8e5" y="232.998683"/>
     <use style="fill:#ffc0cb;stroke:#ffc0cb;" x="236.638122" xlink:href="#md1c701a8e5" y="232.998683"/>
    </g>
   </g>
   <g id="line2d_20">
    <path clip-path="url(#p84c4b3eb9e)" d="M 348.443956 226.269328 
L 386.952198 226.269328 
" style="fill:none;stroke:#ffc0cb;stroke-linecap:square;stroke-width:1.5;"/>
    <g clip-path="url(#p84c4b3eb9e)">
     <use style="fill:#ffc0cb;stroke:#ffc0cb;" x="348.443956" xlink:href="#md1c701a8e5" y="226.269328"/>
     <use style="fill:#ffc0cb;stroke:#ffc0cb;" x="386.952198" xlink:href="#md1c701a8e5" y="226.269328"/>
    </g>
   </g>
   <g id="line2d_21">
    <path clip-path="url(#p84c4b3eb9e)" d="M 278.847928 219.539974 
L 301.599487 219.539974 
" style="fill:none;stroke:#ffc0cb;stroke-linecap:square;stroke-width:1.5;"/>
    <g clip-path="url(#p84c4b3eb9e)">
     <use style="fill:#ffc0cb;stroke:#ffc0cb;" x="278.847928" xlink:href="#md1c701a8e5" y="219.539974"/>
     <use style="fill:#ffc0cb;stroke:#ffc0cb;" x="301.599487" xlink:href="#md1c701a8e5" y="219.539974"/>
    </g>
   </g>
   <g id="line2d_22">
    <path clip-path="url(#p84c4b3eb9e)" d="M 396.393319 212.810619 
L 473.672755 212.810619 
" style="fill:none;stroke:#add8e6;stroke-linecap:square;stroke-width:1.5;"/>
    <defs>
     <path d="M 0 3 
C 0.795609 3 1.55874 2.683901 2.12132 2.12132 
C 2.683901 1.55874 3 0.795609 3 0 
C 3 -0.795609 2.683901 -1.55874 2.12132 -2.12132 
C 1.55874 -2.683901 0.795609 -3 0 -3 
C -0.795609 -3 -1.55874 -2.683901 -2.12132 -2.12132 
C -2.683901 -1.55874 -3 -0.795609 -3 0 
C -3 0.795609 -2.683901 1.55874 -2.12132 2.12132 
C -1.55874 2.683901 -0.795609 3 0 3 
z
" id="m65fc1f168e" style="stroke:#add8e6;"/>
    </defs>
    <g clip-path="url(#p84c4b3eb9e)">
     <use style="fill:#add8e6;stroke:#add8e6;" x="396.393319" xlink:href="#m65fc1f168e" y="212.810619"/>
     <use style="fill:#add8e6;stroke:#add8e6;" x="473.672755" xlink:href="#m65fc1f168e" y="212.810619"/>
    </g>
   </g>
   <g id="line2d_23">
    <path clip-path="url(#p84c4b3eb9e)" d="M 270.565416 206.081265 
L 329.590551 206.081265 
" style="fill:none;stroke:#add8e6;stroke-linecap:square;stroke-width:1.5;"/>
    <g clip-path="url(#p84c4b3eb9e)">
     <use style="fill:#add8e6;stroke:#add8e6;" x="270.565416" xlink:href="#m65fc1f168e" y="206.081265"/>
     <use style="fill:#add8e6;stroke:#add8e6;" x="329.590551" xlink:href="#m65fc1f168e" y="206.081265"/>
    </g>
   </g>
   <g id="line2d_24">
    <path clip-path="url(#p84c4b3eb9e)" d="M 115.000159 199.351911 
L 121.791918 199.351911 
" style="fill:none;stroke:#add8e6;stroke-linecap:square;stroke-width:1.5;"/>
    <g clip-path="url(#p84c4b3eb9e)">
     <use style="fill:#add8e6;stroke:#add8e6;" x="115.000159" xlink:href="#m65fc1f168e" y="199.351911"/>
     <use style="fill:#add8e6;stroke:#add8e6;" x="121.791918" xlink:href="#m65fc1f168e" y="199.351911"/>
    </g>
   </g>
   <g id="line2d_25">
    <path clip-path="url(#p84c4b3eb9e)" d="M 93.943729 192.622556 
L 112.619108 192.622556 
" style="fill:none;stroke:#add8e6;stroke-linecap:square;stroke-width:1.5;"/>
    <g clip-path="url(#p84c4b3eb9e)">
     <use style="fill:#add8e6;stroke:#add8e6;" x="93.943729" xlink:href="#m65fc1f168e" y="192.622556"/>
     <use style="fill:#add8e6;stroke:#add8e6;" x="112.619108" xlink:href="#m65fc1f168e" y="192.622556"/>
    </g>
   </g>
   <g id="line2d_26">
    <path clip-path="url(#p84c4b3eb9e)" d="M 168.464122 185.893202 
L 199.666483 185.893202 
" style="fill:none;stroke:#add8e6;stroke-linecap:square;stroke-width:1.5;"/>
    <g clip-path="url(#p84c4b3eb9e)">
     <use style="fill:#add8e6;stroke:#add8e6;" x="168.464122" xlink:href="#m65fc1f168e" y="185.893202"/>
     <use style="fill:#add8e6;stroke:#add8e6;" x="199.666483" xlink:href="#m65fc1f168e" y="185.893202"/>
    </g>
   </g>
   <g id="line2d_27">
    <path clip-path="url(#p84c4b3eb9e)" d="M 96.315279 179.163848 
L 119.236256 179.163848 
" style="fill:none;stroke:#add8e6;stroke-linecap:square;stroke-width:1.5;"/>
    <g clip-path="url(#p84c4b3eb9e)">
     <use style="fill:#add8e6;stroke:#add8e6;" x="96.315279" xlink:href="#m65fc1f168e" y="179.163848"/>
     <use style="fill:#add8e6;stroke:#add8e6;" x="119.236256" xlink:href="#m65fc1f168e" y="179.163848"/>
    </g>
   </g>
   <g id="line2d_28">
    <path clip-path="url(#p84c4b3eb9e)" d="M 310.752225 172.434493 
L 356.197894 172.434493 
" style="fill:none;stroke:#ffd700;stroke-linecap:square;stroke-width:1.5;"/>
    <defs>
     <path d="M 0 3 
C 0.795609 3 1.55874 2.683901 2.12132 2.12132 
C 2.683901 1.55874 3 0.795609 3 0 
C 3 -0.795609 2.683901 -1.55874 2.12132 -2.12132 
C 1.55874 -2.683901 0.795609 -3 0 -3 
C -0.795609 -3 -1.55874 -2.683901 -2.12132 -2.12132 
C -2.683901 -1.55874 -3 -0.795609 -3 0 
C -3 0.795609 -2.683901 1.55874 -2.12132 2.12132 
C -1.55874 2.683901 -0.795609 3 0 3 
z
" id="m7e926980a9" style="stroke:#ffd700;"/>
    </defs>
    <g clip-path="url(#p84c4b3eb9e)">
     <use style="fill:#ffd700;stroke:#ffd700;" x="310.752225" xlink:href="#m7e926980a9" y="172.434493"/>
     <use style="fill:#ffd700;stroke:#ffd700;" x="356.197894" xlink:href="#m7e926980a9" y="172.434493"/>
    </g>
   </g>
   <g id="line2d_29">
    <path clip-path="url(#p84c4b3eb9e)" d="M 144.792763 165.705139 
L 154.139553 165.705139 
" style="fill:none;stroke:#ffd700;stroke-linecap:square;stroke-width:1.5;"/>
    <g clip-path="url(#p84c4b3eb9e)">
     <use style="fill:#ffd700;stroke:#ffd700;" x="144.792763" xlink:href="#m7e926980a9" y="165.705139"/>
     <use style="fill:#ffd700;stroke:#ffd700;" x="154.139553" xlink:href="#m7e926980a9" y="165.705139"/>
    </g>
   </g>
   <g id="line2d_30">
    <path clip-path="url(#p84c4b3eb9e)" d="M 297.99605 158.975784 
L 336.61118 158.975784 
" style="fill:none;stroke:#ffd700;stroke-linecap:square;stroke-width:1.5;"/>
    <g clip-path="url(#p84c4b3eb9e)">
     <use style="fill:#ffd700;stroke:#ffd700;" x="297.99605" xlink:href="#m7e926980a9" y="158.975784"/>
     <use style="fill:#ffd700;stroke:#ffd700;" x="336.61118" xlink:href="#m7e926980a9" y="158.975784"/>
    </g>
   </g>
   <g id="line2d_31">
    <path clip-path="url(#p84c4b3eb9e)" d="M 289.318945 152.24643 
L 365.814316 152.24643 
" style="fill:none;stroke:#ffd700;stroke-linecap:square;stroke-width:1.5;"/>
    <g clip-path="url(#p84c4b3eb9e)">
     <use style="fill:#ffd700;stroke:#ffd700;" x="289.318945" xlink:href="#m7e926980a9" y="152.24643"/>
     <use style="fill:#ffd700;stroke:#ffd700;" x="365.814316" xlink:href="#m7e926980a9" y="152.24643"/>
    </g>
   </g>
   <g id="line2d_32">
    <path clip-path="url(#p84c4b3eb9e)" d="M 232.136591 145.517076 
L 279.675312 145.517076 
" style="fill:none;stroke:#ffd700;stroke-linecap:square;stroke-width:1.5;"/>
    <g clip-path="url(#p84c4b3eb9e)">
     <use style="fill:#ffd700;stroke:#ffd700;" x="232.136591" xlink:href="#m7e926980a9" y="145.517076"/>
     <use style="fill:#ffd700;stroke:#ffd700;" x="279.675312" xlink:href="#m7e926980a9" y="145.517076"/>
    </g>
   </g>
   <g id="line2d_33">
    <path clip-path="url(#p84c4b3eb9e)" d="M 142.249791 138.787721 
L 165.775806 138.787721 
" style="fill:none;stroke:#ffd700;stroke-linecap:square;stroke-width:1.5;"/>
    <g clip-path="url(#p84c4b3eb9e)">
     <use style="fill:#ffd700;stroke:#ffd700;" x="142.249791" xlink:href="#m7e926980a9" y="138.787721"/>
     <use style="fill:#ffd700;stroke:#ffd700;" x="165.775806" xlink:href="#m7e926980a9" y="138.787721"/>
    </g>
   </g>
   <g id="line2d_34">
    <path clip-path="url(#p84c4b3eb9e)" d="M 196.144487 132.058367 
L 212.522492 132.058367 
" style="fill:none;stroke:#dda0dd;stroke-linecap:square;stroke-width:1.5;"/>
    <defs>
     <path d="M 0 3 
C 0.795609 3 1.55874 2.683901 2.12132 2.12132 
C 2.683901 1.55874 3 0.795609 3 0 
C 3 -0.795609 2.683901 -1.55874 2.12132 -2.12132 
C 1.55874 -2.683901 0.795609 -3 0 -3 
C -0.795609 -3 -1.55874 -2.683901 -2.12132 -2.12132 
C -2.683901 -1.55874 -3 -0.795609 -3 0 
C -3 0.795609 -2.683901 1.55874 -2.12132 2.12132 
C -1.55874 2.683901 -0.795609 3 0 3 
z
" id="mf36df4aecd" style="stroke:#dda0dd;"/>
    </defs>
    <g clip-path="url(#p84c4b3eb9e)">
     <use style="fill:#dda0dd;stroke:#dda0dd;" x="196.144487" xlink:href="#mf36df4aecd" y="132.058367"/>
     <use style="fill:#dda0dd;stroke:#dda0dd;" x="212.522492" xlink:href="#mf36df4aecd" y="132.058367"/>
    </g>
   </g>
   <g id="line2d_35">
    <path clip-path="url(#p84c4b3eb9e)" d="M 239.467415 125.329013 
L 286.580574 125.329013 
" style="fill:none;stroke:#dda0dd;stroke-linecap:square;stroke-width:1.5;"/>
    <g clip-path="url(#p84c4b3eb9e)">
     <use style="fill:#dda0dd;stroke:#dda0dd;" x="239.467415" xlink:href="#mf36df4aecd" y="125.329013"/>
     <use style="fill:#dda0dd;stroke:#dda0dd;" x="286.580574" xlink:href="#mf36df4aecd" y="125.329013"/>
    </g>
   </g>
   <g id="line2d_36">
    <path clip-path="url(#p84c4b3eb9e)" d="M 306.230446 118.599658 
L 368.101041 118.599658 
" style="fill:none;stroke:#dda0dd;stroke-linecap:square;stroke-width:1.5;"/>
    <g clip-path="url(#p84c4b3eb9e)">
     <use style="fill:#dda0dd;stroke:#dda0dd;" x="306.230446" xlink:href="#mf36df4aecd" y="118.599658"/>
     <use style="fill:#dda0dd;stroke:#dda0dd;" x="368.101041" xlink:href="#mf36df4aecd" y="118.599658"/>
    </g>
   </g>
   <g id="line2d_37">
    <path clip-path="url(#p84c4b3eb9e)" d="M 108.295298 111.870304 
L 136.259465 111.870304 
" style="fill:none;stroke:#dda0dd;stroke-linecap:square;stroke-width:1.5;"/>
    <g clip-path="url(#p84c4b3eb9e)">
     <use style="fill:#dda0dd;stroke:#dda0dd;" x="108.295298" xlink:href="#mf36df4aecd" y="111.870304"/>
     <use style="fill:#dda0dd;stroke:#dda0dd;" x="136.259465" xlink:href="#mf36df4aecd" y="111.870304"/>
    </g>
   </g>
   <g id="line2d_38">
    <path clip-path="url(#p84c4b3eb9e)" d="M 98.578734 105.140949 
L 115.331785 105.140949 
" style="fill:none;stroke:#ff8c00;stroke-linecap:square;stroke-width:1.5;"/>
    <defs>
     <path d="M 0 3 
C 0.795609 3 1.55874 2.683901 2.12132 2.12132 
C 2.683901 1.55874 3 0.795609 3 0 
C 3 -0.795609 2.683901 -1.55874 2.12132 -2.12132 
C 1.55874 -2.683901 0.795609 -3 0 -3 
C -0.795609 -3 -1.55874 -2.683901 -2.12132 -2.12132 
C -2.683901 -1.55874 -3 -0.795609 -3 0 
C -3 0.795609 -2.683901 1.55874 -2.12132 2.12132 
C -1.55874 2.683901 -0.795609 3 0 3 
z
" id="mb4cc3ed8f7" style="stroke:#ff8c00;"/>
    </defs>
    <g clip-path="url(#p84c4b3eb9e)">
     <use style="fill:#ff8c00;stroke:#ff8c00;" x="98.578734" xlink:href="#mb4cc3ed8f7" y="105.140949"/>
     <use style="fill:#ff8c00;stroke:#ff8c00;" x="115.331785" xlink:href="#mb4cc3ed8f7" y="105.140949"/>
    </g>
   </g>
   <g id="line2d_39">
    <path clip-path="url(#p84c4b3eb9e)" d="M 190.403635 98.411595 
L 221.959098 98.411595 
" style="fill:none;stroke:#ff8c00;stroke-linecap:square;stroke-width:1.5;"/>
    <g clip-path="url(#p84c4b3eb9e)">
     <use style="fill:#ff8c00;stroke:#ff8c00;" x="190.403635" xlink:href="#mb4cc3ed8f7" y="98.411595"/>
     <use style="fill:#ff8c00;stroke:#ff8c00;" x="221.959098" xlink:href="#mb4cc3ed8f7" y="98.411595"/>
    </g>
   </g>
   <g id="line2d_40">
    <path clip-path="url(#p84c4b3eb9e)" d="M 131.99117 91.682241 
L 162.634238 91.682241 
" style="fill:none;stroke:#ff8c00;stroke-linecap:square;stroke-width:1.5;"/>
    <g clip-path="url(#p84c4b3eb9e)">
     <use style="fill:#ff8c00;stroke:#ff8c00;" x="131.99117" xlink:href="#mb4cc3ed8f7" y="91.682241"/>
     <use style="fill:#ff8c00;stroke:#ff8c00;" x="162.634238" xlink:href="#mb4cc3ed8f7" y="91.682241"/>
    </g>
   </g>
   <g id="line2d_41">
    <path clip-path="url(#p84c4b3eb9e)" d="M 140.083183 84.952886 
L 183.750264 84.952886 
" style="fill:none;stroke:#ff8c00;stroke-linecap:square;stroke-width:1.5;"/>
    <g clip-path="url(#p84c4b3eb9e)">
     <use style="fill:#ff8c00;stroke:#ff8c00;" x="140.083183" xlink:href="#mb4cc3ed8f7" y="84.952886"/>
     <use style="fill:#ff8c00;stroke:#ff8c00;" x="183.750264" xlink:href="#mb4cc3ed8f7" y="84.952886"/>
    </g>
   </g>
   <g id="line2d_42">
    <path clip-path="url(#p84c4b3eb9e)" d="M 122.772216 78.223532 
L 151.866598 78.223532 
" style="fill:none;stroke:#ff8c00;stroke-linecap:square;stroke-width:1.5;"/>
    <g clip-path="url(#p84c4b3eb9e)">
     <use style="fill:#ff8c00;stroke:#ff8c00;" x="122.772216" xlink:href="#mb4cc3ed8f7" y="78.223532"/>
     <use style="fill:#ff8c00;stroke:#ff8c00;" x="151.866598" xlink:href="#mb4cc3ed8f7" y="78.223532"/>
    </g>
   </g>
   <g id="line2d_43">
    <path clip-path="url(#p84c4b3eb9e)" d="M 383.91722 71.494178 
L 433.953306 71.494178 
" style="fill:none;stroke:#008000;stroke-linecap:square;stroke-width:1.5;"/>
    <defs>
     <path d="M 0 3 
C 0.795609 3 1.55874 2.683901 2.12132 2.12132 
C 2.683901 1.55874 3 0.795609 3 0 
C 3 -0.795609 2.683901 -1.55874 2.12132 -2.12132 
C 1.55874 -2.683901 0.795609 -3 0 -3 
C -0.795609 -3 -1.55874 -2.683901 -2.12132 -2.12132 
C -2.683901 -1.55874 -3 -0.795609 -3 0 
C -3 0.795609 -2.683901 1.55874 -2.12132 2.12132 
C -1.55874 2.683901 -0.795609 3 0 3 
z
" id="m13b83665c7" style="stroke:#008000;"/>
    </defs>
    <g clip-path="url(#p84c4b3eb9e)">
     <use style="fill:#008000;stroke:#008000;" x="383.91722" xlink:href="#m13b83665c7" y="71.494178"/>
     <use style="fill:#008000;stroke:#008000;" x="433.953306" xlink:href="#m13b83665c7" y="71.494178"/>
    </g>
   </g>
   <g id="line2d_44">
    <path clip-path="url(#p84c4b3eb9e)" d="M 285.047574 64.764823 
L 350.940441 64.764823 
" style="fill:none;stroke:#008000;stroke-linecap:square;stroke-width:1.5;"/>
    <g clip-path="url(#p84c4b3eb9e)">
     <use style="fill:#008000;stroke:#008000;" x="285.047574" xlink:href="#m13b83665c7" y="64.764823"/>
     <use style="fill:#008000;stroke:#008000;" x="350.940441" xlink:href="#m13b83665c7" y="64.764823"/>
    </g>
   </g>
   <g id="line2d_45">
    <path clip-path="url(#p84c4b3eb9e)" d="M 166.32843 58.035469 
L 209.131934 58.035469 
" style="fill:none;stroke:#008000;stroke-linecap:square;stroke-width:1.5;"/>
    <g clip-path="url(#p84c4b3eb9e)">
     <use style="fill:#008000;stroke:#008000;" x="166.32843" xlink:href="#m13b83665c7" y="58.035469"/>
     <use style="fill:#008000;stroke:#008000;" x="209.131934" xlink:href="#m13b83665c7" y="58.035469"/>
    </g>
   </g>
   <g id="line2d_46">
    <path clip-path="url(#p84c4b3eb9e)" d="M 89.445854 51.306114 
L 105.552305 51.306114 
" style="fill:none;stroke:#008000;stroke-linecap:square;stroke-width:1.5;"/>
    <g clip-path="url(#p84c4b3eb9e)">
     <use style="fill:#008000;stroke:#008000;" x="89.445854" xlink:href="#m13b83665c7" y="51.306114"/>
     <use style="fill:#008000;stroke:#008000;" x="105.552305" xlink:href="#m13b83665c7" y="51.306114"/>
    </g>
   </g>
   <g id="line2d_47">
    <path clip-path="url(#p84c4b3eb9e)" d="M 144.003277 44.57676 
L 153.690094 44.57676 
" style="fill:none;stroke:#008000;stroke-linecap:square;stroke-width:1.5;"/>
    <g clip-path="url(#p84c4b3eb9e)">
     <use style="fill:#008000;stroke:#008000;" x="144.003277" xlink:href="#m13b83665c7" y="44.57676"/>
     <use style="fill:#008000;stroke:#008000;" x="153.690094" xlink:href="#m13b83665c7" y="44.57676"/>
    </g>
   </g>
   <g id="line2d_48">
    <path clip-path="url(#p84c4b3eb9e)" d="M 128.304044 37.847406 
L 162.450259 37.847406 
" style="fill:none;stroke:#008000;stroke-linecap:square;stroke-width:1.5;"/>
    <g clip-path="url(#p84c4b3eb9e)">
     <use style="fill:#008000;stroke:#008000;" x="128.304044" xlink:href="#m13b83665c7" y="37.847406"/>
     <use style="fill:#008000;stroke:#008000;" x="162.450259" xlink:href="#m13b83665c7" y="37.847406"/>
    </g>
   </g>
   <g id="line2d_49">
    <path clip-path="url(#p84c4b3eb9e)" d="M 88.364886 31.118051 
L 97.8406 31.118051 
" style="fill:none;stroke:#008000;stroke-linecap:square;stroke-width:1.5;"/>
    <g clip-path="url(#p84c4b3eb9e)">
     <use style="fill:#008000;stroke:#008000;" x="88.364886" xlink:href="#m13b83665c7" y="31.118051"/>
     <use style="fill:#008000;stroke:#008000;" x="97.8406" xlink:href="#m13b83665c7" y="31.118051"/>
    </g>
   </g>
   <g id="line2d_50">
    <path clip-path="url(#p84c4b3eb9e)" d="M 123.119579 24.388697 
L 151.723333 24.388697 
" style="fill:none;stroke:#008000;stroke-linecap:square;stroke-width:1.5;"/>
    <g clip-path="url(#p84c4b3eb9e)">
     <use style="fill:#008000;stroke:#008000;" x="123.119579" xlink:href="#m13b83665c7" y="24.388697"/>
     <use style="fill:#008000;stroke:#008000;" x="151.723333" xlink:href="#m13b83665c7" y="24.388697"/>
    </g>
   </g>
   <g id="line2d_51">
    <path clip-path="url(#p84c4b3eb9e)" d="M 88.660961 247.094034 
L 93.781938 245.668537 
L 98.902914 244.096985 
L 104.02389 242.356079 
L 109.144866 240.41691 
L 114.265843 238.243102 
L 119.386819 235.788184 
L 124.507795 232.991818 
L 129.628772 229.774377 
L 134.749748 226.02923 
L 139.870724 221.612363 
L 144.9917 216.330865 
L 150.112677 209.939418 
L 155.233653 202.176596 
L 160.354629 192.910259 
L 165.475606 182.408759 
L 170.596582 171.429715 
L 175.717558 160.798903 
L 180.838534 150.978083 
L 185.959511 142.076315 
L 191.080487 134.034613 
L 196.201463 126.74667 
L 201.32244 120.107034 
L 206.443416 114.024866 
L 211.564392 108.425373 
L 216.685368 103.247683 
L 221.806345 98.442147 
L 226.927321 93.967931 
L 232.048297 89.791096 
L 237.169274 85.883109 
L 242.29025 82.219705 
L 247.411226 78.780026 
L 252.532202 75.545959 
L 257.653179 72.501624 
L 262.774155 69.632982 
L 267.895131 66.927521 
L 273.016108 64.374016 
L 278.137084 61.962332 
L 283.25806 59.683266 
L 288.379036 57.52842 
L 293.500013 55.490101 
L 298.620989 53.561228 
L 303.741965 51.735267 
L 308.862942 50.006169 
L 313.983918 48.368317 
L 319.104894 46.816486 
L 324.22587 45.345806 
L 329.346847 43.951726 
L 334.467823 42.629991 
L 339.588799 41.376615 
L 344.709776 40.187858 
L 349.830752 39.06021 
L 354.951728 37.990373 
L 360.072704 36.975243 
L 365.193681 36.011899 
L 370.314657 35.097589 
L 375.435633 34.229719 
L 380.55661 33.405843 
L 385.677586 32.623653 
L 390.798562 31.880969 
L 395.919538 31.175733 
L 401.040515 30.506 
L 406.161491 29.869933 
L 411.282467 29.265793 
L 416.403444 28.691936 
L 421.52442 28.146807 
L 426.645396 27.628934 
L 431.766372 27.136925 
L 436.887349 26.669459 
L 442.008325 26.225289 
L 447.129301 25.80323 
L 452.250278 25.402163 
L 457.371254 25.021023 
L 462.49223 24.658805 
L 467.613206 24.314554 
L 472.734183 23.987366 
L 477.855159 23.676382 
L 482.976135 23.380789 
L 488.097112 23.099814 
L 493.218088 22.832726 
L 498.339064 22.578831 
L 503.46004 22.337468 
L 508.581017 22.108013 
L 513.701993 21.889872 
L 518.822969 21.682481 
L 523.943946 21.485305 
L 529.064922 21.297838 
L 534.185898 21.119596 
L 539.306874 20.950122 
L 544.427851 20.788981 
L 549.548827 20.635761 
L 554.669803 20.490069 
L 559.79078 20.351532 
L 564.911756 20.219798 
L 570.032732 20.09453 
L 575.153708 19.975408 
L 580.274685 19.86213 
L 585.395661 19.754407 
L 590.516637 19.651966 
L 595.637614 19.554545 
" style="fill:none;stroke:#000000;stroke-linecap:square;stroke-width:1.5;"/>
   </g>
   <g id="line2d_52">
    <path clip-path="url(#p84c4b3eb9e)" d="M 88.660961 247.094034 
L 93.781938 245.668537 
L 98.902914 244.096985 
L 104.02389 242.356079 
L 109.144866 240.41691 
L 114.265843 238.243102 
L 119.386819 235.788184 
L 124.507795 232.991818 
L 129.628772 229.774377 
L 134.749748 226.02923 
L 139.870724 221.612363 
L 144.9917 216.330865 
L 150.112677 209.939418 
L 155.233653 202.176596 
L 160.354629 192.910259 
L 165.475606 182.408759 
L 170.596582 171.429715 
L 175.717558 160.798903 
L 180.838534 150.978083 
L 185.959511 142.076315 
L 191.080487 134.034613 
L 196.201463 126.74667 
L 201.32244 120.107034 
L 206.443416 114.024866 
L 211.564392 108.425373 
L 216.685368 103.247683 
L 221.806345 98.442147 
L 226.927321 93.967931 
L 232.048297 89.791096 
L 237.169274 85.883109 
L 242.29025 82.219705 
L 247.411226 78.780026 
L 252.532202 75.545959 
L 257.653179 72.501624 
L 262.774155 69.632982 
L 267.895131 66.927521 
L 273.016108 64.374016 
L 278.137084 61.962332 
L 283.25806 59.683266 
L 288.379036 57.52842 
L 293.500013 55.490101 
L 298.620989 53.561228 
L 303.741965 51.735267 
L 308.862942 50.006169 
L 313.983918 48.368317 
L 319.104894 46.816486 
L 324.22587 45.345806 
L 329.346847 43.951726 
L 334.467823 42.629991 
L 339.588799 41.376615 
L 344.709776 40.187858 
L 349.830752 39.06021 
L 354.951728 37.990373 
L 360.072704 36.975243 
L 365.193681 36.011899 
L 370.314657 35.097589 
L 375.435633 34.229719 
L 380.55661 33.405843 
L 385.677586 32.623653 
L 390.798562 31.880969 
L 395.919538 31.175733 
L 401.040515 30.506 
L 406.161491 29.869933 
L 411.282467 29.265793 
L 416.403444 28.691936 
L 421.52442 28.146807 
L 426.645396 27.628934 
L 431.766372 27.136925 
L 436.887349 26.669459 
L 442.008325 26.225289 
L 447.129301 25.80323 
L 452.250278 25.402163 
L 457.371254 25.021023 
L 462.49223 24.658805 
L 467.613206 24.314554 
L 472.734183 23.987366 
L 477.855159 23.676382 
L 482.976135 23.380789 
L 488.097112 23.099814 
L 493.218088 22.832726 
L 498.339064 22.578831 
L 503.46004 22.337468 
L 508.581017 22.108013 
L 513.701993 21.889872 
L 518.822969 21.682481 
L 523.943946 21.485305 
L 529.064922 21.297838 
L 534.185898 21.119596 
L 539.306874 20.950122 
L 544.427851 20.788981 
L 549.548827 20.635761 
L 554.669803 20.490069 
L 559.79078 20.351532 
L 564.911756 20.219798 
L 570.032732 20.09453 
L 575.153708 19.975408 
L 580.274685 19.86213 
L 585.395661 19.754407 
L 590.516637 19.651966 
L 595.637614 19.554545 
" style="fill:none;stroke:#000000;stroke-linecap:square;stroke-width:1.5;"/>
   </g>
   <g id="patch_3">
    <path d="M 63.00125 279 
L 63.00125 7.2 
" style="fill:none;stroke:#000000;stroke-linecap:square;stroke-linejoin:miter;stroke-width:0.8;"/>
   </g>
   <g id="patch_4">
    <path d="M 621.00125 279 
L 621.00125 7.2 
" style="fill:none;stroke:#000000;stroke-linecap:square;stroke-linejoin:miter;stroke-width:0.8;"/>
   </g>
   <g id="patch_5">
    <path d="M 63.00125 279 
L 621.00125 279 
" style="fill:none;stroke:#000000;stroke-linecap:square;stroke-linejoin:miter;stroke-width:0.8;"/>
   </g>
   <g id="patch_6">
    <path d="M 63.00125 7.2 
L 621.00125 7.2 
" style="fill:none;stroke:#000000;stroke-linecap:square;stroke-linejoin:miter;stroke-width:0.8;"/>
   </g>
   <g id="legend_1">
    <g id="patch_7">
     <path d="M 428.135938 272 
L 611.20125 272 
Q 614.00125 272 614.00125 269.2 
L 614.00125 126.754375 
Q 614.00125 123.954375 611.20125 123.954375 
L 428.135938 123.954375 
Q 425.335938 123.954375 425.335938 126.754375 
L 425.335938 269.2 
Q 425.335938 272 428.135938 272 
z
" style="fill:#ffffff;opacity:0.8;stroke:#cccccc;stroke-linejoin:miter;"/>
    </g>
    <g id="line2d_53">
     <path d="M 430.935938 135.292187 
L 458.935938 135.292187 
" style="fill:none;stroke:#000000;stroke-linecap:square;stroke-width:1.5;"/>
    </g>
    <g id="line2d_54"/>
    <g id="text_15">
     <!-- Equilibrium Position -->
     <defs>
      <path d="M 9.8125 72.90625 
L 55.90625 72.90625 
L 55.90625 64.59375 
L 19.671875 64.59375 
L 19.671875 43.015625 
L 54.390625 43.015625 
L 54.390625 34.71875 
L 19.671875 34.71875 
L 19.671875 8.296875 
L 56.78125 8.296875 
L 56.78125 0 
L 9.8125 0 
z
" id="DejaVuSans-69"/>
      <path d="M 14.796875 27.296875 
Q 14.796875 17.390625 18.875 11.75 
Q 22.953125 6.109375 30.078125 6.109375 
Q 37.203125 6.109375 41.296875 11.75 
Q 45.40625 17.390625 45.40625 27.296875 
Q 45.40625 37.203125 41.296875 42.84375 
Q 37.203125 48.484375 30.078125 48.484375 
Q 22.953125 48.484375 18.875 42.84375 
Q 14.796875 37.203125 14.796875 27.296875 
z
M 45.40625 8.203125 
Q 42.578125 3.328125 38.25 0.953125 
Q 33.9375 -1.421875 27.875 -1.421875 
Q 17.96875 -1.421875 11.734375 6.484375 
Q 5.515625 14.40625 5.515625 27.296875 
Q 5.515625 40.1875 11.734375 48.09375 
Q 17.96875 56 27.875 56 
Q 33.9375 56 38.25 53.625 
Q 42.578125 51.265625 45.40625 46.390625 
L 45.40625 54.6875 
L 54.390625 54.6875 
L 54.390625 -20.796875 
L 45.40625 -20.796875 
z
" id="DejaVuSans-113"/>
      <path d="M 9.421875 54.6875 
L 18.40625 54.6875 
L 18.40625 0 
L 9.421875 0 
z
M 9.421875 75.984375 
L 18.40625 75.984375 
L 18.40625 64.59375 
L 9.421875 64.59375 
z
" id="DejaVuSans-105"/>
      <path d="M 9.421875 75.984375 
L 18.40625 75.984375 
L 18.40625 0 
L 9.421875 0 
z
" id="DejaVuSans-108"/>
      <path d="M 48.6875 27.296875 
Q 48.6875 37.203125 44.609375 42.84375 
Q 40.53125 48.484375 33.40625 48.484375 
Q 26.265625 48.484375 22.1875 42.84375 
Q 18.109375 37.203125 18.109375 27.296875 
Q 18.109375 17.390625 22.1875 11.75 
Q 26.265625 6.109375 33.40625 6.109375 
Q 40.53125 6.109375 44.609375 11.75 
Q 48.6875 17.390625 48.6875 27.296875 
z
M 18.109375 46.390625 
Q 20.953125 51.265625 25.265625 53.625 
Q 29.59375 56 35.59375 56 
Q 45.5625 56 51.78125 48.09375 
Q 58.015625 40.1875 58.015625 27.296875 
Q 58.015625 14.40625 51.78125 6.484375 
Q 45.5625 -1.421875 35.59375 -1.421875 
Q 29.59375 -1.421875 25.265625 0.953125 
Q 20.953125 3.328125 18.109375 8.203125 
L 18.109375 0 
L 9.078125 0 
L 9.078125 75.984375 
L 18.109375 75.984375 
z
" id="DejaVuSans-98"/>
      <path d="M 41.109375 46.296875 
Q 39.59375 47.171875 37.8125 47.578125 
Q 36.03125 48 33.890625 48 
Q 26.265625 48 22.1875 43.046875 
Q 18.109375 38.09375 18.109375 28.8125 
L 18.109375 0 
L 9.078125 0 
L 9.078125 54.6875 
L 18.109375 54.6875 
L 18.109375 46.1875 
Q 20.953125 51.171875 25.484375 53.578125 
Q 30.03125 56 36.53125 56 
Q 37.453125 56 38.578125 55.875 
Q 39.703125 55.765625 41.0625 55.515625 
z
" id="DejaVuSans-114"/>
      <path d="M 19.671875 64.796875 
L 19.671875 37.40625 
L 32.078125 37.40625 
Q 38.96875 37.40625 42.71875 40.96875 
Q 46.484375 44.53125 46.484375 51.125 
Q 46.484375 57.671875 42.71875 61.234375 
Q 38.96875 64.796875 32.078125 64.796875 
z
M 9.8125 72.90625 
L 32.078125 72.90625 
Q 44.34375 72.90625 50.609375 67.359375 
Q 56.890625 61.8125 56.890625 51.125 
Q 56.890625 40.328125 50.609375 34.8125 
Q 44.34375 29.296875 32.078125 29.296875 
L 19.671875 29.296875 
L 19.671875 0 
L 9.8125 0 
z
" id="DejaVuSans-80"/>
      <path d="M 30.609375 48.390625 
Q 23.390625 48.390625 19.1875 42.75 
Q 14.984375 37.109375 14.984375 27.296875 
Q 14.984375 17.484375 19.15625 11.84375 
Q 23.34375 6.203125 30.609375 6.203125 
Q 37.796875 6.203125 41.984375 11.859375 
Q 46.1875 17.53125 46.1875 27.296875 
Q 46.1875 37.015625 41.984375 42.703125 
Q 37.796875 48.390625 30.609375 48.390625 
z
M 30.609375 56 
Q 42.328125 56 49.015625 48.375 
Q 55.71875 40.765625 55.71875 27.296875 
Q 55.71875 13.875 49.015625 6.21875 
Q 42.328125 -1.421875 30.609375 -1.421875 
Q 18.84375 -1.421875 12.171875 6.21875 
Q 5.515625 13.875 5.515625 27.296875 
Q 5.515625 40.765625 12.171875 48.375 
Q 18.84375 56 30.609375 56 
z
" id="DejaVuSans-111"/>
      <path d="M 44.28125 53.078125 
L 44.28125 44.578125 
Q 40.484375 46.53125 36.375 47.5 
Q 32.28125 48.484375 27.875 48.484375 
Q 21.1875 48.484375 17.84375 46.4375 
Q 14.5 44.390625 14.5 40.28125 
Q 14.5 37.15625 16.890625 35.375 
Q 19.28125 33.59375 26.515625 31.984375 
L 29.59375 31.296875 
Q 39.15625 29.25 43.1875 25.515625 
Q 47.21875 21.78125 47.21875 15.09375 
Q 47.21875 7.46875 41.1875 3.015625 
Q 35.15625 -1.421875 24.609375 -1.421875 
Q 20.21875 -1.421875 15.453125 -0.5625 
Q 10.6875 0.296875 5.421875 2 
L 5.421875 11.28125 
Q 10.40625 8.6875 15.234375 7.390625 
Q 20.0625 6.109375 24.8125 6.109375 
Q 31.15625 6.109375 34.5625 8.28125 
Q 37.984375 10.453125 37.984375 14.40625 
Q 37.984375 18.0625 35.515625 20.015625 
Q 33.0625 21.96875 24.703125 23.78125 
L 21.578125 24.515625 
Q 13.234375 26.265625 9.515625 29.90625 
Q 5.8125 33.546875 5.8125 39.890625 
Q 5.8125 47.609375 11.28125 51.796875 
Q 16.75 56 26.8125 56 
Q 31.78125 56 36.171875 55.265625 
Q 40.578125 54.546875 44.28125 53.078125 
z
" id="DejaVuSans-115"/>
      <path d="M 18.3125 70.21875 
L 18.3125 54.6875 
L 36.8125 54.6875 
L 36.8125 47.703125 
L 18.3125 47.703125 
L 18.3125 18.015625 
Q 18.3125 11.328125 20.140625 9.421875 
Q 21.96875 7.515625 27.59375 7.515625 
L 36.8125 7.515625 
L 36.8125 0 
L 27.59375 0 
Q 17.1875 0 13.234375 3.875 
Q 9.28125 7.765625 9.28125 18.015625 
L 9.28125 47.703125 
L 2.6875 47.703125 
L 2.6875 54.6875 
L 9.28125 54.6875 
L 9.28125 70.21875 
z
" id="DejaVuSans-116"/>
      <path d="M 54.890625 33.015625 
L 54.890625 0 
L 45.90625 0 
L 45.90625 32.71875 
Q 45.90625 40.484375 42.875 44.328125 
Q 39.84375 48.1875 33.796875 48.1875 
Q 26.515625 48.1875 22.3125 43.546875 
Q 18.109375 38.921875 18.109375 30.90625 
L 18.109375 0 
L 9.078125 0 
L 9.078125 54.6875 
L 18.109375 54.6875 
L 18.109375 46.1875 
Q 21.34375 51.125 25.703125 53.5625 
Q 30.078125 56 35.796875 56 
Q 45.21875 56 50.046875 50.171875 
Q 54.890625 44.34375 54.890625 33.015625 
z
" id="DejaVuSans-110"/>
     </defs>
     <g transform="translate(470.135938 140.192187)scale(0.14 -0.14)">
      <use xlink:href="#DejaVuSans-69"/>
      <use x="63.183594" xlink:href="#DejaVuSans-113"/>
      <use x="126.660156" xlink:href="#DejaVuSans-117"/>
      <use x="190.039062" xlink:href="#DejaVuSans-105"/>
      <use x="217.822266" xlink:href="#DejaVuSans-108"/>
      <use x="245.605469" xlink:href="#DejaVuSans-105"/>
      <use x="273.388672" xlink:href="#DejaVuSans-98"/>
      <use x="336.865234" xlink:href="#DejaVuSans-114"/>
      <use x="377.978516" xlink:href="#DejaVuSans-105"/>
      <use x="405.761719" xlink:href="#DejaVuSans-117"/>
      <use x="469.140625" xlink:href="#DejaVuSans-109"/>
      <use x="566.552734" xlink:href="#DejaVuSans-32"/>
      <use x="598.339844" xlink:href="#DejaVuSans-80"/>
      <use x="655.017578" xlink:href="#DejaVuSans-111"/>
      <use x="716.199219" xlink:href="#DejaVuSans-115"/>
      <use x="768.298828" xlink:href="#DejaVuSans-105"/>
      <use x="796.082031" xlink:href="#DejaVuSans-116"/>
      <use x="835.291016" xlink:href="#DejaVuSans-105"/>
      <use x="863.074219" xlink:href="#DejaVuSans-111"/>
      <use x="924.255859" xlink:href="#DejaVuSans-110"/>
     </g>
    </g>
    <g id="line2d_55">
     <path d="M 430.935938 155.841562 
L 458.935938 155.841562 
" style="fill:none;stroke:#008000;stroke-linecap:square;stroke-width:1.5;"/>
    </g>
    <g id="line2d_56">
     <g>
      <use style="fill:#008000;stroke:#008000;" x="444.935938" xlink:href="#m13b83665c7" y="155.841562"/>
     </g>
    </g>
    <g id="text_16">
     <!-- Prefrontal -->
     <defs>
      <path d="M 56.203125 29.59375 
L 56.203125 25.203125 
L 14.890625 25.203125 
Q 15.484375 15.921875 20.484375 11.0625 
Q 25.484375 6.203125 34.421875 6.203125 
Q 39.59375 6.203125 44.453125 7.46875 
Q 49.3125 8.734375 54.109375 11.28125 
L 54.109375 2.78125 
Q 49.265625 0.734375 44.1875 -0.34375 
Q 39.109375 -1.421875 33.890625 -1.421875 
Q 20.796875 -1.421875 13.15625 6.1875 
Q 5.515625 13.8125 5.515625 26.8125 
Q 5.515625 40.234375 12.765625 48.109375 
Q 20.015625 56 32.328125 56 
Q 43.359375 56 49.78125 48.890625 
Q 56.203125 41.796875 56.203125 29.59375 
z
M 47.21875 32.234375 
Q 47.125 39.59375 43.09375 43.984375 
Q 39.0625 48.390625 32.421875 48.390625 
Q 24.90625 48.390625 20.390625 44.140625 
Q 15.875 39.890625 15.1875 32.171875 
z
" id="DejaVuSans-101"/>
      <path d="M 37.109375 75.984375 
L 37.109375 68.5 
L 28.515625 68.5 
Q 23.6875 68.5 21.796875 66.546875 
Q 19.921875 64.59375 19.921875 59.515625 
L 19.921875 54.6875 
L 34.71875 54.6875 
L 34.71875 47.703125 
L 19.921875 47.703125 
L 19.921875 0 
L 10.890625 0 
L 10.890625 47.703125 
L 2.296875 47.703125 
L 2.296875 54.6875 
L 10.890625 54.6875 
L 10.890625 58.5 
Q 10.890625 67.625 15.140625 71.796875 
Q 19.390625 75.984375 28.609375 75.984375 
z
" id="DejaVuSans-102"/>
     </defs>
     <g transform="translate(470.135938 160.741562)scale(0.14 -0.14)">
      <use xlink:href="#DejaVuSans-80"/>
      <use x="58.552734" xlink:href="#DejaVuSans-114"/>
      <use x="97.416016" xlink:href="#DejaVuSans-101"/>
      <use x="158.939453" xlink:href="#DejaVuSans-102"/>
      <use x="194.144531" xlink:href="#DejaVuSans-114"/>
      <use x="233.007812" xlink:href="#DejaVuSans-111"/>
      <use x="294.189453" xlink:href="#DejaVuSans-110"/>
      <use x="357.568359" xlink:href="#DejaVuSans-116"/>
      <use x="396.777344" xlink:href="#DejaVuSans-97"/>
      <use x="458.056641" xlink:href="#DejaVuSans-108"/>
     </g>
    </g>
    <g id="line2d_57">
     <path d="M 430.935938 176.390937 
L 458.935938 176.390937 
" style="fill:none;stroke:#ff8c00;stroke-linecap:square;stroke-width:1.5;"/>
    </g>
    <g id="line2d_58">
     <g>
      <use style="fill:#ff8c00;stroke:#ff8c00;" x="444.935938" xlink:href="#mb4cc3ed8f7" y="176.390937"/>
     </g>
    </g>
    <g id="text_17">
     <!-- Anterolateral -->
     <defs>
      <path d="M 34.1875 63.1875 
L 20.796875 26.90625 
L 47.609375 26.90625 
z
M 28.609375 72.90625 
L 39.796875 72.90625 
L 67.578125 0 
L 57.328125 0 
L 50.6875 18.703125 
L 17.828125 18.703125 
L 11.1875 0 
L 0.78125 0 
z
" id="DejaVuSans-65"/>
     </defs>
     <g transform="translate(470.135938 181.290937)scale(0.14 -0.14)">
      <use xlink:href="#DejaVuSans-65"/>
      <use x="68.408203" xlink:href="#DejaVuSans-110"/>
      <use x="131.787109" xlink:href="#DejaVuSans-116"/>
      <use x="170.996094" xlink:href="#DejaVuSans-101"/>
      <use x="232.519531" xlink:href="#DejaVuSans-114"/>
      <use x="271.382812" xlink:href="#DejaVuSans-111"/>
      <use x="332.564453" xlink:href="#DejaVuSans-108"/>
      <use x="360.347656" xlink:href="#DejaVuSans-97"/>
      <use x="421.626953" xlink:href="#DejaVuSans-116"/>
      <use x="460.835938" xlink:href="#DejaVuSans-101"/>
      <use x="522.359375" xlink:href="#DejaVuSans-114"/>
      <use x="563.472656" xlink:href="#DejaVuSans-97"/>
      <use x="624.751953" xlink:href="#DejaVuSans-108"/>
     </g>
    </g>
    <g id="line2d_59">
     <path d="M 430.935938 196.940312 
L 458.935938 196.940312 
" style="fill:none;stroke:#dda0dd;stroke-linecap:square;stroke-width:1.5;"/>
    </g>
    <g id="line2d_60">
     <g>
      <use style="fill:#dda0dd;stroke:#dda0dd;" x="444.935938" xlink:href="#mf36df4aecd" y="196.940312"/>
     </g>
    </g>
    <g id="text_18">
     <!-- Visual -->
     <g transform="translate(470.135938 201.840312)scale(0.14 -0.14)">
      <use xlink:href="#DejaVuSans-86"/>
      <use x="66.158203" xlink:href="#DejaVuSans-105"/>
      <use x="93.941406" xlink:href="#DejaVuSans-115"/>
      <use x="146.041016" xlink:href="#DejaVuSans-117"/>
      <use x="209.419922" xlink:href="#DejaVuSans-97"/>
      <use x="270.699219" xlink:href="#DejaVuSans-108"/>
     </g>
    </g>
    <g id="line2d_61">
     <path d="M 430.935938 217.489687 
L 458.935938 217.489687 
" style="fill:none;stroke:#ffd700;stroke-linecap:square;stroke-width:1.5;"/>
    </g>
    <g id="line2d_62">
     <g>
      <use style="fill:#ffd700;stroke:#ffd700;" x="444.935938" xlink:href="#m7e926980a9" y="217.489687"/>
     </g>
    </g>
    <g id="text_19">
     <!-- Temporal -->
     <defs>
      <path d="M -0.296875 72.90625 
L 61.375 72.90625 
L 61.375 64.59375 
L 35.5 64.59375 
L 35.5 0 
L 25.59375 0 
L 25.59375 64.59375 
L -0.296875 64.59375 
z
" id="DejaVuSans-84"/>
      <path d="M 18.109375 8.203125 
L 18.109375 -20.796875 
L 9.078125 -20.796875 
L 9.078125 54.6875 
L 18.109375 54.6875 
L 18.109375 46.390625 
Q 20.953125 51.265625 25.265625 53.625 
Q 29.59375 56 35.59375 56 
Q 45.5625 56 51.78125 48.09375 
Q 58.015625 40.1875 58.015625 27.296875 
Q 58.015625 14.40625 51.78125 6.484375 
Q 45.5625 -1.421875 35.59375 -1.421875 
Q 29.59375 -1.421875 25.265625 0.953125 
Q 20.953125 3.328125 18.109375 8.203125 
z
M 48.6875 27.296875 
Q 48.6875 37.203125 44.609375 42.84375 
Q 40.53125 48.484375 33.40625 48.484375 
Q 26.265625 48.484375 22.1875 42.84375 
Q 18.109375 37.203125 18.109375 27.296875 
Q 18.109375 17.390625 22.1875 11.75 
Q 26.265625 6.109375 33.40625 6.109375 
Q 40.53125 6.109375 44.609375 11.75 
Q 48.6875 17.390625 48.6875 27.296875 
z
" id="DejaVuSans-112"/>
     </defs>
     <g transform="translate(470.135938 222.389687)scale(0.14 -0.14)">
      <use xlink:href="#DejaVuSans-84"/>
      <use x="44.083984" xlink:href="#DejaVuSans-101"/>
      <use x="105.607422" xlink:href="#DejaVuSans-109"/>
      <use x="203.019531" xlink:href="#DejaVuSans-112"/>
      <use x="266.496094" xlink:href="#DejaVuSans-111"/>
      <use x="327.677734" xlink:href="#DejaVuSans-114"/>
      <use x="368.791016" xlink:href="#DejaVuSans-97"/>
      <use x="430.070312" xlink:href="#DejaVuSans-108"/>
     </g>
    </g>
    <g id="line2d_63">
     <path d="M 430.935938 238.039062 
L 458.935938 238.039062 
" style="fill:none;stroke:#add8e6;stroke-linecap:square;stroke-width:1.5;"/>
    </g>
    <g id="line2d_64">
     <g>
      <use style="fill:#add8e6;stroke:#add8e6;" x="444.935938" xlink:href="#m65fc1f168e" y="238.039062"/>
     </g>
    </g>
    <g id="text_20">
     <!-- Medial -->
     <defs>
      <path d="M 9.8125 72.90625 
L 24.515625 72.90625 
L 43.109375 23.296875 
L 61.8125 72.90625 
L 76.515625 72.90625 
L 76.515625 0 
L 66.890625 0 
L 66.890625 64.015625 
L 48.09375 14.015625 
L 38.1875 14.015625 
L 19.390625 64.015625 
L 19.390625 0 
L 9.8125 0 
z
" id="DejaVuSans-77"/>
      <path d="M 45.40625 46.390625 
L 45.40625 75.984375 
L 54.390625 75.984375 
L 54.390625 0 
L 45.40625 0 
L 45.40625 8.203125 
Q 42.578125 3.328125 38.25 0.953125 
Q 33.9375 -1.421875 27.875 -1.421875 
Q 17.96875 -1.421875 11.734375 6.484375 
Q 5.515625 14.40625 5.515625 27.296875 
Q 5.515625 40.1875 11.734375 48.09375 
Q 17.96875 56 27.875 56 
Q 33.9375 56 38.25 53.625 
Q 42.578125 51.265625 45.40625 46.390625 
z
M 14.796875 27.296875 
Q 14.796875 17.390625 18.875 11.75 
Q 22.953125 6.109375 30.078125 6.109375 
Q 37.203125 6.109375 41.296875 11.75 
Q 45.40625 17.390625 45.40625 27.296875 
Q 45.40625 37.203125 41.296875 42.84375 
Q 37.203125 48.484375 30.078125 48.484375 
Q 22.953125 48.484375 18.875 42.84375 
Q 14.796875 37.203125 14.796875 27.296875 
z
" id="DejaVuSans-100"/>
     </defs>
     <g transform="translate(470.135938 242.939062)scale(0.14 -0.14)">
      <use xlink:href="#DejaVuSans-77"/>
      <use x="86.279297" xlink:href="#DejaVuSans-101"/>
      <use x="147.802734" xlink:href="#DejaVuSans-100"/>
      <use x="211.279297" xlink:href="#DejaVuSans-105"/>
      <use x="239.0625" xlink:href="#DejaVuSans-97"/>
      <use x="300.341797" xlink:href="#DejaVuSans-108"/>
     </g>
    </g>
    <g id="line2d_65">
     <path d="M 430.935938 258.588437 
L 458.935938 258.588437 
" style="fill:none;stroke:#ffc0cb;stroke-linecap:square;stroke-width:1.5;"/>
    </g>
    <g id="line2d_66">
     <g>
      <use style="fill:#ffc0cb;stroke:#ffc0cb;" x="444.935938" xlink:href="#md1c701a8e5" y="258.588437"/>
     </g>
    </g>
    <g id="text_21">
     <!-- Somatomotor -->
     <defs>
      <path d="M 53.515625 70.515625 
L 53.515625 60.890625 
Q 47.90625 63.578125 42.921875 64.890625 
Q 37.9375 66.21875 33.296875 66.21875 
Q 25.25 66.21875 20.875 63.09375 
Q 16.5 59.96875 16.5 54.203125 
Q 16.5 49.359375 19.40625 46.890625 
Q 22.3125 44.4375 30.421875 42.921875 
L 36.375 41.703125 
Q 47.40625 39.59375 52.65625 34.296875 
Q 57.90625 29 57.90625 20.125 
Q 57.90625 9.515625 50.796875 4.046875 
Q 43.703125 -1.421875 29.984375 -1.421875 
Q 24.8125 -1.421875 18.96875 -0.25 
Q 13.140625 0.921875 6.890625 3.21875 
L 6.890625 13.375 
Q 12.890625 10.015625 18.65625 8.296875 
Q 24.421875 6.59375 29.984375 6.59375 
Q 38.421875 6.59375 43.015625 9.90625 
Q 47.609375 13.234375 47.609375 19.390625 
Q 47.609375 24.75 44.3125 27.78125 
Q 41.015625 30.8125 33.5 32.328125 
L 27.484375 33.5 
Q 16.453125 35.6875 11.515625 40.375 
Q 6.59375 45.0625 6.59375 53.421875 
Q 6.59375 63.09375 13.40625 68.65625 
Q 20.21875 74.21875 32.171875 74.21875 
Q 37.3125 74.21875 42.625 73.28125 
Q 47.953125 72.359375 53.515625 70.515625 
z
" id="DejaVuSans-83"/>
     </defs>
     <g transform="translate(470.135938 263.488437)scale(0.14 -0.14)">
      <use xlink:href="#DejaVuSans-83"/>
      <use x="63.476562" xlink:href="#DejaVuSans-111"/>
      <use x="124.658203" xlink:href="#DejaVuSans-109"/>
      <use x="222.070312" xlink:href="#DejaVuSans-97"/>
      <use x="283.349609" xlink:href="#DejaVuSans-116"/>
      <use x="322.558594" xlink:href="#DejaVuSans-111"/>
      <use x="383.740234" xlink:href="#DejaVuSans-109"/>
      <use x="481.152344" xlink:href="#DejaVuSans-111"/>
      <use x="542.333984" xlink:href="#DejaVuSans-116"/>
      <use x="581.542969" xlink:href="#DejaVuSans-111"/>
      <use x="642.724609" xlink:href="#DejaVuSans-114"/>
     </g>
    </g>
   </g>
  </g>
 </g>
 <defs>
  <clipPath id="p84c4b3eb9e">
   <rect height="271.8" width="558" x="63.00125" y="7.2"/>
  </clipPath>
 </defs>
</svg>
