<?xml version="1.0" encoding="utf-8" standalone="no"?>
<!DOCTYPE svg PUBLIC "-//W3C//DTD SVG 1.1//EN"
  "http://www.w3.org/Graphics/SVG/1.1/DTD/svg11.dtd">
<!-- Created with matplotlib (https://matplotlib.org/) -->
<svg height="353.281875pt" version="1.1" viewBox="0 0 628.20125 353.281875" width="628.20125pt" xmlns="http://www.w3.org/2000/svg" xmlns:xlink="http://www.w3.org/1999/xlink">
 <defs>
  <style type="text/css">
*{stroke-linecap:butt;stroke-linejoin:round;}
  </style>
 </defs>
 <g id="figure_1">
  <g id="patch_1">
   <path d="M 0 353.281875 
L 628.20125 353.281875 
L 628.20125 0 
L 0 0 
z
" style="fill:none;"/>
  </g>
  <g id="axes_1">
   <g id="patch_2">
    <path d="M 63.00125 300.196875 
L 621.00125 300.196875 
L 621.00125 28.396875 
L 63.00125 28.396875 
z
" style="fill:#ffffff;"/>
   </g>
   <g id="matplotlib.axis_1">
    <g id="xtick_1">
     <g id="line2d_1">
      <defs>
       <path d="M 0 0 
L 0 3.5 
" id="me978fa7869" style="stroke:#000000;stroke-width:0.8;"/>
      </defs>
      <g>
       <use style="stroke:#000000;stroke-width:0.8;" x="88.364886" xlink:href="#me978fa7869" y="300.196875"/>
      </g>
     </g>
     <g id="text_1">
      <!-- 0 -->
      <defs>
       <path d="M 31.78125 66.40625 
Q 24.171875 66.40625 20.328125 58.90625 
Q 16.5 51.421875 16.5 36.375 
Q 16.5 21.390625 20.328125 13.890625 
Q 24.171875 6.390625 31.78125 6.390625 
Q 39.453125 6.390625 43.28125 13.890625 
Q 47.125 21.390625 47.125 36.375 
Q 47.125 51.421875 43.28125 58.90625 
Q 39.453125 66.40625 31.78125 66.40625 
z
M 31.78125 74.21875 
Q 44.046875 74.21875 50.515625 64.515625 
Q 56.984375 54.828125 56.984375 36.375 
Q 56.984375 17.96875 50.515625 8.265625 
Q 44.046875 -1.421875 31.78125 -1.421875 
Q 19.53125 -1.421875 13.0625 8.265625 
Q 6.59375 17.96875 6.59375 36.375 
Q 6.59375 54.828125 13.0625 64.515625 
Q 19.53125 74.21875 31.78125 74.21875 
z
" id="DejaVuSans-48"/>
      </defs>
      <g transform="translate(83.274886 319.354375)scale(0.16 -0.16)">
       <use xlink:href="#DejaVuSans-48"/>
      </g>
     </g>
    </g>
    <g id="xtick_2">
     <g id="line2d_2">
      <g>
       <use style="stroke:#000000;stroke-width:0.8;" x="190.844225" xlink:href="#me978fa7869" y="300.196875"/>
      </g>
     </g>
     <g id="text_2">
      <!-- 1 -->
      <defs>
       <path d="M 12.40625 8.296875 
L 28.515625 8.296875 
L 28.515625 63.921875 
L 10.984375 60.40625 
L 10.984375 69.390625 
L 28.421875 72.90625 
L 38.28125 72.90625 
L 38.28125 8.296875 
L 54.390625 8.296875 
L 54.390625 0 
L 12.40625 0 
z
" id="DejaVuSans-49"/>
      </defs>
      <g transform="translate(185.754225 319.354375)scale(0.16 -0.16)">
       <use xlink:href="#DejaVuSans-49"/>
      </g>
     </g>
    </g>
    <g id="xtick_3">
     <g id="line2d_3">
      <g>
       <use style="stroke:#000000;stroke-width:0.8;" x="293.323564" xlink:href="#me978fa7869" y="300.196875"/>
      </g>
     </g>
     <g id="text_3">
      <!-- 2 -->
      <defs>
       <path d="M 19.1875 8.296875 
L 53.609375 8.296875 
L 53.609375 0 
L 7.328125 0 
L 7.328125 8.296875 
Q 12.9375 14.109375 22.625 23.890625 
Q 32.328125 33.6875 34.8125 36.53125 
Q 39.546875 41.84375 41.421875 45.53125 
Q 43.3125 49.21875 43.3125 52.78125 
Q 43.3125 58.59375 39.234375 62.25 
Q 35.15625 65.921875 28.609375 65.921875 
Q 23.96875 65.921875 18.8125 64.3125 
Q 13.671875 62.703125 7.8125 59.421875 
L 7.8125 69.390625 
Q 13.765625 71.78125 18.9375 73 
Q 24.125 74.21875 28.421875 74.21875 
Q 39.75 74.21875 46.484375 68.546875 
Q 53.21875 62.890625 53.21875 53.421875 
Q 53.21875 48.921875 51.53125 44.890625 
Q 49.859375 40.875 45.40625 35.40625 
Q 44.1875 33.984375 37.640625 27.21875 
Q 31.109375 20.453125 19.1875 8.296875 
z
" id="DejaVuSans-50"/>
      </defs>
      <g transform="translate(288.233564 319.354375)scale(0.16 -0.16)">
       <use xlink:href="#DejaVuSans-50"/>
      </g>
     </g>
    </g>
    <g id="xtick_4">
     <g id="line2d_4">
      <g>
       <use style="stroke:#000000;stroke-width:0.8;" x="395.802903" xlink:href="#me978fa7869" y="300.196875"/>
      </g>
     </g>
     <g id="text_4">
      <!-- 3 -->
      <defs>
       <path d="M 40.578125 39.3125 
Q 47.65625 37.796875 51.625 33 
Q 55.609375 28.21875 55.609375 21.1875 
Q 55.609375 10.40625 48.1875 4.484375 
Q 40.765625 -1.421875 27.09375 -1.421875 
Q 22.515625 -1.421875 17.65625 -0.515625 
Q 12.796875 0.390625 7.625 2.203125 
L 7.625 11.71875 
Q 11.71875 9.328125 16.59375 8.109375 
Q 21.484375 6.890625 26.8125 6.890625 
Q 36.078125 6.890625 40.9375 10.546875 
Q 45.796875 14.203125 45.796875 21.1875 
Q 45.796875 27.640625 41.28125 31.265625 
Q 36.765625 34.90625 28.71875 34.90625 
L 20.21875 34.90625 
L 20.21875 43.015625 
L 29.109375 43.015625 
Q 36.375 43.015625 40.234375 45.921875 
Q 44.09375 48.828125 44.09375 54.296875 
Q 44.09375 59.90625 40.109375 62.90625 
Q 36.140625 65.921875 28.71875 65.921875 
Q 24.65625 65.921875 20.015625 65.03125 
Q 15.375 64.15625 9.8125 62.3125 
L 9.8125 71.09375 
Q 15.4375 72.65625 20.34375 73.4375 
Q 25.25 74.21875 29.59375 74.21875 
Q 40.828125 74.21875 47.359375 69.109375 
Q 53.90625 64.015625 53.90625 55.328125 
Q 53.90625 49.265625 50.4375 45.09375 
Q 46.96875 40.921875 40.578125 39.3125 
z
" id="DejaVuSans-51"/>
      </defs>
      <g transform="translate(390.712903 319.354375)scale(0.16 -0.16)">
       <use xlink:href="#DejaVuSans-51"/>
      </g>
     </g>
    </g>
    <g id="xtick_5">
     <g id="line2d_5">
      <g>
       <use style="stroke:#000000;stroke-width:0.8;" x="498.282242" xlink:href="#me978fa7869" y="300.196875"/>
      </g>
     </g>
     <g id="text_5">
      <!-- 4 -->
      <defs>
       <path d="M 37.796875 64.3125 
L 12.890625 25.390625 
L 37.796875 25.390625 
z
M 35.203125 72.90625 
L 47.609375 72.90625 
L 47.609375 25.390625 
L 58.015625 25.390625 
L 58.015625 17.1875 
L 47.609375 17.1875 
L 47.609375 0 
L 37.796875 0 
L 37.796875 17.1875 
L 4.890625 17.1875 
L 4.890625 26.703125 
z
" id="DejaVuSans-52"/>
      </defs>
      <g transform="translate(493.192242 319.354375)scale(0.16 -0.16)">
       <use xlink:href="#DejaVuSans-52"/>
      </g>
     </g>
    </g>
    <g id="xtick_6">
     <g id="line2d_6">
      <g>
       <use style="stroke:#000000;stroke-width:0.8;" x="600.761581" xlink:href="#me978fa7869" y="300.196875"/>
      </g>
     </g>
     <g id="text_6">
      <!-- 5 -->
      <defs>
       <path d="M 10.796875 72.90625 
L 49.515625 72.90625 
L 49.515625 64.59375 
L 19.828125 64.59375 
L 19.828125 46.734375 
Q 21.96875 47.46875 24.109375 47.828125 
Q 26.265625 48.1875 28.421875 48.1875 
Q 40.625 48.1875 47.75 41.5 
Q 54.890625 34.8125 54.890625 23.390625 
Q 54.890625 11.625 47.5625 5.09375 
Q 40.234375 -1.421875 26.90625 -1.421875 
Q 22.3125 -1.421875 17.546875 -0.640625 
Q 12.796875 0.140625 7.71875 1.703125 
L 7.71875 11.625 
Q 12.109375 9.234375 16.796875 8.0625 
Q 21.484375 6.890625 26.703125 6.890625 
Q 35.15625 6.890625 40.078125 11.328125 
Q 45.015625 15.765625 45.015625 23.390625 
Q 45.015625 31 40.078125 35.4375 
Q 35.15625 39.890625 26.703125 39.890625 
Q 22.75 39.890625 18.8125 39.015625 
Q 14.890625 38.140625 10.796875 36.28125 
z
" id="DejaVuSans-53"/>
      </defs>
      <g transform="translate(595.671581 319.354375)scale(0.16 -0.16)">
       <use xlink:href="#DejaVuSans-53"/>
      </g>
     </g>
    </g>
    <g id="text_7">
     <!-- $J_e$ (mV) -->
     <defs>
      <path d="M 16.703125 72.90625 
L 26.609375 72.90625 
L 13.375 5.078125 
Q 10.796875 -8.15625 4.65625 -14.078125 
Q -1.46875 -20.015625 -12.5 -20.015625 
L -16.40625 -20.015625 
L -14.796875 -11.71875 
L -11.71875 -11.71875 
Q -5.125 -11.71875 -1.703125 -7.953125 
Q 1.703125 -4.203125 3.515625 5.078125 
z
" id="DejaVuSans-Oblique-74"/>
      <path d="M 48.09375 32.234375 
Q 48.25 33.015625 48.3125 33.84375 
Q 48.390625 34.671875 48.390625 35.5 
Q 48.390625 41.453125 44.890625 44.921875 
Q 41.40625 48.390625 35.40625 48.390625 
Q 28.71875 48.390625 23.578125 44.15625 
Q 18.453125 39.9375 15.828125 32.171875 
z
M 55.90625 25.203125 
L 14.109375 25.203125 
Q 13.8125 23.34375 13.71875 22.265625 
Q 13.625 21.1875 13.625 20.40625 
Q 13.625 13.625 17.796875 9.90625 
Q 21.96875 6.203125 29.59375 6.203125 
Q 35.453125 6.203125 40.671875 7.515625 
Q 45.90625 8.84375 50.390625 11.375 
L 48.6875 2.484375 
Q 43.84375 0.53125 38.6875 -0.4375 
Q 33.546875 -1.421875 28.21875 -1.421875 
Q 16.84375 -1.421875 10.71875 4.015625 
Q 4.59375 9.46875 4.59375 19.484375 
Q 4.59375 28.03125 7.640625 35.375 
Q 10.6875 42.71875 16.609375 48.484375 
Q 20.40625 52.09375 25.65625 54.046875 
Q 30.90625 56 36.8125 56 
Q 46.09375 56 51.578125 50.4375 
Q 57.078125 44.875 57.078125 35.5 
Q 57.078125 33.25 56.78125 30.6875 
Q 56.5 28.125 55.90625 25.203125 
z
" id="DejaVuSans-Oblique-101"/>
      <path id="DejaVuSans-32"/>
      <path d="M 31 75.875 
Q 24.46875 64.65625 21.28125 53.65625 
Q 18.109375 42.671875 18.109375 31.390625 
Q 18.109375 20.125 21.3125 9.0625 
Q 24.515625 -2 31 -13.1875 
L 23.1875 -13.1875 
Q 15.875 -1.703125 12.234375 9.375 
Q 8.59375 20.453125 8.59375 31.390625 
Q 8.59375 42.28125 12.203125 53.3125 
Q 15.828125 64.359375 23.1875 75.875 
z
" id="DejaVuSans-40"/>
      <path d="M 52 44.1875 
Q 55.375 50.25 60.0625 53.125 
Q 64.75 56 71.09375 56 
Q 79.640625 56 84.28125 50.015625 
Q 88.921875 44.046875 88.921875 33.015625 
L 88.921875 0 
L 79.890625 0 
L 79.890625 32.71875 
Q 79.890625 40.578125 77.09375 44.375 
Q 74.3125 48.1875 68.609375 48.1875 
Q 61.625 48.1875 57.5625 43.546875 
Q 53.515625 38.921875 53.515625 30.90625 
L 53.515625 0 
L 44.484375 0 
L 44.484375 32.71875 
Q 44.484375 40.625 41.703125 44.40625 
Q 38.921875 48.1875 33.109375 48.1875 
Q 26.21875 48.1875 22.15625 43.53125 
Q 18.109375 38.875 18.109375 30.90625 
L 18.109375 0 
L 9.078125 0 
L 9.078125 54.6875 
L 18.109375 54.6875 
L 18.109375 46.1875 
Q 21.1875 51.21875 25.484375 53.609375 
Q 29.78125 56 35.6875 56 
Q 41.65625 56 45.828125 52.96875 
Q 50 49.953125 52 44.1875 
z
" id="DejaVuSans-109"/>
      <path d="M 28.609375 0 
L 0.78125 72.90625 
L 11.078125 72.90625 
L 34.1875 11.53125 
L 57.328125 72.90625 
L 67.578125 72.90625 
L 39.796875 0 
z
" id="DejaVuSans-86"/>
      <path d="M 8.015625 75.875 
L 15.828125 75.875 
Q 23.140625 64.359375 26.78125 53.3125 
Q 30.421875 42.28125 30.421875 31.390625 
Q 30.421875 20.453125 26.78125 9.375 
Q 23.140625 -1.703125 15.828125 -13.1875 
L 8.015625 -13.1875 
Q 14.5 -2 17.703125 9.0625 
Q 20.90625 20.125 20.90625 31.390625 
Q 20.90625 42.671875 17.703125 53.65625 
Q 14.5 64.65625 8.015625 75.875 
z
" id="DejaVuSans-41"/>
     </defs>
     <g transform="translate(306.90125 341.881875)scale(0.2 -0.2)">
      <use transform="translate(0 0.125)" xlink:href="#DejaVuSans-Oblique-74"/>
      <use transform="translate(29.492188 -16.28125)scale(0.7)" xlink:href="#DejaVuSans-Oblique-101"/>
      <use transform="translate(75.292969 0.125)" xlink:href="#DejaVuSans-32"/>
      <use transform="translate(107.080078 0.125)" xlink:href="#DejaVuSans-40"/>
      <use transform="translate(146.09375 0.125)" xlink:href="#DejaVuSans-109"/>
      <use transform="translate(243.505859 0.125)" xlink:href="#DejaVuSans-86"/>
      <use transform="translate(311.914062 0.125)" xlink:href="#DejaVuSans-41"/>
     </g>
    </g>
   </g>
   <g id="matplotlib.axis_2">
    <g id="ytick_1">
     <g id="line2d_7">
      <defs>
       <path d="M 0 0 
L -3.5 0 
" id="m3ff965ed8f" style="stroke:#000000;stroke-width:0.8;"/>
      </defs>
      <g>
       <use style="stroke:#000000;stroke-width:0.8;" x="63.00125" xlink:href="#m3ff965ed8f" y="298.318261"/>
      </g>
     </g>
     <g id="text_8">
      <!-- 0.0 -->
      <defs>
       <path d="M 10.6875 12.40625 
L 21 12.40625 
L 21 0 
L 10.6875 0 
z
" id="DejaVuSans-46"/>
      </defs>
      <g transform="translate(30.55625 304.397011)scale(0.16 -0.16)">
       <use xlink:href="#DejaVuSans-48"/>
       <use x="63.623047" xlink:href="#DejaVuSans-46"/>
       <use x="95.410156" xlink:href="#DejaVuSans-48"/>
      </g>
     </g>
    </g>
    <g id="ytick_2">
     <g id="line2d_8">
      <g>
       <use style="stroke:#000000;stroke-width:0.8;" x="63.00125" xlink:href="#m3ff965ed8f" y="246.793376"/>
      </g>
     </g>
     <g id="text_9">
      <!-- 0.1 -->
      <g transform="translate(30.55625 252.872126)scale(0.16 -0.16)">
       <use xlink:href="#DejaVuSans-48"/>
       <use x="63.623047" xlink:href="#DejaVuSans-46"/>
       <use x="95.410156" xlink:href="#DejaVuSans-49"/>
      </g>
     </g>
    </g>
    <g id="ytick_3">
     <g id="line2d_9">
      <g>
       <use style="stroke:#000000;stroke-width:0.8;" x="63.00125" xlink:href="#m3ff965ed8f" y="195.268492"/>
      </g>
     </g>
     <g id="text_10">
      <!-- 0.2 -->
      <g transform="translate(30.55625 201.347242)scale(0.16 -0.16)">
       <use xlink:href="#DejaVuSans-48"/>
       <use x="63.623047" xlink:href="#DejaVuSans-46"/>
       <use x="95.410156" xlink:href="#DejaVuSans-50"/>
      </g>
     </g>
    </g>
    <g id="ytick_4">
     <g id="line2d_10">
      <g>
       <use style="stroke:#000000;stroke-width:0.8;" x="63.00125" xlink:href="#m3ff965ed8f" y="143.743607"/>
      </g>
     </g>
     <g id="text_11">
      <!-- 0.3 -->
      <g transform="translate(30.55625 149.822357)scale(0.16 -0.16)">
       <use xlink:href="#DejaVuSans-48"/>
       <use x="63.623047" xlink:href="#DejaVuSans-46"/>
       <use x="95.410156" xlink:href="#DejaVuSans-51"/>
      </g>
     </g>
    </g>
    <g id="ytick_5">
     <g id="line2d_11">
      <g>
       <use style="stroke:#000000;stroke-width:0.8;" x="63.00125" xlink:href="#m3ff965ed8f" y="92.218723"/>
      </g>
     </g>
     <g id="text_12">
      <!-- 0.4 -->
      <g transform="translate(30.55625 98.297473)scale(0.16 -0.16)">
       <use xlink:href="#DejaVuSans-48"/>
       <use x="63.623047" xlink:href="#DejaVuSans-46"/>
       <use x="95.410156" xlink:href="#DejaVuSans-52"/>
      </g>
     </g>
    </g>
    <g id="ytick_6">
     <g id="line2d_12">
      <g>
       <use style="stroke:#000000;stroke-width:0.8;" x="63.00125" xlink:href="#m3ff965ed8f" y="40.693838"/>
      </g>
     </g>
     <g id="text_13">
      <!-- 0.5 -->
      <g transform="translate(30.55625 46.772588)scale(0.16 -0.16)">
       <use xlink:href="#DejaVuSans-48"/>
       <use x="63.623047" xlink:href="#DejaVuSans-46"/>
       <use x="95.410156" xlink:href="#DejaVuSans-53"/>
      </g>
     </g>
    </g>
    <g id="text_14">
     <!-- $E$ (au) -->
     <defs>
      <path d="M 16.890625 72.90625 
L 62.984375 72.90625 
L 61.375 64.59375 
L 25.09375 64.59375 
L 20.90625 43.015625 
L 55.71875 43.015625 
L 54.109375 34.71875 
L 19.28125 34.71875 
L 14.203125 8.296875 
L 51.3125 8.296875 
L 49.703125 0 
L 2.6875 0 
z
" id="DejaVuSans-Oblique-69"/>
      <path d="M 34.28125 27.484375 
Q 23.390625 27.484375 19.1875 25 
Q 14.984375 22.515625 14.984375 16.5 
Q 14.984375 11.71875 18.140625 8.90625 
Q 21.296875 6.109375 26.703125 6.109375 
Q 34.1875 6.109375 38.703125 11.40625 
Q 43.21875 16.703125 43.21875 25.484375 
L 43.21875 27.484375 
z
M 52.203125 31.203125 
L 52.203125 0 
L 43.21875 0 
L 43.21875 8.296875 
Q 40.140625 3.328125 35.546875 0.953125 
Q 30.953125 -1.421875 24.3125 -1.421875 
Q 15.921875 -1.421875 10.953125 3.296875 
Q 6 8.015625 6 15.921875 
Q 6 25.140625 12.171875 29.828125 
Q 18.359375 34.515625 30.609375 34.515625 
L 43.21875 34.515625 
L 43.21875 35.40625 
Q 43.21875 41.609375 39.140625 45 
Q 35.0625 48.390625 27.6875 48.390625 
Q 23 48.390625 18.546875 47.265625 
Q 14.109375 46.140625 10.015625 43.890625 
L 10.015625 52.203125 
Q 14.9375 54.109375 19.578125 55.046875 
Q 24.21875 56 28.609375 56 
Q 40.484375 56 46.34375 49.84375 
Q 52.203125 43.703125 52.203125 31.203125 
z
" id="DejaVuSans-97"/>
      <path d="M 8.5 21.578125 
L 8.5 54.6875 
L 17.484375 54.6875 
L 17.484375 21.921875 
Q 17.484375 14.15625 20.5 10.265625 
Q 23.53125 6.390625 29.59375 6.390625 
Q 36.859375 6.390625 41.078125 11.03125 
Q 45.3125 15.671875 45.3125 23.6875 
L 45.3125 54.6875 
L 54.296875 54.6875 
L 54.296875 0 
L 45.3125 0 
L 45.3125 8.40625 
Q 42.046875 3.421875 37.71875 1 
Q 33.40625 -1.421875 27.6875 -1.421875 
Q 18.265625 -1.421875 13.375 4.4375 
Q 8.5 10.296875 8.5 21.578125 
z
M 31.109375 56 
z
" id="DejaVuSans-117"/>
     </defs>
     <g transform="translate(22.396875 194.096875)rotate(-90)scale(0.2 -0.2)">
      <use transform="translate(0 0.125)" xlink:href="#DejaVuSans-Oblique-69"/>
      <use transform="translate(63.183594 0.125)" xlink:href="#DejaVuSans-32"/>
      <use transform="translate(94.970703 0.125)" xlink:href="#DejaVuSans-40"/>
      <use transform="translate(133.984375 0.125)" xlink:href="#DejaVuSans-97"/>
      <use transform="translate(195.263672 0.125)" xlink:href="#DejaVuSans-117"/>
      <use transform="translate(258.642578 0.125)" xlink:href="#DejaVuSans-41"/>
     </g>
    </g>
   </g>
   <g id="line2d_13">
    <path clip-path="url(#pcb7aef909e)" d="M 88.364886 280.856203 
L 93.488853 279.844529 
L 98.61282 278.769946 
L 103.736787 277.628501 
L 108.860754 276.416095 
L 113.984721 275.128516 
L 119.108688 273.761484 
L 124.232655 272.310716 
L 129.356622 270.772006 
L 134.480589 269.141326 
L 139.604556 267.414955 
L 144.728523 265.589612 
L 149.85249 263.662631 
L 154.976457 261.632123 
L 160.100424 259.497155 
L 165.22439 257.257911 
L 170.348357 254.915817 
L 175.472324 252.473632 
L 180.596291 249.93546 
L 185.720258 247.306691 
L 190.844225 244.593868 
L 195.968192 241.80447 
L 201.092159 238.946645 
L 206.216126 236.028909 
L 211.340093 233.059835 
L 216.46406 230.047764 
L 221.588027 227.000562 
L 226.711994 223.925228 
L 231.835961 220.821588 
L 236.959928 195.019244 
L 242.083895 170.465889 
L 247.207862 153.542652 
L 252.331829 140.399901 
L 257.455795 129.893235 
L 262.579762 121.365967 
L 267.703729 114.355263 
L 272.827696 108.518812 
L 277.951663 103.601329 
L 283.07563 99.412385 
L 288.199597 95.808895 
L 293.323564 92.683597 
L 298.447531 89.954934 
L 303.571498 87.56085 
L 308.695465 85.454023 
L 313.819432 83.59883 
L 318.943399 81.968773 
L 324.067366 80.545409 
L 329.191333 79.31735 
L 334.3153 78.280544 
L 339.439267 77.43871 
L 344.563233 76.805208 
L 349.6872 76.406325 
L 354.811167 76.286718 
L 359.935134 76.519683 
L 365.059101 77.224597 
L 370.183068 78.600257 
L 375.307035 80.993881 
L 380.431002 85.071287 
L 385.554969 92.447171 
L 390.678936 113.43589 
L 395.802903 116.866221 
L 400.92687 113.383659 
L 406.050837 109.921632 
L 411.174804 106.494421 
L 416.298771 103.117368 
L 421.422738 99.806597 
L 426.546705 96.578253 
L 431.670671 93.447661 
L 436.794638 90.428524 
L 441.918605 87.532246 
L 447.042572 84.767488 
L 452.166539 82.139981 
L 457.290506 79.652589 
L 462.414473 77.305568 
L 467.53844 75.096957 
L 472.662407 73.023024 
L 477.786374 71.078721 
L 482.910341 69.258092 
L 488.034308 67.554624 
L 493.158275 65.961535 
L 498.282242 64.471991 
L 503.406209 63.079266 
L 508.530176 61.776854 
L 513.654143 60.558547 
L 518.77811 59.418472 
L 523.902076 58.351118 
L 529.026043 57.351339 
L 534.15001 56.414352 
L 539.273977 55.53572 
L 544.397944 54.71134 
L 549.521911 53.937418 
L 554.645878 53.210454 
L 559.769845 52.527217 
L 564.893812 51.884728 
L 570.017779 51.280234 
L 575.141746 50.711197 
L 580.265713 50.175271 
L 585.38968 49.67029 
L 590.513647 49.194248 
L 595.637614 48.74529 
" style="fill:none;stroke:#000000;stroke-linecap:square;stroke-width:1.5;"/>
   </g>
   <g id="line2d_14">
    <path clip-path="url(#pcb7aef909e)" d="M 88.364886 286.283904 
L 93.488853 285.667947 
L 98.61282 285.020849 
L 103.736787 284.341113 
L 108.860754 283.627184 
L 113.984721 282.877448 
L 119.108688 282.090238 
L 124.232655 281.263827 
L 129.356622 280.396439 
L 134.480589 279.486245 
L 139.604556 278.531371 
L 144.728523 277.529902 
L 149.85249 276.479888 
L 154.976457 275.379354 
L 160.100424 274.226305 
L 165.22439 273.018742 
L 170.348357 271.754673 
L 175.472324 270.432128 
L 180.596291 269.049176 
L 185.720258 267.603948 
L 190.844225 266.094652 
L 195.968192 264.519604 
L 201.092159 262.877252 
L 206.216126 261.166203 
L 211.340093 259.385251 
L 216.46406 257.533411 
L 221.588027 255.609949 
L 226.711994 253.61441 
L 231.835961 251.54665 
L 236.959928 249.406861 
L 242.083895 247.195593 
L 247.207862 244.913779 
L 252.331829 242.562739 
L 257.455795 240.144194 
L 262.579762 237.660263 
L 267.703729 235.113453 
L 272.827696 232.506644 
L 277.951663 229.843065 
L 283.07563 227.12626 
L 288.199597 224.360053 
L 293.323564 221.548499 
L 298.447531 218.695841 
L 303.571498 215.80646 
L 308.695465 212.884818 
L 313.819432 209.935418 
L 318.943399 206.962746 
L 324.067366 203.971234 
L 329.191333 200.965218 
L 334.3153 197.948905 
L 339.439267 194.926342 
L 344.563233 191.901395 
L 349.6872 188.87773 
L 354.811167 185.858806 
L 359.935134 182.847862 
L 365.059101 179.847917 
L 370.183068 176.861773 
L 375.307035 173.892018 
L 380.431002 170.941031 
L 385.554969 168.010994 
L 390.678936 165.103903 
L 395.802903 162.221576 
L 400.92687 159.365665 
L 406.050837 156.537673 
L 411.174804 153.73896 
L 416.298771 150.970759 
L 421.422738 148.234186 
L 426.546705 145.530248 
L 431.670671 142.859859 
L 436.794638 140.223844 
L 441.918605 137.622951 
L 447.042572 135.057856 
L 452.166539 132.529174 
L 457.290506 130.037459 
L 462.414473 127.583217 
L 467.53844 125.166906 
L 472.662407 122.788942 
L 477.786374 120.449701 
L 482.910341 118.149525 
L 488.034308 115.888723 
L 493.158275 113.667571 
L 498.282242 111.486318 
L 503.406209 109.345184 
L 508.530176 107.244361 
L 513.654143 105.184015 
L 518.77811 103.164288 
L 523.902076 101.185291 
L 529.026043 99.247112 
L 534.15001 97.349813 
L 539.273977 95.493427 
L 544.397944 93.677961 
L 549.521911 91.903393 
L 554.645878 90.169673 
L 559.769845 88.476721 
L 564.893812 86.824429 
L 570.017779 85.212657 
L 575.141746 83.641236 
L 580.265713 82.109965 
L 585.38968 80.618612 
L 590.513647 79.166913 
L 595.637614 77.754573 
" style="fill:none;stroke:#3b4cc0;stroke-linecap:square;stroke-width:1.5;"/>
   </g>
   <g id="line2d_15">
    <path clip-path="url(#pcb7aef909e)" d="M 88.364886 284.59872 
L 93.488853 283.873118 
L 98.61282 283.108721 
L 103.736787 282.30351 
L 108.860754 281.455387 
L 113.984721 280.562174 
L 119.108688 279.62162 
L 124.232655 278.631407 
L 129.356622 277.589159 
L 134.480589 276.492451 
L 139.604556 275.338828 
L 144.728523 274.125817 
L 149.85249 272.850957 
L 154.976457 271.511816 
L 160.100424 270.106028 
L 165.22439 268.631328 
L 170.348357 267.085592 
L 175.472324 265.466878 
L 180.596291 263.773483 
L 185.720258 262.003989 
L 190.844225 260.15732 
L 195.968192 258.232796 
L 201.092159 256.230183 
L 206.216126 254.149742 
L 211.340093 251.992269 
L 216.46406 249.759125 
L 221.588027 247.452248 
L 226.711994 245.074159 
L 231.835961 242.62794 
L 236.959928 240.117205 
L 242.083895 237.546043 
L 247.207862 234.918959 
L 252.331829 232.240789 
L 257.455795 229.516615 
L 262.579762 226.751676 
L 267.703729 223.95127 
L 272.827696 221.120673 
L 277.951663 218.265056 
L 283.07563 215.389414 
L 288.199597 212.498512 
L 293.323564 209.596837 
L 298.447531 206.688566 
L 303.571498 203.777547 
L 308.695465 200.867291 
L 313.819432 197.960972 
L 318.943399 195.06143 
L 324.067366 192.171195 
L 329.191333 189.292496 
L 334.3153 186.427287 
L 339.439267 183.57727 
L 344.563233 180.743919 
L 349.6872 177.928503 
L 354.811167 175.132114 
L 359.935134 172.355683 
L 365.059101 169.600007 
L 370.183068 166.865767 
L 375.307035 164.153545 
L 380.431002 161.463843 
L 385.554969 158.797101 
L 390.678936 156.153701 
L 395.802903 153.533993 
L 400.92687 150.938293 
L 406.050837 148.366902 
L 411.174804 145.820111 
L 416.298771 143.298207 
L 421.422738 140.801483 
L 426.546705 138.330242 
L 431.670671 135.884801 
L 436.794638 133.465495 
L 441.918605 131.072681 
L 447.042572 128.706741 
L 452.166539 126.368082 
L 457.290506 124.05714 
L 462.414473 121.774375 
L 467.53844 119.520276 
L 472.662407 117.295361 
L 477.786374 115.100168 
L 482.910341 112.935264 
L 488.034308 110.801231 
L 493.158275 108.698674 
L 498.282242 106.628209 
L 503.406209 104.590462 
L 508.530176 102.586067 
L 513.654143 100.615658 
L 518.77811 98.679862 
L 523.902076 96.779302 
L 529.026043 94.914581 
L 534.15001 93.086282 
L 539.273977 91.294963 
L 544.397944 89.541149 
L 549.521911 87.825325 
L 554.645878 86.147936 
L 559.769845 84.509375 
L 564.893812 82.909986 
L 570.017779 81.350053 
L 575.141746 79.8298 
L 580.265713 78.349388 
L 585.38968 76.908912 
L 590.513647 75.5084 
L 595.637614 74.147809 
" style="fill:none;stroke:#7b9ff9;stroke-linecap:square;stroke-width:1.5;"/>
   </g>
   <g id="line2d_16">
    <path clip-path="url(#pcb7aef909e)" d="M 88.364886 282.333048 
L 93.488853 281.441813 
L 98.61282 280.498544 
L 103.736787 279.500209 
L 108.860754 278.443658 
L 113.984721 277.325635 
L 119.108688 276.142799 
L 124.232655 274.891753 
L 129.356622 273.569083 
L 134.480589 272.171397 
L 139.604556 270.695393 
L 144.728523 269.137923 
L 149.85249 267.496073 
L 154.976457 265.767264 
L 160.100424 263.949348 
L 165.22439 262.040722 
L 170.348357 260.040438 
L 175.472324 257.948311 
L 180.596291 255.765008 
L 185.720258 253.492123 
L 190.844225 251.132214 
L 195.968192 248.688806 
L 201.092159 246.166347 
L 206.216126 243.57012 
L 211.340093 240.906113 
L 216.46406 238.180861 
L 221.588027 235.401252 
L 226.711994 232.574342 
L 231.835961 229.707159 
L 236.959928 226.806534 
L 242.083895 223.878951 
L 247.207862 220.930435 
L 252.331829 217.966469 
L 257.455795 214.991944 
L 262.579762 212.011143 
L 267.703729 209.027594 
L 272.827696 206.044539 
L 277.951663 203.062317 
L 283.07563 197.813541 
L 288.199597 175.236382 
L 293.323564 161.75985 
L 298.447531 151.89808 
L 303.571498 143.99981 
L 308.695465 137.449035 
L 313.819432 131.919898 
L 318.943399 127.210416 
L 324.067366 123.184111 
L 329.191333 119.745708 
L 334.3153 116.828656 
L 339.439267 114.388318 
L 344.563233 112.399144 
L 349.6872 110.853813 
L 354.811167 109.764806 
L 359.935134 109.169281 
L 365.059101 109.138757 
L 370.183068 109.79975 
L 375.307035 111.380222 
L 380.431002 114.336574 
L 385.554969 119.851883 
L 390.678936 133.978137 
L 395.802903 136.684651 
L 400.92687 133.887618 
L 406.050837 131.093666 
L 411.174804 128.309835 
L 416.298771 125.537227 
L 421.422738 122.777914 
L 426.546705 120.034128 
L 431.670671 117.30843 
L 436.794638 114.603718 
L 441.918605 111.923207 
L 447.042572 109.270416 
L 452.166539 106.649129 
L 457.290506 104.063353 
L 462.414473 101.517257 
L 467.53844 99.015098 
L 472.662407 96.561147 
L 477.786374 94.159595 
L 482.910341 91.814463 
L 488.034308 89.529516 
L 493.158275 87.30818 
L 498.282242 85.153467 
L 503.406209 83.06792 
L 508.530176 81.053571 
L 513.654143 79.111921 
L 518.77811 77.243931 
L 523.902076 75.450039 
L 529.026043 73.730182 
L 534.15001 72.083838 
L 539.273977 70.510071 
L 544.397944 69.007581 
L 549.521911 67.574761 
L 554.645878 66.209748 
L 559.769845 64.91048 
L 564.893812 63.674737 
L 570.017779 62.50019 
L 575.141746 61.38444 
L 580.265713 60.325049 
L 585.38968 59.319571 
L 590.513647 58.365577 
L 595.637614 57.460671 
" style="fill:none;stroke:#c0d4f5;stroke-linecap:square;stroke-width:1.5;"/>
   </g>
   <g id="line2d_17">
    <path clip-path="url(#pcb7aef909e)" d="M 88.364886 279.02231 
L 93.488853 277.845905 
L 98.61282 276.590033 
L 103.736787 275.24921 
L 108.860754 273.817779 
L 113.984721 272.289991 
L 119.108688 270.660119 
L 124.232655 268.922616 
L 129.356622 267.072303 
L 134.480589 265.104615 
L 139.604556 263.015866 
L 144.728523 260.80355 
L 149.85249 258.466636 
L 154.976457 256.005829 
L 160.100424 253.423764 
L 165.22439 250.725082 
L 170.348357 247.916369 
L 175.472324 245.005926 
L 180.596291 242.003401 
L 185.720258 238.919308 
L 190.844225 235.764484 
L 195.968192 232.549131 
L 201.092159 199.59745 
L 206.216126 162.316685 
L 211.340093 136.351753 
L 216.46406 118.446822 
L 221.588027 106.271984 
L 226.711994 97.714552 
L 231.835961 91.409306 
L 236.959928 86.55738 
L 242.083895 82.688224 
L 247.207862 79.514133 
L 252.331829 76.851342 
L 257.455795 74.577246 
L 262.579762 72.607814 
L 267.703729 70.882705 
L 272.827696 69.358701 
L 277.951663 68.003361 
L 283.07563 66.792734 
L 288.199597 65.7089 
L 293.323564 64.738999 
L 298.447531 63.874379 
L 303.571498 63.110546 
L 308.695465 62.447649 
L 313.819432 61.891872 
L 318.943399 61.458507 
L 324.067366 61.178121 
L 329.191333 61.112152 
L 334.3153 61.388855 
L 339.439267 62.309143 
L 344.563233 64.697965 
L 349.6872 71.24568 
L 354.811167 97.823932 
L 359.935134 103.803376 
L 365.059101 98.711873 
L 370.183068 93.907223 
L 375.307035 89.457528 
L 380.431002 85.39527 
L 385.554969 81.72168 
L 390.678936 78.416706 
L 395.802903 75.448991 
L 400.92687 72.783194 
L 406.050837 70.384407 
L 411.174804 68.220377 
L 416.298771 66.262373 
L 421.422738 64.485308 
L 426.546705 62.867508 
L 431.670671 61.39033 
L 436.794638 60.03776 
L 441.918605 58.796023 
L 447.042572 57.653242 
L 452.166539 56.599142 
L 457.290506 55.6248 
L 462.414473 54.722436 
L 467.53844 53.885239 
L 472.662407 53.107222 
L 477.786374 52.383101 
L 482.910341 51.708196 
L 488.034308 51.078343 
L 493.158275 50.48983 
L 498.282242 49.939331 
L 503.406209 49.423857 
L 508.530176 48.940719 
L 513.654143 48.487483 
L 518.77811 48.061947 
L 523.902076 47.66211 
L 529.026043 47.286149 
L 534.15001 46.932401 
L 539.273977 46.599344 
L 544.397944 46.285585 
L 549.521911 45.989843 
L 554.645878 45.71094 
L 559.769845 45.447791 
L 564.893812 45.199394 
L 570.017779 44.964822 
L 575.141746 44.743217 
L 580.265713 44.533785 
L 585.38968 44.335787 
L 590.513647 44.148538 
L 595.637614 43.971397 
" style="fill:none;stroke:#f2cbb7;stroke-linecap:square;stroke-width:1.5;"/>
   </g>
   <g id="line2d_18">
    <path clip-path="url(#pcb7aef909e)" d="M 88.364886 273.365673 
L 93.488853 271.556488 
L 98.61282 269.586454 
L 103.736787 267.44093 
L 108.860754 265.105392 
L 113.984721 262.566273 
L 119.108688 259.812081 
L 124.232655 256.834721 
L 129.356622 253.630807 
L 134.480589 250.20265 
L 139.604556 246.558309 
L 144.728523 71.399649 
L 149.85249 62.973762 
L 154.976457 59.793228 
L 160.100424 57.800839 
L 165.22439 56.34078 
L 170.348357 55.184962 
L 175.472324 54.227096 
L 180.596291 53.409109 
L 185.720258 52.695819 
L 190.844225 52.064329 
L 195.968192 51.499078 
L 201.092159 50.989251 
L 206.216126 50.527552 
L 211.340093 50.110317 
L 216.46406 49.742895 
L 221.588027 81.166654 
L 226.711994 74.366179 
L 231.835961 70.040493 
L 236.959928 66.822042 
L 242.083895 64.256517 
L 247.207862 62.128888 
L 252.331829 60.318182 
L 257.455795 58.748772 
L 262.579762 57.369851 
L 267.703729 56.145455 
L 272.827696 55.049089 
L 277.951663 54.06061 
L 283.07563 53.164311 
L 288.199597 52.347679 
L 293.323564 51.600575 
L 298.447531 50.914651 
L 303.571498 50.282949 
L 308.695465 49.699605 
L 313.819432 49.159622 
L 318.943399 48.658709 
L 324.067366 48.193152 
L 329.191333 47.759712 
L 334.3153 47.355547 
L 339.439267 46.97815 
L 344.563233 46.625299 
L 349.6872 46.295012 
L 354.811167 45.985517 
L 359.935134 45.69522 
L 365.059101 45.422686 
L 370.183068 45.166616 
L 375.307035 44.925831 
L 380.431002 44.699259 
L 385.554969 44.485919 
L 390.678936 44.284917 
L 395.802903 44.095433 
L 400.92687 43.916711 
L 406.050837 43.748057 
L 411.174804 43.588832 
L 416.298771 43.438444 
L 421.422738 43.296345 
L 426.546705 43.162028 
L 431.670671 43.035022 
L 436.794638 42.91489 
L 441.918605 42.801224 
L 447.042572 42.693645 
L 452.166539 42.591799 
L 457.290506 42.495356 
L 462.414473 42.404008 
L 467.53844 42.317464 
L 472.662407 42.235455 
L 477.786374 42.157729 
L 482.910341 42.084046 
L 488.034308 42.014184 
L 493.158275 41.947933 
L 498.282242 41.885098 
L 503.406209 41.825492 
L 508.530176 41.768941 
L 513.654143 41.715283 
L 518.77811 41.664362 
L 523.902076 41.616032 
L 529.026043 41.570157 
L 534.15001 41.526608 
L 539.273977 41.485261 
L 544.397944 41.446003 
L 549.521911 41.408723 
L 554.645878 41.37332 
L 559.769845 41.339696 
L 564.893812 41.307758 
L 570.017779 41.277421 
L 575.141746 41.248601 
L 580.265713 41.221222 
L 585.38968 41.19521 
L 590.513647 41.170494 
L 595.637614 41.147009 
" style="fill:none;stroke:#ee8468;stroke-linecap:square;stroke-width:1.5;"/>
   </g>
   <g id="line2d_19">
    <path clip-path="url(#pcb7aef909e)" d="M 88.364886 51.680823 
L 93.488853 50.932939 
L 98.61282 50.253812 
L 103.736787 49.634197 
L 108.860754 49.0666 
L 113.984721 48.54485 
L 119.108688 48.063797 
L 124.232655 47.619096 
L 129.356622 47.207042 
L 134.480589 46.824447 
L 139.604556 46.468547 
L 144.728523 46.136931 
L 149.85249 45.827477 
L 154.976457 45.538315 
L 160.100424 45.267779 
L 165.22439 45.014385 
L 170.348357 44.776804 
L 175.472324 44.553838 
L 180.596291 44.344407 
L 185.720258 44.147533 
L 190.844225 43.962326 
L 195.968192 43.787977 
L 201.092159 43.623744 
L 206.216126 43.46895 
L 211.340093 43.322974 
L 216.46406 43.185243 
L 221.588027 43.05523 
L 226.711994 42.932448 
L 231.835961 42.816448 
L 236.959928 42.706812 
L 242.083895 42.603154 
L 247.207862 42.505115 
L 252.331829 42.412361 
L 257.455795 42.324581 
L 262.579762 42.241485 
L 267.703729 42.162802 
L 272.827696 42.08828 
L 277.951663 42.017683 
L 283.07563 41.950788 
L 288.199597 41.887388 
L 293.323564 41.82729 
L 298.447531 41.770311 
L 303.571498 41.71628 
L 308.695465 41.665036 
L 313.819432 41.616427 
L 318.943399 41.570311 
L 324.067366 41.526555 
L 329.191333 41.485033 
L 334.3153 41.445625 
L 339.439267 41.408219 
L 344.563233 41.37271 
L 349.6872 41.338998 
L 354.811167 41.306989 
L 359.935134 41.276595 
L 365.059101 41.24773 
L 370.183068 41.220316 
L 375.307035 41.194279 
L 380.431002 41.169546 
L 385.554969 41.146051 
L 390.678936 41.12373 
L 395.802903 41.102524 
L 400.92687 41.082375 
L 406.050837 41.06323 
L 411.174804 41.045037 
L 416.298771 41.027749 
L 421.422738 41.011319 
L 426.546705 40.995705 
L 431.670671 40.980865 
L 436.794638 40.966759 
L 441.918605 40.953353 
L 447.042572 40.940609 
L 452.166539 40.928495 
L 457.290506 40.916979 
L 462.414473 40.906032 
L 467.53844 40.895625 
L 472.662407 40.885731 
L 477.786374 40.876325 
L 482.910341 40.867382 
L 488.034308 40.858879 
L 493.158275 40.850795 
L 498.282242 40.843108 
L 503.406209 40.835799 
L 508.530176 40.82885 
L 513.654143 40.822242 
L 518.77811 40.815958 
L 523.902076 40.809983 
L 529.026043 40.804301 
L 534.15001 40.798898 
L 539.273977 40.79376 
L 544.397944 40.788874 
L 549.521911 40.784227 
L 554.645878 40.779808 
L 559.769845 40.775606 
L 564.893812 40.77161 
L 570.017779 40.767809 
L 575.141746 40.764194 
L 580.265713 40.760757 
L 585.38968 40.757487 
L 590.513647 40.754378 
L 595.637614 40.75142 
" style="fill:none;stroke:#b40426;stroke-linecap:square;stroke-width:1.5;"/>
   </g>
   <g id="line2d_20">
    <path clip-path="url(#pcb7aef909e)" d="M 88.364886 286.283904 
L 93.488853 285.667947 
L 98.61282 285.020849 
L 103.736787 284.341113 
L 108.860754 283.627184 
L 113.984721 282.877448 
L 119.108688 282.090238 
L 124.232655 281.263827 
L 129.356622 280.396439 
L 134.480589 279.486245 
L 139.604556 278.531371 
L 144.728523 277.529902 
L 149.85249 276.479888 
L 154.976457 275.379354 
L 160.100424 274.226305 
L 165.22439 273.018742 
L 170.348357 271.754673 
L 175.472324 270.432128 
L 180.596291 269.049176 
L 185.720258 267.603948 
L 190.844225 266.094652 
L 195.968192 264.519604 
L 201.092159 262.877252 
L 206.216126 261.166203 
L 211.340093 259.385251 
L 216.46406 257.533411 
L 221.588027 255.609949 
L 226.711994 253.61441 
L 231.835961 251.54665 
L 236.959928 249.406861 
L 242.083895 247.195593 
L 247.207862 244.913779 
L 252.331829 242.562739 
L 257.455795 240.144194 
L 262.579762 237.660263 
L 267.703729 235.113453 
L 272.827696 232.506644 
L 277.951663 229.843065 
L 283.07563 227.12626 
L 288.199597 224.360053 
L 293.323564 221.548499 
L 298.447531 218.695841 
L 303.571498 215.80646 
L 308.695465 212.884818 
L 313.819432 209.935418 
L 318.943399 206.962746 
L 324.067366 203.971234 
L 329.191333 200.965218 
L 334.3153 197.948905 
L 339.439267 194.926342 
L 344.563233 191.901395 
L 349.6872 188.87773 
L 354.811167 185.858806 
L 359.935134 182.847862 
L 365.059101 179.847917 
L 370.183068 176.861773 
L 375.307035 173.892018 
L 380.431002 170.941031 
L 385.554969 168.010994 
L 390.678936 165.103903 
L 395.802903 162.221576 
L 400.92687 159.365665 
L 406.050837 156.537673 
L 411.174804 153.73896 
L 416.298771 150.970759 
L 421.422738 148.234186 
L 426.546705 145.530248 
L 431.670671 142.859859 
L 436.794638 140.223844 
L 441.918605 137.622951 
L 447.042572 135.057856 
L 452.166539 132.529174 
L 457.290506 130.037459 
L 462.414473 127.583217 
L 467.53844 125.166906 
L 472.662407 122.788942 
L 477.786374 120.449701 
L 482.910341 118.149525 
L 488.034308 115.888723 
L 493.158275 113.667571 
L 498.282242 111.486318 
L 503.406209 109.345184 
L 508.530176 107.244361 
L 513.654143 105.184015 
L 518.77811 103.164288 
L 523.902076 101.185291 
L 529.026043 99.247112 
L 534.15001 97.349813 
L 539.273977 95.493427 
L 544.397944 93.677961 
L 549.521911 91.903393 
L 554.645878 90.169673 
L 559.769845 88.476721 
L 564.893812 86.824429 
L 570.017779 85.212657 
L 575.141746 83.641236 
L 580.265713 82.109965 
L 585.38968 80.618612 
L 590.513647 79.166913 
L 595.637614 77.754573 
" style="fill:none;stroke:#3b4cc0;stroke-linecap:square;stroke-width:1.5;"/>
   </g>
   <g id="line2d_21">
    <path clip-path="url(#pcb7aef909e)" d="M 88.364886 284.59872 
L 93.488853 283.873118 
L 98.61282 283.108721 
L 103.736787 282.30351 
L 108.860754 281.455387 
L 113.984721 280.562174 
L 119.108688 279.62162 
L 124.232655 278.631407 
L 129.356622 277.589159 
L 134.480589 276.492451 
L 139.604556 275.338828 
L 144.728523 274.125817 
L 149.85249 272.850957 
L 154.976457 271.511816 
L 160.100424 270.106028 
L 165.22439 268.631328 
L 170.348357 267.085592 
L 175.472324 265.466878 
L 180.596291 263.773483 
L 185.720258 262.003989 
L 190.844225 260.15732 
L 195.968192 258.232796 
L 201.092159 256.230183 
L 206.216126 254.149742 
L 211.340093 251.992269 
L 216.46406 249.759125 
L 221.588027 247.452248 
L 226.711994 245.074159 
L 231.835961 242.62794 
L 236.959928 240.117205 
L 242.083895 237.546043 
L 247.207862 234.918959 
L 252.331829 232.240789 
L 257.455795 229.516615 
L 262.579762 226.751676 
L 267.703729 223.95127 
L 272.827696 221.120673 
L 277.951663 218.265056 
L 283.07563 215.389414 
L 288.199597 212.498512 
L 293.323564 209.596837 
L 298.447531 206.688566 
L 303.571498 203.777547 
L 308.695465 200.867291 
L 313.819432 197.960972 
L 318.943399 195.06143 
L 324.067366 192.171195 
L 329.191333 189.292496 
L 334.3153 186.427287 
L 339.439267 183.57727 
L 344.563233 180.743919 
L 349.6872 177.928503 
L 354.811167 175.132114 
L 359.935134 172.355683 
L 365.059101 169.600007 
L 370.183068 166.865767 
L 375.307035 164.153545 
L 380.431002 161.463843 
L 385.554969 158.797101 
L 390.678936 156.153701 
L 395.802903 153.533993 
L 400.92687 150.938293 
L 406.050837 148.366902 
L 411.174804 145.820111 
L 416.298771 143.298207 
L 421.422738 140.801483 
L 426.546705 138.330242 
L 431.670671 135.884801 
L 436.794638 133.465495 
L 441.918605 131.072681 
L 447.042572 128.706741 
L 452.166539 126.368082 
L 457.290506 124.05714 
L 462.414473 121.774375 
L 467.53844 119.520276 
L 472.662407 117.295361 
L 477.786374 115.100168 
L 482.910341 112.935264 
L 488.034308 110.801231 
L 493.158275 108.698674 
L 498.282242 106.628209 
L 503.406209 104.590462 
L 508.530176 102.586067 
L 513.654143 100.615658 
L 518.77811 98.679862 
L 523.902076 96.779302 
L 529.026043 94.914581 
L 534.15001 93.086282 
L 539.273977 91.294963 
L 544.397944 89.541149 
L 549.521911 87.825325 
L 554.645878 86.147936 
L 559.769845 84.509375 
L 564.893812 82.909986 
L 570.017779 81.350053 
L 575.141746 79.8298 
L 580.265713 78.349388 
L 585.38968 76.908912 
L 590.513647 75.5084 
L 595.637614 74.147809 
" style="fill:none;stroke:#7b9ff9;stroke-linecap:square;stroke-width:1.5;"/>
   </g>
   <g id="line2d_22">
    <path clip-path="url(#pcb7aef909e)" d="M 88.364886 282.333048 
L 93.488853 281.441813 
L 98.61282 280.498544 
L 103.736787 279.500209 
L 108.860754 278.443658 
L 113.984721 277.325635 
L 119.108688 276.142799 
L 124.232655 274.891753 
L 129.356622 273.569083 
L 134.480589 272.171397 
L 139.604556 270.695393 
L 144.728523 269.137923 
L 149.85249 267.496073 
L 154.976457 265.767264 
L 160.100424 263.949348 
L 165.22439 262.040722 
L 170.348357 260.040438 
L 175.472324 257.948311 
L 180.596291 255.765008 
L 185.720258 253.492123 
L 190.844225 251.132214 
L 195.968192 248.688806 
L 201.092159 246.166347 
L 206.216126 243.57012 
L 211.340093 240.906113 
L 216.46406 238.180861 
L 221.588027 235.401252 
L 226.711994 232.574342 
L 231.835961 229.707159 
L 236.959928 226.806534 
L 242.083895 223.878951 
L 247.207862 220.930435 
L 252.331829 217.966469 
L 257.455795 214.991944 
L 262.579762 212.011143 
L 267.703729 209.02788 
L 272.827696 206.045099 
L 277.951663 203.067646 
L 283.07563 202.325795 
L 288.199597 217.798816 
L 293.323564 224.199673 
L 298.447531 227.427794 
L 303.571498 229.087488 
L 308.695465 229.741434 
L 313.819432 229.660216 
L 318.943399 228.991628 
L 324.067366 227.819745 
L 329.191333 226.189887 
L 334.3153 224.121223 
L 339.439267 221.61256 
L 344.563233 218.644968 
L 349.6872 215.181832 
L 354.811167 211.16695 
L 359.935134 206.519157 
L 365.059101 201.122956 
L 370.183068 194.808136 
L 375.307035 187.305074 
L 380.431002 178.119782 
L 385.554969 166.039663 
L 390.678936 145.081999 
L 395.802903 136.694956 
L 400.92687 133.88763 
L 406.050837 131.094 
L 411.174804 128.309835 
L 416.298771 125.537227 
L 421.422738 122.777914 
L 426.546705 120.034128 
L 431.670671 117.30843 
L 436.794638 114.603718 
L 441.918605 111.923207 
L 447.042572 109.270416 
L 452.166539 106.649129 
L 457.290506 104.063353 
L 462.414473 101.517257 
L 467.53844 99.015098 
L 472.662407 96.561147 
L 477.786374 94.159595 
L 482.910341 91.814463 
L 488.034308 89.529516 
L 493.158275 87.30818 
L 498.282242 85.153467 
L 503.406209 83.06792 
L 508.530176 81.053571 
L 513.654143 79.111921 
L 518.77811 77.243931 
L 523.902076 75.450039 
L 529.026043 73.730182 
L 534.15001 72.083838 
L 539.273977 70.510071 
L 544.397944 69.007581 
L 549.521911 67.574761 
L 554.645878 66.209748 
L 559.769845 64.91048 
L 564.893812 63.674737 
L 570.017779 62.50019 
L 575.141746 61.38444 
L 580.265713 60.325049 
L 585.38968 59.319571 
L 590.513647 58.365577 
L 595.637614 57.460671 
" style="fill:none;stroke:#c0d4f5;stroke-linecap:square;stroke-width:1.5;"/>
   </g>
   <g id="line2d_23">
    <path clip-path="url(#pcb7aef909e)" d="M 88.364886 279.02231 
L 93.488853 277.845905 
L 98.61282 276.590033 
L 103.736787 275.24921 
L 108.860754 273.817779 
L 113.984721 272.289991 
L 119.108688 270.660119 
L 124.232655 268.922616 
L 129.356622 267.072303 
L 134.480589 265.104615 
L 139.604556 263.015866 
L 144.728523 260.80355 
L 149.85249 258.466636 
L 154.976457 256.005829 
L 160.100424 253.423764 
L 165.22439 250.725082 
L 170.348357 247.916369 
L 175.472324 245.005926 
L 180.596291 242.003401 
L 185.720258 238.919308 
L 190.844225 235.764484 
L 195.968192 232.549956 
L 201.092159 252.960468 
L 206.216126 267.176642 
L 211.340093 272.730827 
L 216.46406 275.090174 
L 221.588027 276.002761 
L 226.711994 276.215113 
L 231.835961 276.049315 
L 236.959928 275.651198 
L 242.083895 275.091065 
L 247.207862 274.404215 
L 252.331829 273.608113 
L 257.455795 272.710167 
L 262.579762 271.71136 
L 267.703729 270.608002 
L 272.827696 269.39238 
L 277.951663 268.053033 
L 283.07563 266.573853 
L 288.199597 264.933655 
L 293.323564 263.104238 
L 298.447531 261.048209 
L 303.571498 258.714743 
L 308.695465 256.033481 
L 313.819432 252.904005 
L 318.943399 249.177167 
L 324.067366 244.621118 
L 329.191333 238.852492 
L 334.3153 231.190836 
L 339.439267 220.322008 
L 344.563233 203.523773 
L 349.6872 175.421783 
L 354.811167 121.283586 
L 359.935134 103.803376 
L 365.059101 98.711873 
L 370.183068 93.907223 
L 375.307035 89.457528 
L 380.431002 85.39527 
L 385.554969 81.72168 
L 390.678936 78.416706 
L 395.802903 75.448991 
L 400.92687 72.783194 
L 406.050837 70.384407 
L 411.174804 68.220377 
L 416.298771 66.262373 
L 421.422738 64.485308 
L 426.546705 62.867508 
L 431.670671 61.39033 
L 436.794638 60.03776 
L 441.918605 58.796023 
L 447.042572 57.653242 
L 452.166539 56.599142 
L 457.290506 55.6248 
L 462.414473 54.722436 
L 467.53844 53.885239 
L 472.662407 53.107222 
L 477.786374 52.383101 
L 482.910341 51.708196 
L 488.034308 51.078343 
L 493.158275 50.48983 
L 498.282242 49.939331 
L 503.406209 49.423857 
L 508.530176 48.940719 
L 513.654143 48.487483 
L 518.77811 48.061947 
L 523.902076 47.66211 
L 529.026043 47.286149 
L 534.15001 46.932401 
L 539.273977 46.599344 
L 544.397944 46.285585 
L 549.521911 45.989843 
L 554.645878 45.71094 
L 559.769845 45.447791 
L 564.893812 45.199394 
L 570.017779 44.964822 
L 575.141746 44.743217 
L 580.265713 44.533785 
L 585.38968 44.335788 
L 590.513647 44.148538 
L 595.637614 43.971397 
" style="fill:none;stroke:#f2cbb7;stroke-linecap:square;stroke-width:1.5;"/>
   </g>
   <g id="line2d_24">
    <path clip-path="url(#pcb7aef909e)" d="M 88.364886 273.365673 
L 93.488853 271.556488 
L 98.61282 269.586454 
L 103.736787 267.44093 
L 108.860754 265.105392 
L 113.984721 262.566273 
L 119.108688 259.812081 
L 124.232655 256.834721 
L 129.356622 253.630807 
L 134.480589 250.20265 
L 139.604556 246.558695 
L 144.728523 287.84233 
L 149.85249 287.523749 
L 154.976457 287.09078 
L 160.100424 286.612887 
L 165.22439 286.094577 
L 170.348357 285.533285 
L 175.472324 284.923556 
L 180.596291 284.257495 
L 185.720258 283.5241 
L 190.844225 282.707921 
L 195.968192 281.786217 
L 201.092159 280.723264 
L 206.216126 279.45648 
L 211.340093 277.853304 
L 216.46406 275.45821 
L 221.588027 81.166654 
L 226.711994 74.366179 
L 231.835961 70.040493 
L 236.959928 66.822042 
L 242.083895 64.256517 
L 247.207862 62.128888 
L 252.331829 60.318182 
L 257.455795 58.748772 
L 262.579762 57.369851 
L 267.703729 56.145455 
L 272.827696 55.049089 
L 277.951663 54.06061 
L 283.07563 53.164311 
L 288.199597 52.347679 
L 293.323564 51.600575 
L 298.447531 50.914651 
L 303.571498 50.282949 
L 308.695465 49.699605 
L 313.819432 49.159622 
L 318.943399 48.658709 
L 324.067366 48.193152 
L 329.191333 47.759712 
L 334.3153 47.355547 
L 339.439267 46.97815 
L 344.563233 46.625299 
L 349.6872 46.295012 
L 354.811167 45.985517 
L 359.935134 45.69522 
L 365.059101 45.422686 
L 370.183068 45.166616 
L 375.307035 44.925831 
L 380.431002 44.699259 
L 385.554969 44.485919 
L 390.678936 44.284917 
L 395.802903 44.095433 
L 400.92687 43.916711 
L 406.050837 43.748057 
L 411.174804 43.588832 
L 416.298771 43.438444 
L 421.422738 43.296345 
L 426.546705 43.162028 
L 431.670671 43.035022 
L 436.794638 42.91489 
L 441.918605 42.801224 
L 447.042572 42.693645 
L 452.166539 42.591799 
L 457.290506 42.495356 
L 462.414473 42.404008 
L 467.53844 42.317464 
L 472.662407 42.235455 
L 477.786374 42.157729 
L 482.910341 42.084046 
L 488.034308 42.014184 
L 493.158275 41.947933 
L 498.282242 41.885098 
L 503.406209 41.825492 
L 508.530176 41.768941 
L 513.654143 41.715283 
L 518.77811 41.664362 
L 523.902076 41.616032 
L 529.026043 41.570157 
L 534.15001 41.526608 
L 539.273977 41.485261 
L 544.397944 41.446003 
L 549.521911 41.408723 
L 554.645878 41.37332 
L 559.769845 41.339696 
L 564.893812 41.307758 
L 570.017779 41.277421 
L 575.141746 41.248601 
L 580.265713 41.221222 
L 585.38968 41.19521 
L 590.513647 41.170494 
L 595.637614 41.147009 
" style="fill:none;stroke:#ee8468;stroke-linecap:square;stroke-width:1.5;"/>
   </g>
   <g id="line2d_25">
    <path clip-path="url(#pcb7aef909e)" d="M 88.364886 51.680823 
L 93.488853 50.932939 
L 98.61282 50.253812 
L 103.736787 49.634197 
L 108.860754 49.0666 
L 113.984721 48.54485 
L 119.108688 48.063797 
L 124.232655 47.619096 
L 129.356622 47.207042 
L 134.480589 46.824447 
L 139.604556 46.468547 
L 144.728523 46.136931 
L 149.85249 45.827477 
L 154.976457 45.538315 
L 160.100424 45.267779 
L 165.22439 45.014385 
L 170.348357 44.776804 
L 175.472324 44.553838 
L 180.596291 44.344407 
L 185.720258 44.147533 
L 190.844225 43.962326 
L 195.968192 43.787977 
L 201.092159 43.623744 
L 206.216126 43.46895 
L 211.340093 43.322974 
L 216.46406 43.185243 
L 221.588027 43.05523 
L 226.711994 42.932448 
L 231.835961 42.816448 
L 236.959928 42.706812 
L 242.083895 42.603154 
L 247.207862 42.505115 
L 252.331829 42.412361 
L 257.455795 42.324581 
L 262.579762 42.241485 
L 267.703729 42.162802 
L 272.827696 42.08828 
L 277.951663 42.017683 
L 283.07563 41.950788 
L 288.199597 41.887388 
L 293.323564 41.82729 
L 298.447531 41.770311 
L 303.571498 41.71628 
L 308.695465 41.665036 
L 313.819432 41.616427 
L 318.943399 41.570311 
L 324.067366 41.526555 
L 329.191333 41.485033 
L 334.3153 41.445625 
L 339.439267 41.408219 
L 344.563233 41.37271 
L 349.6872 41.338998 
L 354.811167 41.306989 
L 359.935134 41.276595 
L 365.059101 41.24773 
L 370.183068 41.220316 
L 375.307035 41.194279 
L 380.431002 41.169546 
L 385.554969 41.146051 
L 390.678936 41.12373 
L 395.802903 41.102524 
L 400.92687 41.082375 
L 406.050837 41.06323 
L 411.174804 41.045037 
L 416.298771 41.027749 
L 421.422738 41.011319 
L 426.546705 40.995705 
L 431.670671 40.980865 
L 436.794638 40.966759 
L 441.918605 40.953353 
L 447.042572 40.940609 
L 452.166539 40.928495 
L 457.290506 40.916979 
L 462.414473 40.906032 
L 467.53844 40.895625 
L 472.662407 40.885731 
L 477.786374 40.876325 
L 482.910341 40.867382 
L 488.034308 40.858879 
L 493.158275 40.850795 
L 498.282242 40.843108 
L 503.406209 40.835799 
L 508.530176 40.82885 
L 513.654143 40.822242 
L 518.77811 40.815958 
L 523.902076 40.809983 
L 529.026043 40.804301 
L 534.15001 40.798898 
L 539.273977 40.79376 
L 544.397944 40.788874 
L 549.521911 40.784227 
L 554.645878 40.779808 
L 559.769845 40.775606 
L 564.893812 40.77161 
L 570.017779 40.767809 
L 575.141746 40.764194 
L 580.265713 40.760757 
L 585.38968 40.757487 
L 590.513647 40.754378 
L 595.637614 40.75142 
" style="fill:none;stroke:#b40426;stroke-linecap:square;stroke-width:1.5;"/>
   </g>
   <g id="line2d_26">
    <path clip-path="url(#pcb7aef909e)" d="M 88.364886 280.856203 
L 93.488853 279.844529 
L 98.61282 278.769946 
L 103.736787 277.628501 
L 108.860754 276.416095 
L 113.984721 275.128516 
L 119.108688 273.761484 
L 124.232655 272.310716 
L 129.356622 270.772006 
L 134.480589 269.141326 
L 139.604556 267.414955 
L 144.728523 265.589612 
L 149.85249 263.662631 
L 154.976457 261.632123 
L 160.100424 259.497155 
L 165.22439 257.257911 
L 170.348357 254.915817 
L 175.472324 252.473632 
L 180.596291 249.93546 
L 185.720258 247.306691 
L 190.844225 244.593868 
L 195.968192 241.80447 
L 201.092159 238.946645 
L 206.216126 236.028909 
L 211.340093 233.059835 
L 216.46406 230.047764 
L 221.588027 227.000562 
L 226.711994 223.925611 
L 231.835961 220.835506 
L 236.959928 237.784765 
L 242.083895 249.968839 
L 247.207862 255.62421 
L 252.331829 258.779022 
L 257.455795 260.554713 
L 262.579762 261.467322 
L 267.703729 261.79769 
L 272.827696 261.710126 
L 277.951663 261.304142 
L 283.07563 260.640698 
L 288.199597 259.756576 
L 293.323564 258.672527 
L 298.447531 257.398006 
L 303.571498 255.933798 
L 308.695465 254.273505 
L 313.819432 252.403866 
L 318.943399 250.30481 
L 324.067366 247.948514 
L 329.191333 245.297926 
L 334.3153 242.304599 
L 339.439267 238.90529 
L 344.563233 235.017248 
L 349.6872 230.531326 
L 354.811167 225.302672 
L 359.935134 219.137169 
L 365.059101 211.77281 
L 370.183068 202.853947 
L 375.307035 191.88434 
L 380.431002 178.110606 
L 385.554969 159.972023 
L 390.678936 127.478629 
L 395.802903 116.866847 
L 400.92687 113.383659 
L 406.050837 109.921632 
L 411.174804 106.494421 
L 416.298771 103.117368 
L 421.422738 99.806597 
L 426.546705 96.578253 
L 431.670671 93.447661 
L 436.794638 90.428524 
L 441.918605 87.532246 
L 447.042572 84.767488 
L 452.166539 82.139981 
L 457.290506 79.652589 
L 462.414473 77.305568 
L 467.53844 75.096957 
L 472.662407 73.023024 
L 477.786374 71.078721 
L 482.910341 69.258092 
L 488.034308 67.554624 
L 493.158275 65.961535 
L 498.282242 64.471991 
L 503.406209 63.079266 
L 508.530176 61.776854 
L 513.654143 60.558547 
L 518.77811 59.418472 
L 523.902076 58.351118 
L 529.026043 57.351339 
L 534.15001 56.414352 
L 539.273977 55.53572 
L 544.397944 54.71134 
L 549.521911 53.937418 
L 554.645878 53.210454 
L 559.769845 52.527217 
L 564.893812 51.884728 
L 570.017779 51.280234 
L 575.141746 50.711197 
L 580.265713 50.175271 
L 585.38968 49.67029 
L 590.513647 49.194248 
L 595.637614 48.74529 
" style="fill:none;stroke:#000000;stroke-linecap:square;stroke-width:1.5;"/>
   </g>
   <g id="patch_3">
    <path d="M 63.00125 300.196875 
L 63.00125 28.396875 
" style="fill:none;stroke:#000000;stroke-linecap:square;stroke-linejoin:miter;stroke-width:0.8;"/>
   </g>
   <g id="patch_4">
    <path d="M 621.00125 300.196875 
L 621.00125 28.396875 
" style="fill:none;stroke:#000000;stroke-linecap:square;stroke-linejoin:miter;stroke-width:0.8;"/>
   </g>
   <g id="patch_5">
    <path d="M 63.00125 300.196875 
L 621.00125 300.196875 
" style="fill:none;stroke:#000000;stroke-linecap:square;stroke-linejoin:miter;stroke-width:0.8;"/>
   </g>
   <g id="patch_6">
    <path d="M 63.00125 28.396875 
L 621.00125 28.396875 
" style="fill:none;stroke:#000000;stroke-linecap:square;stroke-linejoin:miter;stroke-width:0.8;"/>
   </g>
   <g id="text_15">
    <!-- $R_e = -R_i$ -->
    <defs>
     <path d="M 25.203125 64.796875 
L 20.21875 38.921875 
L 32.90625 38.921875 
Q 40.375 38.921875 44.984375 43.046875 
Q 49.609375 47.171875 49.609375 53.8125 
Q 49.609375 59.125 46.5 61.953125 
Q 43.40625 64.796875 37.59375 64.796875 
z
M 43.3125 35.015625 
Q 46.4375 34.28125 48.515625 31.390625 
Q 50.59375 28.515625 53.328125 19.921875 
L 59.515625 0 
L 49.125 0 
L 43.40625 18.703125 
Q 41.21875 25.921875 38.328125 28.359375 
Q 35.453125 30.8125 29.5 30.8125 
L 18.609375 30.8125 
L 12.59375 0 
L 2.6875 0 
L 16.890625 72.90625 
L 39.109375 72.90625 
Q 49.21875 72.90625 54.609375 68.328125 
Q 60.015625 63.765625 60.015625 55.171875 
Q 60.015625 47.5625 55.421875 41.984375 
Q 50.828125 36.421875 43.3125 35.015625 
z
" id="DejaVuSans-Oblique-82"/>
     <path d="M 10.59375 45.40625 
L 73.1875 45.40625 
L 73.1875 37.203125 
L 10.59375 37.203125 
z
M 10.59375 25.484375 
L 73.1875 25.484375 
L 73.1875 17.1875 
L 10.59375 17.1875 
z
" id="DejaVuSans-61"/>
     <path d="M 10.59375 35.5 
L 73.1875 35.5 
L 73.1875 27.203125 
L 10.59375 27.203125 
z
" id="DejaVuSans-8722"/>
     <path d="M 18.3125 75.984375 
L 27.296875 75.984375 
L 25.09375 64.59375 
L 16.109375 64.59375 
z
M 14.203125 54.6875 
L 23.1875 54.6875 
L 12.5 0 
L 3.515625 0 
z
" id="DejaVuSans-Oblique-105"/>
    </defs>
    <g transform="translate(296.70125 22.396875)scale(0.2 -0.2)">
     <use transform="translate(0 0.09375)" xlink:href="#DejaVuSans-Oblique-82"/>
     <use transform="translate(69.482422 -16.3125)scale(0.7)" xlink:href="#DejaVuSans-Oblique-101"/>
     <use transform="translate(134.765625 0.09375)" xlink:href="#DejaVuSans-61"/>
     <use transform="translate(257.519531 0.09375)" xlink:href="#DejaVuSans-8722"/>
     <use transform="translate(360.791016 0.09375)" xlink:href="#DejaVuSans-Oblique-82"/>
     <use transform="translate(430.273438 -16.3125)scale(0.7)" xlink:href="#DejaVuSans-Oblique-105"/>
    </g>
   </g>
  </g>
 </g>
 <defs>
  <clipPath id="pcb7aef909e">
   <rect height="271.8" width="558" x="63.00125" y="28.396875"/>
  </clipPath>
 </defs>
</svg>
