<?xml version="1.0" encoding="utf-8" standalone="no"?>
<!DOCTYPE svg PUBLIC "-//W3C//DTD SVG 1.1//EN"
  "http://www.w3.org/Graphics/SVG/1.1/DTD/svg11.dtd">
<!-- Created with matplotlib (https://matplotlib.org/) -->
<svg height="353.281875pt" version="1.1" viewBox="0 0 628.20125 353.281875" width="628.20125pt" xmlns="http://www.w3.org/2000/svg" xmlns:xlink="http://www.w3.org/1999/xlink">
 <defs>
  <style type="text/css">
*{stroke-linecap:butt;stroke-linejoin:round;}
  </style>
 </defs>
 <g id="figure_1">
  <g id="patch_1">
   <path d="M 0 353.281875 
L 628.20125 353.281875 
L 628.20125 0 
L 0 0 
z
" style="fill:none;"/>
  </g>
  <g id="axes_1">
   <g id="patch_2">
    <path d="M 63.00125 300.196875 
L 621.00125 300.196875 
L 621.00125 28.396875 
L 63.00125 28.396875 
z
" style="fill:#ffffff;"/>
   </g>
   <g id="matplotlib.axis_1">
    <g id="xtick_1">
     <g id="line2d_1">
      <defs>
       <path d="M 0 0 
L 0 3.5 
" id="md06ff881b6" style="stroke:#000000;stroke-width:0.8;"/>
      </defs>
      <g>
       <use style="stroke:#000000;stroke-width:0.8;" x="88.364886" xlink:href="#md06ff881b6" y="300.196875"/>
      </g>
     </g>
     <g id="text_1">
      <!-- 0 -->
      <defs>
       <path d="M 31.78125 66.40625 
Q 24.171875 66.40625 20.328125 58.90625 
Q 16.5 51.421875 16.5 36.375 
Q 16.5 21.390625 20.328125 13.890625 
Q 24.171875 6.390625 31.78125 6.390625 
Q 39.453125 6.390625 43.28125 13.890625 
Q 47.125 21.390625 47.125 36.375 
Q 47.125 51.421875 43.28125 58.90625 
Q 39.453125 66.40625 31.78125 66.40625 
z
M 31.78125 74.21875 
Q 44.046875 74.21875 50.515625 64.515625 
Q 56.984375 54.828125 56.984375 36.375 
Q 56.984375 17.96875 50.515625 8.265625 
Q 44.046875 -1.421875 31.78125 -1.421875 
Q 19.53125 -1.421875 13.0625 8.265625 
Q 6.59375 17.96875 6.59375 36.375 
Q 6.59375 54.828125 13.0625 64.515625 
Q 19.53125 74.21875 31.78125 74.21875 
z
" id="DejaVuSans-48"/>
      </defs>
      <g transform="translate(83.274886 319.354375)scale(0.16 -0.16)">
       <use xlink:href="#DejaVuSans-48"/>
      </g>
     </g>
    </g>
    <g id="xtick_2">
     <g id="line2d_2">
      <g>
       <use style="stroke:#000000;stroke-width:0.8;" x="190.844225" xlink:href="#md06ff881b6" y="300.196875"/>
      </g>
     </g>
     <g id="text_2">
      <!-- 1 -->
      <defs>
       <path d="M 12.40625 8.296875 
L 28.515625 8.296875 
L 28.515625 63.921875 
L 10.984375 60.40625 
L 10.984375 69.390625 
L 28.421875 72.90625 
L 38.28125 72.90625 
L 38.28125 8.296875 
L 54.390625 8.296875 
L 54.390625 0 
L 12.40625 0 
z
" id="DejaVuSans-49"/>
      </defs>
      <g transform="translate(185.754225 319.354375)scale(0.16 -0.16)">
       <use xlink:href="#DejaVuSans-49"/>
      </g>
     </g>
    </g>
    <g id="xtick_3">
     <g id="line2d_3">
      <g>
       <use style="stroke:#000000;stroke-width:0.8;" x="293.323564" xlink:href="#md06ff881b6" y="300.196875"/>
      </g>
     </g>
     <g id="text_3">
      <!-- 2 -->
      <defs>
       <path d="M 19.1875 8.296875 
L 53.609375 8.296875 
L 53.609375 0 
L 7.328125 0 
L 7.328125 8.296875 
Q 12.9375 14.109375 22.625 23.890625 
Q 32.328125 33.6875 34.8125 36.53125 
Q 39.546875 41.84375 41.421875 45.53125 
Q 43.3125 49.21875 43.3125 52.78125 
Q 43.3125 58.59375 39.234375 62.25 
Q 35.15625 65.921875 28.609375 65.921875 
Q 23.96875 65.921875 18.8125 64.3125 
Q 13.671875 62.703125 7.8125 59.421875 
L 7.8125 69.390625 
Q 13.765625 71.78125 18.9375 73 
Q 24.125 74.21875 28.421875 74.21875 
Q 39.75 74.21875 46.484375 68.546875 
Q 53.21875 62.890625 53.21875 53.421875 
Q 53.21875 48.921875 51.53125 44.890625 
Q 49.859375 40.875 45.40625 35.40625 
Q 44.1875 33.984375 37.640625 27.21875 
Q 31.109375 20.453125 19.1875 8.296875 
z
" id="DejaVuSans-50"/>
      </defs>
      <g transform="translate(288.233564 319.354375)scale(0.16 -0.16)">
       <use xlink:href="#DejaVuSans-50"/>
      </g>
     </g>
    </g>
    <g id="xtick_4">
     <g id="line2d_4">
      <g>
       <use style="stroke:#000000;stroke-width:0.8;" x="395.802903" xlink:href="#md06ff881b6" y="300.196875"/>
      </g>
     </g>
     <g id="text_4">
      <!-- 3 -->
      <defs>
       <path d="M 40.578125 39.3125 
Q 47.65625 37.796875 51.625 33 
Q 55.609375 28.21875 55.609375 21.1875 
Q 55.609375 10.40625 48.1875 4.484375 
Q 40.765625 -1.421875 27.09375 -1.421875 
Q 22.515625 -1.421875 17.65625 -0.515625 
Q 12.796875 0.390625 7.625 2.203125 
L 7.625 11.71875 
Q 11.71875 9.328125 16.59375 8.109375 
Q 21.484375 6.890625 26.8125 6.890625 
Q 36.078125 6.890625 40.9375 10.546875 
Q 45.796875 14.203125 45.796875 21.1875 
Q 45.796875 27.640625 41.28125 31.265625 
Q 36.765625 34.90625 28.71875 34.90625 
L 20.21875 34.90625 
L 20.21875 43.015625 
L 29.109375 43.015625 
Q 36.375 43.015625 40.234375 45.921875 
Q 44.09375 48.828125 44.09375 54.296875 
Q 44.09375 59.90625 40.109375 62.90625 
Q 36.140625 65.921875 28.71875 65.921875 
Q 24.65625 65.921875 20.015625 65.03125 
Q 15.375 64.15625 9.8125 62.3125 
L 9.8125 71.09375 
Q 15.4375 72.65625 20.34375 73.4375 
Q 25.25 74.21875 29.59375 74.21875 
Q 40.828125 74.21875 47.359375 69.109375 
Q 53.90625 64.015625 53.90625 55.328125 
Q 53.90625 49.265625 50.4375 45.09375 
Q 46.96875 40.921875 40.578125 39.3125 
z
" id="DejaVuSans-51"/>
      </defs>
      <g transform="translate(390.712903 319.354375)scale(0.16 -0.16)">
       <use xlink:href="#DejaVuSans-51"/>
      </g>
     </g>
    </g>
    <g id="xtick_5">
     <g id="line2d_5">
      <g>
       <use style="stroke:#000000;stroke-width:0.8;" x="498.282242" xlink:href="#md06ff881b6" y="300.196875"/>
      </g>
     </g>
     <g id="text_5">
      <!-- 4 -->
      <defs>
       <path d="M 37.796875 64.3125 
L 12.890625 25.390625 
L 37.796875 25.390625 
z
M 35.203125 72.90625 
L 47.609375 72.90625 
L 47.609375 25.390625 
L 58.015625 25.390625 
L 58.015625 17.1875 
L 47.609375 17.1875 
L 47.609375 0 
L 37.796875 0 
L 37.796875 17.1875 
L 4.890625 17.1875 
L 4.890625 26.703125 
z
" id="DejaVuSans-52"/>
      </defs>
      <g transform="translate(493.192242 319.354375)scale(0.16 -0.16)">
       <use xlink:href="#DejaVuSans-52"/>
      </g>
     </g>
    </g>
    <g id="xtick_6">
     <g id="line2d_6">
      <g>
       <use style="stroke:#000000;stroke-width:0.8;" x="600.761581" xlink:href="#md06ff881b6" y="300.196875"/>
      </g>
     </g>
     <g id="text_6">
      <!-- 5 -->
      <defs>
       <path d="M 10.796875 72.90625 
L 49.515625 72.90625 
L 49.515625 64.59375 
L 19.828125 64.59375 
L 19.828125 46.734375 
Q 21.96875 47.46875 24.109375 47.828125 
Q 26.265625 48.1875 28.421875 48.1875 
Q 40.625 48.1875 47.75 41.5 
Q 54.890625 34.8125 54.890625 23.390625 
Q 54.890625 11.625 47.5625 5.09375 
Q 40.234375 -1.421875 26.90625 -1.421875 
Q 22.3125 -1.421875 17.546875 -0.640625 
Q 12.796875 0.140625 7.71875 1.703125 
L 7.71875 11.625 
Q 12.109375 9.234375 16.796875 8.0625 
Q 21.484375 6.890625 26.703125 6.890625 
Q 35.15625 6.890625 40.078125 11.328125 
Q 45.015625 15.765625 45.015625 23.390625 
Q 45.015625 31 40.078125 35.4375 
Q 35.15625 39.890625 26.703125 39.890625 
Q 22.75 39.890625 18.8125 39.015625 
Q 14.890625 38.140625 10.796875 36.28125 
z
" id="DejaVuSans-53"/>
      </defs>
      <g transform="translate(595.671581 319.354375)scale(0.16 -0.16)">
       <use xlink:href="#DejaVuSans-53"/>
      </g>
     </g>
    </g>
    <g id="text_7">
     <!-- $J_e$ (mV) -->
     <defs>
      <path d="M 16.703125 72.90625 
L 26.609375 72.90625 
L 13.375 5.078125 
Q 10.796875 -8.15625 4.65625 -14.078125 
Q -1.46875 -20.015625 -12.5 -20.015625 
L -16.40625 -20.015625 
L -14.796875 -11.71875 
L -11.71875 -11.71875 
Q -5.125 -11.71875 -1.703125 -7.953125 
Q 1.703125 -4.203125 3.515625 5.078125 
z
" id="DejaVuSans-Oblique-74"/>
      <path d="M 48.09375 32.234375 
Q 48.25 33.015625 48.3125 33.84375 
Q 48.390625 34.671875 48.390625 35.5 
Q 48.390625 41.453125 44.890625 44.921875 
Q 41.40625 48.390625 35.40625 48.390625 
Q 28.71875 48.390625 23.578125 44.15625 
Q 18.453125 39.9375 15.828125 32.171875 
z
M 55.90625 25.203125 
L 14.109375 25.203125 
Q 13.8125 23.34375 13.71875 22.265625 
Q 13.625 21.1875 13.625 20.40625 
Q 13.625 13.625 17.796875 9.90625 
Q 21.96875 6.203125 29.59375 6.203125 
Q 35.453125 6.203125 40.671875 7.515625 
Q 45.90625 8.84375 50.390625 11.375 
L 48.6875 2.484375 
Q 43.84375 0.53125 38.6875 -0.4375 
Q 33.546875 -1.421875 28.21875 -1.421875 
Q 16.84375 -1.421875 10.71875 4.015625 
Q 4.59375 9.46875 4.59375 19.484375 
Q 4.59375 28.03125 7.640625 35.375 
Q 10.6875 42.71875 16.609375 48.484375 
Q 20.40625 52.09375 25.65625 54.046875 
Q 30.90625 56 36.8125 56 
Q 46.09375 56 51.578125 50.4375 
Q 57.078125 44.875 57.078125 35.5 
Q 57.078125 33.25 56.78125 30.6875 
Q 56.5 28.125 55.90625 25.203125 
z
" id="DejaVuSans-Oblique-101"/>
      <path id="DejaVuSans-32"/>
      <path d="M 31 75.875 
Q 24.46875 64.65625 21.28125 53.65625 
Q 18.109375 42.671875 18.109375 31.390625 
Q 18.109375 20.125 21.3125 9.0625 
Q 24.515625 -2 31 -13.1875 
L 23.1875 -13.1875 
Q 15.875 -1.703125 12.234375 9.375 
Q 8.59375 20.453125 8.59375 31.390625 
Q 8.59375 42.28125 12.203125 53.3125 
Q 15.828125 64.359375 23.1875 75.875 
z
" id="DejaVuSans-40"/>
      <path d="M 52 44.1875 
Q 55.375 50.25 60.0625 53.125 
Q 64.75 56 71.09375 56 
Q 79.640625 56 84.28125 50.015625 
Q 88.921875 44.046875 88.921875 33.015625 
L 88.921875 0 
L 79.890625 0 
L 79.890625 32.71875 
Q 79.890625 40.578125 77.09375 44.375 
Q 74.3125 48.1875 68.609375 48.1875 
Q 61.625 48.1875 57.5625 43.546875 
Q 53.515625 38.921875 53.515625 30.90625 
L 53.515625 0 
L 44.484375 0 
L 44.484375 32.71875 
Q 44.484375 40.625 41.703125 44.40625 
Q 38.921875 48.1875 33.109375 48.1875 
Q 26.21875 48.1875 22.15625 43.53125 
Q 18.109375 38.875 18.109375 30.90625 
L 18.109375 0 
L 9.078125 0 
L 9.078125 54.6875 
L 18.109375 54.6875 
L 18.109375 46.1875 
Q 21.1875 51.21875 25.484375 53.609375 
Q 29.78125 56 35.6875 56 
Q 41.65625 56 45.828125 52.96875 
Q 50 49.953125 52 44.1875 
z
" id="DejaVuSans-109"/>
      <path d="M 28.609375 0 
L 0.78125 72.90625 
L 11.078125 72.90625 
L 34.1875 11.53125 
L 57.328125 72.90625 
L 67.578125 72.90625 
L 39.796875 0 
z
" id="DejaVuSans-86"/>
      <path d="M 8.015625 75.875 
L 15.828125 75.875 
Q 23.140625 64.359375 26.78125 53.3125 
Q 30.421875 42.28125 30.421875 31.390625 
Q 30.421875 20.453125 26.78125 9.375 
Q 23.140625 -1.703125 15.828125 -13.1875 
L 8.015625 -13.1875 
Q 14.5 -2 17.703125 9.0625 
Q 20.90625 20.125 20.90625 31.390625 
Q 20.90625 42.671875 17.703125 53.65625 
Q 14.5 64.65625 8.015625 75.875 
z
" id="DejaVuSans-41"/>
     </defs>
     <g transform="translate(306.90125 341.881875)scale(0.2 -0.2)">
      <use transform="translate(0 0.125)" xlink:href="#DejaVuSans-Oblique-74"/>
      <use transform="translate(29.492188 -16.28125)scale(0.7)" xlink:href="#DejaVuSans-Oblique-101"/>
      <use transform="translate(75.292969 0.125)" xlink:href="#DejaVuSans-32"/>
      <use transform="translate(107.080078 0.125)" xlink:href="#DejaVuSans-40"/>
      <use transform="translate(146.09375 0.125)" xlink:href="#DejaVuSans-109"/>
      <use transform="translate(243.505859 0.125)" xlink:href="#DejaVuSans-86"/>
      <use transform="translate(311.914062 0.125)" xlink:href="#DejaVuSans-41"/>
     </g>
    </g>
   </g>
   <g id="matplotlib.axis_2">
    <g id="ytick_1">
     <g id="line2d_7">
      <defs>
       <path d="M 0 0 
L -3.5 0 
" id="m646ab4aea6" style="stroke:#000000;stroke-width:0.8;"/>
      </defs>
      <g>
       <use style="stroke:#000000;stroke-width:0.8;" x="63.00125" xlink:href="#m646ab4aea6" y="251.001128"/>
      </g>
     </g>
     <g id="text_8">
      <!-- 0.1 -->
      <defs>
       <path d="M 10.6875 12.40625 
L 21 12.40625 
L 21 0 
L 10.6875 0 
z
" id="DejaVuSans-46"/>
      </defs>
      <g transform="translate(30.55625 257.079878)scale(0.16 -0.16)">
       <use xlink:href="#DejaVuSans-48"/>
       <use x="63.623047" xlink:href="#DejaVuSans-46"/>
       <use x="95.410156" xlink:href="#DejaVuSans-49"/>
      </g>
     </g>
    </g>
    <g id="ytick_2">
     <g id="line2d_8">
      <g>
       <use style="stroke:#000000;stroke-width:0.8;" x="63.00125" xlink:href="#m646ab4aea6" y="197.589303"/>
      </g>
     </g>
     <g id="text_9">
      <!-- 0.2 -->
      <g transform="translate(30.55625 203.668053)scale(0.16 -0.16)">
       <use xlink:href="#DejaVuSans-48"/>
       <use x="63.623047" xlink:href="#DejaVuSans-46"/>
       <use x="95.410156" xlink:href="#DejaVuSans-50"/>
      </g>
     </g>
    </g>
    <g id="ytick_3">
     <g id="line2d_9">
      <g>
       <use style="stroke:#000000;stroke-width:0.8;" x="63.00125" xlink:href="#m646ab4aea6" y="144.177479"/>
      </g>
     </g>
     <g id="text_10">
      <!-- 0.3 -->
      <g transform="translate(30.55625 150.256229)scale(0.16 -0.16)">
       <use xlink:href="#DejaVuSans-48"/>
       <use x="63.623047" xlink:href="#DejaVuSans-46"/>
       <use x="95.410156" xlink:href="#DejaVuSans-51"/>
      </g>
     </g>
    </g>
    <g id="ytick_4">
     <g id="line2d_10">
      <g>
       <use style="stroke:#000000;stroke-width:0.8;" x="63.00125" xlink:href="#m646ab4aea6" y="90.765655"/>
      </g>
     </g>
     <g id="text_11">
      <!-- 0.4 -->
      <g transform="translate(30.55625 96.844405)scale(0.16 -0.16)">
       <use xlink:href="#DejaVuSans-48"/>
       <use x="63.623047" xlink:href="#DejaVuSans-46"/>
       <use x="95.410156" xlink:href="#DejaVuSans-52"/>
      </g>
     </g>
    </g>
    <g id="ytick_5">
     <g id="line2d_11">
      <g>
       <use style="stroke:#000000;stroke-width:0.8;" x="63.00125" xlink:href="#m646ab4aea6" y="37.353831"/>
      </g>
     </g>
     <g id="text_12">
      <!-- 0.5 -->
      <g transform="translate(30.55625 43.432581)scale(0.16 -0.16)">
       <use xlink:href="#DejaVuSans-48"/>
       <use x="63.623047" xlink:href="#DejaVuSans-46"/>
       <use x="95.410156" xlink:href="#DejaVuSans-53"/>
      </g>
     </g>
    </g>
    <g id="text_13">
     <!-- $E$ (au) -->
     <defs>
      <path d="M 16.890625 72.90625 
L 62.984375 72.90625 
L 61.375 64.59375 
L 25.09375 64.59375 
L 20.90625 43.015625 
L 55.71875 43.015625 
L 54.109375 34.71875 
L 19.28125 34.71875 
L 14.203125 8.296875 
L 51.3125 8.296875 
L 49.703125 0 
L 2.6875 0 
z
" id="DejaVuSans-Oblique-69"/>
      <path d="M 34.28125 27.484375 
Q 23.390625 27.484375 19.1875 25 
Q 14.984375 22.515625 14.984375 16.5 
Q 14.984375 11.71875 18.140625 8.90625 
Q 21.296875 6.109375 26.703125 6.109375 
Q 34.1875 6.109375 38.703125 11.40625 
Q 43.21875 16.703125 43.21875 25.484375 
L 43.21875 27.484375 
z
M 52.203125 31.203125 
L 52.203125 0 
L 43.21875 0 
L 43.21875 8.296875 
Q 40.140625 3.328125 35.546875 0.953125 
Q 30.953125 -1.421875 24.3125 -1.421875 
Q 15.921875 -1.421875 10.953125 3.296875 
Q 6 8.015625 6 15.921875 
Q 6 25.140625 12.171875 29.828125 
Q 18.359375 34.515625 30.609375 34.515625 
L 43.21875 34.515625 
L 43.21875 35.40625 
Q 43.21875 41.609375 39.140625 45 
Q 35.0625 48.390625 27.6875 48.390625 
Q 23 48.390625 18.546875 47.265625 
Q 14.109375 46.140625 10.015625 43.890625 
L 10.015625 52.203125 
Q 14.9375 54.109375 19.578125 55.046875 
Q 24.21875 56 28.609375 56 
Q 40.484375 56 46.34375 49.84375 
Q 52.203125 43.703125 52.203125 31.203125 
z
" id="DejaVuSans-97"/>
      <path d="M 8.5 21.578125 
L 8.5 54.6875 
L 17.484375 54.6875 
L 17.484375 21.921875 
Q 17.484375 14.15625 20.5 10.265625 
Q 23.53125 6.390625 29.59375 6.390625 
Q 36.859375 6.390625 41.078125 11.03125 
Q 45.3125 15.671875 45.3125 23.6875 
L 45.3125 54.6875 
L 54.296875 54.6875 
L 54.296875 0 
L 45.3125 0 
L 45.3125 8.40625 
Q 42.046875 3.421875 37.71875 1 
Q 33.40625 -1.421875 27.6875 -1.421875 
Q 18.265625 -1.421875 13.375 4.4375 
Q 8.5 10.296875 8.5 21.578125 
z
M 31.109375 56 
z
" id="DejaVuSans-117"/>
     </defs>
     <g transform="translate(22.396875 194.096875)rotate(-90)scale(0.2 -0.2)">
      <use transform="translate(0 0.125)" xlink:href="#DejaVuSans-Oblique-69"/>
      <use transform="translate(63.183594 0.125)" xlink:href="#DejaVuSans-32"/>
      <use transform="translate(94.970703 0.125)" xlink:href="#DejaVuSans-40"/>
      <use transform="translate(133.984375 0.125)" xlink:href="#DejaVuSans-97"/>
      <use transform="translate(195.263672 0.125)" xlink:href="#DejaVuSans-117"/>
      <use transform="translate(258.642578 0.125)" xlink:href="#DejaVuSans-41"/>
     </g>
    </g>
   </g>
   <g id="line2d_12">
    <path clip-path="url(#pe3acab2e95)" d="M 88.364886 286.3114 
L 93.488853 285.262677 
L 98.61282 284.14874 
L 103.736787 282.965493 
L 108.860754 281.708686 
L 113.984721 280.373954 
L 119.108688 278.956858 
L 124.232655 277.452961 
L 129.356622 275.8579 
L 134.480589 274.167502 
L 139.604556 272.377907 
L 144.728523 270.485718 
L 149.85249 268.488167 
L 154.976457 266.383298 
L 160.100424 264.170143 
L 165.22439 261.848893 
L 170.348357 259.421028 
L 175.472324 256.889405 
L 180.596291 254.25828 
L 185.720258 251.533241 
L 190.844225 248.721069 
L 195.968192 245.829518 
L 201.092159 242.867034 
L 206.216126 239.842445 
L 211.340093 236.764637 
L 216.46406 233.642259 
L 221.588027 230.483462 
L 226.711994 227.295504 
L 231.835961 224.078202 
L 236.959928 197.330928 
L 242.083895 171.878382 
L 247.207862 154.335384 
L 252.331829 140.711321 
L 257.455795 129.81988 
L 262.579762 120.980327 
L 267.703729 113.712878 
L 272.827696 107.662684 
L 277.951663 102.565114 
L 283.07563 98.222763 
L 288.199597 94.487306 
L 293.323564 91.247554 
L 298.447531 88.418962 
L 303.571498 85.937203 
L 308.695465 83.753219 
L 313.819432 81.830085 
L 318.943399 80.140333 
L 324.067366 78.664842 
L 329.191333 77.391809 
L 334.3153 76.317034 
L 339.439267 75.44437 
L 344.563233 74.787668 
L 349.6872 74.374177 
L 354.811167 74.25019 
L 359.935134 74.491687 
L 365.059101 75.222416 
L 370.183068 76.648455 
L 375.307035 79.129738 
L 380.431002 83.356467 
L 385.554969 91.00247 
L 390.678936 112.759835 
L 395.802903 116.315791 
L 400.92687 112.705691 
L 406.050837 109.116879 
L 411.174804 105.564157 
L 416.298771 102.06343 
L 421.422738 98.631412 
L 426.546705 95.28484 
L 431.670671 92.0396 
L 436.794638 88.909896 
L 441.918605 85.90755 
L 447.042572 83.041542 
L 452.166539 80.317811 
L 457.290506 77.739326 
L 462.414473 75.306353 
L 467.53844 73.016858 
L 472.662407 70.866974 
L 477.786374 68.851467 
L 482.910341 66.964162 
L 488.034308 65.19831 
L 493.158275 63.54688 
L 498.282242 62.002785 
L 503.406209 60.559055 
L 508.530176 59.208947 
L 513.654143 57.946023 
L 518.77811 56.764196 
L 523.902076 55.657754 
L 529.026043 54.621362 
L 534.15001 53.65006 
L 539.273977 52.739251 
L 544.397944 51.88468 
L 549.521911 51.082416 
L 554.645878 50.328829 
L 559.769845 49.620571 
L 564.893812 48.954552 
L 570.017779 48.327921 
L 575.141746 47.738045 
L 580.265713 47.182493 
L 585.38968 46.659018 
L 590.513647 46.165542 
L 595.637614 45.700142 
" style="fill:none;stroke:#000000;stroke-linecap:square;stroke-width:1.5;"/>
   </g>
   <g id="line2d_13">
    <path clip-path="url(#pe3acab2e95)" d="M 88.364886 287.84233 
L 93.488853 286.918456 
L 98.61282 285.940643 
L 103.736787 284.905747 
L 108.860754 283.810503 
L 113.984721 282.651535 
L 119.108688 281.425382 
L 124.232655 280.128521 
L 129.356622 278.757411 
L 134.480589 277.30854 
L 139.604556 275.778482 
L 144.728523 274.163974 
L 149.85249 272.461996 
L 154.976457 270.669875 
L 160.100424 268.785383 
L 165.22439 266.80686 
L 170.348357 264.733322 
L 175.472324 262.564577 
L 180.596291 260.301318 
L 185.720258 257.945195 
L 190.844225 255.498862 
L 195.968192 252.965972 
L 201.092159 250.351135 
L 206.216126 247.659829 
L 211.340093 244.898262 
L 216.46406 242.073205 
L 221.588027 239.191802 
L 226.711994 236.261365 
L 231.835961 233.28918 
L 236.959928 230.282329 
L 242.083895 227.247532 
L 247.207862 224.191035 
L 252.331829 221.118523 
L 257.455795 218.035067 
L 262.579762 214.945102 
L 267.703729 211.852291 
L 272.827696 208.75999 
L 277.951663 205.668553 
L 283.07563 200.227557 
L 288.199597 176.823579 
L 293.323564 162.853511 
L 298.447531 152.630585 
L 303.571498 144.443064 
L 308.695465 137.652388 
L 313.819432 131.920763 
L 318.943399 127.038811 
L 324.067366 122.865055 
L 329.191333 119.300731 
L 334.3153 116.276851 
L 339.439267 113.747143 
L 344.563233 111.685122 
L 349.6872 110.083198 
L 354.811167 108.95431 
L 359.935134 108.336975 
L 365.059101 108.305333 
L 370.183068 108.990534 
L 375.307035 110.628885 
L 380.431002 113.693505 
L 385.554969 119.410795 
L 390.678936 134.054379 
L 395.802903 136.860011 
L 400.92687 133.960545 
L 406.050837 131.064273 
L 411.174804 128.178493 
L 416.298771 125.304347 
L 421.422738 122.443983 
L 426.546705 119.599713 
L 431.670671 116.774196 
L 436.794638 113.970432 
L 441.918605 111.191756 
L 447.042572 108.441814 
L 452.166539 105.724531 
L 457.290506 103.044059 
L 462.414473 100.404719 
L 467.53844 97.810927 
L 472.662407 95.267108 
L 477.786374 92.777606 
L 482.910341 90.34659 
L 488.034308 87.977965 
L 493.158275 85.675279 
L 498.282242 83.441656 
L 503.406209 81.279733 
L 508.530176 79.191615 
L 513.654143 77.178858 
L 518.77811 75.242458 
L 523.902076 73.38287 
L 529.026043 71.600029 
L 534.15001 69.893393 
L 539.273977 68.261991 
L 544.397944 66.704477 
L 549.521911 65.219184 
L 554.645878 63.804183 
L 559.769845 62.457332 
L 564.893812 61.176334 
L 570.017779 59.958773 
L 575.141746 58.802162 
L 580.265713 57.703974 
L 585.38968 56.661674 
L 590.513647 55.672743 
L 595.637614 54.734697 
" style="fill:none;stroke:#3b4cc0;stroke-linecap:square;stroke-width:1.5;"/>
   </g>
   <g id="line2d_14">
    <path clip-path="url(#pe3acab2e95)" d="M 88.364886 287.266147 
L 93.488853 286.296546 
L 98.61282 285.269002 
L 103.736787 284.180042 
L 108.860754 283.026059 
L 113.984721 281.803332 
L 119.108688 280.508055 
L 124.232655 279.13638 
L 129.356622 277.684463 
L 134.480589 276.148535 
L 139.604556 274.524981 
L 144.728523 272.810437 
L 149.85249 271.001898 
L 154.976457 269.096851 
L 160.100424 267.093399 
L 165.22439 264.990408 
L 170.348357 262.787629 
L 175.472324 260.485821 
L 180.596291 258.086831 
L 185.720258 255.593642 
L 190.844225 253.010367 
L 195.968192 250.342184 
L 201.092159 247.595222 
L 206.216126 244.776382 
L 211.340093 241.89313 
L 216.46406 238.953258 
L 221.588027 235.96465 
L 226.711994 232.935049 
L 231.835961 229.871861 
L 236.959928 226.781994 
L 242.083895 223.671738 
L 247.207862 220.54669 
L 252.331829 217.411521 
L 257.455795 214.264458 
L 262.579762 197.56723 
L 267.703729 174.02036 
L 272.827696 159.336968 
L 277.951663 148.000387 
L 283.07563 138.772564 
L 288.199597 131.076908 
L 293.323564 124.56505 
L 298.447531 118.998438 
L 303.571498 114.203688 
L 308.695465 110.050784 
L 313.819432 106.440604 
L 318.943399 103.297514 
L 324.067366 100.564037 
L 329.191333 98.197429 
L 334.3153 96.167538 
L 339.439267 94.455598 
L 344.563233 93.053885 
L 349.6872 91.966495 
L 354.811167 91.211625 
L 359.935134 90.824381 
L 365.059101 90.865567 
L 370.183068 91.432396 
L 375.307035 92.68312 
L 380.431002 94.88828 
L 385.554969 98.564193 
L 390.678936 104.963826 
L 395.802903 120.755237 
L 400.92687 127.336067 
L 406.050837 124.238592 
L 411.174804 121.148653 
L 416.298771 118.07003 
L 421.422738 115.0074 
L 426.546705 111.965836 
L 431.670671 108.951032 
L 436.794638 105.969246 
L 441.918605 103.0272 
L 447.042572 100.13194 
L 452.166539 97.290675 
L 457.290506 94.510578 
L 462.414473 91.79858 
L 467.53844 89.16116 
L 472.662407 86.604155 
L 477.786374 84.132597 
L 482.910341 81.750589 
L 488.034308 79.461235 
L 493.158275 77.266612 
L 498.282242 75.167793 
L 503.406209 73.164907 
L 508.530176 71.25723 
L 513.654143 69.443293 
L 518.77811 67.720999 
L 523.902076 66.087749 
L 529.026043 64.540549 
L 534.15001 63.076124 
L 539.273977 61.691004 
L 544.397944 60.381612 
L 549.521911 59.144323 
L 554.645878 57.975525 
L 559.769845 56.871656 
L 564.893812 55.829243 
L 570.017779 54.844921 
L 575.141746 53.915452 
L 580.265713 53.037737 
L 585.38968 52.208822 
L 590.513647 51.4259 
L 595.637614 50.686312 
" style="fill:none;stroke:#7b9ff9;stroke-linecap:square;stroke-width:1.5;"/>
   </g>
   <g id="line2d_15">
    <path clip-path="url(#pe3acab2e95)" d="M 88.364886 286.642868 
L 93.488853 285.622098 
L 98.61282 284.538733 
L 103.736787 283.388903 
L 108.860754 282.168595 
L 113.984721 280.873677 
L 119.108688 279.49994 
L 124.232655 278.043156 
L 129.356622 276.499145 
L 134.480589 274.86387 
L 139.604556 273.133542 
L 144.728523 271.304753 
L 149.85249 269.374618 
L 154.976457 267.340939 
L 160.100424 265.202366 
L 165.22439 262.958559 
L 170.348357 260.610323 
L 175.472324 258.159712 
L 180.596291 255.610082 
L 185.720258 252.966072 
L 190.844225 250.233521 
L 195.968192 247.419307 
L 201.092159 244.531126 
L 206.216126 241.577227 
L 211.340093 238.56612 
L 216.46406 235.506295 
L 221.588027 232.405956 
L 226.711994 229.272803 
L 231.835961 226.113866 
L 236.959928 222.935133 
L 242.083895 218.708009 
L 247.207862 184.858615 
L 252.331829 165.066288 
L 257.455795 150.41456 
L 262.579762 138.776199 
L 267.703729 129.294598 
L 272.827696 121.45294 
L 277.951663 114.889184 
L 283.07563 109.336162 
L 288.199597 104.592761 
L 293.323564 100.506665 
L 298.447531 96.961782 
L 303.571498 93.869126 
L 308.695465 91.16048 
L 313.819432 88.783563 
L 318.943399 86.698881 
L 324.067366 84.877388 
L 329.191333 83.298981 
L 334.3153 81.951989 
L 339.439267 80.833149 
L 344.563233 79.948437 
L 349.6872 79.315337 
L 354.811167 78.966328 
L 359.935134 78.95549 
L 365.059101 79.369472 
L 370.183068 80.347689 
L 375.307035 82.120686 
L 380.431002 85.095862 
L 385.554969 90.101265 
L 390.678936 99.523691 
L 395.802903 121.726947 
L 400.92687 118.414291 
L 406.050837 115.011769 
L 411.174804 111.625865 
L 416.298771 108.26641 
L 421.422738 104.944399 
L 426.546705 101.671712 
L 431.670671 98.460737 
L 436.794638 95.323894 
L 441.918605 92.27312 
L 447.042572 89.319347 
L 452.166539 86.472056 
L 457.290506 83.738925 
L 462.414473 81.125626 
L 467.53844 78.63577 
L 472.662407 76.270982 
L 477.786374 74.031082 
L 482.910341 71.914338 
L 488.034308 69.917749 
L 493.158275 68.037333 
L 498.282242 66.268398 
L 503.406209 64.605778 
L 508.530176 63.044036 
L 513.654143 61.577623 
L 518.77811 60.201007 
L 523.902076 58.908764 
L 529.026043 57.695644 
L 534.15001 56.556622 
L 539.273977 55.486918 
L 544.397944 54.482019 
L 549.521911 53.537679 
L 554.645878 52.649921 
L 559.769845 51.815028 
L 564.893812 51.029535 
L 570.017779 50.290214 
L 575.141746 49.594063 
L 580.265713 48.938289 
L 585.38968 48.320301 
L 590.513647 47.737686 
L 595.637614 47.188207 
" style="fill:none;stroke:#c0d4f5;stroke-linecap:square;stroke-width:1.5;"/>
   </g>
   <g id="line2d_16">
    <path clip-path="url(#pe3acab2e95)" d="M 88.364886 285.965367 
L 93.488853 284.886901 
L 98.61282 283.740376 
L 103.736787 282.521444 
L 108.860754 281.225595 
L 113.984721 279.848207 
L 119.108688 278.384592 
L 124.232655 276.830085 
L 129.356622 275.180136 
L 134.480589 273.430436 
L 139.604556 271.577068 
L 144.728523 269.616679 
L 149.85249 267.546673 
L 154.976457 265.365407 
L 160.100424 263.072389 
L 165.22439 260.668448 
L 170.348357 258.155857 
L 175.472324 255.538391 
L 180.596291 252.821304 
L 185.720258 250.011203 
L 190.844225 247.115844 
L 195.968192 244.143839 
L 201.092159 241.104321 
L 206.216126 238.006588 
L 211.340093 234.859759 
L 216.46406 231.67248 
L 221.588027 228.452458 
L 226.711994 221.937286 
L 231.835961 182.765855 
L 236.959928 160.794777 
L 242.083895 144.311112 
L 247.207862 131.43506 
L 252.331829 121.231677 
L 257.455795 113.038934 
L 262.579762 106.364471 
L 267.703729 100.844463 
L 272.827696 96.213984 
L 277.951663 92.279306 
L 283.07563 88.898395 
L 288.199597 85.965982 
L 293.323564 83.403153 
L 298.447531 81.150537 
L 303.571498 79.163109 
L 308.695465 77.407004 
L 313.819432 75.857122 
L 318.943399 74.495679 
L 324.067366 73.311946 
L 329.191333 72.30112 
L 334.3153 71.466611 
L 339.439267 70.820313 
L 344.563233 70.38668 
L 349.6872 70.20836 
L 354.811167 70.357189 
L 359.935134 70.953496 
L 365.059101 72.204336 
L 370.183068 74.480456 
L 375.307035 78.499355 
L 380.431002 85.945137 
L 385.554969 105.898708 
L 390.678936 113.574339 
L 395.802903 109.719937 
L 400.92687 105.900194 
L 406.050837 102.137315 
L 411.174804 98.454394 
L 416.298771 94.874354 
L 421.422738 91.418445 
L 426.546705 88.104869 
L 431.670671 84.947768 
L 436.794638 81.956716 
L 441.918605 79.136717 
L 447.042572 76.488623 
L 452.166539 74.00982 
L 457.290506 71.695015 
L 462.414473 69.537022 
L 467.53844 67.527444 
L 472.662407 65.65724 
L 477.786374 63.917149 
L 482.910341 62.298008 
L 488.034308 60.790956 
L 493.158275 59.387568 
L 498.282242 58.079933 
L 503.406209 56.860688 
L 508.530176 55.723016 
L 513.654143 54.660644 
L 518.77811 53.667806 
L 523.902076 52.739223 
L 529.026043 51.87006 
L 534.15001 51.055893 
L 539.273977 50.292677 
L 544.397944 49.576709 
L 549.521911 48.904601 
L 554.645878 48.273246 
L 559.769845 47.679798 
L 564.893812 47.121641 
L 570.017779 46.596375 
L 575.141746 46.101788 
L 580.265713 45.635845 
L 585.38968 45.196669 
L 590.513647 44.782527 
L 595.637614 44.391818 
" style="fill:none;stroke:#f2cbb7;stroke-linecap:square;stroke-width:1.5;"/>
   </g>
   <g id="line2d_17">
    <path clip-path="url(#pe3acab2e95)" d="M 88.364886 285.224857 
L 93.488853 284.080767 
L 98.61282 282.862124 
L 103.736787 281.563988 
L 108.860754 280.181246 
L 113.984721 278.708674 
L 119.108688 277.141019 
L 124.232655 275.473109 
L 129.356622 273.699992 
L 134.480589 271.817113 
L 139.604556 269.820517 
L 144.728523 267.707081 
L 149.85249 265.474763 
L 154.976457 263.122838 
L 160.100424 260.652119 
L 165.22439 258.065105 
L 170.348357 255.366055 
L 175.472324 252.56094 
L 180.596291 249.65728 
L 185.720258 246.663859 
L 190.844225 243.590349 
L 195.968192 240.44688 
L 201.092159 237.243597 
L 206.216126 233.990248 
L 211.340093 230.389717 
L 216.46406 187.322982 
L 221.588027 159.857764 
L 226.711994 139.728227 
L 231.835961 124.700663 
L 236.959928 113.433966 
L 242.083895 104.843587 
L 247.207862 98.135275 
L 252.331829 92.765351 
L 257.455795 88.368484 
L 262.579762 84.697488 
L 267.703729 81.581958 
L 272.827696 78.901872 
L 277.951663 76.570928 
L 283.07563 74.525828 
L 288.199597 72.719637 
L 293.323564 71.117079 
L 298.447531 69.691825 
L 303.571498 68.424466 
L 308.695465 67.30146 
L 313.819432 66.314646 
L 318.943399 65.461223 
L 324.067366 64.744737 
L 329.191333 64.177059 
L 334.3153 63.782321 
L 339.439267 63.60476 
L 344.563233 63.724392 
L 349.6872 64.290229 
L 354.811167 65.594673 
L 359.935134 68.252131 
L 365.059101 73.67542 
L 370.183068 86.205932 
L 375.307035 109.9549 
L 380.431002 105.452045 
L 385.554969 101.033055 
L 390.678936 96.745932 
L 395.802903 92.634829 
L 400.92687 88.735804 
L 406.050837 85.073785 
L 411.174804 81.661795 
L 416.298771 78.502127 
L 421.422738 75.588666 
L 426.546705 72.909515 
L 431.670671 70.44936 
L 436.794638 68.191317 
L 441.918605 66.118217 
L 447.042572 64.213431 
L 452.166539 62.46134 
L 457.290506 60.84756 
L 462.414473 59.359018 
L 467.53844 57.98393 
L 472.662407 56.711725 
L 477.786374 55.532949 
L 482.910341 54.439158 
L 488.034308 53.422809 
L 493.158275 52.477161 
L 498.282242 51.596183 
L 503.406209 50.774469 
L 508.530176 50.007166 
L 513.654143 49.289909 
L 518.77811 48.61876 
L 523.902076 47.990164 
L 529.026043 47.400903 
L 534.15001 46.848056 
L 539.273977 46.328968 
L 544.397944 45.841221 
L 549.521911 45.382607 
L 554.645878 44.951107 
L 559.769845 44.544872 
L 564.893812 44.162205 
L 570.017779 43.801544 
L 575.141746 43.461452 
L 580.265713 43.140605 
L 585.38968 42.837779 
L 590.513647 42.55184 
L 595.637614 42.28174 
" style="fill:none;stroke:#ee8468;stroke-linecap:square;stroke-width:1.5;"/>
   </g>
   <g id="line2d_18">
    <path clip-path="url(#pe3acab2e95)" d="M 88.364886 284.410346 
L 93.488853 283.190859 
L 98.61282 281.888994 
L 103.736787 280.499068 
L 108.860754 279.015216 
L 113.984721 277.431477 
L 119.108688 275.741916 
L 124.232655 273.940782 
L 129.356622 272.022707 
L 134.480589 269.982959 
L 139.604556 267.817716 
L 144.728523 265.524381 
L 149.85249 263.101884 
L 154.976457 260.550958 
L 160.100424 257.874332 
L 165.22439 255.07682 
L 170.348357 252.165246 
L 175.472324 249.148217 
L 180.596291 246.035735 
L 185.720258 242.838696 
L 190.844225 239.568336 
L 195.968192 236.235212 
L 201.092159 202.076767 
L 206.216126 163.430744 
L 211.340093 136.514921 
L 216.46406 117.954272 
L 221.588027 105.333574 
L 226.711994 96.462752 
L 231.835961 89.926596 
L 236.959928 84.896984 
L 242.083895 80.886131 
L 247.207862 77.595799 
L 252.331829 74.835491 
L 257.455795 72.478114 
L 262.579762 70.436557 
L 267.703729 68.648263 
L 272.827696 67.068456 
L 277.951663 65.663458 
L 283.07563 64.408519 
L 288.199597 63.284992 
L 293.323564 62.279558 
L 298.447531 61.383275 
L 303.571498 60.591482 
L 308.695465 59.904309 
L 313.819432 59.328174 
L 318.943399 58.878933 
L 324.067366 58.588287 
L 329.191333 58.519902 
L 334.3153 58.806739 
L 339.439267 59.760729 
L 344.563233 62.237056 
L 349.6872 69.024496 
L 354.811167 96.575237 
L 359.935134 102.77456 
L 365.059101 97.496597 
L 370.183068 92.515992 
L 375.307035 87.90334 
L 380.431002 83.692314 
L 385.554969 79.88419 
L 390.678936 76.458183 
L 395.802903 73.381784 
L 400.92687 70.61836 
L 406.050837 68.131725 
L 411.174804 65.888444 
L 416.298771 63.858734 
L 421.422738 62.01659 
L 426.546705 60.339543 
L 431.670671 58.808268 
L 436.794638 57.406164 
L 441.918605 56.118953 
L 447.042572 54.934321 
L 452.166539 53.841618 
L 457.290506 52.831593 
L 462.414473 51.896183 
L 467.53844 51.028326 
L 472.662407 50.221816 
L 477.786374 49.471177 
L 482.910341 48.771555 
L 488.034308 48.118637 
L 493.158275 47.508571 
L 498.282242 46.937911 
L 503.406209 46.40356 
L 508.530176 45.902728 
L 513.654143 45.432894 
L 518.77811 44.991774 
L 523.902076 44.577294 
L 529.026043 44.187565 
L 534.15001 43.820862 
L 539.273977 43.475608 
L 544.397944 43.150358 
L 549.521911 42.843785 
L 554.645878 42.554669 
L 559.769845 42.281883 
L 564.893812 42.024388 
L 570.017779 41.781226 
L 575.141746 41.551506 
L 580.265713 41.334404 
L 585.38968 41.129155 
L 590.513647 40.935048 
L 595.637614 40.75142 
" style="fill:none;stroke:#b40426;stroke-linecap:square;stroke-width:1.5;"/>
   </g>
   <g id="line2d_19">
    <path clip-path="url(#pe3acab2e95)" d="M 88.364886 287.84233 
L 93.488853 286.918456 
L 98.61282 285.940643 
L 103.736787 284.905747 
L 108.860754 283.810503 
L 113.984721 282.651535 
L 119.108688 281.425382 
L 124.232655 280.128521 
L 129.356622 278.757411 
L 134.480589 277.30854 
L 139.604556 275.778482 
L 144.728523 274.163974 
L 149.85249 272.461996 
L 154.976457 270.669875 
L 160.100424 268.785383 
L 165.22439 266.80686 
L 170.348357 264.733322 
L 175.472324 262.564577 
L 180.596291 260.301318 
L 185.720258 257.945195 
L 190.844225 255.498862 
L 195.968192 252.965972 
L 201.092159 250.351135 
L 206.216126 247.659829 
L 211.340093 244.898262 
L 216.46406 242.073205 
L 221.588027 239.191802 
L 226.711994 236.261365 
L 231.835961 233.28918 
L 236.959928 230.282329 
L 242.083895 227.247532 
L 247.207862 224.191035 
L 252.331829 221.118523 
L 257.455795 218.035067 
L 262.579762 214.945102 
L 267.703729 211.852587 
L 272.827696 208.76057 
L 277.951663 205.674078 
L 283.07563 204.905059 
L 288.199597 220.944731 
L 293.323564 227.58 
L 298.447531 230.92634 
L 303.571498 232.646815 
L 308.695465 233.324711 
L 313.819432 233.240518 
L 318.943399 232.547445 
L 324.067366 231.332646 
L 329.191333 229.643099 
L 334.3153 227.498676 
L 339.439267 224.898142 
L 344.563233 221.821871 
L 349.6872 218.231908 
L 354.811167 214.069994 
L 359.935134 209.251989 
L 365.059101 203.658169 
L 370.183068 197.112089 
L 375.307035 189.33425 
L 380.431002 179.812575 
L 385.554969 167.290059 
L 390.678936 145.564885 
L 395.802903 136.870693 
L 400.92687 133.960557 
L 406.050837 131.064619 
L 411.174804 128.178493 
L 416.298771 125.304347 
L 421.422738 122.443983 
L 426.546705 119.599713 
L 431.670671 116.774196 
L 436.794638 113.970432 
L 441.918605 111.191756 
L 447.042572 108.441814 
L 452.166539 105.724531 
L 457.290506 103.044059 
L 462.414473 100.404719 
L 467.53844 97.810927 
L 472.662407 95.267108 
L 477.786374 92.777606 
L 482.910341 90.34659 
L 488.034308 87.977965 
L 493.158275 85.675279 
L 498.282242 83.441656 
L 503.406209 81.279733 
L 508.530176 79.191615 
L 513.654143 77.178858 
L 518.77811 75.242458 
L 523.902076 73.38287 
L 529.026043 71.600029 
L 534.15001 69.893393 
L 539.273977 68.261991 
L 544.397944 66.704477 
L 549.521911 65.219184 
L 554.645878 63.804183 
L 559.769845 62.457332 
L 564.893812 61.176334 
L 570.017779 59.958773 
L 575.141746 58.802162 
L 580.265713 57.703974 
L 585.38968 56.661674 
L 590.513647 55.672743 
L 595.637614 54.734697 
" style="fill:none;stroke:#3b4cc0;stroke-linecap:square;stroke-width:1.5;"/>
   </g>
   <g id="line2d_20">
    <path clip-path="url(#pe3acab2e95)" d="M 88.364886 287.266147 
L 93.488853 286.296546 
L 98.61282 285.269002 
L 103.736787 284.180042 
L 108.860754 283.026059 
L 113.984721 281.803332 
L 119.108688 280.508055 
L 124.232655 279.13638 
L 129.356622 277.684463 
L 134.480589 276.148535 
L 139.604556 274.524981 
L 144.728523 272.810437 
L 149.85249 271.001898 
L 154.976457 269.096851 
L 160.100424 267.093399 
L 165.22439 264.990408 
L 170.348357 262.787629 
L 175.472324 260.485821 
L 180.596291 258.086831 
L 185.720258 255.593642 
L 190.844225 253.010367 
L 195.968192 250.342184 
L 201.092159 247.595222 
L 206.216126 244.776382 
L 211.340093 241.89313 
L 216.46406 238.953258 
L 221.588027 235.96465 
L 226.711994 232.935049 
L 231.835961 229.871861 
L 236.959928 226.781994 
L 242.083895 223.671738 
L 247.207862 220.54669 
L 252.331829 217.411912 
L 257.455795 214.27783 
L 262.579762 224.003638 
L 267.703729 238.116601 
L 272.827696 244.077705 
L 277.951663 247.413391 
L 283.07563 249.313943 
L 288.199597 250.282379 
L 293.323564 250.583641 
L 298.447531 250.37255 
L 303.571498 249.743647 
L 308.695465 248.754961 
L 313.819432 247.440486 
L 318.943399 245.816745 
L 324.067366 243.887014 
L 329.191333 241.643173 
L 334.3153 239.06653 
L 339.439267 236.127712 
L 344.563233 232.78561 
L 349.6872 228.985405 
L 354.811167 224.655354 
L 359.935134 219.702718 
L 365.059101 214.006082 
L 370.183068 207.404122 
L 375.307035 199.67492 
L 380.431002 190.489917 
L 385.554969 179.289986 
L 390.678936 164.808131 
L 395.802903 140.423714 
L 400.92687 127.33763 
L 406.050837 124.239114 
L 411.174804 121.148653 
L 416.298771 118.07003 
L 421.422738 115.0074 
L 426.546705 111.965836 
L 431.670671 108.951032 
L 436.794638 105.969246 
L 441.918605 103.0272 
L 447.042572 100.13194 
L 452.166539 97.290675 
L 457.290506 94.510578 
L 462.414473 91.79858 
L 467.53844 89.16116 
L 472.662407 86.604155 
L 477.786374 84.132597 
L 482.910341 81.750589 
L 488.034308 79.461235 
L 493.158275 77.266612 
L 498.282242 75.167793 
L 503.406209 73.164907 
L 508.530176 71.25723 
L 513.654143 69.443293 
L 518.77811 67.720999 
L 523.902076 66.087749 
L 529.026043 64.540549 
L 534.15001 63.076124 
L 539.273977 61.691004 
L 544.397944 60.381612 
L 549.521911 59.144323 
L 554.645878 57.975525 
L 559.769845 56.871656 
L 564.893812 55.829243 
L 570.017779 54.844921 
L 575.141746 53.915452 
L 580.265713 53.037737 
L 585.38968 52.208822 
L 590.513647 51.4259 
L 595.637614 50.686312 
" style="fill:none;stroke:#7b9ff9;stroke-linecap:square;stroke-width:1.5;"/>
   </g>
   <g id="line2d_21">
    <path clip-path="url(#pe3acab2e95)" d="M 88.364886 286.642868 
L 93.488853 285.622098 
L 98.61282 284.538733 
L 103.736787 283.388903 
L 108.860754 282.168595 
L 113.984721 280.873677 
L 119.108688 279.49994 
L 124.232655 278.043156 
L 129.356622 276.499145 
L 134.480589 274.86387 
L 139.604556 273.133542 
L 144.728523 271.304753 
L 149.85249 269.374618 
L 154.976457 267.340939 
L 160.100424 265.202366 
L 165.22439 262.958559 
L 170.348357 260.610323 
L 175.472324 258.159712 
L 180.596291 255.610082 
L 185.720258 252.966072 
L 190.844225 250.233521 
L 195.968192 247.419307 
L 201.092159 244.531126 
L 206.216126 241.577227 
L 211.340093 238.56612 
L 216.46406 235.506295 
L 221.588027 232.405956 
L 226.711994 229.272803 
L 231.835961 226.113866 
L 236.959928 222.93564 
L 242.083895 220.751559 
L 247.207862 243.917245 
L 252.331829 252.571997 
L 257.455795 257.130749 
L 262.579762 259.753237 
L 267.703729 261.22219 
L 272.827696 261.927646 
L 277.951663 262.090373 
L 283.07563 261.843659 
L 288.199597 261.26991 
L 293.323564 260.420169 
L 298.447531 259.324602 
L 303.571498 257.99899 
L 308.695465 256.448209 
L 313.819432 254.668286 
L 318.943399 252.647148 
L 324.067366 250.364749 
L 329.191333 247.793 
L 334.3153 244.893219 
L 339.439267 241.615528 
L 344.563233 237.894685 
L 349.6872 233.646288 
L 354.811167 228.760799 
L 359.935134 223.094994 
L 365.059101 216.460405 
L 370.183068 208.605926 
L 375.307035 199.188975 
L 380.431002 187.711206 
L 385.554969 173.310818 
L 390.678936 153.67133 
L 395.802903 121.926034 
L 400.92687 118.414291 
L 406.050837 115.011769 
L 411.174804 111.625865 
L 416.298771 108.26641 
L 421.422738 104.944399 
L 426.546705 101.671712 
L 431.670671 98.460737 
L 436.794638 95.323894 
L 441.918605 92.27312 
L 447.042572 89.319347 
L 452.166539 86.472056 
L 457.290506 83.738925 
L 462.414473 81.125626 
L 467.53844 78.63577 
L 472.662407 76.270982 
L 477.786374 74.031082 
L 482.910341 71.914338 
L 488.034308 69.917749 
L 493.158275 68.037333 
L 498.282242 66.268398 
L 503.406209 64.605778 
L 508.530176 63.044036 
L 513.654143 61.577623 
L 518.77811 60.201007 
L 523.902076 58.908764 
L 529.026043 57.695644 
L 534.15001 56.556622 
L 539.273977 55.486918 
L 544.397944 54.482019 
L 549.521911 53.537679 
L 554.645878 52.649921 
L 559.769845 51.815028 
L 564.893812 51.029535 
L 570.017779 50.290214 
L 575.141746 49.594063 
L 580.265713 48.938289 
L 585.38968 48.320301 
L 590.513647 47.737686 
L 595.637614 47.188207 
" style="fill:none;stroke:#c0d4f5;stroke-linecap:square;stroke-width:1.5;"/>
   </g>
   <g id="line2d_22">
    <path clip-path="url(#pe3acab2e95)" d="M 88.364886 285.965367 
L 93.488853 284.886901 
L 98.61282 283.740376 
L 103.736787 282.521444 
L 108.860754 281.225595 
L 113.984721 279.848207 
L 119.108688 278.384592 
L 124.232655 276.830085 
L 129.356622 275.180136 
L 134.480589 273.430436 
L 139.604556 271.577068 
L 144.728523 269.616679 
L 149.85249 267.546673 
L 154.976457 265.365407 
L 160.100424 263.072389 
L 165.22439 260.668448 
L 170.348357 258.155857 
L 175.472324 255.538391 
L 180.596291 252.821304 
L 185.720258 250.011203 
L 190.844225 247.115844 
L 195.968192 244.143839 
L 201.092159 241.104321 
L 206.216126 238.006588 
L 211.340093 234.859759 
L 216.46406 231.67248 
L 221.588027 228.452898 
L 226.711994 228.447123 
L 231.835961 253.625566 
L 236.959928 261.877218 
L 242.083895 266.176998 
L 247.207862 268.549212 
L 252.331829 269.798689 
L 257.455795 270.336969 
L 262.579762 270.394341 
L 267.703729 270.105317 
L 272.827696 269.54987 
L 277.951663 268.776005 
L 283.07563 267.81126 
L 288.199597 266.670022 
L 293.323564 265.357181 
L 298.447531 263.870136 
L 303.571498 262.199949 
L 308.695465 260.331284 
L 313.819432 258.242251 
L 318.943399 255.90319 
L 324.067366 253.274926 
L 329.191333 250.306017 
L 334.3153 246.928628 
L 339.439267 243.053003 
L 344.563233 238.558153 
L 349.6872 233.279582 
L 354.811167 226.990248 
L 359.935134 219.374175 
L 365.059101 209.988946 
L 370.183068 198.214656 
L 375.307035 183.152796 
L 380.431002 163.165986 
L 385.554969 129.616968 
L 390.678936 113.574984 
L 395.802903 109.719937 
L 400.92687 105.900194 
L 406.050837 102.137315 
L 411.174804 98.454394 
L 416.298771 94.874354 
L 421.422738 91.418445 
L 426.546705 88.104869 
L 431.670671 84.947768 
L 436.794638 81.956716 
L 441.918605 79.136717 
L 447.042572 76.488623 
L 452.166539 74.00982 
L 457.290506 71.695015 
L 462.414473 69.537022 
L 467.53844 67.527444 
L 472.662407 65.65724 
L 477.786374 63.917149 
L 482.910341 62.298008 
L 488.034308 60.790956 
L 493.158275 59.387568 
L 498.282242 58.079933 
L 503.406209 56.860688 
L 508.530176 55.723016 
L 513.654143 54.660644 
L 518.77811 53.667806 
L 523.902076 52.739223 
L 529.026043 51.87006 
L 534.15001 51.055893 
L 539.273977 50.292677 
L 544.397944 49.576709 
L 549.521911 48.904601 
L 554.645878 48.273246 
L 559.769845 47.679798 
L 564.893812 47.121641 
L 570.017779 46.596375 
L 575.141746 46.101788 
L 580.265713 45.635845 
L 585.38968 45.196669 
L 590.513647 44.782527 
L 595.637614 44.391818 
" style="fill:none;stroke:#f2cbb7;stroke-linecap:square;stroke-width:1.5;"/>
   </g>
   <g id="line2d_23">
    <path clip-path="url(#pe3acab2e95)" d="M 88.364886 285.224857 
L 93.488853 284.080767 
L 98.61282 282.862124 
L 103.736787 281.563988 
L 108.860754 280.181246 
L 113.984721 278.708674 
L 119.108688 277.141019 
L 124.232655 275.473109 
L 129.356622 273.699992 
L 134.480589 271.817113 
L 139.604556 269.820517 
L 144.728523 267.707081 
L 149.85249 265.474763 
L 154.976457 263.122838 
L 160.100424 260.652119 
L 165.22439 258.065105 
L 170.348357 255.366055 
L 175.472324 252.56094 
L 180.596291 249.65728 
L 185.720258 246.663859 
L 190.844225 243.590349 
L 195.968192 240.44688 
L 201.092159 237.243597 
L 206.216126 233.990248 
L 211.340093 230.9913 
L 216.46406 258.499489 
L 221.588027 268.228543 
L 226.711994 272.857791 
L 231.835961 275.181764 
L 236.959928 276.274437 
L 242.083895 276.659367 
L 247.207862 276.606256 
L 252.331829 276.258726 
L 257.455795 275.695578 
L 262.579762 274.960561 
L 267.703729 274.077574 
L 272.827696 273.058191 
L 277.951663 271.905825 
L 283.07563 270.617706 
L 288.199597 269.185931 
L 293.323564 267.597535 
L 298.447531 265.83416 
L 303.571498 263.871131 
L 308.695465 261.675753 
L 313.819432 259.204734 
L 318.943399 256.400359 
L 324.067366 253.184354 
L 329.191333 249.448335 
L 334.3153 245.03832 
L 339.439267 239.729486 
L 344.563233 233.182156 
L 349.6872 224.868591 
L 354.811167 213.951969 
L 359.935134 199.118359 
L 365.059101 178.386865 
L 370.183068 147.828632 
L 375.307035 109.955774 
L 380.431002 105.452045 
L 385.554969 101.033055 
L 390.678936 96.745932 
L 395.802903 92.634829 
L 400.92687 88.735804 
L 406.050837 85.073785 
L 411.174804 81.661795 
L 416.298771 78.502127 
L 421.422738 75.588666 
L 426.546705 72.909515 
L 431.670671 70.44936 
L 436.794638 68.191317 
L 441.918605 66.118217 
L 447.042572 64.213431 
L 452.166539 62.46134 
L 457.290506 60.84756 
L 462.414473 59.359018 
L 467.53844 57.98393 
L 472.662407 56.711725 
L 477.786374 55.532949 
L 482.910341 54.439158 
L 488.034308 53.422809 
L 493.158275 52.477161 
L 498.282242 51.596183 
L 503.406209 50.774469 
L 508.530176 50.007166 
L 513.654143 49.289909 
L 518.77811 48.61876 
L 523.902076 47.990164 
L 529.026043 47.400903 
L 534.15001 46.848056 
L 539.273977 46.328968 
L 544.397944 45.841221 
L 549.521911 45.382607 
L 554.645878 44.951107 
L 559.769845 44.544872 
L 564.893812 44.162205 
L 570.017779 43.801544 
L 575.141746 43.461452 
L 580.265713 43.140605 
L 585.38968 42.837779 
L 590.513647 42.55184 
L 595.637614 42.28174 
" style="fill:none;stroke:#ee8468;stroke-linecap:square;stroke-width:1.5;"/>
   </g>
   <g id="line2d_24">
    <path clip-path="url(#pe3acab2e95)" d="M 88.364886 284.410346 
L 93.488853 283.190859 
L 98.61282 281.888994 
L 103.736787 280.499068 
L 108.860754 279.015216 
L 113.984721 277.431477 
L 119.108688 275.741916 
L 124.232655 273.940782 
L 129.356622 272.022707 
L 134.480589 269.982959 
L 139.604556 267.817716 
L 144.728523 265.524381 
L 149.85249 263.101884 
L 154.976457 260.550958 
L 160.100424 257.874332 
L 165.22439 255.07682 
L 170.348357 252.165246 
L 175.472324 249.148217 
L 180.596291 246.035735 
L 185.720258 242.838696 
L 190.844225 239.568336 
L 195.968192 236.236103 
L 201.092159 257.394055 
L 206.216126 272.13088 
L 211.340093 277.888458 
L 216.46406 280.334223 
L 221.588027 281.28021 
L 226.711994 281.500345 
L 231.835961 281.328474 
L 236.959928 280.915778 
L 242.083895 280.335131 
L 247.207862 279.623128 
L 252.331829 278.797871 
L 257.455795 277.867041 
L 262.579762 276.831655 
L 267.703729 275.68789 
L 272.827696 274.42775 
L 277.951663 273.039357 
L 283.07563 271.506003 
L 288.199597 269.805738 
L 293.323564 267.909329 
L 298.447531 265.778003 
L 303.571498 263.359077 
L 308.695465 260.57963 
L 313.819432 257.33555 
L 318.943399 253.472233 
L 324.067366 248.749324 
L 329.191333 242.769433 
L 334.3153 234.82719 
L 339.439267 223.560327 
L 344.563233 206.146949 
L 349.6872 177.015682 
L 354.811167 120.896094 
L 359.935134 102.77456 
L 365.059101 97.496597 
L 370.183068 92.515992 
L 375.307035 87.90334 
L 380.431002 83.692314 
L 385.554969 79.88419 
L 390.678936 76.458183 
L 395.802903 73.381784 
L 400.92687 70.61836 
L 406.050837 68.131725 
L 411.174804 65.888444 
L 416.298771 63.858734 
L 421.422738 62.01659 
L 426.546705 60.339543 
L 431.670671 58.808268 
L 436.794638 57.406164 
L 441.918605 56.118953 
L 447.042572 54.934321 
L 452.166539 53.841618 
L 457.290506 52.831593 
L 462.414473 51.896183 
L 467.53844 51.028326 
L 472.662407 50.221816 
L 477.786374 49.471177 
L 482.910341 48.771555 
L 488.034308 48.118637 
L 493.158275 47.508571 
L 498.282242 46.937911 
L 503.406209 46.40356 
L 508.530176 45.902728 
L 513.654143 45.432894 
L 518.77811 44.991774 
L 523.902076 44.577294 
L 529.026043 44.187565 
L 534.15001 43.820862 
L 539.273977 43.475608 
L 544.397944 43.150358 
L 549.521911 42.843785 
L 554.645878 42.554669 
L 559.769845 42.281883 
L 564.893812 42.024388 
L 570.017779 41.781226 
L 575.141746 41.551506 
L 580.265713 41.334404 
L 585.38968 41.129156 
L 590.513647 40.935048 
L 595.637614 40.75142 
" style="fill:none;stroke:#b40426;stroke-linecap:square;stroke-width:1.5;"/>
   </g>
   <g id="line2d_25">
    <path clip-path="url(#pe3acab2e95)" d="M 88.364886 286.3114 
L 93.488853 285.262677 
L 98.61282 284.14874 
L 103.736787 282.965493 
L 108.860754 281.708686 
L 113.984721 280.373954 
L 119.108688 278.956858 
L 124.232655 277.452961 
L 129.356622 275.8579 
L 134.480589 274.167502 
L 139.604556 272.377907 
L 144.728523 270.485718 
L 149.85249 268.488167 
L 154.976457 266.383298 
L 160.100424 264.170143 
L 165.22439 261.848893 
L 170.348357 259.421028 
L 175.472324 256.889405 
L 180.596291 254.25828 
L 185.720258 251.533241 
L 190.844225 248.721069 
L 195.968192 245.829518 
L 201.092159 242.867034 
L 206.216126 239.842445 
L 211.340093 236.764637 
L 216.46406 233.642259 
L 221.588027 230.483462 
L 226.711994 227.295901 
L 231.835961 224.09263 
L 236.959928 241.662604 
L 242.083895 254.292882 
L 247.207862 260.155363 
L 252.331829 263.425711 
L 257.455795 265.26643 
L 262.579762 266.212461 
L 267.703729 266.554928 
L 272.827696 266.464157 
L 277.951663 266.043305 
L 283.07563 265.355564 
L 288.199597 264.439064 
L 293.323564 263.315315 
L 298.447531 261.994119 
L 303.571498 260.476289 
L 308.695465 258.755193 
L 313.819432 256.817084 
L 318.943399 254.641156 
L 324.067366 252.198569 
L 329.191333 249.450911 
L 334.3153 246.347962 
L 339.439267 242.824164 
L 344.563233 238.793735 
L 349.6872 234.14353 
L 354.811167 228.723393 
L 359.935134 222.332097 
L 365.059101 214.698041 
L 370.183068 205.452553 
L 375.307035 194.081217 
L 380.431002 179.803063 
L 385.554969 161.00021 
L 390.678936 127.316846 
L 395.802903 116.31644 
L 400.92687 112.705691 
L 406.050837 109.116879 
L 411.174804 105.564157 
L 416.298771 102.06343 
L 421.422738 98.631412 
L 426.546705 95.28484 
L 431.670671 92.0396 
L 436.794638 88.909896 
L 441.918605 85.90755 
L 447.042572 83.041542 
L 452.166539 80.317811 
L 457.290506 77.739326 
L 462.414473 75.306353 
L 467.53844 73.016858 
L 472.662407 70.866974 
L 477.786374 68.851467 
L 482.910341 66.964162 
L 488.034308 65.19831 
L 493.158275 63.54688 
L 498.282242 62.002785 
L 503.406209 60.559055 
L 508.530176 59.208947 
L 513.654143 57.946023 
L 518.77811 56.764196 
L 523.902076 55.657754 
L 529.026043 54.621362 
L 534.15001 53.65006 
L 539.273977 52.739251 
L 544.397944 51.88468 
L 549.521911 51.082416 
L 554.645878 50.328829 
L 559.769845 49.620571 
L 564.893812 48.954552 
L 570.017779 48.327921 
L 575.141746 47.738045 
L 580.265713 47.182493 
L 585.38968 46.659018 
L 590.513647 46.165542 
L 595.637614 45.700142 
" style="fill:none;stroke:#000000;stroke-linecap:square;stroke-width:1.5;"/>
   </g>
   <g id="patch_3">
    <path d="M 63.00125 300.196875 
L 63.00125 28.396875 
" style="fill:none;stroke:#000000;stroke-linecap:square;stroke-linejoin:miter;stroke-width:0.8;"/>
   </g>
   <g id="patch_4">
    <path d="M 621.00125 300.196875 
L 621.00125 28.396875 
" style="fill:none;stroke:#000000;stroke-linecap:square;stroke-linejoin:miter;stroke-width:0.8;"/>
   </g>
   <g id="patch_5">
    <path d="M 63.00125 300.196875 
L 621.00125 300.196875 
" style="fill:none;stroke:#000000;stroke-linecap:square;stroke-linejoin:miter;stroke-width:0.8;"/>
   </g>
   <g id="patch_6">
    <path d="M 63.00125 28.396875 
L 621.00125 28.396875 
" style="fill:none;stroke:#000000;stroke-linecap:square;stroke-linejoin:miter;stroke-width:0.8;"/>
   </g>
   <g id="text_14">
    <!-- $R_e = -R_i$ -->
    <defs>
     <path d="M 25.203125 64.796875 
L 20.21875 38.921875 
L 32.90625 38.921875 
Q 40.375 38.921875 44.984375 43.046875 
Q 49.609375 47.171875 49.609375 53.8125 
Q 49.609375 59.125 46.5 61.953125 
Q 43.40625 64.796875 37.59375 64.796875 
z
M 43.3125 35.015625 
Q 46.4375 34.28125 48.515625 31.390625 
Q 50.59375 28.515625 53.328125 19.921875 
L 59.515625 0 
L 49.125 0 
L 43.40625 18.703125 
Q 41.21875 25.921875 38.328125 28.359375 
Q 35.453125 30.8125 29.5 30.8125 
L 18.609375 30.8125 
L 12.59375 0 
L 2.6875 0 
L 16.890625 72.90625 
L 39.109375 72.90625 
Q 49.21875 72.90625 54.609375 68.328125 
Q 60.015625 63.765625 60.015625 55.171875 
Q 60.015625 47.5625 55.421875 41.984375 
Q 50.828125 36.421875 43.3125 35.015625 
z
" id="DejaVuSans-Oblique-82"/>
     <path d="M 10.59375 45.40625 
L 73.1875 45.40625 
L 73.1875 37.203125 
L 10.59375 37.203125 
z
M 10.59375 25.484375 
L 73.1875 25.484375 
L 73.1875 17.1875 
L 10.59375 17.1875 
z
" id="DejaVuSans-61"/>
     <path d="M 10.59375 35.5 
L 73.1875 35.5 
L 73.1875 27.203125 
L 10.59375 27.203125 
z
" id="DejaVuSans-8722"/>
     <path d="M 18.3125 75.984375 
L 27.296875 75.984375 
L 25.09375 64.59375 
L 16.109375 64.59375 
z
M 14.203125 54.6875 
L 23.1875 54.6875 
L 12.5 0 
L 3.515625 0 
z
" id="DejaVuSans-Oblique-105"/>
    </defs>
    <g transform="translate(296.70125 22.396875)scale(0.2 -0.2)">
     <use transform="translate(0 0.09375)" xlink:href="#DejaVuSans-Oblique-82"/>
     <use transform="translate(69.482422 -16.3125)scale(0.7)" xlink:href="#DejaVuSans-Oblique-101"/>
     <use transform="translate(134.765625 0.09375)" xlink:href="#DejaVuSans-61"/>
     <use transform="translate(257.519531 0.09375)" xlink:href="#DejaVuSans-8722"/>
     <use transform="translate(360.791016 0.09375)" xlink:href="#DejaVuSans-Oblique-82"/>
     <use transform="translate(430.273438 -16.3125)scale(0.7)" xlink:href="#DejaVuSans-Oblique-105"/>
    </g>
   </g>
  </g>
 </g>
 <defs>
  <clipPath id="pe3acab2e95">
   <rect height="271.8" width="558" x="63.00125" y="28.396875"/>
  </clipPath>
 </defs>
</svg>
