<?xml version="1.0" encoding="utf-8" standalone="no"?>
<!DOCTYPE svg PUBLIC "-//W3C//DTD SVG 1.1//EN"
  "http://www.w3.org/Graphics/SVG/1.1/DTD/svg11.dtd">
<!-- Created with matplotlib (https://matplotlib.org/) -->
<svg height="353.281875pt" version="1.1" viewBox="0 0 628.20125 353.281875" width="628.20125pt" xmlns="http://www.w3.org/2000/svg" xmlns:xlink="http://www.w3.org/1999/xlink">
 <defs>
  <style type="text/css">
*{stroke-linecap:butt;stroke-linejoin:round;}
  </style>
 </defs>
 <g id="figure_1">
  <g id="patch_1">
   <path d="M 0 353.281875 
L 628.20125 353.281875 
L 628.20125 0 
L 0 0 
z
" style="fill:none;"/>
  </g>
  <g id="axes_1">
   <g id="patch_2">
    <path d="M 63.00125 300.196875 
L 621.00125 300.196875 
L 621.00125 28.396875 
L 63.00125 28.396875 
z
" style="fill:#ffffff;"/>
   </g>
   <g id="matplotlib.axis_1">
    <g id="xtick_1">
     <g id="line2d_1">
      <defs>
       <path d="M 0 0 
L 0 3.5 
" id="m73f076dc36" style="stroke:#000000;stroke-width:0.8;"/>
      </defs>
      <g>
       <use style="stroke:#000000;stroke-width:0.8;" x="88.364886" xlink:href="#m73f076dc36" y="300.196875"/>
      </g>
     </g>
     <g id="text_1">
      <!-- 0 -->
      <defs>
       <path d="M 31.78125 66.40625 
Q 24.171875 66.40625 20.328125 58.90625 
Q 16.5 51.421875 16.5 36.375 
Q 16.5 21.390625 20.328125 13.890625 
Q 24.171875 6.390625 31.78125 6.390625 
Q 39.453125 6.390625 43.28125 13.890625 
Q 47.125 21.390625 47.125 36.375 
Q 47.125 51.421875 43.28125 58.90625 
Q 39.453125 66.40625 31.78125 66.40625 
z
M 31.78125 74.21875 
Q 44.046875 74.21875 50.515625 64.515625 
Q 56.984375 54.828125 56.984375 36.375 
Q 56.984375 17.96875 50.515625 8.265625 
Q 44.046875 -1.421875 31.78125 -1.421875 
Q 19.53125 -1.421875 13.0625 8.265625 
Q 6.59375 17.96875 6.59375 36.375 
Q 6.59375 54.828125 13.0625 64.515625 
Q 19.53125 74.21875 31.78125 74.21875 
z
" id="DejaVuSans-48"/>
      </defs>
      <g transform="translate(83.274886 319.354375)scale(0.16 -0.16)">
       <use xlink:href="#DejaVuSans-48"/>
      </g>
     </g>
    </g>
    <g id="xtick_2">
     <g id="line2d_2">
      <g>
       <use style="stroke:#000000;stroke-width:0.8;" x="190.844225" xlink:href="#m73f076dc36" y="300.196875"/>
      </g>
     </g>
     <g id="text_2">
      <!-- 1 -->
      <defs>
       <path d="M 12.40625 8.296875 
L 28.515625 8.296875 
L 28.515625 63.921875 
L 10.984375 60.40625 
L 10.984375 69.390625 
L 28.421875 72.90625 
L 38.28125 72.90625 
L 38.28125 8.296875 
L 54.390625 8.296875 
L 54.390625 0 
L 12.40625 0 
z
" id="DejaVuSans-49"/>
      </defs>
      <g transform="translate(185.754225 319.354375)scale(0.16 -0.16)">
       <use xlink:href="#DejaVuSans-49"/>
      </g>
     </g>
    </g>
    <g id="xtick_3">
     <g id="line2d_3">
      <g>
       <use style="stroke:#000000;stroke-width:0.8;" x="293.323564" xlink:href="#m73f076dc36" y="300.196875"/>
      </g>
     </g>
     <g id="text_3">
      <!-- 2 -->
      <defs>
       <path d="M 19.1875 8.296875 
L 53.609375 8.296875 
L 53.609375 0 
L 7.328125 0 
L 7.328125 8.296875 
Q 12.9375 14.109375 22.625 23.890625 
Q 32.328125 33.6875 34.8125 36.53125 
Q 39.546875 41.84375 41.421875 45.53125 
Q 43.3125 49.21875 43.3125 52.78125 
Q 43.3125 58.59375 39.234375 62.25 
Q 35.15625 65.921875 28.609375 65.921875 
Q 23.96875 65.921875 18.8125 64.3125 
Q 13.671875 62.703125 7.8125 59.421875 
L 7.8125 69.390625 
Q 13.765625 71.78125 18.9375 73 
Q 24.125 74.21875 28.421875 74.21875 
Q 39.75 74.21875 46.484375 68.546875 
Q 53.21875 62.890625 53.21875 53.421875 
Q 53.21875 48.921875 51.53125 44.890625 
Q 49.859375 40.875 45.40625 35.40625 
Q 44.1875 33.984375 37.640625 27.21875 
Q 31.109375 20.453125 19.1875 8.296875 
z
" id="DejaVuSans-50"/>
      </defs>
      <g transform="translate(288.233564 319.354375)scale(0.16 -0.16)">
       <use xlink:href="#DejaVuSans-50"/>
      </g>
     </g>
    </g>
    <g id="xtick_4">
     <g id="line2d_4">
      <g>
       <use style="stroke:#000000;stroke-width:0.8;" x="395.802903" xlink:href="#m73f076dc36" y="300.196875"/>
      </g>
     </g>
     <g id="text_4">
      <!-- 3 -->
      <defs>
       <path d="M 40.578125 39.3125 
Q 47.65625 37.796875 51.625 33 
Q 55.609375 28.21875 55.609375 21.1875 
Q 55.609375 10.40625 48.1875 4.484375 
Q 40.765625 -1.421875 27.09375 -1.421875 
Q 22.515625 -1.421875 17.65625 -0.515625 
Q 12.796875 0.390625 7.625 2.203125 
L 7.625 11.71875 
Q 11.71875 9.328125 16.59375 8.109375 
Q 21.484375 6.890625 26.8125 6.890625 
Q 36.078125 6.890625 40.9375 10.546875 
Q 45.796875 14.203125 45.796875 21.1875 
Q 45.796875 27.640625 41.28125 31.265625 
Q 36.765625 34.90625 28.71875 34.90625 
L 20.21875 34.90625 
L 20.21875 43.015625 
L 29.109375 43.015625 
Q 36.375 43.015625 40.234375 45.921875 
Q 44.09375 48.828125 44.09375 54.296875 
Q 44.09375 59.90625 40.109375 62.90625 
Q 36.140625 65.921875 28.71875 65.921875 
Q 24.65625 65.921875 20.015625 65.03125 
Q 15.375 64.15625 9.8125 62.3125 
L 9.8125 71.09375 
Q 15.4375 72.65625 20.34375 73.4375 
Q 25.25 74.21875 29.59375 74.21875 
Q 40.828125 74.21875 47.359375 69.109375 
Q 53.90625 64.015625 53.90625 55.328125 
Q 53.90625 49.265625 50.4375 45.09375 
Q 46.96875 40.921875 40.578125 39.3125 
z
" id="DejaVuSans-51"/>
      </defs>
      <g transform="translate(390.712903 319.354375)scale(0.16 -0.16)">
       <use xlink:href="#DejaVuSans-51"/>
      </g>
     </g>
    </g>
    <g id="xtick_5">
     <g id="line2d_5">
      <g>
       <use style="stroke:#000000;stroke-width:0.8;" x="498.282242" xlink:href="#m73f076dc36" y="300.196875"/>
      </g>
     </g>
     <g id="text_5">
      <!-- 4 -->
      <defs>
       <path d="M 37.796875 64.3125 
L 12.890625 25.390625 
L 37.796875 25.390625 
z
M 35.203125 72.90625 
L 47.609375 72.90625 
L 47.609375 25.390625 
L 58.015625 25.390625 
L 58.015625 17.1875 
L 47.609375 17.1875 
L 47.609375 0 
L 37.796875 0 
L 37.796875 17.1875 
L 4.890625 17.1875 
L 4.890625 26.703125 
z
" id="DejaVuSans-52"/>
      </defs>
      <g transform="translate(493.192242 319.354375)scale(0.16 -0.16)">
       <use xlink:href="#DejaVuSans-52"/>
      </g>
     </g>
    </g>
    <g id="xtick_6">
     <g id="line2d_6">
      <g>
       <use style="stroke:#000000;stroke-width:0.8;" x="600.761581" xlink:href="#m73f076dc36" y="300.196875"/>
      </g>
     </g>
     <g id="text_6">
      <!-- 5 -->
      <defs>
       <path d="M 10.796875 72.90625 
L 49.515625 72.90625 
L 49.515625 64.59375 
L 19.828125 64.59375 
L 19.828125 46.734375 
Q 21.96875 47.46875 24.109375 47.828125 
Q 26.265625 48.1875 28.421875 48.1875 
Q 40.625 48.1875 47.75 41.5 
Q 54.890625 34.8125 54.890625 23.390625 
Q 54.890625 11.625 47.5625 5.09375 
Q 40.234375 -1.421875 26.90625 -1.421875 
Q 22.3125 -1.421875 17.546875 -0.640625 
Q 12.796875 0.140625 7.71875 1.703125 
L 7.71875 11.625 
Q 12.109375 9.234375 16.796875 8.0625 
Q 21.484375 6.890625 26.703125 6.890625 
Q 35.15625 6.890625 40.078125 11.328125 
Q 45.015625 15.765625 45.015625 23.390625 
Q 45.015625 31 40.078125 35.4375 
Q 35.15625 39.890625 26.703125 39.890625 
Q 22.75 39.890625 18.8125 39.015625 
Q 14.890625 38.140625 10.796875 36.28125 
z
" id="DejaVuSans-53"/>
      </defs>
      <g transform="translate(595.671581 319.354375)scale(0.16 -0.16)">
       <use xlink:href="#DejaVuSans-53"/>
      </g>
     </g>
    </g>
    <g id="text_7">
     <!-- $J_e$ (mV) -->
     <defs>
      <path d="M 16.703125 72.90625 
L 26.609375 72.90625 
L 13.375 5.078125 
Q 10.796875 -8.15625 4.65625 -14.078125 
Q -1.46875 -20.015625 -12.5 -20.015625 
L -16.40625 -20.015625 
L -14.796875 -11.71875 
L -11.71875 -11.71875 
Q -5.125 -11.71875 -1.703125 -7.953125 
Q 1.703125 -4.203125 3.515625 5.078125 
z
" id="DejaVuSans-Oblique-74"/>
      <path d="M 48.09375 32.234375 
Q 48.25 33.015625 48.3125 33.84375 
Q 48.390625 34.671875 48.390625 35.5 
Q 48.390625 41.453125 44.890625 44.921875 
Q 41.40625 48.390625 35.40625 48.390625 
Q 28.71875 48.390625 23.578125 44.15625 
Q 18.453125 39.9375 15.828125 32.171875 
z
M 55.90625 25.203125 
L 14.109375 25.203125 
Q 13.8125 23.34375 13.71875 22.265625 
Q 13.625 21.1875 13.625 20.40625 
Q 13.625 13.625 17.796875 9.90625 
Q 21.96875 6.203125 29.59375 6.203125 
Q 35.453125 6.203125 40.671875 7.515625 
Q 45.90625 8.84375 50.390625 11.375 
L 48.6875 2.484375 
Q 43.84375 0.53125 38.6875 -0.4375 
Q 33.546875 -1.421875 28.21875 -1.421875 
Q 16.84375 -1.421875 10.71875 4.015625 
Q 4.59375 9.46875 4.59375 19.484375 
Q 4.59375 28.03125 7.640625 35.375 
Q 10.6875 42.71875 16.609375 48.484375 
Q 20.40625 52.09375 25.65625 54.046875 
Q 30.90625 56 36.8125 56 
Q 46.09375 56 51.578125 50.4375 
Q 57.078125 44.875 57.078125 35.5 
Q 57.078125 33.25 56.78125 30.6875 
Q 56.5 28.125 55.90625 25.203125 
z
" id="DejaVuSans-Oblique-101"/>
      <path id="DejaVuSans-32"/>
      <path d="M 31 75.875 
Q 24.46875 64.65625 21.28125 53.65625 
Q 18.109375 42.671875 18.109375 31.390625 
Q 18.109375 20.125 21.3125 9.0625 
Q 24.515625 -2 31 -13.1875 
L 23.1875 -13.1875 
Q 15.875 -1.703125 12.234375 9.375 
Q 8.59375 20.453125 8.59375 31.390625 
Q 8.59375 42.28125 12.203125 53.3125 
Q 15.828125 64.359375 23.1875 75.875 
z
" id="DejaVuSans-40"/>
      <path d="M 52 44.1875 
Q 55.375 50.25 60.0625 53.125 
Q 64.75 56 71.09375 56 
Q 79.640625 56 84.28125 50.015625 
Q 88.921875 44.046875 88.921875 33.015625 
L 88.921875 0 
L 79.890625 0 
L 79.890625 32.71875 
Q 79.890625 40.578125 77.09375 44.375 
Q 74.3125 48.1875 68.609375 48.1875 
Q 61.625 48.1875 57.5625 43.546875 
Q 53.515625 38.921875 53.515625 30.90625 
L 53.515625 0 
L 44.484375 0 
L 44.484375 32.71875 
Q 44.484375 40.625 41.703125 44.40625 
Q 38.921875 48.1875 33.109375 48.1875 
Q 26.21875 48.1875 22.15625 43.53125 
Q 18.109375 38.875 18.109375 30.90625 
L 18.109375 0 
L 9.078125 0 
L 9.078125 54.6875 
L 18.109375 54.6875 
L 18.109375 46.1875 
Q 21.1875 51.21875 25.484375 53.609375 
Q 29.78125 56 35.6875 56 
Q 41.65625 56 45.828125 52.96875 
Q 50 49.953125 52 44.1875 
z
" id="DejaVuSans-109"/>
      <path d="M 28.609375 0 
L 0.78125 72.90625 
L 11.078125 72.90625 
L 34.1875 11.53125 
L 57.328125 72.90625 
L 67.578125 72.90625 
L 39.796875 0 
z
" id="DejaVuSans-86"/>
      <path d="M 8.015625 75.875 
L 15.828125 75.875 
Q 23.140625 64.359375 26.78125 53.3125 
Q 30.421875 42.28125 30.421875 31.390625 
Q 30.421875 20.453125 26.78125 9.375 
Q 23.140625 -1.703125 15.828125 -13.1875 
L 8.015625 -13.1875 
Q 14.5 -2 17.703125 9.0625 
Q 20.90625 20.125 20.90625 31.390625 
Q 20.90625 42.671875 17.703125 53.65625 
Q 14.5 64.65625 8.015625 75.875 
z
" id="DejaVuSans-41"/>
     </defs>
     <g transform="translate(306.90125 341.881875)scale(0.2 -0.2)">
      <use transform="translate(0 0.125)" xlink:href="#DejaVuSans-Oblique-74"/>
      <use transform="translate(29.492188 -16.28125)scale(0.7)" xlink:href="#DejaVuSans-Oblique-101"/>
      <use transform="translate(75.292969 0.125)" xlink:href="#DejaVuSans-32"/>
      <use transform="translate(107.080078 0.125)" xlink:href="#DejaVuSans-40"/>
      <use transform="translate(146.09375 0.125)" xlink:href="#DejaVuSans-109"/>
      <use transform="translate(243.505859 0.125)" xlink:href="#DejaVuSans-86"/>
      <use transform="translate(311.914062 0.125)" xlink:href="#DejaVuSans-41"/>
     </g>
    </g>
   </g>
   <g id="matplotlib.axis_2">
    <g id="ytick_1">
     <g id="line2d_7">
      <defs>
       <path d="M 0 0 
L -3.5 0 
" id="mceb5e3a3f3" style="stroke:#000000;stroke-width:0.8;"/>
      </defs>
      <g>
       <use style="stroke:#000000;stroke-width:0.8;" x="63.00125" xlink:href="#mceb5e3a3f3" y="293.403146"/>
      </g>
     </g>
     <g id="text_8">
      <!-- 0.0 -->
      <defs>
       <path d="M 10.6875 12.40625 
L 21 12.40625 
L 21 0 
L 10.6875 0 
z
" id="DejaVuSans-46"/>
      </defs>
      <g transform="translate(30.55625 299.481896)scale(0.16 -0.16)">
       <use xlink:href="#DejaVuSans-48"/>
       <use x="63.623047" xlink:href="#DejaVuSans-46"/>
       <use x="95.410156" xlink:href="#DejaVuSans-48"/>
      </g>
     </g>
    </g>
    <g id="ytick_2">
     <g id="line2d_8">
      <g>
       <use style="stroke:#000000;stroke-width:0.8;" x="63.00125" xlink:href="#mceb5e3a3f3" y="242.072875"/>
      </g>
     </g>
     <g id="text_9">
      <!-- 0.1 -->
      <g transform="translate(30.55625 248.151625)scale(0.16 -0.16)">
       <use xlink:href="#DejaVuSans-48"/>
       <use x="63.623047" xlink:href="#DejaVuSans-46"/>
       <use x="95.410156" xlink:href="#DejaVuSans-49"/>
      </g>
     </g>
    </g>
    <g id="ytick_3">
     <g id="line2d_9">
      <g>
       <use style="stroke:#000000;stroke-width:0.8;" x="63.00125" xlink:href="#mceb5e3a3f3" y="190.742604"/>
      </g>
     </g>
     <g id="text_10">
      <!-- 0.2 -->
      <g transform="translate(30.55625 196.821354)scale(0.16 -0.16)">
       <use xlink:href="#DejaVuSans-48"/>
       <use x="63.623047" xlink:href="#DejaVuSans-46"/>
       <use x="95.410156" xlink:href="#DejaVuSans-50"/>
      </g>
     </g>
    </g>
    <g id="ytick_4">
     <g id="line2d_10">
      <g>
       <use style="stroke:#000000;stroke-width:0.8;" x="63.00125" xlink:href="#mceb5e3a3f3" y="139.412333"/>
      </g>
     </g>
     <g id="text_11">
      <!-- 0.3 -->
      <g transform="translate(30.55625 145.491083)scale(0.16 -0.16)">
       <use xlink:href="#DejaVuSans-48"/>
       <use x="63.623047" xlink:href="#DejaVuSans-46"/>
       <use x="95.410156" xlink:href="#DejaVuSans-51"/>
      </g>
     </g>
    </g>
    <g id="ytick_5">
     <g id="line2d_11">
      <g>
       <use style="stroke:#000000;stroke-width:0.8;" x="63.00125" xlink:href="#mceb5e3a3f3" y="88.082062"/>
      </g>
     </g>
     <g id="text_12">
      <!-- 0.4 -->
      <g transform="translate(30.55625 94.160812)scale(0.16 -0.16)">
       <use xlink:href="#DejaVuSans-48"/>
       <use x="63.623047" xlink:href="#DejaVuSans-46"/>
       <use x="95.410156" xlink:href="#DejaVuSans-52"/>
      </g>
     </g>
    </g>
    <g id="ytick_6">
     <g id="line2d_12">
      <g>
       <use style="stroke:#000000;stroke-width:0.8;" x="63.00125" xlink:href="#mceb5e3a3f3" y="36.751791"/>
      </g>
     </g>
     <g id="text_13">
      <!-- 0.5 -->
      <g transform="translate(30.55625 42.830541)scale(0.16 -0.16)">
       <use xlink:href="#DejaVuSans-48"/>
       <use x="63.623047" xlink:href="#DejaVuSans-46"/>
       <use x="95.410156" xlink:href="#DejaVuSans-53"/>
      </g>
     </g>
    </g>
    <g id="text_14">
     <!-- $E$ (au) -->
     <defs>
      <path d="M 16.890625 72.90625 
L 62.984375 72.90625 
L 61.375 64.59375 
L 25.09375 64.59375 
L 20.90625 43.015625 
L 55.71875 43.015625 
L 54.109375 34.71875 
L 19.28125 34.71875 
L 14.203125 8.296875 
L 51.3125 8.296875 
L 49.703125 0 
L 2.6875 0 
z
" id="DejaVuSans-Oblique-69"/>
      <path d="M 34.28125 27.484375 
Q 23.390625 27.484375 19.1875 25 
Q 14.984375 22.515625 14.984375 16.5 
Q 14.984375 11.71875 18.140625 8.90625 
Q 21.296875 6.109375 26.703125 6.109375 
Q 34.1875 6.109375 38.703125 11.40625 
Q 43.21875 16.703125 43.21875 25.484375 
L 43.21875 27.484375 
z
M 52.203125 31.203125 
L 52.203125 0 
L 43.21875 0 
L 43.21875 8.296875 
Q 40.140625 3.328125 35.546875 0.953125 
Q 30.953125 -1.421875 24.3125 -1.421875 
Q 15.921875 -1.421875 10.953125 3.296875 
Q 6 8.015625 6 15.921875 
Q 6 25.140625 12.171875 29.828125 
Q 18.359375 34.515625 30.609375 34.515625 
L 43.21875 34.515625 
L 43.21875 35.40625 
Q 43.21875 41.609375 39.140625 45 
Q 35.0625 48.390625 27.6875 48.390625 
Q 23 48.390625 18.546875 47.265625 
Q 14.109375 46.140625 10.015625 43.890625 
L 10.015625 52.203125 
Q 14.9375 54.109375 19.578125 55.046875 
Q 24.21875 56 28.609375 56 
Q 40.484375 56 46.34375 49.84375 
Q 52.203125 43.703125 52.203125 31.203125 
z
" id="DejaVuSans-97"/>
      <path d="M 8.5 21.578125 
L 8.5 54.6875 
L 17.484375 54.6875 
L 17.484375 21.921875 
Q 17.484375 14.15625 20.5 10.265625 
Q 23.53125 6.390625 29.59375 6.390625 
Q 36.859375 6.390625 41.078125 11.03125 
Q 45.3125 15.671875 45.3125 23.6875 
L 45.3125 54.6875 
L 54.296875 54.6875 
L 54.296875 0 
L 45.3125 0 
L 45.3125 8.40625 
Q 42.046875 3.421875 37.71875 1 
Q 33.40625 -1.421875 27.6875 -1.421875 
Q 18.265625 -1.421875 13.375 4.4375 
Q 8.5 10.296875 8.5 21.578125 
z
M 31.109375 56 
z
" id="DejaVuSans-117"/>
     </defs>
     <g transform="translate(22.396875 194.096875)rotate(-90)scale(0.2 -0.2)">
      <use transform="translate(0 0.125)" xlink:href="#DejaVuSans-Oblique-69"/>
      <use transform="translate(63.183594 0.125)" xlink:href="#DejaVuSans-32"/>
      <use transform="translate(94.970703 0.125)" xlink:href="#DejaVuSans-40"/>
      <use transform="translate(133.984375 0.125)" xlink:href="#DejaVuSans-97"/>
      <use transform="translate(195.263672 0.125)" xlink:href="#DejaVuSans-117"/>
      <use transform="translate(258.642578 0.125)" xlink:href="#DejaVuSans-41"/>
     </g>
    </g>
   </g>
   <g id="line2d_13">
    <path clip-path="url(#pe26094a092)" d="M 88.364886 276.007044 
L 93.488853 274.999191 
L 98.61282 273.928667 
L 103.736787 272.791533 
L 108.860754 271.583706 
L 113.984721 270.30099 
L 119.108688 268.939122 
L 124.232655 267.493833 
L 129.356622 265.960935 
L 134.480589 264.336415 
L 139.604556 262.616564 
L 144.728523 260.798116 
L 149.85249 258.878413 
L 154.976457 256.855575 
L 160.100424 254.728671 
L 165.22439 252.497884 
L 170.348357 250.164637 
L 175.472324 247.731676 
L 180.596291 245.203091 
L 185.720258 242.584251 
L 190.844225 239.881675 
L 195.968192 237.102812 
L 201.092159 234.255782 
L 206.216126 231.349066 
L 211.340093 228.391206 
L 216.46406 225.390512 
L 221.588027 222.354819 
L 226.711994 219.291101 
L 231.835961 216.199184 
L 236.959928 190.494298 
L 242.083895 166.033682 
L 247.207862 149.174366 
L 252.331829 136.081257 
L 257.455795 125.614275 
L 262.579762 117.119214 
L 267.703729 110.134991 
L 272.827696 104.320584 
L 277.951663 99.421675 
L 283.07563 95.248553 
L 288.199597 91.658674 
L 293.323564 88.54518 
L 298.447531 85.826823 
L 303.571498 83.441783 
L 308.695465 81.342913 
L 313.819432 79.494727 
L 318.943399 77.870827 
L 324.067366 76.452839 
L 329.191333 75.229418 
L 334.3153 74.196529 
L 339.439267 73.357874 
L 344.563233 72.726765 
L 349.6872 72.329389 
L 354.811167 72.210233 
L 359.935134 72.442319 
L 365.059101 73.14457 
L 370.183068 74.515034 
L 375.307035 76.899617 
L 380.431002 80.961623 
L 385.554969 88.309648 
L 390.678936 109.21909 
L 395.802903 112.636464 
L 400.92687 109.167056 
L 406.050837 105.718106 
L 411.174804 102.30384 
L 416.298771 98.939542 
L 421.422738 95.641276 
L 426.546705 92.425126 
L 431.670671 89.306359 
L 436.794638 86.298625 
L 441.918605 83.413286 
L 447.042572 80.658971 
L 452.166539 78.041389 
L 457.290506 75.563392 
L 462.414473 73.225236 
L 467.53844 71.024966 
L 472.662407 68.958867 
L 477.786374 67.021908 
L 482.910341 65.208155 
L 488.034308 63.511122 
L 493.158275 61.92405 
L 498.282242 60.440132 
L 503.406209 59.052667 
L 508.530176 57.755174 
L 513.654143 56.541469 
L 518.77811 55.4057 
L 523.902076 54.342377 
L 529.026043 53.346375 
L 534.15001 52.412927 
L 539.273977 51.537614 
L 544.397944 50.716347 
L 549.521911 49.945348 
L 554.645878 49.22113 
L 559.769845 48.540474 
L 564.893812 47.900411 
L 570.017779 47.298201 
L 575.141746 46.731313 
L 580.265713 46.197412 
L 585.38968 45.694338 
L 590.513647 45.220094 
L 595.637614 44.772832 
" style="fill:none;stroke:#000000;stroke-linecap:square;stroke-width:1.5;"/>
   </g>
   <g id="line2d_14">
    <path clip-path="url(#pe26094a092)" d="M 88.364886 271.936418 
L 93.488853 270.731783 
L 98.61282 269.454269 
L 103.736787 268.099004 
L 108.860754 266.660771 
L 113.984721 265.13399 
L 119.108688 263.5127 
L 124.232655 261.790547 
L 129.356622 259.960778 
L 134.480589 258.016238 
L 139.604556 255.949387 
L 144.728523 253.752321 
L 149.85249 251.416819 
L 154.976457 248.934423 
L 160.100424 246.296538 
L 165.22439 243.494585 
L 170.348357 240.520202 
L 175.472324 237.365511 
L 180.596291 234.023441 
L 185.720258 230.488141 
L 190.844225 226.755445 
L 195.968192 222.823406 
L 201.092159 218.692857 
L 206.216126 214.367956 
L 211.340093 209.856663 
L 216.46406 205.171076 
L 221.588027 200.32755 
L 226.711994 195.346544 
L 231.835961 190.252163 
L 236.959928 185.071414 
L 242.083895 179.833224 
L 247.207862 174.567337 
L 252.331829 169.303187 
L 257.455795 164.068882 
L 262.579762 158.890366 
L 267.703729 153.790825 
L 272.827696 148.790333 
L 277.951663 143.905723 
L 283.07563 139.150642 
L 288.199597 134.535733 
L 293.323564 130.068902 
L 298.447531 125.755629 
L 303.571498 121.599294 
L 308.695465 117.60149 
L 313.819432 113.762318 
L 318.943399 110.080648 
L 324.067366 106.554356 
L 329.191333 103.18052 
L 334.3153 99.955601 
L 339.439267 96.875581 
L 344.563233 93.936088 
L 349.6872 91.132503 
L 354.811167 88.460035 
L 359.935134 85.9138 
L 365.059101 83.488874 
L 370.183068 81.18034 
L 375.307035 78.983325 
L 380.431002 76.893032 
L 385.554969 74.904761 
L 390.678936 73.01393 
L 395.802903 71.216085 
L 400.92687 69.506916 
L 406.050837 67.882257 
L 411.174804 66.338096 
L 416.298771 64.870576 
L 421.422738 63.475993 
L 426.546705 62.1508 
L 431.670671 60.891599 
L 436.794638 59.695146 
L 441.918605 58.55834 
L 447.042572 57.478224 
L 452.166539 56.45198 
L 457.290506 55.476921 
L 462.414473 54.55049 
L 467.53844 53.670255 
L 472.662407 52.833901 
L 477.786374 52.039226 
L 482.910341 51.284139 
L 488.034308 50.566651 
L 493.158275 49.884876 
L 498.282242 49.237017 
L 503.406209 48.621371 
L 508.530176 48.036321 
L 513.654143 47.48033 
L 518.77811 46.95194 
L 523.902076 46.449765 
L 529.026043 45.972491 
L 534.15001 45.51887 
L 539.273977 45.087718 
L 544.397944 44.677909 
L 549.521911 44.288377 
L 554.645878 43.918107 
L 559.769845 43.566137 
L 564.893812 43.231555 
L 570.017779 42.913493 
L 575.141746 42.611127 
L 580.265713 42.323676 
L 585.38968 42.050398 
L 590.513647 41.790588 
L 595.637614 41.543576 
" style="fill:none;stroke:#3b4cc0;stroke-linecap:square;stroke-width:1.5;"/>
   </g>
   <g id="line2d_15">
    <path clip-path="url(#pe26094a092)" d="M 88.364886 273.384441 
L 93.488853 272.224157 
L 98.61282 270.989769 
L 103.736787 269.675973 
L 108.860754 268.27708 
L 113.984721 266.787003 
L 119.108688 265.199245 
L 124.232655 263.506912 
L 129.356622 261.702723 
L 134.480589 259.779049 
L 139.604556 257.727978 
L 144.728523 255.541405 
L 149.85249 253.211172 
L 154.976457 250.729253 
L 160.100424 248.087998 
L 165.22439 245.280442 
L 170.348357 242.300681 
L 175.472324 239.144295 
L 180.596291 235.808823 
L 185.720258 232.294231 
L 190.844225 228.603341 
L 195.968192 224.742155 
L 201.092159 220.720012 
L 206.216126 216.549529 
L 211.340093 212.246302 
L 216.46406 207.828361 
L 221.588027 203.31546 
L 226.711994 198.728255 
L 231.835961 194.087482 
L 236.959928 189.413222 
L 242.083895 184.724315 
L 247.207862 180.037957 
L 252.331829 175.369486 
L 257.455795 170.732319 
L 262.579762 166.138029 
L 267.703729 161.59649 
L 272.827696 157.116082 
L 277.951663 152.703912 
L 283.07563 148.366028 
L 288.199597 144.107616 
L 293.323564 139.933174 
L 298.447531 135.846645 
L 303.571498 131.851532 
L 308.695465 127.950974 
L 313.819432 124.147794 
L 318.943399 120.444534 
L 324.067366 116.843457 
L 329.191333 113.346549 
L 334.3153 109.9555 
L 339.439267 106.671683 
L 344.563233 103.496137 
L 349.6872 100.429539 
L 354.811167 97.472193 
L 359.935134 94.624017 
L 365.059101 91.884539 
L 370.183068 89.252907 
L 375.307035 86.727896 
L 380.431002 84.307933 
L 385.554969 81.991122 
L 390.678936 79.775276 
L 395.802903 77.657952 
L 400.92687 75.63649 
L 406.050837 73.708047 
L 411.174804 71.86964 
L 416.298771 70.118176 
L 421.422738 68.450493 
L 426.546705 66.863382 
L 431.670671 65.353623 
L 436.794638 63.918006 
L 441.918605 62.55335 
L 447.042572 61.256526 
L 452.166539 60.024469 
L 457.290506 58.854187 
L 462.414473 57.742778 
L 467.53844 56.687429 
L 472.662407 55.685428 
L 477.786374 54.734164 
L 482.910341 53.831127 
L 488.034308 52.973915 
L 493.158275 52.160227 
L 498.282242 51.387867 
L 503.406209 50.654736 
L 508.530176 49.958839 
L 513.654143 49.298272 
L 518.77811 48.671227 
L 523.902076 48.075983 
L 529.026043 47.510908 
L 534.15001 46.974449 
L 539.273977 46.465134 
L 544.397944 45.981566 
L 549.521911 45.522421 
L 554.645878 45.086443 
L 559.769845 44.672439 
L 564.893812 44.279282 
L 570.017779 43.905901 
L 575.141746 43.551282 
L 580.265713 43.214464 
L 585.38968 42.894537 
L 590.513647 42.590636 
L 595.637614 42.301945 
" style="fill:none;stroke:#7b9ff9;stroke-linecap:square;stroke-width:1.5;"/>
   </g>
   <g id="line2d_16">
    <path clip-path="url(#pe26094a092)" d="M 88.364886 275.101634 
L 93.488853 274.035442 
L 98.61282 272.901582 
L 103.736787 271.695498 
L 108.860754 270.412394 
L 113.984721 269.04725 
L 119.108688 267.594855 
L 124.232655 266.049858 
L 129.356622 264.406833 
L 134.480589 262.660376 
L 139.604556 260.805225 
L 144.728523 258.836415 
L 149.85249 256.749459 
L 154.976457 254.540566 
L 160.100424 252.206879 
L 165.22439 249.746719 
L 170.348357 247.159828 
L 175.472324 244.447576 
L 180.596291 241.613107 
L 185.720258 238.661397 
L 190.844225 235.599202 
L 195.968192 232.434887 
L 201.092159 229.178148 
L 206.216126 225.83963 
L 211.340093 222.430508 
L 216.46406 218.962046 
L 221.588027 215.445195 
L 226.711994 211.890246 
L 231.835961 208.306573 
L 236.959928 204.70247 
L 242.083895 201.084825 
L 247.207862 197.34546 
L 252.331829 174.728446 
L 257.455795 156.625631 
L 262.579762 144.529377 
L 267.703729 135.274992 
L 272.827696 127.884275 
L 277.951663 121.864909 
L 283.07563 116.921062 
L 288.199597 112.861985 
L 293.323564 109.564331 
L 298.447531 106.95546 
L 303.571498 105.006406 
L 308.695465 103.734158 
L 313.819432 103.213505 
L 318.943399 103.608665 
L 324.067366 105.251539 
L 329.191333 108.884207 
L 334.3153 116.906687 
L 339.439267 133.02856 
L 344.563233 129.744607 
L 349.6872 126.282519 
L 354.811167 122.842285 
L 359.935134 119.428022 
L 365.059101 116.045376 
L 370.183068 112.700524 
L 375.307035 109.400319 
L 380.431002 106.152163 
L 385.554969 102.963843 
L 390.678936 99.843315 
L 395.802903 96.798457 
L 400.92687 93.836813 
L 406.050837 90.965333 
L 411.174804 88.190144 
L 416.298771 85.516358 
L 421.422738 82.947941 
L 426.546705 80.487649 
L 431.670671 78.137019 
L 436.794638 75.896426 
L 441.918605 73.765178 
L 447.042572 71.741644 
L 452.166539 69.823403 
L 457.290506 68.007394 
L 462.414473 66.290063 
L 467.53844 64.667501 
L 472.662407 63.135561 
L 477.786374 61.689965 
L 482.910341 60.326389 
L 488.034308 59.040529 
L 493.158275 57.828156 
L 498.282242 56.685158 
L 503.406209 55.607566 
L 508.530176 54.591577 
L 513.654143 53.633562 
L 518.77811 52.730076 
L 523.902076 51.87786 
L 529.026043 51.073837 
L 534.15001 50.315108 
L 539.273977 49.598951 
L 544.397944 48.922807 
L 549.521911 48.284276 
L 554.645878 47.681111 
L 559.769845 47.111205 
L 564.893812 46.572584 
L 570.017779 46.063401 
L 575.141746 45.581926 
L 580.265713 45.126539 
L 585.38968 44.695724 
L 590.513647 44.288059 
L 595.637614 43.902212 
" style="fill:none;stroke:#c0d4f5;stroke-linecap:square;stroke-width:1.5;"/>
   </g>
   <g id="line2d_17">
    <path clip-path="url(#pe26094a092)" d="M 88.364886 276.916719 
L 93.488853 275.970552 
L 98.61282 274.967193 
L 103.736787 273.903353 
L 108.860754 272.775681 
L 113.984721 271.580809 
L 119.108688 270.315401 
L 124.232655 268.976219 
L 129.356622 267.560208 
L 134.480589 266.064586 
L 139.604556 264.486957 
L 144.728523 262.825421 
L 149.85249 261.078708 
L 154.976457 259.246286 
L 160.100424 257.32848 
L 165.22439 255.326549 
L 170.348357 253.242742 
L 175.472324 251.080299 
L 180.596291 248.843407 
L 185.720258 246.537104 
L 190.844225 244.167123 
L 195.968192 241.739714 
L 201.092159 239.261428 
L 206.216126 236.738901 
L 211.340093 234.178648 
L 216.46406 231.586882 
L 221.588027 228.969155 
L 226.711994 226.051247 
L 231.835961 189.348676 
L 236.959928 164.713121 
L 242.083895 145.60634 
L 247.207862 130.390163 
L 252.331829 118.390745 
L 257.455795 108.954576 
L 262.579762 101.471999 
L 267.703729 95.44935 
L 272.827696 90.516599 
L 277.951663 86.406879 
L 283.07563 82.928386 
L 288.199597 79.943156 
L 293.323564 77.349887 
L 298.447531 75.073423 
L 303.571498 73.057121 
L 308.695465 71.25758 
L 313.819432 69.641192 
L 318.943399 68.181517 
L 324.067366 66.857579 
L 329.191333 65.652817 
L 334.3153 64.553786 
L 339.439267 63.54989 
L 344.563233 62.632775 
L 349.6872 61.796151 
L 354.811167 61.035089 
L 359.935134 60.347088 
L 365.059101 59.731092 
L 370.183068 59.188224 
L 375.307035 58.722266 
L 380.431002 58.340628 
L 385.554969 58.055801 
L 390.678936 57.888163 
L 395.802903 57.870952 
L 400.92687 58.059362 
L 406.050837 58.548565 
L 411.174804 59.510708 
L 416.298771 61.274307 
L 421.422738 64.504222 
L 426.546705 70.68394 
L 431.670671 85.007257 
L 436.794638 102.127938 
L 441.918605 98.245815 
L 447.042572 94.42201 
L 452.166539 90.695446 
L 457.290506 87.102966 
L 462.414473 83.675978 
L 467.53844 80.437835 
L 472.662407 77.402746 
L 477.786374 74.576192 
L 482.910341 71.956374 
L 488.034308 69.536107 
L 493.158275 67.304679 
L 498.282242 65.249407 
L 503.406209 63.356819 
L 508.530176 61.613451 
L 513.654143 60.006356 
L 518.77811 58.523397 
L 523.902076 57.153377 
L 529.026043 55.886084 
L 534.15001 54.712269 
L 539.273977 53.623591 
L 544.397944 52.612552 
L 549.521911 51.672412 
L 554.645878 50.79712 
L 559.769845 49.981241 
L 564.893812 49.219882 
L 570.017779 48.508641 
L 575.141746 47.843544 
L 580.265713 47.221001 
L 585.38968 46.637762 
L 590.513647 46.090881 
L 595.637614 45.57768 
" style="fill:none;stroke:#f2cbb7;stroke-linecap:square;stroke-width:1.5;"/>
   </g>
   <g id="line2d_18">
    <path clip-path="url(#pe26094a092)" d="M 88.364886 278.687321 
L 93.488853 277.864852 
L 98.61282 276.996054 
L 103.736787 276.078785 
L 108.860754 275.110953 
L 113.984721 274.090559 
L 119.108688 273.015743 
L 124.232655 271.884838 
L 129.356622 270.696432 
L 134.480589 269.449426 
L 139.604556 268.143106 
L 144.728523 266.777196 
L 149.85249 265.35192 
L 154.976457 263.868042 
L 160.100424 262.326892 
L 165.22439 260.730374 
L 170.348357 259.080949 
L 175.472324 257.381589 
L 180.596291 255.63571 
L 185.720258 253.847091 
L 190.844225 252.019764 
L 195.968192 250.157906 
L 201.092159 248.265731 
L 206.216126 246.34738 
L 211.340093 244.40683 
L 216.46406 242.447813 
L 221.588027 240.399413 
L 226.711994 204.896167 
L 231.835961 173.86273 
L 236.959928 144.819349 
L 242.083895 119.984576 
L 247.207862 102.399539 
L 252.331829 90.936071 
L 257.455795 83.258669 
L 262.579762 77.805944 
L 267.703729 73.715015 
L 272.827696 70.508036 
L 277.951663 67.905388 
L 283.07563 65.736309 
L 288.199597 63.889524 
L 293.323564 62.290053 
L 298.447531 60.88504 
L 303.571498 59.636659 
L 308.695465 58.516605 
L 313.819432 57.50335 
L 318.943399 56.580337 
L 324.067366 55.734326 
L 329.191333 54.954835 
L 334.3153 54.233385 
L 339.439267 53.562967 
L 344.563233 52.937695 
L 349.6872 52.352847 
L 354.811167 51.804149 
L 359.935134 51.288243 
L 365.059101 50.802111 
L 370.183068 50.343184 
L 375.307035 49.909269 
L 380.431002 49.498457 
L 385.554969 49.109063 
L 390.678936 48.739709 
L 395.802903 48.38914 
L 400.92687 48.056337 
L 406.050837 47.74041 
L 411.174804 47.440661 
L 416.298771 47.156565 
L 421.422738 46.887758 
L 426.546705 46.63408 
L 431.670671 46.395617 
L 436.794638 46.172745 
L 441.918605 45.96627 
L 447.042572 45.777559 
L 452.166539 45.608861 
L 457.290506 45.463822 
L 462.414473 45.348561 
L 467.53844 45.273819 
L 472.662407 45.260173 
L 477.786374 45.352884 
L 482.910341 45.676886 
L 488.034308 46.782439 
L 493.158275 58.677229 
L 498.282242 85.11458 
L 503.406209 79.412648 
L 508.530176 74.651075 
L 513.654143 70.696523 
L 518.77811 67.384522 
L 523.902076 64.575274 
L 529.026043 62.161593 
L 534.15001 60.063426 
L 539.273977 58.220887 
L 544.397944 56.588635 
L 549.521911 55.131806 
L 554.645878 53.823159 
L 559.769845 52.641077 
L 564.893812 51.568161 
L 570.017779 50.590223 
L 575.141746 49.695555 
L 580.265713 48.874388 
L 585.38968 48.118497 
L 590.513647 47.420891 
L 595.637614 46.775583 
" style="fill:none;stroke:#ee8468;stroke-linecap:square;stroke-width:1.5;"/>
   </g>
   <g id="line2d_19">
    <path clip-path="url(#pe26094a092)" d="M 88.364886 280.326666 
L 93.488853 279.618281 
L 98.61282 278.872941 
L 103.736787 278.089318 
L 108.860754 277.266172 
L 113.984721 276.402391 
L 119.108688 275.497017 
L 124.232655 274.549288 
L 129.356622 273.558669 
L 134.480589 272.524889 
L 139.604556 271.447973 
L 144.728523 270.32827 
L 149.85249 269.166471 
L 154.976457 267.963615 
L 160.100424 266.721094 
L 165.22439 265.440634 
L 170.348357 264.124268 
L 175.472324 262.774298 
L 180.596291 261.393247 
L 185.720258 259.983799 
L 190.844225 258.548743 
L 195.968192 257.090907 
L 201.092159 255.6131 
L 206.216126 254.118058 
L 211.340093 252.608398 
L 216.46406 251.086575 
L 221.588027 249.550168 
L 226.711994 222.677126 
L 231.835961 188.569256 
L 236.959928 144.879776 
L 242.083895 97.905991 
L 247.207862 77.742314 
L 252.331829 69.291523 
L 257.455795 64.55926 
L 262.579762 61.423034 
L 267.703729 59.130143 
L 272.827696 57.345799 
L 277.951663 55.896575 
L 283.07563 54.682531 
L 288.199597 53.641681 
L 293.323564 52.733046 
L 298.447531 51.928447 
L 303.571498 51.207618 
L 308.695465 50.555629 
L 313.819432 49.961147 
L 318.943399 49.415372 
L 324.067366 48.911413 
L 329.191333 48.443633 
L 334.3153 48.007623 
L 339.439267 47.599576 
L 344.563233 47.216387 
L 349.6872 46.855494 
L 354.811167 46.514673 
L 359.935134 46.19204 
L 365.059101 45.885917 
L 370.183068 45.594919 
L 375.307035 45.317793 
L 380.431002 45.053473 
L 385.554969 44.800988 
L 390.678936 44.5595 
L 395.802903 44.32823 
L 400.92687 44.10652 
L 406.050837 43.893763 
L 411.174804 43.689423 
L 416.298771 43.492995 
L 421.422738 43.304055 
L 426.546705 43.122194 
L 431.670671 42.947052 
L 436.794638 42.778312 
L 441.918605 42.615678 
L 447.042572 42.458887 
L 452.166539 42.307693 
L 457.290506 42.161902 
L 462.414473 42.021338 
L 467.53844 41.885844 
L 472.662407 41.755309 
L 477.786374 41.629644 
L 482.910341 41.508816 
L 488.034308 41.392839 
L 493.158275 41.281796 
L 498.282242 41.17589 
L 503.406209 41.075483 
L 508.530176 40.98126 
L 513.654143 40.894353 
L 518.77811 40.817323 
L 523.902076 40.756567 
L 529.026043 40.75142 
L 534.15001 69.715526 
L 539.273977 64.687101 
L 544.397944 61.266207 
L 549.521911 58.657767 
L 554.645878 56.55217 
L 559.769845 54.792684 
L 564.893812 53.287748 
L 570.017779 51.978725 
L 575.141746 50.825561 
L 580.265713 49.79956 
L 585.38968 48.879384 
L 590.513647 48.048696 
L 595.637614 47.29468 
" style="fill:none;stroke:#b40426;stroke-linecap:square;stroke-width:1.5;"/>
   </g>
   <g id="line2d_20">
    <path clip-path="url(#pe26094a092)" d="M 88.364886 271.936418 
L 93.488853 270.731783 
L 98.61282 269.454269 
L 103.736787 268.099004 
L 108.860754 266.660771 
L 113.984721 265.13399 
L 119.108688 263.5127 
L 124.232655 261.790547 
L 129.356622 259.960778 
L 134.480589 258.016238 
L 139.604556 255.949387 
L 144.728523 253.752321 
L 149.85249 251.416819 
L 154.976457 248.934423 
L 160.100424 246.296538 
L 165.22439 243.494585 
L 170.348357 240.520202 
L 175.472324 237.365511 
L 180.596291 234.023441 
L 185.720258 230.488141 
L 190.844225 226.755445 
L 195.968192 222.823406 
L 201.092159 218.692857 
L 206.216126 214.367956 
L 211.340093 209.856663 
L 216.46406 205.171076 
L 221.588027 200.32755 
L 226.711994 195.346544 
L 231.835961 190.252163 
L 236.959928 185.071414 
L 242.083895 179.833224 
L 247.207862 174.567337 
L 252.331829 169.303187 
L 257.455795 164.068882 
L 262.579762 158.890366 
L 267.703729 153.790825 
L 272.827696 148.790333 
L 277.951663 143.905723 
L 283.07563 139.150642 
L 288.199597 134.535733 
L 293.323564 130.068902 
L 298.447531 125.755629 
L 303.571498 121.599294 
L 308.695465 117.60149 
L 313.819432 113.762318 
L 318.943399 110.080648 
L 324.067366 106.554356 
L 329.191333 103.18052 
L 334.3153 99.955601 
L 339.439267 96.875581 
L 344.563233 93.936088 
L 349.6872 91.132503 
L 354.811167 88.460035 
L 359.935134 85.9138 
L 365.059101 83.488874 
L 370.183068 81.18034 
L 375.307035 78.983325 
L 380.431002 76.893032 
L 385.554969 74.904761 
L 390.678936 73.01393 
L 395.802903 71.216085 
L 400.92687 69.506916 
L 406.050837 67.882257 
L 411.174804 66.338096 
L 416.298771 64.870576 
L 421.422738 63.475993 
L 426.546705 62.1508 
L 431.670671 60.891599 
L 436.794638 59.695146 
L 441.918605 58.55834 
L 447.042572 57.478224 
L 452.166539 56.45198 
L 457.290506 55.476921 
L 462.414473 54.55049 
L 467.53844 53.670255 
L 472.662407 52.833901 
L 477.786374 52.039226 
L 482.910341 51.284139 
L 488.034308 50.566651 
L 493.158275 49.884876 
L 498.282242 49.237017 
L 503.406209 48.621371 
L 508.530176 48.036321 
L 513.654143 47.48033 
L 518.77811 46.95194 
L 523.902076 46.449765 
L 529.026043 45.972491 
L 534.15001 45.51887 
L 539.273977 45.087718 
L 544.397944 44.677909 
L 549.521911 44.288377 
L 554.645878 43.918107 
L 559.769845 43.566137 
L 564.893812 43.231555 
L 570.017779 42.913493 
L 575.141746 42.611127 
L 580.265713 42.323676 
L 585.38968 42.050398 
L 590.513647 41.790588 
L 595.637614 41.543576 
" style="fill:none;stroke:#3b4cc0;stroke-linecap:square;stroke-width:1.5;"/>
   </g>
   <g id="line2d_21">
    <path clip-path="url(#pe26094a092)" d="M 88.364886 273.384441 
L 93.488853 272.224157 
L 98.61282 270.989769 
L 103.736787 269.675973 
L 108.860754 268.27708 
L 113.984721 266.787003 
L 119.108688 265.199245 
L 124.232655 263.506912 
L 129.356622 261.702723 
L 134.480589 259.779049 
L 139.604556 257.727978 
L 144.728523 255.541405 
L 149.85249 253.211172 
L 154.976457 250.729253 
L 160.100424 248.087998 
L 165.22439 245.280442 
L 170.348357 242.300681 
L 175.472324 239.144295 
L 180.596291 235.808823 
L 185.720258 232.294231 
L 190.844225 228.603341 
L 195.968192 224.742155 
L 201.092159 220.720012 
L 206.216126 216.549529 
L 211.340093 212.246302 
L 216.46406 207.828361 
L 221.588027 203.31546 
L 226.711994 198.728255 
L 231.835961 194.087482 
L 236.959928 189.413222 
L 242.083895 184.724315 
L 247.207862 180.037957 
L 252.331829 175.369486 
L 257.455795 170.732319 
L 262.579762 166.138029 
L 267.703729 161.59649 
L 272.827696 157.116082 
L 277.951663 152.703912 
L 283.07563 148.366028 
L 288.199597 144.107616 
L 293.323564 139.933174 
L 298.447531 135.846645 
L 303.571498 131.851532 
L 308.695465 127.950974 
L 313.819432 124.147794 
L 318.943399 120.444534 
L 324.067366 116.843457 
L 329.191333 113.346549 
L 334.3153 109.9555 
L 339.439267 106.671683 
L 344.563233 103.496137 
L 349.6872 100.429539 
L 354.811167 97.472193 
L 359.935134 94.624017 
L 365.059101 91.884539 
L 370.183068 89.252907 
L 375.307035 86.727896 
L 380.431002 84.307933 
L 385.554969 81.991122 
L 390.678936 79.775276 
L 395.802903 77.657952 
L 400.92687 75.63649 
L 406.050837 73.708047 
L 411.174804 71.86964 
L 416.298771 70.118176 
L 421.422738 68.450493 
L 426.546705 66.863382 
L 431.670671 65.353623 
L 436.794638 63.918006 
L 441.918605 62.55335 
L 447.042572 61.256526 
L 452.166539 60.024469 
L 457.290506 58.854187 
L 462.414473 57.742778 
L 467.53844 56.687429 
L 472.662407 55.685428 
L 477.786374 54.734164 
L 482.910341 53.831127 
L 488.034308 52.973915 
L 493.158275 52.160227 
L 498.282242 51.387867 
L 503.406209 50.654736 
L 508.530176 49.958839 
L 513.654143 49.298272 
L 518.77811 48.671227 
L 523.902076 48.075983 
L 529.026043 47.510908 
L 534.15001 46.974449 
L 539.273977 46.465134 
L 544.397944 45.981566 
L 549.521911 45.522421 
L 554.645878 45.086443 
L 559.769845 44.672439 
L 564.893812 44.279282 
L 570.017779 43.905901 
L 575.141746 43.551282 
L 580.265713 43.214464 
L 585.38968 42.894537 
L 590.513647 42.590636 
L 595.637614 42.301945 
" style="fill:none;stroke:#7b9ff9;stroke-linecap:square;stroke-width:1.5;"/>
   </g>
   <g id="line2d_22">
    <path clip-path="url(#pe26094a092)" d="M 88.364886 275.101634 
L 93.488853 274.035442 
L 98.61282 272.901582 
L 103.736787 271.695498 
L 108.860754 270.412394 
L 113.984721 269.04725 
L 119.108688 267.594855 
L 124.232655 266.049858 
L 129.356622 264.406833 
L 134.480589 262.660376 
L 139.604556 260.805225 
L 144.728523 258.836415 
L 149.85249 256.749459 
L 154.976457 254.540566 
L 160.100424 252.206879 
L 165.22439 249.746719 
L 170.348357 247.159828 
L 175.472324 244.447576 
L 180.596291 241.613107 
L 185.720258 238.661397 
L 190.844225 235.599202 
L 195.968192 232.434887 
L 201.092159 229.178148 
L 206.216126 225.83963 
L 211.340093 222.430508 
L 216.46406 218.962046 
L 221.588027 215.445195 
L 226.711994 211.890246 
L 231.835961 208.306573 
L 236.959928 204.70247 
L 242.083895 201.085295 
L 247.207862 197.579726 
L 252.331829 211.871292 
L 257.455795 220.920354 
L 262.579762 224.725122 
L 267.703729 226.351728 
L 272.827696 226.662046 
L 277.951663 226.029995 
L 283.07563 224.639224 
L 288.199597 222.57596 
L 293.323564 219.866043 
L 298.447531 216.489343 
L 303.571498 212.384138 
L 308.695465 207.442614 
L 313.819432 201.497333 
L 318.943399 194.289477 
L 324.067366 185.39355 
L 329.191333 173.982004 
L 334.3153 157.591751 
L 339.439267 133.42592 
L 344.563233 129.744828 
L 349.6872 126.282947 
L 354.811167 122.842285 
L 359.935134 119.428022 
L 365.059101 116.045376 
L 370.183068 112.700524 
L 375.307035 109.400319 
L 380.431002 106.152163 
L 385.554969 102.963843 
L 390.678936 99.843315 
L 395.802903 96.798457 
L 400.92687 93.836813 
L 406.050837 90.965333 
L 411.174804 88.190144 
L 416.298771 85.516358 
L 421.422738 82.947941 
L 426.546705 80.487649 
L 431.670671 78.137019 
L 436.794638 75.896426 
L 441.918605 73.765178 
L 447.042572 71.741644 
L 452.166539 69.823403 
L 457.290506 68.007394 
L 462.414473 66.290063 
L 467.53844 64.667501 
L 472.662407 63.135561 
L 477.786374 61.689965 
L 482.910341 60.326389 
L 488.034308 59.040529 
L 493.158275 57.828156 
L 498.282242 56.685158 
L 503.406209 55.607566 
L 508.530176 54.591577 
L 513.654143 53.633562 
L 518.77811 52.730076 
L 523.902076 51.87786 
L 529.026043 51.073837 
L 534.15001 50.315108 
L 539.273977 49.598951 
L 544.397944 48.922807 
L 549.521911 48.284276 
L 554.645878 47.681111 
L 559.769845 47.111205 
L 564.893812 46.572584 
L 570.017779 46.063401 
L 575.141746 45.581926 
L 580.265713 45.126539 
L 585.38968 44.695724 
L 590.513647 44.288059 
L 595.637614 43.902212 
" style="fill:none;stroke:#c0d4f5;stroke-linecap:square;stroke-width:1.5;"/>
   </g>
   <g id="line2d_23">
    <path clip-path="url(#pe26094a092)" d="M 88.364886 276.916719 
L 93.488853 275.970552 
L 98.61282 274.967193 
L 103.736787 273.903353 
L 108.860754 272.775681 
L 113.984721 271.580809 
L 119.108688 270.315401 
L 124.232655 268.976219 
L 129.356622 267.560208 
L 134.480589 266.064586 
L 139.604556 264.486957 
L 144.728523 262.825421 
L 149.85249 261.078708 
L 154.976457 259.246286 
L 160.100424 257.32848 
L 165.22439 255.326549 
L 170.348357 253.242742 
L 175.472324 251.080299 
L 180.596291 248.843407 
L 185.720258 246.537104 
L 190.844225 244.167123 
L 195.968192 241.739714 
L 201.092159 239.261428 
L 206.216126 236.738901 
L 211.340093 234.178648 
L 216.46406 231.586882 
L 221.588027 228.969564 
L 226.711994 226.619491 
L 231.835961 250.764847 
L 236.959928 260.207846 
L 242.083895 265.129172 
L 247.207862 267.922039 
L 252.331829 269.497554 
L 257.455795 270.336994 
L 262.579762 270.714354 
L 267.703729 270.788275 
L 272.827696 270.652092 
L 277.951663 270.361773 
L 283.07563 269.951528 
L 288.199597 269.442424 
L 293.323564 268.847407 
L 298.447531 268.174084 
L 303.571498 267.426347 
L 308.695465 266.605476 
L 313.819432 265.710538 
L 318.943399 264.738825 
L 324.067366 263.686026 
L 329.191333 262.546005 
L 334.3153 261.310945 
L 339.439267 259.970921 
L 344.563233 258.513624 
L 349.6872 256.923752 
L 354.811167 255.182394 
L 359.935134 253.265772 
L 365.059101 251.143944 
L 370.183068 248.778631 
L 375.307035 246.120126 
L 380.431002 243.102843 
L 385.554969 239.638438 
L 390.678936 235.605321 
L 395.802903 230.832111 
L 400.92687 225.071149 
L 406.050837 217.956871 
L 411.174804 208.941952 
L 416.298771 197.216194 
L 421.422738 181.638256 
L 426.546705 160.652145 
L 431.670671 129.976555 
L 436.794638 102.128459 
L 441.918605 98.245815 
L 447.042572 94.42201 
L 452.166539 90.695446 
L 457.290506 87.102966 
L 462.414473 83.675978 
L 467.53844 80.437835 
L 472.662407 77.402746 
L 477.786374 74.576192 
L 482.910341 71.956374 
L 488.034308 69.536107 
L 493.158275 67.304679 
L 498.282242 65.249407 
L 503.406209 63.356819 
L 508.530176 61.613451 
L 513.654143 60.006356 
L 518.77811 58.523397 
L 523.902076 57.153377 
L 529.026043 55.886084 
L 534.15001 54.712269 
L 539.273977 53.623591 
L 544.397944 52.612552 
L 549.521911 51.672412 
L 554.645878 50.79712 
L 559.769845 49.981241 
L 564.893812 49.219882 
L 570.017779 48.508641 
L 575.141746 47.843544 
L 580.265713 47.221001 
L 585.38968 46.637762 
L 590.513647 46.090881 
L 595.637614 45.57768 
" style="fill:none;stroke:#f2cbb7;stroke-linecap:square;stroke-width:1.5;"/>
   </g>
   <g id="line2d_24">
    <path clip-path="url(#pe26094a092)" d="M 88.364886 278.687321 
L 93.488853 277.864852 
L 98.61282 276.996054 
L 103.736787 276.078785 
L 108.860754 275.110953 
L 113.984721 274.090559 
L 119.108688 273.015743 
L 124.232655 271.884838 
L 129.356622 270.696432 
L 134.480589 269.449426 
L 139.604556 268.143106 
L 144.728523 266.777196 
L 149.85249 265.35192 
L 154.976457 263.868042 
L 160.100424 262.326892 
L 165.22439 260.730374 
L 170.348357 259.080949 
L 175.472324 257.381589 
L 180.596291 255.63571 
L 185.720258 253.847091 
L 190.844225 252.019764 
L 195.968192 250.157906 
L 201.092159 248.265731 
L 206.216126 246.34738 
L 211.340093 244.40683 
L 216.46406 242.447813 
L 221.588027 240.551035 
L 226.711994 262.962689 
L 231.835961 273.018425 
L 236.959928 278.344448 
L 242.083895 281.096351 
L 247.207862 282.327161 
L 252.331829 282.819827 
L 257.455795 282.976598 
L 262.579762 282.967835 
L 267.703729 282.866983 
L 272.827696 282.708565 
L 277.951663 282.510387 
L 283.07563 282.282162 
L 288.199597 282.029601 
L 293.323564 281.756105 
L 298.447531 281.463734 
L 303.571498 281.153696 
L 308.695465 280.826636 
L 313.819432 280.482804 
L 318.943399 280.122147 
L 324.067366 279.74439 
L 329.191333 279.349078 
L 334.3153 278.935545 
L 339.439267 278.502962 
L 344.563233 278.050417 
L 349.6872 277.576711 
L 354.811167 277.080592 
L 359.935134 276.560496 
L 365.059101 276.014738 
L 370.183068 275.441332 
L 375.307035 274.838029 
L 380.431002 274.20225 
L 385.554969 273.531002 
L 390.678936 272.820845 
L 395.802903 272.067755 
L 400.92687 271.267018 
L 406.050837 270.413052 
L 411.174804 269.499212 
L 416.298771 268.517448 
L 421.422738 267.457992 
L 426.546705 266.308693 
L 431.670671 265.054312 
L 436.794638 263.675334 
L 441.918605 262.146219 
L 447.042572 260.432693 
L 452.166539 258.487249 
L 457.290506 256.241589 
L 462.414473 253.592347 
L 467.53844 250.373137 
L 472.662407 246.291119 
L 477.786374 240.761786 
L 482.910341 232.355452 
L 488.034308 215.947926 
L 493.158275 147.35808 
L 498.282242 85.11458 
L 503.406209 79.412648 
L 508.530176 74.651075 
L 513.654143 70.696523 
L 518.77811 67.384522 
L 523.902076 64.575274 
L 529.026043 62.161593 
L 534.15001 60.063426 
L 539.273977 58.220887 
L 544.397944 56.588635 
L 549.521911 55.131806 
L 554.645878 53.823159 
L 559.769845 52.641077 
L 564.893812 51.568161 
L 570.017779 50.590223 
L 575.141746 49.695555 
L 580.265713 48.874388 
L 585.38968 48.118497 
L 590.513647 47.420891 
L 595.637614 46.775583 
" style="fill:none;stroke:#ee8468;stroke-linecap:square;stroke-width:1.5;"/>
   </g>
   <g id="line2d_25">
    <path clip-path="url(#pe26094a092)" d="M 88.364886 280.326666 
L 93.488853 279.618281 
L 98.61282 278.872941 
L 103.736787 278.089318 
L 108.860754 277.266172 
L 113.984721 276.402391 
L 119.108688 275.497017 
L 124.232655 274.549288 
L 129.356622 273.558669 
L 134.480589 272.524889 
L 139.604556 271.447973 
L 144.728523 270.32827 
L 149.85249 269.166471 
L 154.976457 267.963615 
L 160.100424 266.721094 
L 165.22439 265.440634 
L 170.348357 264.124268 
L 175.472324 262.774298 
L 180.596291 261.393247 
L 185.720258 259.983799 
L 190.844225 258.548743 
L 195.968192 257.090907 
L 201.092159 255.6131 
L 206.216126 254.118058 
L 211.340093 252.608398 
L 216.46406 251.086575 
L 221.588027 249.559304 
L 226.711994 266.795228 
L 231.835961 277.986216 
L 236.959928 284.348584 
L 242.083895 287.220294 
L 247.207862 287.768852 
L 252.331829 287.84233 
L 257.455795 287.802578 
L 262.579762 287.719306 
L 267.703729 287.613552 
L 272.827696 287.493574 
L 277.951663 287.363311 
L 283.07563 287.224801 
L 288.199597 287.079192 
L 293.323564 286.927167 
L 298.447531 286.769088 
L 303.571498 286.605156 
L 308.695465 286.435484 
L 313.819432 286.260074 
L 318.943399 286.07888 
L 324.067366 285.891822 
L 329.191333 285.698768 
L 334.3153 285.499557 
L 339.439267 285.294002 
L 344.563233 285.08188 
L 349.6872 284.862958 
L 354.811167 284.636968 
L 359.935134 284.403599 
L 365.059101 284.162537 
L 370.183068 283.913405 
L 375.307035 283.65583 
L 380.431002 283.389368 
L 385.554969 283.113552 
L 390.678936 282.827855 
L 395.802903 282.531709 
L 400.92687 282.224479 
L 406.050837 281.905466 
L 411.174804 281.573889 
L 416.298771 281.228805 
L 421.422738 280.869469 
L 426.546705 280.494544 
L 431.670671 280.102899 
L 436.794638 279.69309 
L 441.918605 279.263517 
L 447.042572 278.812325 
L 452.166539 278.337343 
L 457.290506 277.836028 
L 462.414473 277.305367 
L 467.53844 276.741771 
L 472.662407 276.140838 
L 477.786374 275.497179 
L 482.910341 274.803977 
L 488.034308 274.05253 
L 493.158275 273.23128 
L 498.282242 272.324491 
L 503.406209 271.309611 
L 508.530176 270.152871 
L 513.654143 268.797915 
L 518.77811 267.139103 
L 523.902076 264.92011 
L 529.026043 260.664421 
L 534.15001 69.715526 
L 539.273977 64.687101 
L 544.397944 61.266207 
L 549.521911 58.657767 
L 554.645878 56.55217 
L 559.769845 54.792684 
L 564.893812 53.287748 
L 570.017779 51.978725 
L 575.141746 50.825561 
L 580.265713 49.79956 
L 585.38968 48.879384 
L 590.513647 48.048696 
L 595.637614 47.29468 
" style="fill:none;stroke:#b40426;stroke-linecap:square;stroke-width:1.5;"/>
   </g>
   <g id="line2d_26">
    <path clip-path="url(#pe26094a092)" d="M 88.364886 276.007044 
L 93.488853 274.999191 
L 98.61282 273.928667 
L 103.736787 272.791533 
L 108.860754 271.583706 
L 113.984721 270.30099 
L 119.108688 268.939122 
L 124.232655 267.493833 
L 129.356622 265.960935 
L 134.480589 264.336415 
L 139.604556 262.616564 
L 144.728523 260.798116 
L 149.85249 258.878413 
L 154.976457 256.855575 
L 160.100424 254.728671 
L 165.22439 252.497884 
L 170.348357 250.164637 
L 175.472324 247.731676 
L 180.596291 245.203091 
L 185.720258 242.584251 
L 190.844225 239.881675 
L 195.968192 237.102812 
L 201.092159 234.255782 
L 206.216126 231.349066 
L 211.340093 228.391206 
L 216.46406 225.390512 
L 221.588027 222.354819 
L 226.711994 219.291483 
L 231.835961 216.213049 
L 236.959928 233.09829 
L 242.083895 245.236343 
L 247.207862 250.870354 
L 252.331829 254.01325 
L 257.455795 255.782234 
L 262.579762 256.691396 
L 267.703729 257.020517 
L 272.827696 256.933283 
L 277.951663 256.528832 
L 283.07563 255.867894 
L 288.199597 254.987111 
L 293.323564 253.907157 
L 298.447531 252.63745 
L 303.571498 251.178773 
L 308.695465 249.524751 
L 313.819432 247.662174 
L 318.943399 245.571046 
L 324.067366 243.22365 
L 329.191333 240.583073 
L 334.3153 237.601052 
L 339.439267 234.214582 
L 344.563233 230.341226 
L 349.6872 225.872248 
L 354.811167 220.663343 
L 359.935134 214.521128 
L 365.059101 207.184584 
L 370.183068 198.299409 
L 375.307035 187.371234 
L 380.431002 173.649524 
L 385.554969 155.579452 
L 390.678936 123.208788 
L 395.802903 112.637088 
L 400.92687 109.167056 
L 406.050837 105.718106 
L 411.174804 102.30384 
L 416.298771 98.939542 
L 421.422738 95.641276 
L 426.546705 92.425126 
L 431.670671 89.306359 
L 436.794638 86.298625 
L 441.918605 83.413286 
L 447.042572 80.658971 
L 452.166539 78.041389 
L 457.290506 75.563392 
L 462.414473 73.225236 
L 467.53844 71.024966 
L 472.662407 68.958867 
L 477.786374 67.021908 
L 482.910341 65.208155 
L 488.034308 63.511122 
L 493.158275 61.92405 
L 498.282242 60.440132 
L 503.406209 59.052667 
L 508.530176 57.755174 
L 513.654143 56.541469 
L 518.77811 55.4057 
L 523.902076 54.342377 
L 529.026043 53.346375 
L 534.15001 52.412927 
L 539.273977 51.537614 
L 544.397944 50.716347 
L 549.521911 49.945348 
L 554.645878 49.22113 
L 559.769845 48.540474 
L 564.893812 47.900411 
L 570.017779 47.298201 
L 575.141746 46.731313 
L 580.265713 46.197412 
L 585.38968 45.694338 
L 590.513647 45.220094 
L 595.637614 44.772832 
" style="fill:none;stroke:#000000;stroke-linecap:square;stroke-width:1.5;"/>
   </g>
   <g id="patch_3">
    <path d="M 63.00125 300.196875 
L 63.00125 28.396875 
" style="fill:none;stroke:#000000;stroke-linecap:square;stroke-linejoin:miter;stroke-width:0.8;"/>
   </g>
   <g id="patch_4">
    <path d="M 621.00125 300.196875 
L 621.00125 28.396875 
" style="fill:none;stroke:#000000;stroke-linecap:square;stroke-linejoin:miter;stroke-width:0.8;"/>
   </g>
   <g id="patch_5">
    <path d="M 63.00125 300.196875 
L 621.00125 300.196875 
" style="fill:none;stroke:#000000;stroke-linecap:square;stroke-linejoin:miter;stroke-width:0.8;"/>
   </g>
   <g id="patch_6">
    <path d="M 63.00125 28.396875 
L 621.00125 28.396875 
" style="fill:none;stroke:#000000;stroke-linecap:square;stroke-linejoin:miter;stroke-width:0.8;"/>
   </g>
   <g id="text_15">
    <!-- $R_e = R_i$ -->
    <defs>
     <path d="M 25.203125 64.796875 
L 20.21875 38.921875 
L 32.90625 38.921875 
Q 40.375 38.921875 44.984375 43.046875 
Q 49.609375 47.171875 49.609375 53.8125 
Q 49.609375 59.125 46.5 61.953125 
Q 43.40625 64.796875 37.59375 64.796875 
z
M 43.3125 35.015625 
Q 46.4375 34.28125 48.515625 31.390625 
Q 50.59375 28.515625 53.328125 19.921875 
L 59.515625 0 
L 49.125 0 
L 43.40625 18.703125 
Q 41.21875 25.921875 38.328125 28.359375 
Q 35.453125 30.8125 29.5 30.8125 
L 18.609375 30.8125 
L 12.59375 0 
L 2.6875 0 
L 16.890625 72.90625 
L 39.109375 72.90625 
Q 49.21875 72.90625 54.609375 68.328125 
Q 60.015625 63.765625 60.015625 55.171875 
Q 60.015625 47.5625 55.421875 41.984375 
Q 50.828125 36.421875 43.3125 35.015625 
z
" id="DejaVuSans-Oblique-82"/>
     <path d="M 10.59375 45.40625 
L 73.1875 45.40625 
L 73.1875 37.203125 
L 10.59375 37.203125 
z
M 10.59375 25.484375 
L 73.1875 25.484375 
L 73.1875 17.1875 
L 10.59375 17.1875 
z
" id="DejaVuSans-61"/>
     <path d="M 18.3125 75.984375 
L 27.296875 75.984375 
L 25.09375 64.59375 
L 16.109375 64.59375 
z
M 14.203125 54.6875 
L 23.1875 54.6875 
L 12.5 0 
L 3.515625 0 
z
" id="DejaVuSans-Oblique-105"/>
    </defs>
    <g transform="translate(309.00125 22.396875)scale(0.2 -0.2)">
     <use transform="translate(0 0.09375)" xlink:href="#DejaVuSans-Oblique-82"/>
     <use transform="translate(69.482422 -16.3125)scale(0.7)" xlink:href="#DejaVuSans-Oblique-101"/>
     <use transform="translate(134.765625 0.09375)" xlink:href="#DejaVuSans-61"/>
     <use transform="translate(238.037109 0.09375)" xlink:href="#DejaVuSans-Oblique-82"/>
     <use transform="translate(307.519531 -16.3125)scale(0.7)" xlink:href="#DejaVuSans-Oblique-105"/>
    </g>
   </g>
  </g>
 </g>
 <defs>
  <clipPath id="pe26094a092">
   <rect height="271.8" width="558" x="63.00125" y="28.396875"/>
  </clipPath>
 </defs>
</svg>
