<?xml version="1.0" encoding="utf-8" standalone="no"?>
<!DOCTYPE svg PUBLIC "-//W3C//DTD SVG 1.1//EN"
  "http://www.w3.org/Graphics/SVG/1.1/DTD/svg11.dtd">
<!-- Created with matplotlib (https://matplotlib.org/) -->
<svg height="332.198652pt" version="1.1" viewBox="0 0 628.20125 332.198652" width="628.20125pt" xmlns="http://www.w3.org/2000/svg" xmlns:xlink="http://www.w3.org/1999/xlink">
 <defs>
  <style type="text/css">
*{stroke-linecap:butt;stroke-linejoin:round;}
  </style>
 </defs>
 <g id="figure_1">
  <g id="patch_1">
   <path d="M 0 332.198652 
L 628.20125 332.198652 
L 628.20125 0 
L 0 0 
z
" style="fill:none;"/>
  </g>
  <g id="axes_1">
   <g id="patch_2">
    <path d="M 63.00125 279.113652 
L 621.00125 279.113652 
L 621.00125 7.313652 
L 63.00125 7.313652 
z
" style="fill:#ffffff;"/>
   </g>
   <g id="matplotlib.axis_1">
    <g id="xtick_1">
     <g id="line2d_1">
      <defs>
       <path d="M 0 0 
L 0 3.5 
" id="m71fa470539" style="stroke:#000000;stroke-width:0.8;"/>
      </defs>
      <g>
       <use style="stroke:#000000;stroke-width:0.8;" x="89.30183" xlink:href="#m71fa470539" y="279.113652"/>
      </g>
     </g>
     <g id="text_1">
      <!-- 0 -->
      <defs>
       <path d="M 31.78125 66.40625 
Q 24.171875 66.40625 20.328125 58.90625 
Q 16.5 51.421875 16.5 36.375 
Q 16.5 21.390625 20.328125 13.890625 
Q 24.171875 6.390625 31.78125 6.390625 
Q 39.453125 6.390625 43.28125 13.890625 
Q 47.125 21.390625 47.125 36.375 
Q 47.125 51.421875 43.28125 58.90625 
Q 39.453125 66.40625 31.78125 66.40625 
z
M 31.78125 74.21875 
Q 44.046875 74.21875 50.515625 64.515625 
Q 56.984375 54.828125 56.984375 36.375 
Q 56.984375 17.96875 50.515625 8.265625 
Q 44.046875 -1.421875 31.78125 -1.421875 
Q 19.53125 -1.421875 13.0625 8.265625 
Q 6.59375 17.96875 6.59375 36.375 
Q 6.59375 54.828125 13.0625 64.515625 
Q 19.53125 74.21875 31.78125 74.21875 
z
" id="DejaVuSans-48"/>
      </defs>
      <g transform="translate(84.21183 298.271152)scale(0.16 -0.16)">
       <use xlink:href="#DejaVuSans-48"/>
      </g>
     </g>
    </g>
    <g id="xtick_2">
     <g id="line2d_2">
      <g>
       <use style="stroke:#000000;stroke-width:0.8;" x="191.591887" xlink:href="#m71fa470539" y="279.113652"/>
      </g>
     </g>
     <g id="text_2">
      <!-- 1 -->
      <defs>
       <path d="M 12.40625 8.296875 
L 28.515625 8.296875 
L 28.515625 63.921875 
L 10.984375 60.40625 
L 10.984375 69.390625 
L 28.421875 72.90625 
L 38.28125 72.90625 
L 38.28125 8.296875 
L 54.390625 8.296875 
L 54.390625 0 
L 12.40625 0 
z
" id="DejaVuSans-49"/>
      </defs>
      <g transform="translate(186.501887 298.271152)scale(0.16 -0.16)">
       <use xlink:href="#DejaVuSans-49"/>
      </g>
     </g>
    </g>
    <g id="xtick_3">
     <g id="line2d_3">
      <g>
       <use style="stroke:#000000;stroke-width:0.8;" x="293.881944" xlink:href="#m71fa470539" y="279.113652"/>
      </g>
     </g>
     <g id="text_3">
      <!-- 2 -->
      <defs>
       <path d="M 19.1875 8.296875 
L 53.609375 8.296875 
L 53.609375 0 
L 7.328125 0 
L 7.328125 8.296875 
Q 12.9375 14.109375 22.625 23.890625 
Q 32.328125 33.6875 34.8125 36.53125 
Q 39.546875 41.84375 41.421875 45.53125 
Q 43.3125 49.21875 43.3125 52.78125 
Q 43.3125 58.59375 39.234375 62.25 
Q 35.15625 65.921875 28.609375 65.921875 
Q 23.96875 65.921875 18.8125 64.3125 
Q 13.671875 62.703125 7.8125 59.421875 
L 7.8125 69.390625 
Q 13.765625 71.78125 18.9375 73 
Q 24.125 74.21875 28.421875 74.21875 
Q 39.75 74.21875 46.484375 68.546875 
Q 53.21875 62.890625 53.21875 53.421875 
Q 53.21875 48.921875 51.53125 44.890625 
Q 49.859375 40.875 45.40625 35.40625 
Q 44.1875 33.984375 37.640625 27.21875 
Q 31.109375 20.453125 19.1875 8.296875 
z
" id="DejaVuSans-50"/>
      </defs>
      <g transform="translate(288.791944 298.271152)scale(0.16 -0.16)">
       <use xlink:href="#DejaVuSans-50"/>
      </g>
     </g>
    </g>
    <g id="xtick_4">
     <g id="line2d_4">
      <g>
       <use style="stroke:#000000;stroke-width:0.8;" x="396.172002" xlink:href="#m71fa470539" y="279.113652"/>
      </g>
     </g>
     <g id="text_4">
      <!-- 3 -->
      <defs>
       <path d="M 40.578125 39.3125 
Q 47.65625 37.796875 51.625 33 
Q 55.609375 28.21875 55.609375 21.1875 
Q 55.609375 10.40625 48.1875 4.484375 
Q 40.765625 -1.421875 27.09375 -1.421875 
Q 22.515625 -1.421875 17.65625 -0.515625 
Q 12.796875 0.390625 7.625 2.203125 
L 7.625 11.71875 
Q 11.71875 9.328125 16.59375 8.109375 
Q 21.484375 6.890625 26.8125 6.890625 
Q 36.078125 6.890625 40.9375 10.546875 
Q 45.796875 14.203125 45.796875 21.1875 
Q 45.796875 27.640625 41.28125 31.265625 
Q 36.765625 34.90625 28.71875 34.90625 
L 20.21875 34.90625 
L 20.21875 43.015625 
L 29.109375 43.015625 
Q 36.375 43.015625 40.234375 45.921875 
Q 44.09375 48.828125 44.09375 54.296875 
Q 44.09375 59.90625 40.109375 62.90625 
Q 36.140625 65.921875 28.71875 65.921875 
Q 24.65625 65.921875 20.015625 65.03125 
Q 15.375 64.15625 9.8125 62.3125 
L 9.8125 71.09375 
Q 15.4375 72.65625 20.34375 73.4375 
Q 25.25 74.21875 29.59375 74.21875 
Q 40.828125 74.21875 47.359375 69.109375 
Q 53.90625 64.015625 53.90625 55.328125 
Q 53.90625 49.265625 50.4375 45.09375 
Q 46.96875 40.921875 40.578125 39.3125 
z
" id="DejaVuSans-51"/>
      </defs>
      <g transform="translate(391.082002 298.271152)scale(0.16 -0.16)">
       <use xlink:href="#DejaVuSans-51"/>
      </g>
     </g>
    </g>
    <g id="xtick_5">
     <g id="line2d_5">
      <g>
       <use style="stroke:#000000;stroke-width:0.8;" x="498.462059" xlink:href="#m71fa470539" y="279.113652"/>
      </g>
     </g>
     <g id="text_5">
      <!-- 4 -->
      <defs>
       <path d="M 37.796875 64.3125 
L 12.890625 25.390625 
L 37.796875 25.390625 
z
M 35.203125 72.90625 
L 47.609375 72.90625 
L 47.609375 25.390625 
L 58.015625 25.390625 
L 58.015625 17.1875 
L 47.609375 17.1875 
L 47.609375 0 
L 37.796875 0 
L 37.796875 17.1875 
L 4.890625 17.1875 
L 4.890625 26.703125 
z
" id="DejaVuSans-52"/>
      </defs>
      <g transform="translate(493.372059 298.271152)scale(0.16 -0.16)">
       <use xlink:href="#DejaVuSans-52"/>
      </g>
     </g>
    </g>
    <g id="xtick_6">
     <g id="line2d_6">
      <g>
       <use style="stroke:#000000;stroke-width:0.8;" x="600.752117" xlink:href="#m71fa470539" y="279.113652"/>
      </g>
     </g>
     <g id="text_6">
      <!-- 5 -->
      <defs>
       <path d="M 10.796875 72.90625 
L 49.515625 72.90625 
L 49.515625 64.59375 
L 19.828125 64.59375 
L 19.828125 46.734375 
Q 21.96875 47.46875 24.109375 47.828125 
Q 26.265625 48.1875 28.421875 48.1875 
Q 40.625 48.1875 47.75 41.5 
Q 54.890625 34.8125 54.890625 23.390625 
Q 54.890625 11.625 47.5625 5.09375 
Q 40.234375 -1.421875 26.90625 -1.421875 
Q 22.3125 -1.421875 17.546875 -0.640625 
Q 12.796875 0.140625 7.71875 1.703125 
L 7.71875 11.625 
Q 12.109375 9.234375 16.796875 8.0625 
Q 21.484375 6.890625 26.703125 6.890625 
Q 35.15625 6.890625 40.078125 11.328125 
Q 45.015625 15.765625 45.015625 23.390625 
Q 45.015625 31 40.078125 35.4375 
Q 35.15625 39.890625 26.703125 39.890625 
Q 22.75 39.890625 18.8125 39.015625 
Q 14.890625 38.140625 10.796875 36.28125 
z
" id="DejaVuSans-53"/>
      </defs>
      <g transform="translate(595.662117 298.271152)scale(0.16 -0.16)">
       <use xlink:href="#DejaVuSans-53"/>
      </g>
     </g>
    </g>
    <g id="text_7">
     <!-- $J_e$ (mV) -->
     <defs>
      <path d="M 16.703125 72.90625 
L 26.609375 72.90625 
L 13.375 5.078125 
Q 10.796875 -8.15625 4.65625 -14.078125 
Q -1.46875 -20.015625 -12.5 -20.015625 
L -16.40625 -20.015625 
L -14.796875 -11.71875 
L -11.71875 -11.71875 
Q -5.125 -11.71875 -1.703125 -7.953125 
Q 1.703125 -4.203125 3.515625 5.078125 
z
" id="DejaVuSans-Oblique-74"/>
      <path d="M 48.09375 32.234375 
Q 48.25 33.015625 48.3125 33.84375 
Q 48.390625 34.671875 48.390625 35.5 
Q 48.390625 41.453125 44.890625 44.921875 
Q 41.40625 48.390625 35.40625 48.390625 
Q 28.71875 48.390625 23.578125 44.15625 
Q 18.453125 39.9375 15.828125 32.171875 
z
M 55.90625 25.203125 
L 14.109375 25.203125 
Q 13.8125 23.34375 13.71875 22.265625 
Q 13.625 21.1875 13.625 20.40625 
Q 13.625 13.625 17.796875 9.90625 
Q 21.96875 6.203125 29.59375 6.203125 
Q 35.453125 6.203125 40.671875 7.515625 
Q 45.90625 8.84375 50.390625 11.375 
L 48.6875 2.484375 
Q 43.84375 0.53125 38.6875 -0.4375 
Q 33.546875 -1.421875 28.21875 -1.421875 
Q 16.84375 -1.421875 10.71875 4.015625 
Q 4.59375 9.46875 4.59375 19.484375 
Q 4.59375 28.03125 7.640625 35.375 
Q 10.6875 42.71875 16.609375 48.484375 
Q 20.40625 52.09375 25.65625 54.046875 
Q 30.90625 56 36.8125 56 
Q 46.09375 56 51.578125 50.4375 
Q 57.078125 44.875 57.078125 35.5 
Q 57.078125 33.25 56.78125 30.6875 
Q 56.5 28.125 55.90625 25.203125 
z
" id="DejaVuSans-Oblique-101"/>
      <path id="DejaVuSans-32"/>
      <path d="M 31 75.875 
Q 24.46875 64.65625 21.28125 53.65625 
Q 18.109375 42.671875 18.109375 31.390625 
Q 18.109375 20.125 21.3125 9.0625 
Q 24.515625 -2 31 -13.1875 
L 23.1875 -13.1875 
Q 15.875 -1.703125 12.234375 9.375 
Q 8.59375 20.453125 8.59375 31.390625 
Q 8.59375 42.28125 12.203125 53.3125 
Q 15.828125 64.359375 23.1875 75.875 
z
" id="DejaVuSans-40"/>
      <path d="M 52 44.1875 
Q 55.375 50.25 60.0625 53.125 
Q 64.75 56 71.09375 56 
Q 79.640625 56 84.28125 50.015625 
Q 88.921875 44.046875 88.921875 33.015625 
L 88.921875 0 
L 79.890625 0 
L 79.890625 32.71875 
Q 79.890625 40.578125 77.09375 44.375 
Q 74.3125 48.1875 68.609375 48.1875 
Q 61.625 48.1875 57.5625 43.546875 
Q 53.515625 38.921875 53.515625 30.90625 
L 53.515625 0 
L 44.484375 0 
L 44.484375 32.71875 
Q 44.484375 40.625 41.703125 44.40625 
Q 38.921875 48.1875 33.109375 48.1875 
Q 26.21875 48.1875 22.15625 43.53125 
Q 18.109375 38.875 18.109375 30.90625 
L 18.109375 0 
L 9.078125 0 
L 9.078125 54.6875 
L 18.109375 54.6875 
L 18.109375 46.1875 
Q 21.1875 51.21875 25.484375 53.609375 
Q 29.78125 56 35.6875 56 
Q 41.65625 56 45.828125 52.96875 
Q 50 49.953125 52 44.1875 
z
" id="DejaVuSans-109"/>
      <path d="M 28.609375 0 
L 0.78125 72.90625 
L 11.078125 72.90625 
L 34.1875 11.53125 
L 57.328125 72.90625 
L 67.578125 72.90625 
L 39.796875 0 
z
" id="DejaVuSans-86"/>
      <path d="M 8.015625 75.875 
L 15.828125 75.875 
Q 23.140625 64.359375 26.78125 53.3125 
Q 30.421875 42.28125 30.421875 31.390625 
Q 30.421875 20.453125 26.78125 9.375 
Q 23.140625 -1.703125 15.828125 -13.1875 
L 8.015625 -13.1875 
Q 14.5 -2 17.703125 9.0625 
Q 20.90625 20.125 20.90625 31.390625 
Q 20.90625 42.671875 17.703125 53.65625 
Q 14.5 64.65625 8.015625 75.875 
z
" id="DejaVuSans-41"/>
     </defs>
     <g transform="translate(306.90125 320.798652)scale(0.2 -0.2)">
      <use transform="translate(0 0.125)" xlink:href="#DejaVuSans-Oblique-74"/>
      <use transform="translate(29.492188 -16.28125)scale(0.7)" xlink:href="#DejaVuSans-Oblique-101"/>
      <use transform="translate(75.292969 0.125)" xlink:href="#DejaVuSans-32"/>
      <use transform="translate(107.080078 0.125)" xlink:href="#DejaVuSans-40"/>
      <use transform="translate(146.09375 0.125)" xlink:href="#DejaVuSans-109"/>
      <use transform="translate(243.505859 0.125)" xlink:href="#DejaVuSans-86"/>
      <use transform="translate(311.914062 0.125)" xlink:href="#DejaVuSans-41"/>
     </g>
    </g>
   </g>
   <g id="matplotlib.axis_2">
    <g id="ytick_1">
     <g id="line2d_7">
      <defs>
       <path d="M 0 0 
L -3.5 0 
" id="mad7310cf30" style="stroke:#000000;stroke-width:0.8;"/>
      </defs>
      <g>
       <use style="stroke:#000000;stroke-width:0.8;" x="63.00125" xlink:href="#mad7310cf30" y="266.759107"/>
      </g>
     </g>
     <g id="text_8">
      <!-- 0.0 -->
      <defs>
       <path d="M 10.6875 12.40625 
L 21 12.40625 
L 21 0 
L 10.6875 0 
z
" id="DejaVuSans-46"/>
      </defs>
      <g transform="translate(30.55625 272.837857)scale(0.16 -0.16)">
       <use xlink:href="#DejaVuSans-48"/>
       <use x="63.623047" xlink:href="#DejaVuSans-46"/>
       <use x="95.410156" xlink:href="#DejaVuSans-48"/>
      </g>
     </g>
    </g>
    <g id="ytick_2">
     <g id="line2d_8">
      <g>
       <use style="stroke:#000000;stroke-width:0.8;" x="63.00125" xlink:href="#mad7310cf30" y="216.063035"/>
      </g>
     </g>
     <g id="text_9">
      <!-- 0.1 -->
      <g transform="translate(30.55625 222.141785)scale(0.16 -0.16)">
       <use xlink:href="#DejaVuSans-48"/>
       <use x="63.623047" xlink:href="#DejaVuSans-46"/>
       <use x="95.410156" xlink:href="#DejaVuSans-49"/>
      </g>
     </g>
    </g>
    <g id="ytick_3">
     <g id="line2d_9">
      <g>
       <use style="stroke:#000000;stroke-width:0.8;" x="63.00125" xlink:href="#mad7310cf30" y="165.366964"/>
      </g>
     </g>
     <g id="text_10">
      <!-- 0.2 -->
      <g transform="translate(30.55625 171.445714)scale(0.16 -0.16)">
       <use xlink:href="#DejaVuSans-48"/>
       <use x="63.623047" xlink:href="#DejaVuSans-46"/>
       <use x="95.410156" xlink:href="#DejaVuSans-50"/>
      </g>
     </g>
    </g>
    <g id="ytick_4">
     <g id="line2d_10">
      <g>
       <use style="stroke:#000000;stroke-width:0.8;" x="63.00125" xlink:href="#mad7310cf30" y="114.670893"/>
      </g>
     </g>
     <g id="text_11">
      <!-- 0.3 -->
      <g transform="translate(30.55625 120.749643)scale(0.16 -0.16)">
       <use xlink:href="#DejaVuSans-48"/>
       <use x="63.623047" xlink:href="#DejaVuSans-46"/>
       <use x="95.410156" xlink:href="#DejaVuSans-51"/>
      </g>
     </g>
    </g>
    <g id="ytick_5">
     <g id="line2d_11">
      <g>
       <use style="stroke:#000000;stroke-width:0.8;" x="63.00125" xlink:href="#mad7310cf30" y="63.974821"/>
      </g>
     </g>
     <g id="text_12">
      <!-- 0.4 -->
      <g transform="translate(30.55625 70.053571)scale(0.16 -0.16)">
       <use xlink:href="#DejaVuSans-48"/>
       <use x="63.623047" xlink:href="#DejaVuSans-46"/>
       <use x="95.410156" xlink:href="#DejaVuSans-52"/>
      </g>
     </g>
    </g>
    <g id="ytick_6">
     <g id="line2d_12">
      <g>
       <use style="stroke:#000000;stroke-width:0.8;" x="63.00125" xlink:href="#mad7310cf30" y="13.27875"/>
      </g>
     </g>
     <g id="text_13">
      <!-- 0.5 -->
      <g transform="translate(30.55625 19.3575)scale(0.16 -0.16)">
       <use xlink:href="#DejaVuSans-48"/>
       <use x="63.623047" xlink:href="#DejaVuSans-46"/>
       <use x="95.410156" xlink:href="#DejaVuSans-53"/>
      </g>
     </g>
    </g>
    <g id="text_14">
     <!-- $E$ (au) -->
     <defs>
      <path d="M 16.890625 72.90625 
L 62.984375 72.90625 
L 61.375 64.59375 
L 25.09375 64.59375 
L 20.90625 43.015625 
L 55.71875 43.015625 
L 54.109375 34.71875 
L 19.28125 34.71875 
L 14.203125 8.296875 
L 51.3125 8.296875 
L 49.703125 0 
L 2.6875 0 
z
" id="DejaVuSans-Oblique-69"/>
      <path d="M 34.28125 27.484375 
Q 23.390625 27.484375 19.1875 25 
Q 14.984375 22.515625 14.984375 16.5 
Q 14.984375 11.71875 18.140625 8.90625 
Q 21.296875 6.109375 26.703125 6.109375 
Q 34.1875 6.109375 38.703125 11.40625 
Q 43.21875 16.703125 43.21875 25.484375 
L 43.21875 27.484375 
z
M 52.203125 31.203125 
L 52.203125 0 
L 43.21875 0 
L 43.21875 8.296875 
Q 40.140625 3.328125 35.546875 0.953125 
Q 30.953125 -1.421875 24.3125 -1.421875 
Q 15.921875 -1.421875 10.953125 3.296875 
Q 6 8.015625 6 15.921875 
Q 6 25.140625 12.171875 29.828125 
Q 18.359375 34.515625 30.609375 34.515625 
L 43.21875 34.515625 
L 43.21875 35.40625 
Q 43.21875 41.609375 39.140625 45 
Q 35.0625 48.390625 27.6875 48.390625 
Q 23 48.390625 18.546875 47.265625 
Q 14.109375 46.140625 10.015625 43.890625 
L 10.015625 52.203125 
Q 14.9375 54.109375 19.578125 55.046875 
Q 24.21875 56 28.609375 56 
Q 40.484375 56 46.34375 49.84375 
Q 52.203125 43.703125 52.203125 31.203125 
z
" id="DejaVuSans-97"/>
      <path d="M 8.5 21.578125 
L 8.5 54.6875 
L 17.484375 54.6875 
L 17.484375 21.921875 
Q 17.484375 14.15625 20.5 10.265625 
Q 23.53125 6.390625 29.59375 6.390625 
Q 36.859375 6.390625 41.078125 11.03125 
Q 45.3125 15.671875 45.3125 23.6875 
L 45.3125 54.6875 
L 54.296875 54.6875 
L 54.296875 0 
L 45.3125 0 
L 45.3125 8.40625 
Q 42.046875 3.421875 37.71875 1 
Q 33.40625 -1.421875 27.6875 -1.421875 
Q 18.265625 -1.421875 13.375 4.4375 
Q 8.5 10.296875 8.5 21.578125 
z
M 31.109375 56 
z
" id="DejaVuSans-117"/>
     </defs>
     <g transform="translate(22.396875 173.013652)rotate(-90)scale(0.2 -0.2)">
      <use transform="translate(0 0.125)" xlink:href="#DejaVuSans-Oblique-69"/>
      <use transform="translate(63.183594 0.125)" xlink:href="#DejaVuSans-32"/>
      <use transform="translate(94.970703 0.125)" xlink:href="#DejaVuSans-40"/>
      <use transform="translate(133.984375 0.125)" xlink:href="#DejaVuSans-97"/>
      <use transform="translate(195.263672 0.125)" xlink:href="#DejaVuSans-117"/>
      <use transform="translate(258.642578 0.125)" xlink:href="#DejaVuSans-41"/>
     </g>
    </g>
   </g>
   <g id="line2d_13">
    <path clip-path="url(#p400b8d4451)" d="M 89.30183 245.209252 
L 94.416332 243.942384 
L 99.530835 242.597342 
L 104.645338 241.169911 
L 109.759841 239.655952 
L 114.874344 238.051503 
L 119.988847 236.352901 
L 125.10335 234.556921 
L 130.217852 232.660937 
L 135.332355 230.663091 
L 140.446858 228.562465 
L 145.561361 226.35924 
L 150.675864 224.054821 
L 155.790367 221.651921 
L 160.90487 219.154576 
L 166.019373 216.568093 
L 171.133875 213.898908 
L 176.248378 211.154379 
L 181.362881 208.342525 
L 186.477384 205.471722 
L 191.591887 202.550407 
L 196.70639 199.586788 
L 201.820893 196.588602 
L 206.935396 193.562928 
L 212.049898 190.509053 
L 217.164401 165.121777 
L 222.278904 140.963394 
L 227.393407 124.312375 
L 232.50791 111.380973 
L 237.622413 101.043317 
L 242.736916 92.653205 
L 247.851418 85.755272 
L 252.965921 80.012712 
L 258.080424 75.17433 
L 263.194927 71.052773 
L 268.30943 67.507241 
L 273.423933 64.432225 
L 278.538436 61.747447 
L 283.652939 59.391874 
L 288.767441 57.318941 
L 293.881944 55.493585 
L 298.996447 53.889755 
L 304.11095 52.489281 
L 309.225453 51.280976 
L 314.339956 50.260841 
L 319.454459 49.432555 
L 324.568962 48.809244 
L 329.683464 48.416783 
L 334.797967 48.299094 
L 339.91247 48.528312 
L 345.026973 49.221851 
L 350.141476 50.575418 
L 355.255979 52.930554 
L 360.370482 56.942343 
L 365.484984 64.199636 
L 370.599487 84.850661 
L 375.71399 88.22584 
L 380.828493 84.799305 
L 385.942996 81.392968 
L 391.057499 78.020885 
L 396.172002 74.698154 
L 401.286505 71.44064 
L 406.401007 68.264225 
L 411.51551 65.183992 
L 416.630013 62.213419 
L 421.744516 59.363729 
L 426.859019 56.643445 
L 431.973522 54.058203 
L 437.088025 51.610823 
L 442.202528 49.301555 
L 447.31703 47.128471 
L 452.431533 45.087899 
L 457.546036 43.174871 
L 462.660539 41.383528 
L 467.775042 39.707462 
L 472.889545 38.139999 
L 478.004048 36.674415 
L 483.118551 35.304092 
L 488.233053 34.022631 
L 493.347556 32.823921 
L 498.462059 31.702185 
L 503.576562 30.652 
L 508.691065 29.668304 
L 513.805568 28.746389 
L 518.920071 27.88189 
L 524.034573 27.07077 
L 529.149076 26.309297 
L 534.263579 25.594027 
L 539.378082 24.921781 
L 544.492585 24.289626 
L 549.607088 23.694856 
L 554.721591 23.134973 
L 559.836094 22.607668 
L 564.950596 22.110809 
L 570.065099 21.642425 
L 575.179602 21.200689 
L 580.294105 20.78391 
L 585.408608 20.390521 
L 590.523111 20.019067 
L 595.637614 19.668198 
" style="fill:none;stroke:#000000;stroke-linecap:square;stroke-width:1.5;"/>
   </g>
   <g id="line2d_14">
    <path clip-path="url(#p400b8d4451)" d="M 101.850978 266.759107 
L 164.859506 266.759107 
" style="fill:none;stroke:#ffc0cb;stroke-linecap:square;stroke-width:1.5;"/>
    <defs>
     <path d="M 0 3 
C 0.795609 3 1.55874 2.683901 2.12132 2.12132 
C 2.683901 1.55874 3 0.795609 3 0 
C 3 -0.795609 2.683901 -1.55874 2.12132 -2.12132 
C 1.55874 -2.683901 0.795609 -3 0 -3 
C -0.795609 -3 -1.55874 -2.683901 -2.12132 -2.12132 
C -2.683901 -1.55874 -3 -0.795609 -3 0 
C -3 0.795609 -2.683901 1.55874 -2.12132 2.12132 
C -1.55874 2.683901 -0.795609 3 0 3 
z
" id="m11c1e79fb9" style="stroke:#ffc0cb;"/>
    </defs>
    <g clip-path="url(#p400b8d4451)">
     <use style="fill:#ffc0cb;stroke:#ffc0cb;" x="101.850978" xlink:href="#m11c1e79fb9" y="266.759107"/>
     <use style="fill:#ffc0cb;stroke:#ffc0cb;" x="164.859506" xlink:href="#m11c1e79fb9" y="266.759107"/>
    </g>
   </g>
   <g id="line2d_15">
    <path clip-path="url(#p400b8d4451)" d="M 101.600385 259.908286 
L 154.767637 259.908286 
" style="fill:none;stroke:#ffc0cb;stroke-linecap:square;stroke-width:1.5;"/>
    <g clip-path="url(#p400b8d4451)">
     <use style="fill:#ffc0cb;stroke:#ffc0cb;" x="101.600385" xlink:href="#m11c1e79fb9" y="259.908286"/>
     <use style="fill:#ffc0cb;stroke:#ffc0cb;" x="154.767637" xlink:href="#m11c1e79fb9" y="259.908286"/>
    </g>
   </g>
   <g id="line2d_16">
    <path clip-path="url(#p400b8d4451)" d="M 91.377804 253.057466 
L 120.650409 253.057466 
" style="fill:none;stroke:#ffc0cb;stroke-linecap:square;stroke-width:1.5;"/>
    <g clip-path="url(#p400b8d4451)">
     <use style="fill:#ffc0cb;stroke:#ffc0cb;" x="91.377804" xlink:href="#m11c1e79fb9" y="253.057466"/>
     <use style="fill:#ffc0cb;stroke:#ffc0cb;" x="120.650409" xlink:href="#m11c1e79fb9" y="253.057466"/>
    </g>
   </g>
   <g id="line2d_17">
    <path clip-path="url(#p400b8d4451)" d="M 99.355281 246.206645 
L 157.551752 246.206645 
" style="fill:none;stroke:#ffc0cb;stroke-linecap:square;stroke-width:1.5;"/>
    <g clip-path="url(#p400b8d4451)">
     <use style="fill:#ffc0cb;stroke:#ffc0cb;" x="99.355281" xlink:href="#m11c1e79fb9" y="246.206645"/>
     <use style="fill:#ffc0cb;stroke:#ffc0cb;" x="157.551752" xlink:href="#m11c1e79fb9" y="246.206645"/>
    </g>
   </g>
   <g id="line2d_18">
    <path clip-path="url(#p400b8d4451)" d="M 109.55476 239.355825 
L 195.57293 239.355825 
" style="fill:none;stroke:#ffc0cb;stroke-linecap:square;stroke-width:1.5;"/>
    <g clip-path="url(#p400b8d4451)">
     <use style="fill:#ffc0cb;stroke:#ffc0cb;" x="109.55476" xlink:href="#m11c1e79fb9" y="239.355825"/>
     <use style="fill:#ffc0cb;stroke:#ffc0cb;" x="195.57293" xlink:href="#m11c1e79fb9" y="239.355825"/>
    </g>
   </g>
   <g id="line2d_19">
    <path clip-path="url(#p400b8d4451)" d="M 94.868879 232.505004 
L 138.464287 232.505004 
" style="fill:none;stroke:#ffc0cb;stroke-linecap:square;stroke-width:1.5;"/>
    <g clip-path="url(#p400b8d4451)">
     <use style="fill:#ffc0cb;stroke:#ffc0cb;" x="94.868879" xlink:href="#m11c1e79fb9" y="232.505004"/>
     <use style="fill:#ffc0cb;stroke:#ffc0cb;" x="138.464287" xlink:href="#m11c1e79fb9" y="232.505004"/>
    </g>
   </g>
   <g id="line2d_20">
    <path clip-path="url(#p400b8d4451)" d="M 103.866291 225.654184 
L 174.231241 225.654184 
" style="fill:none;stroke:#ffc0cb;stroke-linecap:square;stroke-width:1.5;"/>
    <g clip-path="url(#p400b8d4451)">
     <use style="fill:#ffc0cb;stroke:#ffc0cb;" x="103.866291" xlink:href="#m11c1e79fb9" y="225.654184"/>
     <use style="fill:#ffc0cb;stroke:#ffc0cb;" x="174.231241" xlink:href="#m11c1e79fb9" y="225.654184"/>
    </g>
   </g>
   <g id="line2d_21">
    <path clip-path="url(#p400b8d4451)" d="M 96.304058 218.803364 
L 159.146579 218.803364 
" style="fill:none;stroke:#ffc0cb;stroke-linecap:square;stroke-width:1.5;"/>
    <g clip-path="url(#p400b8d4451)">
     <use style="fill:#ffc0cb;stroke:#ffc0cb;" x="96.304058" xlink:href="#m11c1e79fb9" y="218.803364"/>
     <use style="fill:#ffc0cb;stroke:#ffc0cb;" x="159.146579" xlink:href="#m11c1e79fb9" y="218.803364"/>
    </g>
   </g>
   <g id="line2d_22">
    <path clip-path="url(#p400b8d4451)" d="M 113.283301 211.952543 
L 187.196538 211.952543 
" style="fill:none;stroke:#add8e6;stroke-linecap:square;stroke-width:1.5;"/>
    <defs>
     <path d="M 0 3 
C 0.795609 3 1.55874 2.683901 2.12132 2.12132 
C 2.683901 1.55874 3 0.795609 3 0 
C 3 -0.795609 2.683901 -1.55874 2.12132 -2.12132 
C 1.55874 -2.683901 0.795609 -3 0 -3 
C -0.795609 -3 -1.55874 -2.683901 -2.12132 -2.12132 
C -2.683901 -1.55874 -3 -0.795609 -3 0 
C -3 0.795609 -2.683901 1.55874 -2.12132 2.12132 
C -1.55874 2.683901 -0.795609 3 0 3 
z
" id="m9295e06bf2" style="stroke:#add8e6;"/>
    </defs>
    <g clip-path="url(#p400b8d4451)">
     <use style="fill:#add8e6;stroke:#add8e6;" x="113.283301" xlink:href="#m9295e06bf2" y="211.952543"/>
     <use style="fill:#add8e6;stroke:#add8e6;" x="187.196538" xlink:href="#m9295e06bf2" y="211.952543"/>
    </g>
   </g>
   <g id="line2d_23">
    <path clip-path="url(#p400b8d4451)" d="M 104.272474 205.101723 
L 165.765577 205.101723 
" style="fill:none;stroke:#add8e6;stroke-linecap:square;stroke-width:1.5;"/>
    <g clip-path="url(#p400b8d4451)">
     <use style="fill:#add8e6;stroke:#add8e6;" x="104.272474" xlink:href="#m9295e06bf2" y="205.101723"/>
     <use style="fill:#add8e6;stroke:#add8e6;" x="165.765577" xlink:href="#m9295e06bf2" y="205.101723"/>
    </g>
   </g>
   <g id="line2d_24">
    <path clip-path="url(#p400b8d4451)" d="M 88.713437 198.250902 
L 105.96472 198.250902 
" style="fill:none;stroke:#add8e6;stroke-linecap:square;stroke-width:1.5;"/>
    <g clip-path="url(#p400b8d4451)">
     <use style="fill:#add8e6;stroke:#add8e6;" x="88.713437" xlink:href="#m9295e06bf2" y="198.250902"/>
     <use style="fill:#add8e6;stroke:#add8e6;" x="105.96472" xlink:href="#m9295e06bf2" y="198.250902"/>
    </g>
   </g>
   <g id="line2d_25">
    <path clip-path="url(#p400b8d4451)" d="M 88.396501 191.400082 
L 105.886698 191.400082 
" style="fill:none;stroke:#add8e6;stroke-linecap:square;stroke-width:1.5;"/>
    <g clip-path="url(#p400b8d4451)">
     <use style="fill:#add8e6;stroke:#add8e6;" x="88.396501" xlink:href="#m9295e06bf2" y="191.400082"/>
     <use style="fill:#add8e6;stroke:#add8e6;" x="105.886698" xlink:href="#m9295e06bf2" y="191.400082"/>
    </g>
   </g>
   <g id="line2d_26">
    <path clip-path="url(#p400b8d4451)" d="M 92.157033 184.549261 
L 134.416984 184.549261 
" style="fill:none;stroke:#add8e6;stroke-linecap:square;stroke-width:1.5;"/>
    <g clip-path="url(#p400b8d4451)">
     <use style="fill:#add8e6;stroke:#add8e6;" x="92.157033" xlink:href="#m9295e06bf2" y="184.549261"/>
     <use style="fill:#add8e6;stroke:#add8e6;" x="134.416984" xlink:href="#m9295e06bf2" y="184.549261"/>
    </g>
   </g>
   <g id="line2d_27">
    <path clip-path="url(#p400b8d4451)" d="M 88.889689 177.698441 
L 108.528063 177.698441 
" style="fill:none;stroke:#add8e6;stroke-linecap:square;stroke-width:1.5;"/>
    <g clip-path="url(#p400b8d4451)">
     <use style="fill:#add8e6;stroke:#add8e6;" x="88.889689" xlink:href="#m9295e06bf2" y="177.698441"/>
     <use style="fill:#add8e6;stroke:#add8e6;" x="108.528063" xlink:href="#m9295e06bf2" y="177.698441"/>
    </g>
   </g>
   <g id="line2d_28">
    <path clip-path="url(#p400b8d4451)" d="M 101.424065 170.84762 
L 157.572362 170.84762 
" style="fill:none;stroke:#ffd700;stroke-linecap:square;stroke-width:1.5;"/>
    <defs>
     <path d="M 0 3 
C 0.795609 3 1.55874 2.683901 2.12132 2.12132 
C 2.683901 1.55874 3 0.795609 3 0 
C 3 -0.795609 2.683901 -1.55874 2.12132 -2.12132 
C 1.55874 -2.683901 0.795609 -3 0 -3 
C -0.795609 -3 -1.55874 -2.683901 -2.12132 -2.12132 
C -2.683901 -1.55874 -3 -0.795609 -3 0 
C -3 0.795609 -2.683901 1.55874 -2.12132 2.12132 
C -1.55874 2.683901 -0.795609 3 0 3 
z
" id="m49e7bc6fca" style="stroke:#ffd700;"/>
    </defs>
    <g clip-path="url(#p400b8d4451)">
     <use style="fill:#ffd700;stroke:#ffd700;" x="101.424065" xlink:href="#m49e7bc6fca" y="170.84762"/>
     <use style="fill:#ffd700;stroke:#ffd700;" x="157.572362" xlink:href="#m49e7bc6fca" y="170.84762"/>
    </g>
   </g>
   <g id="line2d_29">
    <path clip-path="url(#p400b8d4451)" d="M 89.488227 163.9968 
L 122.03591 163.9968 
" style="fill:none;stroke:#ffd700;stroke-linecap:square;stroke-width:1.5;"/>
    <g clip-path="url(#p400b8d4451)">
     <use style="fill:#ffd700;stroke:#ffd700;" x="89.488227" xlink:href="#m49e7bc6fca" y="163.9968"/>
     <use style="fill:#ffd700;stroke:#ffd700;" x="122.03591" xlink:href="#m49e7bc6fca" y="163.9968"/>
    </g>
   </g>
   <g id="line2d_30">
    <path clip-path="url(#p400b8d4451)" d="M 100.424014 157.145979 
L 163.734328 157.145979 
" style="fill:none;stroke:#ffd700;stroke-linecap:square;stroke-width:1.5;"/>
    <g clip-path="url(#p400b8d4451)">
     <use style="fill:#ffd700;stroke:#ffd700;" x="100.424014" xlink:href="#m49e7bc6fca" y="157.145979"/>
     <use style="fill:#ffd700;stroke:#ffd700;" x="163.734328" xlink:href="#m49e7bc6fca" y="157.145979"/>
    </g>
   </g>
   <g id="line2d_31">
    <path clip-path="url(#p400b8d4451)" d="M 111.56388 150.295159 
L 171.304394 150.295159 
" style="fill:none;stroke:#ffd700;stroke-linecap:square;stroke-width:1.5;"/>
    <g clip-path="url(#p400b8d4451)">
     <use style="fill:#ffd700;stroke:#ffd700;" x="111.56388" xlink:href="#m49e7bc6fca" y="150.295159"/>
     <use style="fill:#ffd700;stroke:#ffd700;" x="171.304394" xlink:href="#m49e7bc6fca" y="150.295159"/>
    </g>
   </g>
   <g id="line2d_32">
    <path clip-path="url(#p400b8d4451)" d="M 99.621102 143.444339 
L 137.933492 143.444339 
" style="fill:none;stroke:#ffd700;stroke-linecap:square;stroke-width:1.5;"/>
    <g clip-path="url(#p400b8d4451)">
     <use style="fill:#ffd700;stroke:#ffd700;" x="99.621102" xlink:href="#m49e7bc6fca" y="143.444339"/>
     <use style="fill:#ffd700;stroke:#ffd700;" x="137.933492" xlink:href="#m49e7bc6fca" y="143.444339"/>
    </g>
   </g>
   <g id="line2d_33">
    <path clip-path="url(#p400b8d4451)" d="M 90.267078 136.593518 
L 114.248585 136.593518 
" style="fill:none;stroke:#ffd700;stroke-linecap:square;stroke-width:1.5;"/>
    <g clip-path="url(#p400b8d4451)">
     <use style="fill:#ffd700;stroke:#ffd700;" x="90.267078" xlink:href="#m49e7bc6fca" y="136.593518"/>
     <use style="fill:#ffd700;stroke:#ffd700;" x="114.248585" xlink:href="#m49e7bc6fca" y="136.593518"/>
    </g>
   </g>
   <g id="line2d_34">
    <path clip-path="url(#p400b8d4451)" d="M 91.873206 129.742698 
L 133.693005 129.742698 
" style="fill:none;stroke:#dda0dd;stroke-linecap:square;stroke-width:1.5;"/>
    <defs>
     <path d="M 0 3 
C 0.795609 3 1.55874 2.683901 2.12132 2.12132 
C 2.683901 1.55874 3 0.795609 3 0 
C 3 -0.795609 2.683901 -1.55874 2.12132 -2.12132 
C 1.55874 -2.683901 0.795609 -3 0 -3 
C -0.795609 -3 -1.55874 -2.683901 -2.12132 -2.12132 
C -2.683901 -1.55874 -3 -0.795609 -3 0 
C -3 0.795609 -2.683901 1.55874 -2.12132 2.12132 
C -1.55874 2.683901 -0.795609 3 0 3 
z
" id="m1a50306dfe" style="stroke:#dda0dd;"/>
    </defs>
    <g clip-path="url(#p400b8d4451)">
     <use style="fill:#dda0dd;stroke:#dda0dd;" x="91.873206" xlink:href="#m1a50306dfe" y="129.742698"/>
     <use style="fill:#dda0dd;stroke:#dda0dd;" x="133.693005" xlink:href="#m1a50306dfe" y="129.742698"/>
    </g>
   </g>
   <g id="line2d_35">
    <path clip-path="url(#p400b8d4451)" d="M 100.45944 122.891877 
L 150.470252 122.891877 
" style="fill:none;stroke:#dda0dd;stroke-linecap:square;stroke-width:1.5;"/>
    <g clip-path="url(#p400b8d4451)">
     <use style="fill:#dda0dd;stroke:#dda0dd;" x="100.45944" xlink:href="#m1a50306dfe" y="122.891877"/>
     <use style="fill:#dda0dd;stroke:#dda0dd;" x="150.470252" xlink:href="#m1a50306dfe" y="122.891877"/>
    </g>
   </g>
   <g id="line2d_36">
    <path clip-path="url(#p400b8d4451)" d="M 109.286129 116.041057 
L 165.716929 116.041057 
" style="fill:none;stroke:#dda0dd;stroke-linecap:square;stroke-width:1.5;"/>
    <g clip-path="url(#p400b8d4451)">
     <use style="fill:#dda0dd;stroke:#dda0dd;" x="109.286129" xlink:href="#m1a50306dfe" y="116.041057"/>
     <use style="fill:#dda0dd;stroke:#dda0dd;" x="165.716929" xlink:href="#m1a50306dfe" y="116.041057"/>
    </g>
   </g>
   <g id="line2d_37">
    <path clip-path="url(#p400b8d4451)" d="M 88.597395 109.190236 
L 107.865973 109.190236 
" style="fill:none;stroke:#dda0dd;stroke-linecap:square;stroke-width:1.5;"/>
    <g clip-path="url(#p400b8d4451)">
     <use style="fill:#dda0dd;stroke:#dda0dd;" x="88.597395" xlink:href="#m1a50306dfe" y="109.190236"/>
     <use style="fill:#dda0dd;stroke:#dda0dd;" x="107.865973" xlink:href="#m1a50306dfe" y="109.190236"/>
    </g>
   </g>
   <g id="line2d_38">
    <path clip-path="url(#p400b8d4451)" d="M 88.4685 102.339416 
L 104.015851 102.339416 
" style="fill:none;stroke:#ff8c00;stroke-linecap:square;stroke-width:1.5;"/>
    <defs>
     <path d="M 0 3 
C 0.795609 3 1.55874 2.683901 2.12132 2.12132 
C 2.683901 1.55874 3 0.795609 3 0 
C 3 -0.795609 2.683901 -1.55874 2.12132 -2.12132 
C 1.55874 -2.683901 0.795609 -3 0 -3 
C -0.795609 -3 -1.55874 -2.683901 -2.12132 -2.12132 
C -2.683901 -1.55874 -3 -0.795609 -3 0 
C -3 0.795609 -2.683901 1.55874 -2.12132 2.12132 
C -1.55874 2.683901 -0.795609 3 0 3 
z
" id="md06d996405" style="stroke:#ff8c00;"/>
    </defs>
    <g clip-path="url(#p400b8d4451)">
     <use style="fill:#ff8c00;stroke:#ff8c00;" x="88.4685" xlink:href="#md06d996405" y="102.339416"/>
     <use style="fill:#ff8c00;stroke:#ff8c00;" x="104.015851" xlink:href="#md06d996405" y="102.339416"/>
    </g>
   </g>
   <g id="line2d_39">
    <path clip-path="url(#p400b8d4451)" d="M 92.298521 95.488595 
L 127.869673 95.488595 
" style="fill:none;stroke:#ff8c00;stroke-linecap:square;stroke-width:1.5;"/>
    <g clip-path="url(#p400b8d4451)">
     <use style="fill:#ff8c00;stroke:#ff8c00;" x="92.298521" xlink:href="#md06d996405" y="95.488595"/>
     <use style="fill:#ff8c00;stroke:#ff8c00;" x="127.869673" xlink:href="#md06d996405" y="95.488595"/>
    </g>
   </g>
   <g id="line2d_40">
    <path clip-path="url(#p400b8d4451)" d="M 91.880154 88.637775 
L 119.018824 88.637775 
" style="fill:none;stroke:#ff8c00;stroke-linecap:square;stroke-width:1.5;"/>
    <g clip-path="url(#p400b8d4451)">
     <use style="fill:#ff8c00;stroke:#ff8c00;" x="91.880154" xlink:href="#md06d996405" y="88.637775"/>
     <use style="fill:#ff8c00;stroke:#ff8c00;" x="119.018824" xlink:href="#md06d996405" y="88.637775"/>
    </g>
   </g>
   <g id="line2d_41">
    <path clip-path="url(#p400b8d4451)" d="M 94.840167 81.786955 
L 123.944885 81.786955 
" style="fill:none;stroke:#ff8c00;stroke-linecap:square;stroke-width:1.5;"/>
    <g clip-path="url(#p400b8d4451)">
     <use style="fill:#ff8c00;stroke:#ff8c00;" x="94.840167" xlink:href="#md06d996405" y="81.786955"/>
     <use style="fill:#ff8c00;stroke:#ff8c00;" x="123.944885" xlink:href="#md06d996405" y="81.786955"/>
    </g>
   </g>
   <g id="line2d_42">
    <path clip-path="url(#p400b8d4451)" d="M 90.130073 74.936134 
L 115.460833 74.936134 
" style="fill:none;stroke:#ff8c00;stroke-linecap:square;stroke-width:1.5;"/>
    <g clip-path="url(#p400b8d4451)">
     <use style="fill:#ff8c00;stroke:#ff8c00;" x="90.130073" xlink:href="#md06d996405" y="74.936134"/>
     <use style="fill:#ff8c00;stroke:#ff8c00;" x="115.460833" xlink:href="#md06d996405" y="74.936134"/>
    </g>
   </g>
   <g id="line2d_43">
    <path clip-path="url(#p400b8d4451)" d="M 107.409363 68.085314 
L 178.318311 68.085314 
" style="fill:none;stroke:#008000;stroke-linecap:square;stroke-width:1.5;"/>
    <defs>
     <path d="M 0 3 
C 0.795609 3 1.55874 2.683901 2.12132 2.12132 
C 2.683901 1.55874 3 0.795609 3 0 
C 3 -0.795609 2.683901 -1.55874 2.12132 -2.12132 
C 1.55874 -2.683901 0.795609 -3 0 -3 
C -0.795609 -3 -1.55874 -2.683901 -2.12132 -2.12132 
C -2.683901 -1.55874 -3 -0.795609 -3 0 
C -3 0.795609 -2.683901 1.55874 -2.12132 2.12132 
C -1.55874 2.683901 -0.795609 3 0 3 
z
" id="me37b7d351a" style="stroke:#008000;"/>
    </defs>
    <g clip-path="url(#p400b8d4451)">
     <use style="fill:#008000;stroke:#008000;" x="107.409363" xlink:href="#me37b7d351a" y="68.085314"/>
     <use style="fill:#008000;stroke:#008000;" x="178.318311" xlink:href="#me37b7d351a" y="68.085314"/>
    </g>
   </g>
   <g id="line2d_44">
    <path clip-path="url(#p400b8d4451)" d="M 110.270912 61.234493 
L 168.986839 61.234493 
" style="fill:none;stroke:#008000;stroke-linecap:square;stroke-width:1.5;"/>
    <g clip-path="url(#p400b8d4451)">
     <use style="fill:#008000;stroke:#008000;" x="110.270912" xlink:href="#me37b7d351a" y="61.234493"/>
     <use style="fill:#008000;stroke:#008000;" x="168.986839" xlink:href="#me37b7d351a" y="61.234493"/>
    </g>
   </g>
   <g id="line2d_45">
    <path clip-path="url(#p400b8d4451)" d="M 95.53334 54.383673 
L 129.470019 54.383673 
" style="fill:none;stroke:#008000;stroke-linecap:square;stroke-width:1.5;"/>
    <g clip-path="url(#p400b8d4451)">
     <use style="fill:#008000;stroke:#008000;" x="95.53334" xlink:href="#me37b7d351a" y="54.383673"/>
     <use style="fill:#008000;stroke:#008000;" x="129.470019" xlink:href="#me37b7d351a" y="54.383673"/>
    </g>
   </g>
   <g id="line2d_46">
    <path clip-path="url(#p400b8d4451)" d="M 88.364886 47.532852 
L 104.132138 47.532852 
" style="fill:none;stroke:#008000;stroke-linecap:square;stroke-width:1.5;"/>
    <g clip-path="url(#p400b8d4451)">
     <use style="fill:#008000;stroke:#008000;" x="88.364886" xlink:href="#me37b7d351a" y="47.532852"/>
     <use style="fill:#008000;stroke:#008000;" x="104.132138" xlink:href="#me37b7d351a" y="47.532852"/>
    </g>
   </g>
   <g id="line2d_47">
    <path clip-path="url(#p400b8d4451)" d="M 89.988239 40.682032 
L 116.966685 40.682032 
" style="fill:none;stroke:#008000;stroke-linecap:square;stroke-width:1.5;"/>
    <g clip-path="url(#p400b8d4451)">
     <use style="fill:#008000;stroke:#008000;" x="89.988239" xlink:href="#me37b7d351a" y="40.682032"/>
     <use style="fill:#008000;stroke:#008000;" x="116.966685" xlink:href="#me37b7d351a" y="40.682032"/>
    </g>
   </g>
   <g id="line2d_48">
    <path clip-path="url(#p400b8d4451)" d="M 93.988448 33.831211 
L 121.453574 33.831211 
" style="fill:none;stroke:#008000;stroke-linecap:square;stroke-width:1.5;"/>
    <g clip-path="url(#p400b8d4451)">
     <use style="fill:#008000;stroke:#008000;" x="93.988448" xlink:href="#me37b7d351a" y="33.831211"/>
     <use style="fill:#008000;stroke:#008000;" x="121.453574" xlink:href="#me37b7d351a" y="33.831211"/>
    </g>
   </g>
   <g id="line2d_49">
    <path clip-path="url(#p400b8d4451)" d="M 88.400026 26.980391 
L 104.947947 26.980391 
" style="fill:none;stroke:#008000;stroke-linecap:square;stroke-width:1.5;"/>
    <g clip-path="url(#p400b8d4451)">
     <use style="fill:#008000;stroke:#008000;" x="88.400026" xlink:href="#me37b7d351a" y="26.980391"/>
     <use style="fill:#008000;stroke:#008000;" x="104.947947" xlink:href="#me37b7d351a" y="26.980391"/>
    </g>
   </g>
   <g id="line2d_50">
    <path clip-path="url(#p400b8d4451)" d="M 90.920579 20.12957 
L 120.169975 20.12957 
" style="fill:none;stroke:#008000;stroke-linecap:square;stroke-width:1.5;"/>
    <g clip-path="url(#p400b8d4451)">
     <use style="fill:#008000;stroke:#008000;" x="90.920579" xlink:href="#me37b7d351a" y="20.12957"/>
     <use style="fill:#008000;stroke:#008000;" x="120.169975" xlink:href="#me37b7d351a" y="20.12957"/>
    </g>
   </g>
   <g id="line2d_51">
    <path clip-path="url(#p400b8d4451)" d="M 89.30183 245.209252 
L 94.416332 243.942384 
L 99.530835 242.597342 
L 104.645338 241.169911 
L 109.759841 239.655952 
L 114.874344 238.051503 
L 119.988847 236.352901 
L 125.10335 234.556921 
L 130.217852 232.660937 
L 135.332355 230.663091 
L 140.446858 228.562465 
L 145.561361 226.35924 
L 150.675864 224.054821 
L 155.790367 221.651921 
L 160.90487 219.154576 
L 166.019373 216.568093 
L 171.133875 213.898908 
L 176.248378 211.154379 
L 181.362881 208.342525 
L 186.477384 205.471722 
L 191.591887 202.550407 
L 196.70639 199.586788 
L 201.820893 196.588602 
L 206.935396 193.562928 
L 212.049898 190.509053 
L 217.164401 165.121777 
L 222.278904 140.963394 
L 227.393407 124.312375 
L 232.50791 111.380973 
L 237.622413 101.043317 
L 242.736916 92.653205 
L 247.851418 85.755272 
L 252.965921 80.012712 
L 258.080424 75.17433 
L 263.194927 71.052773 
L 268.30943 67.507241 
L 273.423933 64.432225 
L 278.538436 61.747447 
L 283.652939 59.391874 
L 288.767441 57.318941 
L 293.881944 55.493585 
L 298.996447 53.889755 
L 304.11095 52.489281 
L 309.225453 51.280976 
L 314.339956 50.260841 
L 319.454459 49.432555 
L 324.568962 48.809244 
L 329.683464 48.416783 
L 334.797967 48.299094 
L 339.91247 48.528312 
L 345.026973 49.221851 
L 350.141476 50.575418 
L 355.255979 52.930554 
L 360.370482 56.942343 
L 365.484984 64.199636 
L 370.599487 84.850661 
L 375.71399 88.22584 
L 380.828493 84.799305 
L 385.942996 81.392968 
L 391.057499 78.020885 
L 396.172002 74.698154 
L 401.286505 71.44064 
L 406.401007 68.264225 
L 411.51551 65.183992 
L 416.630013 62.213419 
L 421.744516 59.363729 
L 426.859019 56.643445 
L 431.973522 54.058203 
L 437.088025 51.610823 
L 442.202528 49.301555 
L 447.31703 47.128471 
L 452.431533 45.087899 
L 457.546036 43.174871 
L 462.660539 41.383528 
L 467.775042 39.707462 
L 472.889545 38.139999 
L 478.004048 36.674415 
L 483.118551 35.304092 
L 488.233053 34.022631 
L 493.347556 32.823921 
L 498.462059 31.702185 
L 503.576562 30.652 
L 508.691065 29.668304 
L 513.805568 28.746389 
L 518.920071 27.88189 
L 524.034573 27.07077 
L 529.149076 26.309297 
L 534.263579 25.594027 
L 539.378082 24.921781 
L 544.492585 24.289626 
L 549.607088 23.694856 
L 554.721591 23.134973 
L 559.836094 22.607668 
L 564.950596 22.110809 
L 570.065099 21.642425 
L 575.179602 21.200689 
L 580.294105 20.78391 
L 585.408608 20.390521 
L 590.523111 20.019067 
L 595.637614 19.668198 
" style="fill:none;stroke:#000000;stroke-linecap:square;stroke-width:1.5;"/>
   </g>
   <g id="line2d_52">
    <path clip-path="url(#p400b8d4451)" d="M 89.30183 245.209252 
L 94.416332 243.942384 
L 99.530835 242.597342 
L 104.645338 241.169911 
L 109.759841 239.655952 
L 114.874344 238.051503 
L 119.988847 236.352901 
L 125.10335 234.556921 
L 130.217852 232.660937 
L 135.332355 230.663091 
L 140.446858 228.562465 
L 145.561361 226.35924 
L 150.675864 224.054821 
L 155.790367 221.651921 
L 160.90487 219.154576 
L 166.019373 216.568093 
L 171.133875 213.898908 
L 176.248378 211.154379 
L 181.362881 208.342525 
L 186.477384 205.471722 
L 191.591887 202.550407 
L 196.70639 199.586788 
L 201.820893 196.588602 
L 206.935396 193.562928 
L 212.049898 190.522667 
L 217.164401 207.199319 
L 222.278904 219.187438 
L 227.393407 224.751796 
L 232.50791 227.855884 
L 237.622413 229.60302 
L 242.736916 230.500948 
L 247.851418 230.826004 
L 252.965921 230.739839 
L 258.080424 230.340385 
L 263.194927 229.687616 
L 268.30943 228.817712 
L 273.423933 227.7511 
L 278.538436 226.497082 
L 283.652939 225.056427 
L 288.767441 223.422847 
L 293.881944 221.583277 
L 298.996447 219.518006 
L 304.11095 217.199592 
L 309.225453 214.591641 
L 314.339956 211.646478 
L 319.454459 208.301834 
L 324.568962 204.476334 
L 329.683464 200.062554 
L 334.797967 194.918024 
L 339.91247 188.851697 
L 345.026973 181.605768 
L 350.141476 172.830402 
L 355.255979 162.037283 
L 360.370482 148.48501 
L 365.484984 130.638189 
L 370.599487 98.667597 
L 375.71399 88.226469 
L 380.828493 84.799305 
L 385.942996 81.392968 
L 391.057499 78.020885 
L 396.172002 74.698154 
L 401.286505 71.44064 
L 406.401007 68.264225 
L 411.51551 65.183992 
L 416.630013 62.213419 
L 421.744516 59.363729 
L 426.859019 56.643445 
L 431.973522 54.058203 
L 437.088025 51.610823 
L 442.202528 49.301555 
L 447.31703 47.128471 
L 452.431533 45.087899 
L 457.546036 43.174871 
L 462.660539 41.383528 
L 467.775042 39.707462 
L 472.889545 38.139999 
L 478.004048 36.674415 
L 483.118551 35.304092 
L 488.233053 34.022631 
L 493.347556 32.823921 
L 498.462059 31.702185 
L 503.576562 30.652 
L 508.691065 29.668304 
L 513.805568 28.746389 
L 518.920071 27.88189 
L 524.034573 27.07077 
L 529.149076 26.309297 
L 534.263579 25.594027 
L 539.378082 24.921781 
L 544.492585 24.289626 
L 549.607088 23.694856 
L 554.721591 23.134973 
L 559.836094 22.607668 
L 564.950596 22.110809 
L 570.065099 21.642425 
L 575.179602 21.200689 
L 580.294105 20.78391 
L 585.408608 20.390521 
L 590.523111 20.019067 
L 595.637614 19.668198 
" style="fill:none;stroke:#000000;stroke-linecap:square;stroke-width:1.5;"/>
   </g>
   <g id="patch_3">
    <path d="M 63.00125 279.113652 
L 63.00125 7.313652 
" style="fill:none;stroke:#000000;stroke-linecap:square;stroke-linejoin:miter;stroke-width:0.8;"/>
   </g>
   <g id="patch_4">
    <path d="M 621.00125 279.113652 
L 621.00125 7.313652 
" style="fill:none;stroke:#000000;stroke-linecap:square;stroke-linejoin:miter;stroke-width:0.8;"/>
   </g>
   <g id="patch_5">
    <path d="M 63.00125 279.113652 
L 621.00125 279.113652 
" style="fill:none;stroke:#000000;stroke-linecap:square;stroke-linejoin:miter;stroke-width:0.8;"/>
   </g>
   <g id="patch_6">
    <path d="M 63.00125 7.313652 
L 621.00125 7.313652 
" style="fill:none;stroke:#000000;stroke-linecap:square;stroke-linejoin:miter;stroke-width:0.8;"/>
   </g>
   <g id="legend_1">
    <g id="patch_7">
     <path d="M 428.135938 272.113652 
L 611.20125 272.113652 
Q 614.00125 272.113652 614.00125 269.313652 
L 614.00125 126.868027 
Q 614.00125 124.068027 611.20125 124.068027 
L 428.135938 124.068027 
Q 425.335938 124.068027 425.335938 126.868027 
L 425.335938 269.313652 
Q 425.335938 272.113652 428.135938 272.113652 
z
" style="fill:#ffffff;opacity:0.8;stroke:#cccccc;stroke-linejoin:miter;"/>
    </g>
    <g id="line2d_53">
     <path d="M 430.935938 135.40584 
L 458.935938 135.40584 
" style="fill:none;stroke:#000000;stroke-linecap:square;stroke-width:1.5;"/>
    </g>
    <g id="line2d_54"/>
    <g id="text_15">
     <!-- Equilibrium Position -->
     <defs>
      <path d="M 9.8125 72.90625 
L 55.90625 72.90625 
L 55.90625 64.59375 
L 19.671875 64.59375 
L 19.671875 43.015625 
L 54.390625 43.015625 
L 54.390625 34.71875 
L 19.671875 34.71875 
L 19.671875 8.296875 
L 56.78125 8.296875 
L 56.78125 0 
L 9.8125 0 
z
" id="DejaVuSans-69"/>
      <path d="M 14.796875 27.296875 
Q 14.796875 17.390625 18.875 11.75 
Q 22.953125 6.109375 30.078125 6.109375 
Q 37.203125 6.109375 41.296875 11.75 
Q 45.40625 17.390625 45.40625 27.296875 
Q 45.40625 37.203125 41.296875 42.84375 
Q 37.203125 48.484375 30.078125 48.484375 
Q 22.953125 48.484375 18.875 42.84375 
Q 14.796875 37.203125 14.796875 27.296875 
z
M 45.40625 8.203125 
Q 42.578125 3.328125 38.25 0.953125 
Q 33.9375 -1.421875 27.875 -1.421875 
Q 17.96875 -1.421875 11.734375 6.484375 
Q 5.515625 14.40625 5.515625 27.296875 
Q 5.515625 40.1875 11.734375 48.09375 
Q 17.96875 56 27.875 56 
Q 33.9375 56 38.25 53.625 
Q 42.578125 51.265625 45.40625 46.390625 
L 45.40625 54.6875 
L 54.390625 54.6875 
L 54.390625 -20.796875 
L 45.40625 -20.796875 
z
" id="DejaVuSans-113"/>
      <path d="M 9.421875 54.6875 
L 18.40625 54.6875 
L 18.40625 0 
L 9.421875 0 
z
M 9.421875 75.984375 
L 18.40625 75.984375 
L 18.40625 64.59375 
L 9.421875 64.59375 
z
" id="DejaVuSans-105"/>
      <path d="M 9.421875 75.984375 
L 18.40625 75.984375 
L 18.40625 0 
L 9.421875 0 
z
" id="DejaVuSans-108"/>
      <path d="M 48.6875 27.296875 
Q 48.6875 37.203125 44.609375 42.84375 
Q 40.53125 48.484375 33.40625 48.484375 
Q 26.265625 48.484375 22.1875 42.84375 
Q 18.109375 37.203125 18.109375 27.296875 
Q 18.109375 17.390625 22.1875 11.75 
Q 26.265625 6.109375 33.40625 6.109375 
Q 40.53125 6.109375 44.609375 11.75 
Q 48.6875 17.390625 48.6875 27.296875 
z
M 18.109375 46.390625 
Q 20.953125 51.265625 25.265625 53.625 
Q 29.59375 56 35.59375 56 
Q 45.5625 56 51.78125 48.09375 
Q 58.015625 40.1875 58.015625 27.296875 
Q 58.015625 14.40625 51.78125 6.484375 
Q 45.5625 -1.421875 35.59375 -1.421875 
Q 29.59375 -1.421875 25.265625 0.953125 
Q 20.953125 3.328125 18.109375 8.203125 
L 18.109375 0 
L 9.078125 0 
L 9.078125 75.984375 
L 18.109375 75.984375 
z
" id="DejaVuSans-98"/>
      <path d="M 41.109375 46.296875 
Q 39.59375 47.171875 37.8125 47.578125 
Q 36.03125 48 33.890625 48 
Q 26.265625 48 22.1875 43.046875 
Q 18.109375 38.09375 18.109375 28.8125 
L 18.109375 0 
L 9.078125 0 
L 9.078125 54.6875 
L 18.109375 54.6875 
L 18.109375 46.1875 
Q 20.953125 51.171875 25.484375 53.578125 
Q 30.03125 56 36.53125 56 
Q 37.453125 56 38.578125 55.875 
Q 39.703125 55.765625 41.0625 55.515625 
z
" id="DejaVuSans-114"/>
      <path d="M 19.671875 64.796875 
L 19.671875 37.40625 
L 32.078125 37.40625 
Q 38.96875 37.40625 42.71875 40.96875 
Q 46.484375 44.53125 46.484375 51.125 
Q 46.484375 57.671875 42.71875 61.234375 
Q 38.96875 64.796875 32.078125 64.796875 
z
M 9.8125 72.90625 
L 32.078125 72.90625 
Q 44.34375 72.90625 50.609375 67.359375 
Q 56.890625 61.8125 56.890625 51.125 
Q 56.890625 40.328125 50.609375 34.8125 
Q 44.34375 29.296875 32.078125 29.296875 
L 19.671875 29.296875 
L 19.671875 0 
L 9.8125 0 
z
" id="DejaVuSans-80"/>
      <path d="M 30.609375 48.390625 
Q 23.390625 48.390625 19.1875 42.75 
Q 14.984375 37.109375 14.984375 27.296875 
Q 14.984375 17.484375 19.15625 11.84375 
Q 23.34375 6.203125 30.609375 6.203125 
Q 37.796875 6.203125 41.984375 11.859375 
Q 46.1875 17.53125 46.1875 27.296875 
Q 46.1875 37.015625 41.984375 42.703125 
Q 37.796875 48.390625 30.609375 48.390625 
z
M 30.609375 56 
Q 42.328125 56 49.015625 48.375 
Q 55.71875 40.765625 55.71875 27.296875 
Q 55.71875 13.875 49.015625 6.21875 
Q 42.328125 -1.421875 30.609375 -1.421875 
Q 18.84375 -1.421875 12.171875 6.21875 
Q 5.515625 13.875 5.515625 27.296875 
Q 5.515625 40.765625 12.171875 48.375 
Q 18.84375 56 30.609375 56 
z
" id="DejaVuSans-111"/>
      <path d="M 44.28125 53.078125 
L 44.28125 44.578125 
Q 40.484375 46.53125 36.375 47.5 
Q 32.28125 48.484375 27.875 48.484375 
Q 21.1875 48.484375 17.84375 46.4375 
Q 14.5 44.390625 14.5 40.28125 
Q 14.5 37.15625 16.890625 35.375 
Q 19.28125 33.59375 26.515625 31.984375 
L 29.59375 31.296875 
Q 39.15625 29.25 43.1875 25.515625 
Q 47.21875 21.78125 47.21875 15.09375 
Q 47.21875 7.46875 41.1875 3.015625 
Q 35.15625 -1.421875 24.609375 -1.421875 
Q 20.21875 -1.421875 15.453125 -0.5625 
Q 10.6875 0.296875 5.421875 2 
L 5.421875 11.28125 
Q 10.40625 8.6875 15.234375 7.390625 
Q 20.0625 6.109375 24.8125 6.109375 
Q 31.15625 6.109375 34.5625 8.28125 
Q 37.984375 10.453125 37.984375 14.40625 
Q 37.984375 18.0625 35.515625 20.015625 
Q 33.0625 21.96875 24.703125 23.78125 
L 21.578125 24.515625 
Q 13.234375 26.265625 9.515625 29.90625 
Q 5.8125 33.546875 5.8125 39.890625 
Q 5.8125 47.609375 11.28125 51.796875 
Q 16.75 56 26.8125 56 
Q 31.78125 56 36.171875 55.265625 
Q 40.578125 54.546875 44.28125 53.078125 
z
" id="DejaVuSans-115"/>
      <path d="M 18.3125 70.21875 
L 18.3125 54.6875 
L 36.8125 54.6875 
L 36.8125 47.703125 
L 18.3125 47.703125 
L 18.3125 18.015625 
Q 18.3125 11.328125 20.140625 9.421875 
Q 21.96875 7.515625 27.59375 7.515625 
L 36.8125 7.515625 
L 36.8125 0 
L 27.59375 0 
Q 17.1875 0 13.234375 3.875 
Q 9.28125 7.765625 9.28125 18.015625 
L 9.28125 47.703125 
L 2.6875 47.703125 
L 2.6875 54.6875 
L 9.28125 54.6875 
L 9.28125 70.21875 
z
" id="DejaVuSans-116"/>
      <path d="M 54.890625 33.015625 
L 54.890625 0 
L 45.90625 0 
L 45.90625 32.71875 
Q 45.90625 40.484375 42.875 44.328125 
Q 39.84375 48.1875 33.796875 48.1875 
Q 26.515625 48.1875 22.3125 43.546875 
Q 18.109375 38.921875 18.109375 30.90625 
L 18.109375 0 
L 9.078125 0 
L 9.078125 54.6875 
L 18.109375 54.6875 
L 18.109375 46.1875 
Q 21.34375 51.125 25.703125 53.5625 
Q 30.078125 56 35.796875 56 
Q 45.21875 56 50.046875 50.171875 
Q 54.890625 44.34375 54.890625 33.015625 
z
" id="DejaVuSans-110"/>
     </defs>
     <g transform="translate(470.135938 140.30584)scale(0.14 -0.14)">
      <use xlink:href="#DejaVuSans-69"/>
      <use x="63.183594" xlink:href="#DejaVuSans-113"/>
      <use x="126.660156" xlink:href="#DejaVuSans-117"/>
      <use x="190.039062" xlink:href="#DejaVuSans-105"/>
      <use x="217.822266" xlink:href="#DejaVuSans-108"/>
      <use x="245.605469" xlink:href="#DejaVuSans-105"/>
      <use x="273.388672" xlink:href="#DejaVuSans-98"/>
      <use x="336.865234" xlink:href="#DejaVuSans-114"/>
      <use x="377.978516" xlink:href="#DejaVuSans-105"/>
      <use x="405.761719" xlink:href="#DejaVuSans-117"/>
      <use x="469.140625" xlink:href="#DejaVuSans-109"/>
      <use x="566.552734" xlink:href="#DejaVuSans-32"/>
      <use x="598.339844" xlink:href="#DejaVuSans-80"/>
      <use x="655.017578" xlink:href="#DejaVuSans-111"/>
      <use x="716.199219" xlink:href="#DejaVuSans-115"/>
      <use x="768.298828" xlink:href="#DejaVuSans-105"/>
      <use x="796.082031" xlink:href="#DejaVuSans-116"/>
      <use x="835.291016" xlink:href="#DejaVuSans-105"/>
      <use x="863.074219" xlink:href="#DejaVuSans-111"/>
      <use x="924.255859" xlink:href="#DejaVuSans-110"/>
     </g>
    </g>
    <g id="line2d_55">
     <path d="M 430.935938 155.955215 
L 458.935938 155.955215 
" style="fill:none;stroke:#008000;stroke-linecap:square;stroke-width:1.5;"/>
    </g>
    <g id="line2d_56">
     <g>
      <use style="fill:#008000;stroke:#008000;" x="444.935938" xlink:href="#me37b7d351a" y="155.955215"/>
     </g>
    </g>
    <g id="text_16">
     <!-- Prefrontal -->
     <defs>
      <path d="M 56.203125 29.59375 
L 56.203125 25.203125 
L 14.890625 25.203125 
Q 15.484375 15.921875 20.484375 11.0625 
Q 25.484375 6.203125 34.421875 6.203125 
Q 39.59375 6.203125 44.453125 7.46875 
Q 49.3125 8.734375 54.109375 11.28125 
L 54.109375 2.78125 
Q 49.265625 0.734375 44.1875 -0.34375 
Q 39.109375 -1.421875 33.890625 -1.421875 
Q 20.796875 -1.421875 13.15625 6.1875 
Q 5.515625 13.8125 5.515625 26.8125 
Q 5.515625 40.234375 12.765625 48.109375 
Q 20.015625 56 32.328125 56 
Q 43.359375 56 49.78125 48.890625 
Q 56.203125 41.796875 56.203125 29.59375 
z
M 47.21875 32.234375 
Q 47.125 39.59375 43.09375 43.984375 
Q 39.0625 48.390625 32.421875 48.390625 
Q 24.90625 48.390625 20.390625 44.140625 
Q 15.875 39.890625 15.1875 32.171875 
z
" id="DejaVuSans-101"/>
      <path d="M 37.109375 75.984375 
L 37.109375 68.5 
L 28.515625 68.5 
Q 23.6875 68.5 21.796875 66.546875 
Q 19.921875 64.59375 19.921875 59.515625 
L 19.921875 54.6875 
L 34.71875 54.6875 
L 34.71875 47.703125 
L 19.921875 47.703125 
L 19.921875 0 
L 10.890625 0 
L 10.890625 47.703125 
L 2.296875 47.703125 
L 2.296875 54.6875 
L 10.890625 54.6875 
L 10.890625 58.5 
Q 10.890625 67.625 15.140625 71.796875 
Q 19.390625 75.984375 28.609375 75.984375 
z
" id="DejaVuSans-102"/>
     </defs>
     <g transform="translate(470.135938 160.855215)scale(0.14 -0.14)">
      <use xlink:href="#DejaVuSans-80"/>
      <use x="58.552734" xlink:href="#DejaVuSans-114"/>
      <use x="97.416016" xlink:href="#DejaVuSans-101"/>
      <use x="158.939453" xlink:href="#DejaVuSans-102"/>
      <use x="194.144531" xlink:href="#DejaVuSans-114"/>
      <use x="233.007812" xlink:href="#DejaVuSans-111"/>
      <use x="294.189453" xlink:href="#DejaVuSans-110"/>
      <use x="357.568359" xlink:href="#DejaVuSans-116"/>
      <use x="396.777344" xlink:href="#DejaVuSans-97"/>
      <use x="458.056641" xlink:href="#DejaVuSans-108"/>
     </g>
    </g>
    <g id="line2d_57">
     <path d="M 430.935938 176.50459 
L 458.935938 176.50459 
" style="fill:none;stroke:#ff8c00;stroke-linecap:square;stroke-width:1.5;"/>
    </g>
    <g id="line2d_58">
     <g>
      <use style="fill:#ff8c00;stroke:#ff8c00;" x="444.935938" xlink:href="#md06d996405" y="176.50459"/>
     </g>
    </g>
    <g id="text_17">
     <!-- Anterolateral -->
     <defs>
      <path d="M 34.1875 63.1875 
L 20.796875 26.90625 
L 47.609375 26.90625 
z
M 28.609375 72.90625 
L 39.796875 72.90625 
L 67.578125 0 
L 57.328125 0 
L 50.6875 18.703125 
L 17.828125 18.703125 
L 11.1875 0 
L 0.78125 0 
z
" id="DejaVuSans-65"/>
     </defs>
     <g transform="translate(470.135938 181.40459)scale(0.14 -0.14)">
      <use xlink:href="#DejaVuSans-65"/>
      <use x="68.408203" xlink:href="#DejaVuSans-110"/>
      <use x="131.787109" xlink:href="#DejaVuSans-116"/>
      <use x="170.996094" xlink:href="#DejaVuSans-101"/>
      <use x="232.519531" xlink:href="#DejaVuSans-114"/>
      <use x="271.382812" xlink:href="#DejaVuSans-111"/>
      <use x="332.564453" xlink:href="#DejaVuSans-108"/>
      <use x="360.347656" xlink:href="#DejaVuSans-97"/>
      <use x="421.626953" xlink:href="#DejaVuSans-116"/>
      <use x="460.835938" xlink:href="#DejaVuSans-101"/>
      <use x="522.359375" xlink:href="#DejaVuSans-114"/>
      <use x="563.472656" xlink:href="#DejaVuSans-97"/>
      <use x="624.751953" xlink:href="#DejaVuSans-108"/>
     </g>
    </g>
    <g id="line2d_59">
     <path d="M 430.935938 197.053965 
L 458.935938 197.053965 
" style="fill:none;stroke:#dda0dd;stroke-linecap:square;stroke-width:1.5;"/>
    </g>
    <g id="line2d_60">
     <g>
      <use style="fill:#dda0dd;stroke:#dda0dd;" x="444.935938" xlink:href="#m1a50306dfe" y="197.053965"/>
     </g>
    </g>
    <g id="text_18">
     <!-- Visual -->
     <g transform="translate(470.135938 201.953965)scale(0.14 -0.14)">
      <use xlink:href="#DejaVuSans-86"/>
      <use x="66.158203" xlink:href="#DejaVuSans-105"/>
      <use x="93.941406" xlink:href="#DejaVuSans-115"/>
      <use x="146.041016" xlink:href="#DejaVuSans-117"/>
      <use x="209.419922" xlink:href="#DejaVuSans-97"/>
      <use x="270.699219" xlink:href="#DejaVuSans-108"/>
     </g>
    </g>
    <g id="line2d_61">
     <path d="M 430.935938 217.60334 
L 458.935938 217.60334 
" style="fill:none;stroke:#ffd700;stroke-linecap:square;stroke-width:1.5;"/>
    </g>
    <g id="line2d_62">
     <g>
      <use style="fill:#ffd700;stroke:#ffd700;" x="444.935938" xlink:href="#m49e7bc6fca" y="217.60334"/>
     </g>
    </g>
    <g id="text_19">
     <!-- Temporal -->
     <defs>
      <path d="M -0.296875 72.90625 
L 61.375 72.90625 
L 61.375 64.59375 
L 35.5 64.59375 
L 35.5 0 
L 25.59375 0 
L 25.59375 64.59375 
L -0.296875 64.59375 
z
" id="DejaVuSans-84"/>
      <path d="M 18.109375 8.203125 
L 18.109375 -20.796875 
L 9.078125 -20.796875 
L 9.078125 54.6875 
L 18.109375 54.6875 
L 18.109375 46.390625 
Q 20.953125 51.265625 25.265625 53.625 
Q 29.59375 56 35.59375 56 
Q 45.5625 56 51.78125 48.09375 
Q 58.015625 40.1875 58.015625 27.296875 
Q 58.015625 14.40625 51.78125 6.484375 
Q 45.5625 -1.421875 35.59375 -1.421875 
Q 29.59375 -1.421875 25.265625 0.953125 
Q 20.953125 3.328125 18.109375 8.203125 
z
M 48.6875 27.296875 
Q 48.6875 37.203125 44.609375 42.84375 
Q 40.53125 48.484375 33.40625 48.484375 
Q 26.265625 48.484375 22.1875 42.84375 
Q 18.109375 37.203125 18.109375 27.296875 
Q 18.109375 17.390625 22.1875 11.75 
Q 26.265625 6.109375 33.40625 6.109375 
Q 40.53125 6.109375 44.609375 11.75 
Q 48.6875 17.390625 48.6875 27.296875 
z
" id="DejaVuSans-112"/>
     </defs>
     <g transform="translate(470.135938 222.50334)scale(0.14 -0.14)">
      <use xlink:href="#DejaVuSans-84"/>
      <use x="44.083984" xlink:href="#DejaVuSans-101"/>
      <use x="105.607422" xlink:href="#DejaVuSans-109"/>
      <use x="203.019531" xlink:href="#DejaVuSans-112"/>
      <use x="266.496094" xlink:href="#DejaVuSans-111"/>
      <use x="327.677734" xlink:href="#DejaVuSans-114"/>
      <use x="368.791016" xlink:href="#DejaVuSans-97"/>
      <use x="430.070312" xlink:href="#DejaVuSans-108"/>
     </g>
    </g>
    <g id="line2d_63">
     <path d="M 430.935938 238.152715 
L 458.935938 238.152715 
" style="fill:none;stroke:#add8e6;stroke-linecap:square;stroke-width:1.5;"/>
    </g>
    <g id="line2d_64">
     <g>
      <use style="fill:#add8e6;stroke:#add8e6;" x="444.935938" xlink:href="#m9295e06bf2" y="238.152715"/>
     </g>
    </g>
    <g id="text_20">
     <!-- Medial -->
     <defs>
      <path d="M 9.8125 72.90625 
L 24.515625 72.90625 
L 43.109375 23.296875 
L 61.8125 72.90625 
L 76.515625 72.90625 
L 76.515625 0 
L 66.890625 0 
L 66.890625 64.015625 
L 48.09375 14.015625 
L 38.1875 14.015625 
L 19.390625 64.015625 
L 19.390625 0 
L 9.8125 0 
z
" id="DejaVuSans-77"/>
      <path d="M 45.40625 46.390625 
L 45.40625 75.984375 
L 54.390625 75.984375 
L 54.390625 0 
L 45.40625 0 
L 45.40625 8.203125 
Q 42.578125 3.328125 38.25 0.953125 
Q 33.9375 -1.421875 27.875 -1.421875 
Q 17.96875 -1.421875 11.734375 6.484375 
Q 5.515625 14.40625 5.515625 27.296875 
Q 5.515625 40.1875 11.734375 48.09375 
Q 17.96875 56 27.875 56 
Q 33.9375 56 38.25 53.625 
Q 42.578125 51.265625 45.40625 46.390625 
z
M 14.796875 27.296875 
Q 14.796875 17.390625 18.875 11.75 
Q 22.953125 6.109375 30.078125 6.109375 
Q 37.203125 6.109375 41.296875 11.75 
Q 45.40625 17.390625 45.40625 27.296875 
Q 45.40625 37.203125 41.296875 42.84375 
Q 37.203125 48.484375 30.078125 48.484375 
Q 22.953125 48.484375 18.875 42.84375 
Q 14.796875 37.203125 14.796875 27.296875 
z
" id="DejaVuSans-100"/>
     </defs>
     <g transform="translate(470.135938 243.052715)scale(0.14 -0.14)">
      <use xlink:href="#DejaVuSans-77"/>
      <use x="86.279297" xlink:href="#DejaVuSans-101"/>
      <use x="147.802734" xlink:href="#DejaVuSans-100"/>
      <use x="211.279297" xlink:href="#DejaVuSans-105"/>
      <use x="239.0625" xlink:href="#DejaVuSans-97"/>
      <use x="300.341797" xlink:href="#DejaVuSans-108"/>
     </g>
    </g>
    <g id="line2d_65">
     <path d="M 430.935938 258.70209 
L 458.935938 258.70209 
" style="fill:none;stroke:#ffc0cb;stroke-linecap:square;stroke-width:1.5;"/>
    </g>
    <g id="line2d_66">
     <g>
      <use style="fill:#ffc0cb;stroke:#ffc0cb;" x="444.935938" xlink:href="#m11c1e79fb9" y="258.70209"/>
     </g>
    </g>
    <g id="text_21">
     <!-- Somatomotor -->
     <defs>
      <path d="M 53.515625 70.515625 
L 53.515625 60.890625 
Q 47.90625 63.578125 42.921875 64.890625 
Q 37.9375 66.21875 33.296875 66.21875 
Q 25.25 66.21875 20.875 63.09375 
Q 16.5 59.96875 16.5 54.203125 
Q 16.5 49.359375 19.40625 46.890625 
Q 22.3125 44.4375 30.421875 42.921875 
L 36.375 41.703125 
Q 47.40625 39.59375 52.65625 34.296875 
Q 57.90625 29 57.90625 20.125 
Q 57.90625 9.515625 50.796875 4.046875 
Q 43.703125 -1.421875 29.984375 -1.421875 
Q 24.8125 -1.421875 18.96875 -0.25 
Q 13.140625 0.921875 6.890625 3.21875 
L 6.890625 13.375 
Q 12.890625 10.015625 18.65625 8.296875 
Q 24.421875 6.59375 29.984375 6.59375 
Q 38.421875 6.59375 43.015625 9.90625 
Q 47.609375 13.234375 47.609375 19.390625 
Q 47.609375 24.75 44.3125 27.78125 
Q 41.015625 30.8125 33.5 32.328125 
L 27.484375 33.5 
Q 16.453125 35.6875 11.515625 40.375 
Q 6.59375 45.0625 6.59375 53.421875 
Q 6.59375 63.09375 13.40625 68.65625 
Q 20.21875 74.21875 32.171875 74.21875 
Q 37.3125 74.21875 42.625 73.28125 
Q 47.953125 72.359375 53.515625 70.515625 
z
" id="DejaVuSans-83"/>
     </defs>
     <g transform="translate(470.135938 263.60209)scale(0.14 -0.14)">
      <use xlink:href="#DejaVuSans-83"/>
      <use x="63.476562" xlink:href="#DejaVuSans-111"/>
      <use x="124.658203" xlink:href="#DejaVuSans-109"/>
      <use x="222.070312" xlink:href="#DejaVuSans-97"/>
      <use x="283.349609" xlink:href="#DejaVuSans-116"/>
      <use x="322.558594" xlink:href="#DejaVuSans-111"/>
      <use x="383.740234" xlink:href="#DejaVuSans-109"/>
      <use x="481.152344" xlink:href="#DejaVuSans-111"/>
      <use x="542.333984" xlink:href="#DejaVuSans-116"/>
      <use x="581.542969" xlink:href="#DejaVuSans-111"/>
      <use x="642.724609" xlink:href="#DejaVuSans-114"/>
     </g>
    </g>
   </g>
  </g>
 </g>
 <defs>
  <clipPath id="p400b8d4451">
   <rect height="271.8" width="558" x="63.00125" y="7.313652"/>
  </clipPath>
 </defs>
</svg>
