<?xml version="1.0" encoding="utf-8" standalone="no"?>
<!DOCTYPE svg PUBLIC "-//W3C//DTD SVG 1.1//EN"
  "http://www.w3.org/Graphics/SVG/1.1/DTD/svg11.dtd">
<!-- Created with matplotlib (https://matplotlib.org/) -->
<svg height="353.285pt" version="1.1" viewBox="0 0 628.20125 353.285" width="628.20125pt" xmlns="http://www.w3.org/2000/svg" xmlns:xlink="http://www.w3.org/1999/xlink">
 <defs>
  <style type="text/css">
*{stroke-linecap:butt;stroke-linejoin:round;}
  </style>
 </defs>
 <g id="figure_1">
  <g id="patch_1">
   <path d="M 0 353.285 
L 628.20125 353.285 
L 628.20125 0 
L 0 0 
z
" style="fill:none;"/>
  </g>
  <g id="axes_1">
   <g id="patch_2">
    <path d="M 63.00125 300.2 
L 621.00125 300.2 
L 621.00125 28.4 
L 63.00125 28.4 
z
" style="fill:#ffffff;"/>
   </g>
   <g id="matplotlib.axis_1">
    <g id="xtick_1">
     <g id="line2d_1">
      <defs>
       <path d="M 0 0 
L 0 3.5 
" id="me9bf1a10cc" style="stroke:#000000;stroke-width:0.8;"/>
      </defs>
      <g>
       <use style="stroke:#000000;stroke-width:0.8;" x="88.364886" xlink:href="#me9bf1a10cc" y="300.2"/>
      </g>
     </g>
     <g id="text_1">
      <!-- 0 -->
      <defs>
       <path d="M 31.78125 66.40625 
Q 24.171875 66.40625 20.328125 58.90625 
Q 16.5 51.421875 16.5 36.375 
Q 16.5 21.390625 20.328125 13.890625 
Q 24.171875 6.390625 31.78125 6.390625 
Q 39.453125 6.390625 43.28125 13.890625 
Q 47.125 21.390625 47.125 36.375 
Q 47.125 51.421875 43.28125 58.90625 
Q 39.453125 66.40625 31.78125 66.40625 
z
M 31.78125 74.21875 
Q 44.046875 74.21875 50.515625 64.515625 
Q 56.984375 54.828125 56.984375 36.375 
Q 56.984375 17.96875 50.515625 8.265625 
Q 44.046875 -1.421875 31.78125 -1.421875 
Q 19.53125 -1.421875 13.0625 8.265625 
Q 6.59375 17.96875 6.59375 36.375 
Q 6.59375 54.828125 13.0625 64.515625 
Q 19.53125 74.21875 31.78125 74.21875 
z
" id="DejaVuSans-48"/>
      </defs>
      <g transform="translate(83.274886 319.3575)scale(0.16 -0.16)">
       <use xlink:href="#DejaVuSans-48"/>
      </g>
     </g>
    </g>
    <g id="xtick_2">
     <g id="line2d_2">
      <g>
       <use style="stroke:#000000;stroke-width:0.8;" x="190.844225" xlink:href="#me9bf1a10cc" y="300.2"/>
      </g>
     </g>
     <g id="text_2">
      <!-- 1 -->
      <defs>
       <path d="M 12.40625 8.296875 
L 28.515625 8.296875 
L 28.515625 63.921875 
L 10.984375 60.40625 
L 10.984375 69.390625 
L 28.421875 72.90625 
L 38.28125 72.90625 
L 38.28125 8.296875 
L 54.390625 8.296875 
L 54.390625 0 
L 12.40625 0 
z
" id="DejaVuSans-49"/>
      </defs>
      <g transform="translate(185.754225 319.3575)scale(0.16 -0.16)">
       <use xlink:href="#DejaVuSans-49"/>
      </g>
     </g>
    </g>
    <g id="xtick_3">
     <g id="line2d_3">
      <g>
       <use style="stroke:#000000;stroke-width:0.8;" x="293.323564" xlink:href="#me9bf1a10cc" y="300.2"/>
      </g>
     </g>
     <g id="text_3">
      <!-- 2 -->
      <defs>
       <path d="M 19.1875 8.296875 
L 53.609375 8.296875 
L 53.609375 0 
L 7.328125 0 
L 7.328125 8.296875 
Q 12.9375 14.109375 22.625 23.890625 
Q 32.328125 33.6875 34.8125 36.53125 
Q 39.546875 41.84375 41.421875 45.53125 
Q 43.3125 49.21875 43.3125 52.78125 
Q 43.3125 58.59375 39.234375 62.25 
Q 35.15625 65.921875 28.609375 65.921875 
Q 23.96875 65.921875 18.8125 64.3125 
Q 13.671875 62.703125 7.8125 59.421875 
L 7.8125 69.390625 
Q 13.765625 71.78125 18.9375 73 
Q 24.125 74.21875 28.421875 74.21875 
Q 39.75 74.21875 46.484375 68.546875 
Q 53.21875 62.890625 53.21875 53.421875 
Q 53.21875 48.921875 51.53125 44.890625 
Q 49.859375 40.875 45.40625 35.40625 
Q 44.1875 33.984375 37.640625 27.21875 
Q 31.109375 20.453125 19.1875 8.296875 
z
" id="DejaVuSans-50"/>
      </defs>
      <g transform="translate(288.233564 319.3575)scale(0.16 -0.16)">
       <use xlink:href="#DejaVuSans-50"/>
      </g>
     </g>
    </g>
    <g id="xtick_4">
     <g id="line2d_4">
      <g>
       <use style="stroke:#000000;stroke-width:0.8;" x="395.802903" xlink:href="#me9bf1a10cc" y="300.2"/>
      </g>
     </g>
     <g id="text_4">
      <!-- 3 -->
      <defs>
       <path d="M 40.578125 39.3125 
Q 47.65625 37.796875 51.625 33 
Q 55.609375 28.21875 55.609375 21.1875 
Q 55.609375 10.40625 48.1875 4.484375 
Q 40.765625 -1.421875 27.09375 -1.421875 
Q 22.515625 -1.421875 17.65625 -0.515625 
Q 12.796875 0.390625 7.625 2.203125 
L 7.625 11.71875 
Q 11.71875 9.328125 16.59375 8.109375 
Q 21.484375 6.890625 26.8125 6.890625 
Q 36.078125 6.890625 40.9375 10.546875 
Q 45.796875 14.203125 45.796875 21.1875 
Q 45.796875 27.640625 41.28125 31.265625 
Q 36.765625 34.90625 28.71875 34.90625 
L 20.21875 34.90625 
L 20.21875 43.015625 
L 29.109375 43.015625 
Q 36.375 43.015625 40.234375 45.921875 
Q 44.09375 48.828125 44.09375 54.296875 
Q 44.09375 59.90625 40.109375 62.90625 
Q 36.140625 65.921875 28.71875 65.921875 
Q 24.65625 65.921875 20.015625 65.03125 
Q 15.375 64.15625 9.8125 62.3125 
L 9.8125 71.09375 
Q 15.4375 72.65625 20.34375 73.4375 
Q 25.25 74.21875 29.59375 74.21875 
Q 40.828125 74.21875 47.359375 69.109375 
Q 53.90625 64.015625 53.90625 55.328125 
Q 53.90625 49.265625 50.4375 45.09375 
Q 46.96875 40.921875 40.578125 39.3125 
z
" id="DejaVuSans-51"/>
      </defs>
      <g transform="translate(390.712903 319.3575)scale(0.16 -0.16)">
       <use xlink:href="#DejaVuSans-51"/>
      </g>
     </g>
    </g>
    <g id="xtick_5">
     <g id="line2d_5">
      <g>
       <use style="stroke:#000000;stroke-width:0.8;" x="498.282242" xlink:href="#me9bf1a10cc" y="300.2"/>
      </g>
     </g>
     <g id="text_5">
      <!-- 4 -->
      <defs>
       <path d="M 37.796875 64.3125 
L 12.890625 25.390625 
L 37.796875 25.390625 
z
M 35.203125 72.90625 
L 47.609375 72.90625 
L 47.609375 25.390625 
L 58.015625 25.390625 
L 58.015625 17.1875 
L 47.609375 17.1875 
L 47.609375 0 
L 37.796875 0 
L 37.796875 17.1875 
L 4.890625 17.1875 
L 4.890625 26.703125 
z
" id="DejaVuSans-52"/>
      </defs>
      <g transform="translate(493.192242 319.3575)scale(0.16 -0.16)">
       <use xlink:href="#DejaVuSans-52"/>
      </g>
     </g>
    </g>
    <g id="xtick_6">
     <g id="line2d_6">
      <g>
       <use style="stroke:#000000;stroke-width:0.8;" x="600.761581" xlink:href="#me9bf1a10cc" y="300.2"/>
      </g>
     </g>
     <g id="text_6">
      <!-- 5 -->
      <defs>
       <path d="M 10.796875 72.90625 
L 49.515625 72.90625 
L 49.515625 64.59375 
L 19.828125 64.59375 
L 19.828125 46.734375 
Q 21.96875 47.46875 24.109375 47.828125 
Q 26.265625 48.1875 28.421875 48.1875 
Q 40.625 48.1875 47.75 41.5 
Q 54.890625 34.8125 54.890625 23.390625 
Q 54.890625 11.625 47.5625 5.09375 
Q 40.234375 -1.421875 26.90625 -1.421875 
Q 22.3125 -1.421875 17.546875 -0.640625 
Q 12.796875 0.140625 7.71875 1.703125 
L 7.71875 11.625 
Q 12.109375 9.234375 16.796875 8.0625 
Q 21.484375 6.890625 26.703125 6.890625 
Q 35.15625 6.890625 40.078125 11.328125 
Q 45.015625 15.765625 45.015625 23.390625 
Q 45.015625 31 40.078125 35.4375 
Q 35.15625 39.890625 26.703125 39.890625 
Q 22.75 39.890625 18.8125 39.015625 
Q 14.890625 38.140625 10.796875 36.28125 
z
" id="DejaVuSans-53"/>
      </defs>
      <g transform="translate(595.671581 319.3575)scale(0.16 -0.16)">
       <use xlink:href="#DejaVuSans-53"/>
      </g>
     </g>
    </g>
    <g id="text_7">
     <!-- $J_e$ (mV) -->
     <defs>
      <path d="M 16.703125 72.90625 
L 26.609375 72.90625 
L 13.375 5.078125 
Q 10.796875 -8.15625 4.65625 -14.078125 
Q -1.46875 -20.015625 -12.5 -20.015625 
L -16.40625 -20.015625 
L -14.796875 -11.71875 
L -11.71875 -11.71875 
Q -5.125 -11.71875 -1.703125 -7.953125 
Q 1.703125 -4.203125 3.515625 5.078125 
z
" id="DejaVuSans-Oblique-74"/>
      <path d="M 48.09375 32.234375 
Q 48.25 33.015625 48.3125 33.84375 
Q 48.390625 34.671875 48.390625 35.5 
Q 48.390625 41.453125 44.890625 44.921875 
Q 41.40625 48.390625 35.40625 48.390625 
Q 28.71875 48.390625 23.578125 44.15625 
Q 18.453125 39.9375 15.828125 32.171875 
z
M 55.90625 25.203125 
L 14.109375 25.203125 
Q 13.8125 23.34375 13.71875 22.265625 
Q 13.625 21.1875 13.625 20.40625 
Q 13.625 13.625 17.796875 9.90625 
Q 21.96875 6.203125 29.59375 6.203125 
Q 35.453125 6.203125 40.671875 7.515625 
Q 45.90625 8.84375 50.390625 11.375 
L 48.6875 2.484375 
Q 43.84375 0.53125 38.6875 -0.4375 
Q 33.546875 -1.421875 28.21875 -1.421875 
Q 16.84375 -1.421875 10.71875 4.015625 
Q 4.59375 9.46875 4.59375 19.484375 
Q 4.59375 28.03125 7.640625 35.375 
Q 10.6875 42.71875 16.609375 48.484375 
Q 20.40625 52.09375 25.65625 54.046875 
Q 30.90625 56 36.8125 56 
Q 46.09375 56 51.578125 50.4375 
Q 57.078125 44.875 57.078125 35.5 
Q 57.078125 33.25 56.78125 30.6875 
Q 56.5 28.125 55.90625 25.203125 
z
" id="DejaVuSans-Oblique-101"/>
      <path id="DejaVuSans-32"/>
      <path d="M 31 75.875 
Q 24.46875 64.65625 21.28125 53.65625 
Q 18.109375 42.671875 18.109375 31.390625 
Q 18.109375 20.125 21.3125 9.0625 
Q 24.515625 -2 31 -13.1875 
L 23.1875 -13.1875 
Q 15.875 -1.703125 12.234375 9.375 
Q 8.59375 20.453125 8.59375 31.390625 
Q 8.59375 42.28125 12.203125 53.3125 
Q 15.828125 64.359375 23.1875 75.875 
z
" id="DejaVuSans-40"/>
      <path d="M 52 44.1875 
Q 55.375 50.25 60.0625 53.125 
Q 64.75 56 71.09375 56 
Q 79.640625 56 84.28125 50.015625 
Q 88.921875 44.046875 88.921875 33.015625 
L 88.921875 0 
L 79.890625 0 
L 79.890625 32.71875 
Q 79.890625 40.578125 77.09375 44.375 
Q 74.3125 48.1875 68.609375 48.1875 
Q 61.625 48.1875 57.5625 43.546875 
Q 53.515625 38.921875 53.515625 30.90625 
L 53.515625 0 
L 44.484375 0 
L 44.484375 32.71875 
Q 44.484375 40.625 41.703125 44.40625 
Q 38.921875 48.1875 33.109375 48.1875 
Q 26.21875 48.1875 22.15625 43.53125 
Q 18.109375 38.875 18.109375 30.90625 
L 18.109375 0 
L 9.078125 0 
L 9.078125 54.6875 
L 18.109375 54.6875 
L 18.109375 46.1875 
Q 21.1875 51.21875 25.484375 53.609375 
Q 29.78125 56 35.6875 56 
Q 41.65625 56 45.828125 52.96875 
Q 50 49.953125 52 44.1875 
z
" id="DejaVuSans-109"/>
      <path d="M 28.609375 0 
L 0.78125 72.90625 
L 11.078125 72.90625 
L 34.1875 11.53125 
L 57.328125 72.90625 
L 67.578125 72.90625 
L 39.796875 0 
z
" id="DejaVuSans-86"/>
      <path d="M 8.015625 75.875 
L 15.828125 75.875 
Q 23.140625 64.359375 26.78125 53.3125 
Q 30.421875 42.28125 30.421875 31.390625 
Q 30.421875 20.453125 26.78125 9.375 
Q 23.140625 -1.703125 15.828125 -13.1875 
L 8.015625 -13.1875 
Q 14.5 -2 17.703125 9.0625 
Q 20.90625 20.125 20.90625 31.390625 
Q 20.90625 42.671875 17.703125 53.65625 
Q 14.5 64.65625 8.015625 75.875 
z
" id="DejaVuSans-41"/>
     </defs>
     <g transform="translate(306.90125 341.885)scale(0.2 -0.2)">
      <use transform="translate(0 0.125)" xlink:href="#DejaVuSans-Oblique-74"/>
      <use transform="translate(29.492188 -16.28125)scale(0.7)" xlink:href="#DejaVuSans-Oblique-101"/>
      <use transform="translate(75.292969 0.125)" xlink:href="#DejaVuSans-32"/>
      <use transform="translate(107.080078 0.125)" xlink:href="#DejaVuSans-40"/>
      <use transform="translate(146.09375 0.125)" xlink:href="#DejaVuSans-109"/>
      <use transform="translate(243.505859 0.125)" xlink:href="#DejaVuSans-86"/>
      <use transform="translate(311.914062 0.125)" xlink:href="#DejaVuSans-41"/>
     </g>
    </g>
   </g>
   <g id="matplotlib.axis_2">
    <g id="ytick_1">
     <g id="line2d_7">
      <defs>
       <path d="M 0 0 
L -3.5 0 
" id="m411fee138a" style="stroke:#000000;stroke-width:0.8;"/>
      </defs>
      <g>
       <use style="stroke:#000000;stroke-width:0.8;" x="63.00125" xlink:href="#m411fee138a" y="248.466061"/>
      </g>
     </g>
     <g id="text_8">
      <!-- 0.1 -->
      <defs>
       <path d="M 10.6875 12.40625 
L 21 12.40625 
L 21 0 
L 10.6875 0 
z
" id="DejaVuSans-46"/>
      </defs>
      <g transform="translate(30.55625 254.544811)scale(0.16 -0.16)">
       <use xlink:href="#DejaVuSans-48"/>
       <use x="63.623047" xlink:href="#DejaVuSans-46"/>
       <use x="95.410156" xlink:href="#DejaVuSans-49"/>
      </g>
     </g>
    </g>
    <g id="ytick_2">
     <g id="line2d_8">
      <g>
       <use style="stroke:#000000;stroke-width:0.8;" x="63.00125" xlink:href="#m411fee138a" y="196.339981"/>
      </g>
     </g>
     <g id="text_9">
      <!-- 0.2 -->
      <g transform="translate(30.55625 202.418731)scale(0.16 -0.16)">
       <use xlink:href="#DejaVuSans-48"/>
       <use x="63.623047" xlink:href="#DejaVuSans-46"/>
       <use x="95.410156" xlink:href="#DejaVuSans-50"/>
      </g>
     </g>
    </g>
    <g id="ytick_3">
     <g id="line2d_9">
      <g>
       <use style="stroke:#000000;stroke-width:0.8;" x="63.00125" xlink:href="#m411fee138a" y="144.213901"/>
      </g>
     </g>
     <g id="text_10">
      <!-- 0.3 -->
      <g transform="translate(30.55625 150.292651)scale(0.16 -0.16)">
       <use xlink:href="#DejaVuSans-48"/>
       <use x="63.623047" xlink:href="#DejaVuSans-46"/>
       <use x="95.410156" xlink:href="#DejaVuSans-51"/>
      </g>
     </g>
    </g>
    <g id="ytick_4">
     <g id="line2d_10">
      <g>
       <use style="stroke:#000000;stroke-width:0.8;" x="63.00125" xlink:href="#m411fee138a" y="92.087821"/>
      </g>
     </g>
     <g id="text_11">
      <!-- 0.4 -->
      <g transform="translate(30.55625 98.166571)scale(0.16 -0.16)">
       <use xlink:href="#DejaVuSans-48"/>
       <use x="63.623047" xlink:href="#DejaVuSans-46"/>
       <use x="95.410156" xlink:href="#DejaVuSans-52"/>
      </g>
     </g>
    </g>
    <g id="ytick_5">
     <g id="line2d_11">
      <g>
       <use style="stroke:#000000;stroke-width:0.8;" x="63.00125" xlink:href="#m411fee138a" y="39.961741"/>
      </g>
     </g>
     <g id="text_12">
      <!-- 0.5 -->
      <g transform="translate(30.55625 46.040491)scale(0.16 -0.16)">
       <use xlink:href="#DejaVuSans-48"/>
       <use x="63.623047" xlink:href="#DejaVuSans-46"/>
       <use x="95.410156" xlink:href="#DejaVuSans-53"/>
      </g>
     </g>
    </g>
    <g id="text_13">
     <!-- $E$ (au) -->
     <defs>
      <path d="M 16.890625 72.90625 
L 62.984375 72.90625 
L 61.375 64.59375 
L 25.09375 64.59375 
L 20.90625 43.015625 
L 55.71875 43.015625 
L 54.109375 34.71875 
L 19.28125 34.71875 
L 14.203125 8.296875 
L 51.3125 8.296875 
L 49.703125 0 
L 2.6875 0 
z
" id="DejaVuSans-Oblique-69"/>
      <path d="M 34.28125 27.484375 
Q 23.390625 27.484375 19.1875 25 
Q 14.984375 22.515625 14.984375 16.5 
Q 14.984375 11.71875 18.140625 8.90625 
Q 21.296875 6.109375 26.703125 6.109375 
Q 34.1875 6.109375 38.703125 11.40625 
Q 43.21875 16.703125 43.21875 25.484375 
L 43.21875 27.484375 
z
M 52.203125 31.203125 
L 52.203125 0 
L 43.21875 0 
L 43.21875 8.296875 
Q 40.140625 3.328125 35.546875 0.953125 
Q 30.953125 -1.421875 24.3125 -1.421875 
Q 15.921875 -1.421875 10.953125 3.296875 
Q 6 8.015625 6 15.921875 
Q 6 25.140625 12.171875 29.828125 
Q 18.359375 34.515625 30.609375 34.515625 
L 43.21875 34.515625 
L 43.21875 35.40625 
Q 43.21875 41.609375 39.140625 45 
Q 35.0625 48.390625 27.6875 48.390625 
Q 23 48.390625 18.546875 47.265625 
Q 14.109375 46.140625 10.015625 43.890625 
L 10.015625 52.203125 
Q 14.9375 54.109375 19.578125 55.046875 
Q 24.21875 56 28.609375 56 
Q 40.484375 56 46.34375 49.84375 
Q 52.203125 43.703125 52.203125 31.203125 
z
" id="DejaVuSans-97"/>
      <path d="M 8.5 21.578125 
L 8.5 54.6875 
L 17.484375 54.6875 
L 17.484375 21.921875 
Q 17.484375 14.15625 20.5 10.265625 
Q 23.53125 6.390625 29.59375 6.390625 
Q 36.859375 6.390625 41.078125 11.03125 
Q 45.3125 15.671875 45.3125 23.6875 
L 45.3125 54.6875 
L 54.296875 54.6875 
L 54.296875 0 
L 45.3125 0 
L 45.3125 8.40625 
Q 42.046875 3.421875 37.71875 1 
Q 33.40625 -1.421875 27.6875 -1.421875 
Q 18.265625 -1.421875 13.375 4.4375 
Q 8.5 10.296875 8.5 21.578125 
z
M 31.109375 56 
z
" id="DejaVuSans-117"/>
     </defs>
     <g transform="translate(22.396875 194.1)rotate(-90)scale(0.2 -0.2)">
      <use transform="translate(0 0.125)" xlink:href="#DejaVuSans-Oblique-69"/>
      <use transform="translate(63.183594 0.125)" xlink:href="#DejaVuSans-32"/>
      <use transform="translate(94.970703 0.125)" xlink:href="#DejaVuSans-40"/>
      <use transform="translate(133.984375 0.125)" xlink:href="#DejaVuSans-97"/>
      <use transform="translate(195.263672 0.125)" xlink:href="#DejaVuSans-117"/>
      <use transform="translate(258.642578 0.125)" xlink:href="#DejaVuSans-41"/>
     </g>
    </g>
   </g>
   <g id="line2d_12">
    <path clip-path="url(#pbf85ae7006)" d="M 88.364886 282.926335 
L 93.488853 281.902857 
L 98.61282 280.815736 
L 103.736787 279.660972 
L 108.860754 278.43442 
L 113.984721 277.131817 
L 119.108688 275.748834 
L 124.232655 274.281139 
L 129.356622 272.724475 
L 134.480589 271.074769 
L 139.604556 269.328253 
L 144.728523 267.481613 
L 149.85249 265.532148 
L 154.976457 263.477948 
L 160.100424 261.318069 
L 165.22439 259.052697 
L 170.348357 256.683275 
L 175.472324 254.212595 
L 180.596291 251.644807 
L 185.720258 248.985366 
L 190.844225 246.240889 
L 195.968192 243.418944 
L 201.092159 240.527774 
L 206.216126 237.575994 
L 211.340093 234.572276 
L 216.46406 231.52506 
L 221.588027 228.442303 
L 226.711994 225.331086 
L 231.835961 222.191232 
L 236.959928 196.087826 
L 242.083895 171.24798 
L 247.207862 154.127282 
L 252.331829 140.831181 
L 257.455795 130.201922 
L 262.579762 121.575157 
L 267.703729 114.482652 
L 272.827696 108.578101 
L 277.951663 103.60324 
L 283.07563 99.365419 
L 288.199597 95.719884 
L 293.323564 92.55812 
L 298.447531 89.797618 
L 303.571498 87.375601 
L 308.695465 85.24419 
L 313.819432 83.367351 
L 318.943399 81.718274 
L 324.067366 80.278302 
L 329.191333 79.035914 
L 334.3153 77.987011 
L 339.439267 77.135354 
L 344.563233 76.494461 
L 349.6872 76.090923 
L 354.811167 75.969921 
L 359.935134 76.205604 
L 365.059101 76.918743 
L 370.183068 78.310454 
L 375.307035 80.732007 
L 380.431002 84.856989 
L 385.554969 92.318936 
L 390.678936 113.552552 
L 395.802903 117.022908 
L 400.92687 113.499711 
L 406.050837 109.99729 
L 411.174804 106.530089 
L 416.298771 103.113633 
L 421.422738 99.764232 
L 426.546705 96.498219 
L 431.670671 93.331099 
L 436.794638 90.276734 
L 441.918605 87.346662 
L 447.042572 84.549645 
L 452.166539 81.89148 
L 457.290506 79.375066 
L 462.414473 77.000659 
L 467.53844 74.766278 
L 472.662407 72.668146 
L 477.786374 70.701157 
L 482.910341 68.859284 
L 488.034308 67.135941 
L 493.158275 65.524264 
L 498.282242 64.017339 
L 503.406209 62.608363 
L 508.530176 61.290755 
L 513.654143 60.058232 
L 518.77811 58.904855 
L 523.902076 57.825047 
L 529.026043 56.813603 
L 534.15001 55.865683 
L 539.273977 54.976799 
L 544.397944 54.1428 
L 549.521911 53.359848 
L 554.645878 52.624402 
L 559.769845 51.933193 
L 564.893812 51.283207 
L 570.017779 50.67166 
L 575.141746 50.095983 
L 580.265713 49.553804 
L 585.38968 49.042931 
L 590.513647 48.561334 
L 595.637614 48.107138 
" style="fill:none;stroke:#000000;stroke-linecap:square;stroke-width:1.5;"/>
   </g>
   <g id="line2d_13">
    <path clip-path="url(#pbf85ae7006)" d="M 88.364886 273.166551 
L 93.488853 271.154818 
L 98.61282 268.944928 
L 103.736787 266.510223 
L 108.860754 263.819915 
L 113.984721 260.838729 
L 119.108688 257.526852 
L 124.232655 253.840471 
L 129.356622 249.733329 
L 134.480589 245.159864 
L 139.604556 240.080304 
L 144.728523 234.467525 
L 149.85249 228.314131 
L 154.976457 219.851472 
L 160.100424 134.103963 
L 165.22439 107.661881 
L 170.348357 95.44104 
L 175.472324 88.121025 
L 180.596291 83.109044 
L 185.720258 79.437108 
L 190.844225 76.685604 
L 195.968192 74.705292 
L 201.092159 73.623112 
L 206.216126 74.421823 
L 211.340093 86.076816 
L 216.46406 113.745059 
L 221.588027 105.425641 
L 226.711994 98.278365 
L 231.835961 92.219376 
L 236.959928 87.083622 
L 242.083895 82.701624 
L 247.207862 78.928519 
L 252.331829 75.648681 
L 257.455795 72.771952 
L 262.579762 70.22826 
L 267.703729 67.962834 
L 272.827696 65.932437 
L 277.951663 64.102555 
L 283.07563 62.445315 
L 288.199597 60.937954 
L 293.323564 59.561687 
L 298.447531 58.300853 
L 303.571498 57.142283 
L 308.695465 56.074803 
L 313.819432 55.088862 
L 318.943399 54.176239 
L 324.067366 53.329808 
L 329.191333 52.543358 
L 334.3153 51.811441 
L 339.439267 51.129261 
L 344.563233 50.492569 
L 349.6872 49.897588 
L 354.811167 49.340945 
L 359.935134 48.819618 
L 365.059101 48.330888 
L 370.183068 47.872302 
L 375.307035 47.441642 
L 380.431002 47.036891 
L 385.554969 46.656218 
L 390.678936 46.29795 
L 395.802903 45.960556 
L 400.92687 45.642637 
L 406.050837 45.342904 
L 411.174804 45.060174 
L 416.298771 44.793355 
L 421.422738 44.54144 
L 426.546705 44.303498 
L 431.670671 44.078665 
L 436.794638 43.866141 
L 441.918605 43.665183 
L 447.042572 43.475101 
L 452.166539 43.29525 
L 457.290506 43.125031 
L 462.414473 42.963885 
L 467.53844 42.811289 
L 472.662407 42.666756 
L 477.786374 42.529828 
L 482.910341 42.400077 
L 488.034308 42.277103 
L 493.158275 42.160529 
L 498.282242 42.050002 
L 503.406209 41.945192 
L 508.530176 41.845785 
L 513.654143 41.751491 
L 518.77811 41.662032 
L 523.902076 41.577149 
L 529.026043 41.496598 
L 534.15001 41.420148 
L 539.273977 41.347583 
L 544.397944 41.278697 
L 549.521911 41.213298 
L 554.645878 41.151202 
L 559.769845 41.092237 
L 564.893812 41.036241 
L 570.017779 40.983059 
L 575.141746 40.932547 
L 580.265713 40.884566 
L 585.38968 40.838986 
L 590.513647 40.795685 
L 595.637614 40.754545 
" style="fill:none;stroke:#3b4cc0;stroke-linecap:square;stroke-width:1.5;"/>
   </g>
   <g id="line2d_14">
    <path clip-path="url(#pbf85ae7006)" d="M 88.364886 278.111446 
L 93.488853 276.663027 
L 98.61282 275.104283 
L 103.736787 273.425466 
L 108.860754 271.61609 
L 113.984721 269.664991 
L 119.108688 267.560461 
L 124.232655 265.290478 
L 129.356622 262.843056 
L 134.480589 260.206744 
L 139.604556 257.371294 
L 144.728523 254.328482 
L 149.85249 251.073035 
L 154.976457 247.603569 
L 160.100424 243.923354 
L 165.22439 240.040728 
L 170.348357 235.968976 
L 175.472324 231.725587 
L 180.596291 227.33094 
L 185.720258 222.802648 
L 190.844225 178.735363 
L 195.968192 146.466293 
L 201.092159 126.428818 
L 206.216126 113.187914 
L 211.340093 103.947113 
L 216.46406 97.15067 
L 221.588027 91.933988 
L 226.711994 87.799292 
L 231.835961 84.447235 
L 236.959928 81.691749 
L 242.083895 79.416624 
L 247.207862 77.553536 
L 252.331829 76.073889 
L 257.455795 74.991537 
L 262.579762 74.383172 
L 267.703729 74.446328 
L 272.827696 75.663976 
L 277.951663 79.323961 
L 283.07563 89.702099 
L 288.199597 118.007505 
L 293.323564 112.41202 
L 298.447531 107.012872 
L 303.571498 101.879948 
L 308.695465 97.067433 
L 313.819432 92.608262 
L 318.943399 88.513712 
L 324.067366 84.777215 
L 329.191333 81.379955 
L 334.3153 78.296208 
L 339.439267 75.497466 
L 344.563233 72.955155 
L 349.6872 70.642209 
L 354.811167 68.533847 
L 359.935134 66.607834 
L 365.059101 64.844469 
L 370.183068 63.226416 
L 375.307035 61.73847 
L 380.431002 60.367311 
L 385.554969 59.101268 
L 390.678936 57.930095 
L 395.802903 56.844782 
L 400.92687 55.837384 
L 406.050837 54.900873 
L 411.174804 54.029017 
L 416.298771 53.216273 
L 421.422738 52.457692 
L 426.546705 51.748849 
L 431.670671 51.08577 
L 436.794638 50.464877 
L 441.918605 49.882944 
L 447.042572 49.33705 
L 452.166539 48.824546 
L 457.290506 48.343024 
L 462.414473 47.89029 
L 467.53844 47.464338 
L 472.662407 47.063336 
L 477.786374 46.685601 
L 482.910341 46.329588 
L 488.034308 45.993877 
L 493.158275 45.677157 
L 498.282242 45.378219 
L 503.406209 45.095944 
L 508.530176 44.829298 
L 513.654143 44.577319 
L 518.77811 44.339117 
L 523.902076 44.113864 
L 529.026043 43.900789 
L 534.15001 43.699173 
L 539.273977 43.508347 
L 544.397944 43.327687 
L 549.521911 43.156607 
L 554.645878 42.994563 
L 559.769845 42.841042 
L 564.893812 42.695566 
L 570.017779 42.557686 
L 575.141746 42.426981 
L 580.265713 42.303055 
L 585.38968 42.185538 
L 590.513647 42.07408 
L 595.637614 41.968353 
" style="fill:none;stroke:#7b9ff9;stroke-linecap:square;stroke-width:1.5;"/>
   </g>
   <g id="line2d_15">
    <path clip-path="url(#pbf85ae7006)" d="M 88.364886 281.549443 
L 93.488853 280.414446 
L 98.61282 279.204997 
L 103.736787 277.915979 
L 108.860754 276.54204 
L 113.984721 275.077636 
L 119.108688 273.517103 
L 124.232655 271.854745 
L 129.356622 270.084956 
L 134.480589 268.202386 
L 139.604556 266.202133 
L 144.728523 264.079979 
L 149.85249 261.832654 
L 154.976457 259.458113 
L 160.100424 256.955809 
L 165.22439 254.326926 
L 170.348357 251.574548 
L 175.472324 248.703716 
L 180.596291 245.721358 
L 185.720258 242.636075 
L 190.844225 239.457798 
L 195.968192 236.197349 
L 201.092159 232.865942 
L 206.216126 229.474693 
L 211.340093 226.034179 
L 216.46406 222.55095 
L 221.588027 193.614953 
L 226.711994 166.258918 
L 231.835961 147.703417 
L 236.959928 133.742709 
L 242.083895 122.961577 
L 247.207862 114.478227 
L 252.331829 107.677363 
L 257.455795 102.126178 
L 262.579762 97.520472 
L 267.703729 93.64528 
L 272.827696 90.346976 
L 277.951663 87.514765 
L 283.07563 85.067952 
L 288.199597 82.948127 
L 293.323564 81.113312 
L 298.447531 79.535274 
L 303.571498 78.197565 
L 308.695465 77.095583 
L 313.819432 76.238235 
L 318.943399 75.651981 
L 324.067366 75.389219 
L 329.191333 75.54446 
L 334.3153 76.285161 
L 339.439267 77.917062 
L 344.563233 81.031795 
L 349.6872 86.94476 
L 354.811167 100.373685 
L 359.935134 117.779882 
L 365.059101 113.751865 
L 370.183068 109.76457 
L 375.307035 105.841877 
L 380.431002 102.008644 
L 385.554969 98.289457 
L 390.678936 94.706909 
L 395.802903 91.280052 
L 400.92687 88.023303 
L 406.050837 84.945947 
L 411.174804 82.05223 
L 416.298771 79.341917 
L 421.422738 76.811124 
L 426.546705 74.453235 
L 431.670671 72.259779 
L 436.794638 70.221173 
L 441.918605 68.327318 
L 447.042572 66.56804 
L 452.166539 64.933394 
L 457.290506 63.413863 
L 462.414473 62.000479 
L 467.53844 60.68488 
L 472.662407 59.459332 
L 477.786374 58.316717 
L 482.910341 57.250509 
L 488.034308 56.254743 
L 493.158275 55.32397 
L 498.282242 54.453219 
L 503.406209 53.637956 
L 508.530176 52.874043 
L 513.654143 52.157702 
L 518.77811 51.485481 
L 523.902076 50.854225 
L 529.026043 50.261043 
L 534.15001 49.703286 
L 539.273977 49.178524 
L 544.397944 48.684523 
L 549.521911 48.219228 
L 554.645878 47.780745 
L 559.769845 47.367329 
L 564.893812 46.977366 
L 570.017779 46.609365 
L 575.141746 46.261947 
L 580.265713 45.93383 
L 585.38968 45.623829 
L 590.513647 45.330839 
L 595.637614 45.053836 
" style="fill:none;stroke:#c0d4f5;stroke-linecap:square;stroke-width:1.5;"/>
   </g>
   <g id="line2d_16">
    <path clip-path="url(#pbf85ae7006)" d="M 88.364886 284.138091 
L 93.488853 283.207052 
L 98.61282 282.220606 
L 103.736787 281.175523 
L 108.860754 280.068471 
L 113.984721 278.896041 
L 119.108688 277.654787 
L 124.232655 276.341267 
L 129.356622 274.952104 
L 134.480589 273.484052 
L 139.604556 271.934086 
L 144.728523 270.299493 
L 149.85249 268.577986 
L 154.976457 266.767819 
L 160.100424 264.867903 
L 165.22439 262.877927 
L 170.348357 260.798456 
L 175.472324 258.631008 
L 180.596291 256.378097 
L 185.720258 254.043233 
L 190.844225 251.63087 
L 195.968192 249.14631 
L 201.092159 246.595555 
L 206.216126 243.985127 
L 211.340093 241.321865 
L 216.46406 238.612715 
L 221.588027 235.864528 
L 226.711994 233.083884 
L 231.835961 230.276939 
L 236.959928 227.449321 
L 242.083895 224.605821 
L 247.207862 221.729612 
L 252.331829 196.571776 
L 257.455795 174.271649 
L 262.579762 158.58211 
L 267.703729 146.128246 
L 272.827696 135.923804 
L 277.951663 127.43903 
L 283.07563 120.310328 
L 288.199597 114.26477 
L 293.323564 109.092007 
L 298.447531 104.62826 
L 303.571498 100.746459 
L 308.695465 97.347042 
L 313.819432 94.352044 
L 318.943399 91.700199 
L 324.067366 89.343012 
L 329.191333 87.242469 
L 334.3153 85.368529 
L 339.439267 83.697984 
L 344.563233 82.213177 
L 349.6872 80.90164 
L 354.811167 79.755443 
L 359.935134 78.771539 
L 365.059101 77.951944 
L 370.183068 77.304683 
L 375.307035 76.845377 
L 380.431002 76.599812 
L 385.554969 76.608196 
L 390.678936 76.931927 
L 395.802903 77.665307 
L 400.92687 78.956151 
L 406.050837 81.045576 
L 411.174804 84.359152 
L 416.298771 89.780427 
L 421.422738 100.09869 
L 426.546705 119.158763 
L 431.670671 116.034343 
L 436.794638 112.90437 
L 441.918605 109.7859 
L 447.042572 106.688127 
L 452.166539 103.621051 
L 457.290506 100.595493 
L 462.414473 97.622769 
L 467.53844 94.714286 
L 472.662407 91.881085 
L 477.786374 89.133384 
L 482.910341 86.480169 
L 488.034308 83.928868 
L 493.158275 81.485148 
L 498.282242 79.152832 
L 503.406209 76.933944 
L 508.530176 74.828847 
L 513.654143 72.836449 
L 518.77811 70.954448 
L 523.902076 69.179583 
L 529.026043 67.507879 
L 534.15001 65.934864 
L 539.273977 64.455757 
L 544.397944 63.065624 
L 549.521911 61.759496 
L 554.645878 60.532466 
L 559.769845 59.379755 
L 564.893812 58.29676 
L 570.017779 57.279087 
L 575.141746 56.322566 
L 580.265713 55.423263 
L 585.38968 54.577481 
L 590.513647 53.781755 
L 595.637614 53.032847 
" style="fill:none;stroke:#f2cbb7;stroke-linecap:square;stroke-width:1.5;"/>
   </g>
   <g id="line2d_17">
    <path clip-path="url(#pbf85ae7006)" d="M 88.364886 286.18136 
L 93.488853 285.395383 
L 98.61282 284.565687 
L 103.736787 283.689996 
L 108.860754 282.765977 
L 113.984721 281.791262 
L 119.108688 280.763465 
L 124.232655 279.680207 
L 129.356622 278.53915 
L 134.480589 277.338033 
L 139.604556 276.074715 
L 144.728523 274.747226 
L 149.85249 273.353823 
L 154.976457 271.89305 
L 160.100424 270.363798 
L 165.22439 268.76537 
L 170.348357 267.097542 
L 175.472324 265.360615 
L 180.596291 263.555457 
L 185.720258 261.683531 
L 190.844225 259.746901 
L 195.968192 257.748222 
L 201.092159 255.690704 
L 206.216126 253.578051 
L 211.340093 251.414382 
L 216.46406 249.204141 
L 221.588027 246.951987 
L 226.711994 244.662691 
L 231.835961 242.341023 
L 236.959928 239.991659 
L 242.083895 237.619089 
L 247.207862 235.227549 
L 252.331829 232.820966 
L 257.455795 230.402918 
L 262.579762 227.976612 
L 267.703729 225.544674 
L 272.827696 223.110029 
L 277.951663 220.253008 
L 283.07563 194.081834 
L 288.199597 176.550729 
L 293.323564 163.48819 
L 298.447531 152.771982 
L 303.571498 143.69787 
L 308.695465 135.898498 
L 313.819432 129.133719 
L 318.943399 123.225954 
L 324.067366 118.036284 
L 329.191333 113.452715 
L 334.3153 109.384043 
L 339.439267 105.754949 
L 344.563233 102.504246 
L 349.6872 99.580979 
L 354.811167 96.943066 
L 359.935134 94.555756 
L 365.059101 92.390108 
L 370.183068 90.422396 
L 375.307035 88.632771 
L 380.431002 87.005133 
L 385.554969 85.526226 
L 390.678936 84.185631 
L 395.802903 82.975303 
L 400.92687 81.88967 
L 406.050837 80.924737 
L 411.174804 80.079826 
L 416.298771 79.356114 
L 421.422738 78.757793 
L 426.546705 78.292428 
L 431.670671 77.971727 
L 436.794638 77.812823 
L 441.918605 77.840065 
L 447.042572 78.087577 
L 452.166539 78.603386 
L 457.290506 79.456061 
L 462.414473 80.745734 
L 467.53844 82.624678 
L 472.662407 85.340919 
L 477.786374 89.350779 
L 482.910341 95.719089 
L 488.034308 109.491778 
L 493.158275 118.74877 
L 498.282242 116.189941 
L 503.406209 113.628651 
L 508.530176 111.068681 
L 513.654143 108.513664 
L 518.77811 105.967769 
L 523.902076 103.435684 
L 529.026043 100.922584 
L 534.15001 98.434068 
L 539.273977 95.976066 
L 544.397944 93.554723 
L 549.521911 91.176258 
L 554.645878 88.846803 
L 559.769845 86.57224 
L 564.893812 84.358037 
L 570.017779 82.209107 
L 575.141746 80.129679 
L 580.265713 78.123218 
L 585.38968 76.192371 
L 590.513647 74.338951 
L 595.637614 72.563964 
" style="fill:none;stroke:#ee8468;stroke-linecap:square;stroke-width:1.5;"/>
   </g>
   <g id="line2d_18">
    <path clip-path="url(#pbf85ae7006)" d="M 88.364886 287.845455 
L 93.488853 287.168746 
L 98.61282 286.456184 
L 103.736787 285.706045 
L 108.860754 284.916571 
L 113.984721 284.085981 
L 119.108688 283.212482 
L 124.232655 282.294288 
L 129.356622 281.329638 
L 134.480589 280.316815 
L 139.604556 279.254178 
L 144.728523 278.140185 
L 149.85249 276.973431 
L 154.976457 275.752679 
L 160.100424 274.476898 
L 165.22439 273.145301 
L 170.348357 271.757385 
L 175.472324 270.312963 
L 180.596291 268.812201 
L 185.720258 267.255636 
L 190.844225 265.644204 
L 195.968192 263.97924 
L 201.092159 262.26248 
L 206.216126 260.496045 
L 211.340093 258.682412 
L 216.46406 256.824378 
L 221.588027 254.925008 
L 226.711994 252.987581 
L 231.835961 251.015526 
L 236.959928 249.012357 
L 242.083895 246.981612 
L 247.207862 244.926789 
L 252.331829 242.851296 
L 257.455795 240.7584 
L 262.579762 238.651191 
L 267.703729 236.532552 
L 272.827696 234.40514 
L 277.951663 232.271371 
L 283.07563 230.133413 
L 288.199597 227.993193 
L 293.323564 225.852399 
L 298.447531 223.712161 
L 303.571498 221.570584 
L 308.695465 212.461556 
L 313.819432 189.612072 
L 318.943399 175.908974 
L 324.067366 165.070911 
L 329.191333 155.924269 
L 334.3153 147.998488 
L 339.439267 141.035508 
L 344.563233 134.866392 
L 349.6872 129.367724 
L 354.811167 124.443398 
L 359.935134 120.01494 
L 365.059101 116.017949 
L 370.183068 112.39783 
L 375.307035 109.108733 
L 380.431002 106.111549 
L 385.554969 103.37324 
L 390.678936 100.865872 
L 395.802903 98.563842 
L 400.92687 96.447812 
L 406.050837 94.499812 
L 411.174804 92.704212 
L 416.298771 91.048621 
L 421.422738 89.522021 
L 426.546705 88.114855 
L 431.670671 86.819758 
L 436.794638 85.630279 
L 441.918605 84.541495 
L 447.042572 83.549679 
L 452.166539 82.652278 
L 457.290506 81.848131 
L 462.414473 81.137198 
L 467.53844 80.521057 
L 472.662407 80.002846 
L 477.786374 79.587538 
L 482.910341 79.282343 
L 488.034308 79.097328 
L 493.158275 79.046066 
L 498.282242 79.14643 
L 503.406209 79.422571 
L 508.530176 79.906534 
L 513.654143 80.641686 
L 518.77811 81.688151 
L 523.902076 83.131531 
L 529.026043 85.099775 
L 534.15001 87.798679 
L 539.273977 91.603002 
L 544.397944 97.366659 
L 549.521911 108.629319 
L 554.645878 119.547522 
L 559.769845 117.389949 
L 564.893812 115.223714 
L 570.017779 113.055619 
L 575.141746 110.886803 
L 580.265713 108.719297 
L 585.38968 106.555125 
L 590.513647 104.396578 
L 595.637614 102.246213 
" style="fill:none;stroke:#b40426;stroke-linecap:square;stroke-width:1.5;"/>
   </g>
   <g id="line2d_19">
    <path clip-path="url(#pbf85ae7006)" d="M 88.364886 273.166551 
L 93.488853 271.154818 
L 98.61282 268.944928 
L 103.736787 266.510223 
L 108.860754 263.819915 
L 113.984721 260.838729 
L 119.108688 257.526852 
L 124.232655 253.840471 
L 129.356622 249.733329 
L 134.480589 245.159864 
L 139.604556 240.080304 
L 144.728523 234.467525 
L 149.85249 228.314131 
L 154.976457 223.442755 
L 160.100424 262.746514 
L 165.22439 265.514802 
L 170.348357 264.777232 
L 175.472324 262.921117 
L 180.596291 260.313995 
L 185.720258 256.922419 
L 190.844225 252.488702 
L 195.968192 246.420757 
L 201.092159 237.289214 
L 206.216126 220.592886 
L 211.340093 173.728071 
L 216.46406 113.745059 
L 221.588027 105.425641 
L 226.711994 98.278365 
L 231.835961 92.219376 
L 236.959928 87.083622 
L 242.083895 82.701624 
L 247.207862 78.928519 
L 252.331829 75.648681 
L 257.455795 72.771952 
L 262.579762 70.22826 
L 267.703729 67.962834 
L 272.827696 65.932437 
L 277.951663 64.102555 
L 283.07563 62.445315 
L 288.199597 60.937954 
L 293.323564 59.561687 
L 298.447531 58.300853 
L 303.571498 57.142283 
L 308.695465 56.074803 
L 313.819432 55.088862 
L 318.943399 54.176239 
L 324.067366 53.329808 
L 329.191333 52.543358 
L 334.3153 51.811441 
L 339.439267 51.129261 
L 344.563233 50.492569 
L 349.6872 49.897588 
L 354.811167 49.340945 
L 359.935134 48.819618 
L 365.059101 48.330888 
L 370.183068 47.872302 
L 375.307035 47.441642 
L 380.431002 47.036891 
L 385.554969 46.656218 
L 390.678936 46.29795 
L 395.802903 45.960556 
L 400.92687 45.642637 
L 406.050837 45.342904 
L 411.174804 45.060174 
L 416.298771 44.793355 
L 421.422738 44.54144 
L 426.546705 44.303498 
L 431.670671 44.078665 
L 436.794638 43.866141 
L 441.918605 43.665183 
L 447.042572 43.475101 
L 452.166539 43.29525 
L 457.290506 43.125031 
L 462.414473 42.963885 
L 467.53844 42.811289 
L 472.662407 42.666756 
L 477.786374 42.529828 
L 482.910341 42.400077 
L 488.034308 42.277103 
L 493.158275 42.160529 
L 498.282242 42.050002 
L 503.406209 41.945192 
L 508.530176 41.845785 
L 513.654143 41.751491 
L 518.77811 41.662032 
L 523.902076 41.577149 
L 529.026043 41.496598 
L 534.15001 41.420148 
L 539.273977 41.347583 
L 544.397944 41.278697 
L 549.521911 41.213298 
L 554.645878 41.151202 
L 559.769845 41.092237 
L 564.893812 41.036241 
L 570.017779 40.983059 
L 575.141746 40.932547 
L 580.265713 40.884566 
L 585.38968 40.838986 
L 590.513647 40.795685 
L 595.637614 40.754545 
" style="fill:none;stroke:#3b4cc0;stroke-linecap:square;stroke-width:1.5;"/>
   </g>
   <g id="line2d_20">
    <path clip-path="url(#pbf85ae7006)" d="M 88.364886 278.111446 
L 93.488853 276.663027 
L 98.61282 275.104283 
L 103.736787 273.425466 
L 108.860754 271.61609 
L 113.984721 269.664991 
L 119.108688 267.560461 
L 124.232655 265.290478 
L 129.356622 262.843056 
L 134.480589 260.206744 
L 139.604556 257.371294 
L 144.728523 254.328482 
L 149.85249 251.073035 
L 154.976457 247.603569 
L 160.100424 243.923354 
L 165.22439 240.040728 
L 170.348357 235.968976 
L 175.472324 231.725587 
L 180.596291 227.33094 
L 185.720258 222.810698 
L 190.844225 249.185528 
L 195.968192 260.048442 
L 201.092159 263.769975 
L 206.216126 264.903255 
L 211.340093 264.821802 
L 216.46406 264.048893 
L 221.588027 262.799351 
L 226.711994 261.157958 
L 231.835961 259.144018 
L 236.959928 256.73464 
L 242.083895 253.869944 
L 247.207862 250.447204 
L 252.331829 246.30291 
L 257.455795 241.176179 
L 262.579762 234.636035 
L 267.703729 225.932175 
L 272.827696 213.680156 
L 277.951663 195.218747 
L 283.07563 165.045478 
L 288.199597 118.008286 
L 293.323564 112.41202 
L 298.447531 107.012872 
L 303.571498 101.879948 
L 308.695465 97.067433 
L 313.819432 92.608262 
L 318.943399 88.513712 
L 324.067366 84.777215 
L 329.191333 81.379955 
L 334.3153 78.296208 
L 339.439267 75.497466 
L 344.563233 72.955155 
L 349.6872 70.642209 
L 354.811167 68.533847 
L 359.935134 66.607834 
L 365.059101 64.844469 
L 370.183068 63.226416 
L 375.307035 61.73847 
L 380.431002 60.367311 
L 385.554969 59.101268 
L 390.678936 57.930095 
L 395.802903 56.844782 
L 400.92687 55.837384 
L 406.050837 54.900873 
L 411.174804 54.029017 
L 416.298771 53.216273 
L 421.422738 52.457692 
L 426.546705 51.748849 
L 431.670671 51.08577 
L 436.794638 50.464877 
L 441.918605 49.882944 
L 447.042572 49.33705 
L 452.166539 48.824546 
L 457.290506 48.343024 
L 462.414473 47.89029 
L 467.53844 47.464338 
L 472.662407 47.063336 
L 477.786374 46.685601 
L 482.910341 46.329588 
L 488.034308 45.993877 
L 493.158275 45.677157 
L 498.282242 45.378219 
L 503.406209 45.095944 
L 508.530176 44.829298 
L 513.654143 44.577319 
L 518.77811 44.339117 
L 523.902076 44.113864 
L 529.026043 43.900789 
L 534.15001 43.699173 
L 539.273977 43.508347 
L 544.397944 43.327687 
L 549.521911 43.156607 
L 554.645878 42.994563 
L 559.769845 42.841042 
L 564.893812 42.695566 
L 570.017779 42.557686 
L 575.141746 42.426981 
L 580.265713 42.303055 
L 585.38968 42.185538 
L 590.513647 42.07408 
L 595.637614 41.968353 
" style="fill:none;stroke:#7b9ff9;stroke-linecap:square;stroke-width:1.5;"/>
   </g>
   <g id="line2d_21">
    <path clip-path="url(#pbf85ae7006)" d="M 88.364886 281.549443 
L 93.488853 280.414446 
L 98.61282 279.204997 
L 103.736787 277.915979 
L 108.860754 276.54204 
L 113.984721 275.077636 
L 119.108688 273.517103 
L 124.232655 271.854745 
L 129.356622 270.084956 
L 134.480589 268.202386 
L 139.604556 266.202133 
L 144.728523 264.079979 
L 149.85249 261.832654 
L 154.976457 259.458113 
L 160.100424 256.955809 
L 165.22439 254.326926 
L 170.348357 251.574548 
L 175.472324 248.703716 
L 180.596291 245.721358 
L 185.720258 242.636075 
L 190.844225 239.457798 
L 195.968192 236.197349 
L 201.092159 232.865942 
L 206.216126 229.474693 
L 211.340093 226.034179 
L 216.46406 222.557414 
L 221.588027 241.098385 
L 226.711994 253.78137 
L 231.835961 259.3302 
L 236.959928 262.171406 
L 242.083895 263.566591 
L 247.207862 264.088827 
L 252.331829 264.036586 
L 257.455795 263.574313 
L 262.579762 262.79451 
L 267.703729 261.748395 
L 272.827696 260.461683 
L 277.951663 258.942909 
L 283.07563 257.187563 
L 288.199597 255.179886 
L 293.323564 252.892883 
L 298.447531 250.287044 
L 303.571498 247.307528 
L 308.695465 243.87906 
L 313.819432 239.898864 
L 318.943399 235.224915 
L 324.067366 229.658731 
L 329.191333 222.917968 
L 334.3153 214.596994 
L 339.439267 204.106701 
L 344.563233 190.574475 
L 349.6872 172.545846 
L 354.811167 145.535584 
L 359.935134 117.780571 
L 365.059101 113.751865 
L 370.183068 109.76457 
L 375.307035 105.841877 
L 380.431002 102.008644 
L 385.554969 98.289457 
L 390.678936 94.706909 
L 395.802903 91.280052 
L 400.92687 88.023303 
L 406.050837 84.945947 
L 411.174804 82.05223 
L 416.298771 79.341917 
L 421.422738 76.811124 
L 426.546705 74.453235 
L 431.670671 72.259779 
L 436.794638 70.221173 
L 441.918605 68.327318 
L 447.042572 66.56804 
L 452.166539 64.933394 
L 457.290506 63.413863 
L 462.414473 62.000479 
L 467.53844 60.68488 
L 472.662407 59.459332 
L 477.786374 58.316717 
L 482.910341 57.250509 
L 488.034308 56.254743 
L 493.158275 55.32397 
L 498.282242 54.453219 
L 503.406209 53.637956 
L 508.530176 52.874043 
L 513.654143 52.157702 
L 518.77811 51.485481 
L 523.902076 50.854225 
L 529.026043 50.261043 
L 534.15001 49.703286 
L 539.273977 49.178524 
L 544.397944 48.684523 
L 549.521911 48.219228 
L 554.645878 47.780745 
L 559.769845 47.367329 
L 564.893812 46.977366 
L 570.017779 46.609365 
L 575.141746 46.261947 
L 580.265713 45.93383 
L 585.38968 45.623829 
L 590.513647 45.330839 
L 595.637614 45.053836 
" style="fill:none;stroke:#c0d4f5;stroke-linecap:square;stroke-width:1.5;"/>
   </g>
   <g id="line2d_22">
    <path clip-path="url(#pbf85ae7006)" d="M 88.364886 284.138091 
L 93.488853 283.207052 
L 98.61282 282.220606 
L 103.736787 281.175523 
L 108.860754 280.068471 
L 113.984721 278.896041 
L 119.108688 277.654787 
L 124.232655 276.341267 
L 129.356622 274.952104 
L 134.480589 273.484052 
L 139.604556 271.934086 
L 144.728523 270.299493 
L 149.85249 268.577986 
L 154.976457 266.767819 
L 160.100424 264.867903 
L 165.22439 262.877927 
L 170.348357 260.798456 
L 175.472324 258.631008 
L 180.596291 256.378097 
L 185.720258 254.043233 
L 190.844225 251.63087 
L 195.968192 249.14631 
L 201.092159 246.595555 
L 206.216126 243.985127 
L 211.340093 241.321865 
L 216.46406 238.612715 
L 221.588027 235.864528 
L 226.711994 233.083884 
L 231.835961 230.276939 
L 236.959928 227.449321 
L 242.083895 224.606281 
L 247.207862 221.772319 
L 252.331829 238.789271 
L 257.455795 250.21312 
L 262.579762 255.83755 
L 267.703729 259.163364 
L 272.827696 261.188543 
L 277.951663 262.377101 
L 283.07563 262.987564 
L 288.199597 263.176723 
L 293.323564 263.044003 
L 298.447531 262.653853 
L 303.571498 262.048194 
L 308.695465 261.253932 
L 313.819432 260.287428 
L 318.943399 259.157251 
L 324.067366 257.866122 
L 329.191333 256.411428 
L 334.3153 254.786227 
L 339.439267 252.979025 
L 344.563233 250.973724 
L 349.6872 248.749097 
L 354.811167 246.277825 
L 359.935134 243.525358 
L 365.059101 240.448132 
L 370.183068 236.991268 
L 375.307035 233.085345 
L 380.431002 228.6422 
L 385.554969 223.549121 
L 390.678936 217.661595 
L 395.802903 210.793 
L 400.92687 202.699603 
L 406.050837 193.054456 
L 411.174804 181.380244 
L 416.298771 166.810495 
L 421.422738 146.676057 
L 426.546705 119.178447 
L 431.670671 116.034843 
L 436.794638 112.90437 
L 441.918605 109.7859 
L 447.042572 106.688127 
L 452.166539 103.621051 
L 457.290506 100.595493 
L 462.414473 97.622769 
L 467.53844 94.714286 
L 472.662407 91.881085 
L 477.786374 89.133384 
L 482.910341 86.480169 
L 488.034308 83.928868 
L 493.158275 81.485148 
L 498.282242 79.152832 
L 503.406209 76.933944 
L 508.530176 74.828847 
L 513.654143 72.836449 
L 518.77811 70.954448 
L 523.902076 69.179583 
L 529.026043 67.507879 
L 534.15001 65.934864 
L 539.273977 64.455757 
L 544.397944 63.065624 
L 549.521911 61.759496 
L 554.645878 60.532466 
L 559.769845 59.379755 
L 564.893812 58.29676 
L 570.017779 57.279087 
L 575.141746 56.322566 
L 580.265713 55.423263 
L 585.38968 54.577481 
L 590.513647 53.781755 
L 595.637614 53.032847 
" style="fill:none;stroke:#f2cbb7;stroke-linecap:square;stroke-width:1.5;"/>
   </g>
   <g id="line2d_23">
    <path clip-path="url(#pbf85ae7006)" d="M 88.364886 286.18136 
L 93.488853 285.395383 
L 98.61282 284.565687 
L 103.736787 283.689996 
L 108.860754 282.765977 
L 113.984721 281.791262 
L 119.108688 280.763465 
L 124.232655 279.680207 
L 129.356622 278.53915 
L 134.480589 277.338033 
L 139.604556 276.074715 
L 144.728523 274.747226 
L 149.85249 273.353823 
L 154.976457 271.89305 
L 160.100424 270.363798 
L 165.22439 268.76537 
L 170.348357 267.097542 
L 175.472324 265.360615 
L 180.596291 263.555457 
L 185.720258 261.683531 
L 190.844225 259.746901 
L 195.968192 257.748222 
L 201.092159 255.690704 
L 206.216126 253.578051 
L 211.340093 251.414382 
L 216.46406 249.204141 
L 221.588027 246.951987 
L 226.711994 244.662691 
L 231.835961 242.341023 
L 236.959928 239.991659 
L 242.083895 237.619089 
L 247.207862 235.227549 
L 252.331829 232.820966 
L 257.455795 230.402918 
L 262.579762 227.976612 
L 267.703729 225.545077 
L 272.827696 223.110274 
L 277.951663 221.105565 
L 283.07563 239.782426 
L 288.199597 248.736556 
L 293.323564 253.730724 
L 298.447531 256.941146 
L 303.571498 259.085678 
L 308.695465 260.513676 
L 313.819432 261.426742 
L 318.943399 261.952601 
L 324.067366 262.17639 
L 329.191333 262.156922 
L 334.3153 261.935429 
L 339.439267 261.541041 
L 344.563233 260.994305 
L 349.6872 260.309707 
L 354.811167 259.496489 
L 359.935134 258.560419 
L 365.059101 257.504212 
L 370.183068 256.327933 
L 375.307035 255.029261 
L 380.431002 253.603823 
L 385.554969 252.045092 
L 390.678936 250.344227 
L 395.802903 248.490196 
L 400.92687 246.469184 
L 406.050837 244.264716 
L 411.174804 241.856504 
L 416.298771 239.22049 
L 421.422738 236.32775 
L 426.546705 233.143515 
L 431.670671 229.626192 
L 436.794638 225.725568 
L 441.918605 221.381157 
L 447.042572 216.519374 
L 452.166539 211.051017 
L 457.290506 204.865535 
L 462.414473 197.824142 
L 467.53844 189.744022 
L 472.662407 180.361735 
L 477.786374 169.229973 
L 482.910341 155.324711 
L 488.034308 133.679888 
L 493.158275 118.75015 
L 498.282242 116.189941 
L 503.406209 113.628651 
L 508.530176 111.068681 
L 513.654143 108.513664 
L 518.77811 105.967769 
L 523.902076 103.435684 
L 529.026043 100.922584 
L 534.15001 98.434068 
L 539.273977 95.976066 
L 544.397944 93.554723 
L 549.521911 91.176258 
L 554.645878 88.846803 
L 559.769845 86.57224 
L 564.893812 84.358037 
L 570.017779 82.209107 
L 575.141746 80.129679 
L 580.265713 78.123218 
L 585.38968 76.192371 
L 590.513647 74.338951 
L 595.637614 72.563964 
" style="fill:none;stroke:#ee8468;stroke-linecap:square;stroke-width:1.5;"/>
   </g>
   <g id="line2d_24">
    <path clip-path="url(#pbf85ae7006)" d="M 88.364886 287.845455 
L 93.488853 287.168746 
L 98.61282 286.456184 
L 103.736787 285.706045 
L 108.860754 284.916571 
L 113.984721 284.085981 
L 119.108688 283.212482 
L 124.232655 282.294288 
L 129.356622 281.329638 
L 134.480589 280.316815 
L 139.604556 279.254178 
L 144.728523 278.140185 
L 149.85249 276.973431 
L 154.976457 275.752679 
L 160.100424 274.476898 
L 165.22439 273.145301 
L 170.348357 271.757385 
L 175.472324 270.312963 
L 180.596291 268.812201 
L 185.720258 267.255636 
L 190.844225 265.644204 
L 195.968192 263.97924 
L 201.092159 262.26248 
L 206.216126 260.496045 
L 211.340093 258.682412 
L 216.46406 256.824378 
L 221.588027 254.925008 
L 226.711994 252.987581 
L 231.835961 251.015526 
L 236.959928 249.012357 
L 242.083895 246.981612 
L 247.207862 244.926789 
L 252.331829 242.851296 
L 257.455795 240.7584 
L 262.579762 238.651191 
L 267.703729 236.532552 
L 272.827696 234.40514 
L 277.951663 232.271371 
L 283.07563 230.133413 
L 288.199597 227.993193 
L 293.323564 225.852399 
L 298.447531 223.712819 
L 303.571498 221.579028 
L 308.695465 226.209357 
L 313.819432 241.823758 
L 318.943399 248.486073 
L 324.067366 252.644718 
L 329.191333 255.495194 
L 334.3153 257.512751 
L 339.439267 258.946531 
L 344.563233 259.946696 
L 349.6872 260.611596 
L 354.811167 261.00907 
L 359.935134 261.187646 
L 365.059101 261.18269 
L 370.183068 261.020483 
L 375.307035 260.720523 
L 380.431002 260.297434 
L 385.554969 259.761899 
L 390.678936 259.121711 
L 395.802903 258.382381 
L 400.92687 257.547228 
L 406.050837 256.61806 
L 411.174804 255.595255 
L 416.298771 254.477839 
L 421.422738 253.26356 
L 426.546705 251.949162 
L 431.670671 250.530069 
L 436.794638 249.000572 
L 441.918605 247.353672 
L 447.042572 245.581033 
L 452.166539 243.672746 
L 457.290506 241.617235 
L 462.414473 239.401088 
L 467.53844 237.008539 
L 472.662407 234.421471 
L 477.786374 231.618766 
L 482.910341 228.57596 
L 488.034308 225.264532 
L 493.158275 221.651194 
L 498.282242 217.69727 
L 503.406209 213.357012 
L 508.530176 208.576434 
L 513.654143 203.290828 
L 518.77811 197.420509 
L 523.902076 190.864061 
L 529.026043 183.483618 
L 534.15001 175.072081 
L 539.273977 165.264746 
L 544.397944 153.23165 
L 549.521911 135.472345 
L 554.645878 119.559274 
L 559.769845 117.390793 
L 564.893812 115.224244 
L 570.017779 113.055619 
L 575.141746 110.886803 
L 580.265713 108.719297 
L 585.38968 106.555125 
L 590.513647 104.396578 
L 595.637614 102.246213 
" style="fill:none;stroke:#b40426;stroke-linecap:square;stroke-width:1.5;"/>
   </g>
   <g id="line2d_25">
    <path clip-path="url(#pbf85ae7006)" d="M 88.364886 282.926335 
L 93.488853 281.902857 
L 98.61282 280.815736 
L 103.736787 279.660972 
L 108.860754 278.43442 
L 113.984721 277.131817 
L 119.108688 275.748834 
L 124.232655 274.281139 
L 129.356622 272.724475 
L 134.480589 271.074769 
L 139.604556 269.328253 
L 144.728523 267.481613 
L 149.85249 265.532148 
L 154.976457 263.477948 
L 160.100424 261.318069 
L 165.22439 259.052697 
L 170.348357 256.683275 
L 175.472324 254.212595 
L 180.596291 251.644807 
L 185.720258 248.985366 
L 190.844225 246.240889 
L 195.968192 243.418944 
L 201.092159 240.527774 
L 206.216126 237.575994 
L 211.340093 234.572276 
L 216.46406 231.52506 
L 221.588027 228.442303 
L 226.711994 225.331473 
L 231.835961 222.205313 
L 236.959928 239.352337 
L 242.083895 251.678575 
L 247.207862 257.399934 
L 252.331829 260.591557 
L 257.455795 262.387966 
L 262.579762 263.311224 
L 267.703729 263.645447 
L 272.827696 263.556861 
L 277.951663 263.146139 
L 283.07563 262.474954 
L 288.199597 261.580516 
L 293.323564 260.483819 
L 298.447531 259.194426 
L 303.571498 257.713134 
L 308.695465 256.033469 
L 313.819432 254.142015 
L 318.943399 252.018467 
L 324.067366 249.634678 
L 329.191333 246.953162 
L 334.3153 243.924908 
L 339.439267 240.485936 
L 344.563233 236.552528 
L 349.6872 232.014265 
L 354.811167 226.724602 
L 359.935134 220.48716 
L 365.059101 213.036873 
L 370.183068 204.013945 
L 375.307035 192.916343 
L 380.431002 178.981896 
L 385.554969 160.631671 
L 390.678936 127.759142 
L 395.802903 117.023541 
L 400.92687 113.499711 
L 406.050837 109.99729 
L 411.174804 106.530089 
L 416.298771 103.113633 
L 421.422738 99.764232 
L 426.546705 96.498219 
L 431.670671 93.331099 
L 436.794638 90.276734 
L 441.918605 87.346662 
L 447.042572 84.549645 
L 452.166539 81.89148 
L 457.290506 79.375066 
L 462.414473 77.000659 
L 467.53844 74.766278 
L 472.662407 72.668146 
L 477.786374 70.701157 
L 482.910341 68.859284 
L 488.034308 67.135941 
L 493.158275 65.524264 
L 498.282242 64.017339 
L 503.406209 62.608363 
L 508.530176 61.290755 
L 513.654143 60.058232 
L 518.77811 58.904855 
L 523.902076 57.825047 
L 529.026043 56.813603 
L 534.15001 55.865683 
L 539.273977 54.976799 
L 544.397944 54.1428 
L 549.521911 53.359848 
L 554.645878 52.624402 
L 559.769845 51.933193 
L 564.893812 51.283207 
L 570.017779 50.67166 
L 575.141746 50.095983 
L 580.265713 49.553804 
L 585.38968 49.042931 
L 590.513647 48.561334 
L 595.637614 48.107138 
" style="fill:none;stroke:#000000;stroke-linecap:square;stroke-width:1.5;"/>
   </g>
   <g id="patch_3">
    <path d="M 63.00125 300.2 
L 63.00125 28.4 
" style="fill:none;stroke:#000000;stroke-linecap:square;stroke-linejoin:miter;stroke-width:0.8;"/>
   </g>
   <g id="patch_4">
    <path d="M 621.00125 300.2 
L 621.00125 28.4 
" style="fill:none;stroke:#000000;stroke-linecap:square;stroke-linejoin:miter;stroke-width:0.8;"/>
   </g>
   <g id="patch_5">
    <path d="M 63.00125 300.2 
L 621.00125 300.2 
" style="fill:none;stroke:#000000;stroke-linecap:square;stroke-linejoin:miter;stroke-width:0.8;"/>
   </g>
   <g id="patch_6">
    <path d="M 63.00125 28.4 
L 621.00125 28.4 
" style="fill:none;stroke:#000000;stroke-linecap:square;stroke-linejoin:miter;stroke-width:0.8;"/>
   </g>
   <g id="text_14">
    <!-- $R_i$ only -->
    <defs>
     <path d="M 25.203125 64.796875 
L 20.21875 38.921875 
L 32.90625 38.921875 
Q 40.375 38.921875 44.984375 43.046875 
Q 49.609375 47.171875 49.609375 53.8125 
Q 49.609375 59.125 46.5 61.953125 
Q 43.40625 64.796875 37.59375 64.796875 
z
M 43.3125 35.015625 
Q 46.4375 34.28125 48.515625 31.390625 
Q 50.59375 28.515625 53.328125 19.921875 
L 59.515625 0 
L 49.125 0 
L 43.40625 18.703125 
Q 41.21875 25.921875 38.328125 28.359375 
Q 35.453125 30.8125 29.5 30.8125 
L 18.609375 30.8125 
L 12.59375 0 
L 2.6875 0 
L 16.890625 72.90625 
L 39.109375 72.90625 
Q 49.21875 72.90625 54.609375 68.328125 
Q 60.015625 63.765625 60.015625 55.171875 
Q 60.015625 47.5625 55.421875 41.984375 
Q 50.828125 36.421875 43.3125 35.015625 
z
" id="DejaVuSans-Oblique-82"/>
     <path d="M 18.3125 75.984375 
L 27.296875 75.984375 
L 25.09375 64.59375 
L 16.109375 64.59375 
z
M 14.203125 54.6875 
L 23.1875 54.6875 
L 12.5 0 
L 3.515625 0 
z
" id="DejaVuSans-Oblique-105"/>
     <path d="M 30.609375 48.390625 
Q 23.390625 48.390625 19.1875 42.75 
Q 14.984375 37.109375 14.984375 27.296875 
Q 14.984375 17.484375 19.15625 11.84375 
Q 23.34375 6.203125 30.609375 6.203125 
Q 37.796875 6.203125 41.984375 11.859375 
Q 46.1875 17.53125 46.1875 27.296875 
Q 46.1875 37.015625 41.984375 42.703125 
Q 37.796875 48.390625 30.609375 48.390625 
z
M 30.609375 56 
Q 42.328125 56 49.015625 48.375 
Q 55.71875 40.765625 55.71875 27.296875 
Q 55.71875 13.875 49.015625 6.21875 
Q 42.328125 -1.421875 30.609375 -1.421875 
Q 18.84375 -1.421875 12.171875 6.21875 
Q 5.515625 13.875 5.515625 27.296875 
Q 5.515625 40.765625 12.171875 48.375 
Q 18.84375 56 30.609375 56 
z
" id="DejaVuSans-111"/>
     <path d="M 54.890625 33.015625 
L 54.890625 0 
L 45.90625 0 
L 45.90625 32.71875 
Q 45.90625 40.484375 42.875 44.328125 
Q 39.84375 48.1875 33.796875 48.1875 
Q 26.515625 48.1875 22.3125 43.546875 
Q 18.109375 38.921875 18.109375 30.90625 
L 18.109375 0 
L 9.078125 0 
L 9.078125 54.6875 
L 18.109375 54.6875 
L 18.109375 46.1875 
Q 21.34375 51.125 25.703125 53.5625 
Q 30.078125 56 35.796875 56 
Q 45.21875 56 50.046875 50.171875 
Q 54.890625 44.34375 54.890625 33.015625 
z
" id="DejaVuSans-110"/>
     <path d="M 9.421875 75.984375 
L 18.40625 75.984375 
L 18.40625 0 
L 9.421875 0 
z
" id="DejaVuSans-108"/>
     <path d="M 32.171875 -5.078125 
Q 28.375 -14.84375 24.75 -17.8125 
Q 21.140625 -20.796875 15.09375 -20.796875 
L 7.90625 -20.796875 
L 7.90625 -13.28125 
L 13.1875 -13.28125 
Q 16.890625 -13.28125 18.9375 -11.515625 
Q 21 -9.765625 23.484375 -3.21875 
L 25.09375 0.875 
L 2.984375 54.6875 
L 12.5 54.6875 
L 29.59375 11.921875 
L 46.6875 54.6875 
L 56.203125 54.6875 
z
" id="DejaVuSans-121"/>
    </defs>
    <g transform="translate(308.50125 22.4)scale(0.2 -0.2)">
     <use transform="translate(0 0.015625)" xlink:href="#DejaVuSans-Oblique-82"/>
     <use transform="translate(69.482422 -16.390625)scale(0.7)" xlink:href="#DejaVuSans-Oblique-105"/>
     <use transform="translate(91.665039 0.015625)" xlink:href="#DejaVuSans-32"/>
     <use transform="translate(123.452148 0.015625)" xlink:href="#DejaVuSans-111"/>
     <use transform="translate(184.633789 0.015625)" xlink:href="#DejaVuSans-110"/>
     <use transform="translate(248.012695 0.015625)" xlink:href="#DejaVuSans-108"/>
     <use transform="translate(275.795898 0.015625)" xlink:href="#DejaVuSans-121"/>
    </g>
   </g>
  </g>
 </g>
 <defs>
  <clipPath id="pbf85ae7006">
   <rect height="271.8" width="558" x="63.00125" y="28.4"/>
  </clipPath>
 </defs>
</svg>
