<?xml version="1.0" encoding="utf-8" standalone="no"?>
<!DOCTYPE svg PUBLIC "-//W3C//DTD SVG 1.1//EN"
  "http://www.w3.org/Graphics/SVG/1.1/DTD/svg11.dtd">
<!-- Created with matplotlib (https://matplotlib.org/) -->
<svg height="332.085pt" version="1.1" viewBox="0 0 628.20125 332.085" width="628.20125pt" xmlns="http://www.w3.org/2000/svg" xmlns:xlink="http://www.w3.org/1999/xlink">
 <defs>
  <style type="text/css">
*{stroke-linecap:butt;stroke-linejoin:round;}
  </style>
 </defs>
 <g id="figure_1">
  <g id="patch_1">
   <path d="M 0 332.085 
L 628.20125 332.085 
L 628.20125 0 
L 0 0 
z
" style="fill:none;"/>
  </g>
  <g id="axes_1">
   <g id="patch_2">
    <path d="M 63.00125 279 
L 621.00125 279 
L 621.00125 7.2 
L 63.00125 7.2 
z
" style="fill:#ffffff;"/>
   </g>
   <g id="matplotlib.axis_1">
    <g id="xtick_1">
     <g id="line2d_1">
      <defs>
       <path d="M 0 0 
L 0 3.5 
" id="ma36259625d" style="stroke:#000000;stroke-width:0.8;"/>
      </defs>
      <g>
       <use style="stroke:#000000;stroke-width:0.8;" x="89.120008" xlink:href="#ma36259625d" y="279"/>
      </g>
     </g>
     <g id="text_1">
      <!-- 0 -->
      <defs>
       <path d="M 31.78125 66.40625 
Q 24.171875 66.40625 20.328125 58.90625 
Q 16.5 51.421875 16.5 36.375 
Q 16.5 21.390625 20.328125 13.890625 
Q 24.171875 6.390625 31.78125 6.390625 
Q 39.453125 6.390625 43.28125 13.890625 
Q 47.125 21.390625 47.125 36.375 
Q 47.125 51.421875 43.28125 58.90625 
Q 39.453125 66.40625 31.78125 66.40625 
z
M 31.78125 74.21875 
Q 44.046875 74.21875 50.515625 64.515625 
Q 56.984375 54.828125 56.984375 36.375 
Q 56.984375 17.96875 50.515625 8.265625 
Q 44.046875 -1.421875 31.78125 -1.421875 
Q 19.53125 -1.421875 13.0625 8.265625 
Q 6.59375 17.96875 6.59375 36.375 
Q 6.59375 54.828125 13.0625 64.515625 
Q 19.53125 74.21875 31.78125 74.21875 
z
" id="DejaVuSans-48"/>
      </defs>
      <g transform="translate(84.030008 298.1575)scale(0.16 -0.16)">
       <use xlink:href="#DejaVuSans-48"/>
      </g>
     </g>
    </g>
    <g id="xtick_2">
     <g id="line2d_2">
      <g>
       <use style="stroke:#000000;stroke-width:0.8;" x="191.446797" xlink:href="#ma36259625d" y="279"/>
      </g>
     </g>
     <g id="text_2">
      <!-- 1 -->
      <defs>
       <path d="M 12.40625 8.296875 
L 28.515625 8.296875 
L 28.515625 63.921875 
L 10.984375 60.40625 
L 10.984375 69.390625 
L 28.421875 72.90625 
L 38.28125 72.90625 
L 38.28125 8.296875 
L 54.390625 8.296875 
L 54.390625 0 
L 12.40625 0 
z
" id="DejaVuSans-49"/>
      </defs>
      <g transform="translate(186.356797 298.1575)scale(0.16 -0.16)">
       <use xlink:href="#DejaVuSans-49"/>
      </g>
     </g>
    </g>
    <g id="xtick_3">
     <g id="line2d_3">
      <g>
       <use style="stroke:#000000;stroke-width:0.8;" x="293.773586" xlink:href="#ma36259625d" y="279"/>
      </g>
     </g>
     <g id="text_3">
      <!-- 2 -->
      <defs>
       <path d="M 19.1875 8.296875 
L 53.609375 8.296875 
L 53.609375 0 
L 7.328125 0 
L 7.328125 8.296875 
Q 12.9375 14.109375 22.625 23.890625 
Q 32.328125 33.6875 34.8125 36.53125 
Q 39.546875 41.84375 41.421875 45.53125 
Q 43.3125 49.21875 43.3125 52.78125 
Q 43.3125 58.59375 39.234375 62.25 
Q 35.15625 65.921875 28.609375 65.921875 
Q 23.96875 65.921875 18.8125 64.3125 
Q 13.671875 62.703125 7.8125 59.421875 
L 7.8125 69.390625 
Q 13.765625 71.78125 18.9375 73 
Q 24.125 74.21875 28.421875 74.21875 
Q 39.75 74.21875 46.484375 68.546875 
Q 53.21875 62.890625 53.21875 53.421875 
Q 53.21875 48.921875 51.53125 44.890625 
Q 49.859375 40.875 45.40625 35.40625 
Q 44.1875 33.984375 37.640625 27.21875 
Q 31.109375 20.453125 19.1875 8.296875 
z
" id="DejaVuSans-50"/>
      </defs>
      <g transform="translate(288.683586 298.1575)scale(0.16 -0.16)">
       <use xlink:href="#DejaVuSans-50"/>
      </g>
     </g>
    </g>
    <g id="xtick_4">
     <g id="line2d_4">
      <g>
       <use style="stroke:#000000;stroke-width:0.8;" x="396.100375" xlink:href="#ma36259625d" y="279"/>
      </g>
     </g>
     <g id="text_4">
      <!-- 3 -->
      <defs>
       <path d="M 40.578125 39.3125 
Q 47.65625 37.796875 51.625 33 
Q 55.609375 28.21875 55.609375 21.1875 
Q 55.609375 10.40625 48.1875 4.484375 
Q 40.765625 -1.421875 27.09375 -1.421875 
Q 22.515625 -1.421875 17.65625 -0.515625 
Q 12.796875 0.390625 7.625 2.203125 
L 7.625 11.71875 
Q 11.71875 9.328125 16.59375 8.109375 
Q 21.484375 6.890625 26.8125 6.890625 
Q 36.078125 6.890625 40.9375 10.546875 
Q 45.796875 14.203125 45.796875 21.1875 
Q 45.796875 27.640625 41.28125 31.265625 
Q 36.765625 34.90625 28.71875 34.90625 
L 20.21875 34.90625 
L 20.21875 43.015625 
L 29.109375 43.015625 
Q 36.375 43.015625 40.234375 45.921875 
Q 44.09375 48.828125 44.09375 54.296875 
Q 44.09375 59.90625 40.109375 62.90625 
Q 36.140625 65.921875 28.71875 65.921875 
Q 24.65625 65.921875 20.015625 65.03125 
Q 15.375 64.15625 9.8125 62.3125 
L 9.8125 71.09375 
Q 15.4375 72.65625 20.34375 73.4375 
Q 25.25 74.21875 29.59375 74.21875 
Q 40.828125 74.21875 47.359375 69.109375 
Q 53.90625 64.015625 53.90625 55.328125 
Q 53.90625 49.265625 50.4375 45.09375 
Q 46.96875 40.921875 40.578125 39.3125 
z
" id="DejaVuSans-51"/>
      </defs>
      <g transform="translate(391.010375 298.1575)scale(0.16 -0.16)">
       <use xlink:href="#DejaVuSans-51"/>
      </g>
     </g>
    </g>
    <g id="xtick_5">
     <g id="line2d_5">
      <g>
       <use style="stroke:#000000;stroke-width:0.8;" x="498.427164" xlink:href="#ma36259625d" y="279"/>
      </g>
     </g>
     <g id="text_5">
      <!-- 4 -->
      <defs>
       <path d="M 37.796875 64.3125 
L 12.890625 25.390625 
L 37.796875 25.390625 
z
M 35.203125 72.90625 
L 47.609375 72.90625 
L 47.609375 25.390625 
L 58.015625 25.390625 
L 58.015625 17.1875 
L 47.609375 17.1875 
L 47.609375 0 
L 37.796875 0 
L 37.796875 17.1875 
L 4.890625 17.1875 
L 4.890625 26.703125 
z
" id="DejaVuSans-52"/>
      </defs>
      <g transform="translate(493.337164 298.1575)scale(0.16 -0.16)">
       <use xlink:href="#DejaVuSans-52"/>
      </g>
     </g>
    </g>
    <g id="xtick_6">
     <g id="line2d_6">
      <g>
       <use style="stroke:#000000;stroke-width:0.8;" x="600.753953" xlink:href="#ma36259625d" y="279"/>
      </g>
     </g>
     <g id="text_6">
      <!-- 5 -->
      <defs>
       <path d="M 10.796875 72.90625 
L 49.515625 72.90625 
L 49.515625 64.59375 
L 19.828125 64.59375 
L 19.828125 46.734375 
Q 21.96875 47.46875 24.109375 47.828125 
Q 26.265625 48.1875 28.421875 48.1875 
Q 40.625 48.1875 47.75 41.5 
Q 54.890625 34.8125 54.890625 23.390625 
Q 54.890625 11.625 47.5625 5.09375 
Q 40.234375 -1.421875 26.90625 -1.421875 
Q 22.3125 -1.421875 17.546875 -0.640625 
Q 12.796875 0.140625 7.71875 1.703125 
L 7.71875 11.625 
Q 12.109375 9.234375 16.796875 8.0625 
Q 21.484375 6.890625 26.703125 6.890625 
Q 35.15625 6.890625 40.078125 11.328125 
Q 45.015625 15.765625 45.015625 23.390625 
Q 45.015625 31 40.078125 35.4375 
Q 35.15625 39.890625 26.703125 39.890625 
Q 22.75 39.890625 18.8125 39.015625 
Q 14.890625 38.140625 10.796875 36.28125 
z
" id="DejaVuSans-53"/>
      </defs>
      <g transform="translate(595.663953 298.1575)scale(0.16 -0.16)">
       <use xlink:href="#DejaVuSans-53"/>
      </g>
     </g>
    </g>
    <g id="text_7">
     <!-- $J_e$ (mV) -->
     <defs>
      <path d="M 16.703125 72.90625 
L 26.609375 72.90625 
L 13.375 5.078125 
Q 10.796875 -8.15625 4.65625 -14.078125 
Q -1.46875 -20.015625 -12.5 -20.015625 
L -16.40625 -20.015625 
L -14.796875 -11.71875 
L -11.71875 -11.71875 
Q -5.125 -11.71875 -1.703125 -7.953125 
Q 1.703125 -4.203125 3.515625 5.078125 
z
" id="DejaVuSans-Oblique-74"/>
      <path d="M 48.09375 32.234375 
Q 48.25 33.015625 48.3125 33.84375 
Q 48.390625 34.671875 48.390625 35.5 
Q 48.390625 41.453125 44.890625 44.921875 
Q 41.40625 48.390625 35.40625 48.390625 
Q 28.71875 48.390625 23.578125 44.15625 
Q 18.453125 39.9375 15.828125 32.171875 
z
M 55.90625 25.203125 
L 14.109375 25.203125 
Q 13.8125 23.34375 13.71875 22.265625 
Q 13.625 21.1875 13.625 20.40625 
Q 13.625 13.625 17.796875 9.90625 
Q 21.96875 6.203125 29.59375 6.203125 
Q 35.453125 6.203125 40.671875 7.515625 
Q 45.90625 8.84375 50.390625 11.375 
L 48.6875 2.484375 
Q 43.84375 0.53125 38.6875 -0.4375 
Q 33.546875 -1.421875 28.21875 -1.421875 
Q 16.84375 -1.421875 10.71875 4.015625 
Q 4.59375 9.46875 4.59375 19.484375 
Q 4.59375 28.03125 7.640625 35.375 
Q 10.6875 42.71875 16.609375 48.484375 
Q 20.40625 52.09375 25.65625 54.046875 
Q 30.90625 56 36.8125 56 
Q 46.09375 56 51.578125 50.4375 
Q 57.078125 44.875 57.078125 35.5 
Q 57.078125 33.25 56.78125 30.6875 
Q 56.5 28.125 55.90625 25.203125 
z
" id="DejaVuSans-Oblique-101"/>
      <path id="DejaVuSans-32"/>
      <path d="M 31 75.875 
Q 24.46875 64.65625 21.28125 53.65625 
Q 18.109375 42.671875 18.109375 31.390625 
Q 18.109375 20.125 21.3125 9.0625 
Q 24.515625 -2 31 -13.1875 
L 23.1875 -13.1875 
Q 15.875 -1.703125 12.234375 9.375 
Q 8.59375 20.453125 8.59375 31.390625 
Q 8.59375 42.28125 12.203125 53.3125 
Q 15.828125 64.359375 23.1875 75.875 
z
" id="DejaVuSans-40"/>
      <path d="M 52 44.1875 
Q 55.375 50.25 60.0625 53.125 
Q 64.75 56 71.09375 56 
Q 79.640625 56 84.28125 50.015625 
Q 88.921875 44.046875 88.921875 33.015625 
L 88.921875 0 
L 79.890625 0 
L 79.890625 32.71875 
Q 79.890625 40.578125 77.09375 44.375 
Q 74.3125 48.1875 68.609375 48.1875 
Q 61.625 48.1875 57.5625 43.546875 
Q 53.515625 38.921875 53.515625 30.90625 
L 53.515625 0 
L 44.484375 0 
L 44.484375 32.71875 
Q 44.484375 40.625 41.703125 44.40625 
Q 38.921875 48.1875 33.109375 48.1875 
Q 26.21875 48.1875 22.15625 43.53125 
Q 18.109375 38.875 18.109375 30.90625 
L 18.109375 0 
L 9.078125 0 
L 9.078125 54.6875 
L 18.109375 54.6875 
L 18.109375 46.1875 
Q 21.1875 51.21875 25.484375 53.609375 
Q 29.78125 56 35.6875 56 
Q 41.65625 56 45.828125 52.96875 
Q 50 49.953125 52 44.1875 
z
" id="DejaVuSans-109"/>
      <path d="M 28.609375 0 
L 0.78125 72.90625 
L 11.078125 72.90625 
L 34.1875 11.53125 
L 57.328125 72.90625 
L 67.578125 72.90625 
L 39.796875 0 
z
" id="DejaVuSans-86"/>
      <path d="M 8.015625 75.875 
L 15.828125 75.875 
Q 23.140625 64.359375 26.78125 53.3125 
Q 30.421875 42.28125 30.421875 31.390625 
Q 30.421875 20.453125 26.78125 9.375 
Q 23.140625 -1.703125 15.828125 -13.1875 
L 8.015625 -13.1875 
Q 14.5 -2 17.703125 9.0625 
Q 20.90625 20.125 20.90625 31.390625 
Q 20.90625 42.671875 17.703125 53.65625 
Q 14.5 64.65625 8.015625 75.875 
z
" id="DejaVuSans-41"/>
     </defs>
     <g transform="translate(306.90125 320.685)scale(0.2 -0.2)">
      <use transform="translate(0 0.125)" xlink:href="#DejaVuSans-Oblique-74"/>
      <use transform="translate(29.492188 -16.28125)scale(0.7)" xlink:href="#DejaVuSans-Oblique-101"/>
      <use transform="translate(75.292969 0.125)" xlink:href="#DejaVuSans-32"/>
      <use transform="translate(107.080078 0.125)" xlink:href="#DejaVuSans-40"/>
      <use transform="translate(146.09375 0.125)" xlink:href="#DejaVuSans-109"/>
      <use transform="translate(243.505859 0.125)" xlink:href="#DejaVuSans-86"/>
      <use transform="translate(311.914062 0.125)" xlink:href="#DejaVuSans-41"/>
     </g>
    </g>
   </g>
   <g id="matplotlib.axis_2">
    <g id="ytick_1">
     <g id="line2d_7">
      <defs>
       <path d="M 0 0 
L -3.5 0 
" id="m407ab2c4ef" style="stroke:#000000;stroke-width:0.8;"/>
      </defs>
      <g>
       <use style="stroke:#000000;stroke-width:0.8;" x="63.00125" xlink:href="#m407ab2c4ef" y="266.645455"/>
      </g>
     </g>
     <g id="text_8">
      <!-- 0.0 -->
      <defs>
       <path d="M 10.6875 12.40625 
L 21 12.40625 
L 21 0 
L 10.6875 0 
z
" id="DejaVuSans-46"/>
      </defs>
      <g transform="translate(30.55625 272.724205)scale(0.16 -0.16)">
       <use xlink:href="#DejaVuSans-48"/>
       <use x="63.623047" xlink:href="#DejaVuSans-46"/>
       <use x="95.410156" xlink:href="#DejaVuSans-48"/>
      </g>
     </g>
    </g>
    <g id="ytick_2">
     <g id="line2d_8">
      <g>
       <use style="stroke:#000000;stroke-width:0.8;" x="63.00125" xlink:href="#m407ab2c4ef" y="216.681739"/>
      </g>
     </g>
     <g id="text_9">
      <!-- 0.1 -->
      <g transform="translate(30.55625 222.760489)scale(0.16 -0.16)">
       <use xlink:href="#DejaVuSans-48"/>
       <use x="63.623047" xlink:href="#DejaVuSans-46"/>
       <use x="95.410156" xlink:href="#DejaVuSans-49"/>
      </g>
     </g>
    </g>
    <g id="ytick_3">
     <g id="line2d_9">
      <g>
       <use style="stroke:#000000;stroke-width:0.8;" x="63.00125" xlink:href="#m407ab2c4ef" y="166.718023"/>
      </g>
     </g>
     <g id="text_10">
      <!-- 0.2 -->
      <g transform="translate(30.55625 172.796773)scale(0.16 -0.16)">
       <use xlink:href="#DejaVuSans-48"/>
       <use x="63.623047" xlink:href="#DejaVuSans-46"/>
       <use x="95.410156" xlink:href="#DejaVuSans-50"/>
      </g>
     </g>
    </g>
    <g id="ytick_4">
     <g id="line2d_10">
      <g>
       <use style="stroke:#000000;stroke-width:0.8;" x="63.00125" xlink:href="#m407ab2c4ef" y="116.754307"/>
      </g>
     </g>
     <g id="text_11">
      <!-- 0.3 -->
      <g transform="translate(30.55625 122.833057)scale(0.16 -0.16)">
       <use xlink:href="#DejaVuSans-48"/>
       <use x="63.623047" xlink:href="#DejaVuSans-46"/>
       <use x="95.410156" xlink:href="#DejaVuSans-51"/>
      </g>
     </g>
    </g>
    <g id="ytick_5">
     <g id="line2d_11">
      <g>
       <use style="stroke:#000000;stroke-width:0.8;" x="63.00125" xlink:href="#m407ab2c4ef" y="66.790591"/>
      </g>
     </g>
     <g id="text_12">
      <!-- 0.4 -->
      <g transform="translate(30.55625 72.869341)scale(0.16 -0.16)">
       <use xlink:href="#DejaVuSans-48"/>
       <use x="63.623047" xlink:href="#DejaVuSans-46"/>
       <use x="95.410156" xlink:href="#DejaVuSans-52"/>
      </g>
     </g>
    </g>
    <g id="ytick_6">
     <g id="line2d_12">
      <g>
       <use style="stroke:#000000;stroke-width:0.8;" x="63.00125" xlink:href="#m407ab2c4ef" y="16.826875"/>
      </g>
     </g>
     <g id="text_13">
      <!-- 0.5 -->
      <g transform="translate(30.55625 22.905625)scale(0.16 -0.16)">
       <use xlink:href="#DejaVuSans-48"/>
       <use x="63.623047" xlink:href="#DejaVuSans-46"/>
       <use x="95.410156" xlink:href="#DejaVuSans-53"/>
      </g>
     </g>
    </g>
    <g id="text_14">
     <!-- $E$ (au) -->
     <defs>
      <path d="M 16.890625 72.90625 
L 62.984375 72.90625 
L 61.375 64.59375 
L 25.09375 64.59375 
L 20.90625 43.015625 
L 55.71875 43.015625 
L 54.109375 34.71875 
L 19.28125 34.71875 
L 14.203125 8.296875 
L 51.3125 8.296875 
L 49.703125 0 
L 2.6875 0 
z
" id="DejaVuSans-Oblique-69"/>
      <path d="M 34.28125 27.484375 
Q 23.390625 27.484375 19.1875 25 
Q 14.984375 22.515625 14.984375 16.5 
Q 14.984375 11.71875 18.140625 8.90625 
Q 21.296875 6.109375 26.703125 6.109375 
Q 34.1875 6.109375 38.703125 11.40625 
Q 43.21875 16.703125 43.21875 25.484375 
L 43.21875 27.484375 
z
M 52.203125 31.203125 
L 52.203125 0 
L 43.21875 0 
L 43.21875 8.296875 
Q 40.140625 3.328125 35.546875 0.953125 
Q 30.953125 -1.421875 24.3125 -1.421875 
Q 15.921875 -1.421875 10.953125 3.296875 
Q 6 8.015625 6 15.921875 
Q 6 25.140625 12.171875 29.828125 
Q 18.359375 34.515625 30.609375 34.515625 
L 43.21875 34.515625 
L 43.21875 35.40625 
Q 43.21875 41.609375 39.140625 45 
Q 35.0625 48.390625 27.6875 48.390625 
Q 23 48.390625 18.546875 47.265625 
Q 14.109375 46.140625 10.015625 43.890625 
L 10.015625 52.203125 
Q 14.9375 54.109375 19.578125 55.046875 
Q 24.21875 56 28.609375 56 
Q 40.484375 56 46.34375 49.84375 
Q 52.203125 43.703125 52.203125 31.203125 
z
" id="DejaVuSans-97"/>
      <path d="M 8.5 21.578125 
L 8.5 54.6875 
L 17.484375 54.6875 
L 17.484375 21.921875 
Q 17.484375 14.15625 20.5 10.265625 
Q 23.53125 6.390625 29.59375 6.390625 
Q 36.859375 6.390625 41.078125 11.03125 
Q 45.3125 15.671875 45.3125 23.6875 
L 45.3125 54.6875 
L 54.296875 54.6875 
L 54.296875 0 
L 45.3125 0 
L 45.3125 8.40625 
Q 42.046875 3.421875 37.71875 1 
Q 33.40625 -1.421875 27.6875 -1.421875 
Q 18.265625 -1.421875 13.375 4.4375 
Q 8.5 10.296875 8.5 21.578125 
z
M 31.109375 56 
z
" id="DejaVuSans-117"/>
     </defs>
     <g transform="translate(22.396875 172.9)rotate(-90)scale(0.2 -0.2)">
      <use transform="translate(0 0.125)" xlink:href="#DejaVuSans-Oblique-69"/>
      <use transform="translate(63.183594 0.125)" xlink:href="#DejaVuSans-32"/>
      <use transform="translate(94.970703 0.125)" xlink:href="#DejaVuSans-40"/>
      <use transform="translate(133.984375 0.125)" xlink:href="#DejaVuSans-97"/>
      <use transform="translate(195.263672 0.125)" xlink:href="#DejaVuSans-117"/>
      <use transform="translate(258.642578 0.125)" xlink:href="#DejaVuSans-41"/>
     </g>
    </g>
   </g>
   <g id="line2d_13">
    <path clip-path="url(#p1c02081614)" d="M 89.120008 214.548874 
L 94.236348 211.843993 
L 99.352687 209.072758 
L 104.469026 206.243428 
L 109.585366 203.364314 
L 114.701705 200.443507 
L 119.818045 197.488633 
L 124.934384 194.506502 
L 130.050724 191.496874 
L 135.167063 166.476307 
L 140.283403 142.667049 
L 145.399742 126.256505 
L 150.516082 113.511927 
L 155.632421 103.323621 
L 160.74876 95.054666 
L 165.8651 88.256431 
L 170.981439 82.596798 
L 176.097779 77.828322 
L 181.214118 73.766284 
L 186.330458 70.271963 
L 191.446797 67.241377 
L 196.563137 64.595393 
L 201.679476 62.273849 
L 206.795815 60.230862 
L 211.912155 58.431875 
L 217.028494 56.851217 
L 222.144834 55.47097 
L 227.261173 54.280121 
L 232.377513 53.274721 
L 237.493852 52.458402 
L 242.610192 51.844095 
L 247.726531 51.457297 
L 252.842871 51.341315 
L 257.95921 51.567221 
L 263.075549 52.250792 
L 268.191889 53.584755 
L 273.308228 55.905844 
L 278.424568 59.859744 
L 283.540907 67.012166 
L 288.657247 87.364945 
L 293.773586 90.69125 
L 298.889926 87.314244 
L 304.006265 83.957115 
L 309.122604 80.633745 
L 314.238944 77.359015 
L 319.355283 74.148558 
L 324.471623 71.01803 
L 329.587962 67.982294 
L 334.704302 65.054634 
L 339.820641 62.246111 
L 344.936981 59.565123 
L 350.05332 57.017228 
L 355.169659 54.605203 
L 360.285999 52.329295 
L 365.402338 50.187603 
L 370.518678 48.176509 
L 375.635017 46.291117 
L 380.751357 44.525651 
L 385.867696 42.873798 
L 390.984036 41.328978 
L 396.100375 39.884566 
L 401.216715 38.534039 
L 406.333054 37.27109 
L 411.449393 36.089696 
L 416.565733 34.984165 
L 421.682072 33.949151 
L 426.798412 32.979665 
L 431.914751 32.071068 
L 437.031091 31.219058 
L 442.14743 30.419656 
L 447.26377 29.669183 
L 452.380109 28.964246 
L 457.496448 28.301711 
L 462.612788 27.678688 
L 467.729127 27.09251 
L 472.845467 26.540715 
L 477.961806 26.021027 
L 483.078146 25.531346 
L 488.194485 25.069728 
L 493.310825 24.634373 
L 498.427164 24.223615 
L 503.543504 23.835909 
L 508.659843 23.469822 
L 513.776182 23.124021 
L 518.892522 22.797269 
L 524.008861 22.488414 
L 529.125201 22.196385 
L 534.24154 21.920182 
L 539.35788 21.658873 
L 544.474219 21.411587 
L 549.590559 21.177513 
L 554.706898 20.95589 
L 559.823237 20.746007 
L 564.939577 20.547198 
L 570.055916 20.358839 
L 575.172256 20.180346 
L 580.288595 20.01117 
L 585.404935 19.850795 
L 590.521274 19.698739 
L 595.637614 19.554545 
" style="fill:none;stroke:#000000;stroke-linecap:square;stroke-width:1.5;"/>
   </g>
   <g id="line2d_14">
    <path clip-path="url(#p1c02081614)" d="M 97.292847 266.645455 
L 263.86234 266.645455 
" style="fill:none;stroke:#ffc0cb;stroke-linecap:square;stroke-width:1.5;"/>
    <defs>
     <path d="M 0 3 
C 0.795609 3 1.55874 2.683901 2.12132 2.12132 
C 2.683901 1.55874 3 0.795609 3 0 
C 3 -0.795609 2.683901 -1.55874 2.12132 -2.12132 
C 1.55874 -2.683901 0.795609 -3 0 -3 
C -0.795609 -3 -1.55874 -2.683901 -2.12132 -2.12132 
C -2.683901 -1.55874 -3 -0.795609 -3 0 
C -3 0.795609 -2.683901 1.55874 -2.12132 2.12132 
C -1.55874 2.683901 -0.795609 3 0 3 
z
" id="m2767434697" style="stroke:#ffc0cb;"/>
    </defs>
    <g clip-path="url(#p1c02081614)">
     <use style="fill:#ffc0cb;stroke:#ffc0cb;" x="97.292847" xlink:href="#m2767434697" y="266.645455"/>
     <use style="fill:#ffc0cb;stroke:#ffc0cb;" x="263.86234" xlink:href="#m2767434697" y="266.645455"/>
    </g>
   </g>
   <g id="line2d_15">
    <path clip-path="url(#p1c02081614)" d="M 96.701636 259.893601 
L 243.515497 259.893601 
" style="fill:none;stroke:#ffc0cb;stroke-linecap:square;stroke-width:1.5;"/>
    <g clip-path="url(#p1c02081614)">
     <use style="fill:#ffc0cb;stroke:#ffc0cb;" x="96.701636" xlink:href="#m2767434697" y="259.893601"/>
     <use style="fill:#ffc0cb;stroke:#ffc0cb;" x="243.515497" xlink:href="#m2767434697" y="259.893601"/>
    </g>
   </g>
   <g id="line2d_16">
    <path clip-path="url(#p1c02081614)" d="M 91.788753 253.141748 
L 152.363647 253.141748 
" style="fill:none;stroke:#ffc0cb;stroke-linecap:square;stroke-width:1.5;"/>
    <g clip-path="url(#p1c02081614)">
     <use style="fill:#ffc0cb;stroke:#ffc0cb;" x="91.788753" xlink:href="#m2767434697" y="253.141748"/>
     <use style="fill:#ffc0cb;stroke:#ffc0cb;" x="152.363647" xlink:href="#m2767434697" y="253.141748"/>
    </g>
   </g>
   <g id="line2d_17">
    <path clip-path="url(#p1c02081614)" d="M 95.236604 246.389894 
L 235.800667 246.389894 
" style="fill:none;stroke:#ffc0cb;stroke-linecap:square;stroke-width:1.5;"/>
    <g clip-path="url(#p1c02081614)">
     <use style="fill:#ffc0cb;stroke:#ffc0cb;" x="95.236604" xlink:href="#m2767434697" y="246.389894"/>
     <use style="fill:#ffc0cb;stroke:#ffc0cb;" x="235.800667" xlink:href="#m2767434697" y="246.389894"/>
    </g>
   </g>
   <g id="line2d_18">
    <path clip-path="url(#p1c02081614)" d="M 103.737973 239.638041 
L 322.018065 239.638041 
" style="fill:none;stroke:#ffc0cb;stroke-linecap:square;stroke-width:1.5;"/>
    <g clip-path="url(#p1c02081614)">
     <use style="fill:#ffc0cb;stroke:#ffc0cb;" x="103.737973" xlink:href="#m2767434697" y="239.638041"/>
     <use style="fill:#ffc0cb;stroke:#ffc0cb;" x="322.018065" xlink:href="#m2767434697" y="239.638041"/>
    </g>
   </g>
   <g id="line2d_19">
    <path clip-path="url(#p1c02081614)" d="M 92.555695 232.886187 
L 188.018555 232.886187 
" style="fill:none;stroke:#ffc0cb;stroke-linecap:square;stroke-width:1.5;"/>
    <g clip-path="url(#p1c02081614)">
     <use style="fill:#ffc0cb;stroke:#ffc0cb;" x="92.555695" xlink:href="#m2767434697" y="232.886187"/>
     <use style="fill:#ffc0cb;stroke:#ffc0cb;" x="188.018555" xlink:href="#m2767434697" y="232.886187"/>
    </g>
   </g>
   <g id="line2d_20">
    <path clip-path="url(#p1c02081614)" d="M 97.396475 226.134334 
L 266.927419 226.134334 
" style="fill:none;stroke:#ffc0cb;stroke-linecap:square;stroke-width:1.5;"/>
    <g clip-path="url(#p1c02081614)">
     <use style="fill:#ffc0cb;stroke:#ffc0cb;" x="97.396475" xlink:href="#m2767434697" y="226.134334"/>
     <use style="fill:#ffc0cb;stroke:#ffc0cb;" x="266.927419" xlink:href="#m2767434697" y="226.134334"/>
    </g>
   </g>
   <g id="line2d_21">
    <path clip-path="url(#p1c02081614)" d="M 91.253767 219.38248 
L 226.046642 219.38248 
" style="fill:none;stroke:#ffc0cb;stroke-linecap:square;stroke-width:1.5;"/>
    <g clip-path="url(#p1c02081614)">
     <use style="fill:#ffc0cb;stroke:#ffc0cb;" x="91.253767" xlink:href="#m2767434697" y="219.38248"/>
     <use style="fill:#ffc0cb;stroke:#ffc0cb;" x="226.046642" xlink:href="#m2767434697" y="219.38248"/>
    </g>
   </g>
   <g id="line2d_22">
    <path clip-path="url(#p1c02081614)" d="M 111.735283 212.630627 
L 307.874179 212.630627 
" style="fill:none;stroke:#add8e6;stroke-linecap:square;stroke-width:1.5;"/>
    <defs>
     <path d="M 0 3 
C 0.795609 3 1.55874 2.683901 2.12132 2.12132 
C 2.683901 1.55874 3 0.795609 3 0 
C 3 -0.795609 2.683901 -1.55874 2.12132 -2.12132 
C 1.55874 -2.683901 0.795609 -3 0 -3 
C -0.795609 -3 -1.55874 -2.683901 -2.12132 -2.12132 
C -2.683901 -1.55874 -3 -0.795609 -3 0 
C -3 0.795609 -2.683901 1.55874 -2.12132 2.12132 
C -1.55874 2.683901 -0.795609 3 0 3 
z
" id="mc9d56939bd" style="stroke:#add8e6;"/>
    </defs>
    <g clip-path="url(#p1c02081614)">
     <use style="fill:#add8e6;stroke:#add8e6;" x="111.735283" xlink:href="#mc9d56939bd" y="212.630627"/>
     <use style="fill:#add8e6;stroke:#add8e6;" x="307.874179" xlink:href="#mc9d56939bd" y="212.630627"/>
    </g>
   </g>
   <g id="line2d_23">
    <path clip-path="url(#p1c02081614)" d="M 104.424253 205.878773 
L 238.178821 205.878773 
" style="fill:none;stroke:#add8e6;stroke-linecap:square;stroke-width:1.5;"/>
    <g clip-path="url(#p1c02081614)">
     <use style="fill:#add8e6;stroke:#add8e6;" x="104.424253" xlink:href="#mc9d56939bd" y="205.878773"/>
     <use style="fill:#add8e6;stroke:#add8e6;" x="238.178821" xlink:href="#mc9d56939bd" y="205.878773"/>
    </g>
   </g>
   <g id="line2d_24">
    <path clip-path="url(#p1c02081614)" d="M 88.556337 199.12692 
L 110.291298 199.12692 
" style="fill:none;stroke:#add8e6;stroke-linecap:square;stroke-width:1.5;"/>
    <g clip-path="url(#p1c02081614)">
     <use style="fill:#add8e6;stroke:#add8e6;" x="88.556337" xlink:href="#mc9d56939bd" y="199.12692"/>
     <use style="fill:#add8e6;stroke:#add8e6;" x="110.291298" xlink:href="#mc9d56939bd" y="199.12692"/>
    </g>
   </g>
   <g id="line2d_25">
    <path clip-path="url(#p1c02081614)" d="M 88.400009 192.375066 
L 107.615595 192.375066 
" style="fill:none;stroke:#add8e6;stroke-linecap:square;stroke-width:1.5;"/>
    <g clip-path="url(#p1c02081614)">
     <use style="fill:#add8e6;stroke:#add8e6;" x="88.400009" xlink:href="#mc9d56939bd" y="192.375066"/>
     <use style="fill:#add8e6;stroke:#add8e6;" x="107.615595" xlink:href="#mc9d56939bd" y="192.375066"/>
    </g>
   </g>
   <g id="line2d_26">
    <path clip-path="url(#p1c02081614)" d="M 93.299776 185.623213 
L 158.534978 185.623213 
" style="fill:none;stroke:#add8e6;stroke-linecap:square;stroke-width:1.5;"/>
    <g clip-path="url(#p1c02081614)">
     <use style="fill:#add8e6;stroke:#add8e6;" x="93.299776" xlink:href="#mc9d56939bd" y="185.623213"/>
     <use style="fill:#add8e6;stroke:#add8e6;" x="158.534978" xlink:href="#mc9d56939bd" y="185.623213"/>
    </g>
   </g>
   <g id="line2d_27">
    <path clip-path="url(#p1c02081614)" d="M 89.344837 178.871359 
L 118.939632 178.871359 
" style="fill:none;stroke:#add8e6;stroke-linecap:square;stroke-width:1.5;"/>
    <g clip-path="url(#p1c02081614)">
     <use style="fill:#add8e6;stroke:#add8e6;" x="89.344837" xlink:href="#mc9d56939bd" y="178.871359"/>
     <use style="fill:#add8e6;stroke:#add8e6;" x="118.939632" xlink:href="#mc9d56939bd" y="178.871359"/>
    </g>
   </g>
   <g id="line2d_28">
    <path clip-path="url(#p1c02081614)" d="M 96.221713 172.119506 
L 248.504274 172.119506 
" style="fill:none;stroke:#ffd700;stroke-linecap:square;stroke-width:1.5;"/>
    <defs>
     <path d="M 0 3 
C 0.795609 3 1.55874 2.683901 2.12132 2.12132 
C 2.683901 1.55874 3 0.795609 3 0 
C 3 -0.795609 2.683901 -1.55874 2.12132 -2.12132 
C 1.55874 -2.683901 0.795609 -3 0 -3 
C -0.795609 -3 -1.55874 -2.683901 -2.12132 -2.12132 
C -2.683901 -1.55874 -3 -0.795609 -3 0 
C -3 0.795609 -2.683901 1.55874 -2.12132 2.12132 
C -1.55874 2.683901 -0.795609 3 0 3 
z
" id="m72b72e7992" style="stroke:#ffd700;"/>
    </defs>
    <g clip-path="url(#p1c02081614)">
     <use style="fill:#ffd700;stroke:#ffd700;" x="96.221713" xlink:href="#m72b72e7992" y="172.119506"/>
     <use style="fill:#ffd700;stroke:#ffd700;" x="248.504274" xlink:href="#m72b72e7992" y="172.119506"/>
    </g>
   </g>
   <g id="line2d_29">
    <path clip-path="url(#p1c02081614)" d="M 88.594748 165.367652 
L 130.275944 165.367652 
" style="fill:none;stroke:#ffd700;stroke-linecap:square;stroke-width:1.5;"/>
    <g clip-path="url(#p1c02081614)">
     <use style="fill:#ffd700;stroke:#ffd700;" x="88.594748" xlink:href="#m72b72e7992" y="165.367652"/>
     <use style="fill:#ffd700;stroke:#ffd700;" x="130.275944" xlink:href="#m72b72e7992" y="165.367652"/>
    </g>
   </g>
   <g id="line2d_30">
    <path clip-path="url(#p1c02081614)" d="M 94.839549 158.615799 
L 251.510514 158.615799 
" style="fill:none;stroke:#ffd700;stroke-linecap:square;stroke-width:1.5;"/>
    <g clip-path="url(#p1c02081614)">
     <use style="fill:#ffd700;stroke:#ffd700;" x="94.839549" xlink:href="#m72b72e7992" y="158.615799"/>
     <use style="fill:#ffd700;stroke:#ffd700;" x="251.510514" xlink:href="#m72b72e7992" y="158.615799"/>
    </g>
   </g>
   <g id="line2d_31">
    <path clip-path="url(#p1c02081614)" d="M 111.585722 151.863945 
L 243.507713 151.863945 
" style="fill:none;stroke:#ffd700;stroke-linecap:square;stroke-width:1.5;"/>
    <g clip-path="url(#p1c02081614)">
     <use style="fill:#ffd700;stroke:#ffd700;" x="111.585722" xlink:href="#m72b72e7992" y="151.863945"/>
     <use style="fill:#ffd700;stroke:#ffd700;" x="243.507713" xlink:href="#m72b72e7992" y="151.863945"/>
    </g>
   </g>
   <g id="line2d_32">
    <path clip-path="url(#p1c02081614)" d="M 100.835464 145.112092 
L 202.494545 145.112092 
" style="fill:none;stroke:#ffd700;stroke-linecap:square;stroke-width:1.5;"/>
    <g clip-path="url(#p1c02081614)">
     <use style="fill:#ffd700;stroke:#ffd700;" x="100.835464" xlink:href="#m72b72e7992" y="145.112092"/>
     <use style="fill:#ffd700;stroke:#ffd700;" x="202.494545" xlink:href="#m72b72e7992" y="145.112092"/>
    </g>
   </g>
   <g id="line2d_33">
    <path clip-path="url(#p1c02081614)" d="M 90.159177 138.360238 
L 136.41127 138.360238 
" style="fill:none;stroke:#ffd700;stroke-linecap:square;stroke-width:1.5;"/>
    <g clip-path="url(#p1c02081614)">
     <use style="fill:#ffd700;stroke:#ffd700;" x="90.159177" xlink:href="#m72b72e7992" y="138.360238"/>
     <use style="fill:#ffd700;stroke:#ffd700;" x="136.41127" xlink:href="#m72b72e7992" y="138.360238"/>
    </g>
   </g>
   <g id="line2d_34">
    <path clip-path="url(#p1c02081614)" d="M 90.777195 131.608385 
L 169.191132 131.608385 
" style="fill:none;stroke:#dda0dd;stroke-linecap:square;stroke-width:1.5;"/>
    <defs>
     <path d="M 0 3 
C 0.795609 3 1.55874 2.683901 2.12132 2.12132 
C 2.683901 1.55874 3 0.795609 3 0 
C 3 -0.795609 2.683901 -1.55874 2.12132 -2.12132 
C 1.55874 -2.683901 0.795609 -3 0 -3 
C -0.795609 -3 -1.55874 -2.683901 -2.12132 -2.12132 
C -2.683901 -1.55874 -3 -0.795609 -3 0 
C -3 0.795609 -2.683901 1.55874 -2.12132 2.12132 
C -1.55874 2.683901 -0.795609 3 0 3 
z
" id="m9962d3e1c6" style="stroke:#dda0dd;"/>
    </defs>
    <g clip-path="url(#p1c02081614)">
     <use style="fill:#dda0dd;stroke:#dda0dd;" x="90.777195" xlink:href="#m9962d3e1c6" y="131.608385"/>
     <use style="fill:#dda0dd;stroke:#dda0dd;" x="169.191132" xlink:href="#m9962d3e1c6" y="131.608385"/>
    </g>
   </g>
   <g id="line2d_35">
    <path clip-path="url(#p1c02081614)" d="M 99.511388 124.856531 
L 205.109925 124.856531 
" style="fill:none;stroke:#dda0dd;stroke-linecap:square;stroke-width:1.5;"/>
    <g clip-path="url(#p1c02081614)">
     <use style="fill:#dda0dd;stroke:#dda0dd;" x="99.511388" xlink:href="#m9962d3e1c6" y="124.856531"/>
     <use style="fill:#dda0dd;stroke:#dda0dd;" x="205.109925" xlink:href="#m9962d3e1c6" y="124.856531"/>
    </g>
   </g>
   <g id="line2d_36">
    <path clip-path="url(#p1c02081614)" d="M 107.22296 118.104678 
L 243.414697 118.104678 
" style="fill:none;stroke:#dda0dd;stroke-linecap:square;stroke-width:1.5;"/>
    <g clip-path="url(#p1c02081614)">
     <use style="fill:#dda0dd;stroke:#dda0dd;" x="107.22296" xlink:href="#m9962d3e1c6" y="118.104678"/>
     <use style="fill:#dda0dd;stroke:#dda0dd;" x="243.414697" xlink:href="#m9962d3e1c6" y="118.104678"/>
    </g>
   </g>
   <g id="line2d_37">
    <path clip-path="url(#p1c02081614)" d="M 89.026459 111.352824 
L 120.873605 111.352824 
" style="fill:none;stroke:#dda0dd;stroke-linecap:square;stroke-width:1.5;"/>
    <g clip-path="url(#p1c02081614)">
     <use style="fill:#dda0dd;stroke:#dda0dd;" x="89.026459" xlink:href="#m9962d3e1c6" y="111.352824"/>
     <use style="fill:#dda0dd;stroke:#dda0dd;" x="120.873605" xlink:href="#m9962d3e1c6" y="111.352824"/>
    </g>
   </g>
   <g id="line2d_38">
    <path clip-path="url(#p1c02081614)" d="M 88.481743 104.600971 
L 106.809472 104.600971 
" style="fill:none;stroke:#ff8c00;stroke-linecap:square;stroke-width:1.5;"/>
    <defs>
     <path d="M 0 3 
C 0.795609 3 1.55874 2.683901 2.12132 2.12132 
C 2.683901 1.55874 3 0.795609 3 0 
C 3 -0.795609 2.683901 -1.55874 2.12132 -2.12132 
C 1.55874 -2.683901 0.795609 -3 0 -3 
C -0.795609 -3 -1.55874 -2.683901 -2.12132 -2.12132 
C -2.683901 -1.55874 -3 -0.795609 -3 0 
C -3 0.795609 -2.683901 1.55874 -2.12132 2.12132 
C -1.55874 2.683901 -0.795609 3 0 3 
z
" id="m211c94e917" style="stroke:#ff8c00;"/>
    </defs>
    <g clip-path="url(#p1c02081614)">
     <use style="fill:#ff8c00;stroke:#ff8c00;" x="88.481743" xlink:href="#m211c94e917" y="104.600971"/>
     <use style="fill:#ff8c00;stroke:#ff8c00;" x="106.809472" xlink:href="#m211c94e917" y="104.600971"/>
    </g>
   </g>
   <g id="line2d_39">
    <path clip-path="url(#p1c02081614)" d="M 91.076491 97.849117 
L 164.155442 97.849117 
" style="fill:none;stroke:#ff8c00;stroke-linecap:square;stroke-width:1.5;"/>
    <g clip-path="url(#p1c02081614)">
     <use style="fill:#ff8c00;stroke:#ff8c00;" x="91.076491" xlink:href="#m211c94e917" y="97.849117"/>
     <use style="fill:#ff8c00;stroke:#ff8c00;" x="164.155442" xlink:href="#m211c94e917" y="97.849117"/>
    </g>
   </g>
   <g id="line2d_40">
    <path clip-path="url(#p1c02081614)" d="M 91.71275 91.097264 
L 141.343808 91.097264 
" style="fill:none;stroke:#ff8c00;stroke-linecap:square;stroke-width:1.5;"/>
    <g clip-path="url(#p1c02081614)">
     <use style="fill:#ff8c00;stroke:#ff8c00;" x="91.71275" xlink:href="#m211c94e917" y="91.097264"/>
     <use style="fill:#ff8c00;stroke:#ff8c00;" x="141.343808" xlink:href="#m211c94e917" y="91.097264"/>
    </g>
   </g>
   <g id="line2d_41">
    <path clip-path="url(#p1c02081614)" d="M 95.802593 84.34541 
L 145.099931 84.34541 
" style="fill:none;stroke:#ff8c00;stroke-linecap:square;stroke-width:1.5;"/>
    <g clip-path="url(#p1c02081614)">
     <use style="fill:#ff8c00;stroke:#ff8c00;" x="95.802593" xlink:href="#m211c94e917" y="84.34541"/>
     <use style="fill:#ff8c00;stroke:#ff8c00;" x="145.099931" xlink:href="#m211c94e917" y="84.34541"/>
    </g>
   </g>
   <g id="line2d_42">
    <path clip-path="url(#p1c02081614)" d="M 90.711998 77.593557 
L 130.466845 77.593557 
" style="fill:none;stroke:#ff8c00;stroke-linecap:square;stroke-width:1.5;"/>
    <g clip-path="url(#p1c02081614)">
     <use style="fill:#ff8c00;stroke:#ff8c00;" x="90.711998" xlink:href="#m211c94e917" y="77.593557"/>
     <use style="fill:#ff8c00;stroke:#ff8c00;" x="130.466845" xlink:href="#m211c94e917" y="77.593557"/>
    </g>
   </g>
   <g id="line2d_43">
    <path clip-path="url(#p1c02081614)" d="M 102.370904 70.841703 
L 284.35165 70.841703 
" style="fill:none;stroke:#008000;stroke-linecap:square;stroke-width:1.5;"/>
    <defs>
     <path d="M 0 3 
C 0.795609 3 1.55874 2.683901 2.12132 2.12132 
C 2.683901 1.55874 3 0.795609 3 0 
C 3 -0.795609 2.683901 -1.55874 2.12132 -2.12132 
C 1.55874 -2.683901 0.795609 -3 0 -3 
C -0.795609 -3 -1.55874 -2.683901 -2.12132 -2.12132 
C -2.683901 -1.55874 -3 -0.795609 -3 0 
C -3 0.795609 -2.683901 1.55874 -2.12132 2.12132 
C -1.55874 2.683901 -0.795609 3 0 3 
z
" id="mc5022ea517" style="stroke:#008000;"/>
    </defs>
    <g clip-path="url(#p1c02081614)">
     <use style="fill:#008000;stroke:#008000;" x="102.370904" xlink:href="#mc5022ea517" y="70.841703"/>
     <use style="fill:#008000;stroke:#008000;" x="284.35165" xlink:href="#mc5022ea517" y="70.841703"/>
    </g>
   </g>
   <g id="line2d_44">
    <path clip-path="url(#p1c02081614)" d="M 107.318984 64.08985 
L 241.270078 64.08985 
" style="fill:none;stroke:#008000;stroke-linecap:square;stroke-width:1.5;"/>
    <g clip-path="url(#p1c02081614)">
     <use style="fill:#008000;stroke:#008000;" x="107.318984" xlink:href="#mc5022ea517" y="64.08985"/>
     <use style="fill:#008000;stroke:#008000;" x="241.270078" xlink:href="#mc5022ea517" y="64.08985"/>
    </g>
   </g>
   <g id="line2d_45">
    <path clip-path="url(#p1c02081614)" d="M 96.439652 57.337996 
L 168.372022 57.337996 
" style="fill:none;stroke:#008000;stroke-linecap:square;stroke-width:1.5;"/>
    <g clip-path="url(#p1c02081614)">
     <use style="fill:#008000;stroke:#008000;" x="96.439652" xlink:href="#mc5022ea517" y="57.337996"/>
     <use style="fill:#008000;stroke:#008000;" x="168.372022" xlink:href="#mc5022ea517" y="57.337996"/>
    </g>
   </g>
   <g id="line2d_46">
    <path clip-path="url(#p1c02081614)" d="M 88.364886 50.586143 
L 107.664134 50.586143 
" style="fill:none;stroke:#008000;stroke-linecap:square;stroke-width:1.5;"/>
    <g clip-path="url(#p1c02081614)">
     <use style="fill:#008000;stroke:#008000;" x="88.364886" xlink:href="#mc5022ea517" y="50.586143"/>
     <use style="fill:#008000;stroke:#008000;" x="107.664134" xlink:href="#mc5022ea517" y="50.586143"/>
    </g>
   </g>
   <g id="line2d_47">
    <path clip-path="url(#p1c02081614)" d="M 88.616492 43.834289 
L 131.692203 43.834289 
" style="fill:none;stroke:#008000;stroke-linecap:square;stroke-width:1.5;"/>
    <g clip-path="url(#p1c02081614)">
     <use style="fill:#008000;stroke:#008000;" x="88.616492" xlink:href="#mc5022ea517" y="43.834289"/>
     <use style="fill:#008000;stroke:#008000;" x="131.692203" xlink:href="#mc5022ea517" y="43.834289"/>
    </g>
   </g>
   <g id="line2d_48">
    <path clip-path="url(#p1c02081614)" d="M 94.773643 37.082436 
L 140.849013 37.082436 
" style="fill:none;stroke:#008000;stroke-linecap:square;stroke-width:1.5;"/>
    <g clip-path="url(#p1c02081614)">
     <use style="fill:#008000;stroke:#008000;" x="94.773643" xlink:href="#mc5022ea517" y="37.082436"/>
     <use style="fill:#008000;stroke:#008000;" x="140.849013" xlink:href="#mc5022ea517" y="37.082436"/>
    </g>
   </g>
   <g id="line2d_49">
    <path clip-path="url(#p1c02081614)" d="M 88.445717 30.330582 
L 107.371572 30.330582 
" style="fill:none;stroke:#008000;stroke-linecap:square;stroke-width:1.5;"/>
    <g clip-path="url(#p1c02081614)">
     <use style="fill:#008000;stroke:#008000;" x="88.445717" xlink:href="#mc5022ea517" y="30.330582"/>
     <use style="fill:#008000;stroke:#008000;" x="107.371572" xlink:href="#mc5022ea517" y="30.330582"/>
    </g>
   </g>
   <g id="line2d_50">
    <path clip-path="url(#p1c02081614)" d="M 91.74086 23.578729 
L 134.260857 23.578729 
" style="fill:none;stroke:#008000;stroke-linecap:square;stroke-width:1.5;"/>
    <g clip-path="url(#p1c02081614)">
     <use style="fill:#008000;stroke:#008000;" x="91.74086" xlink:href="#mc5022ea517" y="23.578729"/>
     <use style="fill:#008000;stroke:#008000;" x="134.260857" xlink:href="#mc5022ea517" y="23.578729"/>
    </g>
   </g>
   <g id="line2d_51">
    <path clip-path="url(#p1c02081614)" d="M 89.120008 214.548874 
L 94.236348 211.843993 
L 99.352687 209.072758 
L 104.469026 206.243428 
L 109.585366 203.364314 
L 114.701705 200.443507 
L 119.818045 197.488633 
L 124.934384 194.506502 
L 130.050724 191.496874 
L 135.167063 166.476307 
L 140.283403 142.667049 
L 145.399742 126.256505 
L 150.516082 113.511927 
L 155.632421 103.323621 
L 160.74876 95.054666 
L 165.8651 88.256431 
L 170.981439 82.596798 
L 176.097779 77.828322 
L 181.214118 73.766284 
L 186.330458 70.271963 
L 191.446797 67.241377 
L 196.563137 64.595393 
L 201.679476 62.273849 
L 206.795815 60.230862 
L 211.912155 58.431875 
L 217.028494 56.851217 
L 222.144834 55.47097 
L 227.261173 54.280121 
L 232.377513 53.274721 
L 237.493852 52.458402 
L 242.610192 51.844095 
L 247.726531 51.457297 
L 252.842871 51.341315 
L 257.95921 51.567221 
L 263.075549 52.250792 
L 268.191889 53.584755 
L 273.308228 55.905844 
L 278.424568 59.859744 
L 283.540907 67.012166 
L 288.657247 87.364945 
L 293.773586 90.69125 
L 298.889926 87.314244 
L 304.006265 83.957115 
L 309.122604 80.633745 
L 314.238944 77.359015 
L 319.355283 74.148558 
L 324.471623 71.01803 
L 329.587962 67.982294 
L 334.704302 65.054634 
L 339.820641 62.246111 
L 344.936981 59.565123 
L 350.05332 57.017228 
L 355.169659 54.605203 
L 360.285999 52.329295 
L 365.402338 50.187603 
L 370.518678 48.176509 
L 375.635017 46.291117 
L 380.751357 44.525651 
L 385.867696 42.873798 
L 390.984036 41.328978 
L 396.100375 39.884566 
L 401.216715 38.534039 
L 406.333054 37.27109 
L 411.449393 36.089696 
L 416.565733 34.984165 
L 421.682072 33.949151 
L 426.798412 32.979665 
L 431.914751 32.071068 
L 437.031091 31.219058 
L 442.14743 30.419656 
L 447.26377 29.669183 
L 452.380109 28.964246 
L 457.496448 28.301711 
L 462.612788 27.678688 
L 467.729127 27.09251 
L 472.845467 26.540715 
L 477.961806 26.021027 
L 483.078146 25.531346 
L 488.194485 25.069728 
L 493.310825 24.634373 
L 498.427164 24.223615 
L 503.543504 23.835909 
L 508.659843 23.469822 
L 513.776182 23.124021 
L 518.892522 22.797269 
L 524.008861 22.488414 
L 529.125201 22.196385 
L 534.24154 21.920182 
L 539.35788 21.658873 
L 544.474219 21.411587 
L 549.590559 21.177513 
L 554.706898 20.95589 
L 559.823237 20.746007 
L 564.939577 20.547198 
L 570.055916 20.358839 
L 575.172256 20.180346 
L 580.288595 20.01117 
L 585.404935 19.850795 
L 590.521274 19.698739 
L 595.637614 19.554545 
" style="fill:none;stroke:#000000;stroke-linecap:square;stroke-width:1.5;"/>
   </g>
   <g id="line2d_52">
    <path clip-path="url(#p1c02081614)" d="M 89.120008 214.548874 
L 94.236348 211.843993 
L 99.352687 209.072758 
L 104.469026 206.243428 
L 109.585366 203.364314 
L 114.701705 200.443507 
L 119.818045 197.488633 
L 124.934384 194.506828 
L 130.050724 191.510393 
L 135.167063 207.946119 
L 140.283403 219.760985 
L 145.399742 225.244981 
L 150.516082 228.304235 
L 155.632421 230.026112 
L 160.74876 230.911079 
L 165.8651 231.231434 
L 170.981439 231.146521 
L 176.097779 230.75284 
L 181.214118 230.109504 
L 186.330458 229.25216 
L 191.446797 228.20095 
L 196.563137 226.965055 
L 201.679476 225.545212 
L 206.795815 223.935222 
L 211.912155 222.122235 
L 217.028494 220.086785 
L 222.144834 217.801877 
L 227.261173 215.2316 
L 232.377513 212.328997 
L 237.493852 209.032656 
L 242.610192 205.262419 
L 247.726531 200.912416 
L 252.842871 195.842188 
L 257.95921 189.863496 
L 263.075549 182.722271 
L 268.191889 174.073644 
L 273.308228 163.436452 
L 278.424568 150.079875 
L 283.540907 132.490939 
L 288.657247 100.982098 
L 293.773586 90.691928 
L 298.889926 87.314244 
L 304.006265 83.957115 
L 309.122604 80.633745 
L 314.238944 77.359015 
L 319.355283 74.148558 
L 324.471623 71.01803 
L 329.587962 67.982294 
L 334.704302 65.054634 
L 339.820641 62.246111 
L 344.936981 59.565123 
L 350.05332 57.017228 
L 355.169659 54.605203 
L 360.285999 52.329295 
L 365.402338 50.187603 
L 370.518678 48.176509 
L 375.635017 46.291117 
L 380.751357 44.525651 
L 385.867696 42.873798 
L 390.984036 41.328978 
L 396.100375 39.884566 
L 401.216715 38.534039 
L 406.333054 37.27109 
L 411.449393 36.089696 
L 416.565733 34.984165 
L 421.682072 33.949151 
L 426.798412 32.979665 
L 431.914751 32.071068 
L 437.031091 31.219058 
L 442.14743 30.419656 
L 447.26377 29.669183 
L 452.380109 28.964246 
L 457.496448 28.301711 
L 462.612788 27.678688 
L 467.729127 27.09251 
L 472.845467 26.540715 
L 477.961806 26.021027 
L 483.078146 25.531346 
L 488.194485 25.069728 
L 493.310825 24.634373 
L 498.427164 24.223615 
L 503.543504 23.835909 
L 508.659843 23.469822 
L 513.776182 23.124021 
L 518.892522 22.797269 
L 524.008861 22.488414 
L 529.125201 22.196385 
L 534.24154 21.920182 
L 539.35788 21.658873 
L 544.474219 21.411587 
L 549.590559 21.177513 
L 554.706898 20.95589 
L 559.823237 20.746007 
L 564.939577 20.547198 
L 570.055916 20.358839 
L 575.172256 20.180346 
L 580.288595 20.01117 
L 585.404935 19.850795 
L 590.521274 19.698739 
L 595.637614 19.554545 
" style="fill:none;stroke:#000000;stroke-linecap:square;stroke-width:1.5;"/>
   </g>
   <g id="patch_3">
    <path d="M 63.00125 279 
L 63.00125 7.2 
" style="fill:none;stroke:#000000;stroke-linecap:square;stroke-linejoin:miter;stroke-width:0.8;"/>
   </g>
   <g id="patch_4">
    <path d="M 621.00125 279 
L 621.00125 7.2 
" style="fill:none;stroke:#000000;stroke-linecap:square;stroke-linejoin:miter;stroke-width:0.8;"/>
   </g>
   <g id="patch_5">
    <path d="M 63.00125 279 
L 621.00125 279 
" style="fill:none;stroke:#000000;stroke-linecap:square;stroke-linejoin:miter;stroke-width:0.8;"/>
   </g>
   <g id="patch_6">
    <path d="M 63.00125 7.2 
L 621.00125 7.2 
" style="fill:none;stroke:#000000;stroke-linecap:square;stroke-linejoin:miter;stroke-width:0.8;"/>
   </g>
   <g id="legend_1">
    <g id="patch_7">
     <path d="M 428.135938 272 
L 611.20125 272 
Q 614.00125 272 614.00125 269.2 
L 614.00125 126.754375 
Q 614.00125 123.954375 611.20125 123.954375 
L 428.135938 123.954375 
Q 425.335938 123.954375 425.335938 126.754375 
L 425.335938 269.2 
Q 425.335938 272 428.135938 272 
z
" style="fill:#ffffff;opacity:0.8;stroke:#cccccc;stroke-linejoin:miter;"/>
    </g>
    <g id="line2d_53">
     <path d="M 430.935938 135.292187 
L 458.935938 135.292187 
" style="fill:none;stroke:#000000;stroke-linecap:square;stroke-width:1.5;"/>
    </g>
    <g id="line2d_54"/>
    <g id="text_15">
     <!-- Equilibrium Position -->
     <defs>
      <path d="M 9.8125 72.90625 
L 55.90625 72.90625 
L 55.90625 64.59375 
L 19.671875 64.59375 
L 19.671875 43.015625 
L 54.390625 43.015625 
L 54.390625 34.71875 
L 19.671875 34.71875 
L 19.671875 8.296875 
L 56.78125 8.296875 
L 56.78125 0 
L 9.8125 0 
z
" id="DejaVuSans-69"/>
      <path d="M 14.796875 27.296875 
Q 14.796875 17.390625 18.875 11.75 
Q 22.953125 6.109375 30.078125 6.109375 
Q 37.203125 6.109375 41.296875 11.75 
Q 45.40625 17.390625 45.40625 27.296875 
Q 45.40625 37.203125 41.296875 42.84375 
Q 37.203125 48.484375 30.078125 48.484375 
Q 22.953125 48.484375 18.875 42.84375 
Q 14.796875 37.203125 14.796875 27.296875 
z
M 45.40625 8.203125 
Q 42.578125 3.328125 38.25 0.953125 
Q 33.9375 -1.421875 27.875 -1.421875 
Q 17.96875 -1.421875 11.734375 6.484375 
Q 5.515625 14.40625 5.515625 27.296875 
Q 5.515625 40.1875 11.734375 48.09375 
Q 17.96875 56 27.875 56 
Q 33.9375 56 38.25 53.625 
Q 42.578125 51.265625 45.40625 46.390625 
L 45.40625 54.6875 
L 54.390625 54.6875 
L 54.390625 -20.796875 
L 45.40625 -20.796875 
z
" id="DejaVuSans-113"/>
      <path d="M 9.421875 54.6875 
L 18.40625 54.6875 
L 18.40625 0 
L 9.421875 0 
z
M 9.421875 75.984375 
L 18.40625 75.984375 
L 18.40625 64.59375 
L 9.421875 64.59375 
z
" id="DejaVuSans-105"/>
      <path d="M 9.421875 75.984375 
L 18.40625 75.984375 
L 18.40625 0 
L 9.421875 0 
z
" id="DejaVuSans-108"/>
      <path d="M 48.6875 27.296875 
Q 48.6875 37.203125 44.609375 42.84375 
Q 40.53125 48.484375 33.40625 48.484375 
Q 26.265625 48.484375 22.1875 42.84375 
Q 18.109375 37.203125 18.109375 27.296875 
Q 18.109375 17.390625 22.1875 11.75 
Q 26.265625 6.109375 33.40625 6.109375 
Q 40.53125 6.109375 44.609375 11.75 
Q 48.6875 17.390625 48.6875 27.296875 
z
M 18.109375 46.390625 
Q 20.953125 51.265625 25.265625 53.625 
Q 29.59375 56 35.59375 56 
Q 45.5625 56 51.78125 48.09375 
Q 58.015625 40.1875 58.015625 27.296875 
Q 58.015625 14.40625 51.78125 6.484375 
Q 45.5625 -1.421875 35.59375 -1.421875 
Q 29.59375 -1.421875 25.265625 0.953125 
Q 20.953125 3.328125 18.109375 8.203125 
L 18.109375 0 
L 9.078125 0 
L 9.078125 75.984375 
L 18.109375 75.984375 
z
" id="DejaVuSans-98"/>
      <path d="M 41.109375 46.296875 
Q 39.59375 47.171875 37.8125 47.578125 
Q 36.03125 48 33.890625 48 
Q 26.265625 48 22.1875 43.046875 
Q 18.109375 38.09375 18.109375 28.8125 
L 18.109375 0 
L 9.078125 0 
L 9.078125 54.6875 
L 18.109375 54.6875 
L 18.109375 46.1875 
Q 20.953125 51.171875 25.484375 53.578125 
Q 30.03125 56 36.53125 56 
Q 37.453125 56 38.578125 55.875 
Q 39.703125 55.765625 41.0625 55.515625 
z
" id="DejaVuSans-114"/>
      <path d="M 19.671875 64.796875 
L 19.671875 37.40625 
L 32.078125 37.40625 
Q 38.96875 37.40625 42.71875 40.96875 
Q 46.484375 44.53125 46.484375 51.125 
Q 46.484375 57.671875 42.71875 61.234375 
Q 38.96875 64.796875 32.078125 64.796875 
z
M 9.8125 72.90625 
L 32.078125 72.90625 
Q 44.34375 72.90625 50.609375 67.359375 
Q 56.890625 61.8125 56.890625 51.125 
Q 56.890625 40.328125 50.609375 34.8125 
Q 44.34375 29.296875 32.078125 29.296875 
L 19.671875 29.296875 
L 19.671875 0 
L 9.8125 0 
z
" id="DejaVuSans-80"/>
      <path d="M 30.609375 48.390625 
Q 23.390625 48.390625 19.1875 42.75 
Q 14.984375 37.109375 14.984375 27.296875 
Q 14.984375 17.484375 19.15625 11.84375 
Q 23.34375 6.203125 30.609375 6.203125 
Q 37.796875 6.203125 41.984375 11.859375 
Q 46.1875 17.53125 46.1875 27.296875 
Q 46.1875 37.015625 41.984375 42.703125 
Q 37.796875 48.390625 30.609375 48.390625 
z
M 30.609375 56 
Q 42.328125 56 49.015625 48.375 
Q 55.71875 40.765625 55.71875 27.296875 
Q 55.71875 13.875 49.015625 6.21875 
Q 42.328125 -1.421875 30.609375 -1.421875 
Q 18.84375 -1.421875 12.171875 6.21875 
Q 5.515625 13.875 5.515625 27.296875 
Q 5.515625 40.765625 12.171875 48.375 
Q 18.84375 56 30.609375 56 
z
" id="DejaVuSans-111"/>
      <path d="M 44.28125 53.078125 
L 44.28125 44.578125 
Q 40.484375 46.53125 36.375 47.5 
Q 32.28125 48.484375 27.875 48.484375 
Q 21.1875 48.484375 17.84375 46.4375 
Q 14.5 44.390625 14.5 40.28125 
Q 14.5 37.15625 16.890625 35.375 
Q 19.28125 33.59375 26.515625 31.984375 
L 29.59375 31.296875 
Q 39.15625 29.25 43.1875 25.515625 
Q 47.21875 21.78125 47.21875 15.09375 
Q 47.21875 7.46875 41.1875 3.015625 
Q 35.15625 -1.421875 24.609375 -1.421875 
Q 20.21875 -1.421875 15.453125 -0.5625 
Q 10.6875 0.296875 5.421875 2 
L 5.421875 11.28125 
Q 10.40625 8.6875 15.234375 7.390625 
Q 20.0625 6.109375 24.8125 6.109375 
Q 31.15625 6.109375 34.5625 8.28125 
Q 37.984375 10.453125 37.984375 14.40625 
Q 37.984375 18.0625 35.515625 20.015625 
Q 33.0625 21.96875 24.703125 23.78125 
L 21.578125 24.515625 
Q 13.234375 26.265625 9.515625 29.90625 
Q 5.8125 33.546875 5.8125 39.890625 
Q 5.8125 47.609375 11.28125 51.796875 
Q 16.75 56 26.8125 56 
Q 31.78125 56 36.171875 55.265625 
Q 40.578125 54.546875 44.28125 53.078125 
z
" id="DejaVuSans-115"/>
      <path d="M 18.3125 70.21875 
L 18.3125 54.6875 
L 36.8125 54.6875 
L 36.8125 47.703125 
L 18.3125 47.703125 
L 18.3125 18.015625 
Q 18.3125 11.328125 20.140625 9.421875 
Q 21.96875 7.515625 27.59375 7.515625 
L 36.8125 7.515625 
L 36.8125 0 
L 27.59375 0 
Q 17.1875 0 13.234375 3.875 
Q 9.28125 7.765625 9.28125 18.015625 
L 9.28125 47.703125 
L 2.6875 47.703125 
L 2.6875 54.6875 
L 9.28125 54.6875 
L 9.28125 70.21875 
z
" id="DejaVuSans-116"/>
      <path d="M 54.890625 33.015625 
L 54.890625 0 
L 45.90625 0 
L 45.90625 32.71875 
Q 45.90625 40.484375 42.875 44.328125 
Q 39.84375 48.1875 33.796875 48.1875 
Q 26.515625 48.1875 22.3125 43.546875 
Q 18.109375 38.921875 18.109375 30.90625 
L 18.109375 0 
L 9.078125 0 
L 9.078125 54.6875 
L 18.109375 54.6875 
L 18.109375 46.1875 
Q 21.34375 51.125 25.703125 53.5625 
Q 30.078125 56 35.796875 56 
Q 45.21875 56 50.046875 50.171875 
Q 54.890625 44.34375 54.890625 33.015625 
z
" id="DejaVuSans-110"/>
     </defs>
     <g transform="translate(470.135938 140.192187)scale(0.14 -0.14)">
      <use xlink:href="#DejaVuSans-69"/>
      <use x="63.183594" xlink:href="#DejaVuSans-113"/>
      <use x="126.660156" xlink:href="#DejaVuSans-117"/>
      <use x="190.039062" xlink:href="#DejaVuSans-105"/>
      <use x="217.822266" xlink:href="#DejaVuSans-108"/>
      <use x="245.605469" xlink:href="#DejaVuSans-105"/>
      <use x="273.388672" xlink:href="#DejaVuSans-98"/>
      <use x="336.865234" xlink:href="#DejaVuSans-114"/>
      <use x="377.978516" xlink:href="#DejaVuSans-105"/>
      <use x="405.761719" xlink:href="#DejaVuSans-117"/>
      <use x="469.140625" xlink:href="#DejaVuSans-109"/>
      <use x="566.552734" xlink:href="#DejaVuSans-32"/>
      <use x="598.339844" xlink:href="#DejaVuSans-80"/>
      <use x="655.017578" xlink:href="#DejaVuSans-111"/>
      <use x="716.199219" xlink:href="#DejaVuSans-115"/>
      <use x="768.298828" xlink:href="#DejaVuSans-105"/>
      <use x="796.082031" xlink:href="#DejaVuSans-116"/>
      <use x="835.291016" xlink:href="#DejaVuSans-105"/>
      <use x="863.074219" xlink:href="#DejaVuSans-111"/>
      <use x="924.255859" xlink:href="#DejaVuSans-110"/>
     </g>
    </g>
    <g id="line2d_55">
     <path d="M 430.935938 155.841562 
L 458.935938 155.841562 
" style="fill:none;stroke:#008000;stroke-linecap:square;stroke-width:1.5;"/>
    </g>
    <g id="line2d_56">
     <g>
      <use style="fill:#008000;stroke:#008000;" x="444.935938" xlink:href="#mc5022ea517" y="155.841562"/>
     </g>
    </g>
    <g id="text_16">
     <!-- Prefrontal -->
     <defs>
      <path d="M 56.203125 29.59375 
L 56.203125 25.203125 
L 14.890625 25.203125 
Q 15.484375 15.921875 20.484375 11.0625 
Q 25.484375 6.203125 34.421875 6.203125 
Q 39.59375 6.203125 44.453125 7.46875 
Q 49.3125 8.734375 54.109375 11.28125 
L 54.109375 2.78125 
Q 49.265625 0.734375 44.1875 -0.34375 
Q 39.109375 -1.421875 33.890625 -1.421875 
Q 20.796875 -1.421875 13.15625 6.1875 
Q 5.515625 13.8125 5.515625 26.8125 
Q 5.515625 40.234375 12.765625 48.109375 
Q 20.015625 56 32.328125 56 
Q 43.359375 56 49.78125 48.890625 
Q 56.203125 41.796875 56.203125 29.59375 
z
M 47.21875 32.234375 
Q 47.125 39.59375 43.09375 43.984375 
Q 39.0625 48.390625 32.421875 48.390625 
Q 24.90625 48.390625 20.390625 44.140625 
Q 15.875 39.890625 15.1875 32.171875 
z
" id="DejaVuSans-101"/>
      <path d="M 37.109375 75.984375 
L 37.109375 68.5 
L 28.515625 68.5 
Q 23.6875 68.5 21.796875 66.546875 
Q 19.921875 64.59375 19.921875 59.515625 
L 19.921875 54.6875 
L 34.71875 54.6875 
L 34.71875 47.703125 
L 19.921875 47.703125 
L 19.921875 0 
L 10.890625 0 
L 10.890625 47.703125 
L 2.296875 47.703125 
L 2.296875 54.6875 
L 10.890625 54.6875 
L 10.890625 58.5 
Q 10.890625 67.625 15.140625 71.796875 
Q 19.390625 75.984375 28.609375 75.984375 
z
" id="DejaVuSans-102"/>
     </defs>
     <g transform="translate(470.135938 160.741562)scale(0.14 -0.14)">
      <use xlink:href="#DejaVuSans-80"/>
      <use x="58.552734" xlink:href="#DejaVuSans-114"/>
      <use x="97.416016" xlink:href="#DejaVuSans-101"/>
      <use x="158.939453" xlink:href="#DejaVuSans-102"/>
      <use x="194.144531" xlink:href="#DejaVuSans-114"/>
      <use x="233.007812" xlink:href="#DejaVuSans-111"/>
      <use x="294.189453" xlink:href="#DejaVuSans-110"/>
      <use x="357.568359" xlink:href="#DejaVuSans-116"/>
      <use x="396.777344" xlink:href="#DejaVuSans-97"/>
      <use x="458.056641" xlink:href="#DejaVuSans-108"/>
     </g>
    </g>
    <g id="line2d_57">
     <path d="M 430.935938 176.390937 
L 458.935938 176.390937 
" style="fill:none;stroke:#ff8c00;stroke-linecap:square;stroke-width:1.5;"/>
    </g>
    <g id="line2d_58">
     <g>
      <use style="fill:#ff8c00;stroke:#ff8c00;" x="444.935938" xlink:href="#m211c94e917" y="176.390937"/>
     </g>
    </g>
    <g id="text_17">
     <!-- Anterolateral -->
     <defs>
      <path d="M 34.1875 63.1875 
L 20.796875 26.90625 
L 47.609375 26.90625 
z
M 28.609375 72.90625 
L 39.796875 72.90625 
L 67.578125 0 
L 57.328125 0 
L 50.6875 18.703125 
L 17.828125 18.703125 
L 11.1875 0 
L 0.78125 0 
z
" id="DejaVuSans-65"/>
     </defs>
     <g transform="translate(470.135938 181.290937)scale(0.14 -0.14)">
      <use xlink:href="#DejaVuSans-65"/>
      <use x="68.408203" xlink:href="#DejaVuSans-110"/>
      <use x="131.787109" xlink:href="#DejaVuSans-116"/>
      <use x="170.996094" xlink:href="#DejaVuSans-101"/>
      <use x="232.519531" xlink:href="#DejaVuSans-114"/>
      <use x="271.382812" xlink:href="#DejaVuSans-111"/>
      <use x="332.564453" xlink:href="#DejaVuSans-108"/>
      <use x="360.347656" xlink:href="#DejaVuSans-97"/>
      <use x="421.626953" xlink:href="#DejaVuSans-116"/>
      <use x="460.835938" xlink:href="#DejaVuSans-101"/>
      <use x="522.359375" xlink:href="#DejaVuSans-114"/>
      <use x="563.472656" xlink:href="#DejaVuSans-97"/>
      <use x="624.751953" xlink:href="#DejaVuSans-108"/>
     </g>
    </g>
    <g id="line2d_59">
     <path d="M 430.935938 196.940312 
L 458.935938 196.940312 
" style="fill:none;stroke:#dda0dd;stroke-linecap:square;stroke-width:1.5;"/>
    </g>
    <g id="line2d_60">
     <g>
      <use style="fill:#dda0dd;stroke:#dda0dd;" x="444.935938" xlink:href="#m9962d3e1c6" y="196.940312"/>
     </g>
    </g>
    <g id="text_18">
     <!-- Visual -->
     <g transform="translate(470.135938 201.840312)scale(0.14 -0.14)">
      <use xlink:href="#DejaVuSans-86"/>
      <use x="66.158203" xlink:href="#DejaVuSans-105"/>
      <use x="93.941406" xlink:href="#DejaVuSans-115"/>
      <use x="146.041016" xlink:href="#DejaVuSans-117"/>
      <use x="209.419922" xlink:href="#DejaVuSans-97"/>
      <use x="270.699219" xlink:href="#DejaVuSans-108"/>
     </g>
    </g>
    <g id="line2d_61">
     <path d="M 430.935938 217.489687 
L 458.935938 217.489687 
" style="fill:none;stroke:#ffd700;stroke-linecap:square;stroke-width:1.5;"/>
    </g>
    <g id="line2d_62">
     <g>
      <use style="fill:#ffd700;stroke:#ffd700;" x="444.935938" xlink:href="#m72b72e7992" y="217.489687"/>
     </g>
    </g>
    <g id="text_19">
     <!-- Temporal -->
     <defs>
      <path d="M -0.296875 72.90625 
L 61.375 72.90625 
L 61.375 64.59375 
L 35.5 64.59375 
L 35.5 0 
L 25.59375 0 
L 25.59375 64.59375 
L -0.296875 64.59375 
z
" id="DejaVuSans-84"/>
      <path d="M 18.109375 8.203125 
L 18.109375 -20.796875 
L 9.078125 -20.796875 
L 9.078125 54.6875 
L 18.109375 54.6875 
L 18.109375 46.390625 
Q 20.953125 51.265625 25.265625 53.625 
Q 29.59375 56 35.59375 56 
Q 45.5625 56 51.78125 48.09375 
Q 58.015625 40.1875 58.015625 27.296875 
Q 58.015625 14.40625 51.78125 6.484375 
Q 45.5625 -1.421875 35.59375 -1.421875 
Q 29.59375 -1.421875 25.265625 0.953125 
Q 20.953125 3.328125 18.109375 8.203125 
z
M 48.6875 27.296875 
Q 48.6875 37.203125 44.609375 42.84375 
Q 40.53125 48.484375 33.40625 48.484375 
Q 26.265625 48.484375 22.1875 42.84375 
Q 18.109375 37.203125 18.109375 27.296875 
Q 18.109375 17.390625 22.1875 11.75 
Q 26.265625 6.109375 33.40625 6.109375 
Q 40.53125 6.109375 44.609375 11.75 
Q 48.6875 17.390625 48.6875 27.296875 
z
" id="DejaVuSans-112"/>
     </defs>
     <g transform="translate(470.135938 222.389687)scale(0.14 -0.14)">
      <use xlink:href="#DejaVuSans-84"/>
      <use x="44.083984" xlink:href="#DejaVuSans-101"/>
      <use x="105.607422" xlink:href="#DejaVuSans-109"/>
      <use x="203.019531" xlink:href="#DejaVuSans-112"/>
      <use x="266.496094" xlink:href="#DejaVuSans-111"/>
      <use x="327.677734" xlink:href="#DejaVuSans-114"/>
      <use x="368.791016" xlink:href="#DejaVuSans-97"/>
      <use x="430.070312" xlink:href="#DejaVuSans-108"/>
     </g>
    </g>
    <g id="line2d_63">
     <path d="M 430.935938 238.039062 
L 458.935938 238.039062 
" style="fill:none;stroke:#add8e6;stroke-linecap:square;stroke-width:1.5;"/>
    </g>
    <g id="line2d_64">
     <g>
      <use style="fill:#add8e6;stroke:#add8e6;" x="444.935938" xlink:href="#mc9d56939bd" y="238.039062"/>
     </g>
    </g>
    <g id="text_20">
     <!-- Medial -->
     <defs>
      <path d="M 9.8125 72.90625 
L 24.515625 72.90625 
L 43.109375 23.296875 
L 61.8125 72.90625 
L 76.515625 72.90625 
L 76.515625 0 
L 66.890625 0 
L 66.890625 64.015625 
L 48.09375 14.015625 
L 38.1875 14.015625 
L 19.390625 64.015625 
L 19.390625 0 
L 9.8125 0 
z
" id="DejaVuSans-77"/>
      <path d="M 45.40625 46.390625 
L 45.40625 75.984375 
L 54.390625 75.984375 
L 54.390625 0 
L 45.40625 0 
L 45.40625 8.203125 
Q 42.578125 3.328125 38.25 0.953125 
Q 33.9375 -1.421875 27.875 -1.421875 
Q 17.96875 -1.421875 11.734375 6.484375 
Q 5.515625 14.40625 5.515625 27.296875 
Q 5.515625 40.1875 11.734375 48.09375 
Q 17.96875 56 27.875 56 
Q 33.9375 56 38.25 53.625 
Q 42.578125 51.265625 45.40625 46.390625 
z
M 14.796875 27.296875 
Q 14.796875 17.390625 18.875 11.75 
Q 22.953125 6.109375 30.078125 6.109375 
Q 37.203125 6.109375 41.296875 11.75 
Q 45.40625 17.390625 45.40625 27.296875 
Q 45.40625 37.203125 41.296875 42.84375 
Q 37.203125 48.484375 30.078125 48.484375 
Q 22.953125 48.484375 18.875 42.84375 
Q 14.796875 37.203125 14.796875 27.296875 
z
" id="DejaVuSans-100"/>
     </defs>
     <g transform="translate(470.135938 242.939062)scale(0.14 -0.14)">
      <use xlink:href="#DejaVuSans-77"/>
      <use x="86.279297" xlink:href="#DejaVuSans-101"/>
      <use x="147.802734" xlink:href="#DejaVuSans-100"/>
      <use x="211.279297" xlink:href="#DejaVuSans-105"/>
      <use x="239.0625" xlink:href="#DejaVuSans-97"/>
      <use x="300.341797" xlink:href="#DejaVuSans-108"/>
     </g>
    </g>
    <g id="line2d_65">
     <path d="M 430.935938 258.588437 
L 458.935938 258.588437 
" style="fill:none;stroke:#ffc0cb;stroke-linecap:square;stroke-width:1.5;"/>
    </g>
    <g id="line2d_66">
     <g>
      <use style="fill:#ffc0cb;stroke:#ffc0cb;" x="444.935938" xlink:href="#m2767434697" y="258.588437"/>
     </g>
    </g>
    <g id="text_21">
     <!-- Somatomotor -->
     <defs>
      <path d="M 53.515625 70.515625 
L 53.515625 60.890625 
Q 47.90625 63.578125 42.921875 64.890625 
Q 37.9375 66.21875 33.296875 66.21875 
Q 25.25 66.21875 20.875 63.09375 
Q 16.5 59.96875 16.5 54.203125 
Q 16.5 49.359375 19.40625 46.890625 
Q 22.3125 44.4375 30.421875 42.921875 
L 36.375 41.703125 
Q 47.40625 39.59375 52.65625 34.296875 
Q 57.90625 29 57.90625 20.125 
Q 57.90625 9.515625 50.796875 4.046875 
Q 43.703125 -1.421875 29.984375 -1.421875 
Q 24.8125 -1.421875 18.96875 -0.25 
Q 13.140625 0.921875 6.890625 3.21875 
L 6.890625 13.375 
Q 12.890625 10.015625 18.65625 8.296875 
Q 24.421875 6.59375 29.984375 6.59375 
Q 38.421875 6.59375 43.015625 9.90625 
Q 47.609375 13.234375 47.609375 19.390625 
Q 47.609375 24.75 44.3125 27.78125 
Q 41.015625 30.8125 33.5 32.328125 
L 27.484375 33.5 
Q 16.453125 35.6875 11.515625 40.375 
Q 6.59375 45.0625 6.59375 53.421875 
Q 6.59375 63.09375 13.40625 68.65625 
Q 20.21875 74.21875 32.171875 74.21875 
Q 37.3125 74.21875 42.625 73.28125 
Q 47.953125 72.359375 53.515625 70.515625 
z
" id="DejaVuSans-83"/>
     </defs>
     <g transform="translate(470.135938 263.488437)scale(0.14 -0.14)">
      <use xlink:href="#DejaVuSans-83"/>
      <use x="63.476562" xlink:href="#DejaVuSans-111"/>
      <use x="124.658203" xlink:href="#DejaVuSans-109"/>
      <use x="222.070312" xlink:href="#DejaVuSans-97"/>
      <use x="283.349609" xlink:href="#DejaVuSans-116"/>
      <use x="322.558594" xlink:href="#DejaVuSans-111"/>
      <use x="383.740234" xlink:href="#DejaVuSans-109"/>
      <use x="481.152344" xlink:href="#DejaVuSans-111"/>
      <use x="542.333984" xlink:href="#DejaVuSans-116"/>
      <use x="581.542969" xlink:href="#DejaVuSans-111"/>
      <use x="642.724609" xlink:href="#DejaVuSans-114"/>
     </g>
    </g>
   </g>
  </g>
 </g>
 <defs>
  <clipPath id="p1c02081614">
   <rect height="271.8" width="558" x="63.00125" y="7.2"/>
  </clipPath>
 </defs>
</svg>
