<?xml version="1.0" encoding="utf-8" standalone="no"?>
<!DOCTYPE svg PUBLIC "-//W3C//DTD SVG 1.1//EN"
  "http://www.w3.org/Graphics/SVG/1.1/DTD/svg11.dtd">
<!-- Created with matplotlib (https://matplotlib.org/) -->
<svg height="353.285pt" version="1.1" viewBox="0 0 628.20125 353.285" width="628.20125pt" xmlns="http://www.w3.org/2000/svg" xmlns:xlink="http://www.w3.org/1999/xlink">
 <defs>
  <style type="text/css">
*{stroke-linecap:butt;stroke-linejoin:round;}
  </style>
 </defs>
 <g id="figure_1">
  <g id="patch_1">
   <path d="M 0 353.285 
L 628.20125 353.285 
L 628.20125 0 
L 0 0 
z
" style="fill:none;"/>
  </g>
  <g id="axes_1">
   <g id="patch_2">
    <path d="M 63.00125 300.2 
L 621.00125 300.2 
L 621.00125 28.4 
L 63.00125 28.4 
z
" style="fill:#ffffff;"/>
   </g>
   <g id="matplotlib.axis_1">
    <g id="xtick_1">
     <g id="line2d_1">
      <defs>
       <path d="M 0 0 
L 0 3.5 
" id="mad66efdcf0" style="stroke:#000000;stroke-width:0.8;"/>
      </defs>
      <g>
       <use style="stroke:#000000;stroke-width:0.8;" x="88.364886" xlink:href="#mad66efdcf0" y="300.2"/>
      </g>
     </g>
     <g id="text_1">
      <!-- 0 -->
      <defs>
       <path d="M 31.78125 66.40625 
Q 24.171875 66.40625 20.328125 58.90625 
Q 16.5 51.421875 16.5 36.375 
Q 16.5 21.390625 20.328125 13.890625 
Q 24.171875 6.390625 31.78125 6.390625 
Q 39.453125 6.390625 43.28125 13.890625 
Q 47.125 21.390625 47.125 36.375 
Q 47.125 51.421875 43.28125 58.90625 
Q 39.453125 66.40625 31.78125 66.40625 
z
M 31.78125 74.21875 
Q 44.046875 74.21875 50.515625 64.515625 
Q 56.984375 54.828125 56.984375 36.375 
Q 56.984375 17.96875 50.515625 8.265625 
Q 44.046875 -1.421875 31.78125 -1.421875 
Q 19.53125 -1.421875 13.0625 8.265625 
Q 6.59375 17.96875 6.59375 36.375 
Q 6.59375 54.828125 13.0625 64.515625 
Q 19.53125 74.21875 31.78125 74.21875 
z
" id="DejaVuSans-48"/>
      </defs>
      <g transform="translate(83.274886 319.3575)scale(0.16 -0.16)">
       <use xlink:href="#DejaVuSans-48"/>
      </g>
     </g>
    </g>
    <g id="xtick_2">
     <g id="line2d_2">
      <g>
       <use style="stroke:#000000;stroke-width:0.8;" x="190.844225" xlink:href="#mad66efdcf0" y="300.2"/>
      </g>
     </g>
     <g id="text_2">
      <!-- 1 -->
      <defs>
       <path d="M 12.40625 8.296875 
L 28.515625 8.296875 
L 28.515625 63.921875 
L 10.984375 60.40625 
L 10.984375 69.390625 
L 28.421875 72.90625 
L 38.28125 72.90625 
L 38.28125 8.296875 
L 54.390625 8.296875 
L 54.390625 0 
L 12.40625 0 
z
" id="DejaVuSans-49"/>
      </defs>
      <g transform="translate(185.754225 319.3575)scale(0.16 -0.16)">
       <use xlink:href="#DejaVuSans-49"/>
      </g>
     </g>
    </g>
    <g id="xtick_3">
     <g id="line2d_3">
      <g>
       <use style="stroke:#000000;stroke-width:0.8;" x="293.323564" xlink:href="#mad66efdcf0" y="300.2"/>
      </g>
     </g>
     <g id="text_3">
      <!-- 2 -->
      <defs>
       <path d="M 19.1875 8.296875 
L 53.609375 8.296875 
L 53.609375 0 
L 7.328125 0 
L 7.328125 8.296875 
Q 12.9375 14.109375 22.625 23.890625 
Q 32.328125 33.6875 34.8125 36.53125 
Q 39.546875 41.84375 41.421875 45.53125 
Q 43.3125 49.21875 43.3125 52.78125 
Q 43.3125 58.59375 39.234375 62.25 
Q 35.15625 65.921875 28.609375 65.921875 
Q 23.96875 65.921875 18.8125 64.3125 
Q 13.671875 62.703125 7.8125 59.421875 
L 7.8125 69.390625 
Q 13.765625 71.78125 18.9375 73 
Q 24.125 74.21875 28.421875 74.21875 
Q 39.75 74.21875 46.484375 68.546875 
Q 53.21875 62.890625 53.21875 53.421875 
Q 53.21875 48.921875 51.53125 44.890625 
Q 49.859375 40.875 45.40625 35.40625 
Q 44.1875 33.984375 37.640625 27.21875 
Q 31.109375 20.453125 19.1875 8.296875 
z
" id="DejaVuSans-50"/>
      </defs>
      <g transform="translate(288.233564 319.3575)scale(0.16 -0.16)">
       <use xlink:href="#DejaVuSans-50"/>
      </g>
     </g>
    </g>
    <g id="xtick_4">
     <g id="line2d_4">
      <g>
       <use style="stroke:#000000;stroke-width:0.8;" x="395.802903" xlink:href="#mad66efdcf0" y="300.2"/>
      </g>
     </g>
     <g id="text_4">
      <!-- 3 -->
      <defs>
       <path d="M 40.578125 39.3125 
Q 47.65625 37.796875 51.625 33 
Q 55.609375 28.21875 55.609375 21.1875 
Q 55.609375 10.40625 48.1875 4.484375 
Q 40.765625 -1.421875 27.09375 -1.421875 
Q 22.515625 -1.421875 17.65625 -0.515625 
Q 12.796875 0.390625 7.625 2.203125 
L 7.625 11.71875 
Q 11.71875 9.328125 16.59375 8.109375 
Q 21.484375 6.890625 26.8125 6.890625 
Q 36.078125 6.890625 40.9375 10.546875 
Q 45.796875 14.203125 45.796875 21.1875 
Q 45.796875 27.640625 41.28125 31.265625 
Q 36.765625 34.90625 28.71875 34.90625 
L 20.21875 34.90625 
L 20.21875 43.015625 
L 29.109375 43.015625 
Q 36.375 43.015625 40.234375 45.921875 
Q 44.09375 48.828125 44.09375 54.296875 
Q 44.09375 59.90625 40.109375 62.90625 
Q 36.140625 65.921875 28.71875 65.921875 
Q 24.65625 65.921875 20.015625 65.03125 
Q 15.375 64.15625 9.8125 62.3125 
L 9.8125 71.09375 
Q 15.4375 72.65625 20.34375 73.4375 
Q 25.25 74.21875 29.59375 74.21875 
Q 40.828125 74.21875 47.359375 69.109375 
Q 53.90625 64.015625 53.90625 55.328125 
Q 53.90625 49.265625 50.4375 45.09375 
Q 46.96875 40.921875 40.578125 39.3125 
z
" id="DejaVuSans-51"/>
      </defs>
      <g transform="translate(390.712903 319.3575)scale(0.16 -0.16)">
       <use xlink:href="#DejaVuSans-51"/>
      </g>
     </g>
    </g>
    <g id="xtick_5">
     <g id="line2d_5">
      <g>
       <use style="stroke:#000000;stroke-width:0.8;" x="498.282242" xlink:href="#mad66efdcf0" y="300.2"/>
      </g>
     </g>
     <g id="text_5">
      <!-- 4 -->
      <defs>
       <path d="M 37.796875 64.3125 
L 12.890625 25.390625 
L 37.796875 25.390625 
z
M 35.203125 72.90625 
L 47.609375 72.90625 
L 47.609375 25.390625 
L 58.015625 25.390625 
L 58.015625 17.1875 
L 47.609375 17.1875 
L 47.609375 0 
L 37.796875 0 
L 37.796875 17.1875 
L 4.890625 17.1875 
L 4.890625 26.703125 
z
" id="DejaVuSans-52"/>
      </defs>
      <g transform="translate(493.192242 319.3575)scale(0.16 -0.16)">
       <use xlink:href="#DejaVuSans-52"/>
      </g>
     </g>
    </g>
    <g id="xtick_6">
     <g id="line2d_6">
      <g>
       <use style="stroke:#000000;stroke-width:0.8;" x="600.761581" xlink:href="#mad66efdcf0" y="300.2"/>
      </g>
     </g>
     <g id="text_6">
      <!-- 5 -->
      <defs>
       <path d="M 10.796875 72.90625 
L 49.515625 72.90625 
L 49.515625 64.59375 
L 19.828125 64.59375 
L 19.828125 46.734375 
Q 21.96875 47.46875 24.109375 47.828125 
Q 26.265625 48.1875 28.421875 48.1875 
Q 40.625 48.1875 47.75 41.5 
Q 54.890625 34.8125 54.890625 23.390625 
Q 54.890625 11.625 47.5625 5.09375 
Q 40.234375 -1.421875 26.90625 -1.421875 
Q 22.3125 -1.421875 17.546875 -0.640625 
Q 12.796875 0.140625 7.71875 1.703125 
L 7.71875 11.625 
Q 12.109375 9.234375 16.796875 8.0625 
Q 21.484375 6.890625 26.703125 6.890625 
Q 35.15625 6.890625 40.078125 11.328125 
Q 45.015625 15.765625 45.015625 23.390625 
Q 45.015625 31 40.078125 35.4375 
Q 35.15625 39.890625 26.703125 39.890625 
Q 22.75 39.890625 18.8125 39.015625 
Q 14.890625 38.140625 10.796875 36.28125 
z
" id="DejaVuSans-53"/>
      </defs>
      <g transform="translate(595.671581 319.3575)scale(0.16 -0.16)">
       <use xlink:href="#DejaVuSans-53"/>
      </g>
     </g>
    </g>
    <g id="text_7">
     <!-- $J_e$ (mV) -->
     <defs>
      <path d="M 16.703125 72.90625 
L 26.609375 72.90625 
L 13.375 5.078125 
Q 10.796875 -8.15625 4.65625 -14.078125 
Q -1.46875 -20.015625 -12.5 -20.015625 
L -16.40625 -20.015625 
L -14.796875 -11.71875 
L -11.71875 -11.71875 
Q -5.125 -11.71875 -1.703125 -7.953125 
Q 1.703125 -4.203125 3.515625 5.078125 
z
" id="DejaVuSans-Oblique-74"/>
      <path d="M 48.09375 32.234375 
Q 48.25 33.015625 48.3125 33.84375 
Q 48.390625 34.671875 48.390625 35.5 
Q 48.390625 41.453125 44.890625 44.921875 
Q 41.40625 48.390625 35.40625 48.390625 
Q 28.71875 48.390625 23.578125 44.15625 
Q 18.453125 39.9375 15.828125 32.171875 
z
M 55.90625 25.203125 
L 14.109375 25.203125 
Q 13.8125 23.34375 13.71875 22.265625 
Q 13.625 21.1875 13.625 20.40625 
Q 13.625 13.625 17.796875 9.90625 
Q 21.96875 6.203125 29.59375 6.203125 
Q 35.453125 6.203125 40.671875 7.515625 
Q 45.90625 8.84375 50.390625 11.375 
L 48.6875 2.484375 
Q 43.84375 0.53125 38.6875 -0.4375 
Q 33.546875 -1.421875 28.21875 -1.421875 
Q 16.84375 -1.421875 10.71875 4.015625 
Q 4.59375 9.46875 4.59375 19.484375 
Q 4.59375 28.03125 7.640625 35.375 
Q 10.6875 42.71875 16.609375 48.484375 
Q 20.40625 52.09375 25.65625 54.046875 
Q 30.90625 56 36.8125 56 
Q 46.09375 56 51.578125 50.4375 
Q 57.078125 44.875 57.078125 35.5 
Q 57.078125 33.25 56.78125 30.6875 
Q 56.5 28.125 55.90625 25.203125 
z
" id="DejaVuSans-Oblique-101"/>
      <path id="DejaVuSans-32"/>
      <path d="M 31 75.875 
Q 24.46875 64.65625 21.28125 53.65625 
Q 18.109375 42.671875 18.109375 31.390625 
Q 18.109375 20.125 21.3125 9.0625 
Q 24.515625 -2 31 -13.1875 
L 23.1875 -13.1875 
Q 15.875 -1.703125 12.234375 9.375 
Q 8.59375 20.453125 8.59375 31.390625 
Q 8.59375 42.28125 12.203125 53.3125 
Q 15.828125 64.359375 23.1875 75.875 
z
" id="DejaVuSans-40"/>
      <path d="M 52 44.1875 
Q 55.375 50.25 60.0625 53.125 
Q 64.75 56 71.09375 56 
Q 79.640625 56 84.28125 50.015625 
Q 88.921875 44.046875 88.921875 33.015625 
L 88.921875 0 
L 79.890625 0 
L 79.890625 32.71875 
Q 79.890625 40.578125 77.09375 44.375 
Q 74.3125 48.1875 68.609375 48.1875 
Q 61.625 48.1875 57.5625 43.546875 
Q 53.515625 38.921875 53.515625 30.90625 
L 53.515625 0 
L 44.484375 0 
L 44.484375 32.71875 
Q 44.484375 40.625 41.703125 44.40625 
Q 38.921875 48.1875 33.109375 48.1875 
Q 26.21875 48.1875 22.15625 43.53125 
Q 18.109375 38.875 18.109375 30.90625 
L 18.109375 0 
L 9.078125 0 
L 9.078125 54.6875 
L 18.109375 54.6875 
L 18.109375 46.1875 
Q 21.1875 51.21875 25.484375 53.609375 
Q 29.78125 56 35.6875 56 
Q 41.65625 56 45.828125 52.96875 
Q 50 49.953125 52 44.1875 
z
" id="DejaVuSans-109"/>
      <path d="M 28.609375 0 
L 0.78125 72.90625 
L 11.078125 72.90625 
L 34.1875 11.53125 
L 57.328125 72.90625 
L 67.578125 72.90625 
L 39.796875 0 
z
" id="DejaVuSans-86"/>
      <path d="M 8.015625 75.875 
L 15.828125 75.875 
Q 23.140625 64.359375 26.78125 53.3125 
Q 30.421875 42.28125 30.421875 31.390625 
Q 30.421875 20.453125 26.78125 9.375 
Q 23.140625 -1.703125 15.828125 -13.1875 
L 8.015625 -13.1875 
Q 14.5 -2 17.703125 9.0625 
Q 20.90625 20.125 20.90625 31.390625 
Q 20.90625 42.671875 17.703125 53.65625 
Q 14.5 64.65625 8.015625 75.875 
z
" id="DejaVuSans-41"/>
     </defs>
     <g transform="translate(306.90125 341.885)scale(0.2 -0.2)">
      <use transform="translate(0 0.125)" xlink:href="#DejaVuSans-Oblique-74"/>
      <use transform="translate(29.492188 -16.28125)scale(0.7)" xlink:href="#DejaVuSans-Oblique-101"/>
      <use transform="translate(75.292969 0.125)" xlink:href="#DejaVuSans-32"/>
      <use transform="translate(107.080078 0.125)" xlink:href="#DejaVuSans-40"/>
      <use transform="translate(146.09375 0.125)" xlink:href="#DejaVuSans-109"/>
      <use transform="translate(243.505859 0.125)" xlink:href="#DejaVuSans-86"/>
      <use transform="translate(311.914062 0.125)" xlink:href="#DejaVuSans-41"/>
     </g>
    </g>
   </g>
   <g id="matplotlib.axis_2">
    <g id="ytick_1">
     <g id="line2d_7">
      <defs>
       <path d="M 0 0 
L -3.5 0 
" id="m99c203c0e1" style="stroke:#000000;stroke-width:0.8;"/>
      </defs>
      <g>
       <use style="stroke:#000000;stroke-width:0.8;" x="63.00125" xlink:href="#m99c203c0e1" y="251.682462"/>
      </g>
     </g>
     <g id="text_8">
      <!-- 0.1 -->
      <defs>
       <path d="M 10.6875 12.40625 
L 21 12.40625 
L 21 0 
L 10.6875 0 
z
" id="DejaVuSans-46"/>
      </defs>
      <g transform="translate(30.55625 257.761212)scale(0.16 -0.16)">
       <use xlink:href="#DejaVuSans-48"/>
       <use x="63.623047" xlink:href="#DejaVuSans-46"/>
       <use x="95.410156" xlink:href="#DejaVuSans-49"/>
      </g>
     </g>
    </g>
    <g id="ytick_2">
     <g id="line2d_8">
      <g>
       <use style="stroke:#000000;stroke-width:0.8;" x="63.00125" xlink:href="#m99c203c0e1" y="197.543168"/>
      </g>
     </g>
     <g id="text_9">
      <!-- 0.2 -->
      <g transform="translate(30.55625 203.621918)scale(0.16 -0.16)">
       <use xlink:href="#DejaVuSans-48"/>
       <use x="63.623047" xlink:href="#DejaVuSans-46"/>
       <use x="95.410156" xlink:href="#DejaVuSans-50"/>
      </g>
     </g>
    </g>
    <g id="ytick_3">
     <g id="line2d_9">
      <g>
       <use style="stroke:#000000;stroke-width:0.8;" x="63.00125" xlink:href="#m99c203c0e1" y="143.403875"/>
      </g>
     </g>
     <g id="text_10">
      <!-- 0.3 -->
      <g transform="translate(30.55625 149.482625)scale(0.16 -0.16)">
       <use xlink:href="#DejaVuSans-48"/>
       <use x="63.623047" xlink:href="#DejaVuSans-46"/>
       <use x="95.410156" xlink:href="#DejaVuSans-51"/>
      </g>
     </g>
    </g>
    <g id="ytick_4">
     <g id="line2d_10">
      <g>
       <use style="stroke:#000000;stroke-width:0.8;" x="63.00125" xlink:href="#m99c203c0e1" y="89.264581"/>
      </g>
     </g>
     <g id="text_11">
      <!-- 0.4 -->
      <g transform="translate(30.55625 95.343331)scale(0.16 -0.16)">
       <use xlink:href="#DejaVuSans-48"/>
       <use x="63.623047" xlink:href="#DejaVuSans-46"/>
       <use x="95.410156" xlink:href="#DejaVuSans-52"/>
      </g>
     </g>
    </g>
    <g id="ytick_5">
     <g id="line2d_11">
      <g>
       <use style="stroke:#000000;stroke-width:0.8;" x="63.00125" xlink:href="#m99c203c0e1" y="35.125288"/>
      </g>
     </g>
     <g id="text_12">
      <!-- 0.5 -->
      <g transform="translate(30.55625 41.204038)scale(0.16 -0.16)">
       <use xlink:href="#DejaVuSans-48"/>
       <use x="63.623047" xlink:href="#DejaVuSans-46"/>
       <use x="95.410156" xlink:href="#DejaVuSans-53"/>
      </g>
     </g>
    </g>
    <g id="text_13">
     <!-- $E$ (au) -->
     <defs>
      <path d="M 16.890625 72.90625 
L 62.984375 72.90625 
L 61.375 64.59375 
L 25.09375 64.59375 
L 20.90625 43.015625 
L 55.71875 43.015625 
L 54.109375 34.71875 
L 19.28125 34.71875 
L 14.203125 8.296875 
L 51.3125 8.296875 
L 49.703125 0 
L 2.6875 0 
z
" id="DejaVuSans-Oblique-69"/>
      <path d="M 34.28125 27.484375 
Q 23.390625 27.484375 19.1875 25 
Q 14.984375 22.515625 14.984375 16.5 
Q 14.984375 11.71875 18.140625 8.90625 
Q 21.296875 6.109375 26.703125 6.109375 
Q 34.1875 6.109375 38.703125 11.40625 
Q 43.21875 16.703125 43.21875 25.484375 
L 43.21875 27.484375 
z
M 52.203125 31.203125 
L 52.203125 0 
L 43.21875 0 
L 43.21875 8.296875 
Q 40.140625 3.328125 35.546875 0.953125 
Q 30.953125 -1.421875 24.3125 -1.421875 
Q 15.921875 -1.421875 10.953125 3.296875 
Q 6 8.015625 6 15.921875 
Q 6 25.140625 12.171875 29.828125 
Q 18.359375 34.515625 30.609375 34.515625 
L 43.21875 34.515625 
L 43.21875 35.40625 
Q 43.21875 41.609375 39.140625 45 
Q 35.0625 48.390625 27.6875 48.390625 
Q 23 48.390625 18.546875 47.265625 
Q 14.109375 46.140625 10.015625 43.890625 
L 10.015625 52.203125 
Q 14.9375 54.109375 19.578125 55.046875 
Q 24.21875 56 28.609375 56 
Q 40.484375 56 46.34375 49.84375 
Q 52.203125 43.703125 52.203125 31.203125 
z
" id="DejaVuSans-97"/>
      <path d="M 8.5 21.578125 
L 8.5 54.6875 
L 17.484375 54.6875 
L 17.484375 21.921875 
Q 17.484375 14.15625 20.5 10.265625 
Q 23.53125 6.390625 29.59375 6.390625 
Q 36.859375 6.390625 41.078125 11.03125 
Q 45.3125 15.671875 45.3125 23.6875 
L 45.3125 54.6875 
L 54.296875 54.6875 
L 54.296875 0 
L 45.3125 0 
L 45.3125 8.40625 
Q 42.046875 3.421875 37.71875 1 
Q 33.40625 -1.421875 27.6875 -1.421875 
Q 18.265625 -1.421875 13.375 4.4375 
Q 8.5 10.296875 8.5 21.578125 
z
M 31.109375 56 
z
" id="DejaVuSans-117"/>
     </defs>
     <g transform="translate(22.396875 194.1)rotate(-90)scale(0.2 -0.2)">
      <use transform="translate(0 0.125)" xlink:href="#DejaVuSans-Oblique-69"/>
      <use transform="translate(63.183594 0.125)" xlink:href="#DejaVuSans-32"/>
      <use transform="translate(94.970703 0.125)" xlink:href="#DejaVuSans-40"/>
      <use transform="translate(133.984375 0.125)" xlink:href="#DejaVuSans-97"/>
      <use transform="translate(195.263672 0.125)" xlink:href="#DejaVuSans-117"/>
      <use transform="translate(258.642578 0.125)" xlink:href="#DejaVuSans-41"/>
     </g>
    </g>
   </g>
   <g id="line2d_12">
    <path clip-path="url(#pbe1ec87fd9)" d="M 88.364886 287.47366 
L 93.488853 286.410653 
L 98.61282 285.281545 
L 103.736787 284.082182 
L 108.860754 282.808258 
L 113.984721 281.455346 
L 119.108688 280.01895 
L 124.232655 278.494569 
L 129.356622 276.877783 
L 134.480589 275.164362 
L 139.604556 273.350393 
L 144.728523 271.432432 
L 149.85249 269.407674 
L 154.976457 267.274137 
L 160.100424 265.030839 
L 165.22439 262.677974 
L 170.348357 260.217041 
L 175.472324 257.650938 
L 180.596291 254.983977 
L 185.720258 252.221822 
L 190.844225 249.371349 
L 195.968192 246.440415 
L 201.092159 243.437582 
L 206.216126 240.371798 
L 211.340093 237.25207 
L 216.46406 234.087165 
L 221.588027 230.885346 
L 226.711994 227.653967 
L 231.835961 224.392846 
L 236.959928 197.281274 
L 242.083895 171.482064 
L 247.207862 153.70013 
L 252.331829 139.890507 
L 257.455795 128.850725 
L 262.579762 119.890777 
L 267.703729 112.524345 
L 272.827696 106.391748 
L 277.951663 101.224749 
L 283.07563 96.823254 
L 288.199597 93.036921 
L 293.323564 89.753043 
L 298.447531 86.885926 
L 303.571498 84.370365 
L 308.695465 82.156636 
L 313.819432 80.207309 
L 318.943399 78.494542 
L 324.067366 76.998955 
L 329.191333 75.708583 
L 334.3153 74.61917 
L 339.439267 73.73462 
L 344.563233 73.068974 
L 349.6872 72.649851 
L 354.811167 72.524175 
L 359.935134 72.768961 
L 365.059101 73.509643 
L 370.183068 74.955104 
L 375.307035 77.470183 
L 380.431002 81.75448 
L 385.554969 89.504621 
L 390.678936 111.558322 
L 395.802903 115.16271 
L 400.92687 111.503441 
L 406.050837 107.865749 
L 411.174804 104.264638 
L 416.298771 100.716231 
L 421.422738 97.23747 
L 426.546705 93.845317 
L 431.670671 90.555877 
L 436.794638 87.383546 
L 441.918605 84.340309 
L 447.042572 81.435265 
L 452.166539 78.674437 
L 457.290506 76.060833 
L 462.414473 73.594723 
L 467.53844 71.274045 
L 472.662407 69.094879 
L 477.786374 67.051921 
L 482.910341 65.138912 
L 488.034308 63.349009 
L 493.158275 61.675086 
L 498.282242 60.109961 
L 503.406209 58.646567 
L 508.530176 57.27807 
L 513.654143 55.997945 
L 518.77811 54.800022 
L 523.902076 53.67851 
L 529.026043 52.628002 
L 534.15001 51.643471 
L 539.273977 50.720257 
L 544.397944 49.854047 
L 549.521911 49.040856 
L 554.645878 48.277005 
L 559.769845 47.559101 
L 564.893812 46.884011 
L 570.017779 46.248844 
L 575.141746 45.650934 
L 580.265713 45.087815 
L 585.38968 44.557211 
L 590.513647 44.057014 
L 595.637614 43.585276 
" style="fill:none;stroke:#000000;stroke-linecap:square;stroke-width:1.5;"/>
   </g>
   <g id="line2d_13">
    <path clip-path="url(#pbe1ec87fd9)" d="M 88.364886 287.845455 
L 93.488853 286.82289 
L 98.61282 285.738314 
L 103.736787 284.58787 
L 108.860754 283.367525 
L 113.984721 282.07309 
L 119.108688 280.700247 
L 124.232655 279.244586 
L 129.356622 277.701659 
L 134.480589 276.067047 
L 139.604556 274.336447 
L 144.728523 272.505778 
L 149.85249 270.571308 
L 154.976457 268.529794 
L 160.100424 266.378648 
L 165.22439 264.116101 
L 170.348357 261.741374 
L 175.472324 259.254831 
L 180.596291 256.658106 
L 185.720258 253.95418 
L 190.844225 251.147405 
L 195.968192 248.243451 
L 201.092159 245.249182 
L 206.216126 242.172462 
L 211.340093 239.021905 
L 216.46406 235.806586 
L 221.588027 232.535748 
L 226.711994 229.218509 
L 231.835961 225.863616 
L 236.959928 222.479235 
L 242.083895 219.072803 
L 247.207862 215.650933 
L 252.331829 212.219368 
L 257.455795 208.7827 
L 262.579762 205.334444 
L 267.703729 192.436877 
L 272.827696 169.604429 
L 277.951663 156.178913 
L 283.07563 146.055361 
L 288.199597 137.931634 
L 293.323564 131.235851 
L 298.447531 125.642923 
L 303.571498 120.944387 
L 308.695465 116.999767 
L 313.819432 113.713923 
L 318.943399 111.026217 
L 324.067366 108.905466 
L 329.191333 107.349652 
L 334.3153 106.390125 
L 339.439267 106.103016 
L 344.563233 106.634508 
L 349.6872 108.259697 
L 354.811167 111.551273 
L 359.935134 118.089447 
L 365.059101 135.541672 
L 370.183068 134.944216 
L 375.307035 131.685472 
L 380.431002 128.43987 
L 385.554969 125.209853 
L 390.678936 121.998782 
L 395.802903 118.810212 
L 400.92687 115.648223 
L 406.050837 112.517395 
L 411.174804 109.422777 
L 416.298771 106.369816 
L 421.422738 103.36427 
L 426.546705 100.412094 
L 431.670671 97.519308 
L 436.794638 94.691842 
L 441.918605 91.935385 
L 447.042572 89.255227 
L 452.166539 86.656121 
L 457.290506 84.142162 
L 462.414473 81.716695 
L 467.53844 79.382259 
L 472.662407 77.140565 
L 477.786374 74.992502 
L 482.910341 72.938178 
L 488.034308 70.976986 
L 493.158275 69.107675 
L 498.282242 67.328444 
L 503.406209 65.63703 
L 508.530176 64.030802 
L 513.654143 62.506845 
L 518.77811 61.062042 
L 523.902076 59.693139 
L 529.026043 58.396808 
L 534.15001 57.169696 
L 539.273977 56.00847 
L 544.397944 54.909846 
L 549.521911 53.870616 
L 554.645878 52.887669 
L 559.769845 51.958004 
L 564.893812 51.07874 
L 570.017779 50.24712 
L 575.141746 49.460517 
L 580.265713 48.716431 
L 585.38968 48.012492 
L 590.513647 47.346455 
L 595.637614 46.716195 
" style="fill:none;stroke:#3b4cc0;stroke-linecap:square;stroke-width:1.5;"/>
   </g>
   <g id="line2d_14">
    <path clip-path="url(#pbe1ec87fd9)" d="M 88.364886 287.698175 
L 93.488853 286.659603 
L 98.61282 285.557389 
L 103.736787 284.387552 
L 108.860754 283.145942 
L 113.984721 281.82826 
L 119.108688 280.4301 
L 124.232655 278.946991 
L 129.356622 277.374467 
L 134.480589 275.708143 
L 139.604556 273.943824 
L 144.728523 272.077625 
L 149.85249 270.106116 
L 154.976457 268.026487 
L 160.100424 265.836714 
L 165.22439 263.535741 
L 170.348357 261.12364 
L 175.472324 258.60175 
L 180.596291 255.972768 
L 185.720258 253.240783 
L 190.844225 250.411235 
L 195.968192 247.490794 
L 201.092159 244.487167 
L 206.216126 241.408844 
L 211.340093 238.264803 
L 216.46406 235.064201 
L 221.588027 231.816072 
L 226.711994 228.529069 
L 231.835961 225.211245 
L 236.959928 221.869896 
L 242.083895 218.511466 
L 247.207862 215.140022 
L 252.331829 202.018067 
L 257.455795 174.283139 
L 262.579762 158.170707 
L 267.703729 145.960207 
L 272.827696 136.153548 
L 277.951663 128.071384 
L 283.07563 121.305895 
L 288.199597 115.579598 
L 293.323564 110.692788 
L 298.447531 106.497702 
L 303.571498 102.883842 
L 308.695465 99.768402 
L 313.819432 97.090462 
L 318.943399 94.806735 
L 324.067366 92.889442 
L 329.191333 91.325624 
L 334.3153 90.117069 
L 339.439267 89.283914 
L 344.563233 88.868725 
L 349.6872 88.946634 
L 354.811167 89.64305 
L 359.935134 91.169682 
L 365.059101 93.907651 
L 370.183068 98.653134 
L 375.307035 107.814823 
L 380.431002 127.658875 
L 385.554969 124.461783 
L 390.678936 121.111345 
L 395.802903 117.774725 
L 400.92687 114.457992 
L 406.050837 111.167716 
L 411.174804 107.911264 
L 416.298771 104.696685 
L 421.422738 101.532538 
L 426.546705 98.427675 
L 431.670671 95.390971 
L 436.794638 92.431033 
L 441.918605 89.555906 
L 447.042572 86.772801 
L 452.166539 84.087864 
L 457.290506 81.506012 
L 462.414473 79.030839 
L 467.53844 76.664594 
L 472.662407 74.408233 
L 477.786374 72.261516 
L 482.910341 70.223148 
L 488.034308 68.29094 
L 493.158275 66.461976 
L 498.282242 64.732779 
L 503.406209 63.099462 
L 508.530176 61.557865 
L 513.654143 60.103665 
L 518.77811 58.732475 
L 523.902076 57.439921 
L 529.026043 56.221696 
L 534.15001 55.073609 
L 539.273977 53.991616 
L 544.397944 52.971838 
L 549.521911 52.010581 
L 554.645878 51.104335 
L 559.769845 50.249784 
L 564.893812 49.443799 
L 570.017779 48.683435 
L 575.141746 47.965927 
L 580.265713 47.288679 
L 585.38968 46.64926 
L 590.513647 46.045393 
L 595.637614 45.474944 
" style="fill:none;stroke:#7b9ff9;stroke-linecap:square;stroke-width:1.5;"/>
   </g>
   <g id="line2d_15">
    <path clip-path="url(#pbe1ec87fd9)" d="M 88.364886 287.548974 
L 93.488853 286.494167 
L 98.61282 285.374078 
L 103.736787 284.184611 
L 108.860754 282.921507 
L 113.984721 281.580378 
L 119.108688 280.156751 
L 124.232655 278.646126 
L 129.356622 277.044056 
L 134.480589 275.346245 
L 139.604556 273.548669 
L 144.728523 271.647717 
L 149.85249 269.640353 
L 154.976457 267.524293 
L 160.100424 265.298184 
L 165.22439 262.961782 
L 170.348357 260.516095 
L 175.472324 257.963493 
L 180.596291 255.307756 
L 185.720258 252.554042 
L 190.844225 249.708783 
L 195.968192 246.779489 
L 201.092159 243.774498 
L 206.216126 240.702671 
L 211.340093 237.573073 
L 216.46406 234.394663 
L 221.588027 231.176015 
L 226.711994 227.925096 
L 231.835961 224.648873 
L 236.959928 221.343898 
L 242.083895 195.421956 
L 247.207862 170.8848 
L 252.331829 154.145148 
L 257.455795 141.137227 
L 262.579762 130.672227 
L 267.703729 122.102712 
L 272.827696 114.990996 
L 277.951663 109.019791 
L 283.07563 103.953051 
L 288.199597 99.61349 
L 293.323564 95.867346 
L 298.447531 92.613034 
L 303.571498 89.77321 
L 308.695465 87.289162 
L 313.819432 85.116589 
L 318.943399 83.223089 
L 324.067366 81.586382 
L 329.191333 80.19345 
L 334.3153 79.040596 
L 339.439267 78.134523 
L 344.563233 77.494587 
L 349.6872 77.157328 
L 354.811167 77.183875 
L 359.935134 77.673649 
L 365.059101 78.788818 
L 370.183068 80.803383 
L 375.307035 84.217074 
L 380.431002 90.110206 
L 385.554969 102.264694 
L 390.678936 119.745392 
L 395.802903 116.206922 
L 400.92687 112.679918 
L 406.050837 109.175333 
L 411.174804 105.704835 
L 416.298771 102.281006 
L 421.422738 98.917188 
L 426.546705 95.626977 
L 431.670671 92.423641 
L 436.794638 89.31952 
L 441.918605 86.325477 
L 447.042572 83.450461 
L 452.166539 80.701222 
L 457.290506 78.082214 
L 462.414473 75.595641 
L 467.53844 73.241653 
L 472.662407 71.018621 
L 477.786374 68.923453 
L 482.910341 66.951935 
L 488.034308 65.099031 
L 493.158275 63.359167 
L 498.282242 61.726456 
L 503.406209 60.194884 
L 508.530176 58.758458 
L 513.654143 57.411307 
L 518.77811 56.147759 
L 523.902076 54.962391 
L 529.026043 53.850058 
L 534.15001 52.805908 
L 539.273977 51.825392 
L 544.397944 50.904254 
L 549.521911 50.038524 
L 554.645878 49.22451 
L 559.769845 48.458778 
L 564.893812 47.738142 
L 570.017779 47.059644 
L 575.141746 46.420539 
L 580.265713 45.818282 
L 585.38968 45.250511 
L 590.513647 44.715035 
L 595.637614 44.209818 
" style="fill:none;stroke:#c0d4f5;stroke-linecap:square;stroke-width:1.5;"/>
   </g>
   <g id="line2d_16">
    <path clip-path="url(#pbe1ec87fd9)" d="M 88.364886 287.397874 
L 93.488853 286.326617 
L 98.61282 285.188436 
L 103.736787 283.979128 
L 108.860754 282.694341 
L 113.984721 281.329616 
L 119.108688 279.880441 
L 124.232655 278.342323 
L 129.356622 276.710881 
L 134.480589 274.981966 
L 139.604556 273.151794 
L 144.728523 271.217111 
L 149.85249 269.175366 
L 154.976457 267.0249 
L 160.100424 264.765126 
L 165.22439 262.396694 
L 170.348357 259.921607 
L 175.472324 257.343289 
L 180.596291 254.666571 
L 185.720258 251.897597 
L 190.844225 249.043642 
L 195.968192 246.112857 
L 201.092159 243.113967 
L 206.216126 240.055939 
L 211.340093 236.947662 
L 216.46406 233.79765 
L 221.588027 230.613812 
L 226.711994 227.401172 
L 231.835961 201.700374 
L 236.959928 173.442471 
L 242.083895 154.181918 
L 247.207862 139.290888 
L 252.331829 127.497087 
L 257.455795 118.039365 
L 262.579762 110.358986 
L 267.703729 104.036064 
L 272.827696 98.758627 
L 277.951663 94.296278 
L 283.07563 90.478979 
L 288.199597 87.18027 
L 293.323564 84.305351 
L 298.447531 81.782621 
L 303.571498 79.557477 
L 308.695465 77.58829 
L 313.819432 75.843521 
L 318.943399 74.299566 
L 324.067366 72.939783 
L 329.191333 71.753616 
L 334.3153 70.736711 
L 339.439267 69.891469 
L 344.563233 69.228437 
L 349.6872 68.769131 
L 354.811167 68.551022 
L 359.935134 68.63616 
L 365.059101 69.126842 
L 370.183068 70.1946 
L 375.307035 72.137786 
L 380.431002 75.507412 
L 385.554969 81.473376 
L 390.678936 93.866406 
L 395.802903 113.900631 
L 400.92687 110.086852 
L 406.050837 106.295515 
L 411.174804 102.546407 
L 416.298771 98.860512 
L 421.422738 95.259483 
L 426.546705 91.764367 
L 431.670671 88.394282 
L 436.794638 85.165289 
L 441.918605 82.089597 
L 447.042572 79.175226 
L 452.166539 76.426092 
L 457.290506 73.842421 
L 462.414473 71.421384 
L 467.53844 69.157797 
L 472.662407 67.044805 
L 477.786374 65.074482 
L 482.910341 63.238332 
L 488.034308 61.527657 
L 493.158275 59.933843 
L 498.282242 58.448544 
L 503.406209 57.063805 
L 508.530176 55.772136 
L 513.654143 54.566543 
L 518.77811 53.440536 
L 523.902076 52.38812 
L 529.026043 51.403774 
L 534.15001 50.482425 
L 539.273977 49.61942 
L 544.397944 48.810486 
L 549.521911 48.051712 
L 554.645878 47.339506 
L 559.769845 46.670576 
L 564.893812 46.041899 
L 570.017779 45.450698 
L 575.141746 44.894419 
L 580.265713 44.370713 
L 585.38968 43.877415 
L 590.513647 43.412527 
L 595.637614 42.974205 
" style="fill:none;stroke:#f2cbb7;stroke-linecap:square;stroke-width:1.5;"/>
   </g>
   <g id="line2d_17">
    <path clip-path="url(#pbe1ec87fd9)" d="M 88.364886 287.244902 
L 93.488853 286.156996 
L 98.61282 285.000527 
L 103.736787 283.771199 
L 108.860754 282.464582 
L 113.984721 281.076171 
L 119.108688 279.601445 
L 124.232655 278.03596 
L 129.356622 276.375454 
L 134.480589 274.615986 
L 139.604556 272.754089 
L 144.728523 270.78695 
L 149.85249 268.712595 
L 154.976457 266.530081 
L 160.100424 264.239671 
L 165.22439 261.842964 
L 170.348357 259.342989 
L 175.472324 256.744202 
L 180.596291 254.052412 
L 185.720258 251.274614 
L 190.844225 248.41874 
L 195.968192 245.493355 
L 201.092159 242.507318 
L 206.216126 239.46945 
L 211.340093 236.388226 
L 216.46406 233.271272 
L 221.588027 221.988432 
L 226.711994 181.993472 
L 231.835961 158.208773 
L 236.959928 140.091229 
L 242.083895 126.085111 
L 247.207862 115.217651 
L 252.331829 106.689619 
L 257.455795 99.88247 
L 262.579762 94.345442 
L 267.703729 89.759112 
L 272.827696 85.897087 
L 277.951663 82.598558 
L 283.07563 79.746809 
L 288.199597 77.256062 
L 293.323564 75.062173 
L 298.447531 73.116687 
L 303.571498 71.382719 
L 308.695465 69.831721 
L 313.819432 68.441934 
L 318.943399 67.196954 
L 324.067366 66.084967 
L 329.191333 65.098269 
L 334.3153 64.233347 
L 339.439267 63.491161 
L 344.563233 62.87839 
L 349.6872 62.409349 
L 354.811167 62.109681 
L 359.935134 62.023371 
L 365.059101 62.225449 
L 370.183068 62.847692 
L 375.307035 64.130943 
L 380.431002 66.539196 
L 385.554969 71.033676 
L 390.678936 80.033152 
L 395.802903 109.914819 
L 400.92687 106.330144 
L 406.050837 102.163132 
L 411.174804 98.069803 
L 416.298771 94.086476 
L 421.422738 90.247461 
L 426.546705 86.582004 
L 431.670671 83.112066 
L 436.794638 79.851349 
L 441.918605 76.805556 
L 447.042572 73.97355 
L 452.166539 71.348956 
L 457.290506 68.921808 
L 462.414473 66.679982 
L 467.53844 64.610331 
L 472.662407 62.699495 
L 477.786374 60.934446 
L 482.910341 59.302815 
L 488.034308 57.793075 
L 493.158275 56.394611 
L 498.282242 55.097734 
L 503.406209 53.893646 
L 508.530176 52.774385 
L 513.654143 51.732762 
L 518.77811 50.76229 
L 523.902076 49.857115 
L 529.026043 49.011954 
L 534.15001 48.222034 
L 539.273977 47.483035 
L 544.397944 46.791047 
L 549.521911 46.142519 
L 554.645878 45.534228 
L 559.769845 44.963236 
L 564.893812 44.426868 
L 570.017779 43.922678 
L 575.141746 43.448429 
L 580.265713 43.00207 
L 585.38968 42.58172 
L 590.513647 42.185649 
L 595.637614 41.812264 
" style="fill:none;stroke:#ee8468;stroke-linecap:square;stroke-width:1.5;"/>
   </g>
   <g id="line2d_18">
    <path clip-path="url(#pbe1ec87fd9)" d="M 88.364886 287.090093 
L 93.488853 285.985355 
L 98.61282 284.810429 
L 103.736787 283.560936 
L 108.860754 282.232391 
L 113.984721 280.820268 
L 119.108688 279.320075 
L 124.232655 277.727461 
L 129.356622 276.038341 
L 134.480589 274.249051 
L 139.604556 272.356518 
L 144.728523 270.358456 
L 149.85249 268.253556 
L 154.976457 266.04167 
L 160.100424 263.723969 
L 165.22439 261.303042 
L 170.348357 258.782926 
L 175.472324 256.16905 
L 180.596291 253.468082 
L 185.720258 250.687699 
L 190.844225 247.836275 
L 195.968192 244.922551 
L 201.092159 241.955278 
L 206.216126 238.942902 
L 211.340093 235.883683 
L 216.46406 199.29289 
L 221.588027 167.759631 
L 226.711994 144.344471 
L 231.835961 126.652681 
L 236.959928 113.517861 
L 242.083895 103.715289 
L 247.207862 96.236517 
L 252.331829 90.37234 
L 257.455795 85.651236 
L 262.579762 81.761027 
L 267.703729 78.491698 
L 272.827696 75.698612 
L 277.951663 73.279541 
L 283.07563 71.160545 
L 288.199597 69.287038 
L 293.323564 67.617882 
L 298.447531 66.121743 
L 303.571498 64.774334 
L 308.695465 63.556947 
L 313.819432 62.455035 
L 318.943399 61.457546 
L 324.067366 60.55645 
L 329.191333 59.746482 
L 334.3153 59.025266 
L 339.439267 58.393539 
L 344.563233 57.856138 
L 349.6872 57.423621 
L 354.811167 57.115278 
L 359.935134 56.965314 
L 365.059101 57.034879 
L 370.183068 57.438807 
L 375.307035 58.40846 
L 380.431002 60.452905 
L 385.554969 64.80077 
L 390.678936 74.894381 
L 395.802903 105.583009 
L 400.92687 100.869722 
L 406.050837 96.257989 
L 411.174804 91.816412 
L 416.298771 87.600308 
L 421.422738 83.649612 
L 426.546705 79.986295 
L 431.670671 76.615741 
L 436.794638 73.53055 
L 441.918605 70.714943 
L 447.042572 68.148608 
L 452.166539 65.809527 
L 457.290506 63.675802 
L 462.414473 61.726709 
L 467.53844 59.943213 
L 472.662407 58.308153 
L 477.786374 56.806223 
L 482.910341 55.423868 
L 488.034308 54.149115 
L 493.158275 52.971409 
L 498.282242 51.881436 
L 503.406209 50.870972 
L 508.530176 49.93274 
L 513.654143 49.060288 
L 518.77811 48.24788 
L 523.902076 47.490402 
L 529.026043 46.783287 
L 534.15001 46.122438 
L 539.273977 45.504178 
L 544.397944 44.925191 
L 549.521911 44.382483 
L 554.645878 43.873344 
L 559.769845 43.395313 
L 564.893812 42.946152 
L 570.017779 42.523821 
L 575.141746 42.126454 
L 580.265713 41.752346 
L 585.38968 41.399932 
L 590.513647 41.067773 
L 595.637614 40.754545 
" style="fill:none;stroke:#b40426;stroke-linecap:square;stroke-width:1.5;"/>
   </g>
   <g id="line2d_19">
    <path clip-path="url(#pbe1ec87fd9)" d="M 88.364886 287.845455 
L 93.488853 286.82289 
L 98.61282 285.738314 
L 103.736787 284.58787 
L 108.860754 283.367525 
L 113.984721 282.07309 
L 119.108688 280.700247 
L 124.232655 279.244586 
L 129.356622 277.701659 
L 134.480589 276.067047 
L 139.604556 274.336447 
L 144.728523 272.505778 
L 149.85249 270.571308 
L 154.976457 268.529794 
L 160.100424 266.378648 
L 165.22439 264.116101 
L 170.348357 261.741374 
L 175.472324 259.254831 
L 180.596291 256.658106 
L 185.720258 253.95418 
L 190.844225 251.147405 
L 195.968192 248.243451 
L 201.092159 245.249182 
L 206.216126 242.172462 
L 211.340093 239.021905 
L 216.46406 235.806586 
L 221.588027 232.535748 
L 226.711994 229.218509 
L 231.835961 225.863616 
L 236.959928 222.479235 
L 242.083895 219.072803 
L 247.207862 215.650933 
L 252.331829 212.219368 
L 257.455795 208.783267 
L 262.579762 205.357779 
L 267.703729 211.151579 
L 272.827696 225.34198 
L 277.951663 230.707158 
L 283.07563 233.339165 
L 288.199597 234.464287 
L 293.323564 234.571955 
L 298.447531 233.904944 
L 303.571498 232.593236 
L 308.695465 230.702896 
L 313.819432 228.258925 
L 318.943399 225.254894 
L 324.067366 221.656549 
L 329.191333 217.401263 
L 334.3153 212.39259 
L 339.439267 206.48852 
L 344.563233 199.476896 
L 349.6872 191.018027 
L 354.811167 180.481351 
L 359.935134 166.241028 
L 365.059101 140.913518 
L 370.183068 134.946042 
L 375.307035 131.686119 
L 380.431002 128.43987 
L 385.554969 125.209853 
L 390.678936 121.998782 
L 395.802903 118.810212 
L 400.92687 115.648223 
L 406.050837 112.517395 
L 411.174804 109.422777 
L 416.298771 106.369816 
L 421.422738 103.36427 
L 426.546705 100.412094 
L 431.670671 97.519308 
L 436.794638 94.691842 
L 441.918605 91.935385 
L 447.042572 89.255227 
L 452.166539 86.656121 
L 457.290506 84.142162 
L 462.414473 81.716695 
L 467.53844 79.382259 
L 472.662407 77.140565 
L 477.786374 74.992502 
L 482.910341 72.938178 
L 488.034308 70.976986 
L 493.158275 69.107675 
L 498.282242 67.328444 
L 503.406209 65.63703 
L 508.530176 64.030802 
L 513.654143 62.506845 
L 518.77811 61.062042 
L 523.902076 59.693139 
L 529.026043 58.396808 
L 534.15001 57.169696 
L 539.273977 56.00847 
L 544.397944 54.909846 
L 549.521911 53.870616 
L 554.645878 52.887669 
L 559.769845 51.958004 
L 564.893812 51.07874 
L 570.017779 50.24712 
L 575.141746 49.460517 
L 580.265713 48.716431 
L 585.38968 48.012492 
L 590.513647 47.346455 
L 595.637614 46.716195 
" style="fill:none;stroke:#3b4cc0;stroke-linecap:square;stroke-width:1.5;"/>
   </g>
   <g id="line2d_20">
    <path clip-path="url(#pbe1ec87fd9)" d="M 88.364886 287.698175 
L 93.488853 286.659603 
L 98.61282 285.557389 
L 103.736787 284.387552 
L 108.860754 283.145942 
L 113.984721 281.82826 
L 119.108688 280.4301 
L 124.232655 278.946991 
L 129.356622 277.374467 
L 134.480589 275.708143 
L 139.604556 273.943824 
L 144.728523 272.077625 
L 149.85249 270.106116 
L 154.976457 268.026487 
L 160.100424 265.836714 
L 165.22439 263.535741 
L 170.348357 261.12364 
L 175.472324 258.60175 
L 180.596291 255.972768 
L 185.720258 253.240783 
L 190.844225 250.411235 
L 195.968192 247.490794 
L 201.092159 244.487167 
L 206.216126 241.408844 
L 211.340093 238.264803 
L 216.46406 235.064201 
L 221.588027 231.816072 
L 226.711994 228.529069 
L 231.835961 225.211245 
L 236.959928 221.869896 
L 242.083895 218.511466 
L 247.207862 215.142889 
L 252.331829 221.128548 
L 257.455795 238.55008 
L 262.579762 245.111079 
L 267.703729 248.634142 
L 272.827696 250.555378 
L 277.951663 251.456511 
L 283.07563 251.636353 
L 288.199597 251.265357 
L 293.323564 250.4447 
L 298.447531 249.233707 
L 303.571498 247.664022 
L 308.695465 245.747379 
L 313.819432 243.479491 
L 318.943399 240.841828 
L 324.067366 237.802001 
L 329.191333 234.312337 
L 334.3153 230.307625 
L 339.439267 225.700644 
L 344.563233 220.376029 
L 349.6872 214.179999 
L 354.811167 206.904143 
L 359.935134 198.253414 
L 365.059101 187.77289 
L 370.183068 174.618041 
L 375.307035 156.380002 
L 380.431002 127.981255 
L 385.554969 124.462498 
L 390.678936 121.111345 
L 395.802903 117.774725 
L 400.92687 114.457992 
L 406.050837 111.167716 
L 411.174804 107.911264 
L 416.298771 104.696685 
L 421.422738 101.532538 
L 426.546705 98.427675 
L 431.670671 95.390971 
L 436.794638 92.431033 
L 441.918605 89.555906 
L 447.042572 86.772801 
L 452.166539 84.087864 
L 457.290506 81.506012 
L 462.414473 79.030839 
L 467.53844 76.664594 
L 472.662407 74.408233 
L 477.786374 72.261516 
L 482.910341 70.223148 
L 488.034308 68.29094 
L 493.158275 66.461976 
L 498.282242 64.732779 
L 503.406209 63.099462 
L 508.530176 61.557865 
L 513.654143 60.103665 
L 518.77811 58.732475 
L 523.902076 57.439921 
L 529.026043 56.221696 
L 534.15001 55.073609 
L 539.273977 53.991616 
L 544.397944 52.971838 
L 549.521911 52.010581 
L 554.645878 51.104335 
L 559.769845 50.249784 
L 564.893812 49.443799 
L 570.017779 48.683435 
L 575.141746 47.965927 
L 580.265713 47.288679 
L 585.38968 46.64926 
L 590.513647 46.045393 
L 595.637614 45.474944 
" style="fill:none;stroke:#7b9ff9;stroke-linecap:square;stroke-width:1.5;"/>
   </g>
   <g id="line2d_21">
    <path clip-path="url(#pbe1ec87fd9)" d="M 88.364886 287.548974 
L 93.488853 286.494167 
L 98.61282 285.374078 
L 103.736787 284.184611 
L 108.860754 282.921507 
L 113.984721 281.580378 
L 119.108688 280.156751 
L 124.232655 278.646126 
L 129.356622 277.044056 
L 134.480589 275.346245 
L 139.604556 273.548669 
L 144.728523 271.647717 
L 149.85249 269.640353 
L 154.976457 267.524293 
L 160.100424 265.298184 
L 165.22439 262.961782 
L 170.348357 260.516095 
L 175.472324 257.963493 
L 180.596291 255.307756 
L 185.720258 252.554042 
L 190.844225 249.708783 
L 195.968192 246.779489 
L 201.092159 243.774498 
L 206.216126 240.702671 
L 211.340093 237.573073 
L 216.46406 234.394663 
L 221.588027 231.176015 
L 226.711994 227.925096 
L 231.835961 224.649317 
L 236.959928 221.364203 
L 242.083895 238.3675 
L 247.207862 250.912748 
L 252.331829 256.73307 
L 257.455795 259.988232 
L 262.579762 261.817243 
L 267.703729 262.738373 
L 272.827696 263.032942 
L 277.951663 262.866011 
L 283.07563 262.338068 
L 288.199597 261.510625 
L 293.323564 260.420126 
L 298.447531 259.08595 
L 303.571498 257.514889 
L 308.695465 255.70364 
L 313.819432 253.639943 
L 318.943399 251.302855 
L 324.067366 248.661942 
L 329.191333 245.675934 
L 334.3153 242.290329 
L 339.439267 238.433761 
L 344.563233 234.013273 
L 349.6872 228.906651 
L 354.811167 222.9531 
L 359.935134 215.93856 
L 365.059101 207.575658 
L 370.183068 197.465297 
L 375.307035 185.012511 
L 380.431002 169.117203 
L 385.554969 146.109052 
L 390.678936 119.748564 
L 395.802903 116.207381 
L 400.92687 112.679918 
L 406.050837 109.175333 
L 411.174804 105.704835 
L 416.298771 102.281006 
L 421.422738 98.917188 
L 426.546705 95.626977 
L 431.670671 92.423641 
L 436.794638 89.31952 
L 441.918605 86.325477 
L 447.042572 83.450461 
L 452.166539 80.701222 
L 457.290506 78.082214 
L 462.414473 75.595641 
L 467.53844 73.241653 
L 472.662407 71.018621 
L 477.786374 68.923453 
L 482.910341 66.951935 
L 488.034308 65.099031 
L 493.158275 63.359167 
L 498.282242 61.726456 
L 503.406209 60.194884 
L 508.530176 58.758458 
L 513.654143 57.411307 
L 518.77811 56.147759 
L 523.902076 54.962391 
L 529.026043 53.850058 
L 534.15001 52.805908 
L 539.273977 51.825392 
L 544.397944 50.904254 
L 549.521911 50.038524 
L 554.645878 49.22451 
L 559.769845 48.458778 
L 564.893812 47.738142 
L 570.017779 47.059644 
L 575.141746 46.420539 
L 580.265713 45.818282 
L 585.38968 45.250511 
L 590.513647 44.715035 
L 595.637614 44.209818 
" style="fill:none;stroke:#c0d4f5;stroke-linecap:square;stroke-width:1.5;"/>
   </g>
   <g id="line2d_22">
    <path clip-path="url(#pbe1ec87fd9)" d="M 88.364886 287.397874 
L 93.488853 286.326617 
L 98.61282 285.188436 
L 103.736787 283.979128 
L 108.860754 282.694341 
L 113.984721 281.329616 
L 119.108688 279.880441 
L 124.232655 278.342323 
L 129.356622 276.710881 
L 134.480589 274.981966 
L 139.604556 273.151794 
L 144.728523 271.217111 
L 149.85249 269.175366 
L 154.976457 267.0249 
L 160.100424 264.765126 
L 165.22439 262.396694 
L 170.348357 259.921607 
L 175.472324 257.343289 
L 180.596291 254.666571 
L 185.720258 251.897597 
L 190.844225 249.043642 
L 195.968192 246.112857 
L 201.092159 243.113967 
L 206.216126 240.055939 
L 211.340093 236.947662 
L 216.46406 233.79765 
L 221.588027 230.613812 
L 226.711994 227.405511 
L 231.835961 243.988282 
L 236.959928 258.104148 
L 242.083895 264.415317 
L 247.207862 267.891381 
L 252.331829 269.836314 
L 257.455795 270.846186 
L 262.579762 271.242996 
L 267.703729 271.21288 
L 272.827696 270.867013 
L 277.951663 270.272883 
L 283.07563 269.471326 
L 288.199597 268.486104 
L 293.323564 267.329382 
L 298.447531 266.004866 
L 303.571498 264.509529 
L 308.695465 262.834483 
L 313.819432 260.964942 
L 318.943399 258.880054 
L 324.067366 256.551733 
L 329.191333 253.943224 
L 334.3153 251.006478 
L 339.439267 247.679027 
L 344.563233 243.878613 
L 349.6872 239.495787 
L 354.811167 234.383893 
L 359.935134 228.342816 
L 365.059101 221.098243 
L 370.183068 212.271669 
L 375.307035 201.339926 
L 380.431002 187.565402 
L 385.554969 169.748206 
L 390.678936 144.334074 
L 395.802903 113.901683 
L 400.92687 110.086852 
L 406.050837 106.295515 
L 411.174804 102.546407 
L 416.298771 98.860512 
L 421.422738 95.259483 
L 426.546705 91.764367 
L 431.670671 88.394282 
L 436.794638 85.165289 
L 441.918605 82.089597 
L 447.042572 79.175226 
L 452.166539 76.426092 
L 457.290506 73.842421 
L 462.414473 71.421384 
L 467.53844 69.157797 
L 472.662407 67.044805 
L 477.786374 65.074482 
L 482.910341 63.238332 
L 488.034308 61.527657 
L 493.158275 59.933843 
L 498.282242 58.448544 
L 503.406209 57.063805 
L 508.530176 55.772136 
L 513.654143 54.566543 
L 518.77811 53.440536 
L 523.902076 52.38812 
L 529.026043 51.403774 
L 534.15001 50.482425 
L 539.273977 49.61942 
L 544.397944 48.810486 
L 549.521911 48.051712 
L 554.645878 47.339506 
L 559.769845 46.670576 
L 564.893812 46.041899 
L 570.017779 45.450698 
L 575.141746 44.894419 
L 580.265713 44.370713 
L 585.38968 43.877415 
L 590.513647 43.412527 
L 595.637614 42.974205 
" style="fill:none;stroke:#f2cbb7;stroke-linecap:square;stroke-width:1.5;"/>
   </g>
   <g id="line2d_23">
    <path clip-path="url(#pbe1ec87fd9)" d="M 88.364886 287.244902 
L 93.488853 286.156996 
L 98.61282 285.000527 
L 103.736787 283.771199 
L 108.860754 282.464582 
L 113.984721 281.076171 
L 119.108688 279.601445 
L 124.232655 278.03596 
L 129.356622 276.375454 
L 134.480589 274.615986 
L 139.604556 272.754089 
L 144.728523 270.78695 
L 149.85249 268.712595 
L 154.976457 266.530081 
L 160.100424 264.239671 
L 165.22439 261.842964 
L 170.348357 259.342989 
L 175.472324 256.744202 
L 180.596291 254.052412 
L 185.720258 251.274614 
L 190.844225 248.41874 
L 195.968192 245.493355 
L 201.092159 242.507318 
L 206.216126 239.46945 
L 211.340093 236.388226 
L 216.46406 233.27176 
L 221.588027 237.813933 
L 226.711994 261.37042 
L 231.835961 269.34805 
L 236.959928 273.505235 
L 242.083895 275.75373 
L 247.207862 276.912091 
L 252.331829 277.407015 
L 257.455795 277.473578 
L 262.579762 277.245196 
L 267.703729 276.799319 
L 272.827696 276.181662 
L 277.951663 275.418874 
L 283.07563 274.525966 
L 288.199597 273.509989 
L 293.323564 272.372361 
L 298.447531 271.109951 
L 303.571498 269.715706 
L 308.695465 268.178693 
L 313.819432 266.483782 
L 318.943399 264.61105 
L 324.067366 262.53468 
L 329.191333 260.221267 
L 334.3153 257.627542 
L 339.439267 254.696731 
L 344.563233 251.35324 
L 349.6872 247.49473 
L 354.811167 242.979459 
L 359.935134 237.607237 
L 365.059101 231.088333 
L 370.183068 222.996 
L 375.307035 212.697012 
L 380.431002 199.264933 
L 385.554969 181.380846 
L 390.678936 156.800959 
L 395.802903 111.17118 
L 400.92687 106.330144 
L 406.050837 102.163132 
L 411.174804 98.069803 
L 416.298771 94.086476 
L 421.422738 90.247461 
L 426.546705 86.582004 
L 431.670671 83.112066 
L 436.794638 79.851349 
L 441.918605 76.805556 
L 447.042572 73.97355 
L 452.166539 71.348956 
L 457.290506 68.921808 
L 462.414473 66.679982 
L 467.53844 64.610331 
L 472.662407 62.699495 
L 477.786374 60.934446 
L 482.910341 59.302815 
L 488.034308 57.793075 
L 493.158275 56.394611 
L 498.282242 55.097734 
L 503.406209 53.893646 
L 508.530176 52.774385 
L 513.654143 51.732762 
L 518.77811 50.76229 
L 523.902076 49.857115 
L 529.026043 49.011954 
L 534.15001 48.222034 
L 539.273977 47.483035 
L 544.397944 46.791047 
L 549.521911 46.142519 
L 554.645878 45.534228 
L 559.769845 44.963236 
L 564.893812 44.426868 
L 570.017779 43.922678 
L 575.141746 43.448429 
L 580.265713 43.00207 
L 585.38968 42.58172 
L 590.513647 42.185649 
L 595.637614 41.812264 
" style="fill:none;stroke:#ee8468;stroke-linecap:square;stroke-width:1.5;"/>
   </g>
   <g id="line2d_24">
    <path clip-path="url(#pbe1ec87fd9)" d="M 88.364886 287.090093 
L 93.488853 285.985355 
L 98.61282 284.810429 
L 103.736787 283.560936 
L 108.860754 282.232391 
L 113.984721 280.820268 
L 119.108688 279.320075 
L 124.232655 277.727461 
L 129.356622 276.038341 
L 134.480589 274.249051 
L 139.604556 272.356518 
L 144.728523 270.358456 
L 149.85249 268.253556 
L 154.976457 266.04167 
L 160.100424 263.723969 
L 165.22439 261.303042 
L 170.348357 258.782926 
L 175.472324 256.16905 
L 180.596291 253.468082 
L 185.720258 250.687699 
L 190.844225 247.836275 
L 195.968192 244.922551 
L 201.092159 241.955278 
L 206.216126 238.942902 
L 211.340093 235.902339 
L 216.46406 259.440362 
L 221.588027 271.636357 
L 226.711994 277.274177 
L 231.835961 280.136928 
L 236.959928 281.546802 
L 242.083895 282.156229 
L 247.207862 282.299469 
L 252.331829 282.150415 
L 257.455795 281.802247 
L 262.579762 281.3066 
L 267.703729 280.69269 
L 272.827696 279.976917 
L 277.951663 279.16788 
L 283.07563 278.269011 
L 288.199597 277.280037 
L 293.323564 276.1977 
L 298.447531 275.0161 
L 303.571498 273.726689 
L 308.695465 272.318081 
L 313.819432 270.775531 
L 318.943399 269.080267 
L 324.067366 267.208244 
L 329.191333 265.128596 
L 334.3153 262.801128 
L 339.439267 260.172636 
L 344.563233 257.171149 
L 349.6872 253.697247 
L 354.811167 249.608471 
L 359.935134 244.694766 
L 365.059101 238.632838 
L 370.183068 230.90441 
L 375.307035 220.643655 
L 380.431002 206.382496 
L 385.554969 185.761431 
L 390.678936 155.238839 
L 395.802903 105.591896 
L 400.92687 100.869722 
L 406.050837 96.257989 
L 411.174804 91.816412 
L 416.298771 87.600308 
L 421.422738 83.649612 
L 426.546705 79.986295 
L 431.670671 76.615741 
L 436.794638 73.53055 
L 441.918605 70.714943 
L 447.042572 68.148608 
L 452.166539 65.809527 
L 457.290506 63.675802 
L 462.414473 61.726709 
L 467.53844 59.943213 
L 472.662407 58.308153 
L 477.786374 56.806223 
L 482.910341 55.423868 
L 488.034308 54.149115 
L 493.158275 52.971409 
L 498.282242 51.881436 
L 503.406209 50.870972 
L 508.530176 49.93274 
L 513.654143 49.060288 
L 518.77811 48.24788 
L 523.902076 47.490402 
L 529.026043 46.783287 
L 534.15001 46.122438 
L 539.273977 45.504178 
L 544.397944 44.925191 
L 549.521911 44.382483 
L 554.645878 43.873344 
L 559.769845 43.395313 
L 564.893812 42.946152 
L 570.017779 42.523821 
L 575.141746 42.126454 
L 580.265713 41.752346 
L 585.38968 41.399932 
L 590.513647 41.067773 
L 595.637614 40.754545 
" style="fill:none;stroke:#b40426;stroke-linecap:square;stroke-width:1.5;"/>
   </g>
   <g id="line2d_25">
    <path clip-path="url(#pbe1ec87fd9)" d="M 88.364886 287.47366 
L 93.488853 286.410653 
L 98.61282 285.281545 
L 103.736787 284.082182 
L 108.860754 282.808258 
L 113.984721 281.455346 
L 119.108688 280.01895 
L 124.232655 278.494569 
L 129.356622 276.877783 
L 134.480589 275.164362 
L 139.604556 273.350393 
L 144.728523 271.432432 
L 149.85249 269.407674 
L 154.976457 267.274137 
L 160.100424 265.030839 
L 165.22439 262.677974 
L 170.348357 260.217041 
L 175.472324 257.650938 
L 180.596291 254.983977 
L 185.720258 252.221822 
L 190.844225 249.371349 
L 195.968192 246.440415 
L 201.092159 243.437582 
L 206.216126 240.371798 
L 211.340093 237.25207 
L 216.46406 234.087165 
L 221.588027 230.885346 
L 226.711994 227.654369 
L 231.835961 224.407471 
L 236.959928 242.216747 
L 242.083895 255.019049 
L 247.207862 260.961378 
L 252.331829 264.276268 
L 257.455795 266.142058 
L 262.579762 267.100974 
L 267.703729 267.448105 
L 272.827696 267.356098 
L 277.951663 266.929513 
L 283.07563 266.232406 
L 288.199597 265.303423 
L 293.323564 264.164369 
L 298.447531 262.825177 
L 303.571498 261.286675 
L 308.695465 259.542137 
L 313.819432 257.577632 
L 318.943399 255.372068 
L 324.067366 252.896212 
L 329.191333 250.111131 
L 334.3153 246.96592 
L 339.439267 243.394128 
L 344.563233 239.308804 
L 349.6872 234.595263 
L 354.811167 229.101304 
L 359.935134 222.622959 
L 365.059101 214.884927 
L 370.183068 205.513515 
L 375.307035 193.987302 
L 380.431002 179.514679 
L 385.554969 160.455731 
L 390.678936 126.3136 
L 395.802903 115.163368 
L 400.92687 111.503441 
L 406.050837 107.865749 
L 411.174804 104.264638 
L 416.298771 100.716231 
L 421.422738 97.23747 
L 426.546705 93.845317 
L 431.670671 90.555877 
L 436.794638 87.383546 
L 441.918605 84.340309 
L 447.042572 81.435265 
L 452.166539 78.674437 
L 457.290506 76.060833 
L 462.414473 73.594723 
L 467.53844 71.274045 
L 472.662407 69.094879 
L 477.786374 67.051921 
L 482.910341 65.138912 
L 488.034308 63.349009 
L 493.158275 61.675086 
L 498.282242 60.109961 
L 503.406209 58.646567 
L 508.530176 57.27807 
L 513.654143 55.997945 
L 518.77811 54.800022 
L 523.902076 53.67851 
L 529.026043 52.628002 
L 534.15001 51.643471 
L 539.273977 50.720257 
L 544.397944 49.854047 
L 549.521911 49.040856 
L 554.645878 48.277005 
L 559.769845 47.559101 
L 564.893812 46.884011 
L 570.017779 46.248844 
L 575.141746 45.650934 
L 580.265713 45.087815 
L 585.38968 44.557211 
L 590.513647 44.057014 
L 595.637614 43.585276 
" style="fill:none;stroke:#000000;stroke-linecap:square;stroke-width:1.5;"/>
   </g>
   <g id="patch_3">
    <path d="M 63.00125 300.2 
L 63.00125 28.4 
" style="fill:none;stroke:#000000;stroke-linecap:square;stroke-linejoin:miter;stroke-width:0.8;"/>
   </g>
   <g id="patch_4">
    <path d="M 621.00125 300.2 
L 621.00125 28.4 
" style="fill:none;stroke:#000000;stroke-linecap:square;stroke-linejoin:miter;stroke-width:0.8;"/>
   </g>
   <g id="patch_5">
    <path d="M 63.00125 300.2 
L 621.00125 300.2 
" style="fill:none;stroke:#000000;stroke-linecap:square;stroke-linejoin:miter;stroke-width:0.8;"/>
   </g>
   <g id="patch_6">
    <path d="M 63.00125 28.4 
L 621.00125 28.4 
" style="fill:none;stroke:#000000;stroke-linecap:square;stroke-linejoin:miter;stroke-width:0.8;"/>
   </g>
   <g id="text_14">
    <!-- $R_e$ only -->
    <defs>
     <path d="M 25.203125 64.796875 
L 20.21875 38.921875 
L 32.90625 38.921875 
Q 40.375 38.921875 44.984375 43.046875 
Q 49.609375 47.171875 49.609375 53.8125 
Q 49.609375 59.125 46.5 61.953125 
Q 43.40625 64.796875 37.59375 64.796875 
z
M 43.3125 35.015625 
Q 46.4375 34.28125 48.515625 31.390625 
Q 50.59375 28.515625 53.328125 19.921875 
L 59.515625 0 
L 49.125 0 
L 43.40625 18.703125 
Q 41.21875 25.921875 38.328125 28.359375 
Q 35.453125 30.8125 29.5 30.8125 
L 18.609375 30.8125 
L 12.59375 0 
L 2.6875 0 
L 16.890625 72.90625 
L 39.109375 72.90625 
Q 49.21875 72.90625 54.609375 68.328125 
Q 60.015625 63.765625 60.015625 55.171875 
Q 60.015625 47.5625 55.421875 41.984375 
Q 50.828125 36.421875 43.3125 35.015625 
z
" id="DejaVuSans-Oblique-82"/>
     <path d="M 30.609375 48.390625 
Q 23.390625 48.390625 19.1875 42.75 
Q 14.984375 37.109375 14.984375 27.296875 
Q 14.984375 17.484375 19.15625 11.84375 
Q 23.34375 6.203125 30.609375 6.203125 
Q 37.796875 6.203125 41.984375 11.859375 
Q 46.1875 17.53125 46.1875 27.296875 
Q 46.1875 37.015625 41.984375 42.703125 
Q 37.796875 48.390625 30.609375 48.390625 
z
M 30.609375 56 
Q 42.328125 56 49.015625 48.375 
Q 55.71875 40.765625 55.71875 27.296875 
Q 55.71875 13.875 49.015625 6.21875 
Q 42.328125 -1.421875 30.609375 -1.421875 
Q 18.84375 -1.421875 12.171875 6.21875 
Q 5.515625 13.875 5.515625 27.296875 
Q 5.515625 40.765625 12.171875 48.375 
Q 18.84375 56 30.609375 56 
z
" id="DejaVuSans-111"/>
     <path d="M 54.890625 33.015625 
L 54.890625 0 
L 45.90625 0 
L 45.90625 32.71875 
Q 45.90625 40.484375 42.875 44.328125 
Q 39.84375 48.1875 33.796875 48.1875 
Q 26.515625 48.1875 22.3125 43.546875 
Q 18.109375 38.921875 18.109375 30.90625 
L 18.109375 0 
L 9.078125 0 
L 9.078125 54.6875 
L 18.109375 54.6875 
L 18.109375 46.1875 
Q 21.34375 51.125 25.703125 53.5625 
Q 30.078125 56 35.796875 56 
Q 45.21875 56 50.046875 50.171875 
Q 54.890625 44.34375 54.890625 33.015625 
z
" id="DejaVuSans-110"/>
     <path d="M 9.421875 75.984375 
L 18.40625 75.984375 
L 18.40625 0 
L 9.421875 0 
z
" id="DejaVuSans-108"/>
     <path d="M 32.171875 -5.078125 
Q 28.375 -14.84375 24.75 -17.8125 
Q 21.140625 -20.796875 15.09375 -20.796875 
L 7.90625 -20.796875 
L 7.90625 -13.28125 
L 13.1875 -13.28125 
Q 16.890625 -13.28125 18.9375 -11.515625 
Q 21 -9.765625 23.484375 -3.21875 
L 25.09375 0.875 
L 2.984375 54.6875 
L 12.5 54.6875 
L 29.59375 11.921875 
L 46.6875 54.6875 
L 56.203125 54.6875 
z
" id="DejaVuSans-121"/>
    </defs>
    <g transform="translate(306.10125 22.4)scale(0.2 -0.2)">
     <use transform="translate(0 0.015625)" xlink:href="#DejaVuSans-Oblique-82"/>
     <use transform="translate(69.482422 -16.390625)scale(0.7)" xlink:href="#DejaVuSans-Oblique-101"/>
     <use transform="translate(115.283203 0.015625)" xlink:href="#DejaVuSans-32"/>
     <use transform="translate(147.070312 0.015625)" xlink:href="#DejaVuSans-111"/>
     <use transform="translate(208.251953 0.015625)" xlink:href="#DejaVuSans-110"/>
     <use transform="translate(271.630859 0.015625)" xlink:href="#DejaVuSans-108"/>
     <use transform="translate(299.414062 0.015625)" xlink:href="#DejaVuSans-121"/>
    </g>
   </g>
  </g>
 </g>
 <defs>
  <clipPath id="pbe1ec87fd9">
   <rect height="271.8" width="558" x="63.00125" y="28.4"/>
  </clipPath>
 </defs>
</svg>
