<?xml version="1.0" encoding="utf-8" standalone="no"?>
<!DOCTYPE svg PUBLIC "-//W3C//DTD SVG 1.1//EN"
  "http://www.w3.org/Graphics/SVG/1.1/DTD/svg11.dtd">
<!-- Created with matplotlib (https://matplotlib.org/) -->
<svg height="353.285pt" version="1.1" viewBox="0 0 628.20125 353.285" width="628.20125pt" xmlns="http://www.w3.org/2000/svg" xmlns:xlink="http://www.w3.org/1999/xlink">
 <defs>
  <style type="text/css">
*{stroke-linecap:butt;stroke-linejoin:round;}
  </style>
 </defs>
 <g id="figure_1">
  <g id="patch_1">
   <path d="M 0 353.285 
L 628.20125 353.285 
L 628.20125 0 
L 0 0 
z
" style="fill:none;"/>
  </g>
  <g id="axes_1">
   <g id="patch_2">
    <path d="M 63.00125 300.2 
L 621.00125 300.2 
L 621.00125 28.4 
L 63.00125 28.4 
z
" style="fill:#ffffff;"/>
   </g>
   <g id="matplotlib.axis_1">
    <g id="xtick_1">
     <g id="line2d_1">
      <defs>
       <path d="M 0 0 
L 0 3.5 
" id="m9929acdaa1" style="stroke:#000000;stroke-width:0.8;"/>
      </defs>
      <g>
       <use style="stroke:#000000;stroke-width:0.8;" x="88.364886" xlink:href="#m9929acdaa1" y="300.2"/>
      </g>
     </g>
     <g id="text_1">
      <!-- 0 -->
      <defs>
       <path d="M 31.78125 66.40625 
Q 24.171875 66.40625 20.328125 58.90625 
Q 16.5 51.421875 16.5 36.375 
Q 16.5 21.390625 20.328125 13.890625 
Q 24.171875 6.390625 31.78125 6.390625 
Q 39.453125 6.390625 43.28125 13.890625 
Q 47.125 21.390625 47.125 36.375 
Q 47.125 51.421875 43.28125 58.90625 
Q 39.453125 66.40625 31.78125 66.40625 
z
M 31.78125 74.21875 
Q 44.046875 74.21875 50.515625 64.515625 
Q 56.984375 54.828125 56.984375 36.375 
Q 56.984375 17.96875 50.515625 8.265625 
Q 44.046875 -1.421875 31.78125 -1.421875 
Q 19.53125 -1.421875 13.0625 8.265625 
Q 6.59375 17.96875 6.59375 36.375 
Q 6.59375 54.828125 13.0625 64.515625 
Q 19.53125 74.21875 31.78125 74.21875 
z
" id="DejaVuSans-48"/>
      </defs>
      <g transform="translate(83.274886 319.3575)scale(0.16 -0.16)">
       <use xlink:href="#DejaVuSans-48"/>
      </g>
     </g>
    </g>
    <g id="xtick_2">
     <g id="line2d_2">
      <g>
       <use style="stroke:#000000;stroke-width:0.8;" x="190.844225" xlink:href="#m9929acdaa1" y="300.2"/>
      </g>
     </g>
     <g id="text_2">
      <!-- 1 -->
      <defs>
       <path d="M 12.40625 8.296875 
L 28.515625 8.296875 
L 28.515625 63.921875 
L 10.984375 60.40625 
L 10.984375 69.390625 
L 28.421875 72.90625 
L 38.28125 72.90625 
L 38.28125 8.296875 
L 54.390625 8.296875 
L 54.390625 0 
L 12.40625 0 
z
" id="DejaVuSans-49"/>
      </defs>
      <g transform="translate(185.754225 319.3575)scale(0.16 -0.16)">
       <use xlink:href="#DejaVuSans-49"/>
      </g>
     </g>
    </g>
    <g id="xtick_3">
     <g id="line2d_3">
      <g>
       <use style="stroke:#000000;stroke-width:0.8;" x="293.323564" xlink:href="#m9929acdaa1" y="300.2"/>
      </g>
     </g>
     <g id="text_3">
      <!-- 2 -->
      <defs>
       <path d="M 19.1875 8.296875 
L 53.609375 8.296875 
L 53.609375 0 
L 7.328125 0 
L 7.328125 8.296875 
Q 12.9375 14.109375 22.625 23.890625 
Q 32.328125 33.6875 34.8125 36.53125 
Q 39.546875 41.84375 41.421875 45.53125 
Q 43.3125 49.21875 43.3125 52.78125 
Q 43.3125 58.59375 39.234375 62.25 
Q 35.15625 65.921875 28.609375 65.921875 
Q 23.96875 65.921875 18.8125 64.3125 
Q 13.671875 62.703125 7.8125 59.421875 
L 7.8125 69.390625 
Q 13.765625 71.78125 18.9375 73 
Q 24.125 74.21875 28.421875 74.21875 
Q 39.75 74.21875 46.484375 68.546875 
Q 53.21875 62.890625 53.21875 53.421875 
Q 53.21875 48.921875 51.53125 44.890625 
Q 49.859375 40.875 45.40625 35.40625 
Q 44.1875 33.984375 37.640625 27.21875 
Q 31.109375 20.453125 19.1875 8.296875 
z
" id="DejaVuSans-50"/>
      </defs>
      <g transform="translate(288.233564 319.3575)scale(0.16 -0.16)">
       <use xlink:href="#DejaVuSans-50"/>
      </g>
     </g>
    </g>
    <g id="xtick_4">
     <g id="line2d_4">
      <g>
       <use style="stroke:#000000;stroke-width:0.8;" x="395.802903" xlink:href="#m9929acdaa1" y="300.2"/>
      </g>
     </g>
     <g id="text_4">
      <!-- 3 -->
      <defs>
       <path d="M 40.578125 39.3125 
Q 47.65625 37.796875 51.625 33 
Q 55.609375 28.21875 55.609375 21.1875 
Q 55.609375 10.40625 48.1875 4.484375 
Q 40.765625 -1.421875 27.09375 -1.421875 
Q 22.515625 -1.421875 17.65625 -0.515625 
Q 12.796875 0.390625 7.625 2.203125 
L 7.625 11.71875 
Q 11.71875 9.328125 16.59375 8.109375 
Q 21.484375 6.890625 26.8125 6.890625 
Q 36.078125 6.890625 40.9375 10.546875 
Q 45.796875 14.203125 45.796875 21.1875 
Q 45.796875 27.640625 41.28125 31.265625 
Q 36.765625 34.90625 28.71875 34.90625 
L 20.21875 34.90625 
L 20.21875 43.015625 
L 29.109375 43.015625 
Q 36.375 43.015625 40.234375 45.921875 
Q 44.09375 48.828125 44.09375 54.296875 
Q 44.09375 59.90625 40.109375 62.90625 
Q 36.140625 65.921875 28.71875 65.921875 
Q 24.65625 65.921875 20.015625 65.03125 
Q 15.375 64.15625 9.8125 62.3125 
L 9.8125 71.09375 
Q 15.4375 72.65625 20.34375 73.4375 
Q 25.25 74.21875 29.59375 74.21875 
Q 40.828125 74.21875 47.359375 69.109375 
Q 53.90625 64.015625 53.90625 55.328125 
Q 53.90625 49.265625 50.4375 45.09375 
Q 46.96875 40.921875 40.578125 39.3125 
z
" id="DejaVuSans-51"/>
      </defs>
      <g transform="translate(390.712903 319.3575)scale(0.16 -0.16)">
       <use xlink:href="#DejaVuSans-51"/>
      </g>
     </g>
    </g>
    <g id="xtick_5">
     <g id="line2d_5">
      <g>
       <use style="stroke:#000000;stroke-width:0.8;" x="498.282242" xlink:href="#m9929acdaa1" y="300.2"/>
      </g>
     </g>
     <g id="text_5">
      <!-- 4 -->
      <defs>
       <path d="M 37.796875 64.3125 
L 12.890625 25.390625 
L 37.796875 25.390625 
z
M 35.203125 72.90625 
L 47.609375 72.90625 
L 47.609375 25.390625 
L 58.015625 25.390625 
L 58.015625 17.1875 
L 47.609375 17.1875 
L 47.609375 0 
L 37.796875 0 
L 37.796875 17.1875 
L 4.890625 17.1875 
L 4.890625 26.703125 
z
" id="DejaVuSans-52"/>
      </defs>
      <g transform="translate(493.192242 319.3575)scale(0.16 -0.16)">
       <use xlink:href="#DejaVuSans-52"/>
      </g>
     </g>
    </g>
    <g id="xtick_6">
     <g id="line2d_6">
      <g>
       <use style="stroke:#000000;stroke-width:0.8;" x="600.761581" xlink:href="#m9929acdaa1" y="300.2"/>
      </g>
     </g>
     <g id="text_6">
      <!-- 5 -->
      <defs>
       <path d="M 10.796875 72.90625 
L 49.515625 72.90625 
L 49.515625 64.59375 
L 19.828125 64.59375 
L 19.828125 46.734375 
Q 21.96875 47.46875 24.109375 47.828125 
Q 26.265625 48.1875 28.421875 48.1875 
Q 40.625 48.1875 47.75 41.5 
Q 54.890625 34.8125 54.890625 23.390625 
Q 54.890625 11.625 47.5625 5.09375 
Q 40.234375 -1.421875 26.90625 -1.421875 
Q 22.3125 -1.421875 17.546875 -0.640625 
Q 12.796875 0.140625 7.71875 1.703125 
L 7.71875 11.625 
Q 12.109375 9.234375 16.796875 8.0625 
Q 21.484375 6.890625 26.703125 6.890625 
Q 35.15625 6.890625 40.078125 11.328125 
Q 45.015625 15.765625 45.015625 23.390625 
Q 45.015625 31 40.078125 35.4375 
Q 35.15625 39.890625 26.703125 39.890625 
Q 22.75 39.890625 18.8125 39.015625 
Q 14.890625 38.140625 10.796875 36.28125 
z
" id="DejaVuSans-53"/>
      </defs>
      <g transform="translate(595.671581 319.3575)scale(0.16 -0.16)">
       <use xlink:href="#DejaVuSans-53"/>
      </g>
     </g>
    </g>
    <g id="text_7">
     <!-- $J_e$ (mV) -->
     <defs>
      <path d="M 16.703125 72.90625 
L 26.609375 72.90625 
L 13.375 5.078125 
Q 10.796875 -8.15625 4.65625 -14.078125 
Q -1.46875 -20.015625 -12.5 -20.015625 
L -16.40625 -20.015625 
L -14.796875 -11.71875 
L -11.71875 -11.71875 
Q -5.125 -11.71875 -1.703125 -7.953125 
Q 1.703125 -4.203125 3.515625 5.078125 
z
" id="DejaVuSans-Oblique-74"/>
      <path d="M 48.09375 32.234375 
Q 48.25 33.015625 48.3125 33.84375 
Q 48.390625 34.671875 48.390625 35.5 
Q 48.390625 41.453125 44.890625 44.921875 
Q 41.40625 48.390625 35.40625 48.390625 
Q 28.71875 48.390625 23.578125 44.15625 
Q 18.453125 39.9375 15.828125 32.171875 
z
M 55.90625 25.203125 
L 14.109375 25.203125 
Q 13.8125 23.34375 13.71875 22.265625 
Q 13.625 21.1875 13.625 20.40625 
Q 13.625 13.625 17.796875 9.90625 
Q 21.96875 6.203125 29.59375 6.203125 
Q 35.453125 6.203125 40.671875 7.515625 
Q 45.90625 8.84375 50.390625 11.375 
L 48.6875 2.484375 
Q 43.84375 0.53125 38.6875 -0.4375 
Q 33.546875 -1.421875 28.21875 -1.421875 
Q 16.84375 -1.421875 10.71875 4.015625 
Q 4.59375 9.46875 4.59375 19.484375 
Q 4.59375 28.03125 7.640625 35.375 
Q 10.6875 42.71875 16.609375 48.484375 
Q 20.40625 52.09375 25.65625 54.046875 
Q 30.90625 56 36.8125 56 
Q 46.09375 56 51.578125 50.4375 
Q 57.078125 44.875 57.078125 35.5 
Q 57.078125 33.25 56.78125 30.6875 
Q 56.5 28.125 55.90625 25.203125 
z
" id="DejaVuSans-Oblique-101"/>
      <path id="DejaVuSans-32"/>
      <path d="M 31 75.875 
Q 24.46875 64.65625 21.28125 53.65625 
Q 18.109375 42.671875 18.109375 31.390625 
Q 18.109375 20.125 21.3125 9.0625 
Q 24.515625 -2 31 -13.1875 
L 23.1875 -13.1875 
Q 15.875 -1.703125 12.234375 9.375 
Q 8.59375 20.453125 8.59375 31.390625 
Q 8.59375 42.28125 12.203125 53.3125 
Q 15.828125 64.359375 23.1875 75.875 
z
" id="DejaVuSans-40"/>
      <path d="M 52 44.1875 
Q 55.375 50.25 60.0625 53.125 
Q 64.75 56 71.09375 56 
Q 79.640625 56 84.28125 50.015625 
Q 88.921875 44.046875 88.921875 33.015625 
L 88.921875 0 
L 79.890625 0 
L 79.890625 32.71875 
Q 79.890625 40.578125 77.09375 44.375 
Q 74.3125 48.1875 68.609375 48.1875 
Q 61.625 48.1875 57.5625 43.546875 
Q 53.515625 38.921875 53.515625 30.90625 
L 53.515625 0 
L 44.484375 0 
L 44.484375 32.71875 
Q 44.484375 40.625 41.703125 44.40625 
Q 38.921875 48.1875 33.109375 48.1875 
Q 26.21875 48.1875 22.15625 43.53125 
Q 18.109375 38.875 18.109375 30.90625 
L 18.109375 0 
L 9.078125 0 
L 9.078125 54.6875 
L 18.109375 54.6875 
L 18.109375 46.1875 
Q 21.1875 51.21875 25.484375 53.609375 
Q 29.78125 56 35.6875 56 
Q 41.65625 56 45.828125 52.96875 
Q 50 49.953125 52 44.1875 
z
" id="DejaVuSans-109"/>
      <path d="M 28.609375 0 
L 0.78125 72.90625 
L 11.078125 72.90625 
L 34.1875 11.53125 
L 57.328125 72.90625 
L 67.578125 72.90625 
L 39.796875 0 
z
" id="DejaVuSans-86"/>
      <path d="M 8.015625 75.875 
L 15.828125 75.875 
Q 23.140625 64.359375 26.78125 53.3125 
Q 30.421875 42.28125 30.421875 31.390625 
Q 30.421875 20.453125 26.78125 9.375 
Q 23.140625 -1.703125 15.828125 -13.1875 
L 8.015625 -13.1875 
Q 14.5 -2 17.703125 9.0625 
Q 20.90625 20.125 20.90625 31.390625 
Q 20.90625 42.671875 17.703125 53.65625 
Q 14.5 64.65625 8.015625 75.875 
z
" id="DejaVuSans-41"/>
     </defs>
     <g transform="translate(306.90125 341.885)scale(0.2 -0.2)">
      <use transform="translate(0 0.125)" xlink:href="#DejaVuSans-Oblique-74"/>
      <use transform="translate(29.492188 -16.28125)scale(0.7)" xlink:href="#DejaVuSans-Oblique-101"/>
      <use transform="translate(75.292969 0.125)" xlink:href="#DejaVuSans-32"/>
      <use transform="translate(107.080078 0.125)" xlink:href="#DejaVuSans-40"/>
      <use transform="translate(146.09375 0.125)" xlink:href="#DejaVuSans-109"/>
      <use transform="translate(243.505859 0.125)" xlink:href="#DejaVuSans-86"/>
      <use transform="translate(311.914062 0.125)" xlink:href="#DejaVuSans-41"/>
     </g>
    </g>
   </g>
   <g id="matplotlib.axis_2">
    <g id="ytick_1">
     <g id="line2d_7">
      <defs>
       <path d="M 0 0 
L -3.5 0 
" id="mf77793752e" style="stroke:#000000;stroke-width:0.8;"/>
      </defs>
      <g>
       <use style="stroke:#000000;stroke-width:0.8;" x="63.00125" xlink:href="#mf77793752e" y="250.97881"/>
      </g>
     </g>
     <g id="text_8">
      <!-- 0.1 -->
      <defs>
       <path d="M 10.6875 12.40625 
L 21 12.40625 
L 21 0 
L 10.6875 0 
z
" id="DejaVuSans-46"/>
      </defs>
      <g transform="translate(30.55625 257.05756)scale(0.16 -0.16)">
       <use xlink:href="#DejaVuSans-48"/>
       <use x="63.623047" xlink:href="#DejaVuSans-46"/>
       <use x="95.410156" xlink:href="#DejaVuSans-49"/>
      </g>
     </g>
    </g>
    <g id="ytick_2">
     <g id="line2d_8">
      <g>
       <use style="stroke:#000000;stroke-width:0.8;" x="63.00125" xlink:href="#mf77793752e" y="197.107088"/>
      </g>
     </g>
     <g id="text_9">
      <!-- 0.2 -->
      <g transform="translate(30.55625 203.185838)scale(0.16 -0.16)">
       <use xlink:href="#DejaVuSans-48"/>
       <use x="63.623047" xlink:href="#DejaVuSans-46"/>
       <use x="95.410156" xlink:href="#DejaVuSans-50"/>
      </g>
     </g>
    </g>
    <g id="ytick_3">
     <g id="line2d_9">
      <g>
       <use style="stroke:#000000;stroke-width:0.8;" x="63.00125" xlink:href="#mf77793752e" y="143.235366"/>
      </g>
     </g>
     <g id="text_10">
      <!-- 0.3 -->
      <g transform="translate(30.55625 149.314116)scale(0.16 -0.16)">
       <use xlink:href="#DejaVuSans-48"/>
       <use x="63.623047" xlink:href="#DejaVuSans-46"/>
       <use x="95.410156" xlink:href="#DejaVuSans-51"/>
      </g>
     </g>
    </g>
    <g id="ytick_4">
     <g id="line2d_10">
      <g>
       <use style="stroke:#000000;stroke-width:0.8;" x="63.00125" xlink:href="#mf77793752e" y="89.363644"/>
      </g>
     </g>
     <g id="text_11">
      <!-- 0.4 -->
      <g transform="translate(30.55625 95.442394)scale(0.16 -0.16)">
       <use xlink:href="#DejaVuSans-48"/>
       <use x="63.623047" xlink:href="#DejaVuSans-46"/>
       <use x="95.410156" xlink:href="#DejaVuSans-52"/>
      </g>
     </g>
    </g>
    <g id="ytick_5">
     <g id="line2d_11">
      <g>
       <use style="stroke:#000000;stroke-width:0.8;" x="63.00125" xlink:href="#mf77793752e" y="35.491922"/>
      </g>
     </g>
     <g id="text_12">
      <!-- 0.5 -->
      <g transform="translate(30.55625 41.570672)scale(0.16 -0.16)">
       <use xlink:href="#DejaVuSans-48"/>
       <use x="63.623047" xlink:href="#DejaVuSans-46"/>
       <use x="95.410156" xlink:href="#DejaVuSans-53"/>
      </g>
     </g>
    </g>
    <g id="text_13">
     <!-- $E$ (au) -->
     <defs>
      <path d="M 16.890625 72.90625 
L 62.984375 72.90625 
L 61.375 64.59375 
L 25.09375 64.59375 
L 20.90625 43.015625 
L 55.71875 43.015625 
L 54.109375 34.71875 
L 19.28125 34.71875 
L 14.203125 8.296875 
L 51.3125 8.296875 
L 49.703125 0 
L 2.6875 0 
z
" id="DejaVuSans-Oblique-69"/>
      <path d="M 34.28125 27.484375 
Q 23.390625 27.484375 19.1875 25 
Q 14.984375 22.515625 14.984375 16.5 
Q 14.984375 11.71875 18.140625 8.90625 
Q 21.296875 6.109375 26.703125 6.109375 
Q 34.1875 6.109375 38.703125 11.40625 
Q 43.21875 16.703125 43.21875 25.484375 
L 43.21875 27.484375 
z
M 52.203125 31.203125 
L 52.203125 0 
L 43.21875 0 
L 43.21875 8.296875 
Q 40.140625 3.328125 35.546875 0.953125 
Q 30.953125 -1.421875 24.3125 -1.421875 
Q 15.921875 -1.421875 10.953125 3.296875 
Q 6 8.015625 6 15.921875 
Q 6 25.140625 12.171875 29.828125 
Q 18.359375 34.515625 30.609375 34.515625 
L 43.21875 34.515625 
L 43.21875 35.40625 
Q 43.21875 41.609375 39.140625 45 
Q 35.0625 48.390625 27.6875 48.390625 
Q 23 48.390625 18.546875 47.265625 
Q 14.109375 46.140625 10.015625 43.890625 
L 10.015625 52.203125 
Q 14.9375 54.109375 19.578125 55.046875 
Q 24.21875 56 28.609375 56 
Q 40.484375 56 46.34375 49.84375 
Q 52.203125 43.703125 52.203125 31.203125 
z
" id="DejaVuSans-97"/>
      <path d="M 8.5 21.578125 
L 8.5 54.6875 
L 17.484375 54.6875 
L 17.484375 21.921875 
Q 17.484375 14.15625 20.5 10.265625 
Q 23.53125 6.390625 29.59375 6.390625 
Q 36.859375 6.390625 41.078125 11.03125 
Q 45.3125 15.671875 45.3125 23.6875 
L 45.3125 54.6875 
L 54.296875 54.6875 
L 54.296875 0 
L 45.3125 0 
L 45.3125 8.40625 
Q 42.046875 3.421875 37.71875 1 
Q 33.40625 -1.421875 27.6875 -1.421875 
Q 18.265625 -1.421875 13.375 4.4375 
Q 8.5 10.296875 8.5 21.578125 
z
M 31.109375 56 
z
" id="DejaVuSans-117"/>
     </defs>
     <g transform="translate(22.396875 194.1)rotate(-90)scale(0.2 -0.2)">
      <use transform="translate(0 0.125)" xlink:href="#DejaVuSans-Oblique-69"/>
      <use transform="translate(63.183594 0.125)" xlink:href="#DejaVuSans-32"/>
      <use transform="translate(94.970703 0.125)" xlink:href="#DejaVuSans-40"/>
      <use transform="translate(133.984375 0.125)" xlink:href="#DejaVuSans-97"/>
      <use transform="translate(195.263672 0.125)" xlink:href="#DejaVuSans-117"/>
      <use transform="translate(258.642578 0.125)" xlink:href="#DejaVuSans-41"/>
     </g>
    </g>
   </g>
   <g id="line2d_12">
    <path clip-path="url(#p4c213d30be)" d="M 88.364886 286.593118 
L 93.488853 285.535365 
L 98.61282 284.411837 
L 103.736787 283.218402 
L 108.860754 281.950774 
L 113.984721 280.604548 
L 119.108688 279.175251 
L 124.232655 277.658404 
L 129.356622 276.049609 
L 134.480589 274.344657 
L 139.604556 272.539653 
L 144.728523 270.63117 
L 149.85249 268.61642 
L 154.976457 266.493427 
L 160.100424 264.261216 
L 165.22439 261.919979 
L 170.348357 259.471209 
L 175.472324 256.917788 
L 180.596291 254.264008 
L 185.720258 251.515505 
L 190.844225 248.679119 
L 195.968192 245.762671 
L 201.092159 242.774679 
L 206.216126 239.724047 
L 211.340093 236.619738 
L 216.46406 233.470474 
L 221.588027 230.284479 
L 226.711994 227.069071 
L 231.835961 223.824067 
L 236.959928 196.846488 
L 242.083895 171.174785 
L 247.207862 153.480735 
L 252.331829 139.739362 
L 257.455795 128.754142 
L 262.579762 119.838476 
L 267.703729 112.508451 
L 272.827696 106.406163 
L 277.951663 101.264701 
L 283.07563 96.88496 
L 288.199597 93.11734 
L 293.323564 89.849692 
L 298.447531 86.996744 
L 303.571498 84.493617 
L 308.695465 82.290828 
L 313.819432 80.351135 
L 318.943399 78.646833 
L 324.067366 77.158638 
L 329.191333 75.874644 
L 334.3153 74.790614 
L 339.439267 73.910436 
L 344.563233 73.24808 
L 349.6872 72.831028 
L 354.811167 72.705974 
L 359.935134 72.94955 
L 365.059101 73.686571 
L 370.183068 75.124889 
L 375.307035 77.627537 
L 380.431002 81.89066 
L 385.554969 89.602498 
L 390.678936 111.547203 
L 395.802903 115.133777 
L 400.92687 111.492593 
L 406.050837 107.872879 
L 411.174804 104.289566 
L 416.298771 100.758697 
L 421.422738 97.297128 
L 426.546705 93.92174 
L 431.670671 90.648558 
L 436.794638 87.491906 
L 441.918605 84.463709 
L 447.042572 81.573023 
L 452.166539 78.825839 
L 457.290506 76.225153 
L 462.414473 73.771231 
L 467.53844 71.462022 
L 472.662407 69.293626 
L 477.786374 67.260765 
L 482.910341 65.35721 
L 488.034308 63.576154 
L 493.158275 61.910503 
L 498.282242 60.353114 
L 503.406209 58.896953 
L 508.530176 57.53522 
L 513.654143 56.261421 
L 518.77811 55.069418 
L 523.902076 53.953449 
L 529.026043 52.908133 
L 534.15001 51.928468 
L 539.273977 51.009817 
L 544.397944 50.147888 
L 549.521911 49.338715 
L 554.645878 48.57864 
L 559.769845 47.864284 
L 564.893812 47.19253 
L 570.017779 46.560503 
L 575.141746 45.965548 
L 580.265713 45.405212 
L 585.38968 44.87723 
L 590.513647 44.379505 
L 595.637614 43.910098 
" style="fill:none;stroke:#000000;stroke-linecap:square;stroke-width:1.5;"/>
   </g>
   <g id="line2d_13">
    <path clip-path="url(#p4c213d30be)" d="M 88.364886 285.170115 
L 93.488853 283.997108 
L 98.61282 282.747157 
L 103.736787 281.414972 
L 108.860754 279.99502 
L 113.984721 278.481575 
L 119.108688 276.868782 
L 124.232655 275.150753 
L 129.356622 273.321696 
L 134.480589 271.376081 
L 139.604556 269.308842 
L 144.728523 267.11562 
L 149.85249 264.793035 
L 154.976457 262.338973 
L 160.100424 259.752869 
L 165.22439 257.035948 
L 170.348357 254.191396 
L 175.472324 251.224424 
L 180.596291 248.14219 
L 185.720258 244.953584 
L 190.844225 241.66887 
L 195.968192 238.299232 
L 201.092159 234.85626 
L 206.216126 231.351442 
L 211.340093 227.79571 
L 216.46406 224.195831 
L 221.588027 194.290802 
L 226.711994 166.018644 
L 231.835961 146.841742 
L 236.959928 132.413506 
L 242.083895 121.271326 
L 247.207862 112.503878 
L 252.331829 105.475261 
L 257.455795 99.738173 
L 262.579762 94.978228 
L 267.703729 90.97326 
L 272.827696 87.5645 
L 277.951663 84.637442 
L 283.07563 82.108687 
L 288.199597 79.917872 
L 293.323564 78.021611 
L 298.447531 76.390726 
L 303.571498 75.008219 
L 308.695465 73.869333 
L 313.819432 72.983274 
L 318.943399 72.377386 
L 324.067366 72.105825 
L 329.191333 72.266265 
L 334.3153 73.031771 
L 339.439267 74.718322 
L 344.563233 77.937364 
L 349.6872 84.048347 
L 354.811167 97.926992 
L 359.935134 115.916102 
L 365.059101 111.753191 
L 370.183068 107.632367 
L 375.307035 103.578307 
L 380.431002 99.616703 
L 385.554969 95.772965 
L 390.678936 92.070441 
L 395.802903 88.528823 
L 400.92687 85.16301 
L 406.050837 81.982597 
L 411.174804 78.991972 
L 416.298771 76.190894 
L 421.422738 73.575347 
L 426.546705 71.138496 
L 431.670671 68.871583 
L 436.794638 66.764706 
L 441.918605 64.807429 
L 447.042572 62.989235 
L 452.166539 61.299846 
L 457.290506 59.729428 
L 462.414473 58.268711 
L 467.53844 56.909055 
L 472.662407 55.642465 
L 477.786374 54.461584 
L 482.910341 53.359671 
L 488.034308 52.330557 
L 493.158275 51.368614 
L 498.282242 50.468703 
L 503.406209 49.626137 
L 508.530176 48.836641 
L 513.654143 48.096311 
L 518.77811 47.401578 
L 523.902076 46.749182 
L 529.026043 46.136135 
L 534.15001 45.5597 
L 539.273977 45.017364 
L 544.397944 44.506819 
L 549.521911 44.025942 
L 554.645878 43.572775 
L 559.769845 43.145514 
L 564.893812 42.742492 
L 570.017779 42.362167 
L 575.141746 42.003114 
L 580.265713 41.664009 
L 585.38968 41.343626 
L 590.513647 41.040825 
L 595.637614 40.754545 
" style="fill:none;stroke:#3b4cc0;stroke-linecap:square;stroke-width:1.5;"/>
   </g>
   <g id="line2d_14">
    <path clip-path="url(#p4c213d30be)" d="M 88.364886 285.762271 
L 93.488853 284.638134 
L 98.61282 283.441912 
L 103.736787 282.168834 
L 108.860754 280.813931 
L 113.984721 279.372074 
L 119.108688 277.838036 
L 124.232655 276.206571 
L 129.356622 274.472522 
L 134.480589 272.630963 
L 139.604556 270.677363 
L 144.728523 268.607784 
L 149.85249 266.419107 
L 154.976457 264.109265 
L 160.100424 261.677482 
L 165.22439 259.124477 
L 170.348357 256.452626 
L 175.472324 253.666039 
L 180.596291 250.770537 
L 185.720258 247.773514 
L 190.844225 244.683688 
L 195.968192 241.510757 
L 201.092159 238.264995 
L 206.216126 234.956826 
L 211.340093 231.596423 
L 216.46406 228.193358 
L 221.588027 224.755853 
L 226.711994 204.08776 
L 231.835961 172.848471 
L 236.959928 153.087425 
L 242.083895 138.152407 
L 247.207862 126.486874 
L 252.331829 117.215287 
L 257.455795 109.72869 
L 262.579762 103.588088 
L 267.703729 98.476854 
L 272.827696 94.166006 
L 277.951663 90.488936 
L 283.07563 87.323492 
L 288.199597 84.579329 
L 293.323564 82.189446 
L 298.447531 80.104143 
L 303.571498 78.287563 
L 308.695465 76.714854 
L 313.819432 75.37111 
L 318.943399 74.251906 
L 324.067366 73.363524 
L 329.191333 72.72645 
L 334.3153 72.381141 
L 339.439267 72.398399 
L 344.563233 72.89931 
L 349.6872 74.093249 
L 354.811167 76.356885 
L 359.935134 80.426297 
L 365.059101 88.07535 
L 370.183068 110.151003 
L 375.307035 114.849228 
L 380.431002 110.91657 
L 385.554969 107.019586 
L 390.678936 103.178683 
L 395.802903 99.415269 
L 400.92687 95.7509 
L 406.050837 92.205959 
L 411.174804 88.798388 
L 416.298771 85.542681 
L 421.422738 82.449265 
L 426.546705 79.524338 
L 431.670671 76.7701 
L 436.794638 74.185277 
L 441.918605 71.765788 
L 447.042572 69.505465 
L 452.166539 67.396709 
L 457.290506 65.431058 
L 462.414473 63.599642 
L 467.53844 61.89352 
L 472.662407 60.303925 
L 477.786374 58.82243 
L 482.910341 57.441044 
L 488.034308 56.152272 
L 493.158275 54.949135 
L 498.282242 53.825171 
L 503.406209 52.77442 
L 508.530176 51.791397 
L 513.654143 50.871068 
L 518.77811 50.008813 
L 523.902076 49.200396 
L 529.026043 48.441935 
L 534.15001 47.729867 
L 539.273977 47.060927 
L 544.397944 46.432113 
L 549.521911 45.840668 
L 554.645878 45.284058 
L 559.769845 44.759948 
L 564.893812 44.266185 
L 570.017779 43.800786 
L 575.141746 43.361916 
L 580.265713 42.947879 
L 585.38968 42.557107 
L 590.513647 42.188144 
L 595.637614 41.839641 
" style="fill:none;stroke:#7b9ff9;stroke-linecap:square;stroke-width:1.5;"/>
   </g>
   <g id="line2d_15">
    <path clip-path="url(#p4c213d30be)" d="M 88.364886 286.323368 
L 93.488853 285.244334 
L 98.61282 284.097538 
L 103.736787 282.878652 
L 108.860754 281.58318 
L 113.984721 280.206495 
L 119.108688 278.743895 
L 124.232655 277.190666 
L 129.356622 275.54218 
L 134.480589 273.794009 
L 139.604556 271.942066 
L 144.728523 269.982768 
L 149.85249 267.913221 
L 154.976457 265.731419 
L 160.100424 263.436441 
L 165.22439 261.02863 
L 170.348357 258.509737 
L 175.472324 255.883007 
L 180.596291 253.153187 
L 185.720258 250.326444 
L 190.844225 247.41019 
L 195.968192 244.412828 
L 201.092159 241.34343 
L 206.216126 238.211392 
L 211.340093 235.026081 
L 216.46406 231.796517 
L 221.588027 228.531113 
L 226.711994 225.237262 
L 231.835961 215.34851 
L 236.959928 179.283643 
L 242.083895 158.935746 
L 247.207862 143.601198 
L 252.331829 131.517177 
L 257.455795 121.820733 
L 262.579762 113.930229 
L 267.703729 107.421672 
L 272.827696 101.982339 
L 277.951663 97.381256 
L 283.07563 93.447094 
L 288.199597 90.05242 
L 293.323564 87.101432 
L 298.447531 84.521975 
L 303.571498 82.259408 
L 308.695465 80.272774 
L 313.819432 78.531939 
L 318.943399 77.015928 
L 324.067366 75.711991 
L 329.191333 74.615617 
L 334.3153 73.731432 
L 339.439267 73.075199 
L 344.563233 72.677969 
L 349.6872 72.592975 
L 354.811167 72.908681 
L 359.935134 73.771724 
L 365.059101 75.431863 
L 370.183068 78.339085 
L 375.307035 83.405951 
L 380.431002 93.19717 
L 385.554969 117.503921 
L 390.678936 113.816709 
L 395.802903 110.089491 
L 400.92687 106.393248 
L 406.050837 102.744756 
L 411.174804 99.162006 
L 416.298771 95.663356 
L 421.422738 92.266558 
L 426.546705 88.98776 
L 431.670671 85.840647 
L 436.794638 82.835828 
L 441.918605 79.980535 
L 447.042572 77.278639 
L 452.166539 74.730918 
L 457.290506 72.335508 
L 462.414473 70.088427 
L 467.53844 67.984114 
L 472.662407 66.015927 
L 477.786374 64.176563 
L 482.910341 62.458399 
L 488.034308 60.853754 
L 493.158275 59.355076 
L 498.282242 57.955075 
L 503.406209 56.646807 
L 508.530176 55.423722 
L 513.654143 54.279687 
L 518.77811 53.208991 
L 523.902076 52.206337 
L 529.026043 51.266827 
L 534.15001 50.385938 
L 539.273977 49.559503 
L 544.397944 48.78368 
L 549.521911 48.054935 
L 554.645878 47.37001 
L 559.769845 46.725907 
L 564.893812 46.119862 
L 570.017779 45.549325 
L 575.141746 45.011944 
L 580.265713 44.505549 
L 585.38968 44.028131 
L 590.513647 43.577833 
L 595.637614 43.152935 
" style="fill:none;stroke:#c0d4f5;stroke-linecap:square;stroke-width:1.5;"/>
   </g>
   <g id="line2d_16">
    <path clip-path="url(#p4c213d30be)" d="M 88.364886 286.85608 
L 93.488853 285.818826 
L 98.61282 284.717681 
L 103.736787 283.548692 
L 108.860754 282.307769 
L 113.984721 280.990712 
L 119.108688 279.593259 
L 124.232655 278.111145 
L 129.356622 276.540185 
L 134.480589 274.876369 
L 139.604556 273.115981 
L 144.728523 271.25574 
L 149.85249 269.29295 
L 154.976457 267.225672 
L 160.100424 265.052886 
L 165.22439 262.774651 
L 170.348357 260.392233 
L 175.472324 257.908191 
L 180.596291 255.326405 
L 185.720258 252.652031 
L 190.844225 249.891383 
L 195.968192 247.05174 
L 201.092159 244.141099 
L 206.216126 241.167891 
L 211.340093 238.140679 
L 216.46406 235.067878 
L 221.588027 231.957505 
L 226.711994 228.816973 
L 231.835961 225.65295 
L 236.959928 221.419524 
L 242.083895 185.420187 
L 247.207862 164.401405 
L 252.331829 148.740316 
L 257.455795 136.327346 
L 262.579762 126.281974 
L 267.703729 118.044135 
L 272.827696 111.207556 
L 277.951663 105.467747 
L 283.07563 100.595607 
L 288.199597 96.418301 
L 293.323564 92.805044 
L 298.447531 89.656275 
L 303.571498 86.895916 
L 308.695465 84.465474 
L 313.819432 82.320278 
L 318.943399 80.425862 
L 324.067366 78.757231 
L 329.191333 77.296384 
L 334.3153 76.032417 
L 339.439267 74.961161 
L 344.563233 74.086021 
L 349.6872 73.419472 
L 354.811167 72.985893 
L 359.935134 72.826592 
L 365.059101 73.008445 
L 370.183068 73.638683 
L 375.307035 74.892618 
L 380.431002 77.067701 
L 385.554969 80.710068 
L 390.678936 87.016124 
L 395.802903 100.475721 
L 400.92687 116.369241 
L 406.050837 112.812951 
L 411.174804 109.270732 
L 416.298771 105.755546 
L 421.422738 102.281541 
L 426.546705 98.863955 
L 431.670671 95.518504 
L 436.794638 92.260644 
L 441.918605 89.104804 
L 447.042572 86.063667 
L 452.166539 83.147611 
L 457.290506 80.36435 
L 462.414473 77.718825 
L 467.53844 75.213301 
L 472.662407 72.847632 
L 477.786374 70.619635 
L 482.910341 68.525505 
L 488.034308 66.560227 
L 493.158275 64.717952 
L 498.282242 62.992321 
L 503.406209 61.37672 
L 508.530176 59.864487 
L 513.654143 58.44906 
L 518.77811 57.124081 
L 523.902076 55.883471 
L 529.026043 54.721464 
L 534.15001 53.63264 
L 539.273977 52.611923 
L 544.397944 51.654583 
L 549.521911 50.756227 
L 554.645878 49.912776 
L 559.769845 49.120457 
L 564.893812 48.375778 
L 570.017779 47.675511 
L 575.141746 47.016671 
L 580.265713 46.396499 
L 585.38968 45.812444 
L 590.513647 45.262146 
L 595.637614 44.743421 
" style="fill:none;stroke:#f2cbb7;stroke-linecap:square;stroke-width:1.5;"/>
   </g>
   <g id="line2d_17">
    <path clip-path="url(#p4c213d30be)" d="M 88.364886 287.362752 
L 93.488853 286.364331 
L 98.61282 285.305499 
L 103.736787 284.182634 
L 108.860754 282.99199 
L 113.984721 281.729732 
L 119.108688 280.391974 
L 124.232655 278.974833 
L 129.356622 277.474497 
L 134.480589 275.887312 
L 139.604556 274.209877 
L 144.728523 272.439168 
L 149.85249 270.572666 
L 154.976457 268.608498 
L 160.100424 266.54558 
L 165.22439 264.383756 
L 170.348357 262.12391 
L 175.472324 259.768053 
L 180.596291 257.319361 
L 185.720258 254.782153 
L 190.844225 252.161817 
L 195.968192 249.464665 
L 201.092159 246.69774 
L 206.216126 243.868586 
L 211.340093 240.984996 
L 216.46406 238.054761 
L 221.588027 235.085444 
L 226.711994 232.08418 
L 231.835961 229.057524 
L 236.959928 226.011072 
L 242.083895 222.807357 
L 247.207862 191.381822 
L 252.331829 169.511243 
L 257.455795 153.5658 
L 262.579762 140.896184 
L 267.703729 130.570631 
L 272.827696 122.041256 
L 277.951663 114.918522 
L 283.07563 108.908514 
L 288.199597 103.787448 
L 293.323564 99.383205 
L 298.447531 95.563707 
L 303.571498 92.227186 
L 308.695465 89.294685 
L 313.819432 86.704914 
L 318.943399 84.410109 
L 324.067366 82.373062 
L 329.191333 80.565328 
L 334.3153 78.965387 
L 339.439267 77.558097 
L 344.563233 76.334015 
L 349.6872 75.289437 
L 354.811167 74.426975 
L 359.935134 73.756688 
L 365.059101 73.298234 
L 370.183068 73.084463 
L 375.307035 73.167302 
L 380.431002 73.628231 
L 385.554969 74.59558 
L 390.678936 76.277764 
L 395.802903 79.032424 
L 400.92687 83.545783 
L 406.050837 91.53495 
L 411.174804 114.849653 
L 416.298771 115.222002 
L 421.422738 111.834244 
L 426.546705 108.459306 
L 431.670671 105.10827 
L 436.794638 101.793176 
L 441.918605 98.527032 
L 447.042572 95.323359 
L 452.166539 92.195637 
L 457.290506 89.156709 
L 462.414473 86.218191 
L 467.53844 83.389981 
L 472.662407 80.6799 
L 477.786374 78.09351 
L 482.910341 75.634098 
L 488.034308 73.302816 
L 493.158275 71.098919 
L 498.282242 69.020072 
L 503.406209 67.062684 
L 508.530176 65.222222 
L 513.654143 63.493502 
L 518.77811 61.870939 
L 523.902076 60.348748 
L 529.026043 58.921103 
L 534.15001 57.582254 
L 539.273977 56.326617 
L 544.397944 55.148831 
L 549.521911 54.043793 
L 554.645878 53.006682 
L 559.769845 52.032967 
L 564.893812 51.118405 
L 570.017779 50.259037 
L 575.141746 49.451174 
L 580.265713 48.691389 
L 585.38968 47.976497 
L 590.513647 47.303543 
L 595.637614 46.669786 
" style="fill:none;stroke:#ee8468;stroke-linecap:square;stroke-width:1.5;"/>
   </g>
   <g id="line2d_18">
    <path clip-path="url(#p4c213d30be)" d="M 88.364886 287.845455 
L 93.488853 286.883236 
L 98.61282 285.863755 
L 103.736787 284.783674 
L 108.860754 283.639547 
L 113.984721 282.427854 
L 119.108688 281.145032 
L 124.232655 279.787524 
L 129.356622 278.351839 
L 134.480589 276.834624 
L 139.604556 275.232751 
L 144.728523 273.543418 
L 149.85249 271.76426 
L 154.976457 269.893472 
L 160.100424 267.92993 
L 165.22439 265.873312 
L 170.348357 263.724202 
L 175.472324 261.484169 
L 180.596291 259.155811 
L 185.720258 256.742754 
L 190.844225 254.249604 
L 195.968192 251.681839 
L 201.092159 249.045662 
L 206.216126 246.347814 
L 211.340093 243.595362 
L 216.46406 240.795486 
L 221.588027 237.955266 
L 226.711994 235.081501 
L 231.835961 232.180555 
L 236.959928 229.258243 
L 242.083895 226.319518 
L 247.207862 223.346988 
L 252.331829 197.346645 
L 257.455795 174.299713 
L 262.579762 158.084749 
L 267.703729 145.21382 
L 272.827696 134.667643 
L 277.951663 125.898723 
L 283.07563 118.53129 
L 288.199597 112.283273 
L 293.323564 106.93728 
L 298.447531 102.324048 
L 303.571498 98.31225 
L 308.695465 94.798989 
L 313.819432 91.703692 
L 318.943399 88.96304 
L 324.067366 86.526914 
L 329.191333 84.356026 
L 334.3153 82.41933 
L 339.439267 80.692841 
L 344.563233 79.158309 
L 349.6872 77.802851 
L 354.811167 76.618269 
L 359.935134 75.601415 
L 365.059101 74.754372 
L 370.183068 74.085435 
L 375.307035 73.610748 
L 380.431002 73.356959 
L 385.554969 73.365624 
L 390.678936 73.700196 
L 395.802903 74.458137 
L 400.92687 75.792209 
L 406.050837 77.951607 
L 411.174804 81.376151 
L 416.298771 86.978978 
L 421.422738 97.642787 
L 426.546705 117.34116 
L 431.670671 114.112106 
L 436.794638 110.877314 
L 441.918605 107.65441 
L 447.042572 104.452897 
L 452.166539 101.283108 
L 457.290506 98.156228 
L 462.414473 95.083951 
L 467.53844 92.078066 
L 472.662407 89.149984 
L 477.786374 86.310266 
L 482.910341 83.568198 
L 488.034308 80.931457 
L 493.158275 78.405899 
L 498.282242 75.995477 
L 503.406209 73.702281 
L 508.530176 71.526686 
L 513.654143 69.467566 
L 518.77811 67.522538 
L 523.902076 65.688235 
L 529.026043 63.960548 
L 534.15001 62.334854 
L 539.273977 60.806214 
L 544.397944 59.369527 
L 549.521911 58.019658 
L 554.645878 56.751536 
L 559.769845 55.560222 
L 564.893812 54.440959 
L 570.017779 53.389205 
L 575.141746 52.400651 
L 580.265713 51.471232 
L 585.38968 50.597126 
L 590.513647 49.774752 
L 595.637614 49.000764 
" style="fill:none;stroke:#b40426;stroke-linecap:square;stroke-width:1.5;"/>
   </g>
   <g id="line2d_19">
    <path clip-path="url(#p4c213d30be)" d="M 88.364886 285.170115 
L 93.488853 283.997108 
L 98.61282 282.747157 
L 103.736787 281.414972 
L 108.860754 279.99502 
L 113.984721 278.481575 
L 119.108688 276.868782 
L 124.232655 275.150753 
L 129.356622 273.321696 
L 134.480589 271.376081 
L 139.604556 269.308842 
L 144.728523 267.11562 
L 149.85249 264.793035 
L 154.976457 262.338973 
L 160.100424 259.752869 
L 165.22439 257.035948 
L 170.348357 254.191396 
L 175.472324 251.224424 
L 180.596291 248.14219 
L 185.720258 244.953584 
L 190.844225 241.66887 
L 195.968192 238.299232 
L 201.092159 234.85626 
L 206.216126 231.351442 
L 211.340093 227.79571 
L 216.46406 224.202512 
L 221.588027 243.364399 
L 226.711994 256.472122 
L 231.835961 262.206776 
L 236.959928 265.143131 
L 242.083895 266.585038 
L 247.207862 267.124764 
L 252.331829 267.070773 
L 257.455795 266.593019 
L 262.579762 265.787101 
L 267.703729 264.705953 
L 272.827696 263.376151 
L 277.951663 261.806515 
L 283.07563 259.992384 
L 288.199597 257.917473 
L 293.323564 255.553881 
L 298.447531 252.860775 
L 303.571498 249.781479 
L 308.695465 246.238195 
L 313.819432 242.124707 
L 318.943399 237.294233 
L 324.067366 231.541644 
L 329.191333 224.575141 
L 334.3153 215.975507 
L 339.439267 205.133906 
L 344.563233 191.148501 
L 349.6872 172.516115 
L 354.811167 144.60131 
L 359.935134 115.916813 
L 365.059101 111.753191 
L 370.183068 107.632367 
L 375.307035 103.578307 
L 380.431002 99.616703 
L 385.554969 95.772965 
L 390.678936 92.070441 
L 395.802903 88.528823 
L 400.92687 85.16301 
L 406.050837 81.982597 
L 411.174804 78.991972 
L 416.298771 76.190894 
L 421.422738 73.575347 
L 426.546705 71.138496 
L 431.670671 68.871583 
L 436.794638 66.764706 
L 441.918605 64.807429 
L 447.042572 62.989235 
L 452.166539 61.299846 
L 457.290506 59.729428 
L 462.414473 58.268711 
L 467.53844 56.909055 
L 472.662407 55.642465 
L 477.786374 54.461584 
L 482.910341 53.359671 
L 488.034308 52.330557 
L 493.158275 51.368614 
L 498.282242 50.468703 
L 503.406209 49.626137 
L 508.530176 48.836641 
L 513.654143 48.096311 
L 518.77811 47.401578 
L 523.902076 46.749182 
L 529.026043 46.136135 
L 534.15001 45.5597 
L 539.273977 45.017364 
L 544.397944 44.506819 
L 549.521911 44.025942 
L 554.645878 43.572775 
L 559.769845 43.145514 
L 564.893812 42.742492 
L 570.017779 42.362167 
L 575.141746 42.003114 
L 580.265713 41.664009 
L 585.38968 41.343626 
L 590.513647 41.040825 
L 595.637614 40.754545 
" style="fill:none;stroke:#3b4cc0;stroke-linecap:square;stroke-width:1.5;"/>
   </g>
   <g id="line2d_20">
    <path clip-path="url(#p4c213d30be)" d="M 88.364886 285.762271 
L 93.488853 284.638134 
L 98.61282 283.441912 
L 103.736787 282.168834 
L 108.860754 280.813931 
L 113.984721 279.372074 
L 119.108688 277.838036 
L 124.232655 276.206571 
L 129.356622 274.472522 
L 134.480589 272.630963 
L 139.604556 270.677363 
L 144.728523 268.607784 
L 149.85249 266.419107 
L 154.976457 264.109265 
L 160.100424 261.677482 
L 165.22439 259.124477 
L 170.348357 256.452626 
L 175.472324 253.666039 
L 180.596291 250.770537 
L 185.720258 247.773514 
L 190.844225 244.683688 
L 195.968192 241.510757 
L 201.092159 238.264995 
L 206.216126 234.956826 
L 211.340093 231.596423 
L 216.46406 228.193358 
L 221.588027 224.756843 
L 226.711994 236.958971 
L 231.835961 253.779296 
L 236.959928 260.476693 
L 242.083895 264.00046 
L 247.207862 265.870722 
L 252.331829 266.746323 
L 257.455795 266.970844 
L 262.579762 266.737184 
L 267.703729 266.157251 
L 272.827696 265.296324 
L 277.951663 264.191212 
L 283.07563 262.859965 
L 288.199597 261.307383 
L 293.323564 259.52766 
L 298.447531 257.505589 
L 303.571498 255.216449 
L 308.695465 252.624766 
L 313.819432 249.68255 
L 318.943399 246.324778 
L 324.067366 242.464737 
L 329.191333 237.985586 
L 334.3153 232.727855 
L 339.439267 226.472096 
L 344.563233 218.912678 
L 349.6872 209.620232 
L 354.811167 197.984193 
L 359.935134 183.089184 
L 365.059101 163.171718 
L 370.183068 127.785357 
L 375.307035 114.849859 
L 380.431002 110.91657 
L 385.554969 107.019586 
L 390.678936 103.178683 
L 395.802903 99.415269 
L 400.92687 95.7509 
L 406.050837 92.205959 
L 411.174804 88.798388 
L 416.298771 85.542681 
L 421.422738 82.449265 
L 426.546705 79.524338 
L 431.670671 76.7701 
L 436.794638 74.185277 
L 441.918605 71.765788 
L 447.042572 69.505465 
L 452.166539 67.396709 
L 457.290506 65.431058 
L 462.414473 63.599642 
L 467.53844 61.89352 
L 472.662407 60.303925 
L 477.786374 58.82243 
L 482.910341 57.441044 
L 488.034308 56.152272 
L 493.158275 54.949135 
L 498.282242 53.825171 
L 503.406209 52.77442 
L 508.530176 51.791397 
L 513.654143 50.871068 
L 518.77811 50.008813 
L 523.902076 49.200396 
L 529.026043 48.441935 
L 534.15001 47.729867 
L 539.273977 47.060927 
L 544.397944 46.432113 
L 549.521911 45.840668 
L 554.645878 45.284058 
L 559.769845 44.759948 
L 564.893812 44.266185 
L 570.017779 43.800786 
L 575.141746 43.361916 
L 580.265713 42.947879 
L 585.38968 42.557107 
L 590.513647 42.188144 
L 595.637614 41.839641 
" style="fill:none;stroke:#7b9ff9;stroke-linecap:square;stroke-width:1.5;"/>
   </g>
   <g id="line2d_21">
    <path clip-path="url(#p4c213d30be)" d="M 88.364886 286.323368 
L 93.488853 285.244334 
L 98.61282 284.097538 
L 103.736787 282.878652 
L 108.860754 281.58318 
L 113.984721 280.206495 
L 119.108688 278.743895 
L 124.232655 277.190666 
L 129.356622 275.54218 
L 134.480589 273.794009 
L 139.604556 271.942066 
L 144.728523 269.982768 
L 149.85249 267.913221 
L 154.976457 265.731419 
L 160.100424 263.436441 
L 165.22439 261.02863 
L 170.348357 258.509737 
L 175.472324 255.883007 
L 180.596291 253.153187 
L 185.720258 250.326444 
L 190.844225 247.41019 
L 195.968192 244.412828 
L 201.092159 241.34343 
L 206.216126 238.211392 
L 211.340093 235.026081 
L 216.46406 231.796517 
L 221.588027 228.531113 
L 226.711994 225.237675 
L 231.835961 228.236197 
L 236.959928 250.927261 
L 242.083895 258.649346 
L 247.207862 262.74896 
L 252.331829 265.033348 
L 257.455795 266.233465 
L 262.579762 266.725955 
L 267.703729 266.724538 
L 272.827696 266.355684 
L 277.951663 265.695745 
L 283.07563 264.79051 
L 288.199597 263.665668 
L 293.323564 262.333497 
L 298.447531 260.795846 
L 303.571498 259.046275 
L 308.695465 257.0705 
L 313.819432 254.846395 
L 318.943399 252.342968 
L 324.067366 249.518663 
L 329.191333 246.318778 
L 334.3153 242.671007 
L 339.439267 238.480273 
L 344.563233 233.619709 
L 349.6872 227.919048 
L 354.811167 221.147209 
L 359.935134 212.989115 
L 365.059101 203.009856 
L 370.183068 190.592807 
L 375.307035 174.749823 
L 380.431002 153.038855 
L 385.554969 117.613954 
L 390.678936 113.816709 
L 395.802903 110.089491 
L 400.92687 106.393248 
L 406.050837 102.744756 
L 411.174804 99.162006 
L 416.298771 95.663356 
L 421.422738 92.266558 
L 426.546705 88.98776 
L 431.670671 85.840647 
L 436.794638 82.835828 
L 441.918605 79.980535 
L 447.042572 77.278639 
L 452.166539 74.730918 
L 457.290506 72.335508 
L 462.414473 70.088427 
L 467.53844 67.984114 
L 472.662407 66.015927 
L 477.786374 64.176563 
L 482.910341 62.458399 
L 488.034308 60.853754 
L 493.158275 59.355076 
L 498.282242 57.955075 
L 503.406209 56.646807 
L 508.530176 55.423722 
L 513.654143 54.279687 
L 518.77811 53.208991 
L 523.902076 52.206337 
L 529.026043 51.266827 
L 534.15001 50.385938 
L 539.273977 49.559503 
L 544.397944 48.78368 
L 549.521911 48.054935 
L 554.645878 47.37001 
L 559.769845 46.725907 
L 564.893812 46.119862 
L 570.017779 45.549325 
L 575.141746 45.011944 
L 580.265713 44.505549 
L 585.38968 44.028131 
L 590.513647 43.577833 
L 595.637614 43.152935 
" style="fill:none;stroke:#c0d4f5;stroke-linecap:square;stroke-width:1.5;"/>
   </g>
   <g id="line2d_22">
    <path clip-path="url(#p4c213d30be)" d="M 88.364886 286.85608 
L 93.488853 285.818826 
L 98.61282 284.717681 
L 103.736787 283.548692 
L 108.860754 282.307769 
L 113.984721 280.990712 
L 119.108688 279.593259 
L 124.232655 278.111145 
L 129.356622 276.540185 
L 134.480589 274.876369 
L 139.604556 273.115981 
L 144.728523 271.25574 
L 149.85249 269.29295 
L 154.976457 267.225672 
L 160.100424 265.052886 
L 165.22439 262.774651 
L 170.348357 260.392233 
L 175.472324 257.908191 
L 180.596291 255.326405 
L 185.720258 252.652031 
L 190.844225 249.891383 
L 195.968192 247.05174 
L 201.092159 244.141099 
L 206.216126 241.167891 
L 211.340093 238.140679 
L 216.46406 235.067878 
L 221.588027 231.957505 
L 226.711994 228.816973 
L 231.835961 225.65295 
L 236.959928 223.538411 
L 242.083895 247.892186 
L 247.207862 256.74832 
L 252.331829 261.416706 
L 257.455795 264.099936 
L 262.579762 265.61163 
L 267.703729 266.361181 
L 272.827696 266.581069 
L 277.951663 266.410968 
L 283.07563 265.937106 
L 288.199597 265.213014 
L 293.323564 264.271158 
L 298.447531 263.129813 
L 303.571498 261.796889 
L 308.695465 260.272324 
L 313.819432 258.549155 
L 318.943399 256.614055 
L 324.067366 254.446982 
L 329.191333 252.02062 
L 334.3153 249.298739 
L 339.439267 246.234351 
L 344.563233 242.766636 
L 349.6872 238.816597 
L 354.811167 234.281195 
L 359.935134 229.024812 
L 365.059101 222.867988 
L 370.183068 215.571146 
L 375.307035 206.812492 
L 380.431002 196.151595 
L 385.554969 182.943349 
L 390.678936 166.003583 
L 395.802903 141.036765 
L 400.92687 116.369954 
L 406.050837 112.812951 
L 411.174804 109.270732 
L 416.298771 105.755546 
L 421.422738 102.281541 
L 426.546705 98.863955 
L 431.670671 95.518504 
L 436.794638 92.260644 
L 441.918605 89.104804 
L 447.042572 86.063667 
L 452.166539 83.147611 
L 457.290506 80.36435 
L 462.414473 77.718825 
L 467.53844 75.213301 
L 472.662407 72.847632 
L 477.786374 70.619635 
L 482.910341 68.525505 
L 488.034308 66.560227 
L 493.158275 64.717952 
L 498.282242 62.992321 
L 503.406209 61.37672 
L 508.530176 59.864487 
L 513.654143 58.44906 
L 518.77811 57.124081 
L 523.902076 55.883471 
L 529.026043 54.721464 
L 534.15001 53.63264 
L 539.273977 52.611923 
L 544.397944 51.654583 
L 549.521911 50.756227 
L 554.645878 49.912776 
L 559.769845 49.120457 
L 564.893812 48.375778 
L 570.017779 47.675511 
L 575.141746 47.016671 
L 580.265713 46.396499 
L 585.38968 45.812444 
L 590.513647 45.262146 
L 595.637614 44.743421 
" style="fill:none;stroke:#f2cbb7;stroke-linecap:square;stroke-width:1.5;"/>
   </g>
   <g id="line2d_23">
    <path clip-path="url(#p4c213d30be)" d="M 88.364886 287.362752 
L 93.488853 286.364331 
L 98.61282 285.305499 
L 103.736787 284.182634 
L 108.860754 282.99199 
L 113.984721 281.729732 
L 119.108688 280.391974 
L 124.232655 278.974833 
L 129.356622 277.474497 
L 134.480589 275.887312 
L 139.604556 274.209877 
L 144.728523 272.439168 
L 149.85249 270.572666 
L 154.976457 268.608498 
L 160.100424 266.54558 
L 165.22439 264.383756 
L 170.348357 262.12391 
L 175.472324 259.768053 
L 180.596291 257.319361 
L 185.720258 254.782153 
L 190.844225 252.161817 
L 195.968192 249.464665 
L 201.092159 246.69774 
L 206.216126 243.868586 
L 211.340093 240.984996 
L 216.46406 238.054761 
L 221.588027 235.085444 
L 226.711994 232.08418 
L 231.835961 229.057524 
L 236.959928 226.011625 
L 242.083895 223.099425 
L 247.207862 244.615962 
L 252.331829 254.790153 
L 257.455795 260.026686 
L 262.579762 263.093717 
L 267.703729 264.903151 
L 272.827696 265.898107 
L 277.951663 266.32877 
L 283.07563 266.346549 
L 288.199597 266.046399 
L 293.323564 265.48871 
L 298.447531 264.712006 
L 303.571498 263.739436 
L 308.695465 262.583882 
L 313.819432 261.250266 
L 318.943399 259.737011 
L 324.067366 258.037081 
L 329.191333 256.137794 
L 334.3153 254.020978 
L 339.439267 251.662239 
L 344.563233 249.029719 
L 349.6872 246.082756 
L 354.811167 242.769242 
L 359.935134 239.022705 
L 365.059101 234.757866 
L 370.183068 229.86443 
L 375.307035 224.199489 
L 380.431002 217.575946 
L 385.554969 209.747922 
L 390.678936 200.387713 
L 395.802903 189.03959 
L 400.92687 174.981643 
L 406.050837 156.575507 
L 411.174804 122.414552 
L 416.298771 115.222663 
L 421.422738 111.834244 
L 426.546705 108.459306 
L 431.670671 105.10827 
L 436.794638 101.793176 
L 441.918605 98.527032 
L 447.042572 95.323359 
L 452.166539 92.195637 
L 457.290506 89.156709 
L 462.414473 86.218191 
L 467.53844 83.389981 
L 472.662407 80.6799 
L 477.786374 78.09351 
L 482.910341 75.634098 
L 488.034308 73.302816 
L 493.158275 71.098919 
L 498.282242 69.020072 
L 503.406209 67.062684 
L 508.530176 65.222222 
L 513.654143 63.493502 
L 518.77811 61.870939 
L 523.902076 60.348748 
L 529.026043 58.921103 
L 534.15001 57.582254 
L 539.273977 56.326617 
L 544.397944 55.148831 
L 549.521911 54.043793 
L 554.645878 53.006682 
L 559.769845 52.032967 
L 564.893812 51.118405 
L 570.017779 50.259037 
L 575.141746 49.451174 
L 580.265713 48.691389 
L 585.38968 47.976497 
L 590.513647 47.303543 
L 595.637614 46.669786 
" style="fill:none;stroke:#ee8468;stroke-linecap:square;stroke-width:1.5;"/>
   </g>
   <g id="line2d_24">
    <path clip-path="url(#p4c213d30be)" d="M 88.364886 287.845455 
L 93.488853 286.883236 
L 98.61282 285.863755 
L 103.736787 284.783674 
L 108.860754 283.639547 
L 113.984721 282.427854 
L 119.108688 281.145032 
L 124.232655 279.787524 
L 129.356622 278.351839 
L 134.480589 276.834624 
L 139.604556 275.232751 
L 144.728523 273.543418 
L 149.85249 271.76426 
L 154.976457 269.893472 
L 160.100424 267.92993 
L 165.22439 265.873312 
L 170.348357 263.724202 
L 175.472324 261.484169 
L 180.596291 259.155811 
L 185.720258 256.742754 
L 190.844225 254.249604 
L 195.968192 251.681839 
L 201.092159 249.045662 
L 206.216126 246.347814 
L 211.340093 243.595362 
L 216.46406 240.795486 
L 221.588027 237.955266 
L 226.711994 235.081501 
L 231.835961 232.180555 
L 236.959928 229.258243 
L 242.083895 226.319993 
L 247.207862 223.391125 
L 252.331829 240.977955 
L 257.455795 252.784375 
L 262.579762 258.597161 
L 267.703729 262.034353 
L 272.827696 264.127352 
L 277.951663 265.355714 
L 283.07563 265.986621 
L 288.199597 266.182115 
L 293.323564 266.044949 
L 298.447531 265.641734 
L 303.571498 265.015792 
L 308.695465 264.194932 
L 313.819432 263.196061 
L 318.943399 262.028035 
L 324.067366 260.693667 
L 329.191333 259.190257 
L 334.3153 257.51063 
L 339.439267 255.642908 
L 344.563233 253.570452 
L 349.6872 251.271324 
L 354.811167 248.717292 
L 359.935134 245.872648 
L 365.059101 242.69237 
L 370.183068 239.119739 
L 375.307035 235.083011 
L 380.431002 230.491071 
L 385.554969 225.22743 
L 390.678936 219.142738 
L 395.802903 212.044121 
L 400.92687 203.679686 
L 406.050837 193.711534 
L 411.174804 181.646366 
L 416.298771 166.588693 
L 421.422738 145.779977 
L 426.546705 117.361503 
L 431.670671 114.112623 
L 436.794638 110.877314 
L 441.918605 107.65441 
L 447.042572 104.452897 
L 452.166539 101.283108 
L 457.290506 98.156228 
L 462.414473 95.083951 
L 467.53844 92.078066 
L 472.662407 89.149984 
L 477.786374 86.310266 
L 482.910341 83.568198 
L 488.034308 80.931457 
L 493.158275 78.405899 
L 498.282242 75.995477 
L 503.406209 73.702281 
L 508.530176 71.526686 
L 513.654143 69.467566 
L 518.77811 67.522538 
L 523.902076 65.688235 
L 529.026043 63.960548 
L 534.15001 62.334854 
L 539.273977 60.806214 
L 544.397944 59.369527 
L 549.521911 58.019658 
L 554.645878 56.751536 
L 559.769845 55.560222 
L 564.893812 54.440959 
L 570.017779 53.389205 
L 575.141746 52.400651 
L 580.265713 51.471232 
L 585.38968 50.597126 
L 590.513647 49.774752 
L 595.637614 49.000764 
" style="fill:none;stroke:#b40426;stroke-linecap:square;stroke-width:1.5;"/>
   </g>
   <g id="line2d_25">
    <path clip-path="url(#p4c213d30be)" d="M 88.364886 286.593118 
L 93.488853 285.535365 
L 98.61282 284.411837 
L 103.736787 283.218402 
L 108.860754 281.950774 
L 113.984721 280.604548 
L 119.108688 279.175251 
L 124.232655 277.658404 
L 129.356622 276.049609 
L 134.480589 274.344657 
L 139.604556 272.539653 
L 144.728523 270.63117 
L 149.85249 268.61642 
L 154.976457 266.493427 
L 160.100424 264.261216 
L 165.22439 261.919979 
L 170.348357 259.471209 
L 175.472324 256.917788 
L 180.596291 254.264008 
L 185.720258 251.515505 
L 190.844225 248.679119 
L 195.968192 245.762671 
L 201.092159 242.774679 
L 206.216126 239.724047 
L 211.340093 236.619738 
L 216.46406 233.470474 
L 221.588027 230.284479 
L 226.711994 227.069471 
L 231.835961 223.838619 
L 236.959928 241.559877 
L 242.083895 254.298907 
L 247.207862 260.211868 
L 252.331829 263.510374 
L 257.455795 265.366943 
L 262.579762 266.321119 
L 267.703729 266.666535 
L 272.827696 266.574982 
L 277.951663 266.150506 
L 283.07563 265.456844 
L 288.199597 264.532452 
L 293.323564 263.399028 
L 298.447531 262.066455 
L 303.571498 260.535556 
L 308.695465 258.799641 
L 313.819432 256.844845 
L 318.943399 254.650181 
L 324.067366 252.186562 
L 329.191333 249.415246 
L 334.3153 246.285579 
L 339.439267 242.73144 
L 344.563233 238.666306 
L 349.6872 233.976061 
L 354.811167 228.509255 
L 359.935134 222.062928 
L 365.059101 214.363139 
L 370.183068 205.038043 
L 375.307035 193.568796 
L 380.431002 179.1677 
L 385.554969 160.202948 
L 390.678936 126.229556 
L 395.802903 115.134432 
L 400.92687 111.492593 
L 406.050837 107.872879 
L 411.174804 104.289566 
L 416.298771 100.758697 
L 421.422738 97.297128 
L 426.546705 93.92174 
L 431.670671 90.648558 
L 436.794638 87.491906 
L 441.918605 84.463709 
L 447.042572 81.573023 
L 452.166539 78.825839 
L 457.290506 76.225153 
L 462.414473 73.771231 
L 467.53844 71.462022 
L 472.662407 69.293626 
L 477.786374 67.260765 
L 482.910341 65.35721 
L 488.034308 63.576154 
L 493.158275 61.910503 
L 498.282242 60.353114 
L 503.406209 58.896953 
L 508.530176 57.53522 
L 513.654143 56.261421 
L 518.77811 55.069418 
L 523.902076 53.953449 
L 529.026043 52.908133 
L 534.15001 51.928468 
L 539.273977 51.009817 
L 544.397944 50.147888 
L 549.521911 49.338715 
L 554.645878 48.57864 
L 559.769845 47.864284 
L 564.893812 47.19253 
L 570.017779 46.560503 
L 575.141746 45.965548 
L 580.265713 45.405212 
L 585.38968 44.87723 
L 590.513647 44.379505 
L 595.637614 43.910098 
" style="fill:none;stroke:#000000;stroke-linecap:square;stroke-width:1.5;"/>
   </g>
   <g id="patch_3">
    <path d="M 63.00125 300.2 
L 63.00125 28.4 
" style="fill:none;stroke:#000000;stroke-linecap:square;stroke-linejoin:miter;stroke-width:0.8;"/>
   </g>
   <g id="patch_4">
    <path d="M 621.00125 300.2 
L 621.00125 28.4 
" style="fill:none;stroke:#000000;stroke-linecap:square;stroke-linejoin:miter;stroke-width:0.8;"/>
   </g>
   <g id="patch_5">
    <path d="M 63.00125 300.2 
L 621.00125 300.2 
" style="fill:none;stroke:#000000;stroke-linecap:square;stroke-linejoin:miter;stroke-width:0.8;"/>
   </g>
   <g id="patch_6">
    <path d="M 63.00125 28.4 
L 621.00125 28.4 
" style="fill:none;stroke:#000000;stroke-linecap:square;stroke-linejoin:miter;stroke-width:0.8;"/>
   </g>
   <g id="text_14">
    <!-- $R_i$ only -->
    <defs>
     <path d="M 25.203125 64.796875 
L 20.21875 38.921875 
L 32.90625 38.921875 
Q 40.375 38.921875 44.984375 43.046875 
Q 49.609375 47.171875 49.609375 53.8125 
Q 49.609375 59.125 46.5 61.953125 
Q 43.40625 64.796875 37.59375 64.796875 
z
M 43.3125 35.015625 
Q 46.4375 34.28125 48.515625 31.390625 
Q 50.59375 28.515625 53.328125 19.921875 
L 59.515625 0 
L 49.125 0 
L 43.40625 18.703125 
Q 41.21875 25.921875 38.328125 28.359375 
Q 35.453125 30.8125 29.5 30.8125 
L 18.609375 30.8125 
L 12.59375 0 
L 2.6875 0 
L 16.890625 72.90625 
L 39.109375 72.90625 
Q 49.21875 72.90625 54.609375 68.328125 
Q 60.015625 63.765625 60.015625 55.171875 
Q 60.015625 47.5625 55.421875 41.984375 
Q 50.828125 36.421875 43.3125 35.015625 
z
" id="DejaVuSans-Oblique-82"/>
     <path d="M 18.3125 75.984375 
L 27.296875 75.984375 
L 25.09375 64.59375 
L 16.109375 64.59375 
z
M 14.203125 54.6875 
L 23.1875 54.6875 
L 12.5 0 
L 3.515625 0 
z
" id="DejaVuSans-Oblique-105"/>
     <path d="M 30.609375 48.390625 
Q 23.390625 48.390625 19.1875 42.75 
Q 14.984375 37.109375 14.984375 27.296875 
Q 14.984375 17.484375 19.15625 11.84375 
Q 23.34375 6.203125 30.609375 6.203125 
Q 37.796875 6.203125 41.984375 11.859375 
Q 46.1875 17.53125 46.1875 27.296875 
Q 46.1875 37.015625 41.984375 42.703125 
Q 37.796875 48.390625 30.609375 48.390625 
z
M 30.609375 56 
Q 42.328125 56 49.015625 48.375 
Q 55.71875 40.765625 55.71875 27.296875 
Q 55.71875 13.875 49.015625 6.21875 
Q 42.328125 -1.421875 30.609375 -1.421875 
Q 18.84375 -1.421875 12.171875 6.21875 
Q 5.515625 13.875 5.515625 27.296875 
Q 5.515625 40.765625 12.171875 48.375 
Q 18.84375 56 30.609375 56 
z
" id="DejaVuSans-111"/>
     <path d="M 54.890625 33.015625 
L 54.890625 0 
L 45.90625 0 
L 45.90625 32.71875 
Q 45.90625 40.484375 42.875 44.328125 
Q 39.84375 48.1875 33.796875 48.1875 
Q 26.515625 48.1875 22.3125 43.546875 
Q 18.109375 38.921875 18.109375 30.90625 
L 18.109375 0 
L 9.078125 0 
L 9.078125 54.6875 
L 18.109375 54.6875 
L 18.109375 46.1875 
Q 21.34375 51.125 25.703125 53.5625 
Q 30.078125 56 35.796875 56 
Q 45.21875 56 50.046875 50.171875 
Q 54.890625 44.34375 54.890625 33.015625 
z
" id="DejaVuSans-110"/>
     <path d="M 9.421875 75.984375 
L 18.40625 75.984375 
L 18.40625 0 
L 9.421875 0 
z
" id="DejaVuSans-108"/>
     <path d="M 32.171875 -5.078125 
Q 28.375 -14.84375 24.75 -17.8125 
Q 21.140625 -20.796875 15.09375 -20.796875 
L 7.90625 -20.796875 
L 7.90625 -13.28125 
L 13.1875 -13.28125 
Q 16.890625 -13.28125 18.9375 -11.515625 
Q 21 -9.765625 23.484375 -3.21875 
L 25.09375 0.875 
L 2.984375 54.6875 
L 12.5 54.6875 
L 29.59375 11.921875 
L 46.6875 54.6875 
L 56.203125 54.6875 
z
" id="DejaVuSans-121"/>
    </defs>
    <g transform="translate(308.50125 22.4)scale(0.2 -0.2)">
     <use transform="translate(0 0.015625)" xlink:href="#DejaVuSans-Oblique-82"/>
     <use transform="translate(69.482422 -16.390625)scale(0.7)" xlink:href="#DejaVuSans-Oblique-105"/>
     <use transform="translate(91.665039 0.015625)" xlink:href="#DejaVuSans-32"/>
     <use transform="translate(123.452148 0.015625)" xlink:href="#DejaVuSans-111"/>
     <use transform="translate(184.633789 0.015625)" xlink:href="#DejaVuSans-110"/>
     <use transform="translate(248.012695 0.015625)" xlink:href="#DejaVuSans-108"/>
     <use transform="translate(275.795898 0.015625)" xlink:href="#DejaVuSans-121"/>
    </g>
   </g>
  </g>
 </g>
 <defs>
  <clipPath id="p4c213d30be">
   <rect height="271.8" width="558" x="63.00125" y="28.4"/>
  </clipPath>
 </defs>
</svg>
