<?xml version="1.0" encoding="utf-8" standalone="no"?>
<!DOCTYPE svg PUBLIC "-//W3C//DTD SVG 1.1//EN"
  "http://www.w3.org/Graphics/SVG/1.1/DTD/svg11.dtd">
<!-- Created with matplotlib (https://matplotlib.org/) -->
<svg height="332.085pt" version="1.1" viewBox="0 0 623.11625 332.085" width="623.11625pt" xmlns="http://www.w3.org/2000/svg" xmlns:xlink="http://www.w3.org/1999/xlink">
 <defs>
  <style type="text/css">
*{stroke-linecap:butt;stroke-linejoin:round;}
  </style>
 </defs>
 <g id="figure_1">
  <g id="patch_1">
   <path d="M 0 332.085 
L 623.11625 332.085 
L 623.11625 0 
L 0 0 
z
" style="fill:none;"/>
  </g>
  <g id="axes_1">
   <g id="patch_2">
    <path d="M 57.91625 279 
L 615.91625 279 
L 615.91625 7.2 
L 57.91625 7.2 
z
" style="fill:#ffffff;"/>
   </g>
   <g id="patch_3">
    <path clip-path="url(#p39834a2357)" d="M 57.91625 266.645455 
L 57.91625 217.877512 
L 615.91625 217.877512 
L 615.91625 266.645455 
z
" style="fill:#ffc0cb;opacity:0.5;"/>
   </g>
   <g id="patch_4">
    <path clip-path="url(#p39834a2357)" d="M 57.91625 217.877512 
L 57.91625 178.863158 
L 615.91625 178.863158 
L 615.91625 217.877512 
z
" style="fill:#add8e6;opacity:0.5;"/>
   </g>
   <g id="patch_5">
    <path clip-path="url(#p39834a2357)" d="M 57.91625 178.863158 
L 57.91625 139.848804 
L 615.91625 139.848804 
L 615.91625 178.863158 
z
" style="fill:#ffd700;opacity:0.5;"/>
   </g>
   <g id="patch_6">
    <path clip-path="url(#p39834a2357)" d="M 57.91625 139.848804 
L 57.91625 113.839234 
L 615.91625 113.839234 
L 615.91625 139.848804 
z
" style="fill:#dda0dd;opacity:0.5;"/>
   </g>
   <g id="patch_7">
    <path clip-path="url(#p39834a2357)" d="M 57.91625 113.839234 
L 57.91625 81.327273 
L 615.91625 81.327273 
L 615.91625 113.839234 
z
" style="fill:#ff8c00;opacity:0.5;"/>
   </g>
   <g id="patch_8">
    <path clip-path="url(#p39834a2357)" d="M 57.91625 81.327273 
L 57.91625 29.308134 
L 615.91625 29.308134 
L 615.91625 81.327273 
z
" style="fill:#008000;opacity:0.5;"/>
   </g>
   <g id="matplotlib.axis_1">
    <g id="xtick_1">
     <g id="line2d_1">
      <defs>
       <path d="M 0 0 
L 0 3.5 
" id="m80e652feb3" style="stroke:#000000;stroke-width:0.8;"/>
      </defs>
      <g>
       <use style="stroke:#000000;stroke-width:0.8;" x="83.279886" xlink:href="#m80e652feb3" y="279"/>
      </g>
     </g>
     <g id="text_1">
      <!-- 0 -->
      <defs>
       <path d="M 31.78125 66.40625 
Q 24.171875 66.40625 20.328125 58.90625 
Q 16.5 51.421875 16.5 36.375 
Q 16.5 21.390625 20.328125 13.890625 
Q 24.171875 6.390625 31.78125 6.390625 
Q 39.453125 6.390625 43.28125 13.890625 
Q 47.125 21.390625 47.125 36.375 
Q 47.125 51.421875 43.28125 58.90625 
Q 39.453125 66.40625 31.78125 66.40625 
z
M 31.78125 74.21875 
Q 44.046875 74.21875 50.515625 64.515625 
Q 56.984375 54.828125 56.984375 36.375 
Q 56.984375 17.96875 50.515625 8.265625 
Q 44.046875 -1.421875 31.78125 -1.421875 
Q 19.53125 -1.421875 13.0625 8.265625 
Q 6.59375 17.96875 6.59375 36.375 
Q 6.59375 54.828125 13.0625 64.515625 
Q 19.53125 74.21875 31.78125 74.21875 
z
" id="DejaVuSans-48"/>
      </defs>
      <g transform="translate(78.189886 298.1575)scale(0.16 -0.16)">
       <use xlink:href="#DejaVuSans-48"/>
      </g>
     </g>
    </g>
    <g id="xtick_2">
     <g id="line2d_2">
      <g>
       <use style="stroke:#000000;stroke-width:0.8;" x="161.623165" xlink:href="#m80e652feb3" y="279"/>
      </g>
     </g>
     <g id="text_2">
      <!-- 1 -->
      <defs>
       <path d="M 12.40625 8.296875 
L 28.515625 8.296875 
L 28.515625 63.921875 
L 10.984375 60.40625 
L 10.984375 69.390625 
L 28.421875 72.90625 
L 38.28125 72.90625 
L 38.28125 8.296875 
L 54.390625 8.296875 
L 54.390625 0 
L 12.40625 0 
z
" id="DejaVuSans-49"/>
      </defs>
      <g transform="translate(156.533165 298.1575)scale(0.16 -0.16)">
       <use xlink:href="#DejaVuSans-49"/>
      </g>
     </g>
    </g>
    <g id="xtick_3">
     <g id="line2d_3">
      <g>
       <use style="stroke:#000000;stroke-width:0.8;" x="239.966443" xlink:href="#m80e652feb3" y="279"/>
      </g>
     </g>
     <g id="text_3">
      <!-- 2 -->
      <defs>
       <path d="M 19.1875 8.296875 
L 53.609375 8.296875 
L 53.609375 0 
L 7.328125 0 
L 7.328125 8.296875 
Q 12.9375 14.109375 22.625 23.890625 
Q 32.328125 33.6875 34.8125 36.53125 
Q 39.546875 41.84375 41.421875 45.53125 
Q 43.3125 49.21875 43.3125 52.78125 
Q 43.3125 58.59375 39.234375 62.25 
Q 35.15625 65.921875 28.609375 65.921875 
Q 23.96875 65.921875 18.8125 64.3125 
Q 13.671875 62.703125 7.8125 59.421875 
L 7.8125 69.390625 
Q 13.765625 71.78125 18.9375 73 
Q 24.125 74.21875 28.421875 74.21875 
Q 39.75 74.21875 46.484375 68.546875 
Q 53.21875 62.890625 53.21875 53.421875 
Q 53.21875 48.921875 51.53125 44.890625 
Q 49.859375 40.875 45.40625 35.40625 
Q 44.1875 33.984375 37.640625 27.21875 
Q 31.109375 20.453125 19.1875 8.296875 
z
" id="DejaVuSans-50"/>
      </defs>
      <g transform="translate(234.876443 298.1575)scale(0.16 -0.16)">
       <use xlink:href="#DejaVuSans-50"/>
      </g>
     </g>
    </g>
    <g id="xtick_4">
     <g id="line2d_4">
      <g>
       <use style="stroke:#000000;stroke-width:0.8;" x="318.309721" xlink:href="#m80e652feb3" y="279"/>
      </g>
     </g>
     <g id="text_4">
      <!-- 3 -->
      <defs>
       <path d="M 40.578125 39.3125 
Q 47.65625 37.796875 51.625 33 
Q 55.609375 28.21875 55.609375 21.1875 
Q 55.609375 10.40625 48.1875 4.484375 
Q 40.765625 -1.421875 27.09375 -1.421875 
Q 22.515625 -1.421875 17.65625 -0.515625 
Q 12.796875 0.390625 7.625 2.203125 
L 7.625 11.71875 
Q 11.71875 9.328125 16.59375 8.109375 
Q 21.484375 6.890625 26.8125 6.890625 
Q 36.078125 6.890625 40.9375 10.546875 
Q 45.796875 14.203125 45.796875 21.1875 
Q 45.796875 27.640625 41.28125 31.265625 
Q 36.765625 34.90625 28.71875 34.90625 
L 20.21875 34.90625 
L 20.21875 43.015625 
L 29.109375 43.015625 
Q 36.375 43.015625 40.234375 45.921875 
Q 44.09375 48.828125 44.09375 54.296875 
Q 44.09375 59.90625 40.109375 62.90625 
Q 36.140625 65.921875 28.71875 65.921875 
Q 24.65625 65.921875 20.015625 65.03125 
Q 15.375 64.15625 9.8125 62.3125 
L 9.8125 71.09375 
Q 15.4375 72.65625 20.34375 73.4375 
Q 25.25 74.21875 29.59375 74.21875 
Q 40.828125 74.21875 47.359375 69.109375 
Q 53.90625 64.015625 53.90625 55.328125 
Q 53.90625 49.265625 50.4375 45.09375 
Q 46.96875 40.921875 40.578125 39.3125 
z
" id="DejaVuSans-51"/>
      </defs>
      <g transform="translate(313.219721 298.1575)scale(0.16 -0.16)">
       <use xlink:href="#DejaVuSans-51"/>
      </g>
     </g>
    </g>
    <g id="xtick_5">
     <g id="line2d_5">
      <g>
       <use style="stroke:#000000;stroke-width:0.8;" x="396.653" xlink:href="#m80e652feb3" y="279"/>
      </g>
     </g>
     <g id="text_5">
      <!-- 4 -->
      <defs>
       <path d="M 37.796875 64.3125 
L 12.890625 25.390625 
L 37.796875 25.390625 
z
M 35.203125 72.90625 
L 47.609375 72.90625 
L 47.609375 25.390625 
L 58.015625 25.390625 
L 58.015625 17.1875 
L 47.609375 17.1875 
L 47.609375 0 
L 37.796875 0 
L 37.796875 17.1875 
L 4.890625 17.1875 
L 4.890625 26.703125 
z
" id="DejaVuSans-52"/>
      </defs>
      <g transform="translate(391.563 298.1575)scale(0.16 -0.16)">
       <use xlink:href="#DejaVuSans-52"/>
      </g>
     </g>
    </g>
    <g id="xtick_6">
     <g id="line2d_6">
      <g>
       <use style="stroke:#000000;stroke-width:0.8;" x="474.996278" xlink:href="#m80e652feb3" y="279"/>
      </g>
     </g>
     <g id="text_6">
      <!-- 5 -->
      <defs>
       <path d="M 10.796875 72.90625 
L 49.515625 72.90625 
L 49.515625 64.59375 
L 19.828125 64.59375 
L 19.828125 46.734375 
Q 21.96875 47.46875 24.109375 47.828125 
Q 26.265625 48.1875 28.421875 48.1875 
Q 40.625 48.1875 47.75 41.5 
Q 54.890625 34.8125 54.890625 23.390625 
Q 54.890625 11.625 47.5625 5.09375 
Q 40.234375 -1.421875 26.90625 -1.421875 
Q 22.3125 -1.421875 17.546875 -0.640625 
Q 12.796875 0.140625 7.71875 1.703125 
L 7.71875 11.625 
Q 12.109375 9.234375 16.796875 8.0625 
Q 21.484375 6.890625 26.703125 6.890625 
Q 35.15625 6.890625 40.078125 11.328125 
Q 45.015625 15.765625 45.015625 23.390625 
Q 45.015625 31 40.078125 35.4375 
Q 35.15625 39.890625 26.703125 39.890625 
Q 22.75 39.890625 18.8125 39.015625 
Q 14.890625 38.140625 10.796875 36.28125 
z
" id="DejaVuSans-53"/>
      </defs>
      <g transform="translate(469.906278 298.1575)scale(0.16 -0.16)">
       <use xlink:href="#DejaVuSans-53"/>
      </g>
     </g>
    </g>
    <g id="xtick_7">
     <g id="line2d_7">
      <g>
       <use style="stroke:#000000;stroke-width:0.8;" x="553.339556" xlink:href="#m80e652feb3" y="279"/>
      </g>
     </g>
     <g id="text_7">
      <!-- 6 -->
      <defs>
       <path d="M 33.015625 40.375 
Q 26.375 40.375 22.484375 35.828125 
Q 18.609375 31.296875 18.609375 23.390625 
Q 18.609375 15.53125 22.484375 10.953125 
Q 26.375 6.390625 33.015625 6.390625 
Q 39.65625 6.390625 43.53125 10.953125 
Q 47.40625 15.53125 47.40625 23.390625 
Q 47.40625 31.296875 43.53125 35.828125 
Q 39.65625 40.375 33.015625 40.375 
z
M 52.59375 71.296875 
L 52.59375 62.3125 
Q 48.875 64.0625 45.09375 64.984375 
Q 41.3125 65.921875 37.59375 65.921875 
Q 27.828125 65.921875 22.671875 59.328125 
Q 17.53125 52.734375 16.796875 39.40625 
Q 19.671875 43.65625 24.015625 45.921875 
Q 28.375 48.1875 33.59375 48.1875 
Q 44.578125 48.1875 50.953125 41.515625 
Q 57.328125 34.859375 57.328125 23.390625 
Q 57.328125 12.15625 50.6875 5.359375 
Q 44.046875 -1.421875 33.015625 -1.421875 
Q 20.359375 -1.421875 13.671875 8.265625 
Q 6.984375 17.96875 6.984375 36.375 
Q 6.984375 53.65625 15.1875 63.9375 
Q 23.390625 74.21875 37.203125 74.21875 
Q 40.921875 74.21875 44.703125 73.484375 
Q 48.484375 72.75 52.59375 71.296875 
z
" id="DejaVuSans-54"/>
      </defs>
      <g transform="translate(548.249556 298.1575)scale(0.16 -0.16)">
       <use xlink:href="#DejaVuSans-54"/>
      </g>
     </g>
    </g>
    <g id="text_8">
     <!-- $J_e$ (mV) -->
     <defs>
      <path d="M 16.703125 72.90625 
L 26.609375 72.90625 
L 13.375 5.078125 
Q 10.796875 -8.15625 4.65625 -14.078125 
Q -1.46875 -20.015625 -12.5 -20.015625 
L -16.40625 -20.015625 
L -14.796875 -11.71875 
L -11.71875 -11.71875 
Q -5.125 -11.71875 -1.703125 -7.953125 
Q 1.703125 -4.203125 3.515625 5.078125 
z
" id="DejaVuSans-Oblique-74"/>
      <path d="M 48.09375 32.234375 
Q 48.25 33.015625 48.3125 33.84375 
Q 48.390625 34.671875 48.390625 35.5 
Q 48.390625 41.453125 44.890625 44.921875 
Q 41.40625 48.390625 35.40625 48.390625 
Q 28.71875 48.390625 23.578125 44.15625 
Q 18.453125 39.9375 15.828125 32.171875 
z
M 55.90625 25.203125 
L 14.109375 25.203125 
Q 13.8125 23.34375 13.71875 22.265625 
Q 13.625 21.1875 13.625 20.40625 
Q 13.625 13.625 17.796875 9.90625 
Q 21.96875 6.203125 29.59375 6.203125 
Q 35.453125 6.203125 40.671875 7.515625 
Q 45.90625 8.84375 50.390625 11.375 
L 48.6875 2.484375 
Q 43.84375 0.53125 38.6875 -0.4375 
Q 33.546875 -1.421875 28.21875 -1.421875 
Q 16.84375 -1.421875 10.71875 4.015625 
Q 4.59375 9.46875 4.59375 19.484375 
Q 4.59375 28.03125 7.640625 35.375 
Q 10.6875 42.71875 16.609375 48.484375 
Q 20.40625 52.09375 25.65625 54.046875 
Q 30.90625 56 36.8125 56 
Q 46.09375 56 51.578125 50.4375 
Q 57.078125 44.875 57.078125 35.5 
Q 57.078125 33.25 56.78125 30.6875 
Q 56.5 28.125 55.90625 25.203125 
z
" id="DejaVuSans-Oblique-101"/>
      <path id="DejaVuSans-32"/>
      <path d="M 31 75.875 
Q 24.46875 64.65625 21.28125 53.65625 
Q 18.109375 42.671875 18.109375 31.390625 
Q 18.109375 20.125 21.3125 9.0625 
Q 24.515625 -2 31 -13.1875 
L 23.1875 -13.1875 
Q 15.875 -1.703125 12.234375 9.375 
Q 8.59375 20.453125 8.59375 31.390625 
Q 8.59375 42.28125 12.203125 53.3125 
Q 15.828125 64.359375 23.1875 75.875 
z
" id="DejaVuSans-40"/>
      <path d="M 52 44.1875 
Q 55.375 50.25 60.0625 53.125 
Q 64.75 56 71.09375 56 
Q 79.640625 56 84.28125 50.015625 
Q 88.921875 44.046875 88.921875 33.015625 
L 88.921875 0 
L 79.890625 0 
L 79.890625 32.71875 
Q 79.890625 40.578125 77.09375 44.375 
Q 74.3125 48.1875 68.609375 48.1875 
Q 61.625 48.1875 57.5625 43.546875 
Q 53.515625 38.921875 53.515625 30.90625 
L 53.515625 0 
L 44.484375 0 
L 44.484375 32.71875 
Q 44.484375 40.625 41.703125 44.40625 
Q 38.921875 48.1875 33.109375 48.1875 
Q 26.21875 48.1875 22.15625 43.53125 
Q 18.109375 38.875 18.109375 30.90625 
L 18.109375 0 
L 9.078125 0 
L 9.078125 54.6875 
L 18.109375 54.6875 
L 18.109375 46.1875 
Q 21.1875 51.21875 25.484375 53.609375 
Q 29.78125 56 35.6875 56 
Q 41.65625 56 45.828125 52.96875 
Q 50 49.953125 52 44.1875 
z
" id="DejaVuSans-109"/>
      <path d="M 28.609375 0 
L 0.78125 72.90625 
L 11.078125 72.90625 
L 34.1875 11.53125 
L 57.328125 72.90625 
L 67.578125 72.90625 
L 39.796875 0 
z
" id="DejaVuSans-86"/>
      <path d="M 8.015625 75.875 
L 15.828125 75.875 
Q 23.140625 64.359375 26.78125 53.3125 
Q 30.421875 42.28125 30.421875 31.390625 
Q 30.421875 20.453125 26.78125 9.375 
Q 23.140625 -1.703125 15.828125 -13.1875 
L 8.015625 -13.1875 
Q 14.5 -2 17.703125 9.0625 
Q 20.90625 20.125 20.90625 31.390625 
Q 20.90625 42.671875 17.703125 53.65625 
Q 14.5 64.65625 8.015625 75.875 
z
" id="DejaVuSans-41"/>
     </defs>
     <g transform="translate(301.81625 320.685)scale(0.2 -0.2)">
      <use transform="translate(0 0.125)" xlink:href="#DejaVuSans-Oblique-74"/>
      <use transform="translate(29.492188 -16.28125)scale(0.7)" xlink:href="#DejaVuSans-Oblique-101"/>
      <use transform="translate(75.292969 0.125)" xlink:href="#DejaVuSans-32"/>
      <use transform="translate(107.080078 0.125)" xlink:href="#DejaVuSans-40"/>
      <use transform="translate(146.09375 0.125)" xlink:href="#DejaVuSans-109"/>
      <use transform="translate(243.505859 0.125)" xlink:href="#DejaVuSans-86"/>
      <use transform="translate(311.914062 0.125)" xlink:href="#DejaVuSans-41"/>
     </g>
    </g>
   </g>
   <g id="matplotlib.axis_2">
    <g id="ytick_1">
     <g id="line2d_8">
      <defs>
       <path d="M 0 0 
L -3.5 0 
" id="mb8389ea789" style="stroke:#000000;stroke-width:0.8;"/>
      </defs>
      <g>
       <use style="stroke:#000000;stroke-width:0.8;" x="57.91625" xlink:href="#mb8389ea789" y="266.645455"/>
      </g>
     </g>
     <g id="text_9">
      <!-- 0 -->
      <g transform="translate(40.73625 272.724205)scale(0.16 -0.16)">
       <use xlink:href="#DejaVuSans-48"/>
      </g>
     </g>
    </g>
    <g id="ytick_2">
     <g id="line2d_9">
      <g>
       <use style="stroke:#000000;stroke-width:0.8;" x="57.91625" xlink:href="#mb8389ea789" y="234.133493"/>
      </g>
     </g>
     <g id="text_10">
      <!-- 5 -->
      <g transform="translate(40.73625 240.212243)scale(0.16 -0.16)">
       <use xlink:href="#DejaVuSans-53"/>
      </g>
     </g>
    </g>
    <g id="ytick_3">
     <g id="line2d_10">
      <g>
       <use style="stroke:#000000;stroke-width:0.8;" x="57.91625" xlink:href="#mb8389ea789" y="201.621531"/>
      </g>
     </g>
     <g id="text_11">
      <!-- 10 -->
      <g transform="translate(30.55625 207.700281)scale(0.16 -0.16)">
       <use xlink:href="#DejaVuSans-49"/>
       <use x="63.623047" xlink:href="#DejaVuSans-48"/>
      </g>
     </g>
    </g>
    <g id="ytick_4">
     <g id="line2d_11">
      <g>
       <use style="stroke:#000000;stroke-width:0.8;" x="57.91625" xlink:href="#mb8389ea789" y="169.109569"/>
      </g>
     </g>
     <g id="text_12">
      <!-- 15 -->
      <g transform="translate(30.55625 175.188319)scale(0.16 -0.16)">
       <use xlink:href="#DejaVuSans-49"/>
       <use x="63.623047" xlink:href="#DejaVuSans-53"/>
      </g>
     </g>
    </g>
    <g id="ytick_5">
     <g id="line2d_12">
      <g>
       <use style="stroke:#000000;stroke-width:0.8;" x="57.91625" xlink:href="#mb8389ea789" y="136.597608"/>
      </g>
     </g>
     <g id="text_13">
      <!-- 20 -->
      <g transform="translate(30.55625 142.676358)scale(0.16 -0.16)">
       <use xlink:href="#DejaVuSans-50"/>
       <use x="63.623047" xlink:href="#DejaVuSans-48"/>
      </g>
     </g>
    </g>
    <g id="ytick_6">
     <g id="line2d_13">
      <g>
       <use style="stroke:#000000;stroke-width:0.8;" x="57.91625" xlink:href="#mb8389ea789" y="104.085646"/>
      </g>
     </g>
     <g id="text_14">
      <!-- 25 -->
      <g transform="translate(30.55625 110.164396)scale(0.16 -0.16)">
       <use xlink:href="#DejaVuSans-50"/>
       <use x="63.623047" xlink:href="#DejaVuSans-53"/>
      </g>
     </g>
    </g>
    <g id="ytick_7">
     <g id="line2d_14">
      <g>
       <use style="stroke:#000000;stroke-width:0.8;" x="57.91625" xlink:href="#mb8389ea789" y="71.573684"/>
      </g>
     </g>
     <g id="text_15">
      <!-- 30 -->
      <g transform="translate(30.55625 77.652434)scale(0.16 -0.16)">
       <use xlink:href="#DejaVuSans-51"/>
       <use x="63.623047" xlink:href="#DejaVuSans-48"/>
      </g>
     </g>
    </g>
    <g id="ytick_8">
     <g id="line2d_15">
      <g>
       <use style="stroke:#000000;stroke-width:0.8;" x="57.91625" xlink:href="#mb8389ea789" y="39.061722"/>
      </g>
     </g>
     <g id="text_16">
      <!-- 35 -->
      <g transform="translate(30.55625 45.140472)scale(0.16 -0.16)">
       <use xlink:href="#DejaVuSans-51"/>
       <use x="63.623047" xlink:href="#DejaVuSans-53"/>
      </g>
     </g>
    </g>
    <g id="text_17">
     <!-- Node -->
     <defs>
      <path d="M 9.8125 72.90625 
L 23.09375 72.90625 
L 55.421875 11.921875 
L 55.421875 72.90625 
L 64.984375 72.90625 
L 64.984375 0 
L 51.703125 0 
L 19.390625 60.984375 
L 19.390625 0 
L 9.8125 0 
z
" id="DejaVuSans-78"/>
      <path d="M 30.609375 48.390625 
Q 23.390625 48.390625 19.1875 42.75 
Q 14.984375 37.109375 14.984375 27.296875 
Q 14.984375 17.484375 19.15625 11.84375 
Q 23.34375 6.203125 30.609375 6.203125 
Q 37.796875 6.203125 41.984375 11.859375 
Q 46.1875 17.53125 46.1875 27.296875 
Q 46.1875 37.015625 41.984375 42.703125 
Q 37.796875 48.390625 30.609375 48.390625 
z
M 30.609375 56 
Q 42.328125 56 49.015625 48.375 
Q 55.71875 40.765625 55.71875 27.296875 
Q 55.71875 13.875 49.015625 6.21875 
Q 42.328125 -1.421875 30.609375 -1.421875 
Q 18.84375 -1.421875 12.171875 6.21875 
Q 5.515625 13.875 5.515625 27.296875 
Q 5.515625 40.765625 12.171875 48.375 
Q 18.84375 56 30.609375 56 
z
" id="DejaVuSans-111"/>
      <path d="M 45.40625 46.390625 
L 45.40625 75.984375 
L 54.390625 75.984375 
L 54.390625 0 
L 45.40625 0 
L 45.40625 8.203125 
Q 42.578125 3.328125 38.25 0.953125 
Q 33.9375 -1.421875 27.875 -1.421875 
Q 17.96875 -1.421875 11.734375 6.484375 
Q 5.515625 14.40625 5.515625 27.296875 
Q 5.515625 40.1875 11.734375 48.09375 
Q 17.96875 56 27.875 56 
Q 33.9375 56 38.25 53.625 
Q 42.578125 51.265625 45.40625 46.390625 
z
M 14.796875 27.296875 
Q 14.796875 17.390625 18.875 11.75 
Q 22.953125 6.109375 30.078125 6.109375 
Q 37.203125 6.109375 41.296875 11.75 
Q 45.40625 17.390625 45.40625 27.296875 
Q 45.40625 37.203125 41.296875 42.84375 
Q 37.203125 48.484375 30.078125 48.484375 
Q 22.953125 48.484375 18.875 42.84375 
Q 14.796875 37.203125 14.796875 27.296875 
z
" id="DejaVuSans-100"/>
      <path d="M 56.203125 29.59375 
L 56.203125 25.203125 
L 14.890625 25.203125 
Q 15.484375 15.921875 20.484375 11.0625 
Q 25.484375 6.203125 34.421875 6.203125 
Q 39.59375 6.203125 44.453125 7.46875 
Q 49.3125 8.734375 54.109375 11.28125 
L 54.109375 2.78125 
Q 49.265625 0.734375 44.1875 -0.34375 
Q 39.109375 -1.421875 33.890625 -1.421875 
Q 20.796875 -1.421875 13.15625 6.1875 
Q 5.515625 13.8125 5.515625 26.8125 
Q 5.515625 40.234375 12.765625 48.109375 
Q 20.015625 56 32.328125 56 
Q 43.359375 56 49.78125 48.890625 
Q 56.203125 41.796875 56.203125 29.59375 
z
M 47.21875 32.234375 
Q 47.125 39.59375 43.09375 43.984375 
Q 39.0625 48.390625 32.421875 48.390625 
Q 24.90625 48.390625 20.390625 44.140625 
Q 15.875 39.890625 15.1875 32.171875 
z
" id="DejaVuSans-101"/>
     </defs>
     <g transform="translate(22.396875 169.201562)rotate(-90)scale(0.2 -0.2)">
      <use xlink:href="#DejaVuSans-78"/>
      <use x="74.804688" xlink:href="#DejaVuSans-111"/>
      <use x="135.986328" xlink:href="#DejaVuSans-100"/>
      <use x="199.462891" xlink:href="#DejaVuSans-101"/>
     </g>
    </g>
   </g>
   <g id="line2d_16">
    <path clip-path="url(#p39834a2357)" d="M 251.717935 266.645455 
L 253.676517 266.645455 
L 255.635099 266.645455 
L 257.593681 266.645455 
L 259.552263 266.645455 
L 261.510845 266.645455 
L 263.469427 266.645455 
L 265.428009 266.645455 
L 267.38659 266.645455 
L 269.345172 266.645455 
L 271.303754 266.645455 
L 273.262336 266.645455 
L 275.220918 266.645455 
L 277.1795 266.645455 
L 279.138082 266.645455 
L 281.096664 266.645455 
L 283.055246 266.645455 
L 285.013828 266.645455 
L 286.97241 266.645455 
L 288.930992 266.645455 
L 290.889574 266.645455 
L 292.848156 266.645455 
L 294.806738 266.645455 
L 296.76532 266.645455 
L 298.723902 266.645455 
L 300.682484 266.645455 
L 302.641066 266.645455 
L 304.599648 266.645455 
L 306.55823 266.645455 
L 308.516812 266.645455 
L 310.475394 266.645455 
L 312.433976 266.645455 
L 314.392557 266.645455 
L 316.351139 266.645455 
L 318.309721 266.645455 
L 320.268303 266.645455 
L 322.226885 266.645455 
L 324.185467 266.645455 
L 326.144049 266.645455 
L 328.102631 266.645455 
L 330.061213 266.645455 
L 332.019795 266.645455 
L 333.978377 266.645455 
L 335.936959 266.645455 
L 337.895541 266.645455 
L 339.854123 266.645455 
L 341.812705 266.645455 
L 343.771287 266.645455 
L 345.729869 266.645455 
L 347.688451 266.645455 
L 349.647033 266.645455 
L 351.605615 266.645455 
L 353.564197 266.645455 
L 355.522779 266.645455 
L 357.481361 266.645455 
L 359.439943 266.645455 
L 361.398524 266.645455 
L 363.357106 266.645455 
L 365.315688 266.645455 
L 367.27427 266.645455 
L 369.232852 266.645455 
L 371.191434 266.645455 
" style="fill:none;stroke:#ff0000;stroke-linecap:square;stroke-width:1.5;"/>
   </g>
   <g id="line2d_17"/>
   <g id="line2d_18">
    <path clip-path="url(#p39834a2357)" d="M 230.173533 260.143062 
L 232.132115 260.143062 
L 234.090697 260.143062 
L 236.049279 260.143062 
L 238.007861 260.143062 
L 239.966443 260.143062 
L 241.925025 260.143062 
L 243.883607 260.143062 
L 245.842189 260.143062 
L 247.800771 260.143062 
L 249.759353 260.143062 
L 251.717935 260.143062 
L 253.676517 260.143062 
L 255.635099 260.143062 
L 257.593681 260.143062 
L 259.552263 260.143062 
L 261.510845 260.143062 
L 263.469427 260.143062 
L 265.428009 260.143062 
L 267.38659 260.143062 
L 269.345172 260.143062 
L 271.303754 260.143062 
L 273.262336 260.143062 
L 275.220918 260.143062 
L 277.1795 260.143062 
L 279.138082 260.143062 
L 281.096664 260.143062 
L 283.055246 260.143062 
L 285.013828 260.143062 
L 286.97241 260.143062 
L 288.930992 260.143062 
L 290.889574 260.143062 
L 292.848156 260.143062 
L 294.806738 260.143062 
L 296.76532 260.143062 
L 298.723902 260.143062 
L 300.682484 260.143062 
L 302.641066 260.143062 
L 304.599648 260.143062 
L 306.55823 260.143062 
L 308.516812 260.143062 
L 310.475394 260.143062 
L 312.433976 260.143062 
L 314.392557 260.143062 
L 316.351139 260.143062 
L 318.309721 260.143062 
L 320.268303 260.143062 
L 322.226885 260.143062 
L 324.185467 260.143062 
L 326.144049 260.143062 
L 328.102631 260.143062 
L 330.061213 260.143062 
L 332.019795 260.143062 
L 333.978377 260.143062 
L 335.936959 260.143062 
L 337.895541 260.143062 
L 339.854123 260.143062 
L 341.812705 260.143062 
L 343.771287 260.143062 
" style="fill:none;stroke:#ff0000;stroke-linecap:square;stroke-width:1.5;"/>
   </g>
   <g id="line2d_19"/>
   <g id="line2d_20">
    <path clip-path="url(#p39834a2357)" d="M 183.167566 253.64067 
L 185.126148 253.64067 
L 187.08473 253.64067 
" style="fill:none;stroke:#ff0000;stroke-linecap:square;stroke-width:1.5;"/>
   </g>
   <g id="line2d_21">
    <path clip-path="url(#p39834a2357)" d="M 122.451526 253.64067 
L 124.410107 253.64067 
L 126.368689 253.64067 
L 128.327271 253.64067 
L 130.285853 253.64067 
L 132.244435 253.64067 
L 134.203017 253.64067 
L 136.161599 253.64067 
L 138.120181 253.64067 
L 140.078763 253.64067 
L 142.037345 253.64067 
L 143.995927 253.64067 
L 145.954509 253.64067 
L 147.913091 253.64067 
L 149.871673 253.64067 
L 151.830255 253.64067 
L 153.788837 253.64067 
L 155.747419 253.64067 
L 157.706001 253.64067 
L 159.664583 253.64067 
L 161.623165 253.64067 
L 163.581747 253.64067 
L 165.540329 253.64067 
L 167.498911 253.64067 
L 169.457493 253.64067 
L 171.416074 253.64067 
L 173.374656 253.64067 
L 175.333238 253.64067 
L 177.29182 253.64067 
L 179.250402 253.64067 
L 181.208984 253.64067 
" style="fill:none;stroke:#0000ff;stroke-linecap:square;stroke-width:1.5;"/>
   </g>
   <g id="line2d_22">
    <path clip-path="url(#p39834a2357)" d="M 234.090697 247.138278 
L 236.049279 247.138278 
L 238.007861 247.138278 
L 239.966443 247.138278 
L 241.925025 247.138278 
L 243.883607 247.138278 
L 245.842189 247.138278 
L 247.800771 247.138278 
L 249.759353 247.138278 
L 251.717935 247.138278 
L 253.676517 247.138278 
L 255.635099 247.138278 
L 257.593681 247.138278 
L 259.552263 247.138278 
L 261.510845 247.138278 
L 263.469427 247.138278 
L 265.428009 247.138278 
L 267.38659 247.138278 
L 269.345172 247.138278 
L 271.303754 247.138278 
L 273.262336 247.138278 
L 275.220918 247.138278 
L 277.1795 247.138278 
L 279.138082 247.138278 
L 281.096664 247.138278 
L 283.055246 247.138278 
L 285.013828 247.138278 
L 286.97241 247.138278 
L 288.930992 247.138278 
L 290.889574 247.138278 
L 292.848156 247.138278 
L 294.806738 247.138278 
L 296.76532 247.138278 
L 298.723902 247.138278 
L 300.682484 247.138278 
L 302.641066 247.138278 
L 304.599648 247.138278 
L 306.55823 247.138278 
L 308.516812 247.138278 
L 310.475394 247.138278 
L 312.433976 247.138278 
L 314.392557 247.138278 
L 316.351139 247.138278 
L 318.309721 247.138278 
L 320.268303 247.138278 
L 322.226885 247.138278 
" style="fill:none;stroke:#ff0000;stroke-linecap:square;stroke-width:1.5;"/>
   </g>
   <g id="line2d_23"/>
   <g id="line2d_24">
    <path clip-path="url(#p39834a2357)" d="M 343.771287 240.635885 
L 345.729869 240.635885 
L 347.688451 240.635885 
L 349.647033 240.635885 
L 351.605615 240.635885 
L 353.564197 240.635885 
L 355.522779 240.635885 
L 357.481361 240.635885 
L 359.439943 240.635885 
L 361.398524 240.635885 
L 363.357106 240.635885 
L 365.315688 240.635885 
L 367.27427 240.635885 
L 369.232852 240.635885 
L 371.191434 240.635885 
L 373.150016 240.635885 
L 375.108598 240.635885 
L 377.06718 240.635885 
L 379.025762 240.635885 
L 380.984344 240.635885 
L 382.942926 240.635885 
L 384.901508 240.635885 
L 386.86009 240.635885 
L 388.818672 240.635885 
L 390.777254 240.635885 
L 392.735836 240.635885 
L 394.694418 240.635885 
L 396.653 240.635885 
L 398.611582 240.635885 
L 400.570164 240.635885 
L 402.528746 240.635885 
L 404.487328 240.635885 
L 406.44591 240.635885 
L 408.404491 240.635885 
L 410.363073 240.635885 
L 412.321655 240.635885 
L 414.280237 240.635885 
L 416.238819 240.635885 
L 418.197401 240.635885 
L 420.155983 240.635885 
L 422.114565 240.635885 
L 424.073147 240.635885 
L 426.031729 240.635885 
L 427.990311 240.635885 
L 429.948893 240.635885 
L 431.907475 240.635885 
L 433.866057 240.635885 
L 435.824639 240.635885 
L 437.783221 240.635885 
L 439.741803 240.635885 
L 441.700385 240.635885 
L 443.658967 240.635885 
L 445.617549 240.635885 
L 447.576131 240.635885 
L 449.534713 240.635885 
L 451.493295 240.635885 
L 453.451877 240.635885 
L 455.410458 240.635885 
L 457.36904 240.635885 
L 459.327622 240.635885 
L 461.286204 240.635885 
L 463.244786 240.635885 
L 465.203368 240.635885 
L 467.16195 240.635885 
L 469.120532 240.635885 
L 471.079114 240.635885 
L 473.037696 240.635885 
L 474.996278 240.635885 
L 476.95486 240.635885 
L 478.913442 240.635885 
" style="fill:none;stroke:#ff0000;stroke-linecap:square;stroke-width:1.5;"/>
   </g>
   <g id="line2d_25"/>
   <g id="line2d_26">
    <path clip-path="url(#p39834a2357)" d="M 179.250402 234.133493 
L 181.208984 234.133493 
L 183.167566 234.133493 
L 185.126148 234.133493 
L 187.08473 234.133493 
L 189.043312 234.133493 
L 191.001894 234.133493 
L 192.960476 234.133493 
L 194.919058 234.133493 
L 196.87764 234.133493 
L 198.836222 234.133493 
L 200.794804 234.133493 
L 202.753386 234.133493 
L 204.711968 234.133493 
L 206.67055 234.133493 
L 208.629132 234.133493 
L 210.587714 234.133493 
L 212.546296 234.133493 
L 214.504878 234.133493 
L 216.46346 234.133493 
L 218.422042 234.133493 
L 220.380623 234.133493 
L 222.339205 234.133493 
L 224.297787 234.133493 
L 226.256369 234.133493 
L 228.214951 234.133493 
L 230.173533 234.133493 
L 232.132115 234.133493 
L 234.090697 234.133493 
L 236.049279 234.133493 
L 238.007861 234.133493 
L 239.966443 234.133493 
L 241.925025 234.133493 
" style="fill:none;stroke:#ff0000;stroke-linecap:square;stroke-width:1.5;"/>
   </g>
   <g id="line2d_27">
    <path clip-path="url(#p39834a2357)" d="M 177.29182 234.133493 
" style="fill:none;stroke:#0000ff;stroke-linecap:square;stroke-width:1.5;"/>
   </g>
   <g id="line2d_28">
    <path clip-path="url(#p39834a2357)" d="M 283.055246 227.6311 
L 285.013828 227.6311 
L 286.97241 227.6311 
L 288.930992 227.6311 
L 290.889574 227.6311 
L 292.848156 227.6311 
L 294.806738 227.6311 
L 296.76532 227.6311 
L 298.723902 227.6311 
L 300.682484 227.6311 
L 302.641066 227.6311 
L 304.599648 227.6311 
L 306.55823 227.6311 
L 308.516812 227.6311 
L 310.475394 227.6311 
L 312.433976 227.6311 
L 314.392557 227.6311 
L 316.351139 227.6311 
L 318.309721 227.6311 
L 320.268303 227.6311 
L 322.226885 227.6311 
L 324.185467 227.6311 
L 326.144049 227.6311 
L 328.102631 227.6311 
L 330.061213 227.6311 
L 332.019795 227.6311 
L 333.978377 227.6311 
L 335.936959 227.6311 
L 337.895541 227.6311 
L 339.854123 227.6311 
L 341.812705 227.6311 
L 343.771287 227.6311 
L 345.729869 227.6311 
L 347.688451 227.6311 
L 349.647033 227.6311 
L 351.605615 227.6311 
L 353.564197 227.6311 
L 355.522779 227.6311 
L 357.481361 227.6311 
L 359.439943 227.6311 
L 361.398524 227.6311 
L 363.357106 227.6311 
L 365.315688 227.6311 
L 367.27427 227.6311 
L 369.232852 227.6311 
L 371.191434 227.6311 
L 373.150016 227.6311 
L 375.108598 227.6311 
" style="fill:none;stroke:#ff0000;stroke-linecap:square;stroke-width:1.5;"/>
   </g>
   <g id="line2d_29"/>
   <g id="line2d_30">
    <path clip-path="url(#p39834a2357)" d="M 232.132115 221.128708 
L 234.090697 221.128708 
L 236.049279 221.128708 
L 238.007861 221.128708 
L 239.966443 221.128708 
L 241.925025 221.128708 
L 243.883607 221.128708 
L 245.842189 221.128708 
L 247.800771 221.128708 
L 249.759353 221.128708 
L 251.717935 221.128708 
L 253.676517 221.128708 
L 255.635099 221.128708 
L 257.593681 221.128708 
L 259.552263 221.128708 
L 261.510845 221.128708 
L 263.469427 221.128708 
L 265.428009 221.128708 
L 267.38659 221.128708 
L 269.345172 221.128708 
L 271.303754 221.128708 
L 273.262336 221.128708 
" style="fill:none;stroke:#ff0000;stroke-linecap:square;stroke-width:1.5;"/>
   </g>
   <g id="line2d_31"/>
   <g id="line2d_32">
    <path clip-path="url(#p39834a2357)" d="M 296.76532 214.626316 
L 553.339556 214.626316 
L 553.339556 214.626316 
" style="fill:none;stroke:#ff0000;stroke-linecap:square;stroke-width:1.5;"/>
   </g>
   <g id="line2d_33"/>
   <g id="line2d_34">
    <path clip-path="url(#p39834a2357)" d="M 206.67055 208.123923 
L 208.629132 208.123923 
L 210.587714 208.123923 
L 212.546296 208.123923 
L 214.504878 208.123923 
L 216.46346 208.123923 
L 218.422042 208.123923 
L 220.380623 208.123923 
L 222.339205 208.123923 
L 224.297787 208.123923 
L 226.256369 208.123923 
L 228.214951 208.123923 
L 230.173533 208.123923 
L 232.132115 208.123923 
L 234.090697 208.123923 
L 236.049279 208.123923 
L 238.007861 208.123923 
L 239.966443 208.123923 
L 241.925025 208.123923 
L 243.883607 208.123923 
L 245.842189 208.123923 
L 247.800771 208.123923 
L 249.759353 208.123923 
L 251.717935 208.123923 
L 253.676517 208.123923 
L 255.635099 208.123923 
L 257.593681 208.123923 
L 259.552263 208.123923 
L 261.510845 208.123923 
L 263.469427 208.123923 
L 265.428009 208.123923 
L 267.38659 208.123923 
L 269.345172 208.123923 
L 271.303754 208.123923 
L 273.262336 208.123923 
L 275.220918 208.123923 
L 277.1795 208.123923 
L 279.138082 208.123923 
L 281.096664 208.123923 
L 283.055246 208.123923 
L 285.013828 208.123923 
L 286.97241 208.123923 
L 288.930992 208.123923 
L 290.889574 208.123923 
L 292.848156 208.123923 
L 294.806738 208.123923 
L 296.76532 208.123923 
L 298.723902 208.123923 
L 300.682484 208.123923 
L 302.641066 208.123923 
L 304.599648 208.123923 
L 306.55823 208.123923 
L 308.516812 208.123923 
L 310.475394 208.123923 
L 312.433976 208.123923 
L 314.392557 208.123923 
L 316.351139 208.123923 
L 318.309721 208.123923 
L 320.268303 208.123923 
L 322.226885 208.123923 
L 324.185467 208.123923 
L 326.144049 208.123923 
L 328.102631 208.123923 
L 330.061213 208.123923 
L 332.019795 208.123923 
L 333.978377 208.123923 
L 335.936959 208.123923 
L 337.895541 208.123923 
L 339.854123 208.123923 
L 341.812705 208.123923 
L 343.771287 208.123923 
L 345.729869 208.123923 
L 347.688451 208.123923 
L 349.647033 208.123923 
L 351.605615 208.123923 
L 353.564197 208.123923 
L 355.522779 208.123923 
L 357.481361 208.123923 
L 359.439943 208.123923 
L 361.398524 208.123923 
L 363.357106 208.123923 
L 365.315688 208.123923 
L 367.27427 208.123923 
L 369.232852 208.123923 
L 371.191434 208.123923 
L 373.150016 208.123923 
L 375.108598 208.123923 
L 377.06718 208.123923 
L 379.025762 208.123923 
L 380.984344 208.123923 
L 382.942926 208.123923 
L 384.901508 208.123923 
L 386.86009 208.123923 
L 388.818672 208.123923 
L 390.777254 208.123923 
L 392.735836 208.123923 
L 394.694418 208.123923 
L 396.653 208.123923 
L 398.611582 208.123923 
L 400.570164 208.123923 
" style="fill:none;stroke:#ff0000;stroke-linecap:square;stroke-width:1.5;"/>
   </g>
   <g id="line2d_35"/>
   <g id="line2d_36"/>
   <g id="line2d_37">
    <path clip-path="url(#p39834a2357)" d="M 104.824288 201.621531 
L 106.78287 201.621531 
L 108.741452 201.621531 
L 110.700034 201.621531 
" style="fill:none;stroke:#0000ff;stroke-linecap:square;stroke-width:1.5;"/>
   </g>
   <g id="line2d_38"/>
   <g id="line2d_39">
    <path clip-path="url(#p39834a2357)" d="M 83.279886 195.119139 
L 85.238468 195.119139 
L 87.19705 195.119139 
L 89.155632 195.119139 
L 91.114214 195.119139 
L 93.072796 195.119139 
L 95.031378 195.119139 
L 96.98996 195.119139 
L 98.948542 195.119139 
L 100.907124 195.119139 
L 102.865706 195.119139 
L 104.824288 195.119139 
L 106.78287 195.119139 
L 108.741452 195.119139 
L 110.700034 195.119139 
" style="fill:none;stroke:#0000ff;stroke-linecap:square;stroke-width:1.5;"/>
   </g>
   <g id="line2d_40"/>
   <g id="line2d_41">
    <path clip-path="url(#p39834a2357)" d="M 136.161599 188.616746 
L 138.120181 188.616746 
L 140.078763 188.616746 
L 142.037345 188.616746 
L 143.995927 188.616746 
L 145.954509 188.616746 
L 147.913091 188.616746 
L 149.871673 188.616746 
L 151.830255 188.616746 
L 153.788837 188.616746 
L 155.747419 188.616746 
L 157.706001 188.616746 
L 159.664583 188.616746 
L 161.623165 188.616746 
L 163.581747 188.616746 
L 165.540329 188.616746 
L 167.498911 188.616746 
L 169.457493 188.616746 
L 171.416074 188.616746 
L 173.374656 188.616746 
L 175.333238 188.616746 
L 177.29182 188.616746 
L 179.250402 188.616746 
L 181.208984 188.616746 
L 183.167566 188.616746 
L 185.126148 188.616746 
L 187.08473 188.616746 
L 189.043312 188.616746 
L 191.001894 188.616746 
L 192.960476 188.616746 
L 194.919058 188.616746 
L 196.87764 188.616746 
L 198.836222 188.616746 
L 200.794804 188.616746 
L 202.753386 188.616746 
L 204.711968 188.616746 
L 206.67055 188.616746 
L 208.629132 188.616746 
L 210.587714 188.616746 
L 212.546296 188.616746 
L 214.504878 188.616746 
L 216.46346 188.616746 
L 218.422042 188.616746 
L 220.380623 188.616746 
L 222.339205 188.616746 
L 224.297787 188.616746 
L 226.256369 188.616746 
L 228.214951 188.616746 
L 230.173533 188.616746 
L 232.132115 188.616746 
L 234.090697 188.616746 
L 236.049279 188.616746 
L 238.007861 188.616746 
L 239.966443 188.616746 
L 241.925025 188.616746 
L 243.883607 188.616746 
L 245.842189 188.616746 
L 247.800771 188.616746 
L 249.759353 188.616746 
L 251.717935 188.616746 
L 253.676517 188.616746 
" style="fill:none;stroke:#0000ff;stroke-linecap:square;stroke-width:1.5;"/>
   </g>
   <g id="line2d_42"/>
   <g id="line2d_43">
    <path clip-path="url(#p39834a2357)" d="M 85.238468 182.114354 
L 87.19705 182.114354 
L 89.155632 182.114354 
L 91.114214 182.114354 
L 93.072796 182.114354 
L 95.031378 182.114354 
L 96.98996 182.114354 
L 98.948542 182.114354 
L 100.907124 182.114354 
L 102.865706 182.114354 
L 104.824288 182.114354 
L 106.78287 182.114354 
L 108.741452 182.114354 
L 110.700034 182.114354 
L 112.658616 182.114354 
L 114.617198 182.114354 
L 116.57578 182.114354 
L 118.534362 182.114354 
L 120.492944 182.114354 
L 122.451526 182.114354 
L 124.410107 182.114354 
L 126.368689 182.114354 
L 128.327271 182.114354 
L 130.285853 182.114354 
L 132.244435 182.114354 
L 134.203017 182.114354 
" style="fill:none;stroke:#0000ff;stroke-linecap:square;stroke-width:1.5;"/>
   </g>
   <g id="line2d_44">
    <path clip-path="url(#p39834a2357)" d="M 236.049279 175.611962 
L 238.007861 175.611962 
L 239.966443 175.611962 
L 241.925025 175.611962 
L 243.883607 175.611962 
L 245.842189 175.611962 
L 247.800771 175.611962 
L 249.759353 175.611962 
L 251.717935 175.611962 
L 253.676517 175.611962 
L 255.635099 175.611962 
L 257.593681 175.611962 
L 259.552263 175.611962 
L 261.510845 175.611962 
L 263.469427 175.611962 
L 265.428009 175.611962 
L 267.38659 175.611962 
L 269.345172 175.611962 
L 271.303754 175.611962 
L 273.262336 175.611962 
L 275.220918 175.611962 
L 277.1795 175.611962 
L 279.138082 175.611962 
L 281.096664 175.611962 
L 283.055246 175.611962 
L 285.013828 175.611962 
L 286.97241 175.611962 
L 288.930992 175.611962 
L 290.889574 175.611962 
L 292.848156 175.611962 
L 294.806738 175.611962 
L 296.76532 175.611962 
L 298.723902 175.611962 
L 300.682484 175.611962 
L 302.641066 175.611962 
L 304.599648 175.611962 
L 306.55823 175.611962 
L 308.516812 175.611962 
L 310.475394 175.611962 
L 312.433976 175.611962 
L 314.392557 175.611962 
L 316.351139 175.611962 
L 318.309721 175.611962 
L 320.268303 175.611962 
L 322.226885 175.611962 
L 324.185467 175.611962 
L 326.144049 175.611962 
L 328.102631 175.611962 
L 330.061213 175.611962 
L 332.019795 175.611962 
L 333.978377 175.611962 
L 335.936959 175.611962 
L 337.895541 175.611962 
L 339.854123 175.611962 
L 341.812705 175.611962 
L 343.771287 175.611962 
L 345.729869 175.611962 
L 347.688451 175.611962 
L 349.647033 175.611962 
" style="fill:none;stroke:#ff0000;stroke-linecap:square;stroke-width:1.5;"/>
   </g>
   <g id="line2d_45"/>
   <g id="line2d_46"/>
   <g id="line2d_47">
    <path clip-path="url(#p39834a2357)" d="M 132.244435 169.109569 
L 134.203017 169.109569 
L 136.161599 169.109569 
L 138.120181 169.109569 
" style="fill:none;stroke:#0000ff;stroke-linecap:square;stroke-width:1.5;"/>
   </g>
   <g id="line2d_48">
    <path clip-path="url(#p39834a2357)" d="M 249.759353 162.607177 
L 251.717935 162.607177 
L 253.676517 162.607177 
L 255.635099 162.607177 
L 257.593681 162.607177 
L 259.552263 162.607177 
L 261.510845 162.607177 
L 263.469427 162.607177 
L 265.428009 162.607177 
L 267.38659 162.607177 
L 269.345172 162.607177 
L 271.303754 162.607177 
L 273.262336 162.607177 
L 275.220918 162.607177 
L 277.1795 162.607177 
L 279.138082 162.607177 
L 281.096664 162.607177 
L 283.055246 162.607177 
L 285.013828 162.607177 
L 286.97241 162.607177 
L 288.930992 162.607177 
L 290.889574 162.607177 
L 292.848156 162.607177 
L 294.806738 162.607177 
L 296.76532 162.607177 
L 298.723902 162.607177 
L 300.682484 162.607177 
L 302.641066 162.607177 
L 304.599648 162.607177 
L 306.55823 162.607177 
L 308.516812 162.607177 
L 310.475394 162.607177 
L 312.433976 162.607177 
L 314.392557 162.607177 
L 316.351139 162.607177 
L 318.309721 162.607177 
L 320.268303 162.607177 
L 322.226885 162.607177 
L 324.185467 162.607177 
L 326.144049 162.607177 
L 328.102631 162.607177 
L 330.061213 162.607177 
L 332.019795 162.607177 
L 333.978377 162.607177 
L 335.936959 162.607177 
L 337.895541 162.607177 
L 339.854123 162.607177 
L 341.812705 162.607177 
L 343.771287 162.607177 
L 345.729869 162.607177 
" style="fill:none;stroke:#ff0000;stroke-linecap:square;stroke-width:1.5;"/>
   </g>
   <g id="line2d_49"/>
   <g id="line2d_50">
    <path clip-path="url(#p39834a2357)" d="M 218.422042 156.104785 
L 484.789188 156.104785 
L 484.789188 156.104785 
" style="fill:none;stroke:#ff0000;stroke-linecap:square;stroke-width:1.5;"/>
   </g>
   <g id="line2d_51"/>
   <g id="line2d_52">
    <path clip-path="url(#p39834a2357)" d="M 200.794804 149.602392 
L 202.753386 149.602392 
L 204.711968 149.602392 
L 206.67055 149.602392 
L 208.629132 149.602392 
L 210.587714 149.602392 
L 212.546296 149.602392 
L 214.504878 149.602392 
L 216.46346 149.602392 
L 218.422042 149.602392 
L 220.380623 149.602392 
L 222.339205 149.602392 
L 224.297787 149.602392 
L 226.256369 149.602392 
L 228.214951 149.602392 
L 230.173533 149.602392 
L 232.132115 149.602392 
L 234.090697 149.602392 
L 236.049279 149.602392 
L 238.007861 149.602392 
L 239.966443 149.602392 
L 241.925025 149.602392 
L 243.883607 149.602392 
L 245.842189 149.602392 
L 247.800771 149.602392 
L 249.759353 149.602392 
L 251.717935 149.602392 
L 253.676517 149.602392 
L 255.635099 149.602392 
L 257.593681 149.602392 
L 259.552263 149.602392 
L 261.510845 149.602392 
L 263.469427 149.602392 
L 265.428009 149.602392 
L 267.38659 149.602392 
L 269.345172 149.602392 
L 271.303754 149.602392 
L 273.262336 149.602392 
L 275.220918 149.602392 
L 277.1795 149.602392 
L 279.138082 149.602392 
L 281.096664 149.602392 
L 283.055246 149.602392 
L 285.013828 149.602392 
L 286.97241 149.602392 
L 288.930992 149.602392 
L 290.889574 149.602392 
L 292.848156 149.602392 
L 294.806738 149.602392 
L 296.76532 149.602392 
L 298.723902 149.602392 
L 300.682484 149.602392 
L 302.641066 149.602392 
L 304.599648 149.602392 
L 306.55823 149.602392 
L 308.516812 149.602392 
L 310.475394 149.602392 
L 312.433976 149.602392 
L 314.392557 149.602392 
L 316.351139 149.602392 
L 318.309721 149.602392 
L 320.268303 149.602392 
L 322.226885 149.602392 
L 324.185467 149.602392 
L 326.144049 149.602392 
L 328.102631 149.602392 
L 330.061213 149.602392 
L 332.019795 149.602392 
L 333.978377 149.602392 
" style="fill:none;stroke:#ff0000;stroke-linecap:square;stroke-width:1.5;"/>
   </g>
   <g id="line2d_53">
    <path clip-path="url(#p39834a2357)" d="M 194.919058 149.602392 
L 196.87764 149.602392 
L 198.836222 149.602392 
" style="fill:none;stroke:#0000ff;stroke-linecap:square;stroke-width:1.5;"/>
   </g>
   <g id="line2d_54"/>
   <g id="line2d_55">
    <path clip-path="url(#p39834a2357)" d="M 116.57578 143.1 
L 118.534362 143.1 
L 120.492944 143.1 
L 122.451526 143.1 
L 124.410107 143.1 
L 126.368689 143.1 
L 128.327271 143.1 
L 130.285853 143.1 
L 132.244435 143.1 
L 134.203017 143.1 
L 136.161599 143.1 
L 138.120181 143.1 
L 140.078763 143.1 
L 142.037345 143.1 
L 143.995927 143.1 
L 145.954509 143.1 
L 147.913091 143.1 
L 149.871673 143.1 
L 151.830255 143.1 
L 153.788837 143.1 
L 155.747419 143.1 
L 157.706001 143.1 
L 159.664583 143.1 
L 161.623165 143.1 
L 163.581747 143.1 
" style="fill:none;stroke:#0000ff;stroke-linecap:square;stroke-width:1.5;"/>
   </g>
   <g id="line2d_56">
    <path clip-path="url(#p39834a2357)" d="M 189.043312 136.597608 
L 191.001894 136.597608 
L 192.960476 136.597608 
" style="fill:none;stroke:#ff0000;stroke-linecap:square;stroke-width:1.5;"/>
   </g>
   <g id="line2d_57">
    <path clip-path="url(#p39834a2357)" d="M 143.995927 136.597608 
L 145.954509 136.597608 
L 147.913091 136.597608 
L 149.871673 136.597608 
L 151.830255 136.597608 
L 153.788837 136.597608 
L 155.747419 136.597608 
L 157.706001 136.597608 
L 159.664583 136.597608 
L 161.623165 136.597608 
L 163.581747 136.597608 
L 165.540329 136.597608 
L 167.498911 136.597608 
L 169.457493 136.597608 
L 171.416074 136.597608 
L 173.374656 136.597608 
L 175.333238 136.597608 
L 177.29182 136.597608 
L 179.250402 136.597608 
L 181.208984 136.597608 
L 183.167566 136.597608 
L 185.126148 136.597608 
L 187.08473 136.597608 
" style="fill:none;stroke:#0000ff;stroke-linecap:square;stroke-width:1.5;"/>
   </g>
   <g id="line2d_58">
    <path clip-path="url(#p39834a2357)" d="M 204.711968 130.095215 
L 206.67055 130.095215 
L 208.629132 130.095215 
L 210.587714 130.095215 
L 212.546296 130.095215 
L 214.504878 130.095215 
L 216.46346 130.095215 
L 218.422042 130.095215 
L 220.380623 130.095215 
L 222.339205 130.095215 
L 224.297787 130.095215 
L 226.256369 130.095215 
L 228.214951 130.095215 
L 230.173533 130.095215 
L 232.132115 130.095215 
L 234.090697 130.095215 
L 236.049279 130.095215 
L 238.007861 130.095215 
L 239.966443 130.095215 
L 241.925025 130.095215 
L 243.883607 130.095215 
L 245.842189 130.095215 
L 247.800771 130.095215 
L 249.759353 130.095215 
L 251.717935 130.095215 
L 253.676517 130.095215 
L 255.635099 130.095215 
L 257.593681 130.095215 
L 259.552263 130.095215 
L 261.510845 130.095215 
L 263.469427 130.095215 
L 265.428009 130.095215 
L 267.38659 130.095215 
L 269.345172 130.095215 
L 271.303754 130.095215 
L 273.262336 130.095215 
L 275.220918 130.095215 
L 277.1795 130.095215 
L 279.138082 130.095215 
L 281.096664 130.095215 
L 283.055246 130.095215 
L 285.013828 130.095215 
L 286.97241 130.095215 
L 288.930992 130.095215 
L 290.889574 130.095215 
L 292.848156 130.095215 
L 294.806738 130.095215 
L 296.76532 130.095215 
L 298.723902 130.095215 
L 300.682484 130.095215 
L 302.641066 130.095215 
L 304.599648 130.095215 
L 306.55823 130.095215 
L 308.516812 130.095215 
L 310.475394 130.095215 
L 312.433976 130.095215 
L 314.392557 130.095215 
L 316.351139 130.095215 
L 318.309721 130.095215 
L 320.268303 130.095215 
L 322.226885 130.095215 
L 324.185467 130.095215 
L 326.144049 130.095215 
L 328.102631 130.095215 
L 330.061213 130.095215 
L 332.019795 130.095215 
L 333.978377 130.095215 
" style="fill:none;stroke:#ff0000;stroke-linecap:square;stroke-width:1.5;"/>
   </g>
   <g id="line2d_59">
    <path clip-path="url(#p39834a2357)" d="M 183.167566 130.095215 
L 185.126148 130.095215 
L 187.08473 130.095215 
L 189.043312 130.095215 
L 191.001894 130.095215 
L 192.960476 130.095215 
L 194.919058 130.095215 
L 196.87764 130.095215 
L 198.836222 130.095215 
L 200.794804 130.095215 
L 202.753386 130.095215 
" style="fill:none;stroke:#0000ff;stroke-linecap:square;stroke-width:1.5;"/>
   </g>
   <g id="line2d_60">
    <path clip-path="url(#p39834a2357)" d="M 222.339205 123.592823 
L 224.297787 123.592823 
L 226.256369 123.592823 
L 228.214951 123.592823 
L 230.173533 123.592823 
L 232.132115 123.592823 
L 234.090697 123.592823 
L 236.049279 123.592823 
L 238.007861 123.592823 
L 239.966443 123.592823 
L 241.925025 123.592823 
L 243.883607 123.592823 
L 245.842189 123.592823 
L 247.800771 123.592823 
L 249.759353 123.592823 
L 251.717935 123.592823 
L 253.676517 123.592823 
L 255.635099 123.592823 
L 257.593681 123.592823 
L 259.552263 123.592823 
L 261.510845 123.592823 
L 263.469427 123.592823 
L 265.428009 123.592823 
L 267.38659 123.592823 
L 269.345172 123.592823 
L 271.303754 123.592823 
L 273.262336 123.592823 
L 275.220918 123.592823 
L 277.1795 123.592823 
L 279.138082 123.592823 
L 281.096664 123.592823 
L 283.055246 123.592823 
L 285.013828 123.592823 
L 286.97241 123.592823 
L 288.930992 123.592823 
L 290.889574 123.592823 
L 292.848156 123.592823 
L 294.806738 123.592823 
L 296.76532 123.592823 
L 298.723902 123.592823 
L 300.682484 123.592823 
L 302.641066 123.592823 
L 304.599648 123.592823 
L 306.55823 123.592823 
L 308.516812 123.592823 
L 310.475394 123.592823 
L 312.433976 123.592823 
L 314.392557 123.592823 
L 316.351139 123.592823 
L 318.309721 123.592823 
L 320.268303 123.592823 
L 322.226885 123.592823 
L 324.185467 123.592823 
L 326.144049 123.592823 
L 328.102631 123.592823 
L 330.061213 123.592823 
L 332.019795 123.592823 
L 333.978377 123.592823 
L 335.936959 123.592823 
L 337.895541 123.592823 
L 339.854123 123.592823 
L 341.812705 123.592823 
L 343.771287 123.592823 
L 345.729869 123.592823 
L 347.688451 123.592823 
L 349.647033 123.592823 
L 351.605615 123.592823 
L 353.564197 123.592823 
L 355.522779 123.592823 
L 357.481361 123.592823 
L 359.439943 123.592823 
L 361.398524 123.592823 
L 363.357106 123.592823 
L 365.315688 123.592823 
L 367.27427 123.592823 
L 369.232852 123.592823 
L 371.191434 123.592823 
L 373.150016 123.592823 
L 375.108598 123.592823 
L 377.06718 123.592823 
L 379.025762 123.592823 
L 380.984344 123.592823 
L 382.942926 123.592823 
L 384.901508 123.592823 
L 386.86009 123.592823 
L 388.818672 123.592823 
L 390.777254 123.592823 
L 392.735836 123.592823 
L 394.694418 123.592823 
L 396.653 123.592823 
L 398.611582 123.592823 
L 400.570164 123.592823 
L 402.528746 123.592823 
L 404.487328 123.592823 
L 406.44591 123.592823 
L 408.404491 123.592823 
L 410.363073 123.592823 
L 412.321655 123.592823 
L 414.280237 123.592823 
L 416.238819 123.592823 
L 418.197401 123.592823 
L 420.155983 123.592823 
L 422.114565 123.592823 
L 424.073147 123.592823 
L 426.031729 123.592823 
L 427.990311 123.592823 
L 429.948893 123.592823 
L 431.907475 123.592823 
L 433.866057 123.592823 
L 435.824639 123.592823 
L 437.783221 123.592823 
L 439.741803 123.592823 
L 441.700385 123.592823 
L 443.658967 123.592823 
L 445.617549 123.592823 
L 447.576131 123.592823 
L 449.534713 123.592823 
L 451.493295 123.592823 
L 453.451877 123.592823 
L 455.410458 123.592823 
L 457.36904 123.592823 
L 459.327622 123.592823 
" style="fill:none;stroke:#ff0000;stroke-linecap:square;stroke-width:1.5;"/>
   </g>
   <g id="line2d_61"/>
   <g id="line2d_62"/>
   <g id="line2d_63">
    <path clip-path="url(#p39834a2357)" d="M 85.238468 117.090431 
L 87.19705 117.090431 
L 89.155632 117.090431 
L 91.114214 117.090431 
L 93.072796 117.090431 
L 95.031378 117.090431 
L 96.98996 117.090431 
L 98.948542 117.090431 
L 100.907124 117.090431 
L 102.865706 117.090431 
L 104.824288 117.090431 
L 106.78287 117.090431 
L 108.741452 117.090431 
L 110.700034 117.090431 
L 112.658616 117.090431 
L 114.617198 117.090431 
L 116.57578 117.090431 
L 118.534362 117.090431 
L 120.492944 117.090431 
L 122.451526 117.090431 
L 124.410107 117.090431 
L 126.368689 117.090431 
L 128.327271 117.090431 
L 130.285853 117.090431 
L 132.244435 117.090431 
L 134.203017 117.090431 
L 136.161599 117.090431 
" style="fill:none;stroke:#0000ff;stroke-linecap:square;stroke-width:1.5;"/>
   </g>
   <g id="line2d_64"/>
   <g id="line2d_65">
    <path clip-path="url(#p39834a2357)" d="M 85.238468 110.588038 
L 87.19705 110.588038 
L 89.155632 110.588038 
L 91.114214 110.588038 
L 93.072796 110.588038 
L 95.031378 110.588038 
L 96.98996 110.588038 
L 98.948542 110.588038 
L 100.907124 110.588038 
L 102.865706 110.588038 
L 104.824288 110.588038 
L 106.78287 110.588038 
L 108.741452 110.588038 
" style="fill:none;stroke:#0000ff;stroke-linecap:square;stroke-width:1.5;"/>
   </g>
   <g id="line2d_66">
    <path clip-path="url(#p39834a2357)" d="M 179.250402 104.085646 
L 183.167566 104.085646 
L 185.126148 104.085646 
L 187.08473 104.085646 
L 189.043312 104.085646 
L 191.001894 104.085646 
L 192.960476 104.085646 
L 194.919058 104.085646 
L 196.87764 104.085646 
L 198.836222 104.085646 
L 200.794804 104.085646 
L 202.753386 104.085646 
L 204.711968 104.085646 
L 206.67055 104.085646 
L 208.629132 104.085646 
L 210.587714 104.085646 
L 212.546296 104.085646 
L 214.504878 104.085646 
L 216.46346 104.085646 
L 218.422042 104.085646 
" style="fill:none;stroke:#ff0000;stroke-linecap:square;stroke-width:1.5;"/>
   </g>
   <g id="line2d_67">
    <path clip-path="url(#p39834a2357)" d="M 151.830255 104.085646 
L 153.788837 104.085646 
L 155.747419 104.085646 
L 157.706001 104.085646 
L 159.664583 104.085646 
L 161.623165 104.085646 
L 163.581747 104.085646 
L 165.540329 104.085646 
L 167.498911 104.085646 
L 169.457493 104.085646 
L 171.416074 104.085646 
L 173.374656 104.085646 
L 175.333238 104.085646 
L 177.29182 104.085646 
L 181.208984 104.085646 
" style="fill:none;stroke:#0000ff;stroke-linecap:square;stroke-width:1.5;"/>
   </g>
   <g id="line2d_68"/>
   <g id="line2d_69">
    <path clip-path="url(#p39834a2357)" d="M 104.824288 97.583254 
L 106.78287 97.583254 
L 108.741452 97.583254 
L 110.700034 97.583254 
L 112.658616 97.583254 
L 114.617198 97.583254 
L 116.57578 97.583254 
L 118.534362 97.583254 
L 120.492944 97.583254 
L 122.451526 97.583254 
L 124.410107 97.583254 
L 126.368689 97.583254 
L 128.327271 97.583254 
L 130.285853 97.583254 
L 132.244435 97.583254 
L 134.203017 97.583254 
L 136.161599 97.583254 
L 138.120181 97.583254 
L 140.078763 97.583254 
L 142.037345 97.583254 
L 143.995927 97.583254 
L 145.954509 97.583254 
L 147.913091 97.583254 
L 149.871673 97.583254 
L 151.830255 97.583254 
L 153.788837 97.583254 
L 155.747419 97.583254 
L 157.706001 97.583254 
L 159.664583 97.583254 
L 161.623165 97.583254 
L 163.581747 97.583254 
L 165.540329 97.583254 
L 167.498911 97.583254 
L 169.457493 97.583254 
L 171.416074 97.583254 
L 173.374656 97.583254 
L 175.333238 97.583254 
L 177.29182 97.583254 
L 179.250402 97.583254 
L 181.208984 97.583254 
L 183.167566 97.583254 
L 185.126148 97.583254 
" style="fill:none;stroke:#0000ff;stroke-linecap:square;stroke-width:1.5;"/>
   </g>
   <g id="line2d_70">
    <path clip-path="url(#p39834a2357)" d="M 183.167566 91.080861 
L 185.126148 91.080861 
L 187.08473 91.080861 
L 189.043312 91.080861 
L 191.001894 91.080861 
L 192.960476 91.080861 
L 194.919058 91.080861 
L 196.87764 91.080861 
L 198.836222 91.080861 
L 200.794804 91.080861 
L 202.753386 91.080861 
L 204.711968 91.080861 
L 206.67055 91.080861 
L 208.629132 91.080861 
L 210.587714 91.080861 
L 212.546296 91.080861 
L 214.504878 91.080861 
L 216.46346 91.080861 
L 218.422042 91.080861 
L 220.380623 91.080861 
L 222.339205 91.080861 
L 224.297787 91.080861 
L 226.256369 91.080861 
L 228.214951 91.080861 
L 230.173533 91.080861 
L 232.132115 91.080861 
L 234.090697 91.080861 
" style="fill:none;stroke:#ff0000;stroke-linecap:square;stroke-width:1.5;"/>
   </g>
   <g id="line2d_71">
    <path clip-path="url(#p39834a2357)" d="M 118.534362 91.080861 
L 120.492944 91.080861 
L 122.451526 91.080861 
L 124.410107 91.080861 
L 126.368689 91.080861 
L 128.327271 91.080861 
L 130.285853 91.080861 
L 132.244435 91.080861 
L 134.203017 91.080861 
L 136.161599 91.080861 
L 138.120181 91.080861 
L 140.078763 91.080861 
L 142.037345 91.080861 
L 143.995927 91.080861 
L 145.954509 91.080861 
L 147.913091 91.080861 
L 149.871673 91.080861 
L 151.830255 91.080861 
L 153.788837 91.080861 
L 155.747419 91.080861 
L 157.706001 91.080861 
L 159.664583 91.080861 
L 161.623165 91.080861 
L 163.581747 91.080861 
L 165.540329 91.080861 
L 167.498911 91.080861 
L 169.457493 91.080861 
L 171.416074 91.080861 
L 173.374656 91.080861 
L 175.333238 91.080861 
L 177.29182 91.080861 
L 179.250402 91.080861 
L 181.208984 91.080861 
" style="fill:none;stroke:#0000ff;stroke-linecap:square;stroke-width:1.5;"/>
   </g>
   <g id="line2d_72"/>
   <g id="line2d_73">
    <path clip-path="url(#p39834a2357)" d="M 98.948542 84.578469 
L 100.907124 84.578469 
L 102.865706 84.578469 
L 104.824288 84.578469 
L 106.78287 84.578469 
L 108.741452 84.578469 
L 110.700034 84.578469 
L 112.658616 84.578469 
L 114.617198 84.578469 
L 116.57578 84.578469 
L 118.534362 84.578469 
L 120.492944 84.578469 
L 122.451526 84.578469 
L 124.410107 84.578469 
L 126.368689 84.578469 
L 128.327271 84.578469 
L 130.285853 84.578469 
L 132.244435 84.578469 
L 134.203017 84.578469 
L 136.161599 84.578469 
L 138.120181 84.578469 
L 140.078763 84.578469 
L 142.037345 84.578469 
L 143.995927 84.578469 
L 145.954509 84.578469 
L 147.913091 84.578469 
L 149.871673 84.578469 
L 151.830255 84.578469 
L 153.788837 84.578469 
L 155.747419 84.578469 
L 157.706001 84.578469 
L 159.664583 84.578469 
L 161.623165 84.578469 
L 163.581747 84.578469 
" style="fill:none;stroke:#0000ff;stroke-linecap:square;stroke-width:1.5;"/>
   </g>
   <g id="line2d_74">
    <path clip-path="url(#p39834a2357)" d="M 296.76532 78.076077 
L 298.723902 78.076077 
L 300.682484 78.076077 
L 302.641066 78.076077 
L 304.599648 78.076077 
L 306.55823 78.076077 
L 308.516812 78.076077 
L 310.475394 78.076077 
L 312.433976 78.076077 
L 314.392557 78.076077 
L 316.351139 78.076077 
L 318.309721 78.076077 
L 320.268303 78.076077 
L 322.226885 78.076077 
L 324.185467 78.076077 
L 326.144049 78.076077 
L 328.102631 78.076077 
L 330.061213 78.076077 
L 332.019795 78.076077 
L 333.978377 78.076077 
L 335.936959 78.076077 
L 337.895541 78.076077 
L 339.854123 78.076077 
L 341.812705 78.076077 
L 343.771287 78.076077 
L 345.729869 78.076077 
L 347.688451 78.076077 
L 349.647033 78.076077 
L 351.605615 78.076077 
L 353.564197 78.076077 
L 355.522779 78.076077 
L 357.481361 78.076077 
L 359.439943 78.076077 
L 361.398524 78.076077 
L 363.357106 78.076077 
L 365.315688 78.076077 
L 367.27427 78.076077 
L 369.232852 78.076077 
L 371.191434 78.076077 
L 373.150016 78.076077 
L 375.108598 78.076077 
L 377.06718 78.076077 
L 379.025762 78.076077 
L 380.984344 78.076077 
L 382.942926 78.076077 
L 384.901508 78.076077 
L 386.86009 78.076077 
L 388.818672 78.076077 
L 390.777254 78.076077 
L 392.735836 78.076077 
L 394.694418 78.076077 
L 396.653 78.076077 
L 398.611582 78.076077 
L 400.570164 78.076077 
L 402.528746 78.076077 
L 404.487328 78.076077 
L 406.44591 78.076077 
L 408.404491 78.076077 
L 410.363073 78.076077 
L 412.321655 78.076077 
L 414.280237 78.076077 
L 416.238819 78.076077 
L 418.197401 78.076077 
L 420.155983 78.076077 
L 422.114565 78.076077 
L 424.073147 78.076077 
L 426.031729 78.076077 
" style="fill:none;stroke:#ff0000;stroke-linecap:square;stroke-width:1.5;"/>
   </g>
   <g id="line2d_75"/>
   <g id="line2d_76">
    <path clip-path="url(#p39834a2357)" d="M 218.422042 71.573684 
L 220.380623 71.573684 
L 222.339205 71.573684 
L 224.297787 71.573684 
L 226.256369 71.573684 
L 228.214951 71.573684 
L 230.173533 71.573684 
L 232.132115 71.573684 
L 234.090697 71.573684 
L 236.049279 71.573684 
L 238.007861 71.573684 
L 239.966443 71.573684 
L 241.925025 71.573684 
L 243.883607 71.573684 
L 245.842189 71.573684 
L 247.800771 71.573684 
L 249.759353 71.573684 
L 251.717935 71.573684 
L 253.676517 71.573684 
L 255.635099 71.573684 
L 257.593681 71.573684 
L 259.552263 71.573684 
L 261.510845 71.573684 
L 263.469427 71.573684 
L 265.428009 71.573684 
L 267.38659 71.573684 
L 269.345172 71.573684 
L 271.303754 71.573684 
L 273.262336 71.573684 
L 275.220918 71.573684 
L 277.1795 71.573684 
L 279.138082 71.573684 
L 281.096664 71.573684 
L 283.055246 71.573684 
L 285.013828 71.573684 
L 286.97241 71.573684 
L 288.930992 71.573684 
L 290.889574 71.573684 
L 292.848156 71.573684 
L 294.806738 71.573684 
L 296.76532 71.573684 
L 298.723902 71.573684 
L 300.682484 71.573684 
L 302.641066 71.573684 
L 304.599648 71.573684 
L 306.55823 71.573684 
L 308.516812 71.573684 
L 310.475394 71.573684 
L 312.433976 71.573684 
L 314.392557 71.573684 
L 316.351139 71.573684 
L 318.309721 71.573684 
L 320.268303 71.573684 
L 322.226885 71.573684 
L 324.185467 71.573684 
L 326.144049 71.573684 
L 328.102631 71.573684 
L 330.061213 71.573684 
L 332.019795 71.573684 
L 333.978377 71.573684 
L 335.936959 71.573684 
L 337.895541 71.573684 
L 339.854123 71.573684 
L 341.812705 71.573684 
L 343.771287 71.573684 
L 345.729869 71.573684 
L 347.688451 71.573684 
L 349.647033 71.573684 
L 351.605615 71.573684 
L 353.564197 71.573684 
L 355.522779 71.573684 
L 357.481361 71.573684 
L 359.439943 71.573684 
L 361.398524 71.573684 
L 363.357106 71.573684 
L 365.315688 71.573684 
L 367.27427 71.573684 
L 369.232852 71.573684 
L 371.191434 71.573684 
L 373.150016 71.573684 
L 375.108598 71.573684 
L 377.06718 71.573684 
L 379.025762 71.573684 
L 380.984344 71.573684 
L 382.942926 71.573684 
L 384.901508 71.573684 
L 386.86009 71.573684 
L 388.818672 71.573684 
L 390.777254 71.573684 
L 392.735836 71.573684 
L 394.694418 71.573684 
L 396.653 71.573684 
L 398.611582 71.573684 
L 400.570164 71.573684 
L 402.528746 71.573684 
L 404.487328 71.573684 
L 406.44591 71.573684 
L 408.404491 71.573684 
L 410.363073 71.573684 
L 412.321655 71.573684 
L 414.280237 71.573684 
L 416.238819 71.573684 
L 418.197401 71.573684 
L 420.155983 71.573684 
L 422.114565 71.573684 
L 424.073147 71.573684 
L 426.031729 71.573684 
L 427.990311 71.573684 
L 429.948893 71.573684 
L 431.907475 71.573684 
L 433.866057 71.573684 
L 435.824639 71.573684 
L 437.783221 71.573684 
L 439.741803 71.573684 
L 441.700385 71.573684 
L 443.658967 71.573684 
L 445.617549 71.573684 
L 447.576131 71.573684 
L 449.534713 71.573684 
L 451.493295 71.573684 
L 453.451877 71.573684 
" style="fill:none;stroke:#ff0000;stroke-linecap:square;stroke-width:1.5;"/>
   </g>
   <g id="line2d_77"/>
   <g id="line2d_78">
    <path clip-path="url(#p39834a2357)" d="M 194.919058 65.071292 
L 196.87764 65.071292 
L 198.836222 65.071292 
L 200.794804 65.071292 
L 202.753386 65.071292 
L 204.711968 65.071292 
L 206.67055 65.071292 
L 208.629132 65.071292 
L 210.587714 65.071292 
L 212.546296 65.071292 
L 214.504878 65.071292 
L 216.46346 65.071292 
L 218.422042 65.071292 
L 220.380623 65.071292 
L 222.339205 65.071292 
L 224.297787 65.071292 
L 226.256369 65.071292 
L 228.214951 65.071292 
L 230.173533 65.071292 
L 232.132115 65.071292 
L 234.090697 65.071292 
L 236.049279 65.071292 
L 238.007861 65.071292 
L 239.966443 65.071292 
L 241.925025 65.071292 
L 243.883607 65.071292 
L 245.842189 65.071292 
L 247.800771 65.071292 
L 249.759353 65.071292 
L 251.717935 65.071292 
L 253.676517 65.071292 
L 255.635099 65.071292 
L 257.593681 65.071292 
L 259.552263 65.071292 
L 261.510845 65.071292 
" style="fill:none;stroke:#ff0000;stroke-linecap:square;stroke-width:1.5;"/>
   </g>
   <g id="line2d_79">
    <path clip-path="url(#p39834a2357)" d="M 134.203017 65.071292 
L 136.161599 65.071292 
L 138.120181 65.071292 
L 140.078763 65.071292 
L 142.037345 65.071292 
L 143.995927 65.071292 
L 145.954509 65.071292 
L 147.913091 65.071292 
L 149.871673 65.071292 
L 151.830255 65.071292 
L 153.788837 65.071292 
L 155.747419 65.071292 
L 157.706001 65.071292 
L 159.664583 65.071292 
L 161.623165 65.071292 
L 163.581747 65.071292 
L 165.540329 65.071292 
L 167.498911 65.071292 
L 169.457493 65.071292 
L 171.416074 65.071292 
L 173.374656 65.071292 
L 175.333238 65.071292 
L 177.29182 65.071292 
L 179.250402 65.071292 
L 181.208984 65.071292 
L 183.167566 65.071292 
L 185.126148 65.071292 
L 187.08473 65.071292 
L 189.043312 65.071292 
L 191.001894 65.071292 
L 192.960476 65.071292 
" style="fill:none;stroke:#0000ff;stroke-linecap:square;stroke-width:1.5;"/>
   </g>
   <g id="line2d_80"/>
   <g id="line2d_81">
    <path clip-path="url(#p39834a2357)" d="M 83.279886 58.5689 
L 85.238468 58.5689 
L 87.19705 58.5689 
L 89.155632 58.5689 
L 91.114214 58.5689 
L 93.072796 58.5689 
L 95.031378 58.5689 
L 96.98996 58.5689 
L 98.948542 58.5689 
L 100.907124 58.5689 
L 102.865706 58.5689 
L 104.824288 58.5689 
L 106.78287 58.5689 
L 108.741452 58.5689 
L 110.700034 58.5689 
" style="fill:none;stroke:#0000ff;stroke-linecap:square;stroke-width:1.5;"/>
   </g>
   <g id="line2d_82"/>
   <g id="line2d_83">
    <path clip-path="url(#p39834a2357)" d="M 112.658616 52.066507 
L 114.617198 52.066507 
L 116.57578 52.066507 
L 118.534362 52.066507 
L 120.492944 52.066507 
L 122.451526 52.066507 
L 124.410107 52.066507 
L 126.368689 52.066507 
L 128.327271 52.066507 
L 130.285853 52.066507 
L 132.244435 52.066507 
L 134.203017 52.066507 
L 136.161599 52.066507 
L 138.120181 52.066507 
" style="fill:none;stroke:#0000ff;stroke-linecap:square;stroke-width:1.5;"/>
   </g>
   <g id="line2d_84">
    <path clip-path="url(#p39834a2357)" d="M 224.297787 45.564115 
L 226.256369 45.564115 
L 228.214951 45.564115 
" style="fill:none;stroke:#ff0000;stroke-linecap:square;stroke-width:1.5;"/>
   </g>
   <g id="line2d_85">
    <path clip-path="url(#p39834a2357)" d="M 106.78287 45.564115 
L 108.741452 45.564115 
L 110.700034 45.564115 
L 112.658616 45.564115 
L 114.617198 45.564115 
L 116.57578 45.564115 
L 118.534362 45.564115 
L 120.492944 45.564115 
L 122.451526 45.564115 
L 124.410107 45.564115 
L 126.368689 45.564115 
L 128.327271 45.564115 
L 130.285853 45.564115 
L 132.244435 45.564115 
L 134.203017 45.564115 
L 136.161599 45.564115 
L 138.120181 45.564115 
L 140.078763 45.564115 
L 142.037345 45.564115 
L 143.995927 45.564115 
L 145.954509 45.564115 
L 147.913091 45.564115 
L 149.871673 45.564115 
L 151.830255 45.564115 
L 153.788837 45.564115 
L 155.747419 45.564115 
L 157.706001 45.564115 
L 159.664583 45.564115 
L 161.623165 45.564115 
L 163.581747 45.564115 
L 165.540329 45.564115 
L 167.498911 45.564115 
L 169.457493 45.564115 
L 171.416074 45.564115 
L 173.374656 45.564115 
L 175.333238 45.564115 
L 177.29182 45.564115 
L 179.250402 45.564115 
L 181.208984 45.564115 
L 183.167566 45.564115 
L 185.126148 45.564115 
L 187.08473 45.564115 
L 189.043312 45.564115 
L 191.001894 45.564115 
L 192.960476 45.564115 
L 194.919058 45.564115 
L 196.87764 45.564115 
L 198.836222 45.564115 
L 200.794804 45.564115 
L 202.753386 45.564115 
L 204.711968 45.564115 
L 206.67055 45.564115 
L 208.629132 45.564115 
L 210.587714 45.564115 
L 212.546296 45.564115 
L 214.504878 45.564115 
L 216.46346 45.564115 
L 218.422042 45.564115 
L 220.380623 45.564115 
L 222.339205 45.564115 
" style="fill:none;stroke:#0000ff;stroke-linecap:square;stroke-width:1.5;"/>
   </g>
   <g id="line2d_86">
    <path clip-path="url(#p39834a2357)" d="M 83.279886 39.061722 
L 85.238468 39.061722 
L 87.19705 39.061722 
L 89.155632 39.061722 
" style="fill:none;stroke:#ff0000;stroke-linecap:square;stroke-width:1.5;"/>
   </g>
   <g id="line2d_87">
    <path clip-path="url(#p39834a2357)" d="M 91.114214 39.061722 
L 93.072796 39.061722 
L 95.031378 39.061722 
L 96.98996 39.061722 
L 98.948542 39.061722 
L 100.907124 39.061722 
L 102.865706 39.061722 
L 104.824288 39.061722 
L 106.78287 39.061722 
L 108.741452 39.061722 
" style="fill:none;stroke:#0000ff;stroke-linecap:square;stroke-width:1.5;"/>
   </g>
   <g id="line2d_88"/>
   <g id="line2d_89">
    <path clip-path="url(#p39834a2357)" d="M 100.907124 32.55933 
L 102.865706 32.55933 
L 104.824288 32.55933 
L 106.78287 32.55933 
L 108.741452 32.55933 
L 110.700034 32.55933 
L 112.658616 32.55933 
L 114.617198 32.55933 
L 116.57578 32.55933 
L 118.534362 32.55933 
L 120.492944 32.55933 
L 122.451526 32.55933 
L 124.410107 32.55933 
L 126.368689 32.55933 
L 128.327271 32.55933 
L 130.285853 32.55933 
L 132.244435 32.55933 
L 134.203017 32.55933 
L 136.161599 32.55933 
L 138.120181 32.55933 
L 140.078763 32.55933 
L 142.037345 32.55933 
L 143.995927 32.55933 
L 145.954509 32.55933 
L 147.913091 32.55933 
L 149.871673 32.55933 
L 151.830255 32.55933 
L 153.788837 32.55933 
L 155.747419 32.55933 
L 157.706001 32.55933 
L 159.664583 32.55933 
L 161.623165 32.55933 
L 163.581747 32.55933 
L 165.540329 32.55933 
L 167.498911 32.55933 
L 169.457493 32.55933 
L 171.416074 32.55933 
L 173.374656 32.55933 
L 175.333238 32.55933 
L 177.29182 32.55933 
L 179.250402 32.55933 
L 181.208984 32.55933 
L 183.167566 32.55933 
" style="fill:none;stroke:#0000ff;stroke-linecap:square;stroke-width:1.5;"/>
   </g>
   <g id="line2d_90">
    <path clip-path="url(#p39834a2357)" d="M 200.794804 19.554545 
L 590.552614 19.554545 
L 590.552614 19.554545 
" style="fill:none;stroke:#ff0000;stroke-dasharray:5.55,2.4;stroke-dashoffset:0;stroke-width:1.5;"/>
   </g>
   <g id="line2d_91">
    <path clip-path="url(#p39834a2357)" d="M 83.279886 19.554545 
L 85.238468 19.554545 
L 87.19705 19.554545 
L 89.155632 19.554545 
L 91.114214 19.554545 
L 93.072796 19.554545 
L 95.031378 19.554545 
L 96.98996 19.554545 
L 98.948542 19.554545 
L 100.907124 19.554545 
L 102.865706 19.554545 
L 104.824288 19.554545 
L 106.78287 19.554545 
L 108.741452 19.554545 
L 110.700034 19.554545 
L 112.658616 19.554545 
L 114.617198 19.554545 
L 116.57578 19.554545 
L 118.534362 19.554545 
L 120.492944 19.554545 
L 122.451526 19.554545 
L 124.410107 19.554545 
L 126.368689 19.554545 
L 128.327271 19.554545 
L 130.285853 19.554545 
L 132.244435 19.554545 
L 134.203017 19.554545 
L 136.161599 19.554545 
L 138.120181 19.554545 
L 140.078763 19.554545 
L 142.037345 19.554545 
L 143.995927 19.554545 
L 145.954509 19.554545 
L 147.913091 19.554545 
L 149.871673 19.554545 
L 151.830255 19.554545 
L 153.788837 19.554545 
L 155.747419 19.554545 
L 157.706001 19.554545 
L 159.664583 19.554545 
L 161.623165 19.554545 
L 163.581747 19.554545 
L 165.540329 19.554545 
L 167.498911 19.554545 
L 169.457493 19.554545 
L 171.416074 19.554545 
L 173.374656 19.554545 
L 175.333238 19.554545 
L 177.29182 19.554545 
L 179.250402 19.554545 
L 181.208984 19.554545 
L 183.167566 19.554545 
L 185.126148 19.554545 
L 187.08473 19.554545 
L 189.043312 19.554545 
L 191.001894 19.554545 
L 192.960476 19.554545 
L 194.919058 19.554545 
L 196.87764 19.554545 
L 198.836222 19.554545 
" style="fill:none;stroke:#0000ff;stroke-dasharray:5.55,2.4;stroke-dashoffset:0;stroke-width:1.5;"/>
   </g>
   <g id="patch_9">
    <path d="M 57.91625 279 
L 57.91625 7.2 
" style="fill:none;stroke:#000000;stroke-linecap:square;stroke-linejoin:miter;stroke-width:0.8;"/>
   </g>
   <g id="patch_10">
    <path d="M 615.91625 279 
L 615.91625 7.2 
" style="fill:none;stroke:#000000;stroke-linecap:square;stroke-linejoin:miter;stroke-width:0.8;"/>
   </g>
   <g id="patch_11">
    <path d="M 57.91625 279 
L 615.91625 279 
" style="fill:none;stroke:#000000;stroke-linecap:square;stroke-linejoin:miter;stroke-width:0.8;"/>
   </g>
   <g id="patch_12">
    <path d="M 57.91625 7.2 
L 615.91625 7.2 
" style="fill:none;stroke:#000000;stroke-linecap:square;stroke-linejoin:miter;stroke-width:0.8;"/>
   </g>
   <g id="legend_1">
    <g id="patch_13">
     <path d="M 480.1265 271.8 
L 605.83625 271.8 
Q 608.71625 271.8 608.71625 268.92 
L 608.71625 228.087 
Q 608.71625 225.207 605.83625 225.207 
L 480.1265 225.207 
Q 477.2465 225.207 477.2465 228.087 
L 477.2465 268.92 
Q 477.2465 271.8 480.1265 271.8 
z
" style="fill:#ffffff;opacity:0.8;stroke:#cccccc;stroke-linejoin:miter;"/>
    </g>
    <g id="line2d_92">
     <path d="M 483.0065 236.86875 
L 511.8065 236.86875 
" style="fill:none;stroke:#ff0000;stroke-linecap:square;stroke-width:1.5;"/>
    </g>
    <g id="line2d_93"/>
    <g id="text_18">
     <!-- Fixed Point -->
     <defs>
      <path d="M 9.8125 72.90625 
L 51.703125 72.90625 
L 51.703125 64.59375 
L 19.671875 64.59375 
L 19.671875 43.109375 
L 48.578125 43.109375 
L 48.578125 34.8125 
L 19.671875 34.8125 
L 19.671875 0 
L 9.8125 0 
z
" id="DejaVuSans-70"/>
      <path d="M 9.421875 54.6875 
L 18.40625 54.6875 
L 18.40625 0 
L 9.421875 0 
z
M 9.421875 75.984375 
L 18.40625 75.984375 
L 18.40625 64.59375 
L 9.421875 64.59375 
z
" id="DejaVuSans-105"/>
      <path d="M 54.890625 54.6875 
L 35.109375 28.078125 
L 55.90625 0 
L 45.3125 0 
L 29.390625 21.484375 
L 13.484375 0 
L 2.875 0 
L 24.125 28.609375 
L 4.6875 54.6875 
L 15.28125 54.6875 
L 29.78125 35.203125 
L 44.28125 54.6875 
z
" id="DejaVuSans-120"/>
      <path d="M 19.671875 64.796875 
L 19.671875 37.40625 
L 32.078125 37.40625 
Q 38.96875 37.40625 42.71875 40.96875 
Q 46.484375 44.53125 46.484375 51.125 
Q 46.484375 57.671875 42.71875 61.234375 
Q 38.96875 64.796875 32.078125 64.796875 
z
M 9.8125 72.90625 
L 32.078125 72.90625 
Q 44.34375 72.90625 50.609375 67.359375 
Q 56.890625 61.8125 56.890625 51.125 
Q 56.890625 40.328125 50.609375 34.8125 
Q 44.34375 29.296875 32.078125 29.296875 
L 19.671875 29.296875 
L 19.671875 0 
L 9.8125 0 
z
" id="DejaVuSans-80"/>
      <path d="M 54.890625 33.015625 
L 54.890625 0 
L 45.90625 0 
L 45.90625 32.71875 
Q 45.90625 40.484375 42.875 44.328125 
Q 39.84375 48.1875 33.796875 48.1875 
Q 26.515625 48.1875 22.3125 43.546875 
Q 18.109375 38.921875 18.109375 30.90625 
L 18.109375 0 
L 9.078125 0 
L 9.078125 54.6875 
L 18.109375 54.6875 
L 18.109375 46.1875 
Q 21.34375 51.125 25.703125 53.5625 
Q 30.078125 56 35.796875 56 
Q 45.21875 56 50.046875 50.171875 
Q 54.890625 44.34375 54.890625 33.015625 
z
" id="DejaVuSans-110"/>
      <path d="M 18.3125 70.21875 
L 18.3125 54.6875 
L 36.8125 54.6875 
L 36.8125 47.703125 
L 18.3125 47.703125 
L 18.3125 18.015625 
Q 18.3125 11.328125 20.140625 9.421875 
Q 21.96875 7.515625 27.59375 7.515625 
L 36.8125 7.515625 
L 36.8125 0 
L 27.59375 0 
Q 17.1875 0 13.234375 3.875 
Q 9.28125 7.765625 9.28125 18.015625 
L 9.28125 47.703125 
L 2.6875 47.703125 
L 2.6875 54.6875 
L 9.28125 54.6875 
L 9.28125 70.21875 
z
" id="DejaVuSans-116"/>
     </defs>
     <g transform="translate(523.3265 241.90875)scale(0.144 -0.144)">
      <use xlink:href="#DejaVuSans-70"/>
      <use x="50.269531" xlink:href="#DejaVuSans-105"/>
      <use x="78.052734" xlink:href="#DejaVuSans-120"/>
      <use x="134.107422" xlink:href="#DejaVuSans-101"/>
      <use x="195.630859" xlink:href="#DejaVuSans-100"/>
      <use x="259.107422" xlink:href="#DejaVuSans-32"/>
      <use x="290.894531" xlink:href="#DejaVuSans-80"/>
      <use x="347.572266" xlink:href="#DejaVuSans-111"/>
      <use x="408.753906" xlink:href="#DejaVuSans-105"/>
      <use x="436.537109" xlink:href="#DejaVuSans-110"/>
      <use x="499.916016" xlink:href="#DejaVuSans-116"/>
     </g>
    </g>
    <g id="line2d_94">
     <path d="M 483.0065 258.00525 
L 511.8065 258.00525 
" style="fill:none;stroke:#0000ff;stroke-linecap:square;stroke-width:1.5;"/>
    </g>
    <g id="line2d_95"/>
    <g id="text_19">
     <!-- Limit Cycle -->
     <defs>
      <path d="M 9.8125 72.90625 
L 19.671875 72.90625 
L 19.671875 8.296875 
L 55.171875 8.296875 
L 55.171875 0 
L 9.8125 0 
z
" id="DejaVuSans-76"/>
      <path d="M 64.40625 67.28125 
L 64.40625 56.890625 
Q 59.421875 61.53125 53.78125 63.8125 
Q 48.140625 66.109375 41.796875 66.109375 
Q 29.296875 66.109375 22.65625 58.46875 
Q 16.015625 50.828125 16.015625 36.375 
Q 16.015625 21.96875 22.65625 14.328125 
Q 29.296875 6.6875 41.796875 6.6875 
Q 48.140625 6.6875 53.78125 8.984375 
Q 59.421875 11.28125 64.40625 15.921875 
L 64.40625 5.609375 
Q 59.234375 2.09375 53.4375 0.328125 
Q 47.65625 -1.421875 41.21875 -1.421875 
Q 24.65625 -1.421875 15.125 8.703125 
Q 5.609375 18.84375 5.609375 36.375 
Q 5.609375 53.953125 15.125 64.078125 
Q 24.65625 74.21875 41.21875 74.21875 
Q 47.75 74.21875 53.53125 72.484375 
Q 59.328125 70.75 64.40625 67.28125 
z
" id="DejaVuSans-67"/>
      <path d="M 32.171875 -5.078125 
Q 28.375 -14.84375 24.75 -17.8125 
Q 21.140625 -20.796875 15.09375 -20.796875 
L 7.90625 -20.796875 
L 7.90625 -13.28125 
L 13.1875 -13.28125 
Q 16.890625 -13.28125 18.9375 -11.515625 
Q 21 -9.765625 23.484375 -3.21875 
L 25.09375 0.875 
L 2.984375 54.6875 
L 12.5 54.6875 
L 29.59375 11.921875 
L 46.6875 54.6875 
L 56.203125 54.6875 
z
" id="DejaVuSans-121"/>
      <path d="M 48.78125 52.59375 
L 48.78125 44.1875 
Q 44.96875 46.296875 41.140625 47.34375 
Q 37.3125 48.390625 33.40625 48.390625 
Q 24.65625 48.390625 19.8125 42.84375 
Q 14.984375 37.3125 14.984375 27.296875 
Q 14.984375 17.28125 19.8125 11.734375 
Q 24.65625 6.203125 33.40625 6.203125 
Q 37.3125 6.203125 41.140625 7.25 
Q 44.96875 8.296875 48.78125 10.40625 
L 48.78125 2.09375 
Q 45.015625 0.34375 40.984375 -0.53125 
Q 36.96875 -1.421875 32.421875 -1.421875 
Q 20.0625 -1.421875 12.78125 6.34375 
Q 5.515625 14.109375 5.515625 27.296875 
Q 5.515625 40.671875 12.859375 48.328125 
Q 20.21875 56 33.015625 56 
Q 37.15625 56 41.109375 55.140625 
Q 45.0625 54.296875 48.78125 52.59375 
z
" id="DejaVuSans-99"/>
      <path d="M 9.421875 75.984375 
L 18.40625 75.984375 
L 18.40625 0 
L 9.421875 0 
z
" id="DejaVuSans-108"/>
     </defs>
     <g transform="translate(523.3265 263.04525)scale(0.144 -0.144)">
      <use xlink:href="#DejaVuSans-76"/>
      <use x="55.712891" xlink:href="#DejaVuSans-105"/>
      <use x="83.496094" xlink:href="#DejaVuSans-109"/>
      <use x="180.908203" xlink:href="#DejaVuSans-105"/>
      <use x="208.691406" xlink:href="#DejaVuSans-116"/>
      <use x="247.900391" xlink:href="#DejaVuSans-32"/>
      <use x="279.6875" xlink:href="#DejaVuSans-67"/>
      <use x="349.511719" xlink:href="#DejaVuSans-121"/>
      <use x="408.691406" xlink:href="#DejaVuSans-99"/>
      <use x="463.671875" xlink:href="#DejaVuSans-108"/>
      <use x="491.455078" xlink:href="#DejaVuSans-101"/>
     </g>
    </g>
   </g>
  </g>
 </g>
 <defs>
  <clipPath id="p39834a2357">
   <rect height="271.8" width="558" x="57.91625" y="7.2"/>
  </clipPath>
 </defs>
</svg>
