<?xml version="1.0" encoding="utf-8" standalone="no"?>
<!DOCTYPE svg PUBLIC "-//W3C//DTD SVG 1.1//EN"
  "http://www.w3.org/Graphics/SVG/1.1/DTD/svg11.dtd">
<!-- Created with matplotlib (https://matplotlib.org/) -->
<svg height="353.285pt" version="1.1" viewBox="0 0 628.20125 353.285" width="628.20125pt" xmlns="http://www.w3.org/2000/svg" xmlns:xlink="http://www.w3.org/1999/xlink">
 <defs>
  <style type="text/css">
*{stroke-linecap:butt;stroke-linejoin:round;}
  </style>
 </defs>
 <g id="figure_1">
  <g id="patch_1">
   <path d="M 0 353.285 
L 628.20125 353.285 
L 628.20125 0 
L 0 0 
z
" style="fill:none;"/>
  </g>
  <g id="axes_1">
   <g id="patch_2">
    <path d="M 63.00125 300.2 
L 621.00125 300.2 
L 621.00125 28.4 
L 63.00125 28.4 
z
" style="fill:#ffffff;"/>
   </g>
   <g id="matplotlib.axis_1">
    <g id="xtick_1">
     <g id="line2d_1">
      <defs>
       <path d="M 0 0 
L 0 3.5 
" id="m37c4ff1ba4" style="stroke:#000000;stroke-width:0.8;"/>
      </defs>
      <g>
       <use style="stroke:#000000;stroke-width:0.8;" x="88.364886" xlink:href="#m37c4ff1ba4" y="300.2"/>
      </g>
     </g>
     <g id="text_1">
      <!-- 0 -->
      <defs>
       <path d="M 31.78125 66.40625 
Q 24.171875 66.40625 20.328125 58.90625 
Q 16.5 51.421875 16.5 36.375 
Q 16.5 21.390625 20.328125 13.890625 
Q 24.171875 6.390625 31.78125 6.390625 
Q 39.453125 6.390625 43.28125 13.890625 
Q 47.125 21.390625 47.125 36.375 
Q 47.125 51.421875 43.28125 58.90625 
Q 39.453125 66.40625 31.78125 66.40625 
z
M 31.78125 74.21875 
Q 44.046875 74.21875 50.515625 64.515625 
Q 56.984375 54.828125 56.984375 36.375 
Q 56.984375 17.96875 50.515625 8.265625 
Q 44.046875 -1.421875 31.78125 -1.421875 
Q 19.53125 -1.421875 13.0625 8.265625 
Q 6.59375 17.96875 6.59375 36.375 
Q 6.59375 54.828125 13.0625 64.515625 
Q 19.53125 74.21875 31.78125 74.21875 
z
" id="DejaVuSans-48"/>
      </defs>
      <g transform="translate(83.274886 319.3575)scale(0.16 -0.16)">
       <use xlink:href="#DejaVuSans-48"/>
      </g>
     </g>
    </g>
    <g id="xtick_2">
     <g id="line2d_2">
      <g>
       <use style="stroke:#000000;stroke-width:0.8;" x="190.844225" xlink:href="#m37c4ff1ba4" y="300.2"/>
      </g>
     </g>
     <g id="text_2">
      <!-- 1 -->
      <defs>
       <path d="M 12.40625 8.296875 
L 28.515625 8.296875 
L 28.515625 63.921875 
L 10.984375 60.40625 
L 10.984375 69.390625 
L 28.421875 72.90625 
L 38.28125 72.90625 
L 38.28125 8.296875 
L 54.390625 8.296875 
L 54.390625 0 
L 12.40625 0 
z
" id="DejaVuSans-49"/>
      </defs>
      <g transform="translate(185.754225 319.3575)scale(0.16 -0.16)">
       <use xlink:href="#DejaVuSans-49"/>
      </g>
     </g>
    </g>
    <g id="xtick_3">
     <g id="line2d_3">
      <g>
       <use style="stroke:#000000;stroke-width:0.8;" x="293.323564" xlink:href="#m37c4ff1ba4" y="300.2"/>
      </g>
     </g>
     <g id="text_3">
      <!-- 2 -->
      <defs>
       <path d="M 19.1875 8.296875 
L 53.609375 8.296875 
L 53.609375 0 
L 7.328125 0 
L 7.328125 8.296875 
Q 12.9375 14.109375 22.625 23.890625 
Q 32.328125 33.6875 34.8125 36.53125 
Q 39.546875 41.84375 41.421875 45.53125 
Q 43.3125 49.21875 43.3125 52.78125 
Q 43.3125 58.59375 39.234375 62.25 
Q 35.15625 65.921875 28.609375 65.921875 
Q 23.96875 65.921875 18.8125 64.3125 
Q 13.671875 62.703125 7.8125 59.421875 
L 7.8125 69.390625 
Q 13.765625 71.78125 18.9375 73 
Q 24.125 74.21875 28.421875 74.21875 
Q 39.75 74.21875 46.484375 68.546875 
Q 53.21875 62.890625 53.21875 53.421875 
Q 53.21875 48.921875 51.53125 44.890625 
Q 49.859375 40.875 45.40625 35.40625 
Q 44.1875 33.984375 37.640625 27.21875 
Q 31.109375 20.453125 19.1875 8.296875 
z
" id="DejaVuSans-50"/>
      </defs>
      <g transform="translate(288.233564 319.3575)scale(0.16 -0.16)">
       <use xlink:href="#DejaVuSans-50"/>
      </g>
     </g>
    </g>
    <g id="xtick_4">
     <g id="line2d_4">
      <g>
       <use style="stroke:#000000;stroke-width:0.8;" x="395.802903" xlink:href="#m37c4ff1ba4" y="300.2"/>
      </g>
     </g>
     <g id="text_4">
      <!-- 3 -->
      <defs>
       <path d="M 40.578125 39.3125 
Q 47.65625 37.796875 51.625 33 
Q 55.609375 28.21875 55.609375 21.1875 
Q 55.609375 10.40625 48.1875 4.484375 
Q 40.765625 -1.421875 27.09375 -1.421875 
Q 22.515625 -1.421875 17.65625 -0.515625 
Q 12.796875 0.390625 7.625 2.203125 
L 7.625 11.71875 
Q 11.71875 9.328125 16.59375 8.109375 
Q 21.484375 6.890625 26.8125 6.890625 
Q 36.078125 6.890625 40.9375 10.546875 
Q 45.796875 14.203125 45.796875 21.1875 
Q 45.796875 27.640625 41.28125 31.265625 
Q 36.765625 34.90625 28.71875 34.90625 
L 20.21875 34.90625 
L 20.21875 43.015625 
L 29.109375 43.015625 
Q 36.375 43.015625 40.234375 45.921875 
Q 44.09375 48.828125 44.09375 54.296875 
Q 44.09375 59.90625 40.109375 62.90625 
Q 36.140625 65.921875 28.71875 65.921875 
Q 24.65625 65.921875 20.015625 65.03125 
Q 15.375 64.15625 9.8125 62.3125 
L 9.8125 71.09375 
Q 15.4375 72.65625 20.34375 73.4375 
Q 25.25 74.21875 29.59375 74.21875 
Q 40.828125 74.21875 47.359375 69.109375 
Q 53.90625 64.015625 53.90625 55.328125 
Q 53.90625 49.265625 50.4375 45.09375 
Q 46.96875 40.921875 40.578125 39.3125 
z
" id="DejaVuSans-51"/>
      </defs>
      <g transform="translate(390.712903 319.3575)scale(0.16 -0.16)">
       <use xlink:href="#DejaVuSans-51"/>
      </g>
     </g>
    </g>
    <g id="xtick_5">
     <g id="line2d_5">
      <g>
       <use style="stroke:#000000;stroke-width:0.8;" x="498.282242" xlink:href="#m37c4ff1ba4" y="300.2"/>
      </g>
     </g>
     <g id="text_5">
      <!-- 4 -->
      <defs>
       <path d="M 37.796875 64.3125 
L 12.890625 25.390625 
L 37.796875 25.390625 
z
M 35.203125 72.90625 
L 47.609375 72.90625 
L 47.609375 25.390625 
L 58.015625 25.390625 
L 58.015625 17.1875 
L 47.609375 17.1875 
L 47.609375 0 
L 37.796875 0 
L 37.796875 17.1875 
L 4.890625 17.1875 
L 4.890625 26.703125 
z
" id="DejaVuSans-52"/>
      </defs>
      <g transform="translate(493.192242 319.3575)scale(0.16 -0.16)">
       <use xlink:href="#DejaVuSans-52"/>
      </g>
     </g>
    </g>
    <g id="xtick_6">
     <g id="line2d_6">
      <g>
       <use style="stroke:#000000;stroke-width:0.8;" x="600.761581" xlink:href="#m37c4ff1ba4" y="300.2"/>
      </g>
     </g>
     <g id="text_6">
      <!-- 5 -->
      <defs>
       <path d="M 10.796875 72.90625 
L 49.515625 72.90625 
L 49.515625 64.59375 
L 19.828125 64.59375 
L 19.828125 46.734375 
Q 21.96875 47.46875 24.109375 47.828125 
Q 26.265625 48.1875 28.421875 48.1875 
Q 40.625 48.1875 47.75 41.5 
Q 54.890625 34.8125 54.890625 23.390625 
Q 54.890625 11.625 47.5625 5.09375 
Q 40.234375 -1.421875 26.90625 -1.421875 
Q 22.3125 -1.421875 17.546875 -0.640625 
Q 12.796875 0.140625 7.71875 1.703125 
L 7.71875 11.625 
Q 12.109375 9.234375 16.796875 8.0625 
Q 21.484375 6.890625 26.703125 6.890625 
Q 35.15625 6.890625 40.078125 11.328125 
Q 45.015625 15.765625 45.015625 23.390625 
Q 45.015625 31 40.078125 35.4375 
Q 35.15625 39.890625 26.703125 39.890625 
Q 22.75 39.890625 18.8125 39.015625 
Q 14.890625 38.140625 10.796875 36.28125 
z
" id="DejaVuSans-53"/>
      </defs>
      <g transform="translate(595.671581 319.3575)scale(0.16 -0.16)">
       <use xlink:href="#DejaVuSans-53"/>
      </g>
     </g>
    </g>
    <g id="text_7">
     <!-- $J_e$ (mV) -->
     <defs>
      <path d="M 16.703125 72.90625 
L 26.609375 72.90625 
L 13.375 5.078125 
Q 10.796875 -8.15625 4.65625 -14.078125 
Q -1.46875 -20.015625 -12.5 -20.015625 
L -16.40625 -20.015625 
L -14.796875 -11.71875 
L -11.71875 -11.71875 
Q -5.125 -11.71875 -1.703125 -7.953125 
Q 1.703125 -4.203125 3.515625 5.078125 
z
" id="DejaVuSans-Oblique-74"/>
      <path d="M 48.09375 32.234375 
Q 48.25 33.015625 48.3125 33.84375 
Q 48.390625 34.671875 48.390625 35.5 
Q 48.390625 41.453125 44.890625 44.921875 
Q 41.40625 48.390625 35.40625 48.390625 
Q 28.71875 48.390625 23.578125 44.15625 
Q 18.453125 39.9375 15.828125 32.171875 
z
M 55.90625 25.203125 
L 14.109375 25.203125 
Q 13.8125 23.34375 13.71875 22.265625 
Q 13.625 21.1875 13.625 20.40625 
Q 13.625 13.625 17.796875 9.90625 
Q 21.96875 6.203125 29.59375 6.203125 
Q 35.453125 6.203125 40.671875 7.515625 
Q 45.90625 8.84375 50.390625 11.375 
L 48.6875 2.484375 
Q 43.84375 0.53125 38.6875 -0.4375 
Q 33.546875 -1.421875 28.21875 -1.421875 
Q 16.84375 -1.421875 10.71875 4.015625 
Q 4.59375 9.46875 4.59375 19.484375 
Q 4.59375 28.03125 7.640625 35.375 
Q 10.6875 42.71875 16.609375 48.484375 
Q 20.40625 52.09375 25.65625 54.046875 
Q 30.90625 56 36.8125 56 
Q 46.09375 56 51.578125 50.4375 
Q 57.078125 44.875 57.078125 35.5 
Q 57.078125 33.25 56.78125 30.6875 
Q 56.5 28.125 55.90625 25.203125 
z
" id="DejaVuSans-Oblique-101"/>
      <path id="DejaVuSans-32"/>
      <path d="M 31 75.875 
Q 24.46875 64.65625 21.28125 53.65625 
Q 18.109375 42.671875 18.109375 31.390625 
Q 18.109375 20.125 21.3125 9.0625 
Q 24.515625 -2 31 -13.1875 
L 23.1875 -13.1875 
Q 15.875 -1.703125 12.234375 9.375 
Q 8.59375 20.453125 8.59375 31.390625 
Q 8.59375 42.28125 12.203125 53.3125 
Q 15.828125 64.359375 23.1875 75.875 
z
" id="DejaVuSans-40"/>
      <path d="M 52 44.1875 
Q 55.375 50.25 60.0625 53.125 
Q 64.75 56 71.09375 56 
Q 79.640625 56 84.28125 50.015625 
Q 88.921875 44.046875 88.921875 33.015625 
L 88.921875 0 
L 79.890625 0 
L 79.890625 32.71875 
Q 79.890625 40.578125 77.09375 44.375 
Q 74.3125 48.1875 68.609375 48.1875 
Q 61.625 48.1875 57.5625 43.546875 
Q 53.515625 38.921875 53.515625 30.90625 
L 53.515625 0 
L 44.484375 0 
L 44.484375 32.71875 
Q 44.484375 40.625 41.703125 44.40625 
Q 38.921875 48.1875 33.109375 48.1875 
Q 26.21875 48.1875 22.15625 43.53125 
Q 18.109375 38.875 18.109375 30.90625 
L 18.109375 0 
L 9.078125 0 
L 9.078125 54.6875 
L 18.109375 54.6875 
L 18.109375 46.1875 
Q 21.1875 51.21875 25.484375 53.609375 
Q 29.78125 56 35.6875 56 
Q 41.65625 56 45.828125 52.96875 
Q 50 49.953125 52 44.1875 
z
" id="DejaVuSans-109"/>
      <path d="M 28.609375 0 
L 0.78125 72.90625 
L 11.078125 72.90625 
L 34.1875 11.53125 
L 57.328125 72.90625 
L 67.578125 72.90625 
L 39.796875 0 
z
" id="DejaVuSans-86"/>
      <path d="M 8.015625 75.875 
L 15.828125 75.875 
Q 23.140625 64.359375 26.78125 53.3125 
Q 30.421875 42.28125 30.421875 31.390625 
Q 30.421875 20.453125 26.78125 9.375 
Q 23.140625 -1.703125 15.828125 -13.1875 
L 8.015625 -13.1875 
Q 14.5 -2 17.703125 9.0625 
Q 20.90625 20.125 20.90625 31.390625 
Q 20.90625 42.671875 17.703125 53.65625 
Q 14.5 64.65625 8.015625 75.875 
z
" id="DejaVuSans-41"/>
     </defs>
     <g transform="translate(306.90125 341.885)scale(0.2 -0.2)">
      <use transform="translate(0 0.125)" xlink:href="#DejaVuSans-Oblique-74"/>
      <use transform="translate(29.492188 -16.28125)scale(0.7)" xlink:href="#DejaVuSans-Oblique-101"/>
      <use transform="translate(75.292969 0.125)" xlink:href="#DejaVuSans-32"/>
      <use transform="translate(107.080078 0.125)" xlink:href="#DejaVuSans-40"/>
      <use transform="translate(146.09375 0.125)" xlink:href="#DejaVuSans-109"/>
      <use transform="translate(243.505859 0.125)" xlink:href="#DejaVuSans-86"/>
      <use transform="translate(311.914062 0.125)" xlink:href="#DejaVuSans-41"/>
     </g>
    </g>
   </g>
   <g id="matplotlib.axis_2">
    <g id="ytick_1">
     <g id="line2d_7">
      <defs>
       <path d="M 0 0 
L -3.5 0 
" id="m15e3bab10d" style="stroke:#000000;stroke-width:0.8;"/>
      </defs>
      <g>
       <use style="stroke:#000000;stroke-width:0.8;" x="63.00125" xlink:href="#m15e3bab10d" y="293.441982"/>
      </g>
     </g>
     <g id="text_8">
      <!-- 0.0 -->
      <defs>
       <path d="M 10.6875 12.40625 
L 21 12.40625 
L 21 0 
L 10.6875 0 
z
" id="DejaVuSans-46"/>
      </defs>
      <g transform="translate(30.55625 299.520732)scale(0.16 -0.16)">
       <use xlink:href="#DejaVuSans-48"/>
       <use x="63.623047" xlink:href="#DejaVuSans-46"/>
       <use x="95.410156" xlink:href="#DejaVuSans-48"/>
      </g>
     </g>
    </g>
    <g id="ytick_2">
     <g id="line2d_8">
      <g>
       <use style="stroke:#000000;stroke-width:0.8;" x="63.00125" xlink:href="#m15e3bab10d" y="242.767239"/>
      </g>
     </g>
     <g id="text_9">
      <!-- 0.1 -->
      <g transform="translate(30.55625 248.845989)scale(0.16 -0.16)">
       <use xlink:href="#DejaVuSans-48"/>
       <use x="63.623047" xlink:href="#DejaVuSans-46"/>
       <use x="95.410156" xlink:href="#DejaVuSans-49"/>
      </g>
     </g>
    </g>
    <g id="ytick_3">
     <g id="line2d_9">
      <g>
       <use style="stroke:#000000;stroke-width:0.8;" x="63.00125" xlink:href="#m15e3bab10d" y="192.092497"/>
      </g>
     </g>
     <g id="text_10">
      <!-- 0.2 -->
      <g transform="translate(30.55625 198.171247)scale(0.16 -0.16)">
       <use xlink:href="#DejaVuSans-48"/>
       <use x="63.623047" xlink:href="#DejaVuSans-46"/>
       <use x="95.410156" xlink:href="#DejaVuSans-50"/>
      </g>
     </g>
    </g>
    <g id="ytick_4">
     <g id="line2d_10">
      <g>
       <use style="stroke:#000000;stroke-width:0.8;" x="63.00125" xlink:href="#m15e3bab10d" y="141.417754"/>
      </g>
     </g>
     <g id="text_11">
      <!-- 0.3 -->
      <g transform="translate(30.55625 147.496504)scale(0.16 -0.16)">
       <use xlink:href="#DejaVuSans-48"/>
       <use x="63.623047" xlink:href="#DejaVuSans-46"/>
       <use x="95.410156" xlink:href="#DejaVuSans-51"/>
      </g>
     </g>
    </g>
    <g id="ytick_5">
     <g id="line2d_11">
      <g>
       <use style="stroke:#000000;stroke-width:0.8;" x="63.00125" xlink:href="#m15e3bab10d" y="90.743011"/>
      </g>
     </g>
     <g id="text_12">
      <!-- 0.4 -->
      <g transform="translate(30.55625 96.821761)scale(0.16 -0.16)">
       <use xlink:href="#DejaVuSans-48"/>
       <use x="63.623047" xlink:href="#DejaVuSans-46"/>
       <use x="95.410156" xlink:href="#DejaVuSans-52"/>
      </g>
     </g>
    </g>
    <g id="ytick_6">
     <g id="line2d_12">
      <g>
       <use style="stroke:#000000;stroke-width:0.8;" x="63.00125" xlink:href="#m15e3bab10d" y="40.068268"/>
      </g>
     </g>
     <g id="text_13">
      <!-- 0.5 -->
      <g transform="translate(30.55625 46.147018)scale(0.16 -0.16)">
       <use xlink:href="#DejaVuSans-48"/>
       <use x="63.623047" xlink:href="#DejaVuSans-46"/>
       <use x="95.410156" xlink:href="#DejaVuSans-53"/>
      </g>
     </g>
    </g>
    <g id="text_14">
     <!-- $E$ (au) -->
     <defs>
      <path d="M 16.890625 72.90625 
L 62.984375 72.90625 
L 61.375 64.59375 
L 25.09375 64.59375 
L 20.90625 43.015625 
L 55.71875 43.015625 
L 54.109375 34.71875 
L 19.28125 34.71875 
L 14.203125 8.296875 
L 51.3125 8.296875 
L 49.703125 0 
L 2.6875 0 
z
" id="DejaVuSans-Oblique-69"/>
      <path d="M 34.28125 27.484375 
Q 23.390625 27.484375 19.1875 25 
Q 14.984375 22.515625 14.984375 16.5 
Q 14.984375 11.71875 18.140625 8.90625 
Q 21.296875 6.109375 26.703125 6.109375 
Q 34.1875 6.109375 38.703125 11.40625 
Q 43.21875 16.703125 43.21875 25.484375 
L 43.21875 27.484375 
z
M 52.203125 31.203125 
L 52.203125 0 
L 43.21875 0 
L 43.21875 8.296875 
Q 40.140625 3.328125 35.546875 0.953125 
Q 30.953125 -1.421875 24.3125 -1.421875 
Q 15.921875 -1.421875 10.953125 3.296875 
Q 6 8.015625 6 15.921875 
Q 6 25.140625 12.171875 29.828125 
Q 18.359375 34.515625 30.609375 34.515625 
L 43.21875 34.515625 
L 43.21875 35.40625 
Q 43.21875 41.609375 39.140625 45 
Q 35.0625 48.390625 27.6875 48.390625 
Q 23 48.390625 18.546875 47.265625 
Q 14.109375 46.140625 10.015625 43.890625 
L 10.015625 52.203125 
Q 14.9375 54.109375 19.578125 55.046875 
Q 24.21875 56 28.609375 56 
Q 40.484375 56 46.34375 49.84375 
Q 52.203125 43.703125 52.203125 31.203125 
z
" id="DejaVuSans-97"/>
      <path d="M 8.5 21.578125 
L 8.5 54.6875 
L 17.484375 54.6875 
L 17.484375 21.921875 
Q 17.484375 14.15625 20.5 10.265625 
Q 23.53125 6.390625 29.59375 6.390625 
Q 36.859375 6.390625 41.078125 11.03125 
Q 45.3125 15.671875 45.3125 23.6875 
L 45.3125 54.6875 
L 54.296875 54.6875 
L 54.296875 0 
L 45.3125 0 
L 45.3125 8.40625 
Q 42.046875 3.421875 37.71875 1 
Q 33.40625 -1.421875 27.6875 -1.421875 
Q 18.265625 -1.421875 13.375 4.4375 
Q 8.5 10.296875 8.5 21.578125 
z
M 31.109375 56 
z
" id="DejaVuSans-117"/>
     </defs>
     <g transform="translate(22.396875 194.1)rotate(-90)scale(0.2 -0.2)">
      <use transform="translate(0 0.125)" xlink:href="#DejaVuSans-Oblique-69"/>
      <use transform="translate(63.183594 0.125)" xlink:href="#DejaVuSans-32"/>
      <use transform="translate(94.970703 0.125)" xlink:href="#DejaVuSans-40"/>
      <use transform="translate(133.984375 0.125)" xlink:href="#DejaVuSans-97"/>
      <use transform="translate(195.263672 0.125)" xlink:href="#DejaVuSans-117"/>
      <use transform="translate(258.642578 0.125)" xlink:href="#DejaVuSans-41"/>
     </g>
    </g>
   </g>
   <g id="line2d_13">
    <path clip-path="url(#pd816cf8f83)" d="M 88.364886 276.268042 
L 93.488853 275.27306 
L 98.61282 274.216207 
L 103.736787 273.093595 
L 108.860754 271.901194 
L 113.984721 270.634859 
L 119.108688 269.290383 
L 124.232655 267.863552 
L 129.356622 266.35023 
L 134.480589 264.746456 
L 139.604556 263.048569 
L 144.728523 261.253344 
L 149.85249 259.358157 
L 154.976457 257.361152 
L 160.100424 255.261411 
L 165.22439 253.059113 
L 170.348357 250.755663 
L 175.472324 248.353773 
L 180.596291 245.85748 
L 185.720258 243.272085 
L 190.844225 240.604022 
L 195.968192 237.860648 
L 201.092159 235.049977 
L 206.216126 232.180382 
L 211.340093 229.260296 
L 216.46406 226.297923 
L 221.588027 223.300999 
L 226.711994 220.276407 
L 231.835961 217.223976 
L 236.959928 191.847362 
L 242.083895 167.699127 
L 247.207862 151.055118 
L 252.331829 138.129218 
L 257.455795 127.795908 
L 262.579762 119.409336 
L 267.703729 112.514306 
L 272.827696 106.774154 
L 277.951663 101.937808 
L 283.07563 97.81798 
L 288.199597 94.273947 
L 293.323564 91.200215 
L 298.447531 88.516574 
L 303.571498 86.161992 
L 308.695465 84.089926 
L 313.819432 82.265343 
L 318.943399 80.662182 
L 324.067366 79.262303 
L 329.191333 78.054506 
L 334.3153 77.034807 
L 339.439267 76.206863 
L 344.563233 75.583814 
L 349.6872 75.191512 
L 354.811167 75.073878 
L 359.935134 75.303 
L 365.059101 75.996283 
L 370.183068 77.349245 
L 375.307035 79.703375 
L 380.431002 83.713506 
L 385.554969 90.96769 
L 390.678936 111.610103 
L 395.802903 114.983834 
L 400.92687 111.558733 
L 406.050837 108.153829 
L 411.174804 104.783165 
L 416.298771 101.461833 
L 421.422738 98.205688 
L 426.546705 95.03061 
L 431.670671 91.951673 
L 436.794638 88.98235 
L 441.918605 86.133859 
L 447.042572 83.414719 
L 452.166539 80.830565 
L 457.290506 78.384214 
L 462.414473 76.075918 
L 467.53844 73.903748 
L 472.662407 71.864035 
L 477.786374 69.951812 
L 482.910341 68.161222 
L 488.034308 66.485861 
L 493.158275 64.919058 
L 498.282242 63.45409 
L 503.406209 62.084344 
L 508.530176 60.803422 
L 513.654143 59.605216 
L 518.77811 58.483952 
L 523.902076 57.434209 
L 529.026043 56.450927 
L 534.15001 55.5294 
L 539.273977 54.665265 
L 544.397944 53.854486 
L 549.521911 53.093334 
L 554.645878 52.378364 
L 559.769845 51.706401 
L 564.893812 51.074512 
L 570.017779 50.479992 
L 575.141746 49.920344 
L 580.265713 49.393261 
L 585.38968 48.896612 
L 590.513647 48.428424 
L 595.637614 47.986874 
" style="fill:none;stroke:#000000;stroke-linecap:square;stroke-width:1.5;"/>
   </g>
   <g id="line2d_14">
    <path clip-path="url(#pd816cf8f83)" d="M 88.364886 277.894515 
L 93.488853 277.073883 
L 98.61282 276.209251 
L 103.736787 275.298263 
L 108.860754 274.338453 
L 113.984721 273.327239 
L 119.108688 272.261929 
L 124.232655 271.139721 
L 129.356622 269.957701 
L 134.480589 268.712856 
L 139.604556 267.402078 
L 144.728523 266.022174 
L 149.85249 264.569883 
L 154.976457 263.041895 
L 160.100424 261.434874 
L 165.22439 259.745488 
L 170.348357 257.970446 
L 175.472324 256.10654 
L 180.596291 254.150694 
L 185.720258 252.100025 
L 190.844225 249.951906 
L 195.968192 247.704041 
L 201.092159 245.354541 
L 206.216126 242.902009 
L 211.340093 240.345626 
L 216.46406 237.685234 
L 221.588027 234.921418 
L 226.711994 232.055572 
L 231.835961 229.08996 
L 236.959928 226.027752 
L 242.083895 222.873037 
L 247.207862 219.630811 
L 252.331829 216.306938 
L 257.455795 212.908077 
L 262.579762 209.441588 
L 267.703729 205.915412 
L 272.827696 202.337932 
L 277.951663 198.717831 
L 283.07563 195.063936 
L 288.199597 191.385076 
L 293.323564 187.689945 
L 298.447531 183.986982 
L 303.571498 180.284272 
L 308.695465 176.589465 
L 313.819432 172.909718 
L 318.943399 169.251659 
L 324.067366 165.621366 
L 329.191333 162.024364 
L 334.3153 158.465636 
L 339.439267 154.949639 
L 344.563233 151.480334 
L 349.6872 148.061216 
L 354.811167 144.695348 
L 359.935134 141.385397 
L 365.059101 138.133666 
L 370.183068 134.942134 
L 375.307035 131.812478 
L 380.431002 128.74611 
L 385.554969 125.7442 
L 390.678936 122.8077 
L 395.802903 119.937366 
L 400.92687 117.133775 
L 406.050837 114.397343 
L 411.174804 111.728337 
L 416.298771 109.12689 
L 421.422738 106.593009 
L 426.546705 104.126585 
L 431.670671 101.727401 
L 436.794638 99.395142 
L 441.918605 97.129395 
L 447.042572 94.929659 
L 452.166539 92.795351 
L 457.290506 90.725808 
L 462.414473 88.720293 
L 467.53844 86.778 
L 472.662407 84.898056 
L 477.786374 83.079528 
L 482.910341 81.321427 
L 488.034308 79.622712 
L 493.158275 77.982293 
L 498.282242 76.399036 
L 503.406209 74.87177 
L 508.530176 73.399288 
L 513.654143 71.980353 
L 518.77811 70.613703 
L 523.902076 69.298053 
L 529.026043 68.032101 
L 534.15001 66.814535 
L 539.273977 65.644028 
L 544.397944 64.519254 
L 549.521911 63.438881 
L 554.645878 62.401579 
L 559.769845 61.406026 
L 564.893812 60.450907 
L 570.017779 59.534915 
L 575.141746 58.656761 
L 580.265713 57.815171 
L 585.38968 57.008887 
L 590.513647 56.236673 
L 595.637614 55.497316 
" style="fill:none;stroke:#3b4cc0;stroke-linecap:square;stroke-width:1.5;"/>
   </g>
   <g id="line2d_15">
    <path clip-path="url(#pd816cf8f83)" d="M 88.364886 277.277995 
L 93.488853 276.392262 
L 98.61282 275.455851 
L 103.736787 274.465783 
L 108.860754 273.418931 
L 113.984721 272.312013 
L 119.108688 271.141608 
L 124.232655 269.904157 
L 129.356622 268.595979 
L 134.480589 267.213295 
L 139.604556 265.752249 
L 144.728523 264.20895 
L 149.85249 262.579517 
L 154.976457 260.860134 
L 160.100424 259.047124 
L 165.22439 257.137033 
L 170.348357 255.126723 
L 175.472324 253.013484 
L 180.596291 250.795155 
L 185.720258 248.470242 
L 190.844225 246.038051 
L 195.968192 243.498804 
L 201.092159 240.853739 
L 206.216126 238.105193 
L 211.340093 235.256636 
L 216.46406 232.31268 
L 221.588027 229.279023 
L 226.711994 226.162355 
L 231.835961 222.970212 
L 236.959928 219.710797 
L 242.083895 216.392773 
L 247.207862 213.025043 
L 252.331829 209.616538 
L 257.455795 206.176019 
L 262.579762 202.711908 
L 267.703729 199.232149 
L 272.827696 195.744111 
L 277.951663 192.254528 
L 283.07563 188.769462 
L 288.199597 185.294313 
L 293.323564 181.833831 
L 298.447531 178.39216 
L 303.571498 174.972889 
L 308.695465 171.579105 
L 313.819432 168.213455 
L 318.943399 164.878205 
L 324.067366 161.575301 
L 329.191333 158.306417 
L 334.3153 155.07301 
L 339.439267 151.876363 
L 344.563233 148.717624 
L 349.6872 145.59784 
L 354.811167 142.51799 
L 359.935134 139.479004 
L 365.059101 136.48179 
L 370.183068 133.527245 
L 375.307035 130.616269 
L 380.431002 127.749774 
L 385.554969 124.928692 
L 390.678936 122.153971 
L 395.802903 119.42658 
L 400.92687 116.747506 
L 406.050837 114.117744 
L 411.174804 111.538295 
L 416.298771 109.010153 
L 421.422738 106.534297 
L 426.546705 104.111675 
L 431.670671 101.743199 
L 436.794638 99.429725 
L 441.918605 97.172042 
L 447.042572 94.970864 
L 452.166539 92.82681 
L 457.290506 90.7404 
L 462.414473 88.712043 
L 467.53844 86.742028 
L 472.662407 84.830519 
L 477.786374 82.977552 
L 482.910341 81.18303 
L 488.034308 79.446725 
L 493.158275 77.768275 
L 498.282242 76.147196 
L 503.406209 74.582876 
L 508.530176 73.074591 
L 513.654143 71.621505 
L 518.77811 70.222684 
L 523.902076 68.877102 
L 529.026043 67.58365 
L 534.15001 66.341151 
L 539.273977 65.148362 
L 544.397944 64.003994 
L 549.521911 62.906711 
L 554.645878 61.855146 
L 559.769845 60.847911 
L 564.893812 59.883598 
L 570.017779 58.960794 
L 575.141746 58.078084 
L 580.265713 57.234058 
L 585.38968 56.427317 
L 590.513647 55.656478 
L 595.637614 54.92018 
" style="fill:none;stroke:#7b9ff9;stroke-linecap:square;stroke-width:1.5;"/>
   </g>
   <g id="line2d_16">
    <path clip-path="url(#pd816cf8f83)" d="M 88.364886 276.616044 
L 93.488853 275.658916 
L 98.61282 274.643746 
L 103.736787 273.566923 
L 108.860754 272.424672 
L 113.984721 271.213072 
L 119.108688 269.928082 
L 124.232655 268.565573 
L 129.356622 267.121383 
L 134.480589 265.591375 
L 139.604556 263.971522 
L 144.728523 262.258004 
L 149.85249 260.447326 
L 154.976457 258.536456 
L 160.100424 256.522968 
L 165.22439 254.405209 
L 170.348357 252.182449 
L 175.472324 249.855028 
L 180.596291 247.424476 
L 185.720258 244.893583 
L 190.844225 242.266423 
L 195.968192 239.548302 
L 201.092159 236.745646 
L 206.216126 233.865816 
L 211.340093 230.916873 
L 216.46406 227.907313 
L 221.588027 224.845787 
L 226.711994 221.740829 
L 231.835961 218.600626 
L 236.959928 215.432823 
L 242.083895 212.24438 
L 247.207862 209.041486 
L 252.331829 205.829519 
L 257.455795 202.612774 
L 262.579762 199.385183 
L 267.703729 187.312973 
L 272.827696 165.941649 
L 277.951663 153.375275 
L 283.07563 143.899563 
L 288.199597 136.2957 
L 293.323564 130.028402 
L 298.447531 124.793384 
L 303.571498 120.395522 
L 308.695465 116.703332 
L 313.819432 113.627759 
L 318.943399 111.112048 
L 324.067366 109.127011 
L 329.191333 107.670759 
L 334.3153 106.772636 
L 339.439267 106.503899 
L 344.563233 107.00138 
L 349.6872 108.522567 
L 354.811167 111.603505 
L 359.935134 117.723279 
L 365.059101 134.058679 
L 370.183068 133.499457 
L 375.307035 130.44925 
L 380.431002 127.411345 
L 385.554969 124.388027 
L 390.678936 121.382443 
L 395.802903 118.397921 
L 400.92687 115.438277 
L 406.050837 112.507801 
L 411.174804 109.611218 
L 416.298771 106.753626 
L 421.422738 103.940414 
L 426.546705 101.177158 
L 431.670671 98.469491 
L 436.794638 95.822964 
L 441.918605 93.242901 
L 447.042572 90.734255 
L 452.166539 88.301475 
L 457.290506 85.948392 
L 462.414473 83.678139 
L 467.53844 81.493092 
L 472.662407 79.394851 
L 477.786374 77.384249 
L 482.910341 75.461388 
L 488.034308 73.625699 
L 493.158275 71.876012 
L 498.282242 70.210639 
L 503.406209 68.627464 
L 508.530176 67.124024 
L 513.654143 65.697591 
L 518.77811 64.345245 
L 523.902076 63.063943 
L 529.026043 61.850568 
L 534.15001 60.701983 
L 539.273977 59.615067 
L 544.397944 58.586748 
L 549.521911 57.614021 
L 554.645878 56.693977 
L 559.769845 55.823804 
L 564.893812 55.000807 
L 570.017779 54.222405 
L 575.141746 53.486139 
L 580.265713 52.78967 
L 585.38968 52.130778 
L 590.513647 51.507363 
L 595.637614 50.917436 
" style="fill:none;stroke:#c0d4f5;stroke-linecap:square;stroke-width:1.5;"/>
   </g>
   <g id="line2d_17">
    <path clip-path="url(#pd816cf8f83)" d="M 88.364886 275.90902 
L 93.488853 274.874979 
L 98.61282 273.77524 
L 103.736787 272.605705 
L 108.860754 271.362179 
L 113.984721 270.040422 
L 119.108688 268.636231 
L 124.232655 267.145534 
L 129.356622 265.564506 
L 134.480589 263.889719 
L 139.604556 262.118295 
L 144.728523 260.248096 
L 149.85249 258.277895 
L 154.976457 256.207555 
L 160.100424 254.038171 
L 165.22439 251.772167 
L 170.348357 249.413322 
L 175.472324 246.966716 
L 180.596291 244.438592 
L 185.720258 241.836134 
L 190.844225 239.167183 
L 195.968192 236.439918 
L 201.092159 233.66253 
L 206.216126 230.842926 
L 211.340093 227.979476 
L 216.46406 193.730248 
L 221.588027 164.214905 
L 226.711994 142.298159 
L 231.835961 125.738524 
L 236.959928 113.444245 
L 242.083895 104.268971 
L 247.207862 97.26879 
L 252.331829 91.779881 
L 257.455795 87.360895 
L 262.579762 83.719634 
L 267.703729 80.65952 
L 272.827696 78.045173 
L 277.951663 75.780906 
L 283.07563 73.797512 
L 288.199597 72.043897 
L 293.323564 70.481556 
L 298.447531 69.081159 
L 303.571498 67.819976 
L 308.695465 66.680492 
L 313.819432 65.649095 
L 318.943399 64.71544 
L 324.067366 63.872007 
L 329.191333 63.113872 
L 334.3153 62.438809 
L 339.439267 61.847508 
L 344.563233 61.344497 
L 349.6872 60.939659 
L 354.811167 60.651048 
L 359.935134 60.51068 
L 365.059101 60.575793 
L 370.183068 60.953872 
L 375.307035 61.861475 
L 380.431002 63.775088 
L 385.554969 67.844719 
L 390.678936 77.292407 
L 395.802903 106.01717 
L 400.92687 101.605501 
L 406.050837 97.288888 
L 411.174804 93.131542 
L 416.298771 89.18524 
L 421.422738 85.487362 
L 426.546705 82.058473 
L 431.670671 78.903612 
L 436.794638 76.015852 
L 441.918605 73.380425 
L 447.042572 70.978318 
L 452.166539 68.788923 
L 457.290506 66.791742 
L 462.414473 64.967377 
L 467.53844 63.298014 
L 472.662407 61.767586 
L 477.786374 60.36177 
L 482.910341 59.067876 
L 488.034308 57.874699 
L 493.158275 56.772358 
L 498.282242 55.752136 
L 503.406209 54.806335 
L 508.530176 53.928144 
L 513.654143 53.111523 
L 518.77811 52.351103 
L 523.902076 51.642099 
L 529.026043 50.980234 
L 534.15001 50.361676 
L 539.273977 49.78298 
L 544.397944 49.241044 
L 549.521911 48.733066 
L 554.645878 48.256508 
L 559.769845 47.809068 
L 564.893812 47.38865 
L 570.017779 46.993345 
L 575.141746 46.621407 
L 580.265713 46.27124 
L 585.38968 45.941378 
L 590.513647 45.630475 
L 595.637614 45.337292 
" style="fill:none;stroke:#f2cbb7;stroke-linecap:square;stroke-width:1.5;"/>
   </g>
   <g id="line2d_18">
    <path clip-path="url(#pd816cf8f83)" d="M 88.364886 275.160286 
L 93.488853 274.045699 
L 98.61282 272.858246 
L 103.736787 271.59375 
L 108.860754 270.248145 
L 113.984721 268.817608 
L 119.108688 267.298711 
L 124.232655 265.688595 
L 129.356622 263.985168 
L 134.480589 262.187298 
L 139.604556 260.294999 
L 144.728523 258.309576 
L 149.85249 256.233705 
L 154.976457 254.071439 
L 160.100424 251.828104 
L 165.22439 249.510106 
L 170.348357 247.12465 
L 175.472324 244.679399 
L 180.596291 242.181707 
L 185.720258 199.874345 
L 190.844225 132.449062 
L 195.968192 91.806632 
L 201.092159 78.511822 
L 206.216126 72.092879 
L 211.340093 68.10203 
L 216.46406 65.275499 
L 221.588027 63.114436 
L 226.711994 61.378182 
L 231.835961 59.934361 
L 236.959928 58.703123 
L 242.083895 57.63299 
L 247.207862 56.688929 
L 252.331829 55.846151 
L 257.455795 55.086478 
L 262.579762 54.396284 
L 267.703729 53.76503 
L 272.827696 53.184525 
L 277.951663 52.648182 
L 283.07563 52.150743 
L 288.199597 51.687848 
L 293.323564 51.256062 
L 298.447531 50.852518 
L 303.571498 50.474875 
L 308.695465 50.121317 
L 313.819432 49.790482 
L 318.943399 49.481491 
L 324.067366 49.194068 
L 329.191333 48.928748 
L 334.3153 48.687318 
L 339.439267 48.474122 
L 344.563233 48.299109 
L 349.6872 48.189482 
L 354.811167 48.268142 
L 359.935134 87.702208 
L 365.059101 79.726299 
L 370.183068 74.362246 
L 375.307035 70.378456 
L 380.431002 67.235124 
L 385.554969 64.65633 
L 390.678936 62.483123 
L 395.802903 60.615671 
L 400.92687 58.987123 
L 406.050837 57.550471 
L 411.174804 56.271357 
L 416.298771 55.123884 
L 421.422738 54.088024 
L 426.546705 53.147955 
L 431.670671 52.290952 
L 436.794638 51.50662 
L 441.918605 50.786354 
L 447.042572 50.122946 
L 452.166539 49.510295 
L 457.290506 48.943193 
L 462.414473 48.417153 
L 467.53844 47.928284 
L 472.662407 47.473189 
L 477.786374 47.048884 
L 482.910341 46.652734 
L 488.034308 46.282401 
L 493.158275 45.9358 
L 498.282242 45.611064 
L 503.406209 45.306516 
L 508.530176 45.020645 
L 513.654143 44.75208 
L 518.77811 44.499581 
L 523.902076 44.262017 
L 529.026043 44.038358 
L 534.15001 43.827659 
L 539.273977 43.629058 
L 544.397944 43.441759 
L 549.521911 43.265031 
L 554.645878 43.098201 
L 559.769845 42.940646 
L 564.893812 42.791791 
L 570.017779 42.6511 
L 575.141746 42.51808 
L 580.265713 42.39227 
L 585.38968 42.273241 
L 590.513647 42.160596 
L 595.637614 42.053962 
" style="fill:none;stroke:#ee8468;stroke-linecap:square;stroke-width:1.5;"/>
   </g>
   <g id="line2d_19">
    <path clip-path="url(#pd816cf8f83)" d="M 88.364886 274.377574 
L 93.488853 273.182217 
L 98.61282 271.908524 
L 103.736787 270.552977 
L 108.860754 269.112562 
L 113.984721 267.584971 
L 119.108688 265.968811 
L 124.232655 264.263793 
L 129.356622 262.470904 
L 134.480589 260.592493 
L 139.604556 258.632291 
L 144.728523 256.595303 
L 149.85249 254.48761 
L 154.976457 252.316066 
L 160.100424 249.90917 
L 165.22439 63.325242 
L 170.348357 55.755948 
L 175.472324 53.420167 
L 180.596291 52.024515 
L 185.720258 51.022978 
L 190.844225 50.238233 
L 195.968192 49.591054 
L 201.092159 49.039214 
L 206.216126 48.557566 
L 211.340093 48.12993 
L 216.46406 47.745211 
L 221.588027 47.39557 
L 226.711994 47.075171 
L 231.835961 46.779597 
L 236.959928 46.505411 
L 242.083895 46.24985 
L 247.207862 46.010752 
L 252.331829 45.786312 
L 257.455795 45.575061 
L 262.579762 45.375791 
L 267.703729 45.187521 
L 272.827696 45.009498 
L 277.951663 44.841264 
L 283.07563 44.683024 
L 288.199597 70.411087 
L 293.323564 65.520687 
L 298.447531 62.373645 
L 303.571498 60.007187 
L 308.695465 58.105177 
L 313.819432 56.517459 
L 318.943399 55.159041 
L 324.067366 53.976438 
L 329.191333 52.93349 
L 334.3153 52.004451 
L 339.439267 51.170246 
L 344.563233 50.416299 
L 349.6872 49.73119 
L 354.811167 49.105783 
L 359.935134 48.532643 
L 365.059101 48.005626 
L 370.183068 47.519594 
L 375.307035 47.070199 
L 380.431002 46.65373 
L 385.554969 46.266986 
L 390.678936 45.907193 
L 395.802903 45.571922 
L 400.92687 45.25904 
L 406.050837 44.966659 
L 411.174804 44.693103 
L 416.298771 44.436874 
L 421.422738 44.196629 
L 426.546705 43.971161 
L 431.670671 43.759379 
L 436.794638 43.560293 
L 441.918605 43.373006 
L 447.042572 43.196698 
L 452.166539 43.030621 
L 457.290506 42.874091 
L 462.414473 42.726477 
L 467.53844 42.587203 
L 472.662407 42.455734 
L 477.786374 42.331579 
L 482.910341 42.214282 
L 488.034308 42.103422 
L 493.158275 41.998608 
L 498.282242 41.899476 
L 503.406209 41.80569 
L 508.530176 41.716933 
L 513.654143 41.632914 
L 518.77811 41.553358 
L 523.902076 41.478009 
L 529.026043 41.406629 
L 534.15001 41.338994 
L 539.273977 41.274893 
L 544.397944 41.214131 
L 549.521911 41.156523 
L 554.645878 41.101895 
L 559.769845 41.050086 
L 564.893812 41.000942 
L 570.017779 40.954318 
L 575.141746 40.910081 
L 580.265713 40.868102 
L 585.38968 40.828261 
L 590.513647 40.790444 
L 595.637614 40.754545 
" style="fill:none;stroke:#b40426;stroke-linecap:square;stroke-width:1.5;"/>
   </g>
   <g id="line2d_20">
    <path clip-path="url(#pd816cf8f83)" d="M 88.364886 277.894515 
L 93.488853 277.073883 
L 98.61282 276.209251 
L 103.736787 275.298263 
L 108.860754 274.338453 
L 113.984721 273.327239 
L 119.108688 272.261929 
L 124.232655 271.139721 
L 129.356622 269.957701 
L 134.480589 268.712856 
L 139.604556 267.402078 
L 144.728523 266.022174 
L 149.85249 264.569883 
L 154.976457 263.041895 
L 160.100424 261.434874 
L 165.22439 259.745488 
L 170.348357 257.970446 
L 175.472324 256.10654 
L 180.596291 254.150694 
L 185.720258 252.100025 
L 190.844225 249.951906 
L 195.968192 247.704041 
L 201.092159 245.354541 
L 206.216126 242.902009 
L 211.340093 240.345626 
L 216.46406 237.685234 
L 221.588027 234.921418 
L 226.711994 232.055572 
L 231.835961 229.08996 
L 236.959928 226.027752 
L 242.083895 222.873037 
L 247.207862 219.630811 
L 252.331829 216.306938 
L 257.455795 212.908077 
L 262.579762 209.441588 
L 267.703729 205.915412 
L 272.827696 202.337932 
L 277.951663 198.717831 
L 283.07563 195.063936 
L 288.199597 191.385076 
L 293.323564 187.689945 
L 298.447531 183.986982 
L 303.571498 180.284272 
L 308.695465 176.589465 
L 313.819432 172.909718 
L 318.943399 169.251659 
L 324.067366 165.621366 
L 329.191333 162.024364 
L 334.3153 158.465636 
L 339.439267 154.949639 
L 344.563233 151.480334 
L 349.6872 148.061216 
L 354.811167 144.695348 
L 359.935134 141.385397 
L 365.059101 138.133666 
L 370.183068 134.942134 
L 375.307035 131.812478 
L 380.431002 128.74611 
L 385.554969 125.7442 
L 390.678936 122.8077 
L 395.802903 119.937366 
L 400.92687 117.133775 
L 406.050837 114.397343 
L 411.174804 111.728337 
L 416.298771 109.12689 
L 421.422738 106.593009 
L 426.546705 104.126585 
L 431.670671 101.727401 
L 436.794638 99.395142 
L 441.918605 97.129395 
L 447.042572 94.929659 
L 452.166539 92.795351 
L 457.290506 90.725808 
L 462.414473 88.720293 
L 467.53844 86.778 
L 472.662407 84.898056 
L 477.786374 83.079528 
L 482.910341 81.321427 
L 488.034308 79.622712 
L 493.158275 77.982293 
L 498.282242 76.399036 
L 503.406209 74.87177 
L 508.530176 73.399288 
L 513.654143 71.980353 
L 518.77811 70.613703 
L 523.902076 69.298053 
L 529.026043 68.032101 
L 534.15001 66.814535 
L 539.273977 65.644028 
L 544.397944 64.519254 
L 549.521911 63.438881 
L 554.645878 62.401579 
L 559.769845 61.406026 
L 564.893812 60.450907 
L 570.017779 59.534915 
L 575.141746 58.656761 
L 580.265713 57.815171 
L 585.38968 57.008887 
L 590.513647 56.236673 
L 595.637614 55.497316 
" style="fill:none;stroke:#3b4cc0;stroke-linecap:square;stroke-width:1.5;"/>
   </g>
   <g id="line2d_21">
    <path clip-path="url(#pd816cf8f83)" d="M 88.364886 277.277995 
L 93.488853 276.392262 
L 98.61282 275.455851 
L 103.736787 274.465783 
L 108.860754 273.418931 
L 113.984721 272.312013 
L 119.108688 271.141608 
L 124.232655 269.904157 
L 129.356622 268.595979 
L 134.480589 267.213295 
L 139.604556 265.752249 
L 144.728523 264.20895 
L 149.85249 262.579517 
L 154.976457 260.860134 
L 160.100424 259.047124 
L 165.22439 257.137033 
L 170.348357 255.126723 
L 175.472324 253.013484 
L 180.596291 250.795155 
L 185.720258 248.470242 
L 190.844225 246.038051 
L 195.968192 243.498804 
L 201.092159 240.853739 
L 206.216126 238.105193 
L 211.340093 235.256636 
L 216.46406 232.31268 
L 221.588027 229.279023 
L 226.711994 226.162355 
L 231.835961 222.970212 
L 236.959928 219.710797 
L 242.083895 216.392773 
L 247.207862 213.025043 
L 252.331829 209.616538 
L 257.455795 206.176019 
L 262.579762 202.711908 
L 267.703729 199.232149 
L 272.827696 195.744111 
L 277.951663 192.254528 
L 283.07563 188.769462 
L 288.199597 185.294313 
L 293.323564 181.833831 
L 298.447531 178.39216 
L 303.571498 174.972889 
L 308.695465 171.579105 
L 313.819432 168.213455 
L 318.943399 164.878205 
L 324.067366 161.575301 
L 329.191333 158.306417 
L 334.3153 155.07301 
L 339.439267 151.876363 
L 344.563233 148.717624 
L 349.6872 145.59784 
L 354.811167 142.51799 
L 359.935134 139.479004 
L 365.059101 136.48179 
L 370.183068 133.527245 
L 375.307035 130.616269 
L 380.431002 127.749774 
L 385.554969 124.928692 
L 390.678936 122.153971 
L 395.802903 119.42658 
L 400.92687 116.747506 
L 406.050837 114.117744 
L 411.174804 111.538295 
L 416.298771 109.010153 
L 421.422738 106.534297 
L 426.546705 104.111675 
L 431.670671 101.743199 
L 436.794638 99.429725 
L 441.918605 97.172042 
L 447.042572 94.970864 
L 452.166539 92.82681 
L 457.290506 90.7404 
L 462.414473 88.712043 
L 467.53844 86.742028 
L 472.662407 84.830519 
L 477.786374 82.977552 
L 482.910341 81.18303 
L 488.034308 79.446725 
L 493.158275 77.768275 
L 498.282242 76.147196 
L 503.406209 74.582876 
L 508.530176 73.074591 
L 513.654143 71.621505 
L 518.77811 70.222684 
L 523.902076 68.877102 
L 529.026043 67.58365 
L 534.15001 66.341151 
L 539.273977 65.148362 
L 544.397944 64.003994 
L 549.521911 62.906711 
L 554.645878 61.855146 
L 559.769845 60.847911 
L 564.893812 59.883598 
L 570.017779 58.960794 
L 575.141746 58.078084 
L 580.265713 57.234058 
L 585.38968 56.427317 
L 590.513647 55.656478 
L 595.637614 54.92018 
" style="fill:none;stroke:#7b9ff9;stroke-linecap:square;stroke-width:1.5;"/>
   </g>
   <g id="line2d_22">
    <path clip-path="url(#pd816cf8f83)" d="M 88.364886 276.616044 
L 93.488853 275.658916 
L 98.61282 274.643746 
L 103.736787 273.566923 
L 108.860754 272.424672 
L 113.984721 271.213072 
L 119.108688 269.928082 
L 124.232655 268.565573 
L 129.356622 267.121383 
L 134.480589 265.591375 
L 139.604556 263.971522 
L 144.728523 262.258004 
L 149.85249 260.447326 
L 154.976457 258.536456 
L 160.100424 256.522968 
L 165.22439 254.405209 
L 170.348357 252.182449 
L 175.472324 249.855028 
L 180.596291 247.424476 
L 185.720258 244.893583 
L 190.844225 242.266423 
L 195.968192 239.548302 
L 201.092159 236.745646 
L 206.216126 233.865816 
L 211.340093 230.916873 
L 216.46406 227.907313 
L 221.588027 224.845787 
L 226.711994 221.740829 
L 231.835961 218.600626 
L 236.959928 215.432823 
L 242.083895 212.24438 
L 247.207862 209.041486 
L 252.331829 205.829519 
L 257.455795 202.613305 
L 262.579762 199.407025 
L 267.703729 204.830061 
L 272.827696 218.112371 
L 277.951663 223.134214 
L 283.07563 225.59779 
L 288.199597 226.650913 
L 293.323564 226.75169 
L 298.447531 226.127363 
L 303.571498 224.899596 
L 308.695465 223.130225 
L 313.819432 220.842651 
L 318.943399 218.030858 
L 324.067366 214.662783 
L 329.191333 210.679807 
L 334.3153 205.991655 
L 339.439267 200.465406 
L 344.563233 193.902479 
L 349.6872 185.984921 
L 354.811167 176.122521 
L 359.935134 162.793483 
L 365.059101 139.086763 
L 370.183068 133.501165 
L 375.307035 130.449856 
L 380.431002 127.411345 
L 385.554969 124.388027 
L 390.678936 121.382443 
L 395.802903 118.397921 
L 400.92687 115.438277 
L 406.050837 112.507801 
L 411.174804 109.611218 
L 416.298771 106.753626 
L 421.422738 103.940414 
L 426.546705 101.177158 
L 431.670671 98.469491 
L 436.794638 95.822964 
L 441.918605 93.242901 
L 447.042572 90.734255 
L 452.166539 88.301475 
L 457.290506 85.948392 
L 462.414473 83.678139 
L 467.53844 81.493092 
L 472.662407 79.394851 
L 477.786374 77.384249 
L 482.910341 75.461388 
L 488.034308 73.625699 
L 493.158275 71.876012 
L 498.282242 70.210639 
L 503.406209 68.627464 
L 508.530176 67.124024 
L 513.654143 65.697591 
L 518.77811 64.345245 
L 523.902076 63.063943 
L 529.026043 61.850568 
L 534.15001 60.701983 
L 539.273977 59.615067 
L 544.397944 58.586748 
L 549.521911 57.614021 
L 554.645878 56.693977 
L 559.769845 55.823804 
L 564.893812 55.000807 
L 570.017779 54.222405 
L 575.141746 53.486139 
L 580.265713 52.78967 
L 585.38968 52.130778 
L 590.513647 51.507363 
L 595.637614 50.917436 
" style="fill:none;stroke:#c0d4f5;stroke-linecap:square;stroke-width:1.5;"/>
   </g>
   <g id="line2d_23">
    <path clip-path="url(#pd816cf8f83)" d="M 88.364886 275.90902 
L 93.488853 274.874979 
L 98.61282 273.77524 
L 103.736787 272.605705 
L 108.860754 271.362179 
L 113.984721 270.040422 
L 119.108688 268.636231 
L 124.232655 267.145534 
L 129.356622 265.564506 
L 134.480589 263.889719 
L 139.604556 262.118295 
L 144.728523 260.248096 
L 149.85249 258.277895 
L 154.976457 256.207555 
L 160.100424 254.038171 
L 165.22439 251.772167 
L 170.348357 249.413322 
L 175.472324 246.966716 
L 180.596291 244.438592 
L 185.720258 241.836134 
L 190.844225 239.167183 
L 195.968192 236.439918 
L 201.092159 233.66253 
L 206.216126 230.842926 
L 211.340093 227.996939 
L 216.46406 250.028686 
L 221.588027 261.44422 
L 226.711994 266.721257 
L 231.835961 269.400812 
L 236.959928 270.720462 
L 242.083895 271.29089 
L 247.207862 271.424964 
L 252.331829 271.285449 
L 257.455795 270.959561 
L 262.579762 270.495632 
L 267.703729 269.921008 
L 272.827696 269.25104 
L 277.951663 268.493776 
L 283.07563 267.652428 
L 288.199597 266.726742 
L 293.323564 265.713667 
L 298.447531 264.607681 
L 303.571498 263.400784 
L 308.695465 262.082318 
L 313.819432 260.638481 
L 318.943399 259.051702 
L 324.067366 257.299476 
L 329.191333 255.352911 
L 334.3153 253.174386 
L 339.439267 250.714099 
L 344.563233 247.904687 
L 349.6872 244.653092 
L 354.811167 240.825971 
L 359.935134 236.22671 
L 365.059101 230.552704 
L 370.183068 223.318843 
L 375.307035 213.714707 
L 380.431002 200.366167 
L 385.554969 181.064711 
L 390.678936 152.49536 
L 395.802903 106.025488 
L 400.92687 101.605501 
L 406.050837 97.288888 
L 411.174804 93.131542 
L 416.298771 89.18524 
L 421.422738 85.487362 
L 426.546705 82.058473 
L 431.670671 78.903612 
L 436.794638 76.015852 
L 441.918605 73.380425 
L 447.042572 70.978318 
L 452.166539 68.788923 
L 457.290506 66.791742 
L 462.414473 64.967377 
L 467.53844 63.298014 
L 472.662407 61.767586 
L 477.786374 60.36177 
L 482.910341 59.067876 
L 488.034308 57.874699 
L 493.158275 56.772358 
L 498.282242 55.752136 
L 503.406209 54.806335 
L 508.530176 53.928144 
L 513.654143 53.111523 
L 518.77811 52.351103 
L 523.902076 51.642099 
L 529.026043 50.980234 
L 534.15001 50.361676 
L 539.273977 49.78298 
L 544.397944 49.241044 
L 549.521911 48.733066 
L 554.645878 48.256508 
L 559.769845 47.809068 
L 564.893812 47.38865 
L 570.017779 46.993345 
L 575.141746 46.621407 
L 580.265713 46.27124 
L 585.38968 45.941378 
L 590.513647 45.630475 
L 595.637614 45.337292 
" style="fill:none;stroke:#f2cbb7;stroke-linecap:square;stroke-width:1.5;"/>
   </g>
   <g id="line2d_24">
    <path clip-path="url(#pd816cf8f83)" d="M 88.364886 275.160286 
L 93.488853 274.045699 
L 98.61282 272.858246 
L 103.736787 271.59375 
L 108.860754 270.248145 
L 113.984721 268.817608 
L 119.108688 267.298711 
L 124.232655 265.688595 
L 129.356622 263.985168 
L 134.480589 262.187298 
L 139.604556 260.294999 
L 144.728523 258.309576 
L 149.85249 256.233705 
L 154.976457 254.071439 
L 160.100424 251.828104 
L 165.22439 249.510106 
L 170.348357 247.12465 
L 175.472324 244.679399 
L 180.596291 242.182506 
L 185.720258 266.096492 
L 190.844225 280.315052 
L 195.968192 283.188948 
L 201.092159 283.4669 
L 206.216126 283.366676 
L 211.340093 283.152651 
L 216.46406 282.883524 
L 221.588027 282.578802 
L 226.711994 282.246373 
L 231.835961 281.889634 
L 236.959928 281.509898 
L 242.083895 281.107332 
L 247.207862 280.681385 
L 252.331829 280.230982 
L 257.455795 279.754592 
L 262.579762 279.250268 
L 267.703729 278.715606 
L 272.827696 278.147725 
L 277.951663 277.543129 
L 283.07563 276.897617 
L 288.199597 276.206055 
L 293.323564 275.462366 
L 298.447531 274.658673 
L 303.571498 273.785295 
L 308.695465 272.829754 
L 313.819432 271.775664 
L 318.943399 270.600823 
L 324.067366 269.274174 
L 329.191333 267.750065 
L 334.3153 265.95742 
L 339.439267 263.775101 
L 344.563233 260.969156 
L 349.6872 256.974646 
L 354.811167 249.539634 
L 359.935134 87.702208 
L 365.059101 79.726299 
L 370.183068 74.362246 
L 375.307035 70.378456 
L 380.431002 67.235124 
L 385.554969 64.65633 
L 390.678936 62.483123 
L 395.802903 60.615671 
L 400.92687 58.987123 
L 406.050837 57.550471 
L 411.174804 56.271357 
L 416.298771 55.123884 
L 421.422738 54.088024 
L 426.546705 53.147955 
L 431.670671 52.290952 
L 436.794638 51.50662 
L 441.918605 50.786354 
L 447.042572 50.122946 
L 452.166539 49.510295 
L 457.290506 48.943193 
L 462.414473 48.417153 
L 467.53844 47.928284 
L 472.662407 47.473189 
L 477.786374 47.048884 
L 482.910341 46.652734 
L 488.034308 46.282401 
L 493.158275 45.9358 
L 498.282242 45.611064 
L 503.406209 45.306516 
L 508.530176 45.020645 
L 513.654143 44.75208 
L 518.77811 44.499581 
L 523.902076 44.262017 
L 529.026043 44.038358 
L 534.15001 43.827659 
L 539.273977 43.629058 
L 544.397944 43.441759 
L 549.521911 43.265031 
L 554.645878 43.098201 
L 559.769845 42.940646 
L 564.893812 42.791791 
L 570.017779 42.6511 
L 575.141746 42.51808 
L 580.265713 42.39227 
L 585.38968 42.273241 
L 590.513647 42.160596 
L 595.637614 42.053962 
" style="fill:none;stroke:#ee8468;stroke-linecap:square;stroke-width:1.5;"/>
   </g>
   <g id="line2d_25">
    <path clip-path="url(#pd816cf8f83)" d="M 88.364886 274.377574 
L 93.488853 273.182217 
L 98.61282 271.908524 
L 103.736787 270.552977 
L 108.860754 269.112562 
L 113.984721 267.584971 
L 119.108688 265.968811 
L 124.232655 264.263793 
L 129.356622 262.470904 
L 134.480589 260.592493 
L 139.604556 258.632291 
L 144.728523 256.595303 
L 149.85249 254.48761 
L 154.976457 252.316066 
L 160.100424 250.270231 
L 165.22439 287.845455 
L 170.348357 287.724524 
L 175.472324 287.549979 
L 180.596291 287.362375 
L 185.720258 287.164937 
L 190.844225 286.958194 
L 195.968192 286.741969 
L 201.092159 286.515809 
L 206.216126 286.279076 
L 211.340093 286.030986 
L 216.46406 285.770608 
L 221.588027 285.496808 
L 226.711994 285.208264 
L 231.835961 284.903402 
L 236.959928 284.580287 
L 242.083895 284.236563 
L 247.207862 283.869302 
L 252.331829 283.474677 
L 257.455795 283.047657 
L 262.579762 282.581264 
L 267.703729 282.065233 
L 272.827696 281.482999 
L 277.951663 280.803494 
L 283.07563 279.941945 
L 288.199597 70.411087 
L 293.323564 65.520687 
L 298.447531 62.373645 
L 303.571498 60.007187 
L 308.695465 58.105177 
L 313.819432 56.517459 
L 318.943399 55.159041 
L 324.067366 53.976438 
L 329.191333 52.93349 
L 334.3153 52.004451 
L 339.439267 51.170246 
L 344.563233 50.416299 
L 349.6872 49.73119 
L 354.811167 49.105783 
L 359.935134 48.532643 
L 365.059101 48.005626 
L 370.183068 47.519594 
L 375.307035 47.070199 
L 380.431002 46.65373 
L 385.554969 46.266986 
L 390.678936 45.907193 
L 395.802903 45.571922 
L 400.92687 45.25904 
L 406.050837 44.966659 
L 411.174804 44.693103 
L 416.298771 44.436874 
L 421.422738 44.196629 
L 426.546705 43.971161 
L 431.670671 43.759379 
L 436.794638 43.560293 
L 441.918605 43.373006 
L 447.042572 43.196698 
L 452.166539 43.030621 
L 457.290506 42.874091 
L 462.414473 42.726477 
L 467.53844 42.587203 
L 472.662407 42.455734 
L 477.786374 42.331579 
L 482.910341 42.214282 
L 488.034308 42.103422 
L 493.158275 41.998608 
L 498.282242 41.899476 
L 503.406209 41.80569 
L 508.530176 41.716933 
L 513.654143 41.632914 
L 518.77811 41.553358 
L 523.902076 41.478009 
L 529.026043 41.406629 
L 534.15001 41.338994 
L 539.273977 41.274893 
L 544.397944 41.214131 
L 549.521911 41.156523 
L 554.645878 41.101895 
L 559.769845 41.050086 
L 564.893812 41.000942 
L 570.017779 40.954318 
L 575.141746 40.910081 
L 580.265713 40.868102 
L 585.38968 40.828261 
L 590.513647 40.790444 
L 595.637614 40.754545 
" style="fill:none;stroke:#b40426;stroke-linecap:square;stroke-width:1.5;"/>
   </g>
   <g id="line2d_26">
    <path clip-path="url(#pd816cf8f83)" d="M 88.364886 276.268042 
L 93.488853 275.27306 
L 98.61282 274.216207 
L 103.736787 273.093595 
L 108.860754 271.901194 
L 113.984721 270.634859 
L 119.108688 269.290383 
L 124.232655 267.863552 
L 129.356622 266.35023 
L 134.480589 264.746456 
L 139.604556 263.048569 
L 144.728523 261.253344 
L 149.85249 259.358157 
L 154.976457 257.361152 
L 160.100424 255.261411 
L 165.22439 253.059113 
L 170.348357 250.755663 
L 175.472324 248.353773 
L 180.596291 245.85748 
L 185.720258 243.272085 
L 190.844225 240.604022 
L 195.968192 237.860648 
L 201.092159 235.049977 
L 206.216126 232.180382 
L 211.340093 229.260296 
L 216.46406 226.297923 
L 221.588027 223.300999 
L 226.711994 220.276783 
L 231.835961 217.237664 
L 236.959928 233.907267 
L 242.083895 245.890308 
L 247.207862 251.452368 
L 252.331829 254.555126 
L 257.455795 256.301519 
L 262.579762 257.19907 
L 267.703729 257.523988 
L 272.827696 257.437868 
L 277.951663 257.038582 
L 283.07563 256.386085 
L 288.199597 255.51655 
L 293.323564 254.450388 
L 298.447531 253.196896 
L 303.571498 251.756847 
L 308.695465 250.123949 
L 313.819432 248.285158 
L 318.943399 246.220735 
L 324.067366 243.903318 
L 329.191333 241.296464 
L 334.3153 238.352525 
L 339.439267 235.009303 
L 344.563233 231.185412 
L 349.6872 226.773507 
L 354.811167 221.631124 
L 359.935134 215.56735 
L 365.059101 208.324499 
L 370.183068 199.552795 
L 375.307035 188.764182 
L 380.431002 175.217709 
L 385.554969 157.378406 
L 390.678936 125.421141 
L 395.802903 114.98445 
L 400.92687 111.558733 
L 406.050837 108.153829 
L 411.174804 104.783165 
L 416.298771 101.461833 
L 421.422738 98.205688 
L 426.546705 95.03061 
L 431.670671 91.951673 
L 436.794638 88.98235 
L 441.918605 86.133859 
L 447.042572 83.414719 
L 452.166539 80.830565 
L 457.290506 78.384214 
L 462.414473 76.075918 
L 467.53844 73.903748 
L 472.662407 71.864035 
L 477.786374 69.951812 
L 482.910341 68.161222 
L 488.034308 66.485861 
L 493.158275 64.919058 
L 498.282242 63.45409 
L 503.406209 62.084344 
L 508.530176 60.803422 
L 513.654143 59.605216 
L 518.77811 58.483952 
L 523.902076 57.434209 
L 529.026043 56.450927 
L 534.15001 55.5294 
L 539.273977 54.665265 
L 544.397944 53.854486 
L 549.521911 53.093334 
L 554.645878 52.378364 
L 559.769845 51.706401 
L 564.893812 51.074512 
L 570.017779 50.479992 
L 575.141746 49.920344 
L 580.265713 49.393261 
L 585.38968 48.896612 
L 590.513647 48.428424 
L 595.637614 47.986874 
" style="fill:none;stroke:#000000;stroke-linecap:square;stroke-width:1.5;"/>
   </g>
   <g id="patch_3">
    <path d="M 63.00125 300.2 
L 63.00125 28.4 
" style="fill:none;stroke:#000000;stroke-linecap:square;stroke-linejoin:miter;stroke-width:0.8;"/>
   </g>
   <g id="patch_4">
    <path d="M 621.00125 300.2 
L 621.00125 28.4 
" style="fill:none;stroke:#000000;stroke-linecap:square;stroke-linejoin:miter;stroke-width:0.8;"/>
   </g>
   <g id="patch_5">
    <path d="M 63.00125 300.2 
L 621.00125 300.2 
" style="fill:none;stroke:#000000;stroke-linecap:square;stroke-linejoin:miter;stroke-width:0.8;"/>
   </g>
   <g id="patch_6">
    <path d="M 63.00125 28.4 
L 621.00125 28.4 
" style="fill:none;stroke:#000000;stroke-linecap:square;stroke-linejoin:miter;stroke-width:0.8;"/>
   </g>
   <g id="text_15">
    <!-- $R_e$ only -->
    <defs>
     <path d="M 25.203125 64.796875 
L 20.21875 38.921875 
L 32.90625 38.921875 
Q 40.375 38.921875 44.984375 43.046875 
Q 49.609375 47.171875 49.609375 53.8125 
Q 49.609375 59.125 46.5 61.953125 
Q 43.40625 64.796875 37.59375 64.796875 
z
M 43.3125 35.015625 
Q 46.4375 34.28125 48.515625 31.390625 
Q 50.59375 28.515625 53.328125 19.921875 
L 59.515625 0 
L 49.125 0 
L 43.40625 18.703125 
Q 41.21875 25.921875 38.328125 28.359375 
Q 35.453125 30.8125 29.5 30.8125 
L 18.609375 30.8125 
L 12.59375 0 
L 2.6875 0 
L 16.890625 72.90625 
L 39.109375 72.90625 
Q 49.21875 72.90625 54.609375 68.328125 
Q 60.015625 63.765625 60.015625 55.171875 
Q 60.015625 47.5625 55.421875 41.984375 
Q 50.828125 36.421875 43.3125 35.015625 
z
" id="DejaVuSans-Oblique-82"/>
     <path d="M 30.609375 48.390625 
Q 23.390625 48.390625 19.1875 42.75 
Q 14.984375 37.109375 14.984375 27.296875 
Q 14.984375 17.484375 19.15625 11.84375 
Q 23.34375 6.203125 30.609375 6.203125 
Q 37.796875 6.203125 41.984375 11.859375 
Q 46.1875 17.53125 46.1875 27.296875 
Q 46.1875 37.015625 41.984375 42.703125 
Q 37.796875 48.390625 30.609375 48.390625 
z
M 30.609375 56 
Q 42.328125 56 49.015625 48.375 
Q 55.71875 40.765625 55.71875 27.296875 
Q 55.71875 13.875 49.015625 6.21875 
Q 42.328125 -1.421875 30.609375 -1.421875 
Q 18.84375 -1.421875 12.171875 6.21875 
Q 5.515625 13.875 5.515625 27.296875 
Q 5.515625 40.765625 12.171875 48.375 
Q 18.84375 56 30.609375 56 
z
" id="DejaVuSans-111"/>
     <path d="M 54.890625 33.015625 
L 54.890625 0 
L 45.90625 0 
L 45.90625 32.71875 
Q 45.90625 40.484375 42.875 44.328125 
Q 39.84375 48.1875 33.796875 48.1875 
Q 26.515625 48.1875 22.3125 43.546875 
Q 18.109375 38.921875 18.109375 30.90625 
L 18.109375 0 
L 9.078125 0 
L 9.078125 54.6875 
L 18.109375 54.6875 
L 18.109375 46.1875 
Q 21.34375 51.125 25.703125 53.5625 
Q 30.078125 56 35.796875 56 
Q 45.21875 56 50.046875 50.171875 
Q 54.890625 44.34375 54.890625 33.015625 
z
" id="DejaVuSans-110"/>
     <path d="M 9.421875 75.984375 
L 18.40625 75.984375 
L 18.40625 0 
L 9.421875 0 
z
" id="DejaVuSans-108"/>
     <path d="M 32.171875 -5.078125 
Q 28.375 -14.84375 24.75 -17.8125 
Q 21.140625 -20.796875 15.09375 -20.796875 
L 7.90625 -20.796875 
L 7.90625 -13.28125 
L 13.1875 -13.28125 
Q 16.890625 -13.28125 18.9375 -11.515625 
Q 21 -9.765625 23.484375 -3.21875 
L 25.09375 0.875 
L 2.984375 54.6875 
L 12.5 54.6875 
L 29.59375 11.921875 
L 46.6875 54.6875 
L 56.203125 54.6875 
z
" id="DejaVuSans-121"/>
    </defs>
    <g transform="translate(306.10125 22.4)scale(0.2 -0.2)">
     <use transform="translate(0 0.015625)" xlink:href="#DejaVuSans-Oblique-82"/>
     <use transform="translate(69.482422 -16.390625)scale(0.7)" xlink:href="#DejaVuSans-Oblique-101"/>
     <use transform="translate(115.283203 0.015625)" xlink:href="#DejaVuSans-32"/>
     <use transform="translate(147.070312 0.015625)" xlink:href="#DejaVuSans-111"/>
     <use transform="translate(208.251953 0.015625)" xlink:href="#DejaVuSans-110"/>
     <use transform="translate(271.630859 0.015625)" xlink:href="#DejaVuSans-108"/>
     <use transform="translate(299.414062 0.015625)" xlink:href="#DejaVuSans-121"/>
    </g>
   </g>
  </g>
 </g>
 <defs>
  <clipPath id="pd816cf8f83">
   <rect height="271.8" width="558" x="63.00125" y="28.4"/>
  </clipPath>
 </defs>
</svg>
